<?xml version="1.0" encoding="UTF-8" standalone="no"?>
<!DOCTYPE svg PUBLIC "-//W3C//DTD SVG 1.1//EN" "http://www.w3.org/Graphics/SVG/1.1/DTD/svg11.dtd">
<svg xmlns="http://www.w3.org/2000/svg" version="1.1" viewBox="0.00 0.00 256.00 360.00">
<g stroke-width="2.00" fill="none" stroke-linecap="butt">
<path stroke="#808080" vector-effect="non-scaling-stroke" d="
  M 101.8316 66.0755
  A 11.61 11.61 0.0 0 0 95.6543 50.8628
  L 89.8693 48.4191
  A 11.61 11.61 0.0 0 0 74.6566 54.5963
  L 72.2284 60.3445
  A 11.61 11.61 0.0 0 0 78.4057 75.5572
  L 84.1907 78.0009
  A 11.61 11.61 0.0 0 0 99.4034 71.8237
  L 101.8316 66.0755"
/>
<path stroke="#808080" vector-effect="non-scaling-stroke" d="
  M 137.09 117.21
  Q 144.03 107.53 135.36 99.17
  Q 134.93 98.76 135.02 98.18
  Q 136.48 88.22 145.49 84.89
  Q 147.57 84.12 149.78 84.17
  C 158.93 84.36 159.04 71.10 149.84 71.35
  C 136.23 71.72 125.08 81.28 122.68 94.62
  A 0.45 0.45 0.0 0 1 122.13 94.98
  Q 99.62 89.91 78.72 85.00
  C 72.50 83.53 67.08 83.76 62.43 88.22
  Q 60.06 90.48 58.16 95.36
  Q 50.59 114.73 43.29 132.42
  Q 41.24 137.38 41.45 140.81
  Q 41.87 147.50 47.28 151.77
  Q 49.75 153.72 55.16 155.00
  Q 74.80 159.66 90.95 163.69
  Q 91.39 163.80 91.37 164.26
  L 89.80 198.81
  Q 89.78 199.40 89.18 199.47
  Q 78.28 200.70 71.24 193.28
  C 68.19 190.07 63.96 190.41 61.05 193.54
  Q 57.56 197.28 52.00 198.93
  C 49.22 199.75 45.79 199.15 43.42 200.49
  C 38.85 203.08 38.76 209.52 43.67 211.77
  Q 45.64 212.68 48.16 212.45
  Q 58.62 211.53 65.61 206.30
  Q 66.11 205.92 66.64 206.26
  Q 86.13 218.75 105.61 206.32
  Q 106.08 206.02 106.56 206.32
  Q 125.88 218.69 145.51 206.33
  Q 145.95 206.05 146.40 206.33
  Q 165.93 218.72 185.34 206.27
  Q 185.80 205.97 186.25 206.29
  Q 193.91 211.83 204.58 212.48
  C 214.08 213.06 214.42 199.75 205.49 199.66
  C 200.92 199.61 195.55 198.04 192.22 194.75
  Q 190.71 193.25 189.01 192.03
  A 0.94 0.94 0.0 0 1 188.62 191.27
  Q 188.63 147.58 188.59 99.72
  C 188.58 92.69 192.84 86.86 199.53 84.71
  C 201.99 83.92 204.74 84.57 206.98 83.27
  C 212.35 80.15 210.82 71.78 204.45 71.39
  Q 202.43 71.27 200.33 71.56
  C 189.01 73.17 180.48 80.59 176.93 91.47
  Q 175.60 95.56 175.84 104.26
  Q 176.01 110.63 175.83 117.31
  A 0.33 0.32 -89.1 0 1 175.51 117.63
  L 137.30 117.62
  Q 136.79 117.62 137.09 117.21"
/>
<path stroke="#808080" vector-effect="non-scaling-stroke" d="
  M 83.31 111.88
  L 74.16 134.71
  A 0.25 0.25 0.0 0 0 74.33 135.05
  Q 88.94 138.69 104.94 142.49
  C 112.75 144.34 116.02 149.08 115.61 157.11
  Q 114.64 176.21 113.88 194.85
  Q 113.83 196.26 115.13 196.81
  L 120.89 199.20
  Q 122.25 199.77 122.25 198.30
  L 122.25 120.75
  Q 122.25 120.51 122.02 120.46
  L 83.69 111.68
  Q 83.41 111.62 83.31 111.88"
/>
<path stroke="#808080" vector-effect="non-scaling-stroke" d="
  M 175.88 130.74
  A 0.37 0.37 0.0 0 0 175.51 130.37
  L 135.37 130.37
  A 0.37 0.37 0.0 0 0 135.00 130.74
  L 135.00 144.62
  A 0.37 0.37 0.0 0 0 135.37 144.99
  L 175.51 144.99
  A 0.37 0.37 0.0 0 0 175.88 144.62
  L 175.88 130.74"
/>
<path stroke="#808080" vector-effect="non-scaling-stroke" d="
  M 175.88 158.09
  A 0.34 0.34 0.0 0 0 175.54 157.75
  L 135.34 157.75
  A 0.34 0.34 0.0 0 0 135.00 158.09
  L 135.00 169.91
  A 0.34 0.34 0.0 0 0 135.34 170.25
  L 175.54 170.25
  A 0.34 0.34 0.0 0 0 175.88 169.91
  L 175.88 158.09"
/>
<path stroke="#808080" vector-effect="non-scaling-stroke" d="
  M 141.23 193.12
  C 144.54 189.72 148.35 190.79 151.37 193.77
  C 157.64 199.96 167.17 201.48 175.25 197.43
  Q 175.88 197.11 175.88 196.41
  L 175.88 183.56
  Q 175.88 183.00 175.31 183.00
  L 135.50 183.00
  Q 135.00 183.00 135.00 183.50
  L 135.00 197.06
  Q 135.00 197.75 135.61 197.42
  Q 138.69 195.72 141.23 193.12"
/>
</g>
<path fill="#ffffff" d="
  M 121.88 0.00
  L 134.24 0.00
  Q 139.11 0.59 143.98 1.21
  Q 176.46 5.34 202.54 23.94
  Q 210.54 29.65 217.79 36.85
  Q 252.53 71.35 256.00 121.88
  L 256.00 133.23
  Q 253.59 178.00 225.95 210.44
  C 198.89 242.20 158.93 258.99 117.23 255.50
  C 91.77 253.37 66.93 243.58 47.13 227.20
  C 21.87 206.29 4.49 176.31 0.96 143.29
  Q 0.45 138.59 0.00 133.87
  L 0.00 122.00
  Q 3.64 69.32 40.78 34.40
  Q 48.24 27.39 56.38 21.92
  Q 82.31 4.49 114.01 0.97
  Q 117.97 0.53 121.88 0.00
  Z
  M 101.8316 66.0755
  A 11.61 11.61 0.0 0 0 95.6543 50.8628
  L 89.8693 48.4191
  A 11.61 11.61 0.0 0 0 74.6566 54.5963
  L 72.2284 60.3445
  A 11.61 11.61 0.0 0 0 78.4057 75.5572
  L 84.1907 78.0009
  A 11.61 11.61 0.0 0 0 99.4034 71.8237
  L 101.8316 66.0755
  Z
  M 137.09 117.21
  Q 144.03 107.53 135.36 99.17
  Q 134.93 98.76 135.02 98.18
  Q 136.48 88.22 145.49 84.89
  Q 147.57 84.12 149.78 84.17
  C 158.93 84.36 159.04 71.10 149.84 71.35
  C 136.23 71.72 125.08 81.28 122.68 94.62
  A 0.45 0.45 0.0 0 1 122.13 94.98
  Q 99.62 89.91 78.72 85.00
  C 72.50 83.53 67.08 83.76 62.43 88.22
  Q 60.06 90.48 58.16 95.36
  Q 50.59 114.73 43.29 132.42
  Q 41.24 137.38 41.45 140.81
  Q 41.87 147.50 47.28 151.77
  Q 49.75 153.72 55.16 155.00
  Q 74.80 159.66 90.95 163.69
  Q 91.39 163.80 91.37 164.26
  L 89.80 198.81
  Q 89.78 199.40 89.18 199.47
  Q 78.28 200.70 71.24 193.28
  C 68.19 190.07 63.96 190.41 61.05 193.54
  Q 57.56 197.28 52.00 198.93
  C 49.22 199.75 45.79 199.15 43.42 200.49
  C 38.85 203.08 38.76 209.52 43.67 211.77
  Q 45.64 212.68 48.16 212.45
  Q 58.62 211.53 65.61 206.30
  Q 66.11 205.92 66.64 206.26
  Q 86.13 218.75 105.61 206.32
  Q 106.08 206.02 106.56 206.32
  Q 125.88 218.69 145.51 206.33
  Q 145.95 206.05 146.40 206.33
  Q 165.93 218.72 185.34 206.27
  Q 185.80 205.97 186.25 206.29
  Q 193.91 211.83 204.58 212.48
  C 214.08 213.06 214.42 199.75 205.49 199.66
  C 200.92 199.61 195.55 198.04 192.22 194.75
  Q 190.71 193.25 189.01 192.03
  A 0.94 0.94 0.0 0 1 188.62 191.27
  Q 188.63 147.58 188.59 99.72
  C 188.58 92.69 192.84 86.86 199.53 84.71
  C 201.99 83.92 204.74 84.57 206.98 83.27
  C 212.35 80.15 210.82 71.78 204.45 71.39
  Q 202.43 71.27 200.33 71.56
  C 189.01 73.17 180.48 80.59 176.93 91.47
  Q 175.60 95.56 175.84 104.26
  Q 176.01 110.63 175.83 117.31
  A 0.33 0.32 -89.1 0 1 175.51 117.63
  L 137.30 117.62
  Q 136.79 117.62 137.09 117.21
  Z"
/>
<rect fill="#000000" x="-14.75" y="-14.73" transform="translate(87.03,63.21) rotate(22.9)" width="29.50" height="29.46" rx="11.61"/>
<path fill="#000000" d="
  M 137.30 117.62
  L 175.51 117.63
  A 0.33 0.32 -89.1 0 0 175.83 117.31
  Q 176.01 110.63 175.84 104.26
  Q 175.60 95.56 176.93 91.47
  C 180.48 80.59 189.01 73.17 200.33 71.56
  Q 202.43 71.27 204.45 71.39
  C 210.82 71.78 212.35 80.15 206.98 83.27
  C 204.74 84.57 201.99 83.92 199.53 84.71
  C 192.84 86.86 188.58 92.69 188.59 99.72
  Q 188.63 147.58 188.62 191.27
  A 0.94 0.94 0.0 0 0 189.01 192.03
  Q 190.71 193.25 192.22 194.75
  C 195.55 198.04 200.92 199.61 205.49 199.66
  C 214.42 199.75 214.08 213.06 204.58 212.48
  Q 193.91 211.83 186.25 206.29
  Q 185.80 205.97 185.34 206.27
  Q 165.93 218.72 146.40 206.33
  Q 145.95 206.05 145.51 206.33
  Q 125.88 218.69 106.56 206.32
  Q 106.08 206.02 105.61 206.32
  Q 86.13 218.75 66.64 206.26
  Q 66.11 205.92 65.61 206.30
  Q 58.62 211.53 48.16 212.45
  Q 45.64 212.68 43.67 211.77
  C 38.76 209.52 38.85 203.08 43.42 200.49
  C 45.79 199.15 49.22 199.75 52.00 198.93
  Q 57.56 197.28 61.05 193.54
  C 63.96 190.41 68.19 190.07 71.24 193.28
  Q 78.28 200.70 89.18 199.47
  Q 89.78 199.40 89.80 198.81
  L 91.37 164.26
  Q 91.39 163.80 90.95 163.69
  Q 74.80 159.66 55.16 155.00
  Q 49.75 153.72 47.28 151.77
  Q 41.87 147.50 41.45 140.81
  Q 41.24 137.38 43.29 132.42
  Q 50.59 114.73 58.16 95.36
  Q 60.06 90.48 62.43 88.22
  C 67.08 83.76 72.50 83.53 78.72 85.00
  Q 99.62 89.91 122.13 94.98
  A 0.45 0.45 0.0 0 0 122.68 94.62
  C 125.08 81.28 136.23 71.72 149.84 71.35
  C 159.04 71.10 158.93 84.36 149.78 84.17
  Q 147.57 84.12 145.49 84.89
  Q 136.48 88.22 135.02 98.18
  Q 134.93 98.76 135.36 99.17
  Q 144.03 107.53 137.09 117.21
  Q 136.79 117.62 137.30 117.62
  Z
  M 83.31 111.88
  L 74.16 134.71
  A 0.25 0.25 0.0 0 0 74.33 135.05
  Q 88.94 138.69 104.94 142.49
  C 112.75 144.34 116.02 149.08 115.61 157.11
  Q 114.64 176.21 113.88 194.85
  Q 113.83 196.26 115.13 196.81
  L 120.89 199.20
  Q 122.25 199.77 122.25 198.30
  L 122.25 120.75
  Q 122.25 120.51 122.02 120.46
  L 83.69 111.68
  Q 83.41 111.62 83.31 111.88
  Z
  M 175.88 130.74
  A 0.37 0.37 0.0 0 0 175.51 130.37
  L 135.37 130.37
  A 0.37 0.37 0.0 0 0 135.00 130.74
  L 135.00 144.62
  A 0.37 0.37 0.0 0 0 135.37 144.99
  L 175.51 144.99
  A 0.37 0.37 0.0 0 0 175.88 144.62
  L 175.88 130.74
  Z
  M 175.88 158.09
  A 0.34 0.34 0.0 0 0 175.54 157.75
  L 135.34 157.75
  A 0.34 0.34 0.0 0 0 135.00 158.09
  L 135.00 169.91
  A 0.34 0.34 0.0 0 0 135.34 170.25
  L 175.54 170.25
  A 0.34 0.34 0.0 0 0 175.88 169.91
  L 175.88 158.09
  Z
  M 141.23 193.12
  C 144.54 189.72 148.35 190.79 151.37 193.77
  C 157.64 199.96 167.17 201.48 175.25 197.43
  Q 175.88 197.11 175.88 196.41
  L 175.88 183.56
  Q 175.88 183.00 175.31 183.00
  L 135.50 183.00
  Q 135.00 183.00 135.00 183.50
  L 135.00 197.06
  Q 135.00 197.75 135.61 197.42
  Q 138.69 195.72 141.23 193.12
  Z"
/>
<path fill="#ffffff" d="
  M 83.31 111.88
  Q 83.41 111.62 83.69 111.68
  L 122.02 120.46
  Q 122.25 120.51 122.25 120.75
  L 122.25 198.30
  Q 122.25 199.77 120.89 199.20
  L 115.13 196.81
  Q 113.83 196.26 113.88 194.85
  Q 114.64 176.21 115.61 157.11
  C 116.02 149.08 112.75 144.34 104.94 142.49
  Q 88.94 138.69 74.33 135.05
  A 0.25 0.25 0.0 0 1 74.16 134.71
  L 83.31 111.88
  Z"
/>
<rect fill="#ffffff" x="135.00" y="130.37" width="40.88" height="14.62" rx="0.37"/>
<rect fill="#ffffff" x="135.00" y="157.75" width="40.88" height="12.50" rx="0.34"/>
<path fill="#ffffff" d="
  M 151.37 193.77
  C 148.35 190.79 144.54 189.72 141.23 193.12
  Q 138.69 195.72 135.61 197.42
  Q 135.00 197.75 135.00 197.06
  L 135.00 183.50
  Q 135.00 183.00 135.50 183.00
  L 175.31 183.00
  Q 175.88 183.00 175.88 183.56
  L 175.88 196.41
  Q 175.88 197.11 175.25 197.43
  C 167.17 201.48 157.64 199.96 151.37 193.77
  Z"
/>
</svg>
