<?xml version="1.0" encoding="UTF-8"?>
<svg version="1.1" xmlns="http://www.w3.org/2000/svg" width="128" height="128">
<path d="M0 0 C13.4049791 10.08466889 22.8895283 24.50756459 25.4140625 41.22265625 C27.18485288 61.98721061 23.29842818 79.57058598 9.65625 95.8125 C-1.52088628 107.82694788 -16.23240541 115.81854174 -32.78515625 116.55859375 C-53.04635469 116.8915543 -69.39297325 112.35679155 -84.5859375 98.22265625 C-98.11616884 84.40360224 -103.01172963 68.53868692 -102.95166016 49.61206055 C-102.62380549 31.62065989 -94.95829184 16.37822505 -82.15625 3.84375 C-58.82102307 -16.61785106 -25.26462465 -17.36465894 0 0 Z " fill="#D8D8D8" transform="translate(102.5859375,11.77734375)"/>
<path d="M0 0 C6.70386135 4.31618471 10.50398883 10.5119665 13 18 C13.86764253 28.14146107 12.61688698 36.46143717 6.5 44.75 C0.46291401 51.104033 -7.32527645 54.33737488 -16 54.75 C-24.69287752 54.33651136 -32.4994507 51.10808775 -38.5 44.6875 C-39.8203125 42.890625 -39.8203125 42.890625 -41 41 C-41.40992188 40.35546875 -41.81984375 39.7109375 -42.2421875 39.046875 C-45.81933273 32.38598388 -46.05748044 25.38621835 -45 18 C-42.51854152 10.46794052 -38.79957087 4.23395959 -32 0 C-31.34386719 -0.40992188 -30.68773437 -0.81984375 -30.01171875 -1.2421875 C-20.43144859 -6.32130696 -9.26235457 -5.24376687 0 0 Z " fill="#020202" transform="translate(80,39)"/>
<path d="M0 0 C1.65 0 3.3 0 5 0 C6.37951343 2.75902685 6.30504976 5.23855253 6.5 8.3125 C6.75458572 12.29949417 7.12192546 16.0998856 8 20 C3.125 19.125 3.125 19.125 2 18 C1.92728259 15.64686445 1.91629132 13.29166332 1.9375 10.9375 C1.94652344 9.64714844 1.95554688 8.35679688 1.96484375 7.02734375 C1.97644531 6.02832031 1.98804688 5.02929688 2 4 C1.34 4 0.68 4 0 4 C0 2.68 0 1.36 0 0 Z " fill="#D0D0D0" transform="translate(60,60)"/>
<path d="M0 0 C1.32 0 2.64 0 4 0 C4.33 1.98 4.66 3.96 5 6 C3.34385343 6.38218767 1.67542976 6.71395102 0 7 C-1 6 -1 6 -1.125 3.5 C-1 1 -1 1 0 0 Z " fill="#C6C6C6" transform="translate(61,48)"/>
</svg>
