<?xml version="1.0" encoding="UTF-8"?>
<svg version="1.1" xmlns="http://www.w3.org/2000/svg" width="128" height="128">
<path d="M0 0 C13.4049791 10.08466889 22.8895283 24.50756459 25.4140625 41.22265625 C27.18485288 61.98721061 23.29842818 79.57058598 9.65625 95.8125 C-1.52088628 107.82694788 -16.23240541 115.81854174 -32.78515625 116.55859375 C-53.04635469 116.8915543 -69.39297325 112.35679155 -84.5859375 98.22265625 C-98.11616884 84.40360224 -103.01172963 68.53868692 -102.95166016 49.61206055 C-102.62380549 31.62065989 -94.95829184 16.37822505 -82.15625 3.84375 C-58.82102307 -16.61785106 -25.26462465 -17.36465894 0 0 Z " fill="#D8D8D8" transform="translate(102.5859375,11.77734375)"/>
<path d="M0 0 C2.625 1.8125 2.625 1.8125 4 5 C4.84739918 9.84228102 5.03592208 14.08983154 2.6484375 18.4921875 C1.186255 20.43945425 -0.31196663 22.24665582 -2 24 C2.54061028 31.58488308 8.04852092 39.48239651 17 42 C17.35449219 41.55527344 17.70898438 41.11054687 18.07421875 40.65234375 C20.99482463 37.54787406 22.9131069 36.09394514 27.25390625 35.71875 C35.90374262 36.25996881 35.90374262 36.25996881 38.86328125 38.2578125 C41.16111925 41.77958483 40.57872969 45.98177452 40 50 C38.4375 52.625 38.4375 52.625 36 54 C25.59492821 55.77107605 14.25972505 49.81835499 6 44 C-4.77114254 36.35314424 -10.9468658 24.62931949 -13.66796875 11.8671875 C-14.21533797 7.8025646 -14.50679003 5.03771292 -12.6875 1.3125 C-8.48058401 -0.74204037 -4.5788001 -0.83665783 0 0 Z " fill="#060606" transform="translate(51,37)"/>
</svg>
