<?xml version="1.0" encoding="UTF-8"?>
<svg version="1.1" xmlns="http://www.w3.org/2000/svg" width="54" height="54">
<path d="M0 0 C4.85004587 3.09567991 6.91912729 6.88971561 9.42578125 11.87890625 C9.81823532 12.64621567 10.21068939 13.41352509 10.61503601 14.2040863 C11.4387978 15.82569676 12.25621204 17.4505455 13.06762695 19.07836914 C14.30260878 21.54276218 15.5726287 23.98675627 16.84570312 26.43164062 C25.12821107 42.69779779 25.12821107 42.69779779 23 51 C20.49489741 53.50510259 19.53909949 53.35270489 16.0625 53.4375 C10.35935875 53.3776245 6.4580689 51.56796712 1.42578125 49.0625 C-1.89832319 47.60653155 -3.60650238 47.74588132 -7 49 C-7.65097656 49.32226562 -8.30195313 49.64453125 -8.97265625 49.9765625 C-14.82110192 52.84405438 -20.46395347 54.45721693 -27 53 C-29.58733164 50.73469676 -29.96606798 49.32583469 -30.32250977 45.90307617 C-29.91406501 40.959998 -28.25349161 37.51577575 -26.01953125 33.14453125 C-25.60966476 32.32047287 -25.19979828 31.49641449 -24.7775116 30.64738464 C-23.91081053 28.91360238 -23.03715509 27.18328109 -22.15698242 25.45629883 C-20.81604033 22.81946173 -19.50341087 20.16987335 -18.19335938 17.51757812 C-17.34540793 15.82989514 -16.4958517 14.14301731 -15.64453125 12.45703125 C-15.25473587 11.66843216 -14.86494049 10.87983307 -14.46333313 10.06733704 C-11.22259693 3.7746775 -7.82483502 -1.30413917 0 0 Z M-4 6 C-8.47873144 12.79651853 -12.18902558 19.93951689 -15.84082031 27.20117188 C-16.88260403 29.26506445 -17.94115275 31.31982046 -19 33.375 C-19.66510973 34.69218006 -20.32920954 36.00987067 -20.9921875 37.328125 C-21.46856155 38.2438327 -21.46856155 38.2438327 -21.95455933 39.17803955 C-23.24183534 41.77977374 -24.06555954 43.49214443 -23.68798828 46.41699219 C-23.34743408 47.20058105 -23.34743408 47.20058105 -23 48 C-21.6640522 47.59179373 -20.33139832 47.17280893 -19 46.75 C-17.88625 46.40195313 -17.88625 46.40195313 -16.75 46.046875 C-13.05041941 44.63851194 -9.54066469 42.77033234 -6 41 C-5.67 34.4 -5.34 27.8 -5 21 C-3.68 21 -2.36 21 -1 21 C-0.67 27.6 -0.34 34.2 0 41 C2.2275 42.175625 4.455 43.35125 6.75 44.5625 C7.44448242 44.93705322 8.13896484 45.31160645 8.85449219 45.69750977 C12.47200096 47.57442266 12.47200096 47.57442266 16.453125 47.71484375 C16.96359375 47.47894531 17.4740625 47.24304687 18 47 C16.49955175 42.0755875 14.47153255 37.60669706 12.19140625 33.01171875 C11.64032448 31.8960125 11.64032448 31.8960125 11.07810974 30.75776672 C10.30448449 29.19607828 9.52865333 27.63548084 8.75073242 26.07592773 C7.55998757 23.68244985 6.38438096 21.28190412 5.20898438 18.88085938 C4.45404328 17.36152254 3.69821491 15.84262619 2.94140625 14.32421875 C2.59130997 13.60449387 2.24121368 12.88476898 1.88050842 12.14323425 C-0.05340221 8.00422855 -0.05340221 8.00422855 -4 6 Z " fill="#FFFFFF" transform="translate(31,1)"/>
</svg>
