<?xml version="1.0" encoding="UTF-8"?>
<svg version="1.1" xmlns="http://www.w3.org/2000/svg" width="128" height="128">
<path d="M0 0 C13.4049791 10.08466889 22.8895283 24.50756459 25.4140625 41.22265625 C27.18485288 61.98721061 23.29842818 79.57058598 9.65625 95.8125 C-1.52088628 107.82694788 -16.23240541 115.81854174 -32.78515625 116.55859375 C-53.04635469 116.8915543 -69.39297325 112.35679155 -84.5859375 98.22265625 C-98.11616884 84.40360224 -103.01172963 68.53868692 -102.95166016 49.61206055 C-102.62380549 31.62065989 -94.95829184 16.37822505 -82.15625 3.84375 C-58.82102307 -16.61785106 -25.26462465 -17.36465894 0 0 Z " fill="#D8D8D8" transform="translate(102.5859375,11.77734375)"/>
<path d="M0 0 C1.4540625 0.0309375 1.4540625 0.0309375 2.9375 0.0625 C3.89837136 1.95704824 4.85608969 3.85319581 5.8125 5.75 C6.34617188 6.80574219 6.87984375 7.86148438 7.4296875 8.94921875 C8.72438105 11.62245905 9.87773254 14.2896133 10.9375 17.0625 C12.21367188 17.18367188 13.48984375 17.30484375 14.8046875 17.4296875 C16.47400526 17.59849491 18.14327365 17.7677911 19.8125 17.9375 C21.07513672 18.05544922 21.07513672 18.05544922 22.36328125 18.17578125 C23.16894531 18.25957031 23.97460938 18.34335937 24.8046875 18.4296875 C25.92012939 18.53966064 25.92012939 18.53966064 27.05810547 18.65185547 C28.9375 19.0625 28.9375 19.0625 30.9375 21.0625 C31.46875 23.8203125 31.46875 23.8203125 30.9375 27.0625 C29.05762806 29.38988923 26.80550666 31.1258026 24.4375 32.9375 C23.81746094 33.43507812 23.19742188 33.93265625 22.55859375 34.4453125 C21.03110061 35.66730701 19.48592988 36.86714617 17.9375 38.0625 C18.1540625 38.91972656 18.370625 39.77695313 18.59375 40.66015625 C21.53092988 52.72163105 21.53092988 52.72163105 20.9375 58.0625 C18.9375 60.0625 18.9375 60.0625 16.71875 60.4453125 C12.36787913 59.84645668 9.24363816 57.23238792 5.75390625 54.73046875 C3.90557994 53.43780205 3.90557994 53.43780205 0.9375 52.0625 C-3.71085396 53.07057676 -7.61191554 56.24008702 -11.5625 58.8203125 C-14.35128075 60.20598794 -15.99064239 60.467238 -19.0625 60.0625 C-21.0625 58.0625 -21.0625 58.0625 -21.375 55.25 C-21.23827205 49.40798759 -19.48582316 43.69648749 -18.0625 38.0625 C-19.66448888 36.60177468 -21.26917116 35.14400284 -22.875 33.6875 C-23.76832031 32.87539062 -24.66164063 32.06328125 -25.58203125 31.2265625 C-28.05882674 28.97177093 -28.05882674 28.97177093 -31.0625 27.0625 C-31.375 24.0625 -31.375 24.0625 -31.0625 21.0625 C-28.74850977 18.74850977 -28.07645276 18.73993196 -24.9296875 18.4296875 C-23.72119141 18.30400391 -23.72119141 18.30400391 -22.48828125 18.17578125 C-21.64652344 18.09714844 -20.80476563 18.01851562 -19.9375 17.9375 C-18.66326172 17.80794922 -18.66326172 17.80794922 -17.36328125 17.67578125 C-15.26380273 17.46347443 -13.16323758 17.26196397 -11.0625 17.0625 C-10.32193359 15.34740234 -10.32193359 15.34740234 -9.56640625 13.59765625 C-8.91939488 12.106717 -8.2722527 10.6158345 -7.625 9.125 C-7.29951172 8.37025391 -6.97402344 7.61550781 -6.63867188 6.83789062 C-3.69716283 0.0754523 -3.69716283 0.0754523 0 0 Z " fill="#020202" transform="translate(64.0625,32.9375)"/>
</svg>
