<?xml version="1.0" encoding="UTF-8"?>
<svg version="1.1" xmlns="http://www.w3.org/2000/svg" width="128" height="128">
<path d="M0 0 C13.4049791 10.08466889 22.8895283 24.50756459 25.4140625 41.22265625 C27.18485288 61.98721061 23.29842818 79.57058598 9.65625 95.8125 C-1.52088628 107.82694788 -16.23240541 115.81854174 -32.78515625 116.55859375 C-53.04635469 116.8915543 -69.39297325 112.35679155 -84.5859375 98.22265625 C-98.11616884 84.40360224 -103.01172963 68.53868692 -102.95166016 49.61206055 C-102.62380549 31.62065989 -94.95829184 16.37822505 -82.15625 3.84375 C-58.82102307 -16.61785106 -25.26462465 -17.36465894 0 0 Z " fill="#E4E4E4" transform="translate(102.5859375,11.77734375)"/>
<path d="M0 0 C4.76881876 -0.09900135 9.5370373 -0.17152928 14.30664062 -0.21972656 C15.92849143 -0.23982144 17.55026997 -0.26710254 19.171875 -0.30175781 C21.5053898 -0.3503727 23.83794557 -0.37298889 26.171875 -0.390625 C26.89493835 -0.41127014 27.61800171 -0.43191528 28.36297607 -0.45318604 C31.68135221 -0.45465952 33.67665844 -0.21766094 36.45605469 1.65332031 C38.398202 4.60523682 38.5160182 6.41677892 38.53125 9.9375 C38.53898437 11.65066406 38.53898437 11.65066406 38.546875 13.3984375 C38.53140625 14.58695313 38.5159375 15.77546875 38.5 17 C38.51546875 18.18851563 38.5309375 19.37703125 38.546875 20.6015625 C38.54171875 21.74367188 38.5365625 22.88578125 38.53125 24.0625 C38.52673828 25.10535156 38.52222656 26.14820313 38.51757812 27.22265625 C37.85996968 30.75140799 36.90889973 31.92641379 34 34 C31.34277344 34.45410156 31.34277344 34.45410156 28.359375 34.390625 C26.75449219 34.37128906 26.75449219 34.37128906 25.1171875 34.3515625 C24.00601563 34.31804687 22.89484375 34.28453125 21.75 34.25 C20.06003906 34.22292969 20.06003906 34.22292969 18.3359375 34.1953125 C15.55692821 34.14821065 12.77835631 34.07646852 10 34 C10 38.62 10 43.24 10 48 C7.89625 48 5.7925 48 3.625 48 C-3.45257701 48.45221841 -7.01566329 50.48660995 -12.109375 55.28515625 C-14 57 -14 57 -16 57 C-16 54.03 -16 51.06 -16 48 C-16.763125 48.061875 -17.52625 48.12375 -18.3125 48.1875 C-21 48 -21 48 -22.64306641 46.8828125 C-24.61179936 44.15109812 -24.38850364 42.02906284 -24.3984375 38.6875 C-24.40230469 37.44742188 -24.40617187 36.20734375 -24.41015625 34.9296875 C-24.39855469 33.63289063 -24.38695312 32.33609375 -24.375 31 C-24.38660156 29.70320313 -24.39820313 28.40640625 -24.41015625 27.0703125 C-24.40628906 25.83023438 -24.40242188 24.59015625 -24.3984375 23.3125 C-24.39505371 22.17425781 -24.39166992 21.03601563 -24.38818359 19.86328125 C-24 17 -24 17 -22.88989258 15.1237793 C-20.03827733 13.42813468 -17.65732786 13.6638778 -14.36328125 13.70703125 C-13.06455078 13.71669922 -11.76582031 13.72636719 -10.42773438 13.73632812 C-9.05598361 13.76139415 -7.68423882 13.78678899 -6.3125 13.8125 C-4.92905076 13.8275498 -3.54558599 13.8412377 -2.16210938 13.85351562 C1.22565207 13.88892777 4.61263139 13.93831946 8 14 C8 12.68 8 11.36 8 10 C5.36 10 2.72 10 0 10 C0 6.7 0 3.4 0 0 Z " fill="#040404" transform="translate(57,34)"/>
<path d="M0 0 C1.32 0 2.64 0 4 0 C4 1.32 4 2.64 4 4 C6.31 4 8.62 4 11 4 C11.49940808 10.11774896 10.24900602 13.02495953 7 18 C8.32 18 9.64 18 11 18 C11 19.32 11 20.64 11 22 C10.14728516 21.87431641 10.14728516 21.87431641 9.27734375 21.74609375 C4.23364455 21.08089803 -0.00294069 21.0431163 -5 22 C-5 20.68 -5 19.36 -5 18 C-4.01 18 -3.02 18 -2 18 C-2.33 17.401875 -2.66 16.80375 -3 16.1875 C-4 14 -4 14 -4 11 C0 11 0 11 1.75 12.5 C2.1625 12.995 2.575 13.49 3 14 C5.37158027 11.9714169 5.37158027 11.9714169 6 8 C2.04 8 -1.92 8 -6 8 C-6 6.68 -6 5.36 -6 4 C-4.02 4 -2.04 4 0 4 C0 2.68 0 1.36 0 0 Z " fill="#D8D8D8" transform="translate(74,40)"/>
<path d="M0 0 C1.98 0 3.96 0 6 0 C7.00399524 2.62353518 8.00334445 5.24867795 9 7.875 C9.28617188 8.62136719 9.57234375 9.36773437 9.8671875 10.13671875 C12 15.7734375 12 15.7734375 12 18 C10.35 18 8.7 18 7 18 C7 17.01 7 16.02 7 15 C4.6568787 15.25561323 2.32156597 15.59270772 0 16 C-0.33 16.66 -0.66 17.32 -1 18 C-2.65 18 -4.3 18 -6 18 C-4.23536928 11.89262558 -2.30442525 5.92566493 0 0 Z " fill="#C6C6C6" transform="translate(47,56)"/>
</svg>
