<?xml version="1.0" encoding="UTF-8"?>
<svg version="1.1" xmlns="http://www.w3.org/2000/svg" width="80" height="80">
<path d="M0 0 C5.33811452 5.33811452 8.10662086 10.76387323 8.5 18.3125 C8.06086954 28.75247254 2.55550404 34.89886757 -4.4375 42.125 C-5.08211182 42.80143555 -5.72672363 43.47787109 -6.39086914 44.17480469 C-9.19327152 46.94474129 -11.17435348 48.76348667 -15 49.859375 C-19.64305258 48.5293339 -22.28385539 45.56550746 -25.5625 42.125 C-26.22709229 41.43825195 -26.89168457 40.75150391 -27.57641602 40.04394531 C-33.768871 33.47173161 -38.0439511 27.74513364 -38.625 18.5 C-38.25988236 11.70689028 -35.94470138 5.97550369 -31.1328125 1.11328125 C-21.74053073 -6.43343542 -9.93580392 -6.963934 0 0 Z M-27.25 8.1875 C-30.15932773 12.86320528 -31.1963042 16.87991468 -30.6875 22.375 C-27.41703081 29.40045234 -21.44325787 34.59402472 -16 40 C-12.45287654 38.48903853 -10.14336485 36.41167865 -7.4375 33.6875 C-6.67308594 32.92824219 -5.90867187 32.16898438 -5.12109375 31.38671875 C-1.45657575 27.26329241 0.78536831 23.58042384 1 18 C0.11229569 13.13055404 -1.21810826 9.25077242 -5.0625 6 C-12.52837948 0.91684801 -20.69262339 1.81227274 -27.25 8.1875 Z " fill="#FFFFFF" transform="translate(55,11)"/>
<path d="M0 0 C0.99450668 -0.00637985 1.98901337 -0.0127597 3.01365662 -0.01933289 C4.09591019 -0.02044571 5.17816376 -0.02155853 6.29321289 -0.02270508 C7.39685684 -0.02603348 8.50050079 -0.02936188 9.6375885 -0.03279114 C11.97713808 -0.03786519 14.31669493 -0.04019932 16.65625 -0.04003906 C20.2469468 -0.04222481 23.83733619 -0.06037367 27.42797852 -0.0793457 C29.69555558 -0.08227959 31.96313412 -0.08426442 34.23071289 -0.08520508 C35.8510569 -0.09598335 35.8510569 -0.09598335 37.50413513 -0.10697937 C39.0006234 -0.10236443 39.0006234 -0.10236443 40.52734375 -0.09765625 C41.84852455 -0.09979378 41.84852455 -0.09979378 43.19639587 -0.10197449 C45.32836914 0.14526367 45.32836914 0.14526367 47.32836914 2.14526367 C46.77281359 6.70081923 46.77281359 6.70081923 45.32836914 8.14526367 C43.77385926 8.24893394 42.2146866 8.28377889 40.65673828 8.29052734 C39.6622316 8.2969072 38.66772491 8.30328705 37.64308167 8.30986023 C36.56082809 8.31097305 35.47857452 8.31208588 34.36352539 8.31323242 C32.70805946 8.31822502 32.70805946 8.31822502 31.01914978 8.32331848 C28.6796002 8.32839253 26.34004336 8.33072666 24.00048828 8.33056641 C20.40979149 8.33275215 16.8194021 8.35090101 13.22875977 8.36987305 C10.9611827 8.37280694 8.69360416 8.37479176 6.42602539 8.37573242 C5.34579605 8.38291794 4.26556671 8.39010345 3.15260315 8.39750671 C2.15494431 8.39443008 1.15728546 8.39135345 0.12939453 8.38818359 C-1.19178627 8.39032112 -1.19178627 8.39032112 -2.53965759 8.39250183 C-4.67163086 8.14526367 -4.67163086 8.14526367 -6.67163086 6.14526367 C-6.00465767 0.6760835 -5.36267371 0.02322912 0 0 Z " fill="#FFFFFF" transform="translate(19.671630859375,65.854736328125)"/>
<path d="M0 0 C4.30169173 1.40272556 4.30169173 1.40272556 5.875 3.9375 C6.29116519 7.19746064 6.1516188 9.28053035 4.875 12.3125 C2.16955964 14.5106703 0.1662076 14.5087063 -3.25 14.3203125 C-5.125 13.9375 -5.125 13.9375 -7.125 12.3125 C-8.43535305 9.20041151 -8.68241927 7.28201564 -8.125 3.9375 C-5.43583153 0.85286557 -4.12776368 -0.08255527 0 0 Z " fill="#FFFFFF" transform="translate(41.125,22.0625)"/>
</svg>
