<?xml version="1.0" encoding="UTF-8"?>
<svg version="1.1" xmlns="http://www.w3.org/2000/svg" width="128" height="128">
<path d="M0 0 C13.4049791 10.08466889 22.8895283 24.50756459 25.4140625 41.22265625 C27.18485288 61.98721061 23.29842818 79.57058598 9.65625 95.8125 C-1.52088628 107.82694788 -16.23240541 115.81854174 -32.78515625 116.55859375 C-53.04635469 116.8915543 -69.39297325 112.35679155 -84.5859375 98.22265625 C-98.11616884 84.40360224 -103.01172963 68.53868692 -102.95166016 49.61206055 C-102.62380549 31.62065989 -94.95829184 16.37822505 -82.15625 3.84375 C-58.82102307 -16.61785106 -25.26462465 -17.36465894 0 0 Z " fill="#D8D8D8" transform="translate(102.5859375,11.77734375)"/>
<path d="M0 0 C0.94488281 0.40412109 1.88976562 0.80824219 2.86328125 1.22460938 C11.16657912 4.85656399 11.16657912 4.85656399 13.25 7.6875 C13.8980646 11.48739055 13.71300436 15.33866011 13.6875 19.1875 C13.7174707 20.74597656 13.7174707 20.74597656 13.74804688 22.3359375 C13.74014865 35.00469162 9.47182189 44.17757351 0.78125 53.21484375 C-3.7605096 57.36550739 -9.55413622 60.55433901 -15.75 60.8125 C-25.87590697 57.01528489 -33.33615738 49.41985593 -37.92578125 39.7421875 C-38.19777344 39.06414062 -38.46976563 38.38609375 -38.75 37.6875 C-39.10578125 36.86765625 -39.4615625 36.0478125 -39.828125 35.203125 C-41.19279897 29.99885986 -41.15862102 24.9211556 -41.1875 19.5625 C-41.22037109 18.47839844 -41.25324219 17.39429687 -41.28710938 16.27734375 C-41.34046783 8.42880021 -41.34046783 8.42880021 -38.77734375 5.2109375 C-37.27880859 4.45683594 -37.27880859 4.45683594 -35.75 3.6875 C-35.09475342 3.34638184 -34.43950684 3.00526367 -33.7644043 2.65380859 C-31.49553846 1.50915101 -29.19801755 0.46740926 -26.875 -0.5625 C-26.09769531 -0.92601562 -25.32039063 -1.28953125 -24.51953125 -1.6640625 C-15.131792 -5.86093417 -9.09130001 -4.06649688 0 0 Z " fill="#010101" transform="translate(77.75,36.3125)"/>
<path d="M0 0 C1.65 0.33 3.3 0.66 5 1 C5 6.28 5 11.56 5 17 C3.35 17.33 1.7 17.66 0 18 C-1.82116003 16.17883997 -1.1323508 13.69328236 -1.13671875 11.2734375 C-1.13285156 10.52320312 -1.12898438 9.77296875 -1.125 9 C-1.12886719 8.24976562 -1.13273437 7.49953125 -1.13671875 6.7265625 C-1.12661053 1.12661053 -1.12661053 1.12661053 0 0 Z " fill="#D0D0D0" transform="translate(62,61)"/>
<path d="M0 0 C1.65 0.33 3.3 0.66 5 1 C4.67 2.65 4.34 4.3 4 6 C2.35 5.67 0.7 5.34 -1 5 C-0.67 3.35 -0.34 1.7 0 0 Z " fill="#BCBCBC" transform="translate(62,49)"/>
</svg>
