<?xml version="1.0" encoding="UTF-8"?>
<svg version="1.1" xmlns="http://www.w3.org/2000/svg" width="128" height="128">
<path d="M0 0 C13.4049791 10.08466889 22.8895283 24.50756459 25.4140625 41.22265625 C27.18485288 61.98721061 23.29842818 79.57058598 9.65625 95.8125 C-1.52088628 107.82694788 -16.23240541 115.81854174 -32.78515625 116.55859375 C-53.04635469 116.8915543 -69.39297325 112.35679155 -84.5859375 98.22265625 C-98.11616884 84.40360224 -103.01172963 68.53868692 -102.95166016 49.61206055 C-102.62380549 31.62065989 -94.95829184 16.37822505 -82.15625 3.84375 C-58.82102307 -16.61785106 -25.26462465 -17.36465894 0 0 Z " fill="#D8D8D8" transform="translate(102.5859375,11.77734375)"/>
<path d="M0 0 C1.34800257 0.70788962 2.67983475 1.44798276 3.98828125 2.2265625 C6.10837377 3.38542719 6.10837377 3.38542719 9.84765625 3.1015625 C11.77862573 2.24714465 11.77862573 2.24714465 13.66015625 1.1015625 C17.58732327 -0.94201886 20.36804895 -1.46856934 24.84765625 -0.8984375 C30.68981183 0.94645373 33.8984773 3.58821513 37.84765625 8.1015625 C40.00366579 14.56959111 39.83993887 21.83493888 37.09765625 28.1015625 C31.4349202 38.02331412 20.33836965 48.47330659 9.84765625 53.1015625 C0.62980499 52.93309002 -7.21616738 44.1852336 -13.58984375 38.1640625 C-19.85128055 31.61022366 -23.31559615 25.69238937 -23.96484375 16.5390625 C-23.7299869 10.33003463 -21.67997896 7.16257074 -17.390625 2.80859375 C-12.2727796 -1.09454488 -6.06308373 -2.5308698 0 0 Z " fill="#020202" transform="translate(56.15234375,39.8984375)"/>
</svg>
