<?xml version="1.0" encoding="UTF-8"?>
<svg version="1.1" xmlns="http://www.w3.org/2000/svg" width="172" height="116">
<path d="M0 0 C1.33417969 0.02320313 1.33417969 0.02320313 2.6953125 0.046875 C4.875 0.25 4.875 0.25 5.875 1.25 C6.02715174 3.53812814 6.09686492 5.83199128 6.125 8.125 C6.15078125 9.38054688 6.1765625 10.63609375 6.203125 11.9296875 C5.875 15.25 5.875 15.25 4.359375 17.1953125 C3.86953125 17.54335938 3.3796875 17.89140625 2.875 18.25 C4.91291857 27.53481551 4.91291857 27.53481551 9.98828125 35.18359375 C12.13108569 36.40411812 12.13108569 36.40411812 14.30078125 37.1953125 C14.82027344 37.54335938 15.33976562 37.89140625 15.875 38.25 C16.10546875 40.8671875 16.10546875 40.8671875 15.875 43.25 C16.78378906 43.25386719 16.78378906 43.25386719 17.7109375 43.2578125 C24.97390902 43.59302657 30.17302108 45.7237941 35.875 50.25 C37.58913232 52.207115 38.65933465 53.92918432 39.875 56.25 C39.0625 58.1875 39.0625 58.1875 37.875 60.25 C36.885 60.58 35.895 60.91 34.875 61.25 C35.514375 62.1575 36.15375 63.065 36.8125 64 C39.90526021 68.87344033 40.35782197 72.4561364 39.875 78.25 C38.0096557 83.58245163 35.20972628 87.58215469 30.875 91.25 C25.24290994 93.12736335 18.31397418 93.2858356 12.60546875 91.56640625 C7.45126883 88.86017056 4.67532676 84.65098029 2.875 79.25 C2.74718214 76.57605036 2.83108129 73.92904143 2.875 71.25 C1.67875 71.353125 0.4825 71.45625 -0.75 71.5625 C-1.42289062 71.62050781 -2.09578125 71.67851563 -2.7890625 71.73828125 C-5.28351005 72.16848949 -5.28351005 72.16848949 -7.85327148 73.7565918 C-11.46188284 75.40377302 -13.8646949 75.63170002 -17.80859375 75.65625 C-19.69481445 75.68912109 -19.69481445 75.68912109 -21.61914062 75.72265625 C-22.92044922 75.73167969 -24.22175781 75.74070312 -25.5625 75.75 C-36.74108971 75.73203512 -36.74108971 75.73203512 -47.125 79.25 C-50.00390625 79.4453125 -50.00390625 79.4453125 -52.6875 79.375 C-56.84800584 79.61750603 -56.84800584 79.61750603 -59.953125 82.203125 C-60.93919937 83.81198317 -61.89674018 85.43869599 -62.82421875 87.08203125 C-64.79626617 90.36877694 -66.44607042 91.22807512 -70.125 92.25 C-76.59778347 92.8651819 -82.67797968 93.23562463 -88.125 89.25 C-92.1451571 85.2298429 -94.12338148 81.85906372 -95.125 76.25 C-94.75 72.8125 -94.75 72.8125 -94.125 70.25 C-94.76308594 70.26160156 -95.40117188 70.27320312 -96.05859375 70.28515625 C-96.88488281 70.29417969 -97.71117187 70.30320312 -98.5625 70.3125 C-99.79806641 70.32990234 -99.79806641 70.32990234 -101.05859375 70.34765625 C-103.125 70.25 -103.125 70.25 -104.125 69.25 C-104.97322223 61.85834915 -103.10086021 57.71008846 -99.5859375 51.2578125 C-97.82558751 47.63356251 -97.09408824 44.27588975 -96.546875 40.30859375 C-96.125 38.25 -96.125 38.25 -94.125 35.25 C-91.9609375 34.95703125 -91.9609375 34.95703125 -89.5 35.0625 C-88.68273437 35.08957031 -87.86546875 35.11664063 -87.0234375 35.14453125 C-86.39695312 35.17933594 -85.77046875 35.21414062 -85.125 35.25 C-85.05152344 34.36248047 -85.05152344 34.36248047 -84.9765625 33.45703125 C-84.90179688 32.66683594 -84.82703125 31.87664063 -84.75 31.0625 C-84.68039063 30.28519531 -84.61078125 29.50789063 -84.5390625 28.70703125 C-84.08500475 26.01266968 -83.16981801 23.7667283 -82.125 21.25 C-75.18301935 21.34211618 -68.24139364 21.44940094 -61.29980469 21.56738281 C-58.93690349 21.60573527 -56.57394266 21.64057692 -54.2109375 21.671875 C-50.8200952 21.71738966 -47.42966576 21.77540619 -44.0390625 21.8359375 C-42.97756989 21.84748871 -41.91607727 21.85903992 -40.82241821 21.87094116 C-39.84155243 21.89081085 -38.86068665 21.91068054 -37.85009766 21.93115234 C-36.55103989 21.95113785 -36.55103989 21.95113785 -35.22573853 21.9715271 C-33.125 22.25 -33.125 22.25 -31.125 24.25 C-30.51061465 28.96422604 -30.47752764 33.53908043 -31.125 38.25 C-33.875 40.875 -33.875 40.875 -37.125 42.25 C-40.16635406 44.63376399 -41.01396653 45.87526204 -42.125 49.625 C-42.125 54.08668484 -40.94498243 55.86602108 -38.125 59.25 C-35.56776771 60.52861615 -33.75762898 60.36336609 -30.8984375 60.34765625 C-29.8671875 60.34443359 -28.8359375 60.34121094 -27.7734375 60.33789062 C-26.15308594 60.32532227 -26.15308594 60.32532227 -24.5 60.3125 C-23.41203125 60.30798828 -22.3240625 60.30347656 -21.203125 60.29882812 C-18.51036211 60.28701776 -15.81770812 60.27054778 -13.125 60.25 C-12.63 59.26 -12.63 59.26 -12.125 58.25 C-12.640625 57.92 -13.15625 57.59 -13.6875 57.25 C-15.6338367 54.54205328 -14.98844173 52.69386582 -14.52319336 49.51855469 C-13.86496033 45.76852321 -13.02068707 42.07457705 -12.125 38.375 C-11.85816406 37.23804687 -11.85816406 37.23804687 -11.5859375 36.078125 C-10.26132015 30.52264031 -10.26132015 30.52264031 -9.125 28.25 C-9.69807586 26.24855416 -10.35732858 24.2713095 -11.0625 22.3125 C-13.125 16.55847458 -13.125 16.55847458 -13.125 13.25 C-13.90875 13.29125 -14.6925 13.3325 -15.5 13.375 C-18.125 13.25 -18.125 13.25 -20.125 11.25 C-20.125 9.25 -20.125 9.25 -19.125 7.25 C-16.375 6.125 -16.375 6.125 -13.125 5.25 C-9.55692571 4.08367769 -9.55692571 4.08367769 -6.80078125 1.69921875 C-4.49895269 -0.29140688 -2.99714737 -0.08738039 0 0 Z M13.875 69.25 C12.28560653 72.42878694 12.45923289 74.7456772 12.875 78.25 C15.29962844 81.42331062 15.29962844 81.42331062 18.875 83.25 C23.21663268 83.39971147 25.07055019 82.97194213 28.3125 80.0625 C30.18763988 76.68724821 30.58735686 75.0492366 29.875 71.25 C27.61726279 68.34719501 25.81164894 66.65828287 22.4375 65.1875 C18.69180069 65.27885852 16.75098382 66.9622856 13.875 69.25 Z M-84.125 70.25 C-85.60897889 75.8117213 -85.60897889 75.8117213 -83.9375 79 C-82.01471429 81.3869064 -81.05859496 82.41183001 -78.125 83.25 C-74.6618575 83.1057024 -72.65034996 82.59562497 -69.75 80.6875 C-67.38539974 77.62885134 -67.38539974 77.62885134 -68.125 70.25 C-73.405 70.25 -78.685 70.25 -84.125 70.25 Z " fill="#000000" transform="translate(114.125,8.75)"/>
</svg>
