<?xml version="1.0" encoding="UTF-8" standalone="no"?>
<!DOCTYPE svg PUBLIC "-//W3C//DTD SVG 1.1//EN" "http://www.w3.org/Graphics/SVG/1.1/DTD/svg11.dtd">
<svg xmlns="http://www.w3.org/2000/svg" version="1.1" viewBox="0.00 0.00 256.00 360.00">
<g stroke-width="2.00" fill="none" stroke-linecap="butt">
<path stroke="#808080" vector-effect="non-scaling-stroke" d="
  M 70.17 36.30
  C 64.27 59.07 58.37 81.82 52.43 104.57
  Q 51.41 108.50 51.40 112.55
  Q 51.35 150.86 51.38 189.13
  A 0.25 0.25 0.0 0 0 51.63 189.38
  L 204.01 189.38
  Q 204.63 189.38 204.63 188.76
  Q 204.60 151.18 204.64 112.55
  Q 204.64 108.59 203.69 104.49
  Q 195.85 70.58 188.11 36.52
  Q 187.99 36.00 187.45 36.00
  L 70.55 36.00
  A 0.40 0.39 -82.3 0 0 70.17 36.30"
/>
<path stroke="#808080" vector-effect="non-scaling-stroke" d="
  M 91.84 192.75
  L 68.76 192.75
  A 0.41 0.41 0.0 0 0 68.35 193.16
  L 68.35 210.36
  A 9.65 9.42 90.0 0 0 77.77 220.01
  L 82.83 220.01
  A 9.65 9.42 -90.0 0 0 92.25 210.36
  L 92.25 193.16
  A 0.41 0.41 0.0 0 0 91.84 192.75"
/>
<path stroke="#808080" vector-effect="non-scaling-stroke" d="
  M 187.30 192.74
  L 164.06 192.74
  A 0.35 0.35 0.0 0 0 163.71 193.09
  L 163.71 210.23
  A 9.81 9.49 90.0 0 0 173.20 220.04
  L 178.16 220.04
  A 9.81 9.49 -90.0 0 0 187.65 210.23
  L 187.65 193.09
  A 0.35 0.35 0.0 0 0 187.30 192.74"
/>
<path stroke="#808080" vector-effect="non-scaling-stroke" d="
  M 165.49 51.00
  A 4.76 4.76 0.0 0 0 160.73 46.24
  L 95.25 46.24
  A 4.76 4.76 0.0 0 0 90.49 51.00
  L 90.49 51.74
  A 4.76 4.76 0.0 0 0 95.25 56.50
  L 160.73 56.50
  A 4.76 4.76 0.0 0 0 165.49 51.74
  L 165.49 51.00"
/>
<path stroke="#808080" vector-effect="non-scaling-stroke" d="
  M 164.46 100.76
  C 168.26 100.76 171.58 103.54 172.86 107.04
  Q 173.03 107.50 173.53 107.50
  L 186.51 107.50
  Q 187.03 107.50 186.92 107.00
  L 177.75 67.01
  Q 177.66 66.62 177.26 66.62
  L 79.62 66.62
  A 0.37 0.37 0.0 0 0 79.26 66.90
  L 69.10 106.98
  A 0.41 0.41 0.0 0 0 69.50 107.50
  L 128.98 107.50
  Q 129.49 107.50 129.67 107.02
  C 131.29 102.68 134.85 100.71 139.48 100.72
  Q 152.93 100.77 164.46 100.76"
/>
<path stroke="#808080" vector-effect="non-scaling-stroke" d="
  M 88.22 153.36
  A 10.80 10.80 0.0 0 0 77.42 142.56
  A 10.80 10.80 0.0 0 0 66.62 153.36
  A 10.80 10.80 0.0 0 0 77.42 164.16
  A 10.80 10.80 0.0 0 0 88.22 153.36"
/>
<path stroke="#808080" vector-effect="non-scaling-stroke" d="
  M 187.63 153.37
  A 10.81 10.81 0.0 0 0 176.82 142.56
  A 10.81 10.81 0.0 0 0 166.01 153.37
  A 10.81 10.81 0.0 0 0 176.82 164.18
  A 10.81 10.81 0.0 0 0 187.63 153.37"
/>
<path stroke="#808080" vector-effect="non-scaling-stroke" d="
  M 161.93 86.77
  A 10.52 10.52 0.0 0 0 151.41 76.25
  A 10.52 10.52 0.0 0 0 140.89 86.77
  A 10.52 10.52 0.0 0 0 151.41 97.29
  A 10.52 10.52 0.0 0 0 161.93 86.77"
/>
</g>
<path fill="#ffffff" d="
  M 121.88 0.00
  L 134.24 0.00
  Q 139.11 0.59 143.98 1.20
  Q 174.37 5.05 199.32 21.71
  Q 207.47 27.15 214.96 34.15
  Q 252.28 69.08 256.00 121.88
  L 256.00 133.23
  Q 253.53 178.70 225.15 211.38
  Q 203.92 235.82 174.16 247.35
  C 128.98 264.86 76.79 255.30 41.04 221.86
  Q 3.62 186.84 0.00 133.88
  L 0.00 122.00
  Q 3.82 67.66 42.90 32.47
  Q 50.53 25.61 58.76 20.34
  Q 83.83 4.31 114.02 0.97
  Q 117.96 0.53 121.88 0.00
  Z
  M 70.17 36.30
  C 64.27 59.07 58.37 81.82 52.43 104.57
  Q 51.41 108.50 51.40 112.55
  Q 51.35 150.86 51.38 189.13
  A 0.25 0.25 0.0 0 0 51.63 189.38
  L 204.01 189.38
  Q 204.63 189.38 204.63 188.76
  Q 204.60 151.18 204.64 112.55
  Q 204.64 108.59 203.69 104.49
  Q 195.85 70.58 188.11 36.52
  Q 187.99 36.00 187.45 36.00
  L 70.55 36.00
  A 0.40 0.39 -82.3 0 0 70.17 36.30
  Z
  M 91.84 192.75
  L 68.76 192.75
  A 0.41 0.41 0.0 0 0 68.35 193.16
  L 68.35 210.36
  A 9.65 9.42 90.0 0 0 77.77 220.01
  L 82.83 220.01
  A 9.65 9.42 -90.0 0 0 92.25 210.36
  L 92.25 193.16
  A 0.41 0.41 0.0 0 0 91.84 192.75
  Z
  M 187.30 192.74
  L 164.06 192.74
  A 0.35 0.35 0.0 0 0 163.71 193.09
  L 163.71 210.23
  A 9.81 9.49 90.0 0 0 173.20 220.04
  L 178.16 220.04
  A 9.81 9.49 -90.0 0 0 187.65 210.23
  L 187.65 193.09
  A 0.35 0.35 0.0 0 0 187.30 192.74
  Z"
/>
<path fill="#000000" d="
  M 52.43 104.57
  C 58.37 81.82 64.27 59.07 70.17 36.30
  A 0.40 0.39 -82.3 0 1 70.55 36.00
  L 187.45 36.00
  Q 187.99 36.00 188.11 36.52
  Q 195.85 70.58 203.69 104.49
  Q 204.64 108.59 204.64 112.55
  Q 204.60 151.18 204.63 188.76
  Q 204.63 189.38 204.01 189.38
  L 51.63 189.38
  A 0.25 0.25 0.0 0 1 51.38 189.13
  Q 51.35 150.86 51.40 112.55
  Q 51.41 108.50 52.43 104.57
  Z
  M 165.49 51.00
  A 4.76 4.76 0.0 0 0 160.73 46.24
  L 95.25 46.24
  A 4.76 4.76 0.0 0 0 90.49 51.00
  L 90.49 51.74
  A 4.76 4.76 0.0 0 0 95.25 56.50
  L 160.73 56.50
  A 4.76 4.76 0.0 0 0 165.49 51.74
  L 165.49 51.00
  Z
  M 164.46 100.76
  C 168.26 100.76 171.58 103.54 172.86 107.04
  Q 173.03 107.50 173.53 107.50
  L 186.51 107.50
  Q 187.03 107.50 186.92 107.00
  L 177.75 67.01
  Q 177.66 66.62 177.26 66.62
  L 79.62 66.62
  A 0.37 0.37 0.0 0 0 79.26 66.90
  L 69.10 106.98
  A 0.41 0.41 0.0 0 0 69.50 107.50
  L 128.98 107.50
  Q 129.49 107.50 129.67 107.02
  C 131.29 102.68 134.85 100.71 139.48 100.72
  Q 152.93 100.77 164.46 100.76
  Z
  M 88.22 153.36
  A 10.80 10.80 0.0 0 0 77.42 142.56
  A 10.80 10.80 0.0 0 0 66.62 153.36
  A 10.80 10.80 0.0 0 0 77.42 164.16
  A 10.80 10.80 0.0 0 0 88.22 153.36
  Z
  M 187.63 153.37
  A 10.81 10.81 0.0 0 0 176.82 142.56
  A 10.81 10.81 0.0 0 0 166.01 153.37
  A 10.81 10.81 0.0 0 0 176.82 164.18
  A 10.81 10.81 0.0 0 0 187.63 153.37
  Z"
/>
<rect fill="#ffffff" x="90.49" y="46.24" width="75.00" height="10.26" rx="4.76"/>
<path fill="#ffffff" d="
  M 172.86 107.04
  C 171.58 103.54 168.26 100.76 164.46 100.76
  Q 152.93 100.77 139.48 100.72
  C 134.85 100.71 131.29 102.68 129.67 107.02
  Q 129.49 107.50 128.98 107.50
  L 69.50 107.50
  A 0.41 0.41 0.0 0 1 69.10 106.98
  L 79.26 66.90
  A 0.37 0.37 0.0 0 1 79.62 66.62
  L 177.26 66.62
  Q 177.66 66.62 177.75 67.01
  L 186.92 107.00
  Q 187.03 107.50 186.51 107.50
  L 173.53 107.50
  Q 173.03 107.50 172.86 107.04
  Z
  M 161.93 86.77
  A 10.52 10.52 0.0 0 0 151.41 76.25
  A 10.52 10.52 0.0 0 0 140.89 86.77
  A 10.52 10.52 0.0 0 0 151.41 97.29
  A 10.52 10.52 0.0 0 0 161.93 86.77
  Z"
/>
<circle fill="#000000" cx="151.41" cy="86.77" r="10.52"/>
<circle fill="#ffffff" cx="77.42" cy="153.36" r="10.80"/>
<circle fill="#ffffff" cx="176.82" cy="153.37" r="10.81"/>
<path fill="#000000" d="
  M 91.84 192.75
  A 0.41 0.41 0.0 0 1 92.25 193.16
  L 92.25 210.36
  A 9.65 9.42 90.0 0 1 82.83 220.01
  L 77.77 220.01
  A 9.65 9.42 90.0 0 1 68.35 210.36
  L 68.35 193.16
  A 0.41 0.41 0.0 0 1 68.76 192.75
  L 91.84 192.75
  Z"
/>
<path fill="#000000" d="
  M 187.30 192.74
  A 0.35 0.35 0.0 0 1 187.65 193.09
  L 187.65 210.23
  A 9.81 9.49 -90.0 0 1 178.16 220.04
  L 173.20 220.04
  A 9.81 9.49 90.0 0 1 163.71 210.23
  L 163.71 193.09
  A 0.35 0.35 0.0 0 1 164.06 192.74
  L 187.30 192.74
  Z"
/>
</svg>
