<?xml version="1.0" encoding="UTF-8" standalone="no"?>
<!DOCTYPE svg PUBLIC "-//W3C//DTD SVG 1.1//EN" "http://www.w3.org/Graphics/SVG/1.1/DTD/svg11.dtd">
<svg xmlns="http://www.w3.org/2000/svg" version="1.1" viewBox="0.00 0.00 256.00 360.00">
<g stroke-width="2.00" fill="none" stroke-linecap="butt">
<path stroke="#808080" vector-effect="non-scaling-stroke" d="
  M 166.00 188.93
  Q 166.05 194.79 165.96 200.27
  Q 165.85 206.09 169.17 210.35
  C 176.14 219.27 190.30 217.23 194.43 206.81
  Q 195.74 203.51 195.56 198.42
  Q 195.38 193.49 195.55 188.88
  Q 195.57 188.36 196.09 188.37
  Q 199.22 188.39 202.58 188.38
  C 208.62 188.37 210.53 184.42 210.47 179.02
  Q 210.25 161.82 210.45 142.99
  Q 210.58 129.65 198.83 123.89
  Q 198.42 123.69 198.34 123.24
  Q 193.75 99.57 188.51 71.08
  C 187.76 67.02 186.20 64.08 181.79 64.09
  Q 166.14 64.15 151.29 64.11
  A 0.48 0.47 -5.0 0 1 150.82 63.72
  L 147.66 47.02
  A 3.72 3.72 0.0 0 0 144.01 44.00
  L 108.06 44.00
  A 3.77 3.76 5.4 0 0 104.36 47.06
  L 101.19 63.75
  A 0.49 0.47 4.9 0 1 100.71 64.14
  Q 86.24 64.08 70.68 64.14
  Q 64.84 64.16 63.79 69.78
  Q 58.80 96.42 53.67 123.23
  Q 53.58 123.70 53.15 123.91
  Q 45.92 127.44 42.91 134.50
  Q 41.47 137.85 41.56 146.03
  Q 41.73 163.03 41.60 180.64
  C 41.56 185.23 44.58 188.44 49.42 188.39
  Q 52.76 188.36 55.92 188.36
  Q 56.45 188.36 56.46 188.89
  Q 56.60 193.66 56.45 199.10
  Q 56.32 203.92 57.74 207.16
  C 63.14 219.42 80.75 218.64 85.10 206.29
  C 86.81 201.46 85.83 194.46 86.04 189.00
  Q 86.06 188.37 86.69 188.37
  L 165.44 188.37
  Q 166.00 188.37 166.00 188.93"
/>
<path stroke="#808080" vector-effect="non-scaling-stroke" d="
  M 111.83 51.75
  A 0.53 0.53 0.0 0 1 112.36 52.28
  L 112.38 61.73
  A 0.53 0.53 0.0 0 0 112.94 62.26
  L 114.64 62.15
  A 0.53 0.53 0.0 0 0 115.14 61.62
  L 115.12 52.29
  A 0.53 0.53 0.0 0 1 115.65 51.76
  L 117.84 51.73
  A 0.53 0.53 0.0 0 0 118.37 51.22
  L 118.42 49.90
  A 0.53 0.53 0.0 0 0 117.89 49.35
  L 109.61 49.40
  A 0.53 0.53 0.0 0 0 109.09 49.95
  L 109.15 51.24
  A 0.53 0.53 0.0 0 0 109.67 51.74
  L 111.83 51.75"
/>
<path stroke="#808080" vector-effect="non-scaling-stroke" d="
  M 124.73 60.22
  Q 124.75 60.99 125.05 61.67
  Q 125.40 62.48 126.25 62.20
  L 126.84 62.01
  Q 127.87 61.67 127.56 60.63
  L 124.41 50.25
  Q 124.25 49.74 123.78 49.50
  C 122.61 48.89 121.04 49.25 120.62 50.64
  Q 118.95 56.16 117.54 60.75
  Q 117.23 61.75 118.25 62.01
  L 119.14 62.23
  Q 119.98 62.44 120.18 61.60
  L 120.52 60.16
  Q 120.67 59.50 121.35 59.50
  L 123.99 59.50
  A 0.74 0.74 0.0 0 1 124.73 60.22"
/>
<path stroke="#808080" vector-effect="non-scaling-stroke" d="
  M 133.29 58.26
  L 135.20 61.53
  Q 135.87 62.67 137.05 62.07
  Q 137.21 61.98 137.30 61.94
  Q 138.48 61.33 137.74 60.22
  L 135.13 56.34
  A 1.09 1.08 -45.6 0 1 135.12 55.17
  L 137.59 51.33
  Q 138.32 50.21 137.15 49.57
  L 136.75 49.36
  A 1.06 1.06 0.0 0 0 135.33 49.74
  L 133.27 53.12
  Q 132.91 53.71 132.57 53.11
  L 130.76 49.95
  Q 130.25 49.05 129.27 49.38
  L 128.65 49.58
  Q 127.49 49.96 128.13 50.99
  L 130.83 55.34
  Q 131.12 55.79 130.82 56.24
  L 128.04 60.47
  A 0.97 0.97 0.0 0 0 128.48 61.89
  L 128.90 62.06
  Q 130.07 62.56 130.72 61.46
  L 132.59 58.26
  Q 132.94 57.67 133.29 58.26"
/>
<path stroke="#808080" vector-effect="non-scaling-stroke" d="
  M 141.87 50.25
  A 0.81 0.81 0.0 0 0 141.06 49.44
  L 139.94 49.44
  A 0.81 0.81 0.0 0 0 139.13 50.25
  L 139.13 61.37
  A 0.81 0.81 0.0 0 0 139.94 62.18
  L 141.06 62.18
  A 0.81 0.81 0.0 0 0 141.87 61.37
  L 141.87 50.25"
/>
<path stroke="#808080" vector-effect="non-scaling-stroke" d="
  M 157.42 89.87
  C 152.83 94.99 144.55 95.09 139.76 90.20
  Q 134.43 84.75 136.88 76.95
  Q 137.06 76.37 136.45 76.37
  L 75.37 76.37
  A 0.45 0.45 0.0 0 0 74.93 76.74
  L 66.32 122.17
  A 0.17 0.17 0.0 0 0 66.49 122.37
  L 117.97 122.38
  Q 118.17 122.38 118.18 122.18
  Q 118.45 117.66 118.32 113.39
  C 118.02 103.84 124.25 97.60 133.77 97.69
  Q 149.52 97.83 163.79 97.71
  C 169.89 97.67 175.17 100.89 177.39 106.61
  C 179.06 110.90 178.32 117.25 178.53 122.19
  Q 178.54 122.38 178.73 122.38
  L 185.51 122.37
  Q 185.74 122.37 185.70 122.15
  L 177.12 76.93
  Q 177.02 76.37 176.45 76.37
  L 160.45 76.37
  Q 159.69 76.37 159.93 77.09
  Q 162.38 84.33 157.42 89.87"
/>
<path stroke="#808080" vector-effect="non-scaling-stroke" d="
  M 166.50 111.18
  A 0.86 0.86 0.0 0 0 165.64 110.32
  L 164.86 110.32
  A 0.86 0.86 0.0 0 0 164.00 111.18
  L 164.00 121.60
  A 0.86 0.86 0.0 0 0 164.86 122.46
  L 165.64 122.46
  A 0.86 0.86 0.0 0 0 166.50 121.60
  L 166.50 111.18"
/>
<path stroke="#808080" vector-effect="non-scaling-stroke" d="
  M 132.5084 111.3340
  A 0.53 0.53 0.0 0 0 131.9802 110.8021
  L 130.7802 110.7979
  A 0.53 0.53 0.0 0 0 130.2484 111.3261
  L 130.2116 121.8660
  A 0.53 0.53 0.0 0 0 130.7398 122.3979
  L 131.9398 122.4021
  A 0.53 0.53 0.0 0 0 132.4716 121.8739
  L 132.5084 111.3340"
/>
<path stroke="#808080" vector-effect="non-scaling-stroke" d="
  M 84.76 157.44
  A 13.92 13.92 0.0 0 0 70.84 143.52
  A 13.92 13.92 0.0 0 0 56.92 157.44
  A 13.92 13.92 0.0 0 0 70.84 171.36
  A 13.92 13.92 0.0 0 0 84.76 157.44"
/>
<path stroke="#808080" vector-effect="non-scaling-stroke" d="
  M 195.09 157.43
  A 13.91 13.91 0.0 0 0 181.18 143.52
  A 13.91 13.91 0.0 0 0 167.27 157.43
  A 13.91 13.91 0.0 0 0 181.18 171.34
  A 13.91 13.91 0.0 0 0 195.09 157.43"
/>
<path stroke="#808080" vector-effect="non-scaling-stroke" d="
  M 152.25 165.67
  A 3.30 3.30 0.0 0 0 148.95 162.37
  L 102.17 162.37
  A 3.30 3.30 0.0 0 0 98.87 165.67
  L 98.87 175.57
  A 3.30 3.30 0.0 0 0 102.17 178.87
  L 148.95 178.87
  A 3.30 3.30 0.0 0 0 152.25 175.57
  L 152.25 165.67"
/>
<path stroke="#808080" vector-effect="non-scaling-stroke" d="
  M 123.77 56.97
  L 122.88 53.77
  Q 122.61 52.78 122.32 53.77
  L 121.40 56.97
  Q 121.28 57.39 121.72 57.38
  L 123.52 57.31
  Q 123.86 57.30 123.77 56.97"
/>
</g>
<path fill="#ffffff" d="
  M 121.88 0.00
  L 134.24 0.00
  Q 139.12 0.58 143.98 1.20
  Q 175.61 5.19 200.59 22.56
  C 230.59 43.42 251.06 76.41 255.04 112.79
  Q 255.54 117.33 256.00 121.88
  L 256.00 133.23
  Q 253.53 178.77 225.15 211.38
  Q 200.24 240.00 164.11 250.79
  C 123.73 262.84 78.16 253.64 45.80 226.10
  C 21.21 205.17 4.45 175.71 0.96 143.29
  Q 0.45 138.59 0.00 133.87
  L 0.00 122.03
  Q 1.34 99.82 8.80 81.24
  Q 23.28 45.17 54.03 23.54
  Q 81.06 4.53 114.02 0.94
  Q 117.96 0.51 121.88 0.00
  Z
  M 166.00 188.93
  Q 166.05 194.79 165.96 200.27
  Q 165.85 206.09 169.17 210.35
  C 176.14 219.27 190.30 217.23 194.43 206.81
  Q 195.74 203.51 195.56 198.42
  Q 195.38 193.49 195.55 188.88
  Q 195.57 188.36 196.09 188.37
  Q 199.22 188.39 202.58 188.38
  C 208.62 188.37 210.53 184.42 210.47 179.02
  Q 210.25 161.82 210.45 142.99
  Q 210.58 129.65 198.83 123.89
  Q 198.42 123.69 198.34 123.24
  Q 193.75 99.57 188.51 71.08
  C 187.76 67.02 186.20 64.08 181.79 64.09
  Q 166.14 64.15 151.29 64.11
  A 0.48 0.47 -5.0 0 1 150.82 63.72
  L 147.66 47.02
  A 3.72 3.72 0.0 0 0 144.01 44.00
  L 108.06 44.00
  A 3.77 3.76 5.4 0 0 104.36 47.06
  L 101.19 63.75
  A 0.49 0.47 4.9 0 1 100.71 64.14
  Q 86.24 64.08 70.68 64.14
  Q 64.84 64.16 63.79 69.78
  Q 58.80 96.42 53.67 123.23
  Q 53.58 123.70 53.15 123.91
  Q 45.92 127.44 42.91 134.50
  Q 41.47 137.85 41.56 146.03
  Q 41.73 163.03 41.60 180.64
  C 41.56 185.23 44.58 188.44 49.42 188.39
  Q 52.76 188.36 55.92 188.36
  Q 56.45 188.36 56.46 188.89
  Q 56.60 193.66 56.45 199.10
  Q 56.32 203.92 57.74 207.16
  C 63.14 219.42 80.75 218.64 85.10 206.29
  C 86.81 201.46 85.83 194.46 86.04 189.00
  Q 86.06 188.37 86.69 188.37
  L 165.44 188.37
  Q 166.00 188.37 166.00 188.93
  Z"
/>
<path fill="#000000" d="
  M 165.44 188.37
  L 86.69 188.37
  Q 86.06 188.37 86.04 189.00
  C 85.83 194.46 86.81 201.46 85.10 206.29
  C 80.75 218.64 63.14 219.42 57.74 207.16
  Q 56.32 203.92 56.45 199.10
  Q 56.60 193.66 56.46 188.89
  Q 56.45 188.36 55.92 188.36
  Q 52.76 188.36 49.42 188.39
  C 44.58 188.44 41.56 185.23 41.60 180.64
  Q 41.73 163.03 41.56 146.03
  Q 41.47 137.85 42.91 134.50
  Q 45.92 127.44 53.15 123.91
  Q 53.58 123.70 53.67 123.23
  Q 58.80 96.42 63.79 69.78
  Q 64.84 64.16 70.68 64.14
  Q 86.24 64.08 100.71 64.14
  A 0.49 0.47 4.9 0 0 101.19 63.75
  L 104.36 47.06
  A 3.77 3.76 5.4 0 1 108.06 44.00
  L 144.01 44.00
  A 3.72 3.72 0.0 0 1 147.66 47.02
  L 150.82 63.72
  A 0.48 0.47 -5.0 0 0 151.29 64.11
  Q 166.14 64.15 181.79 64.09
  C 186.20 64.08 187.76 67.02 188.51 71.08
  Q 193.75 99.57 198.34 123.24
  Q 198.42 123.69 198.83 123.89
  Q 210.58 129.65 210.45 142.99
  Q 210.25 161.82 210.47 179.02
  C 210.53 184.42 208.62 188.37 202.58 188.38
  Q 199.22 188.39 196.09 188.37
  Q 195.57 188.36 195.55 188.88
  Q 195.38 193.49 195.56 198.42
  Q 195.74 203.51 194.43 206.81
  C 190.30 217.23 176.14 219.27 169.17 210.35
  Q 165.85 206.09 165.96 200.27
  Q 166.05 194.79 166.00 188.93
  Q 166.00 188.37 165.44 188.37
  Z
  M 111.83 51.75
  A 0.53 0.53 0.0 0 1 112.36 52.28
  L 112.38 61.73
  A 0.53 0.53 0.0 0 0 112.94 62.26
  L 114.64 62.15
  A 0.53 0.53 0.0 0 0 115.14 61.62
  L 115.12 52.29
  A 0.53 0.53 0.0 0 1 115.65 51.76
  L 117.84 51.73
  A 0.53 0.53 0.0 0 0 118.37 51.22
  L 118.42 49.90
  A 0.53 0.53 0.0 0 0 117.89 49.35
  L 109.61 49.40
  A 0.53 0.53 0.0 0 0 109.09 49.95
  L 109.15 51.24
  A 0.53 0.53 0.0 0 0 109.67 51.74
  L 111.83 51.75
  Z
  M 124.73 60.22
  Q 124.75 60.99 125.05 61.67
  Q 125.40 62.48 126.25 62.20
  L 126.84 62.01
  Q 127.87 61.67 127.56 60.63
  L 124.41 50.25
  Q 124.25 49.74 123.78 49.50
  C 122.61 48.89 121.04 49.25 120.62 50.64
  Q 118.95 56.16 117.54 60.75
  Q 117.23 61.75 118.25 62.01
  L 119.14 62.23
  Q 119.98 62.44 120.18 61.60
  L 120.52 60.16
  Q 120.67 59.50 121.35 59.50
  L 123.99 59.50
  A 0.74 0.74 0.0 0 1 124.73 60.22
  Z
  M 133.29 58.26
  L 135.20 61.53
  Q 135.87 62.67 137.05 62.07
  Q 137.21 61.98 137.30 61.94
  Q 138.48 61.33 137.74 60.22
  L 135.13 56.34
  A 1.09 1.08 -45.6 0 1 135.12 55.17
  L 137.59 51.33
  Q 138.32 50.21 137.15 49.57
  L 136.75 49.36
  A 1.06 1.06 0.0 0 0 135.33 49.74
  L 133.27 53.12
  Q 132.91 53.71 132.57 53.11
  L 130.76 49.95
  Q 130.25 49.05 129.27 49.38
  L 128.65 49.58
  Q 127.49 49.96 128.13 50.99
  L 130.83 55.34
  Q 131.12 55.79 130.82 56.24
  L 128.04 60.47
  A 0.97 0.97 0.0 0 0 128.48 61.89
  L 128.90 62.06
  Q 130.07 62.56 130.72 61.46
  L 132.59 58.26
  Q 132.94 57.67 133.29 58.26
  Z
  M 141.87 50.25
  A 0.81 0.81 0.0 0 0 141.06 49.44
  L 139.94 49.44
  A 0.81 0.81 0.0 0 0 139.13 50.25
  L 139.13 61.37
  A 0.81 0.81 0.0 0 0 139.94 62.18
  L 141.06 62.18
  A 0.81 0.81 0.0 0 0 141.87 61.37
  L 141.87 50.25
  Z
  M 157.42 89.87
  C 152.83 94.99 144.55 95.09 139.76 90.20
  Q 134.43 84.75 136.88 76.95
  Q 137.06 76.37 136.45 76.37
  L 75.37 76.37
  A 0.45 0.45 0.0 0 0 74.93 76.74
  L 66.32 122.17
  A 0.17 0.17 0.0 0 0 66.49 122.37
  L 117.97 122.38
  Q 118.17 122.38 118.18 122.18
  Q 118.45 117.66 118.32 113.39
  C 118.02 103.84 124.25 97.60 133.77 97.69
  Q 149.52 97.83 163.79 97.71
  C 169.89 97.67 175.17 100.89 177.39 106.61
  C 179.06 110.90 178.32 117.25 178.53 122.19
  Q 178.54 122.38 178.73 122.38
  L 185.51 122.37
  Q 185.74 122.37 185.70 122.15
  L 177.12 76.93
  Q 177.02 76.37 176.45 76.37
  L 160.45 76.37
  Q 159.69 76.37 159.93 77.09
  Q 162.38 84.33 157.42 89.87
  Z
  M 166.50 111.18
  A 0.86 0.86 0.0 0 0 165.64 110.32
  L 164.86 110.32
  A 0.86 0.86 0.0 0 0 164.00 111.18
  L 164.00 121.60
  A 0.86 0.86 0.0 0 0 164.86 122.46
  L 165.64 122.46
  A 0.86 0.86 0.0 0 0 166.50 121.60
  L 166.50 111.18
  Z
  M 132.5084 111.3340
  A 0.53 0.53 0.0 0 0 131.9802 110.8021
  L 130.7802 110.7979
  A 0.53 0.53 0.0 0 0 130.2484 111.3261
  L 130.2116 121.8660
  A 0.53 0.53 0.0 0 0 130.7398 122.3979
  L 131.9398 122.4021
  A 0.53 0.53 0.0 0 0 132.4716 121.8739
  L 132.5084 111.3340
  Z
  M 84.76 157.44
  A 13.92 13.92 0.0 0 0 70.84 143.52
  A 13.92 13.92 0.0 0 0 56.92 157.44
  A 13.92 13.92 0.0 0 0 70.84 171.36
  A 13.92 13.92 0.0 0 0 84.76 157.44
  Z
  M 195.09 157.43
  A 13.91 13.91 0.0 0 0 181.18 143.52
  A 13.91 13.91 0.0 0 0 167.27 157.43
  A 13.91 13.91 0.0 0 0 181.18 171.34
  A 13.91 13.91 0.0 0 0 195.09 157.43
  Z
  M 152.25 165.67
  A 3.30 3.30 0.0 0 0 148.95 162.37
  L 102.17 162.37
  A 3.30 3.30 0.0 0 0 98.87 165.67
  L 98.87 175.57
  A 3.30 3.30 0.0 0 0 102.17 178.87
  L 148.95 178.87
  A 3.30 3.30 0.0 0 0 152.25 175.57
  L 152.25 165.67
  Z"
/>
<path fill="#ffffff" d="
  M 111.83 51.75
  L 109.67 51.74
  A 0.53 0.53 0.0 0 1 109.15 51.24
  L 109.09 49.95
  A 0.53 0.53 0.0 0 1 109.61 49.40
  L 117.89 49.35
  A 0.53 0.53 0.0 0 1 118.42 49.90
  L 118.37 51.22
  A 0.53 0.53 0.0 0 1 117.84 51.73
  L 115.65 51.76
  A 0.53 0.53 0.0 0 0 115.12 52.29
  L 115.14 61.62
  A 0.53 0.53 0.0 0 1 114.64 62.15
  L 112.94 62.26
  A 0.53 0.53 0.0 0 1 112.38 61.73
  L 112.36 52.28
  A 0.53 0.53 0.0 0 0 111.83 51.75
  Z"
/>
<path fill="#ffffff" d="
  M 123.99 59.50
  L 121.35 59.50
  Q 120.67 59.50 120.52 60.16
  L 120.18 61.60
  Q 119.98 62.44 119.14 62.23
  L 118.25 62.01
  Q 117.23 61.75 117.54 60.75
  Q 118.95 56.16 120.62 50.64
  C 121.04 49.25 122.61 48.89 123.78 49.50
  Q 124.25 49.74 124.41 50.25
  L 127.56 60.63
  Q 127.87 61.67 126.84 62.01
  L 126.25 62.20
  Q 125.40 62.48 125.05 61.67
  Q 124.75 60.99 124.73 60.22
  A 0.74 0.74 0.0 0 0 123.99 59.50
  Z
  M 123.77 56.97
  L 122.88 53.77
  Q 122.61 52.78 122.32 53.77
  L 121.40 56.97
  Q 121.28 57.39 121.72 57.38
  L 123.52 57.31
  Q 123.86 57.30 123.77 56.97
  Z"
/>
<path fill="#ffffff" d="
  M 132.59 58.26
  L 130.72 61.46
  Q 130.07 62.56 128.90 62.06
  L 128.48 61.89
  A 0.97 0.97 0.0 0 1 128.04 60.47
  L 130.82 56.24
  Q 131.12 55.79 130.83 55.34
  L 128.13 50.99
  Q 127.49 49.96 128.65 49.58
  L 129.27 49.38
  Q 130.25 49.05 130.76 49.95
  L 132.57 53.11
  Q 132.91 53.71 133.27 53.12
  L 135.33 49.74
  A 1.06 1.06 0.0 0 1 136.75 49.36
  L 137.15 49.57
  Q 138.32 50.21 137.59 51.33
  L 135.12 55.17
  A 1.09 1.08 -45.6 0 0 135.13 56.34
  L 137.74 60.22
  Q 138.48 61.33 137.30 61.94
  Q 137.21 61.98 137.05 62.07
  Q 135.87 62.67 135.20 61.53
  L 133.29 58.26
  Q 132.94 57.67 132.59 58.26
  Z"
/>
<rect fill="#ffffff" x="139.13" y="49.44" width="2.74" height="12.74" rx="0.81"/>
<path fill="#000000" d="
  M 122.88 53.77
  L 123.77 56.97
  Q 123.86 57.30 123.52 57.31
  L 121.72 57.38
  Q 121.28 57.39 121.40 56.97
  L 122.32 53.77
  Q 122.61 52.78 122.88 53.77
  Z"
/>
<path fill="#ffffff" d="
  M 157.42 89.87
  Q 162.38 84.33 159.93 77.09
  Q 159.69 76.37 160.45 76.37
  L 176.45 76.37
  Q 177.02 76.37 177.12 76.93
  L 185.70 122.15
  Q 185.74 122.37 185.51 122.37
  L 178.73 122.38
  Q 178.54 122.38 178.53 122.19
  C 178.32 117.25 179.06 110.90 177.39 106.61
  C 175.17 100.89 169.89 97.67 163.79 97.71
  Q 149.52 97.83 133.77 97.69
  C 124.25 97.60 118.02 103.84 118.32 113.39
  Q 118.45 117.66 118.18 122.18
  Q 118.17 122.38 117.97 122.38
  L 66.49 122.37
  A 0.17 0.17 0.0 0 1 66.32 122.17
  L 74.93 76.74
  A 0.45 0.45 0.0 0 1 75.37 76.37
  L 136.45 76.37
  Q 137.06 76.37 136.88 76.95
  Q 134.43 84.75 139.76 90.20
  C 144.55 95.09 152.83 94.99 157.42 89.87
  Z"
/>
<rect fill="#ffffff" x="164.00" y="110.32" width="2.50" height="12.14" rx="0.86"/>
<rect fill="#ffffff" x="-1.13" y="-5.80" transform="translate(131.36,116.60) rotate(0.2)" width="2.26" height="11.60" rx="0.53"/>
<circle fill="#ffffff" cx="70.84" cy="157.44" r="13.92"/>
<circle fill="#ffffff" cx="181.18" cy="157.43" r="13.91"/>
<rect fill="#ffffff" x="98.87" y="162.37" width="53.38" height="16.50" rx="3.30"/>
</svg>
