<?xml version="1.0" encoding="UTF-8" standalone="no"?>
<!DOCTYPE svg PUBLIC "-//W3C//DTD SVG 1.1//EN" "http://www.w3.org/Graphics/SVG/1.1/DTD/svg11.dtd">
<svg xmlns="http://www.w3.org/2000/svg" version="1.1" viewBox="0.00 0.00 256.00 360.00">
<g stroke-width="2.00" fill="none" stroke-linecap="butt">
<path stroke="#808080" vector-effect="non-scaling-stroke" d="
  M 104.74 179.23
  Q 120.96 179.28 136.34 179.23
  Q 143.47 179.21 146.19 174.08
  Q 147.75 171.15 147.72 166.36
  Q 147.45 120.14 147.70 75.50
  C 147.73 68.82 143.59 63.98 136.77 63.98
  Q 90.06 64.02 47.12 63.97
  C 40.73 63.96 35.98 68.03 35.98 74.59
  Q 36.03 125.64 35.98 167.96
  C 35.98 172.12 38.17 175.78 41.80 177.81
  Q 44.73 179.45 49.42 179.32
  Q 55.57 179.14 61.07 179.30
  Q 61.51 179.31 61.61 179.74
  C 66.82 203.00 98.42 202.92 103.98 179.83
  Q 104.12 179.23 104.74 179.23"
/>
<path stroke="#808080" vector-effect="non-scaling-stroke" d="
  M 198.30 179.24
  C 201.55 179.17 205.25 179.68 208.29 178.67
  C 213.65 176.89 216.14 172.31 216.07 166.65
  Q 215.88 151.44 216.06 135.79
  C 216.14 128.56 213.58 122.83 209.35 117.15
  Q 201.91 107.15 195.35 98.51
  C 191.11 92.92 185.64 89.06 178.51 89.18
  Q 167.18 89.36 155.38 89.21
  Q 154.74 89.20 154.74 89.84
  Q 154.77 135.01 154.73 176.59
  C 154.71 190.25 168.94 199.86 181.41 196.55
  Q 194.41 193.10 197.53 179.87
  Q 197.67 179.26 198.30 179.24"
/>
<path stroke="#808080" vector-effect="non-scaling-stroke" d="
  M 97.19 175.60
  A 14.39 14.39 0.0 0 0 82.80 161.21
  A 14.39 14.39 0.0 0 0 68.41 175.60
  A 14.39 14.39 0.0 0 0 82.80 189.99
  A 14.39 14.39 0.0 0 0 97.19 175.60"
/>
<path stroke="#808080" vector-effect="non-scaling-stroke" d="
  M 208.78 135.56
  C 208.96 131.26 207.44 126.72 204.77 123.08
  Q 198.92 115.09 193.28 107.68
  A 1.12 1.10 -18.4 0 0 192.40 107.25
  Q 182.80 107.26 172.90 107.23
  C 168.47 107.22 165.49 110.88 165.58 115.15
  Q 165.72 121.88 165.56 127.94
  C 165.49 130.88 166.92 133.59 169.49 135.08
  Q 171.20 136.08 174.59 136.06
  Q 192.27 135.97 208.28 136.04
  A 0.50 0.50 0.0 0 0 208.78 135.56"
/>
<path stroke="#808080" vector-effect="non-scaling-stroke" d="
  M 190.80 175.60
  A 14.40 14.40 0.0 0 0 176.40 161.20
  A 14.40 14.40 0.0 0 0 162.00 175.60
  A 14.40 14.40 0.0 0 0 176.40 190.00
  A 14.40 14.40 0.0 0 0 190.80 175.60"
/>
</g>
<path fill="#ffffff" d="
  M 121.88 0.00
  L 134.24 0.00
  Q 139.12 0.58 143.98 1.20
  Q 175.60 5.19 200.59 22.56
  C 230.45 43.32 251.04 76.25 255.04 112.79
  Q 255.54 117.33 256.00 121.88
  L 256.00 133.24
  Q 253.70 174.85 228.86 206.78
  C 184.16 264.22 99.19 272.74 44.37 224.83
  Q 3.91 189.46 0.00 133.88
  L 0.00 122.00
  Q 3.61 69.52 40.52 34.64
  Q 47.96 27.62 56.08 22.12
  Q 82.12 4.51 114.01 0.97
  Q 117.97 0.53 121.88 0.00
  Z
  M 104.74 179.23
  Q 120.96 179.28 136.34 179.23
  Q 143.47 179.21 146.19 174.08
  Q 147.75 171.15 147.72 166.36
  Q 147.45 120.14 147.70 75.50
  C 147.73 68.82 143.59 63.98 136.77 63.98
  Q 90.06 64.02 47.12 63.97
  C 40.73 63.96 35.98 68.03 35.98 74.59
  Q 36.03 125.64 35.98 167.96
  C 35.98 172.12 38.17 175.78 41.80 177.81
  Q 44.73 179.45 49.42 179.32
  Q 55.57 179.14 61.07 179.30
  Q 61.51 179.31 61.61 179.74
  C 66.82 203.00 98.42 202.92 103.98 179.83
  Q 104.12 179.23 104.74 179.23
  Z
  M 198.30 179.24
  C 201.55 179.17 205.25 179.68 208.29 178.67
  C 213.65 176.89 216.14 172.31 216.07 166.65
  Q 215.88 151.44 216.06 135.79
  C 216.14 128.56 213.58 122.83 209.35 117.15
  Q 201.91 107.15 195.35 98.51
  C 191.11 92.92 185.64 89.06 178.51 89.18
  Q 167.18 89.36 155.38 89.21
  Q 154.74 89.20 154.74 89.84
  Q 154.77 135.01 154.73 176.59
  C 154.71 190.25 168.94 199.86 181.41 196.55
  Q 194.41 193.10 197.53 179.87
  Q 197.67 179.26 198.30 179.24
  Z"
/>
<path fill="#000000" d="
  M 103.98 179.83
  C 98.42 202.92 66.82 203.00 61.61 179.74
  Q 61.51 179.31 61.07 179.30
  Q 55.57 179.14 49.42 179.32
  Q 44.73 179.45 41.80 177.81
  C 38.17 175.78 35.98 172.12 35.98 167.96
  Q 36.03 125.64 35.98 74.59
  C 35.98 68.03 40.73 63.96 47.12 63.97
  Q 90.06 64.02 136.77 63.98
  C 143.59 63.98 147.73 68.82 147.70 75.50
  Q 147.45 120.14 147.72 166.36
  Q 147.75 171.15 146.19 174.08
  Q 143.47 179.21 136.34 179.23
  Q 120.96 179.28 104.74 179.23
  Q 104.12 179.23 103.98 179.83
  Z
  M 97.19 175.60
  A 14.39 14.39 0.0 0 0 82.80 161.21
  A 14.39 14.39 0.0 0 0 68.41 175.60
  A 14.39 14.39 0.0 0 0 82.80 189.99
  A 14.39 14.39 0.0 0 0 97.19 175.60
  Z"
/>
<path fill="#000000" d="
  M 197.53 179.87
  Q 194.41 193.10 181.41 196.55
  C 168.94 199.86 154.71 190.25 154.73 176.59
  Q 154.77 135.01 154.74 89.84
  Q 154.74 89.20 155.38 89.21
  Q 167.18 89.36 178.51 89.18
  C 185.64 89.06 191.11 92.92 195.35 98.51
  Q 201.91 107.15 209.35 117.15
  C 213.58 122.83 216.14 128.56 216.06 135.79
  Q 215.88 151.44 216.07 166.65
  C 216.14 172.31 213.65 176.89 208.29 178.67
  C 205.25 179.68 201.55 179.17 198.30 179.24
  Q 197.67 179.26 197.53 179.87
  Z
  M 208.78 135.56
  C 208.96 131.26 207.44 126.72 204.77 123.08
  Q 198.92 115.09 193.28 107.68
  A 1.12 1.10 -18.4 0 0 192.40 107.25
  Q 182.80 107.26 172.90 107.23
  C 168.47 107.22 165.49 110.88 165.58 115.15
  Q 165.72 121.88 165.56 127.94
  C 165.49 130.88 166.92 133.59 169.49 135.08
  Q 171.20 136.08 174.59 136.06
  Q 192.27 135.97 208.28 136.04
  A 0.50 0.50 0.0 0 0 208.78 135.56
  Z
  M 190.80 175.60
  A 14.40 14.40 0.0 0 0 176.40 161.20
  A 14.40 14.40 0.0 0 0 162.00 175.60
  A 14.40 14.40 0.0 0 0 176.40 190.00
  A 14.40 14.40 0.0 0 0 190.80 175.60
  Z"
/>
<path fill="#ffffff" d="
  M 204.77 123.08
  C 207.44 126.72 208.96 131.26 208.78 135.56
  A 0.50 0.50 0.0 0 1 208.28 136.04
  Q 192.27 135.97 174.59 136.06
  Q 171.20 136.08 169.49 135.08
  C 166.92 133.59 165.49 130.88 165.56 127.94
  Q 165.72 121.88 165.58 115.15
  C 165.49 110.88 168.47 107.22 172.90 107.23
  Q 182.80 107.26 192.40 107.25
  A 1.12 1.10 -18.4 0 1 193.28 107.68
  Q 198.92 115.09 204.77 123.08
  Z"
/>
<circle fill="#ffffff" cx="82.80" cy="175.60" r="14.39"/>
<circle fill="#ffffff" cx="176.40" cy="175.60" r="14.40"/>
</svg>
