<?xml version="1.0" encoding="UTF-8" standalone="no"?>
<!DOCTYPE svg PUBLIC "-//W3C//DTD SVG 1.1//EN" "http://www.w3.org/Graphics/SVG/1.1/DTD/svg11.dtd">
<svg xmlns="http://www.w3.org/2000/svg" version="1.1" viewBox="0.00 0.00 256.00 360.00">
<path stroke="#808080" stroke-width="2.00" fill="none" stroke-linecap="butt" vector-effect="non-scaling-stroke" d="
  M 124.46 57.84
  A 0.28 0.28 0.0 0 1 123.94 57.84
  Q 121.35 51.87 114.87 51.85
  C 110.51 51.84 104.51 56.22 106.09 61.24
  Q 109.95 73.47 110.50 85.37
  Q 110.67 89.12 108.91 92.30
  C 96.00 115.66 85.42 134.57 75.22 155.97
  Q 72.60 161.48 70.49 168.19
  Q 70.13 169.37 71.36 169.37
  L 119.82 169.37
  Q 120.50 169.37 120.50 170.05
  L 120.50 180.96
  A 1.14 1.13 67.1 0 1 120.18 181.75
  L 107.15 195.27
  Q 106.72 195.71 106.17 195.44
  C 99.48 192.18 93.25 200.96 99.11 206.15
  C 101.60 208.35 105.88 208.44 108.07 205.52
  C 109.17 204.05 110.00 202.65 111.32 201.31
  Q 115.77 196.80 120.28 192.17
  A 5.45 5.45 0.0 0 1 128.22 192.30
  Q 132.23 196.72 137.27 201.73
  Q 138.86 203.31 139.99 205.19
  C 143.40 210.85 152.25 207.06 151.56 200.83
  C 151.07 196.38 146.59 193.37 142.23 195.62
  A 0.68 0.66 53.7 0 1 141.45 195.49
  L 128.11 182.04
  Q 127.63 181.55 127.63 180.86
  L 127.62 170.00
  Q 127.62 169.37 128.25 169.37
  L 177.14 169.37
  A 0.58 0.57 81.7 0 0 177.69 168.63
  Q 175.32 160.90 171.72 153.54
  Q 159.75 129.06 142.28 98.02
  C 141.10 95.92 140.19 93.70 138.99 91.59
  Q 137.70 89.33 137.72 86.70
  C 137.77 78.40 139.67 69.69 142.12 61.64
  C 143.88 55.85 137.95 51.69 132.79 51.89
  Q 126.81 52.12 124.46 57.84"
/>
<path fill="#ffffff" d="
  M 121.87 0.00
  L 134.24 0.00
  Q 139.12 0.58 143.98 1.20
  Q 175.53 5.19 200.58 22.55
  C 231.69 44.12 250.94 77.03 255.27 114.36
  C 255.56 116.84 255.52 119.41 256.00 121.88
  L 256.00 133.23
  Q 253.60 177.88 226.18 210.17
  C 198.82 242.39 158.43 259.28 116.18 255.41
  C 89.74 252.98 64.46 242.39 44.37 224.83
  Q 3.91 189.46 0.00 133.88
  L 0.00 122.01
  Q 0.56 117.00 1.19 112.02
  Q 4.67 84.27 19.00 60.86
  Q 24.09 52.55 30.84 44.77
  Q 66.14 4.06 121.87 0.00
  Z
  M 124.46 57.84
  A 0.28 0.28 0.0 0 1 123.94 57.84
  Q 121.35 51.87 114.87 51.85
  C 110.51 51.84 104.51 56.22 106.09 61.24
  Q 109.95 73.47 110.50 85.37
  Q 110.67 89.12 108.91 92.30
  C 96.00 115.66 85.42 134.57 75.22 155.97
  Q 72.60 161.48 70.49 168.19
  Q 70.13 169.37 71.36 169.37
  L 119.82 169.37
  Q 120.50 169.37 120.50 170.05
  L 120.50 180.96
  A 1.14 1.13 67.1 0 1 120.18 181.75
  L 107.15 195.27
  Q 106.72 195.71 106.17 195.44
  C 99.48 192.18 93.25 200.96 99.11 206.15
  C 101.60 208.35 105.88 208.44 108.07 205.52
  C 109.17 204.05 110.00 202.65 111.32 201.31
  Q 115.77 196.80 120.28 192.17
  A 5.45 5.45 0.0 0 1 128.22 192.30
  Q 132.23 196.72 137.27 201.73
  Q 138.86 203.31 139.99 205.19
  C 143.40 210.85 152.25 207.06 151.56 200.83
  C 151.07 196.38 146.59 193.37 142.23 195.62
  A 0.68 0.66 53.7 0 1 141.45 195.49
  L 128.11 182.04
  Q 127.63 181.55 127.63 180.86
  L 127.62 170.00
  Q 127.62 169.37 128.25 169.37
  L 177.14 169.37
  A 0.58 0.57 81.7 0 0 177.69 168.63
  Q 175.32 160.90 171.72 153.54
  Q 159.75 129.06 142.28 98.02
  C 141.10 95.92 140.19 93.70 138.99 91.59
  Q 137.70 89.33 137.72 86.70
  C 137.77 78.40 139.67 69.69 142.12 61.64
  C 143.88 55.85 137.95 51.69 132.79 51.89
  Q 126.81 52.12 124.46 57.84
  Z"
/>
<path fill="#000000" d="
  M 124.46 57.84
  Q 126.81 52.12 132.79 51.89
  C 137.95 51.69 143.88 55.85 142.12 61.64
  C 139.67 69.69 137.77 78.40 137.72 86.70
  Q 137.70 89.33 138.99 91.59
  C 140.19 93.70 141.10 95.92 142.28 98.02
  Q 159.75 129.06 171.72 153.54
  Q 175.32 160.90 177.69 168.63
  A 0.58 0.57 81.7 0 1 177.14 169.37
  L 128.25 169.37
  Q 127.62 169.37 127.62 170.00
  L 127.63 180.86
  Q 127.63 181.55 128.11 182.04
  L 141.45 195.49
  A 0.68 0.66 53.7 0 0 142.23 195.62
  C 146.59 193.37 151.07 196.38 151.56 200.83
  C 152.25 207.06 143.40 210.85 139.99 205.19
  Q 138.86 203.31 137.27 201.73
  Q 132.23 196.72 128.22 192.30
  A 5.45 5.45 0.0 0 0 120.28 192.17
  Q 115.77 196.80 111.32 201.31
  C 110.00 202.65 109.17 204.05 108.07 205.52
  C 105.88 208.44 101.60 208.35 99.11 206.15
  C 93.25 200.96 99.48 192.18 106.17 195.44
  Q 106.72 195.71 107.15 195.27
  L 120.18 181.75
  A 1.14 1.13 67.1 0 0 120.50 180.96
  L 120.50 170.05
  Q 120.50 169.37 119.82 169.37
  L 71.36 169.37
  Q 70.13 169.37 70.49 168.19
  Q 72.60 161.48 75.22 155.97
  C 85.42 134.57 96.00 115.66 108.91 92.30
  Q 110.67 89.12 110.50 85.37
  Q 109.95 73.47 106.09 61.24
  C 104.51 56.22 110.51 51.84 114.87 51.85
  Q 121.35 51.87 123.94 57.84
  A 0.28 0.28 0.0 0 0 124.46 57.84
  Z"
/>
</svg>
