<?xml version="1.0" encoding="UTF-8" standalone="no"?>
<!DOCTYPE svg PUBLIC "-//W3C//DTD SVG 1.1//EN" "http://www.w3.org/Graphics/SVG/1.1/DTD/svg11.dtd">
<svg xmlns="http://www.w3.org/2000/svg" version="1.1" viewBox="0.00 0.00 256.00 360.00">
<g stroke-width="2.00" fill="none" stroke-linecap="butt">
<path stroke="#808080" vector-effect="non-scaling-stroke" d="
  M 166.13 51.94
  L 166.14 63.15
  A 0.36 0.35 0.0 0 1 165.78 63.50
  L 90.56 63.50
  A 0.69 0.68 90.0 0 1 89.88 62.81
  L 89.87 52.57
  Q 89.87 51.75 90.69 51.75
  L 95.24 51.75
  Q 95.86 51.75 95.79 52.37
  C 95.48 54.96 95.74 57.65 99.12 57.63
  Q 104.48 57.60 109.77 57.65
  Q 110.37 57.65 110.37 57.05
  L 110.37 40.56
  Q 110.38 40.00 109.81 40.00
  L 98.49 40.00
  A 2.75 2.75 0.0 0 0 95.74 42.76
  L 95.75 45.31
  Q 95.75 45.87 95.19 45.87
  L 86.94 45.87
  A 2.94 2.93 -89.9 0 0 84.00 48.81
  L 84.00 63.00
  Q 84.00 63.50 83.50 63.50
  L 42.72 63.50
  A 2.70 2.69 -89.7 0 0 40.03 66.17
  C 39.91 80.45 39.51 95.08 41.81 109.04
  Q 43.66 120.25 47.20 133.65
  Q 48.78 139.61 53.95 141.78
  Q 56.36 142.80 62.64 142.67
  Q 66.96 142.59 71.41 142.62
  Q 72.25 142.62 72.25 143.46
  L 72.25 147.78
  Q 72.25 148.71 71.34 148.56
  C 64.80 147.46 64.70 155.47 71.18 154.33
  Q 72.25 154.14 72.25 155.23
  L 72.25 159.45
  Q 72.25 162.05 74.63 163.09
  Q 75.56 163.50 76.43 162.84
  Q 78.13 161.56 78.13 159.44
  L 78.14 155.25
  Q 78.14 154.12 79.25 154.34
  Q 81.63 154.81 83.11 153.53
  C 84.73 152.14 84.01 149.59 82.21 148.82
  Q 80.83 148.23 79.07 148.55
  Q 78.13 148.72 78.13 147.77
  L 78.13 143.46
  Q 78.14 142.69 78.90 142.66
  Q 83.77 142.49 89.11 142.68
  Q 95.17 142.90 97.82 141.65
  C 102.26 139.55 104.55 135.44 104.53 130.65
  Q 104.47 119.14 104.50 108.02
  Q 104.50 107.50 105.02 107.50
  L 133.31 107.50
  Q 133.88 107.50 133.88 108.06
  L 133.88 174.31
  A 0.57 0.56 -90.0 0 1 133.32 174.88
  L 42.93 174.88
  A 2.93 2.93 0.0 0 0 40.00 177.82
  L 40.01 186.39
  A 0.24 0.24 0.0 0 0 40.25 186.63
  L 101.09 186.62
  Q 103.70 186.62 104.47 189.12
  Q 104.66 189.75 104.42 190.39
  Q 103.63 192.50 101.38 192.50
  L 40.25 192.50
  Q 40.00 192.50 40.00 192.75
  L 40.01 198.19
  Q 40.01 198.37 40.19 198.37
  L 71.40 198.37
  Q 74.15 198.37 75.12 200.95
  Q 75.33 201.50 75.10 202.01
  Q 74.12 204.24 72.74 204.24
  Q 58.22 204.24 40.53 204.27
  Q 40.00 204.27 40.00 204.80
  L 40.00 213.19
  A 2.83 2.83 0.0 0 0 42.83 216.02
  Q 125.34 215.93 203.50 216.05
  Q 208.44 216.06 211.03 214.59
  Q 215.90 211.81 216.01 205.24
  C 216.29 188.11 215.49 173.20 212.04 157.19
  Q 208.80 142.15 206.33 128.71
  Q 202.82 109.58 204.74 89.48
  Q 205.31 83.54 205.99 77.36
  Q 206.45 73.14 205.83 70.73
  C 204.44 65.35 199.84 63.35 194.40 63.43
  Q 182.79 63.61 172.53 63.46
  Q 172.00 63.45 172.00 62.92
  Q 171.99 56.32 172.02 49.33
  Q 172.03 45.75 168.41 45.84
  Q 164.45 45.95 160.83 45.83
  Q 160.21 45.81 160.22 45.19
  C 160.26 42.64 160.39 39.84 156.83 39.96
  C 153.34 40.09 149.80 40.00 146.22 40.01
  Q 145.63 40.01 145.63 40.60
  L 145.62 57.27
  A 0.37 0.36 89.2 0 0 145.99 57.64
  Q 151.59 57.58 156.60 57.66
  Q 160.98 57.73 160.23 52.08
  Q 160.18 51.76 160.51 51.75
  L 165.94 51.75
  Q 166.13 51.75 166.13 51.94"
/>
<path stroke="#808080" vector-effect="non-scaling-stroke" d="
  M 125.13 40.34
  A 0.34 0.34 0.0 0 0 124.79 40.00
  L 116.59 40.00
  A 0.34 0.34 0.0 0 0 116.25 40.34
  L 116.25 57.28
  A 0.34 0.34 0.0 0 0 116.59 57.62
  L 124.79 57.62
  A 0.34 0.34 0.0 0 0 125.13 57.28
  L 125.13 40.34"
/>
<path stroke="#808080" vector-effect="non-scaling-stroke" d="
  M 139.75 40.33
  A 0.32 0.32 0.0 0 0 139.43 40.01
  L 131.19 40.01
  A 0.32 0.32 0.0 0 0 130.87 40.33
  L 130.87 57.31
  A 0.32 0.32 0.0 0 0 131.19 57.63
  L 139.43 57.63
  A 0.32 0.32 0.0 0 0 139.75 57.31
  L 139.75 40.33"
/>
<path stroke="#808080" vector-effect="non-scaling-stroke" d="
  M 71.74 90.60
  Q 66.51 93.27 66.42 98.51
  Q 66.32 104.20 66.38 110.16
  Q 66.43 115.64 71.71 118.52
  Q 72.25 118.82 72.25 119.43
  L 72.25 124.93
  Q 72.25 127.83 75.15 127.97
  Q 75.43 127.99 75.71 127.97
  A 2.57 2.56 88.2 0 0 78.11 125.41
  L 78.12 119.44
  A 1.16 1.14 -12.6 0 1 78.79 118.40
  C 82.70 116.60 84.07 113.34 84.04 108.94
  Q 83.99 103.53 83.90 98.20
  Q 83.81 93.12 78.22 90.28
  Q 78.11 90.22 78.11 90.10
  L 78.13 81.18
  Q 78.13 78.93 75.99 78.27
  Q 75.56 78.14 75.11 78.18
  Q 72.25 78.43 72.25 81.30
  L 72.25 89.76
  Q 72.25 90.34 71.74 90.60"
/>
<path stroke="#808080" vector-effect="non-scaling-stroke" d="
  M 136.7501 83.9507
  A 2.80 2.80 0.0 0 0 133.9550 81.1458
  L 104.4150 81.0942
  A 2.80 2.80 0.0 0 0 101.6102 83.8893
  L 101.6099 84.0493
  A 2.80 2.80 0.0 0 0 104.4050 86.8542
  L 133.9450 86.9058
  A 2.80 2.80 0.0 0 0 136.7498 84.1107
  L 136.7501 83.9507"
/>
<path stroke="#808080" vector-effect="non-scaling-stroke" d="
  M 186.64 113.32
  A 2.92 2.92 0.0 0 0 183.72 110.40
  A 2.92 2.92 0.0 0 0 180.80 113.32
  A 2.92 2.92 0.0 0 0 183.72 116.24
  A 2.92 2.92 0.0 0 0 186.64 113.32"
/>
<path stroke="#808080" vector-effect="non-scaling-stroke" d="
  M 163.18 113.32
  A 2.92 2.92 0.0 0 0 160.26 110.40
  A 2.92 2.92 0.0 0 0 157.34 113.32
  A 2.92 2.92 0.0 0 0 160.26 116.24
  A 2.92 2.92 0.0 0 0 163.18 113.32"
/>
<path stroke="#808080" vector-effect="non-scaling-stroke" d="
  M 174.91 113.34
  A 2.94 2.94 0.0 0 0 171.97 110.40
  A 2.94 2.94 0.0 0 0 169.03 113.34
  A 2.94 2.94 0.0 0 0 171.97 116.28
  A 2.94 2.94 0.0 0 0 174.91 113.34"
/>
<path stroke="#808080" vector-effect="non-scaling-stroke" d="
  M 192.53 145.60
  A 20.53 20.53 0.0 0 0 172.00 125.07
  A 20.53 20.53 0.0 0 0 151.47 145.60
  A 20.53 20.53 0.0 0 0 172.00 166.13
  A 20.53 20.53 0.0 0 0 192.53 145.60"
/>
<path stroke="#808080" vector-effect="non-scaling-stroke" d="
  M 169.07 177.88
  A 2.92 2.92 0.0 0 0 166.15 174.96
  A 2.92 2.92 0.0 0 0 163.23 177.88
  A 2.92 2.92 0.0 0 0 166.15 180.80
  A 2.92 2.92 0.0 0 0 169.07 177.88"
/>
<path stroke="#808080" vector-effect="non-scaling-stroke" d="
  M 180.80 177.84
  A 2.92 2.92 0.0 0 0 177.88 174.92
  A 2.92 2.92 0.0 0 0 174.96 177.84
  A 2.92 2.92 0.0 0 0 177.88 180.76
  A 2.92 2.92 0.0 0 0 180.80 177.84"
/>
<path stroke="#808080" vector-effect="non-scaling-stroke" d="
  M 78.1304 98.5751
  A 2.81 2.81 0.0 0 0 75.3253 95.7602
  L 75.0853 95.7598
  A 2.81 2.81 0.0 0 0 72.2704 98.5649
  L 72.2496 110.4649
  A 2.81 2.81 0.0 0 0 75.0547 113.2798
  L 75.2947 113.2802
  A 2.81 2.81 0.0 0 0 78.1096 110.4751
  L 78.1304 98.5751"
/>
<path stroke="#808080" vector-effect="non-scaling-stroke" d="
  M 186.66 145.61
  A 14.66 14.66 0.0 0 0 172.00 130.95
  A 14.66 14.66 0.0 0 0 157.34 145.61
  A 14.66 14.66 0.0 0 0 172.00 160.27
  A 14.66 14.66 0.0 0 0 186.66 145.61"
/>
<path stroke="#808080" vector-effect="non-scaling-stroke" d="
  M 171.51 141.01
  L 168.38 137.87
  Q 166.57 136.05 164.36 137.37
  Q 164.14 137.50 163.99 137.70
  Q 162.36 139.88 164.06 141.67
  Q 165.64 143.34 167.47 145.06
  Q 167.97 145.52 167.49 146.00
  L 164.44 149.05
  Q 162.48 150.99 163.90 153.36
  Q 164.28 154.01 165.17 154.14
  Q 167.19 154.45 168.62 153.01
  L 171.50 150.13
  Q 172.00 149.63 172.50 150.13
  L 175.65 153.28
  Q 177.27 154.90 179.38 154.02
  Q 179.82 153.83 180.09 153.46
  Q 181.69 151.18 179.72 149.21
  L 176.53 146.01
  Q 176.07 145.55 176.53 145.09
  L 179.77 141.86
  Q 181.33 140.30 180.39 138.30
  Q 180.13 137.73 179.61 137.41
  Q 177.41 136.06 175.59 137.89
  L 172.51 141.00
  Q 172.01 141.51 171.51 141.01"
/>
</g>
<path fill="#ffffff" d="
  M 121.88 0.00
  L 134.24 0.00
  Q 139.12 0.58 143.98 1.20
  Q 175.59 5.19 200.54 22.53
  C 230.58 43.41 251.05 76.37 255.04 112.79
  Q 255.54 117.34 256.00 121.88
  L 256.00 133.23
  Q 253.59 178.00 225.95 210.44
  C 198.91 242.18 158.98 258.97 117.30 255.51
  C 91.90 253.41 66.89 243.59 47.14 227.22
  Q 11.74 197.88 2.41 152.79
  Q 1.50 148.39 0.96 143.29
  Q 0.45 138.59 0.00 133.87
  L 0.00 122.03
  Q 1.34 99.82 8.80 81.24
  Q 23.28 45.17 54.03 23.54
  Q 81.06 4.53 114.02 0.94
  Q 117.96 0.51 121.88 0.00
  Z
  M 166.13 51.94
  L 166.14 63.15
  A 0.36 0.35 0.0 0 1 165.78 63.50
  L 90.56 63.50
  A 0.69 0.68 90.0 0 1 89.88 62.81
  L 89.87 52.57
  Q 89.87 51.75 90.69 51.75
  L 95.24 51.75
  Q 95.86 51.75 95.79 52.37
  C 95.48 54.96 95.74 57.65 99.12 57.63
  Q 104.48 57.60 109.77 57.65
  Q 110.37 57.65 110.37 57.05
  L 110.37 40.56
  Q 110.38 40.00 109.81 40.00
  L 98.49 40.00
  A 2.75 2.75 0.0 0 0 95.74 42.76
  L 95.75 45.31
  Q 95.75 45.87 95.19 45.87
  L 86.94 45.87
  A 2.94 2.93 -89.9 0 0 84.00 48.81
  L 84.00 63.00
  Q 84.00 63.50 83.50 63.50
  L 42.72 63.50
  A 2.70 2.69 -89.7 0 0 40.03 66.17
  C 39.91 80.45 39.51 95.08 41.81 109.04
  Q 43.66 120.25 47.20 133.65
  Q 48.78 139.61 53.95 141.78
  Q 56.36 142.80 62.64 142.67
  Q 66.96 142.59 71.41 142.62
  Q 72.25 142.62 72.25 143.46
  L 72.25 147.78
  Q 72.25 148.71 71.34 148.56
  C 64.80 147.46 64.70 155.47 71.18 154.33
  Q 72.25 154.14 72.25 155.23
  L 72.25 159.45
  Q 72.25 162.05 74.63 163.09
  Q 75.56 163.50 76.43 162.84
  Q 78.13 161.56 78.13 159.44
  L 78.14 155.25
  Q 78.14 154.12 79.25 154.34
  Q 81.63 154.81 83.11 153.53
  C 84.73 152.14 84.01 149.59 82.21 148.82
  Q 80.83 148.23 79.07 148.55
  Q 78.13 148.72 78.13 147.77
  L 78.13 143.46
  Q 78.14 142.69 78.90 142.66
  Q 83.77 142.49 89.11 142.68
  Q 95.17 142.90 97.82 141.65
  C 102.26 139.55 104.55 135.44 104.53 130.65
  Q 104.47 119.14 104.50 108.02
  Q 104.50 107.50 105.02 107.50
  L 133.31 107.50
  Q 133.88 107.50 133.88 108.06
  L 133.88 174.31
  A 0.57 0.56 -90.0 0 1 133.32 174.88
  L 42.93 174.88
  A 2.93 2.93 0.0 0 0 40.00 177.82
  L 40.01 186.39
  A 0.24 0.24 0.0 0 0 40.25 186.63
  L 101.09 186.62
  Q 103.70 186.62 104.47 189.12
  Q 104.66 189.75 104.42 190.39
  Q 103.63 192.50 101.38 192.50
  L 40.25 192.50
  Q 40.00 192.50 40.00 192.75
  L 40.01 198.19
  Q 40.01 198.37 40.19 198.37
  L 71.40 198.37
  Q 74.15 198.37 75.12 200.95
  Q 75.33 201.50 75.10 202.01
  Q 74.12 204.24 72.74 204.24
  Q 58.22 204.24 40.53 204.27
  Q 40.00 204.27 40.00 204.80
  L 40.00 213.19
  A 2.83 2.83 0.0 0 0 42.83 216.02
  Q 125.34 215.93 203.50 216.05
  Q 208.44 216.06 211.03 214.59
  Q 215.90 211.81 216.01 205.24
  C 216.29 188.11 215.49 173.20 212.04 157.19
  Q 208.80 142.15 206.33 128.71
  Q 202.82 109.58 204.74 89.48
  Q 205.31 83.54 205.99 77.36
  Q 206.45 73.14 205.83 70.73
  C 204.44 65.35 199.84 63.35 194.40 63.43
  Q 182.79 63.61 172.53 63.46
  Q 172.00 63.45 172.00 62.92
  Q 171.99 56.32 172.02 49.33
  Q 172.03 45.75 168.41 45.84
  Q 164.45 45.95 160.83 45.83
  Q 160.21 45.81 160.22 45.19
  C 160.26 42.64 160.39 39.84 156.83 39.96
  C 153.34 40.09 149.80 40.00 146.22 40.01
  Q 145.63 40.01 145.63 40.60
  L 145.62 57.27
  A 0.37 0.36 89.2 0 0 145.99 57.64
  Q 151.59 57.58 156.60 57.66
  Q 160.98 57.73 160.23 52.08
  Q 160.18 51.76 160.51 51.75
  L 165.94 51.75
  Q 166.13 51.75 166.13 51.94
  Z
  M 125.13 40.34
  A 0.34 0.34 0.0 0 0 124.79 40.00
  L 116.59 40.00
  A 0.34 0.34 0.0 0 0 116.25 40.34
  L 116.25 57.28
  A 0.34 0.34 0.0 0 0 116.59 57.62
  L 124.79 57.62
  A 0.34 0.34 0.0 0 0 125.13 57.28
  L 125.13 40.34
  Z
  M 139.75 40.33
  A 0.32 0.32 0.0 0 0 139.43 40.01
  L 131.19 40.01
  A 0.32 0.32 0.0 0 0 130.87 40.33
  L 130.87 57.31
  A 0.32 0.32 0.0 0 0 131.19 57.63
  L 139.43 57.63
  A 0.32 0.32 0.0 0 0 139.75 57.31
  L 139.75 40.33
  Z"
/>
<path fill="#000000" d="
  M 166.13 51.94
  Q 166.13 51.75 165.94 51.75
  L 160.51 51.75
  Q 160.18 51.76 160.23 52.08
  Q 160.98 57.73 156.60 57.66
  Q 151.59 57.58 145.99 57.64
  A 0.37 0.36 89.2 0 1 145.62 57.27
  L 145.63 40.60
  Q 145.63 40.01 146.22 40.01
  C 149.80 40.00 153.34 40.09 156.83 39.96
  C 160.39 39.84 160.26 42.64 160.22 45.19
  Q 160.21 45.81 160.83 45.83
  Q 164.45 45.95 168.41 45.84
  Q 172.03 45.75 172.02 49.33
  Q 171.99 56.32 172.00 62.92
  Q 172.00 63.45 172.53 63.46
  Q 182.79 63.61 194.40 63.43
  C 199.84 63.35 204.44 65.35 205.83 70.73
  Q 206.45 73.14 205.99 77.36
  Q 205.31 83.54 204.74 89.48
  Q 202.82 109.58 206.33 128.71
  Q 208.80 142.15 212.04 157.19
  C 215.49 173.20 216.29 188.11 216.01 205.24
  Q 215.90 211.81 211.03 214.59
  Q 208.44 216.06 203.50 216.05
  Q 125.34 215.93 42.83 216.02
  A 2.83 2.83 0.0 0 1 40.00 213.19
  L 40.00 204.80
  Q 40.00 204.27 40.53 204.27
  Q 58.22 204.24 72.74 204.24
  Q 74.12 204.24 75.10 202.01
  Q 75.33 201.50 75.12 200.95
  Q 74.15 198.37 71.40 198.37
  L 40.19 198.37
  Q 40.01 198.37 40.01 198.19
  L 40.00 192.75
  Q 40.00 192.50 40.25 192.50
  L 101.38 192.50
  Q 103.63 192.50 104.42 190.39
  Q 104.66 189.75 104.47 189.12
  Q 103.70 186.62 101.09 186.62
  L 40.25 186.63
  A 0.24 0.24 0.0 0 1 40.01 186.39
  L 40.00 177.82
  A 2.93 2.93 0.0 0 1 42.93 174.88
  L 133.32 174.88
  A 0.57 0.56 90.0 0 0 133.88 174.31
  L 133.88 108.06
  Q 133.88 107.50 133.31 107.50
  L 105.02 107.50
  Q 104.50 107.50 104.50 108.02
  Q 104.47 119.14 104.53 130.65
  C 104.55 135.44 102.26 139.55 97.82 141.65
  Q 95.17 142.90 89.11 142.68
  Q 83.77 142.49 78.90 142.66
  Q 78.14 142.69 78.13 143.46
  L 78.13 147.77
  Q 78.13 148.72 79.07 148.55
  Q 80.83 148.23 82.21 148.82
  C 84.01 149.59 84.73 152.14 83.11 153.53
  Q 81.63 154.81 79.25 154.34
  Q 78.14 154.12 78.14 155.25
  L 78.13 159.44
  Q 78.13 161.56 76.43 162.84
  Q 75.56 163.50 74.63 163.09
  Q 72.25 162.05 72.25 159.45
  L 72.25 155.23
  Q 72.25 154.14 71.18 154.33
  C 64.70 155.47 64.80 147.46 71.34 148.56
  Q 72.25 148.71 72.25 147.78
  L 72.25 143.46
  Q 72.25 142.62 71.41 142.62
  Q 66.96 142.59 62.64 142.67
  Q 56.36 142.80 53.95 141.78
  Q 48.78 139.61 47.20 133.65
  Q 43.66 120.25 41.81 109.04
  C 39.51 95.08 39.91 80.45 40.03 66.17
  A 2.70 2.69 -89.7 0 1 42.72 63.50
  L 83.50 63.50
  Q 84.00 63.50 84.00 63.00
  L 84.00 48.81
  A 2.94 2.93 -89.9 0 1 86.94 45.87
  L 95.19 45.87
  Q 95.75 45.87 95.75 45.31
  L 95.74 42.76
  A 2.75 2.75 0.0 0 1 98.49 40.00
  L 109.81 40.00
  Q 110.38 40.00 110.37 40.56
  L 110.37 57.05
  Q 110.37 57.65 109.77 57.65
  Q 104.48 57.60 99.12 57.63
  C 95.74 57.65 95.48 54.96 95.79 52.37
  Q 95.86 51.75 95.24 51.75
  L 90.69 51.75
  Q 89.87 51.75 89.87 52.57
  L 89.88 62.81
  A 0.69 0.68 90.0 0 0 90.56 63.50
  L 165.78 63.50
  A 0.36 0.35 0.0 0 0 166.14 63.15
  L 166.13 51.94
  Z
  M 71.74 90.60
  Q 66.51 93.27 66.42 98.51
  Q 66.32 104.20 66.38 110.16
  Q 66.43 115.64 71.71 118.52
  Q 72.25 118.82 72.25 119.43
  L 72.25 124.93
  Q 72.25 127.83 75.15 127.97
  Q 75.43 127.99 75.71 127.97
  A 2.57 2.56 88.2 0 0 78.11 125.41
  L 78.12 119.44
  A 1.16 1.14 -12.6 0 1 78.79 118.40
  C 82.70 116.60 84.07 113.34 84.04 108.94
  Q 83.99 103.53 83.90 98.20
  Q 83.81 93.12 78.22 90.28
  Q 78.11 90.22 78.11 90.10
  L 78.13 81.18
  Q 78.13 78.93 75.99 78.27
  Q 75.56 78.14 75.11 78.18
  Q 72.25 78.43 72.25 81.30
  L 72.25 89.76
  Q 72.25 90.34 71.74 90.60
  Z
  M 136.7501 83.9507
  A 2.80 2.80 0.0 0 0 133.9550 81.1458
  L 104.4150 81.0942
  A 2.80 2.80 0.0 0 0 101.6102 83.8893
  L 101.6099 84.0493
  A 2.80 2.80 0.0 0 0 104.4050 86.8542
  L 133.9450 86.9058
  A 2.80 2.80 0.0 0 0 136.7498 84.1107
  L 136.7501 83.9507
  Z
  M 186.64 113.32
  A 2.92 2.92 0.0 0 0 183.72 110.40
  A 2.92 2.92 0.0 0 0 180.80 113.32
  A 2.92 2.92 0.0 0 0 183.72 116.24
  A 2.92 2.92 0.0 0 0 186.64 113.32
  Z
  M 163.18 113.32
  A 2.92 2.92 0.0 0 0 160.26 110.40
  A 2.92 2.92 0.0 0 0 157.34 113.32
  A 2.92 2.92 0.0 0 0 160.26 116.24
  A 2.92 2.92 0.0 0 0 163.18 113.32
  Z
  M 174.91 113.34
  A 2.94 2.94 0.0 0 0 171.97 110.40
  A 2.94 2.94 0.0 0 0 169.03 113.34
  A 2.94 2.94 0.0 0 0 171.97 116.28
  A 2.94 2.94 0.0 0 0 174.91 113.34
  Z
  M 192.53 145.60
  A 20.53 20.53 0.0 0 0 172.00 125.07
  A 20.53 20.53 0.0 0 0 151.47 145.60
  A 20.53 20.53 0.0 0 0 172.00 166.13
  A 20.53 20.53 0.0 0 0 192.53 145.60
  Z
  M 169.07 177.88
  A 2.92 2.92 0.0 0 0 166.15 174.96
  A 2.92 2.92 0.0 0 0 163.23 177.88
  A 2.92 2.92 0.0 0 0 166.15 180.80
  A 2.92 2.92 0.0 0 0 169.07 177.88
  Z
  M 180.80 177.84
  A 2.92 2.92 0.0 0 0 177.88 174.92
  A 2.92 2.92 0.0 0 0 174.96 177.84
  A 2.92 2.92 0.0 0 0 177.88 180.76
  A 2.92 2.92 0.0 0 0 180.80 177.84
  Z"
/>
<rect fill="#000000" x="116.25" y="40.00" width="8.88" height="17.62" rx="0.34"/>
<rect fill="#000000" x="130.87" y="40.01" width="8.88" height="17.62" rx="0.32"/>
<path fill="#ffffff" d="
  M 72.25 89.76
  L 72.25 81.30
  Q 72.25 78.43 75.11 78.18
  Q 75.56 78.14 75.99 78.27
  Q 78.13 78.93 78.13 81.18
  L 78.11 90.10
  Q 78.11 90.22 78.22 90.28
  Q 83.81 93.12 83.90 98.20
  Q 83.99 103.53 84.04 108.94
  C 84.07 113.34 82.70 116.60 78.79 118.40
  A 1.16 1.14 -12.6 0 0 78.12 119.44
  L 78.11 125.41
  A 2.57 2.56 88.2 0 1 75.71 127.97
  Q 75.43 127.99 75.15 127.97
  Q 72.25 127.83 72.25 124.93
  L 72.25 119.43
  Q 72.25 118.82 71.71 118.52
  Q 66.43 115.64 66.38 110.16
  Q 66.32 104.20 66.42 98.51
  Q 66.51 93.27 71.74 90.60
  Q 72.25 90.34 72.25 89.76
  Z
  M 78.1304 98.5751
  A 2.81 2.81 0.0 0 0 75.3253 95.7602
  L 75.0853 95.7598
  A 2.81 2.81 0.0 0 0 72.2704 98.5649
  L 72.2496 110.4649
  A 2.81 2.81 0.0 0 0 75.0547 113.2798
  L 75.2947 113.2802
  A 2.81 2.81 0.0 0 0 78.1096 110.4751
  L 78.1304 98.5751
  Z"
/>
<rect fill="#ffffff" x="-17.57" y="-2.88" transform="translate(119.18,84.00) rotate(0.1)" width="35.14" height="5.76" rx="2.80"/>
<rect fill="#000000" x="-2.93" y="-8.76" transform="translate(75.19,104.52) rotate(0.1)" width="5.86" height="17.52" rx="2.81"/>
<circle fill="#ffffff" cx="183.72" cy="113.32" r="2.92"/>
<circle fill="#ffffff" cx="160.26" cy="113.32" r="2.92"/>
<circle fill="#ffffff" cx="171.97" cy="113.34" r="2.94"/>
<path fill="#ffffff" d="
  M 192.53 145.60
  A 20.53 20.53 0.0 0 1 172.00 166.13
  A 20.53 20.53 0.0 0 1 151.47 145.60
  A 20.53 20.53 0.0 0 1 172.00 125.07
  A 20.53 20.53 0.0 0 1 192.53 145.60
  Z
  M 186.66 145.61
  A 14.66 14.66 0.0 0 0 172.00 130.95
  A 14.66 14.66 0.0 0 0 157.34 145.61
  A 14.66 14.66 0.0 0 0 172.00 160.27
  A 14.66 14.66 0.0 0 0 186.66 145.61
  Z"
/>
<path fill="#000000" d="
  M 186.66 145.61
  A 14.66 14.66 0.0 0 1 172.00 160.27
  A 14.66 14.66 0.0 0 1 157.34 145.61
  A 14.66 14.66 0.0 0 1 172.00 130.95
  A 14.66 14.66 0.0 0 1 186.66 145.61
  Z
  M 171.51 141.01
  L 168.38 137.87
  Q 166.57 136.05 164.36 137.37
  Q 164.14 137.50 163.99 137.70
  Q 162.36 139.88 164.06 141.67
  Q 165.64 143.34 167.47 145.06
  Q 167.97 145.52 167.49 146.00
  L 164.44 149.05
  Q 162.48 150.99 163.90 153.36
  Q 164.28 154.01 165.17 154.14
  Q 167.19 154.45 168.62 153.01
  L 171.50 150.13
  Q 172.00 149.63 172.50 150.13
  L 175.65 153.28
  Q 177.27 154.90 179.38 154.02
  Q 179.82 153.83 180.09 153.46
  Q 181.69 151.18 179.72 149.21
  L 176.53 146.01
  Q 176.07 145.55 176.53 145.09
  L 179.77 141.86
  Q 181.33 140.30 180.39 138.30
  Q 180.13 137.73 179.61 137.41
  Q 177.41 136.06 175.59 137.89
  L 172.51 141.00
  Q 172.01 141.51 171.51 141.01
  Z"
/>
<path fill="#ffffff" d="
  M 172.51 141.00
  L 175.59 137.89
  Q 177.41 136.06 179.61 137.41
  Q 180.13 137.73 180.39 138.30
  Q 181.33 140.30 179.77 141.86
  L 176.53 145.09
  Q 176.07 145.55 176.53 146.01
  L 179.72 149.21
  Q 181.69 151.18 180.09 153.46
  Q 179.82 153.83 179.38 154.02
  Q 177.27 154.90 175.65 153.28
  L 172.50 150.13
  Q 172.00 149.63 171.50 150.13
  L 168.62 153.01
  Q 167.19 154.45 165.17 154.14
  Q 164.28 154.01 163.90 153.36
  Q 162.48 150.99 164.44 149.05
  L 167.49 146.00
  Q 167.97 145.52 167.47 145.06
  Q 165.64 143.34 164.06 141.67
  Q 162.36 139.88 163.99 137.70
  Q 164.14 137.50 164.36 137.37
  Q 166.57 136.05 168.38 137.87
  L 171.51 141.01
  Q 172.01 141.51 172.51 141.00
  Z"
/>
<circle fill="#ffffff" cx="166.15" cy="177.88" r="2.92"/>
<circle fill="#ffffff" cx="177.88" cy="177.84" r="2.92"/>
</svg>
