<?xml version="1.0" encoding="UTF-8" standalone="no"?>
<!DOCTYPE svg PUBLIC "-//W3C//DTD SVG 1.1//EN" "http://www.w3.org/Graphics/SVG/1.1/DTD/svg11.dtd">
<svg xmlns="http://www.w3.org/2000/svg" version="1.1" viewBox="0.00 0.00 256.00 360.00">
<g stroke-width="2.00" fill="none" stroke-linecap="butt">
<path stroke="#808080" vector-effect="non-scaling-stroke" d="
  M 78.3474 65.0186
  A 14.51 13.92 90.8 0 0 92.4686 50.7044
  A 14.51 13.92 90.8 0 0 78.7526 36.0014
  A 14.51 13.92 90.8 0 0 64.6314 50.3156
  A 14.51 13.92 90.8 0 0 78.3474 65.0186"
/>
<path stroke="#808080" vector-effect="non-scaling-stroke" d="
  M 179.84 78.03
  C 174.43 90.59 162.17 97.15 148.90 100.64
  A 0.97 0.95 2.3 0 0 148.25 101.23
  Q 148.01 101.85 148.31 102.35
  A 0.91 0.91 0.0 0 0 149.26 102.77
  Q 157.40 101.17 161.79 99.56
  Q 188.96 89.57 189.98 59.50
  Q 190.13 54.95 189.05 51.72
  Q 188.30 49.50 185.50 49.27
  Q 184.90 49.22 184.31 49.53
  Q 181.12 51.24 181.87 54.78
  Q 184.51 67.20 179.84 78.03"
/>
<path stroke="#808080" vector-effect="non-scaling-stroke" d="
  M 168.17 71.50
  L 175.30 71.50
  A 0.64 0.63 -83.8 0 0 175.92 71.00
  Q 177.05 66.10 176.70 60.68
  Q 176.67 60.12 176.12 60.13
  Q 170.18 60.14 163.32 60.09
  C 157.97 60.06 157.40 63.88 156.60 67.97
  Q 156.48 68.58 157.07 68.76
  C 165.87 71.55 165.47 81.58 162.07 88.11
  Q 161.43 89.33 162.60 88.61
  L 164.27 87.59
  Q 164.75 87.30 164.85 86.75
  L 167.49 72.08
  Q 167.59 71.50 168.17 71.50"
/>
<path stroke="#808080" vector-effect="non-scaling-stroke" d="
  M 197.74 72.16
  C 197.85 74.95 196.77 79.53 201.25 79.59
  Q 205.35 79.65 210.38 79.62
  Q 211.00 79.62 211.00 79.00
  L 211.00 60.68
  Q 211.00 60.12 210.43 60.12
  L 196.49 60.12
  Q 195.82 60.12 195.83 60.80
  Q 195.89 65.81 194.64 70.94
  Q 194.51 71.49 195.08 71.49
  L 197.06 71.50
  Q 197.72 71.51 197.74 72.16"
/>
<path stroke="#808080" vector-effect="non-scaling-stroke" d="
  M 67.10 85.27
  Q 72.34 97.27 78.11 110.38
  Q 79.64 113.87 83.66 114.53
  Q 94.14 116.24 107.52 118.57
  C 112.03 119.35 116.18 118.58 117.20 113.34
  C 118.13 108.62 115.14 105.47 110.69 104.77
  Q 99.61 103.01 89.29 101.24
  Q 88.82 101.16 88.63 100.72
  L 79.25 79.29
  Q 78.51 77.59 79.65 79.04
  Q 85.21 86.05 91.57 94.38
  C 92.57 95.68 94.19 95.63 95.65 95.80
  Q 96.30 95.88 96.29 95.22
  Q 96.17 88.27 96.30 80.00
  C 96.41 73.40 92.09 69.11 85.46 69.30
  Q 78.56 69.50 71.94 69.31
  C 67.61 69.19 64.07 70.34 61.92 74.43
  Q 60.72 76.70 60.73 79.20
  Q 60.81 100.59 60.72 121.62
  Q 60.72 123.48 61.87 125.37
  C 64.54 129.72 68.62 131.71 73.80 131.84
  Q 84.02 132.10 90.88 122.84
  A 0.41 0.40 -66.0 0 0 90.64 122.20
  Q 87.29 121.56 83.72 121.07
  C 77.02 120.14 72.66 116.45 71.40 109.76
  Q 69.25 98.34 66.81 85.36
  Q 66.56 84.04 67.10 85.27"
/>
<path stroke="#808080" vector-effect="non-scaling-stroke" d="
  M 150.61 79.55
  C 152.20 84.98 149.65 89.51 145.10 92.49
  A 0.99 0.95 84.3 0 0 144.74 92.95
  Q 144.38 93.97 145.56 94.32
  A 1.07 1.07 0.0 0 0 146.20 94.32
  C 153.44 92.24 158.14 86.31 158.32 78.84
  C 158.49 72.24 148.86 73.61 150.61 79.55"
/>
<path stroke="#808080" vector-effect="non-scaling-stroke" d="
  M 125.55 113.04
  Q 124.89 114.96 124.55 117.01
  C 123.75 121.80 130.97 123.52 132.36 118.25
  Q 133.48 113.96 134.51 109.92
  Q 134.66 109.33 135.27 109.25
  Q 137.11 109.02 138.72 108.32
  Q 141.66 107.04 141.09 103.72
  Q 141.04 103.42 140.91 103.14
  Q 139.34 99.93 135.90 100.94
  L 122.46 104.87
  A 0.40 0.40 0.0 0 0 122.22 105.44
  Q 123.90 108.70 123.82 112.09
  Q 123.81 112.80 124.49 112.59
  L 124.97 112.45
  Q 125.84 112.18 125.55 113.04"
/>
<path stroke="#808080" vector-effect="non-scaling-stroke" d="
  M 189.04 175.00
  C 188.90 178.31 187.89 183.56 192.97 183.59
  Q 201.40 183.65 210.38 183.62
  Q 211.00 183.62 211.00 183.00
  L 211.00 165.24
  Q 211.00 164.57 210.34 164.58
  Q 203.61 164.68 196.72 164.61
  C 190.50 164.54 190.60 155.99 196.87 155.99
  Q 203.78 156.00 210.71 156.00
  Q 211.00 156.00 211.00 155.71
  L 211.00 148.23
  A 0.37 0.37 0.0 0 0 210.63 147.86
  Q 200.62 147.91 190.05 147.85
  Q 185.35 147.83 185.34 143.65
  Q 185.34 143.51 185.34 143.48
  Q 185.33 139.29 190.16 139.27
  Q 200.25 139.22 210.46 139.26
  Q 211.00 139.27 211.00 138.72
  L 211.00 111.31
  A 0.44 0.43 0.0 0 0 210.56 110.88
  L 179.73 110.87
  A 0.30 0.30 0.0 0 0 179.50 111.37
  C 182.58 114.95 185.04 120.39 183.50 125.09
  C 180.28 134.96 166.29 134.29 164.38 124.09
  C 164.10 122.59 164.36 120.82 163.47 119.49
  C 162.59 118.19 160.97 117.57 159.52 117.10
  C 155.93 115.92 154.09 112.18 154.93 108.63
  Q 155.13 107.77 154.26 107.92
  L 150.17 108.62
  Q 149.36 108.76 149.21 109.58
  L 148.62 112.84
  Q 148.52 113.35 148.10 113.63
  Q 139.25 119.58 139.24 130.17
  Q 139.22 148.87 139.30 167.07
  Q 139.32 172.29 144.52 173.99
  C 146.13 174.51 148.24 174.19 149.97 174.24
  Q 150.46 174.26 150.47 174.75
  Q 150.63 179.28 150.43 183.92
  Q 150.21 189.00 151.70 192.22
  C 156.55 202.69 171.79 202.54 176.30 191.81
  Q 177.48 189.02 177.41 185.32
  Q 177.31 179.98 177.39 174.85
  Q 177.40 174.25 178.00 174.25
  L 188.32 174.25
  Q 189.07 174.25 189.04 175.00"
/>
<path stroke="#808080" vector-effect="non-scaling-stroke" d="
  M 161.38 111.39
  C 165.91 112.62 170.29 116.50 170.08 121.56
  C 169.79 128.50 179.63 126.79 177.89 121.01
  Q 174.48 109.69 161.90 109.26
  Q 161.24 109.24 160.84 109.72
  A 1.05 1.05 0.0 0 0 161.38 111.39"
/>
<path stroke="#808080" vector-effect="non-scaling-stroke" d="
  M 98.35 123.71
  C 92.06 133.76 83.70 139.53 71.94 138.40
  Q 61.37 137.38 56.09 128.77
  Q 55.07 127.11 53.42 128.14
  L 50.02 130.29
  Q 48.40 131.31 49.39 132.94
  Q 54.68 141.65 63.06 144.49
  C 81.82 150.84 97.82 141.92 106.55 125.09
  Q 106.66 124.87 106.41 124.83
  L 98.74 123.53
  Q 98.48 123.49 98.35 123.71"
/>
<path stroke="#808080" vector-effect="non-scaling-stroke" d="
  M 98.89 145.03
  C 94.96 148.12 90.32 150.38 85.55 151.74
  Q 84.92 151.92 84.80 152.56
  Q 81.00 171.76 77.44 188.80
  C 76.78 191.98 76.66 194.97 78.98 197.42
  C 82.39 201.02 88.24 200.82 91.10 196.77
  Q 92.24 195.16 93.11 190.74
  Q 96.59 173.17 100.42 154.87
  Q 100.92 152.50 99.51 145.26
  Q 99.39 144.64 98.89 145.03"
/>
<path stroke="#808080" vector-effect="non-scaling-stroke" d="
  M 51.62 185.94
  C 50.80 187.99 49.60 190.46 49.74 192.56
  C 50.33 201.21 61.85 202.75 65.01 194.74
  Q 71.83 177.46 78.59 160.43
  Q 79.90 157.13 79.06 153.49
  Q 78.93 152.96 78.38 153.01
  Q 70.98 153.73 63.77 151.77
  Q 63.11 151.58 63.18 152.27
  L 63.52 155.22
  Q 63.58 155.74 63.38 156.23
  Q 57.43 171.38 51.62 185.94"
/>
<path stroke="#808080" vector-effect="non-scaling-stroke" d="
  M 175.70 143.05
  A 12.11 12.11 0.0 0 0 163.59 130.94
  A 12.11 12.11 0.0 0 0 151.48 143.05
  A 12.11 12.11 0.0 0 0 163.59 155.16
  A 12.11 12.11 0.0 0 0 175.70 143.05"
/>
</g>
<path fill="#ffffff" d="
  M 121.88 0.00
  L 134.24 0.00
  Q 139.12 0.58 143.98 1.20
  Q 175.58 5.19 200.60 22.57
  C 230.61 43.42 251.06 76.44 255.04 112.79
  Q 255.54 117.33 256.00 121.88
  L 256.00 133.23
  Q 253.53 178.70 225.15 211.38
  Q 202.83 237.07 171.17 248.48
  C 128.14 263.97 79.02 255.11 44.37 224.83
  Q 3.91 189.46 0.00 133.88
  L 0.00 122.01
  Q 0.40 118.59 0.70 115.15
  Q 1.07 110.90 1.50 108.32
  C 7.39 72.98 26.15 42.93 55.49 22.54
  Q 81.31 4.60 114.02 0.96
  Q 117.96 0.52 121.88 0.00
  Z
  M 78.3474 65.0186
  A 14.51 13.92 90.8 0 0 92.4686 50.7044
  A 14.51 13.92 90.8 0 0 78.7526 36.0014
  A 14.51 13.92 90.8 0 0 64.6314 50.3156
  A 14.51 13.92 90.8 0 0 78.3474 65.0186
  Z
  M 179.84 78.03
  C 174.43 90.59 162.17 97.15 148.90 100.64
  A 0.97 0.95 2.3 0 0 148.25 101.23
  Q 148.01 101.85 148.31 102.35
  A 0.91 0.91 0.0 0 0 149.26 102.77
  Q 157.40 101.17 161.79 99.56
  Q 188.96 89.57 189.98 59.50
  Q 190.13 54.95 189.05 51.72
  Q 188.30 49.50 185.50 49.27
  Q 184.90 49.22 184.31 49.53
  Q 181.12 51.24 181.87 54.78
  Q 184.51 67.20 179.84 78.03
  Z
  M 168.17 71.50
  L 175.30 71.50
  A 0.64 0.63 -83.8 0 0 175.92 71.00
  Q 177.05 66.10 176.70 60.68
  Q 176.67 60.12 176.12 60.13
  Q 170.18 60.14 163.32 60.09
  C 157.97 60.06 157.40 63.88 156.60 67.97
  Q 156.48 68.58 157.07 68.76
  C 165.87 71.55 165.47 81.58 162.07 88.11
  Q 161.43 89.33 162.60 88.61
  L 164.27 87.59
  Q 164.75 87.30 164.85 86.75
  L 167.49 72.08
  Q 167.59 71.50 168.17 71.50
  Z
  M 197.74 72.16
  C 197.85 74.95 196.77 79.53 201.25 79.59
  Q 205.35 79.65 210.38 79.62
  Q 211.00 79.62 211.00 79.00
  L 211.00 60.68
  Q 211.00 60.12 210.43 60.12
  L 196.49 60.12
  Q 195.82 60.12 195.83 60.80
  Q 195.89 65.81 194.64 70.94
  Q 194.51 71.49 195.08 71.49
  L 197.06 71.50
  Q 197.72 71.51 197.74 72.16
  Z
  M 67.10 85.27
  Q 72.34 97.27 78.11 110.38
  Q 79.64 113.87 83.66 114.53
  Q 94.14 116.24 107.52 118.57
  C 112.03 119.35 116.18 118.58 117.20 113.34
  C 118.13 108.62 115.14 105.47 110.69 104.77
  Q 99.61 103.01 89.29 101.24
  Q 88.82 101.16 88.63 100.72
  L 79.25 79.29
  Q 78.51 77.59 79.65 79.04
  Q 85.21 86.05 91.57 94.38
  C 92.57 95.68 94.19 95.63 95.65 95.80
  Q 96.30 95.88 96.29 95.22
  Q 96.17 88.27 96.30 80.00
  C 96.41 73.40 92.09 69.11 85.46 69.30
  Q 78.56 69.50 71.94 69.31
  C 67.61 69.19 64.07 70.34 61.92 74.43
  Q 60.72 76.70 60.73 79.20
  Q 60.81 100.59 60.72 121.62
  Q 60.72 123.48 61.87 125.37
  C 64.54 129.72 68.62 131.71 73.80 131.84
  Q 84.02 132.10 90.88 122.84
  A 0.41 0.40 -66.0 0 0 90.64 122.20
  Q 87.29 121.56 83.72 121.07
  C 77.02 120.14 72.66 116.45 71.40 109.76
  Q 69.25 98.34 66.81 85.36
  Q 66.56 84.04 67.10 85.27
  Z
  M 150.61 79.55
  C 152.20 84.98 149.65 89.51 145.10 92.49
  A 0.99 0.95 84.3 0 0 144.74 92.95
  Q 144.38 93.97 145.56 94.32
  A 1.07 1.07 0.0 0 0 146.20 94.32
  C 153.44 92.24 158.14 86.31 158.32 78.84
  C 158.49 72.24 148.86 73.61 150.61 79.55
  Z
  M 125.55 113.04
  Q 124.89 114.96 124.55 117.01
  C 123.75 121.80 130.97 123.52 132.36 118.25
  Q 133.48 113.96 134.51 109.92
  Q 134.66 109.33 135.27 109.25
  Q 137.11 109.02 138.72 108.32
  Q 141.66 107.04 141.09 103.72
  Q 141.04 103.42 140.91 103.14
  Q 139.34 99.93 135.90 100.94
  L 122.46 104.87
  A 0.40 0.40 0.0 0 0 122.22 105.44
  Q 123.90 108.70 123.82 112.09
  Q 123.81 112.80 124.49 112.59
  L 124.97 112.45
  Q 125.84 112.18 125.55 113.04
  Z
  M 189.04 175.00
  C 188.90 178.31 187.89 183.56 192.97 183.59
  Q 201.40 183.65 210.38 183.62
  Q 211.00 183.62 211.00 183.00
  L 211.00 165.24
  Q 211.00 164.57 210.34 164.58
  Q 203.61 164.68 196.72 164.61
  C 190.50 164.54 190.60 155.99 196.87 155.99
  Q 203.78 156.00 210.71 156.00
  Q 211.00 156.00 211.00 155.71
  L 211.00 148.23
  A 0.37 0.37 0.0 0 0 210.63 147.86
  Q 200.62 147.91 190.05 147.85
  Q 185.35 147.83 185.34 143.65
  Q 185.34 143.51 185.34 143.48
  Q 185.33 139.29 190.16 139.27
  Q 200.25 139.22 210.46 139.26
  Q 211.00 139.27 211.00 138.72
  L 211.00 111.31
  A 0.44 0.43 0.0 0 0 210.56 110.88
  L 179.73 110.87
  A 0.30 0.30 0.0 0 0 179.50 111.37
  C 182.58 114.95 185.04 120.39 183.50 125.09
  C 180.28 134.96 166.29 134.29 164.38 124.09
  C 164.10 122.59 164.36 120.82 163.47 119.49
  C 162.59 118.19 160.97 117.57 159.52 117.10
  C 155.93 115.92 154.09 112.18 154.93 108.63
  Q 155.13 107.77 154.26 107.92
  L 150.17 108.62
  Q 149.36 108.76 149.21 109.58
  L 148.62 112.84
  Q 148.52 113.35 148.10 113.63
  Q 139.25 119.58 139.24 130.17
  Q 139.22 148.87 139.30 167.07
  Q 139.32 172.29 144.52 173.99
  C 146.13 174.51 148.24 174.19 149.97 174.24
  Q 150.46 174.26 150.47 174.75
  Q 150.63 179.28 150.43 183.92
  Q 150.21 189.00 151.70 192.22
  C 156.55 202.69 171.79 202.54 176.30 191.81
  Q 177.48 189.02 177.41 185.32
  Q 177.31 179.98 177.39 174.85
  Q 177.40 174.25 178.00 174.25
  L 188.32 174.25
  Q 189.07 174.25 189.04 175.00
  Z
  M 161.38 111.39
  C 165.91 112.62 170.29 116.50 170.08 121.56
  C 169.79 128.50 179.63 126.79 177.89 121.01
  Q 174.48 109.69 161.90 109.26
  Q 161.24 109.24 160.84 109.72
  A 1.05 1.05 0.0 0 0 161.38 111.39
  Z
  M 98.35 123.71
  C 92.06 133.76 83.70 139.53 71.94 138.40
  Q 61.37 137.38 56.09 128.77
  Q 55.07 127.11 53.42 128.14
  L 50.02 130.29
  Q 48.40 131.31 49.39 132.94
  Q 54.68 141.65 63.06 144.49
  C 81.82 150.84 97.82 141.92 106.55 125.09
  Q 106.66 124.87 106.41 124.83
  L 98.74 123.53
  Q 98.48 123.49 98.35 123.71
  Z
  M 98.89 145.03
  C 94.96 148.12 90.32 150.38 85.55 151.74
  Q 84.92 151.92 84.80 152.56
  Q 81.00 171.76 77.44 188.80
  C 76.78 191.98 76.66 194.97 78.98 197.42
  C 82.39 201.02 88.24 200.82 91.10 196.77
  Q 92.24 195.16 93.11 190.74
  Q 96.59 173.17 100.42 154.87
  Q 100.92 152.50 99.51 145.26
  Q 99.39 144.64 98.89 145.03
  Z
  M 51.62 185.94
  C 50.80 187.99 49.60 190.46 49.74 192.56
  C 50.33 201.21 61.85 202.75 65.01 194.74
  Q 71.83 177.46 78.59 160.43
  Q 79.90 157.13 79.06 153.49
  Q 78.93 152.96 78.38 153.01
  Q 70.98 153.73 63.77 151.77
  Q 63.11 151.58 63.18 152.27
  L 63.52 155.22
  Q 63.58 155.74 63.38 156.23
  Q 57.43 171.38 51.62 185.94
  Z"
/>
<ellipse fill="#000000" cx="0.00" cy="0.00" transform="translate(78.55,50.51) rotate(90.8)" rx="14.51" ry="13.92"/>
<path fill="#000000" d="
  M 179.84 78.03
  Q 184.51 67.20 181.87 54.78
  Q 181.12 51.24 184.31 49.53
  Q 184.90 49.22 185.50 49.27
  Q 188.30 49.50 189.05 51.72
  Q 190.13 54.95 189.98 59.50
  Q 188.96 89.57 161.79 99.56
  Q 157.40 101.17 149.26 102.77
  A 0.91 0.91 0.0 0 1 148.31 102.35
  Q 148.01 101.85 148.25 101.23
  A 0.97 0.95 2.3 0 1 148.90 100.64
  C 162.17 97.15 174.43 90.59 179.84 78.03
  Z"
/>
<path fill="#000000" d="
  M 167.49 72.08
  L 164.85 86.75
  Q 164.75 87.30 164.27 87.59
  L 162.60 88.61
  Q 161.43 89.33 162.07 88.11
  C 165.47 81.58 165.87 71.55 157.07 68.76
  Q 156.48 68.58 156.60 67.97
  C 157.40 63.88 157.97 60.06 163.32 60.09
  Q 170.18 60.14 176.12 60.13
  Q 176.67 60.12 176.70 60.68
  Q 177.05 66.10 175.92 71.00
  A 0.64 0.63 -83.8 0 1 175.30 71.50
  L 168.17 71.50
  Q 167.59 71.50 167.49 72.08
  Z"
/>
<path fill="#000000" d="
  M 197.06 71.50
  L 195.08 71.49
  Q 194.51 71.49 194.64 70.94
  Q 195.89 65.81 195.83 60.80
  Q 195.82 60.12 196.49 60.12
  L 210.43 60.12
  Q 211.00 60.12 211.00 60.68
  L 211.00 79.00
  Q 211.00 79.62 210.38 79.62
  Q 205.35 79.65 201.25 79.59
  C 196.77 79.53 197.85 74.95 197.74 72.16
  Q 197.72 71.51 197.06 71.50
  Z"
/>
<path fill="#000000" d="
  M 66.81 85.36
  Q 69.25 98.34 71.40 109.76
  C 72.66 116.45 77.02 120.14 83.72 121.07
  Q 87.29 121.56 90.64 122.20
  A 0.41 0.40 -66.0 0 1 90.88 122.84
  Q 84.02 132.10 73.80 131.84
  C 68.62 131.71 64.54 129.72 61.87 125.37
  Q 60.72 123.48 60.72 121.62
  Q 60.81 100.59 60.73 79.20
  Q 60.72 76.70 61.92 74.43
  C 64.07 70.34 67.61 69.19 71.94 69.31
  Q 78.56 69.50 85.46 69.30
  C 92.09 69.11 96.41 73.40 96.30 80.00
  Q 96.17 88.27 96.29 95.22
  Q 96.30 95.88 95.65 95.80
  C 94.19 95.63 92.57 95.68 91.57 94.38
  Q 85.21 86.05 79.65 79.04
  Q 78.51 77.59 79.25 79.29
  L 88.63 100.72
  Q 88.82 101.16 89.29 101.24
  Q 99.61 103.01 110.69 104.77
  C 115.14 105.47 118.13 108.62 117.20 113.34
  C 116.18 118.58 112.03 119.35 107.52 118.57
  Q 94.14 116.24 83.66 114.53
  Q 79.64 113.87 78.11 110.38
  Q 72.34 97.27 67.10 85.27
  Q 66.56 84.04 66.81 85.36
  Z"
/>
<path fill="#000000" d="
  M 145.10 92.49
  C 149.65 89.51 152.20 84.98 150.61 79.55
  C 148.86 73.61 158.49 72.24 158.32 78.84
  C 158.14 86.31 153.44 92.24 146.20 94.32
  A 1.07 1.07 0.0 0 1 145.56 94.32
  Q 144.38 93.97 144.74 92.95
  A 0.99 0.95 84.3 0 1 145.10 92.49
  Z"
/>
<path fill="#000000" d="
  M 124.97 112.45
  L 124.49 112.59
  Q 123.81 112.80 123.82 112.09
  Q 123.90 108.70 122.22 105.44
  A 0.40 0.40 0.0 0 1 122.46 104.87
  L 135.90 100.94
  Q 139.34 99.93 140.91 103.14
  Q 141.04 103.42 141.09 103.72
  Q 141.66 107.04 138.72 108.32
  Q 137.11 109.02 135.27 109.25
  Q 134.66 109.33 134.51 109.92
  Q 133.48 113.96 132.36 118.25
  C 130.97 123.52 123.75 121.80 124.55 117.01
  Q 124.89 114.96 125.55 113.04
  Q 125.84 112.18 124.97 112.45
  Z"
/>
<path fill="#000000" d="
  M 188.32 174.25
  L 178.00 174.25
  Q 177.40 174.25 177.39 174.85
  Q 177.31 179.98 177.41 185.32
  Q 177.48 189.02 176.30 191.81
  C 171.79 202.54 156.55 202.69 151.70 192.22
  Q 150.21 189.00 150.43 183.92
  Q 150.63 179.28 150.47 174.75
  Q 150.46 174.26 149.97 174.24
  C 148.24 174.19 146.13 174.51 144.52 173.99
  Q 139.32 172.29 139.30 167.07
  Q 139.22 148.87 139.24 130.17
  Q 139.25 119.58 148.10 113.63
  Q 148.52 113.35 148.62 112.84
  L 149.21 109.58
  Q 149.36 108.76 150.17 108.62
  L 154.26 107.92
  Q 155.13 107.77 154.93 108.63
  C 154.09 112.18 155.93 115.92 159.52 117.10
  C 160.97 117.57 162.59 118.19 163.47 119.49
  C 164.36 120.82 164.10 122.59 164.38 124.09
  C 166.29 134.29 180.28 134.96 183.50 125.09
  C 185.04 120.39 182.58 114.95 179.50 111.37
  A 0.30 0.30 0.0 0 1 179.73 110.87
  L 210.56 110.88
  A 0.44 0.43 0.0 0 1 211.00 111.31
  L 211.00 138.72
  Q 211.00 139.27 210.46 139.26
  Q 200.25 139.22 190.16 139.27
  Q 185.33 139.29 185.34 143.48
  Q 185.34 143.51 185.34 143.65
  Q 185.35 147.83 190.05 147.85
  Q 200.62 147.91 210.63 147.86
  A 0.37 0.37 0.0 0 1 211.00 148.23
  L 211.00 155.71
  Q 211.00 156.00 210.71 156.00
  Q 203.78 156.00 196.87 155.99
  C 190.60 155.99 190.50 164.54 196.72 164.61
  Q 203.61 164.68 210.34 164.58
  Q 211.00 164.57 211.00 165.24
  L 211.00 183.00
  Q 211.00 183.62 210.38 183.62
  Q 201.40 183.65 192.97 183.59
  C 187.89 183.56 188.90 178.31 189.04 175.00
  Q 189.07 174.25 188.32 174.25
  Z
  M 175.70 143.05
  A 12.11 12.11 0.0 0 0 163.59 130.94
  A 12.11 12.11 0.0 0 0 151.48 143.05
  A 12.11 12.11 0.0 0 0 163.59 155.16
  A 12.11 12.11 0.0 0 0 175.70 143.05
  Z"
/>
<path fill="#000000" d="
  M 170.08 121.56
  C 170.29 116.50 165.91 112.62 161.38 111.39
  A 1.05 1.05 0.0 0 1 160.84 109.72
  Q 161.24 109.24 161.90 109.26
  Q 174.48 109.69 177.89 121.01
  C 179.63 126.79 169.79 128.50 170.08 121.56
  Z"
/>
<path fill="#000000" d="
  M 98.35 123.71
  Q 98.48 123.49 98.74 123.53
  L 106.41 124.83
  Q 106.66 124.87 106.55 125.09
  C 97.82 141.92 81.82 150.84 63.06 144.49
  Q 54.68 141.65 49.39 132.94
  Q 48.40 131.31 50.02 130.29
  L 53.42 128.14
  Q 55.07 127.11 56.09 128.77
  Q 61.37 137.38 71.94 138.40
  C 83.70 139.53 92.06 133.76 98.35 123.71
  Z"
/>
<circle fill="#ffffff" cx="163.59" cy="143.05" r="12.11"/>
<path fill="#000000" d="
  M 85.55 151.74
  C 90.32 150.38 94.96 148.12 98.89 145.03
  Q 99.39 144.64 99.51 145.26
  Q 100.92 152.50 100.42 154.87
  Q 96.59 173.17 93.11 190.74
  Q 92.24 195.16 91.10 196.77
  C 88.24 200.82 82.39 201.02 78.98 197.42
  C 76.66 194.97 76.78 191.98 77.44 188.80
  Q 81.00 171.76 84.80 152.56
  Q 84.92 151.92 85.55 151.74
  Z"
/>
<path fill="#000000" d="
  M 51.62 185.94
  Q 57.43 171.38 63.38 156.23
  Q 63.58 155.74 63.52 155.22
  L 63.18 152.27
  Q 63.11 151.58 63.77 151.77
  Q 70.98 153.73 78.38 153.01
  Q 78.93 152.96 79.06 153.49
  Q 79.90 157.13 78.59 160.43
  Q 71.83 177.46 65.01 194.74
  C 61.85 202.75 50.33 201.21 49.74 192.56
  C 49.60 190.46 50.80 187.99 51.62 185.94
  Z"
/>
</svg>
