<?xml version="1.0" encoding="UTF-8" standalone="no"?>
<!DOCTYPE svg PUBLIC "-//W3C//DTD SVG 1.1//EN" "http://www.w3.org/Graphics/SVG/1.1/DTD/svg11.dtd">
<svg xmlns="http://www.w3.org/2000/svg" version="1.1" viewBox="0.00 0.00 256.00 360.00">
<g stroke-width="2.00" fill="none" stroke-linecap="butt">
<path stroke="#808080" vector-effect="non-scaling-stroke" d="
  M 94.26 61.17
  A 13.18 13.18 0.0 0 0 81.08 47.99
  A 13.18 13.18 0.0 0 0 67.90 61.17
  A 13.18 13.18 0.0 0 0 81.08 74.35
  A 13.18 13.18 0.0 0 0 94.26 61.17"
/>
<path stroke="#808080" vector-effect="non-scaling-stroke" d="
  M 116.56 75.88
  L 112.00 75.86
  Q 111.20 75.86 111.81 76.38
  Q 120.08 83.43 120.10 94.15
  Q 120.13 114.02 120.28 136.98
  Q 120.28 137.55 120.82 137.62
  Q 121.35 137.70 121.89 137.54
  A 0.57 0.57 0.0 0 1 122.61 138.07
  C 122.72 141.48 122.00 145.91 123.47 148.85
  C 126.48 154.89 134.70 155.34 138.27 149.66
  C 140.33 146.38 139.55 141.94 139.63 138.20
  Q 139.64 137.62 140.22 137.62
  L 170.06 137.62
  Q 170.68 137.62 170.66 138.25
  Q 170.54 141.75 170.67 145.12
  C 171.11 156.64 187.70 156.24 187.64 144.95
  Q 187.62 141.51 187.61 138.21
  Q 187.61 137.58 188.24 137.62
  Q 193.12 137.94 193.12 133.26
  Q 193.13 121.16 193.11 109.49
  Q 193.11 108.87 193.73 108.87
  L 203.95 108.86
  A 3.31 3.30 -90.0 0 0 207.25 105.55
  L 207.25 79.29
  A 3.41 3.41 0.0 0 0 203.84 75.88
  L 193.76 75.86
  Q 193.14 75.86 193.13 75.23
  Q 193.12 66.55 193.12 57.61
  Q 193.12 53.49 188.95 53.49
  Q 154.32 53.51 120.78 53.49
  A 3.53 3.53 0.0 0 0 117.25 57.02
  L 117.25 75.19
  Q 117.25 75.88 116.56 75.88"
/>
<path stroke="#808080" vector-effect="non-scaling-stroke" d="
  M 82.63 139.97
  Q 82.62 169.53 82.62 200.11
  C 82.63 210.52 97.85 210.33 97.86 200.63
  Q 97.93 155.28 97.70 93.48
  Q 97.70 92.35 98.83 92.34
  L 99.35 92.34
  A 1.02 1.02 0.0 0 1 100.37 93.35
  Q 100.57 114.22 100.60 139.38
  C 100.61 149.01 113.45 148.96 113.37 139.21
  Q 113.19 118.18 113.21 96.47
  Q 113.21 90.90 112.01 87.99
  C 109.58 82.10 103.95 78.45 97.57 78.48
  Q 81.21 78.53 64.43 78.49
  C 58.11 78.47 53.05 81.80 50.15 87.47
  Q 48.76 90.21 48.80 98.72
  Q 48.92 119.07 48.67 139.94
  C 48.57 148.77 61.35 148.56 61.40 140.04
  Q 61.53 113.94 61.66 93.43
  Q 61.67 92.36 62.73 92.45
  L 63.26 92.50
  Q 64.14 92.57 64.14 93.46
  Q 64.13 147.05 64.13 200.48
  C 64.13 210.43 79.37 210.63 79.38 199.85
  Q 79.39 170.36 79.37 139.82
  A 0.44 0.43 -0.7 0 1 79.80 139.39
  L 82.03 139.37
  Q 82.63 139.36 82.63 139.97"
/>
<path stroke="#808080" vector-effect="non-scaling-stroke" d="
  M 183.75 73.00
  A 2.00 2.00 0.0 0 0 181.75 71.00
  L 128.51 71.00
  A 2.00 2.00 0.0 0 0 126.51 73.00
  L 126.51 97.62
  A 2.00 2.00 0.0 0 0 128.51 99.62
  L 181.75 99.62
  A 2.00 2.00 0.0 0 0 183.75 97.62
  L 183.75 73.00"
/>
<path stroke="#808080" vector-effect="non-scaling-stroke" d="
  M 140.06 123.26
  A 7.86 7.86 0.0 0 0 132.20 115.40
  A 7.86 7.86 0.0 0 0 124.34 123.26
  A 7.86 7.86 0.0 0 0 132.20 131.12
  A 7.86 7.86 0.0 0 0 140.06 123.26"
/>
<path stroke="#808080" vector-effect="non-scaling-stroke" d="
  M 185.95 123.26
  A 7.85 7.85 0.0 0 0 178.10 115.41
  A 7.85 7.85 0.0 0 0 170.25 123.26
  A 7.85 7.85 0.0 0 0 178.10 131.11
  A 7.85 7.85 0.0 0 0 185.95 123.26"
/>
</g>
<path fill="#ffffff" d="
  M 121.88 0.00
  L 134.24 0.00
  Q 139.12 0.58 143.98 1.20
  Q 175.57 5.19 200.56 22.55
  C 230.57 43.41 251.05 76.37 255.04 112.79
  Q 255.54 117.33 256.00 121.88
  L 256.00 133.23
  Q 253.60 177.79 226.18 210.17
  Q 204.59 235.66 173.86 247.47
  C 128.70 264.83 76.68 255.20 41.04 221.86
  Q 3.62 186.84 0.00 133.88
  L 0.00 122.00
  Q 3.64 69.32 40.78 34.40
  Q 48.24 27.39 56.38 21.92
  Q 82.31 4.49 114.01 0.97
  Q 117.97 0.53 121.88 0.00
  Z
  M 94.26 61.17
  A 13.18 13.18 0.0 0 0 81.08 47.99
  A 13.18 13.18 0.0 0 0 67.90 61.17
  A 13.18 13.18 0.0 0 0 81.08 74.35
  A 13.18 13.18 0.0 0 0 94.26 61.17
  Z
  M 116.56 75.88
  L 112.00 75.86
  Q 111.20 75.86 111.81 76.38
  Q 120.08 83.43 120.10 94.15
  Q 120.13 114.02 120.28 136.98
  Q 120.28 137.55 120.82 137.62
  Q 121.35 137.70 121.89 137.54
  A 0.57 0.57 0.0 0 1 122.61 138.07
  C 122.72 141.48 122.00 145.91 123.47 148.85
  C 126.48 154.89 134.70 155.34 138.27 149.66
  C 140.33 146.38 139.55 141.94 139.63 138.20
  Q 139.64 137.62 140.22 137.62
  L 170.06 137.62
  Q 170.68 137.62 170.66 138.25
  Q 170.54 141.75 170.67 145.12
  C 171.11 156.64 187.70 156.24 187.64 144.95
  Q 187.62 141.51 187.61 138.21
  Q 187.61 137.58 188.24 137.62
  Q 193.12 137.94 193.12 133.26
  Q 193.13 121.16 193.11 109.49
  Q 193.11 108.87 193.73 108.87
  L 203.95 108.86
  A 3.31 3.30 -90.0 0 0 207.25 105.55
  L 207.25 79.29
  A 3.41 3.41 0.0 0 0 203.84 75.88
  L 193.76 75.86
  Q 193.14 75.86 193.13 75.23
  Q 193.12 66.55 193.12 57.61
  Q 193.12 53.49 188.95 53.49
  Q 154.32 53.51 120.78 53.49
  A 3.53 3.53 0.0 0 0 117.25 57.02
  L 117.25 75.19
  Q 117.25 75.88 116.56 75.88
  Z
  M 82.63 139.97
  Q 82.62 169.53 82.62 200.11
  C 82.63 210.52 97.85 210.33 97.86 200.63
  Q 97.93 155.28 97.70 93.48
  Q 97.70 92.35 98.83 92.34
  L 99.35 92.34
  A 1.02 1.02 0.0 0 1 100.37 93.35
  Q 100.57 114.22 100.60 139.38
  C 100.61 149.01 113.45 148.96 113.37 139.21
  Q 113.19 118.18 113.21 96.47
  Q 113.21 90.90 112.01 87.99
  C 109.58 82.10 103.95 78.45 97.57 78.48
  Q 81.21 78.53 64.43 78.49
  C 58.11 78.47 53.05 81.80 50.15 87.47
  Q 48.76 90.21 48.80 98.72
  Q 48.92 119.07 48.67 139.94
  C 48.57 148.77 61.35 148.56 61.40 140.04
  Q 61.53 113.94 61.66 93.43
  Q 61.67 92.36 62.73 92.45
  L 63.26 92.50
  Q 64.14 92.57 64.14 93.46
  Q 64.13 147.05 64.13 200.48
  C 64.13 210.43 79.37 210.63 79.38 199.85
  Q 79.39 170.36 79.37 139.82
  A 0.44 0.43 -0.7 0 1 79.80 139.39
  L 82.03 139.37
  Q 82.63 139.36 82.63 139.97
  Z"
/>
<circle fill="#000000" cx="81.08" cy="61.17" r="13.18"/>
<path fill="#000000" d="
  M 117.25 75.19
  L 117.25 57.02
  A 3.53 3.53 0.0 0 1 120.78 53.49
  Q 154.32 53.51 188.95 53.49
  Q 193.12 53.49 193.12 57.61
  Q 193.12 66.55 193.13 75.23
  Q 193.14 75.86 193.76 75.86
  L 203.84 75.88
  A 3.41 3.41 0.0 0 1 207.25 79.29
  L 207.25 105.55
  A 3.31 3.30 -90.0 0 1 203.95 108.86
  L 193.73 108.87
  Q 193.11 108.87 193.11 109.49
  Q 193.13 121.16 193.12 133.26
  Q 193.12 137.94 188.24 137.62
  Q 187.61 137.58 187.61 138.21
  Q 187.62 141.51 187.64 144.95
  C 187.70 156.24 171.11 156.64 170.67 145.12
  Q 170.54 141.75 170.66 138.25
  Q 170.68 137.62 170.06 137.62
  L 140.22 137.62
  Q 139.64 137.62 139.63 138.20
  C 139.55 141.94 140.33 146.38 138.27 149.66
  C 134.70 155.34 126.48 154.89 123.47 148.85
  C 122.00 145.91 122.72 141.48 122.61 138.07
  A 0.57 0.57 0.0 0 0 121.89 137.54
  Q 121.35 137.70 120.82 137.62
  Q 120.28 137.55 120.28 136.98
  Q 120.13 114.02 120.10 94.15
  Q 120.08 83.43 111.81 76.38
  Q 111.20 75.86 112.00 75.86
  L 116.56 75.88
  Q 117.25 75.88 117.25 75.19
  Z
  M 183.75 73.00
  A 2.00 2.00 0.0 0 0 181.75 71.00
  L 128.51 71.00
  A 2.00 2.00 0.0 0 0 126.51 73.00
  L 126.51 97.62
  A 2.00 2.00 0.0 0 0 128.51 99.62
  L 181.75 99.62
  A 2.00 2.00 0.0 0 0 183.75 97.62
  L 183.75 73.00
  Z
  M 140.06 123.26
  A 7.86 7.86 0.0 0 0 132.20 115.40
  A 7.86 7.86 0.0 0 0 124.34 123.26
  A 7.86 7.86 0.0 0 0 132.20 131.12
  A 7.86 7.86 0.0 0 0 140.06 123.26
  Z
  M 185.95 123.26
  A 7.85 7.85 0.0 0 0 178.10 115.41
  A 7.85 7.85 0.0 0 0 170.25 123.26
  A 7.85 7.85 0.0 0 0 178.10 131.11
  A 7.85 7.85 0.0 0 0 185.95 123.26
  Z"
/>
<rect fill="#ffffff" x="126.51" y="71.00" width="57.24" height="28.62" rx="2.00"/>
<path fill="#000000" d="
  M 82.63 139.97
  Q 82.63 139.36 82.03 139.37
  L 79.80 139.39
  A 0.44 0.43 -0.7 0 0 79.37 139.82
  Q 79.39 170.36 79.38 199.85
  C 79.37 210.63 64.13 210.43 64.13 200.48
  Q 64.13 147.05 64.14 93.46
  Q 64.14 92.57 63.26 92.50
  L 62.73 92.45
  Q 61.67 92.36 61.66 93.43
  Q 61.53 113.94 61.40 140.04
  C 61.35 148.56 48.57 148.77 48.67 139.94
  Q 48.92 119.07 48.80 98.72
  Q 48.76 90.21 50.15 87.47
  C 53.05 81.80 58.11 78.47 64.43 78.49
  Q 81.21 78.53 97.57 78.48
  C 103.95 78.45 109.58 82.10 112.01 87.99
  Q 113.21 90.90 113.21 96.47
  Q 113.19 118.18 113.37 139.21
  C 113.45 148.96 100.61 149.01 100.60 139.38
  Q 100.57 114.22 100.37 93.35
  A 1.02 1.02 0.0 0 0 99.35 92.34
  L 98.83 92.34
  Q 97.70 92.35 97.70 93.48
  Q 97.93 155.28 97.86 200.63
  C 97.85 210.33 82.63 210.52 82.62 200.11
  Q 82.62 169.53 82.63 139.97
  Z"
/>
<circle fill="#ffffff" cx="132.20" cy="123.26" r="7.86"/>
<circle fill="#ffffff" cx="178.10" cy="123.26" r="7.85"/>
</svg>
