<?xml version="1.0" encoding="UTF-8" standalone="no"?>
<!DOCTYPE svg PUBLIC "-//W3C//DTD SVG 1.1//EN" "http://www.w3.org/Graphics/SVG/1.1/DTD/svg11.dtd">
<svg xmlns="http://www.w3.org/2000/svg" version="1.1" viewBox="0.00 0.00 256.00 360.00">
<g stroke-width="2.00" fill="none" stroke-linecap="butt">
<path stroke="#808080" vector-effect="non-scaling-stroke" d="
  M 125.66 40.40
  C 124.21 33.46 121.49 24.02 113.07 24.05
  C 105.58 24.08 97.22 22.01 93.51 30.82
  Q 91.59 35.39 90.39 40.43
  A 0.92 0.90 1.8 0 1 89.65 41.11
  C 88.53 41.28 87.54 41.18 86.50 41.76
  C 81.70 44.46 83.50 51.60 89.00 51.61
  Q 108.60 51.64 126.69 51.61
  C 132.92 51.61 134.55 44.26 128.97 41.45
  C 128.23 41.07 127.21 41.29 126.39 41.12
  Q 125.79 41.01 125.66 40.40"
/>
<path stroke="#808080" vector-effect="non-scaling-stroke" d="
  M 77.65 135.78
  Q 77.61 150.44 77.63 165.76
  Q 77.64 172.53 84.14 173.54
  Q 84.63 173.62 84.63 174.12
  Q 84.62 196.85 84.62 219.59
  Q 84.62 223.71 85.22 225.43
  C 88.49 234.82 102.28 233.69 104.19 224.30
  Q 104.33 223.61 104.35 216.68
  Q 104.39 196.70 104.35 174.95
  Q 104.34 173.47 105.79 173.15
  Q 108.25 172.61 110.63 173.21
  Q 111.60 173.46 111.60 174.47
  Q 111.60 196.90 111.64 221.80
  C 111.65 229.07 118.89 234.31 125.65 231.07
  C 130.31 228.83 131.58 224.99 131.56 219.95
  Q 131.45 199.36 131.49 174.13
  Q 131.49 173.59 132.02 173.51
  Q 138.47 172.54 138.48 165.67
  Q 138.51 151.01 138.50 135.21
  Q 138.49 128.16 132.07 127.15
  Q 131.50 127.06 131.50 126.49
  L 131.50 110.24
  Q 131.50 108.92 132.23 110.02
  Q 135.86 115.47 139.46 120.62
  Q 141.14 123.03 144.17 123.77
  Q 152.53 125.81 161.86 127.84
  A 0.70 0.69 6.6 0 1 162.41 128.53
  Q 162.30 168.54 162.42 214.17
  C 162.43 217.39 165.50 219.68 168.50 219.02
  C 173.25 217.97 172.75 214.51 172.75 210.19
  Q 172.74 167.54 172.77 127.80
  Q 172.77 127.37 173.05 127.04
  Q 178.53 120.77 173.16 114.67
  Q 172.75 114.20 172.75 113.58
  L 172.75 57.75
  Q 172.75 57.14 173.36 57.13
  Q 182.81 57.07 193.80 57.17
  Q 196.49 57.19 198.09 56.28
  C 200.69 54.79 201.37 50.88 199.17 48.53
  Q 198.75 48.09 198.75 47.48
  L 198.75 35.71
  Q 198.75 32.97 196.20 31.98
  Q 195.62 31.75 195.03 31.88
  Q 191.89 32.55 191.88 35.76
  L 191.86 46.44
  Q 191.86 46.75 191.56 46.75
  L 185.19 46.75
  A 0.32 0.31 -0.0 0 1 184.87 46.44
  L 184.88 35.26
  Q 184.88 32.59 182.26 32.03
  L 181.89 31.95
  A 3.23 3.22 -84.1 0 0 178.00 35.11
  L 178.00 46.25
  Q 178.00 46.75 177.50 46.75
  L 171.31 46.75
  Q 171.03 46.75 171.03 46.47
  Q 171.03 41.11 171.00 35.35
  Q 170.98 32.86 168.25 31.88
  Q 167.79 31.72 167.32 31.82
  Q 164.00 32.54 164.00 35.93
  L 164.00 46.25
  Q 164.00 46.75 163.50 46.75
  L 157.50 46.75
  A 0.37 0.36 89.2 0 1 157.13 46.38
  L 157.12 34.94
  A 2.94 2.94 0.0 0 0 155.57 32.35
  Q 154.20 31.62 152.84 31.94
  Q 150.15 32.58 150.15 35.34
  L 150.11 46.32
  Q 150.11 46.75 149.68 46.75
  L 143.75 46.75
  A 0.50 0.50 0.0 0 1 143.25 46.25
  L 143.25 36.03
  Q 143.25 32.72 140.05 31.84
  Q 139.27 31.63 138.54 32.11
  Q 136.25 33.60 136.25 36.33
  L 136.25 47.37
  Q 136.25 48.06 135.83 48.60
  C 133.04 52.15 135.33 57.09 139.82 57.11
  Q 150.58 57.15 161.97 57.12
  A 0.41 0.40 -0.0 0 1 162.38 57.52
  L 162.38 110.18
  Q 162.38 111.03 161.55 110.84
  L 151.71 108.60
  Q 151.19 108.48 150.88 108.03
  Q 141.77 94.82 133.37 82.38
  C 130.67 78.37 127.18 76.74 122.22 77.13
  Q 121.63 77.18 121.63 77.77
  L 121.62 133.75
  A 0.38 0.37 -0.0 0 0 122.00 134.12
  L 130.94 134.13
  Q 131.50 134.13 131.50 134.69
  L 131.50 166.00
  Q 131.50 166.50 131.00 166.50
  L 112.25 166.50
  Q 111.62 166.50 111.62 165.88
  L 111.63 156.35
  Q 111.63 156.00 111.29 156.00
  L 104.70 156.00
  Q 104.37 156.00 104.37 156.33
  L 104.38 165.93
  Q 104.38 166.50 103.82 166.50
  L 85.19 166.50
  Q 84.62 166.50 84.62 165.94
  L 84.62 134.77
  Q 84.62 134.13 85.26 134.13
  L 94.06 134.13
  Q 94.50 134.13 94.50 133.69
  L 94.50 77.76
  Q 94.50 77.20 93.94 77.15
  C 87.91 76.66 84.59 79.24 82.13 84.63
  Q 69.20 113.09 56.09 141.82
  Q 55.56 142.97 55.49 144.22
  C 55.05 151.40 62.86 155.54 68.62 151.58
  Q 70.61 150.21 72.39 146.02
  Q 74.63 140.71 77.08 135.65
  Q 77.66 134.46 77.65 135.78"
/>
<path stroke="#808080" vector-effect="non-scaling-stroke" d="
  M 89.19 57.42
  C 94.67 77.29 121.44 77.45 126.86 57.52
  Q 127.07 56.75 126.27 56.75
  L 89.70 56.75
  A 0.53 0.53 0.0 0 0 89.19 57.42"
/>
<path stroke="#808080" vector-effect="non-scaling-stroke" d="
  M 114.62 77.47
  A 0.35 0.35 0.0 0 0 114.27 77.12
  L 101.85 77.12
  A 0.35 0.35 0.0 0 0 101.50 77.47
  L 101.50 103.65
  A 0.35 0.35 0.0 0 0 101.85 104.00
  L 114.27 104.00
  A 0.35 0.35 0.0 0 0 114.62 103.65
  L 114.62 77.47"
/>
<path stroke="#808080" vector-effect="non-scaling-stroke" d="
  M 84.20 119.96
  L 80.46 128.18
  A 0.12 0.12 0.0 0 0 80.63 128.34
  Q 82.30 127.48 84.06 127.19
  Q 84.61 127.10 84.61 126.54
  L 84.64 120.03
  Q 84.65 118.98 84.20 119.96"
/>
</g>
<path fill="#ffffff" d="
  M 121.88 0.00
  L 134.24 0.00
  Q 139.11 0.59 143.98 1.20
  Q 174.37 5.05 199.32 21.71
  Q 207.47 27.15 214.96 34.15
  Q 252.28 69.08 256.00 121.88
  L 256.00 133.23
  Q 253.60 177.88 226.18 210.17
  C 198.90 242.29 158.64 259.19 116.53 255.44
  C 90.96 253.17 66.02 243.13 46.28 226.50
  C 21.45 205.58 4.46 175.91 0.96 143.29
  Q 0.45 138.59 0.00 133.87
  L 0.00 122.03
  Q 1.34 99.82 8.80 81.24
  Q 23.28 45.17 54.03 23.54
  Q 81.06 4.53 114.02 0.94
  Q 117.96 0.51 121.88 0.00
  Z
  M 125.66 40.40
  C 124.21 33.46 121.49 24.02 113.07 24.05
  C 105.58 24.08 97.22 22.01 93.51 30.82
  Q 91.59 35.39 90.39 40.43
  A 0.92 0.90 1.8 0 1 89.65 41.11
  C 88.53 41.28 87.54 41.18 86.50 41.76
  C 81.70 44.46 83.50 51.60 89.00 51.61
  Q 108.60 51.64 126.69 51.61
  C 132.92 51.61 134.55 44.26 128.97 41.45
  C 128.23 41.07 127.21 41.29 126.39 41.12
  Q 125.79 41.01 125.66 40.40
  Z
  M 77.65 135.78
  Q 77.61 150.44 77.63 165.76
  Q 77.64 172.53 84.14 173.54
  Q 84.63 173.62 84.63 174.12
  Q 84.62 196.85 84.62 219.59
  Q 84.62 223.71 85.22 225.43
  C 88.49 234.82 102.28 233.69 104.19 224.30
  Q 104.33 223.61 104.35 216.68
  Q 104.39 196.70 104.35 174.95
  Q 104.34 173.47 105.79 173.15
  Q 108.25 172.61 110.63 173.21
  Q 111.60 173.46 111.60 174.47
  Q 111.60 196.90 111.64 221.80
  C 111.65 229.07 118.89 234.31 125.65 231.07
  C 130.31 228.83 131.58 224.99 131.56 219.95
  Q 131.45 199.36 131.49 174.13
  Q 131.49 173.59 132.02 173.51
  Q 138.47 172.54 138.48 165.67
  Q 138.51 151.01 138.50 135.21
  Q 138.49 128.16 132.07 127.15
  Q 131.50 127.06 131.50 126.49
  L 131.50 110.24
  Q 131.50 108.92 132.23 110.02
  Q 135.86 115.47 139.46 120.62
  Q 141.14 123.03 144.17 123.77
  Q 152.53 125.81 161.86 127.84
  A 0.70 0.69 6.6 0 1 162.41 128.53
  Q 162.30 168.54 162.42 214.17
  C 162.43 217.39 165.50 219.68 168.50 219.02
  C 173.25 217.97 172.75 214.51 172.75 210.19
  Q 172.74 167.54 172.77 127.80
  Q 172.77 127.37 173.05 127.04
  Q 178.53 120.77 173.16 114.67
  Q 172.75 114.20 172.75 113.58
  L 172.75 57.75
  Q 172.75 57.14 173.36 57.13
  Q 182.81 57.07 193.80 57.17
  Q 196.49 57.19 198.09 56.28
  C 200.69 54.79 201.37 50.88 199.17 48.53
  Q 198.75 48.09 198.75 47.48
  L 198.75 35.71
  Q 198.75 32.97 196.20 31.98
  Q 195.62 31.75 195.03 31.88
  Q 191.89 32.55 191.88 35.76
  L 191.86 46.44
  Q 191.86 46.75 191.56 46.75
  L 185.19 46.75
  A 0.32 0.31 -0.0 0 1 184.87 46.44
  L 184.88 35.26
  Q 184.88 32.59 182.26 32.03
  L 181.89 31.95
  A 3.23 3.22 -84.1 0 0 178.00 35.11
  L 178.00 46.25
  Q 178.00 46.75 177.50 46.75
  L 171.31 46.75
  Q 171.03 46.75 171.03 46.47
  Q 171.03 41.11 171.00 35.35
  Q 170.98 32.86 168.25 31.88
  Q 167.79 31.72 167.32 31.82
  Q 164.00 32.54 164.00 35.93
  L 164.00 46.25
  Q 164.00 46.75 163.50 46.75
  L 157.50 46.75
  A 0.37 0.36 89.2 0 1 157.13 46.38
  L 157.12 34.94
  A 2.94 2.94 0.0 0 0 155.57 32.35
  Q 154.20 31.62 152.84 31.94
  Q 150.15 32.58 150.15 35.34
  L 150.11 46.32
  Q 150.11 46.75 149.68 46.75
  L 143.75 46.75
  A 0.50 0.50 0.0 0 1 143.25 46.25
  L 143.25 36.03
  Q 143.25 32.72 140.05 31.84
  Q 139.27 31.63 138.54 32.11
  Q 136.25 33.60 136.25 36.33
  L 136.25 47.37
  Q 136.25 48.06 135.83 48.60
  C 133.04 52.15 135.33 57.09 139.82 57.11
  Q 150.58 57.15 161.97 57.12
  A 0.41 0.40 -0.0 0 1 162.38 57.52
  L 162.38 110.18
  Q 162.38 111.03 161.55 110.84
  L 151.71 108.60
  Q 151.19 108.48 150.88 108.03
  Q 141.77 94.82 133.37 82.38
  C 130.67 78.37 127.18 76.74 122.22 77.13
  Q 121.63 77.18 121.63 77.77
  L 121.62 133.75
  A 0.38 0.37 -0.0 0 0 122.00 134.12
  L 130.94 134.13
  Q 131.50 134.13 131.50 134.69
  L 131.50 166.00
  Q 131.50 166.50 131.00 166.50
  L 112.25 166.50
  Q 111.62 166.50 111.62 165.88
  L 111.63 156.35
  Q 111.63 156.00 111.29 156.00
  L 104.70 156.00
  Q 104.37 156.00 104.37 156.33
  L 104.38 165.93
  Q 104.38 166.50 103.82 166.50
  L 85.19 166.50
  Q 84.62 166.50 84.62 165.94
  L 84.62 134.77
  Q 84.62 134.13 85.26 134.13
  L 94.06 134.13
  Q 94.50 134.13 94.50 133.69
  L 94.50 77.76
  Q 94.50 77.20 93.94 77.15
  C 87.91 76.66 84.59 79.24 82.13 84.63
  Q 69.20 113.09 56.09 141.82
  Q 55.56 142.97 55.49 144.22
  C 55.05 151.40 62.86 155.54 68.62 151.58
  Q 70.61 150.21 72.39 146.02
  Q 74.63 140.71 77.08 135.65
  Q 77.66 134.46 77.65 135.78
  Z
  M 89.19 57.42
  C 94.67 77.29 121.44 77.45 126.86 57.52
  Q 127.07 56.75 126.27 56.75
  L 89.70 56.75
  A 0.53 0.53 0.0 0 0 89.19 57.42
  Z
  M 114.62 77.47
  A 0.35 0.35 0.0 0 0 114.27 77.12
  L 101.85 77.12
  A 0.35 0.35 0.0 0 0 101.50 77.47
  L 101.50 103.65
  A 0.35 0.35 0.0 0 0 101.85 104.00
  L 114.27 104.00
  A 0.35 0.35 0.0 0 0 114.62 103.65
  L 114.62 77.47
  Z"
/>
<path fill="#000000" d="
  M 126.39 41.12
  C 127.21 41.29 128.23 41.07 128.97 41.45
  C 134.55 44.26 132.92 51.61 126.69 51.61
  Q 108.60 51.64 89.00 51.61
  C 83.50 51.60 81.70 44.46 86.50 41.76
  C 87.54 41.18 88.53 41.28 89.65 41.11
  A 0.92 0.90 1.8 0 0 90.39 40.43
  Q 91.59 35.39 93.51 30.82
  C 97.22 22.01 105.58 24.08 113.07 24.05
  C 121.49 24.02 124.21 33.46 125.66 40.40
  Q 125.79 41.01 126.39 41.12
  Z"
/>
<path fill="#000000" d="
  M 77.65 135.78
  Q 77.66 134.46 77.08 135.65
  Q 74.63 140.71 72.39 146.02
  Q 70.61 150.21 68.62 151.58
  C 62.86 155.54 55.05 151.40 55.49 144.22
  Q 55.56 142.97 56.09 141.82
  Q 69.20 113.09 82.13 84.63
  C 84.59 79.24 87.91 76.66 93.94 77.15
  Q 94.50 77.20 94.50 77.76
  L 94.50 133.69
  Q 94.50 134.13 94.06 134.13
  L 85.26 134.13
  Q 84.62 134.13 84.62 134.77
  L 84.62 165.94
  Q 84.62 166.50 85.19 166.50
  L 103.82 166.50
  Q 104.38 166.50 104.38 165.93
  L 104.37 156.33
  Q 104.37 156.00 104.70 156.00
  L 111.29 156.00
  Q 111.63 156.00 111.63 156.35
  L 111.62 165.88
  Q 111.62 166.50 112.25 166.50
  L 131.00 166.50
  Q 131.50 166.50 131.50 166.00
  L 131.50 134.69
  Q 131.50 134.13 130.94 134.13
  L 122.00 134.12
  A 0.38 0.37 0.0 0 1 121.62 133.75
  L 121.63 77.77
  Q 121.63 77.18 122.22 77.13
  C 127.18 76.74 130.67 78.37 133.37 82.38
  Q 141.77 94.82 150.88 108.03
  Q 151.19 108.48 151.71 108.60
  L 161.55 110.84
  Q 162.38 111.03 162.38 110.18
  L 162.38 57.52
  A 0.41 0.40 0.0 0 0 161.97 57.12
  Q 150.58 57.15 139.82 57.11
  C 135.33 57.09 133.04 52.15 135.83 48.60
  Q 136.25 48.06 136.25 47.37
  L 136.25 36.33
  Q 136.25 33.60 138.54 32.11
  Q 139.27 31.63 140.05 31.84
  Q 143.25 32.72 143.25 36.03
  L 143.25 46.25
  A 0.50 0.50 0.0 0 0 143.75 46.75
  L 149.68 46.75
  Q 150.11 46.75 150.11 46.32
  L 150.15 35.34
  Q 150.15 32.58 152.84 31.94
  Q 154.20 31.62 155.57 32.35
  A 2.94 2.94 0.0 0 1 157.12 34.94
  L 157.13 46.38
  A 0.37 0.36 89.2 0 0 157.50 46.75
  L 163.50 46.75
  Q 164.00 46.75 164.00 46.25
  L 164.00 35.93
  Q 164.00 32.54 167.32 31.82
  Q 167.79 31.72 168.25 31.88
  Q 170.98 32.86 171.00 35.35
  Q 171.03 41.11 171.03 46.47
  Q 171.03 46.75 171.31 46.75
  L 177.50 46.75
  Q 178.00 46.75 178.00 46.25
  L 178.00 35.11
  A 3.23 3.22 -84.1 0 1 181.89 31.95
  L 182.26 32.03
  Q 184.88 32.59 184.88 35.26
  L 184.87 46.44
  A 0.32 0.31 0.0 0 0 185.19 46.75
  L 191.56 46.75
  Q 191.86 46.75 191.86 46.44
  L 191.88 35.76
  Q 191.89 32.55 195.03 31.88
  Q 195.62 31.75 196.20 31.98
  Q 198.75 32.97 198.75 35.71
  L 198.75 47.48
  Q 198.75 48.09 199.17 48.53
  C 201.37 50.88 200.69 54.79 198.09 56.28
  Q 196.49 57.19 193.80 57.17
  Q 182.81 57.07 173.36 57.13
  Q 172.75 57.14 172.75 57.75
  L 172.75 113.58
  Q 172.75 114.20 173.16 114.67
  Q 178.53 120.77 173.05 127.04
  Q 172.77 127.37 172.77 127.80
  Q 172.74 167.54 172.75 210.19
  C 172.75 214.51 173.25 217.97 168.50 219.02
  C 165.50 219.68 162.43 217.39 162.42 214.17
  Q 162.30 168.54 162.41 128.53
  A 0.70 0.69 6.6 0 0 161.86 127.84
  Q 152.53 125.81 144.17 123.77
  Q 141.14 123.03 139.46 120.62
  Q 135.86 115.47 132.23 110.02
  Q 131.50 108.92 131.50 110.24
  L 131.50 126.49
  Q 131.50 127.06 132.07 127.15
  Q 138.49 128.16 138.50 135.21
  Q 138.51 151.01 138.48 165.67
  Q 138.47 172.54 132.02 173.51
  Q 131.49 173.59 131.49 174.13
  Q 131.45 199.36 131.56 219.95
  C 131.58 224.99 130.31 228.83 125.65 231.07
  C 118.89 234.31 111.65 229.07 111.64 221.80
  Q 111.60 196.90 111.60 174.47
  Q 111.60 173.46 110.63 173.21
  Q 108.25 172.61 105.79 173.15
  Q 104.34 173.47 104.35 174.95
  Q 104.39 196.70 104.35 216.68
  Q 104.33 223.61 104.19 224.30
  C 102.28 233.69 88.49 234.82 85.22 225.43
  Q 84.62 223.71 84.62 219.59
  Q 84.62 196.85 84.63 174.12
  Q 84.63 173.62 84.14 173.54
  Q 77.64 172.53 77.63 165.76
  Q 77.61 150.44 77.65 135.78
  Z
  M 84.20 119.96
  L 80.46 128.18
  A 0.12 0.12 0.0 0 0 80.63 128.34
  Q 82.30 127.48 84.06 127.19
  Q 84.61 127.10 84.61 126.54
  L 84.64 120.03
  Q 84.65 118.98 84.20 119.96
  Z"
/>
<path fill="#000000" d="
  M 126.86 57.52
  C 121.44 77.45 94.67 77.29 89.19 57.42
  A 0.53 0.53 0.0 0 1 89.70 56.75
  L 126.27 56.75
  Q 127.07 56.75 126.86 57.52
  Z"
/>
<rect fill="#000000" x="101.50" y="77.12" width="13.12" height="26.88" rx="0.35"/>
<path fill="#ffffff" d="
  M 80.46 128.18
  L 84.20 119.96
  Q 84.65 118.98 84.64 120.03
  L 84.61 126.54
  Q 84.61 127.10 84.06 127.19
  Q 82.30 127.48 80.63 128.34
  A 0.12 0.12 0.0 0 1 80.46 128.18
  Z"
/>
</svg>
