<?xml version="1.0" encoding="UTF-8" standalone="no"?>
<!DOCTYPE svg PUBLIC "-//W3C//DTD SVG 1.1//EN" "http://www.w3.org/Graphics/SVG/1.1/DTD/svg11.dtd">
<svg xmlns="http://www.w3.org/2000/svg" version="1.1" viewBox="0.00 0.00 256.00 256.00">
<g stroke-width="2.00" fill="none" stroke-linecap="butt">
<path stroke="#808080" vector-effect="non-scaling-stroke" d="
  M 120.30 47.80
  A 15.80 15.80 0.0 0 0 104.50 32.00
  A 15.80 15.80 0.0 0 0 88.70 47.80
  A 15.80 15.80 0.0 0 0 104.50 63.60
  A 15.80 15.80 0.0 0 0 120.30 47.80"
/>
<path stroke="#808080" vector-effect="non-scaling-stroke" d="
  M 125.46 101.81
  Q 129.98 115.19 136.37 132.18
  A 0.87 0.87 0.0 0 0 137.19 132.75
  L 152.25 132.75
  A 0.34 0.34 0.0 0 0 152.57 132.29
  Q 143.19 106.48 134.63 82.35
  C 131.96 74.82 126.31 68.72 117.75 68.67
  Q 106.35 68.62 94.49 68.59
  Q 88.30 68.57 85.61 69.62
  C 80.08 71.76 76.24 76.94 74.37 82.26
  Q 71.20 91.28 66.74 103.67
  C 64.71 109.32 68.14 113.45 73.65 114.56
  Q 83.95 116.63 92.87 118.74
  Q 93.31 118.85 93.31 119.29
  L 93.63 138.78
  A 0.33 0.33 0.0 0 1 93.30 139.11
  Q 78.47 139.17 62.82 139.09
  C 59.68 139.07 56.69 140.17 56.12 143.60
  C 55.55 147.04 58.08 149.77 61.51 149.76
  Q 76.02 149.73 88.25 149.76
  A 1.23 1.23 0.0 0 1 89.12 150.12
  L 121.35 182.36
  Q 121.74 182.75 121.35 183.14
  Q 104.87 199.65 88.17 216.30
  C 83.65 220.80 89.66 226.84 94.16 222.33
  Q 110.79 205.69 127.41 189.07
  A 0.48 0.47 44.6 0 1 128.08 189.07
  Q 144.50 205.49 161.20 222.21
  C 165.83 226.84 171.98 220.85 167.51 216.39
  Q 152.84 201.73 134.25 183.12
  Q 133.81 182.68 134.25 182.24
  L 166.36 150.14
  Q 166.67 149.83 167.11 149.82
  Q 179.09 149.62 192.92 149.83
  C 196.48 149.89 199.67 148.33 199.54 144.31
  Q 199.43 140.77 196.14 139.65
  Q 194.61 139.13 191.44 139.13
  Q 158.63 139.11 125.86 139.13
  Q 125.37 139.13 125.35 138.63
  Q 124.94 127.83 115.77 124.23
  C 111.67 122.61 106.66 123.17 102.28 123.10
  Q 101.75 123.09 101.75 122.56
  L 101.75 119.97
  Q 101.75 119.51 102.21 119.50
  Q 104.03 119.45 106.00 119.54
  C 112.03 119.81 112.09 110.57 105.65 110.96
  A 0.46 0.46 0.0 0 1 105.16 110.57
  C 104.57 106.83 101.64 104.87 98.11 104.16
  Q 90.85 102.71 84.24 101.14
  Q 83.86 101.05 83.99 100.69
  L 85.41 96.78
  A 0.66 0.65 -73.5 0 1 86.16 96.37
  Q 92.63 97.80 99.48 99.26
  C 102.56 99.91 105.59 101.25 107.47 103.83
  C 108.89 105.78 110.46 105.67 112.14 106.92
  Q 117.34 110.76 116.30 117.47
  Q 116.23 117.97 116.70 118.15
  Q 126.22 121.73 129.57 129.86
  Q 130.33 131.70 129.95 129.74
  L 124.58 102.04
  Q 123.28 95.35 125.46 101.81"
/>
<path stroke="#808080" vector-effect="non-scaling-stroke" d="
  M 78.53 132.26
  A 0.41 0.41 0.0 0 0 78.93 132.75
  L 86.96 132.75
  A 0.41 0.41 0.0 0 0 87.37 132.34
  L 87.36 122.97
  A 0.41 0.41 0.0 0 0 87.03 122.57
  L 81.07 121.36
  A 0.41 0.41 0.0 0 0 80.59 121.69
  L 78.53 132.26"
/>
<path stroke="#808080" vector-effect="non-scaling-stroke" d="
  M 84.25 160.25
  L 84.25 210.22
  Q 84.25 211.25 84.98 210.52
  L 102.14 193.37
  Q 102.50 193.00 102.50 192.48
  L 102.50 173.02
  Q 102.50 172.51 102.14 172.14
  L 86.63 156.61
  Q 86.13 156.11 85.42 156.11
  L 75.25 156.14
  Q 73.80 156.14 74.64 157.33
  L 75.18 158.11
  Q 76.15 159.50 77.84 159.50
  L 83.50 159.50
  Q 84.25 159.50 84.25 160.25"
/>
<path stroke="#808080" vector-effect="non-scaling-stroke" d="
  M 107.05 177.03
  A 0.32 0.32 0.0 0 0 106.50 177.26
  L 106.50 188.24
  A 0.32 0.32 0.0 0 0 107.05 188.47
  L 112.51 182.98
  A 0.32 0.32 0.0 0 0 112.51 182.52
  L 107.05 177.03"
/>
<path stroke="#808080" vector-effect="non-scaling-stroke" d="
  M 116.79 223.90
  C 121.13 223.39 124.66 219.77 124.71 215.39
  Q 124.80 208.99 124.73 201.47
  A 0.30 0.29 67.4 0 0 124.23 201.26
  L 107.51 218.00
  Q 107.05 218.45 107.40 219.00
  Q 110.89 224.58 116.79 223.90"
/>
<path stroke="#808080" vector-effect="non-scaling-stroke" d="
  M 154.20 150.30
  A 0.32 0.32 0.0 0 0 153.98 149.75
  L 101.64 149.75
  A 0.32 0.32 0.0 0 0 101.42 150.30
  L 127.58 176.46
  A 0.32 0.32 0.0 0 0 128.04 176.46
  L 154.20 150.30"
/>
<path stroke="#808080" vector-effect="non-scaling-stroke" d="
  M 125.50 159.50
  L 130.95 159.50
  A 3.37 3.36 -71.3 0 0 133.62 158.18
  Q 134.09 157.57 134.28 157.33
  Q 135.20 156.13 133.68 156.13
  L 116.86 156.12
  A 0.27 0.26 -22.3 0 0 116.67 156.57
  L 124.26 164.12
  Q 124.75 164.61 124.75 163.92
  L 124.75 160.25
  Q 124.75 159.50 125.50 159.50"
/>
</g>
<path fill="#ffffff" d="
  M 121.87 0.00
  L 134.24 0.00
  Q 139.12 0.58 143.98 1.20
  Q 175.55 5.19 200.59 22.55
  C 231.68 44.11 250.92 76.98 255.27 114.39
  C 255.56 116.86 255.53 119.42 256.00 121.88
  L 256.00 133.22
  Q 253.63 177.65 226.16 210.17
  Q 190.83 251.99 134.34 256.00
  L 121.51 256.00
  Q 117.68 255.55 113.84 255.15
  C 86.77 252.34 60.78 240.31 41.29 222.21
  Q 3.44 187.07 0.00 133.87
  L 0.00 122.01
  Q 0.56 117.00 1.19 112.02
  Q 4.67 84.27 19.00 60.86
  Q 24.09 52.55 30.84 44.77
  Q 66.14 4.06 121.87 0.00
  Z
  M 120.30 47.80
  A 15.80 15.80 0.0 0 0 104.50 32.00
  A 15.80 15.80 0.0 0 0 88.70 47.80
  A 15.80 15.80 0.0 0 0 104.50 63.60
  A 15.80 15.80 0.0 0 0 120.30 47.80
  Z
  M 125.46 101.81
  Q 129.98 115.19 136.37 132.18
  A 0.87 0.87 0.0 0 0 137.19 132.75
  L 152.25 132.75
  A 0.34 0.34 0.0 0 0 152.57 132.29
  Q 143.19 106.48 134.63 82.35
  C 131.96 74.82 126.31 68.72 117.75 68.67
  Q 106.35 68.62 94.49 68.59
  Q 88.30 68.57 85.61 69.62
  C 80.08 71.76 76.24 76.94 74.37 82.26
  Q 71.20 91.28 66.74 103.67
  C 64.71 109.32 68.14 113.45 73.65 114.56
  Q 83.95 116.63 92.87 118.74
  Q 93.31 118.85 93.31 119.29
  L 93.63 138.78
  A 0.33 0.33 0.0 0 1 93.30 139.11
  Q 78.47 139.17 62.82 139.09
  C 59.68 139.07 56.69 140.17 56.12 143.60
  C 55.55 147.04 58.08 149.77 61.51 149.76
  Q 76.02 149.73 88.25 149.76
  A 1.23 1.23 0.0 0 1 89.12 150.12
  L 121.35 182.36
  Q 121.74 182.75 121.35 183.14
  Q 104.87 199.65 88.17 216.30
  C 83.65 220.80 89.66 226.84 94.16 222.33
  Q 110.79 205.69 127.41 189.07
  A 0.48 0.47 44.6 0 1 128.08 189.07
  Q 144.50 205.49 161.20 222.21
  C 165.83 226.84 171.98 220.85 167.51 216.39
  Q 152.84 201.73 134.25 183.12
  Q 133.81 182.68 134.25 182.24
  L 166.36 150.14
  Q 166.67 149.83 167.11 149.82
  Q 179.09 149.62 192.92 149.83
  C 196.48 149.89 199.67 148.33 199.54 144.31
  Q 199.43 140.77 196.14 139.65
  Q 194.61 139.13 191.44 139.13
  Q 158.63 139.11 125.86 139.13
  Q 125.37 139.13 125.35 138.63
  Q 124.94 127.83 115.77 124.23
  C 111.67 122.61 106.66 123.17 102.28 123.10
  Q 101.75 123.09 101.75 122.56
  L 101.75 119.97
  Q 101.75 119.51 102.21 119.50
  Q 104.03 119.45 106.00 119.54
  C 112.03 119.81 112.09 110.57 105.65 110.96
  A 0.46 0.46 0.0 0 1 105.16 110.57
  C 104.57 106.83 101.64 104.87 98.11 104.16
  Q 90.85 102.71 84.24 101.14
  Q 83.86 101.05 83.99 100.69
  L 85.41 96.78
  A 0.66 0.65 -73.5 0 1 86.16 96.37
  Q 92.63 97.80 99.48 99.26
  C 102.56 99.91 105.59 101.25 107.47 103.83
  C 108.89 105.78 110.46 105.67 112.14 106.92
  Q 117.34 110.76 116.30 117.47
  Q 116.23 117.97 116.70 118.15
  Q 126.22 121.73 129.57 129.86
  Q 130.33 131.70 129.95 129.74
  L 124.58 102.04
  Q 123.28 95.35 125.46 101.81
  Z
  M 78.53 132.26
  A 0.41 0.41 0.0 0 0 78.93 132.75
  L 86.96 132.75
  A 0.41 0.41 0.0 0 0 87.37 132.34
  L 87.36 122.97
  A 0.41 0.41 0.0 0 0 87.03 122.57
  L 81.07 121.36
  A 0.41 0.41 0.0 0 0 80.59 121.69
  L 78.53 132.26
  Z
  M 84.25 160.25
  L 84.25 210.22
  Q 84.25 211.25 84.98 210.52
  L 102.14 193.37
  Q 102.50 193.00 102.50 192.48
  L 102.50 173.02
  Q 102.50 172.51 102.14 172.14
  L 86.63 156.61
  Q 86.13 156.11 85.42 156.11
  L 75.25 156.14
  Q 73.80 156.14 74.64 157.33
  L 75.18 158.11
  Q 76.15 159.50 77.84 159.50
  L 83.50 159.50
  Q 84.25 159.50 84.25 160.25
  Z
  M 107.05 177.03
  A 0.32 0.32 0.0 0 0 106.50 177.26
  L 106.50 188.24
  A 0.32 0.32 0.0 0 0 107.05 188.47
  L 112.51 182.98
  A 0.32 0.32 0.0 0 0 112.51 182.52
  L 107.05 177.03
  Z
  M 116.79 223.90
  C 121.13 223.39 124.66 219.77 124.71 215.39
  Q 124.80 208.99 124.73 201.47
  A 0.30 0.29 67.4 0 0 124.23 201.26
  L 107.51 218.00
  Q 107.05 218.45 107.40 219.00
  Q 110.89 224.58 116.79 223.90
  Z"
/>
<circle fill="#000000" cx="104.50" cy="47.80" r="15.80"/>
<path fill="#000000" d="
  M 125.46 101.81
  Q 123.28 95.35 124.58 102.04
  L 129.95 129.74
  Q 130.33 131.70 129.57 129.86
  Q 126.22 121.73 116.70 118.15
  Q 116.23 117.97 116.30 117.47
  Q 117.34 110.76 112.14 106.92
  C 110.46 105.67 108.89 105.78 107.47 103.83
  C 105.59 101.25 102.56 99.91 99.48 99.26
  Q 92.63 97.80 86.16 96.37
  A 0.66 0.65 -73.5 0 0 85.41 96.78
  L 83.99 100.69
  Q 83.86 101.05 84.24 101.14
  Q 90.85 102.71 98.11 104.16
  C 101.64 104.87 104.57 106.83 105.16 110.57
  A 0.46 0.46 0.0 0 0 105.65 110.96
  C 112.09 110.57 112.03 119.81 106.00 119.54
  Q 104.03 119.45 102.21 119.50
  Q 101.75 119.51 101.75 119.97
  L 101.75 122.56
  Q 101.75 123.09 102.28 123.10
  C 106.66 123.17 111.67 122.61 115.77 124.23
  Q 124.94 127.83 125.35 138.63
  Q 125.37 139.13 125.86 139.13
  Q 158.63 139.11 191.44 139.13
  Q 194.61 139.13 196.14 139.65
  Q 199.43 140.77 199.54 144.31
  C 199.67 148.33 196.48 149.89 192.92 149.83
  Q 179.09 149.62 167.11 149.82
  Q 166.67 149.83 166.36 150.14
  L 134.25 182.24
  Q 133.81 182.68 134.25 183.12
  Q 152.84 201.73 167.51 216.39
  C 171.98 220.85 165.83 226.84 161.20 222.21
  Q 144.50 205.49 128.08 189.07
  A 0.48 0.47 44.6 0 0 127.41 189.07
  Q 110.79 205.69 94.16 222.33
  C 89.66 226.84 83.65 220.80 88.17 216.30
  Q 104.87 199.65 121.35 183.14
  Q 121.74 182.75 121.35 182.36
  L 89.12 150.12
  A 1.23 1.23 0.0 0 0 88.25 149.76
  Q 76.02 149.73 61.51 149.76
  C 58.08 149.77 55.55 147.04 56.12 143.60
  C 56.69 140.17 59.68 139.07 62.82 139.09
  Q 78.47 139.17 93.30 139.11
  A 0.33 0.33 0.0 0 0 93.63 138.78
  L 93.31 119.29
  Q 93.31 118.85 92.87 118.74
  Q 83.95 116.63 73.65 114.56
  C 68.14 113.45 64.71 109.32 66.74 103.67
  Q 71.20 91.28 74.37 82.26
  C 76.24 76.94 80.08 71.76 85.61 69.62
  Q 88.30 68.57 94.49 68.59
  Q 106.35 68.62 117.75 68.67
  C 126.31 68.72 131.96 74.82 134.63 82.35
  Q 143.19 106.48 152.57 132.29
  A 0.34 0.34 0.0 0 1 152.25 132.75
  L 137.19 132.75
  A 0.87 0.87 0.0 0 1 136.37 132.18
  Q 129.98 115.19 125.46 101.81
  Z
  M 154.20 150.30
  A 0.32 0.32 0.0 0 0 153.98 149.75
  L 101.64 149.75
  A 0.32 0.32 0.0 0 0 101.42 150.30
  L 127.58 176.46
  A 0.32 0.32 0.0 0 0 128.04 176.46
  L 154.20 150.30
  Z"
/>
<path fill="#000000" d="
  M 78.53 132.26
  L 80.59 121.69
  A 0.41 0.41 0.0 0 1 81.07 121.36
  L 87.03 122.57
  A 0.41 0.41 0.0 0 1 87.36 122.97
  L 87.37 132.34
  A 0.41 0.41 0.0 0 1 86.96 132.75
  L 78.93 132.75
  A 0.41 0.41 0.0 0 1 78.53 132.26
  Z"
/>
<path fill="#ffffff" d="
  M 154.20 150.30
  L 128.04 176.46
  A 0.32 0.32 0.0 0 1 127.58 176.46
  L 101.42 150.30
  A 0.32 0.32 0.0 0 1 101.64 149.75
  L 153.98 149.75
  A 0.32 0.32 0.0 0 1 154.20 150.30
  Z
  M 125.50 159.50
  L 130.95 159.50
  A 3.37 3.36 -71.3 0 0 133.62 158.18
  Q 134.09 157.57 134.28 157.33
  Q 135.20 156.13 133.68 156.13
  L 116.86 156.12
  A 0.27 0.26 -22.3 0 0 116.67 156.57
  L 124.26 164.12
  Q 124.75 164.61 124.75 163.92
  L 124.75 160.25
  Q 124.75 159.50 125.50 159.50
  Z"
/>
<path fill="#000000" d="
  M 83.50 159.50
  L 77.84 159.50
  Q 76.15 159.50 75.18 158.11
  L 74.64 157.33
  Q 73.80 156.14 75.25 156.14
  L 85.42 156.11
  Q 86.13 156.11 86.63 156.61
  L 102.14 172.14
  Q 102.50 172.51 102.50 173.02
  L 102.50 192.48
  Q 102.50 193.00 102.14 193.37
  L 84.98 210.52
  Q 84.25 211.25 84.25 210.22
  L 84.25 160.25
  Q 84.25 159.50 83.50 159.50
  Z"
/>
<path fill="#000000" d="
  M 124.75 160.25
  L 124.75 163.92
  Q 124.75 164.61 124.26 164.12
  L 116.67 156.57
  A 0.27 0.26 -22.3 0 1 116.86 156.12
  L 133.68 156.13
  Q 135.20 156.13 134.28 157.33
  Q 134.09 157.57 133.62 158.18
  A 3.37 3.36 -71.3 0 1 130.95 159.50
  L 125.50 159.50
  Q 124.75 159.50 124.75 160.25
  Z"
/>
<path fill="#000000" d="
  M 107.05 177.03
  L 112.51 182.52
  A 0.32 0.32 0.0 0 1 112.51 182.98
  L 107.05 188.47
  A 0.32 0.32 0.0 0 1 106.50 188.24
  L 106.50 177.26
  A 0.32 0.32 0.0 0 1 107.05 177.03
  Z"
/>
<path fill="#000000" d="
  M 116.79 223.90
  Q 110.89 224.58 107.40 219.00
  Q 107.05 218.45 107.51 218.00
  L 124.23 201.26
  A 0.30 0.29 67.4 0 1 124.73 201.47
  Q 124.80 208.99 124.71 215.39
  C 124.66 219.77 121.13 223.39 116.79 223.90
  Z"
/>
</svg>
