<?xml version="1.0" encoding="UTF-8" standalone="no"?>
<!DOCTYPE svg PUBLIC "-//W3C//DTD SVG 1.1//EN" "http://www.w3.org/Graphics/SVG/1.1/DTD/svg11.dtd">
<svg xmlns="http://www.w3.org/2000/svg" version="1.1" viewBox="0.00 0.00 256.00 360.00">
<g stroke-width="2.00" fill="none" stroke-linecap="butt">
<path stroke="#808080" vector-effect="non-scaling-stroke" d="
  M 135.48 154.44
  C 136.45 159.45 133.87 164.08 128.77 165.17
  Q 128.26 165.28 128.26 165.80
  Q 128.23 182.46 128.27 200.38
  C 128.28 202.87 127.73 205.20 126.47 207.35
  A 0.34 0.34 0.0 0 0 126.76 207.86
  Q 161.58 207.89 194.97 207.85
  C 198.09 207.85 200.24 205.43 200.25 202.50
  Q 200.27 127.46 200.23 54.21
  Q 200.23 50.37 197.45 48.86
  Q 195.85 48.00 192.41 48.00
  Q 152.54 47.99 114.03 48.01
  C 111.27 48.01 108.65 48.89 108.48 51.99
  Q 108.31 55.18 108.35 58.66
  Q 108.36 59.22 108.92 59.26
  C 115.42 59.74 121.54 64.14 123.69 70.22
  Q 126.83 79.12 121.03 86.96
  A 0.50 0.50 0.0 0 0 121.38 87.76
  C 125.60 88.20 130.39 91.13 134.04 93.37
  A 1.15 1.14 36.4 0 0 135.49 93.16
  Q 139.21 88.98 142.94 84.84
  Q 146.05 81.39 148.30 80.55
  C 158.62 76.71 166.83 88.91 159.53 97.02
  Q 152.10 105.28 144.59 113.47
  C 141.29 117.06 136.07 117.95 131.73 115.32
  Q 130.00 114.27 128.19 113.50
  Q 127.47 113.20 127.62 113.97
  Q 131.53 134.17 135.48 154.44"
/>
<path stroke="#808080" vector-effect="non-scaling-stroke" d="
  M 119.55 76.25
  A 11.80 11.80 0.0 0 0 107.75 64.45
  A 11.80 11.80 0.0 0 0 95.95 76.25
  A 11.80 11.80 0.0 0 0 107.75 88.05
  A 11.80 11.80 0.0 0 0 119.55 76.25"
/>
<path stroke="#808080" vector-effect="non-scaling-stroke" d="
  M 93.14 111.14
  L 90.58 125.93
  Q 90.48 126.50 91.06 126.50
  L 123.77 126.50
  Q 124.29 126.50 124.21 125.99
  L 120.86 104.79
  Q 120.75 104.10 121.36 104.44
  Q 127.67 107.99 133.91 111.39
  C 136.37 112.73 139.24 112.60 141.18 110.48
  Q 147.79 103.23 155.49 94.83
  C 157.53 92.60 158.78 89.59 156.78 86.86
  Q 154.39 83.60 150.60 84.56
  Q 148.74 85.03 146.21 87.90
  Q 141.47 93.25 136.22 99.05
  Q 135.84 99.47 135.35 99.19
  Q 130.26 96.28 124.78 93.49
  C 123.00 92.59 120.61 91.97 118.63 91.92
  Q 109.35 91.72 97.75 91.82
  C 93.35 91.85 90.10 93.76 87.80 97.44
  Q 83.18 104.83 78.85 111.86
  Q 78.55 112.35 78.00 112.19
  L 69.96 109.75
  Q 69.37 109.58 69.37 108.96
  L 69.37 74.49
  A 2.25 2.25 0.0 0 0 68.64 72.83
  Q 67.54 71.83 66.45 71.99
  Q 63.75 72.38 63.75 75.11
  L 63.75 107.50
  Q 63.75 108.05 63.20 108.11
  C 56.00 108.85 56.06 118.49 63.22 119.48
  A 0.76 0.76 0.0 0 1 63.88 120.23
  L 63.88 178.00
  Q 63.88 178.54 63.38 178.73
  Q 56.09 181.50 55.71 189.48
  A 0.49 0.49 0.0 0 0 56.20 190.00
  L 77.06 190.00
  Q 77.74 190.00 77.70 189.32
  Q 77.16 181.34 70.01 178.72
  Q 69.50 178.54 69.50 178.00
  L 69.50 122.03
  Q 69.50 121.44 70.07 121.60
  Q 74.51 122.91 79.04 124.32
  C 81.69 125.14 84.47 124.24 85.92 121.90
  Q 89.38 116.33 92.79 111.00
  Q 93.30 110.21 93.14 111.14"
/>
<path stroke="#808080" vector-effect="non-scaling-stroke" d="
  M 92.23 160.31
  Q 92.27 179.09 92.25 200.95
  C 92.24 208.04 101.63 210.58 104.96 204.47
  Q 105.96 202.62 105.94 199.62
  Q 105.78 180.56 105.90 160.28
  Q 105.91 159.74 106.44 159.74
  L 108.32 159.75
  A 0.55 0.55 0.0 0 1 108.87 160.30
  Q 108.89 179.24 108.86 200.81
  C 108.85 207.95 117.60 210.47 121.43 204.87
  Q 122.56 203.21 122.55 199.77
  Q 122.46 179.95 122.48 160.33
  Q 122.48 159.75 123.06 159.74
  C 125.95 159.69 130.93 160.49 129.95 155.50
  Q 127.51 143.11 125.24 131.36
  A 0.60 0.60 0.0 0 0 124.65 130.88
  L 110.81 130.86
  Q 110.24 130.86 110.31 131.43
  L 111.69 142.87
  Q 111.94 144.94 109.92 145.47
  Q 109.62 145.55 109.31 145.48
  Q 107.56 145.11 107.34 143.33
  L 106.13 133.27
  Q 105.91 131.38 105.52 133.24
  L 104.65 137.43
  A 1.40 1.38 -19.5 0 1 104.34 138.07
  Q 102.95 139.72 101.89 139.33
  Q 99.96 138.62 100.35 136.61
  L 101.34 131.49
  Q 101.48 130.75 100.73 130.75
  L 90.28 130.75
  Q 89.65 130.75 89.54 131.36
  Q 87.24 143.39 84.80 155.82
  Q 84.38 157.99 86.19 159.22
  C 87.55 160.14 90.01 159.71 91.62 159.71
  Q 92.22 159.70 92.23 160.31"
/>
<path stroke="#808080" vector-effect="non-scaling-stroke" d="
  M 182.8496 71.1944
  A 2.58 2.58 0.0 0 0 179.3077 70.3179
  L 165.4533 78.6754
  A 2.58 2.58 0.0 0 0 164.5768 82.2172
  L 164.6904 82.4056
  A 2.58 2.58 0.0 0 0 168.2323 83.2821
  L 182.0867 74.9246
  A 2.58 2.58 0.0 0 0 182.9632 71.3828
  L 182.8496 71.1944"
/>
<path stroke="#808080" vector-effect="non-scaling-stroke" d="
  M 181.6738 88.3943
  A 2.58 2.58 0.0 0 0 178.8342 86.1031
  L 168.3141 87.2274
  A 2.58 2.58 0.0 0 0 166.0229 90.0669
  L 166.0462 90.2857
  A 2.58 2.58 0.0 0 0 168.8858 92.5769
  L 179.4059 91.4526
  A 2.58 2.58 0.0 0 0 181.6971 88.6131
  L 181.6738 88.3943"
/>
<path stroke="#808080" vector-effect="non-scaling-stroke" d="
  M 190.80 134.57
  A 4.85 4.85 0.0 0 0 185.95 129.72
  A 4.85 4.85 0.0 0 0 181.10 134.57
  A 4.85 4.85 0.0 0 0 185.95 139.42
  A 4.85 4.85 0.0 0 0 190.80 134.57"
/>
</g>
<path fill="#ffffff" d="
  M 121.87 0.00
  L 134.24 0.00
  Q 139.12 0.58 143.98 1.20
  Q 175.61 5.19 200.59 22.56
  C 230.59 43.42 251.06 76.41 255.04 112.79
  Q 255.54 117.33 256.00 121.88
  L 256.00 133.23
  Q 253.54 178.70 225.15 211.38
  Q 202.83 237.07 171.17 248.47
  C 128.14 263.97 79.03 255.12 44.37 224.83
  Q 3.91 189.46 0.00 133.88
  L 0.00 122.01
  Q 0.56 117.00 1.19 112.02
  Q 4.67 84.27 19.00 60.86
  Q 24.09 52.55 30.84 44.77
  Q 66.14 4.06 121.87 0.00
  Z
  M 135.48 154.44
  C 136.45 159.45 133.87 164.08 128.77 165.17
  Q 128.26 165.28 128.26 165.80
  Q 128.23 182.46 128.27 200.38
  C 128.28 202.87 127.73 205.20 126.47 207.35
  A 0.34 0.34 0.0 0 0 126.76 207.86
  Q 161.58 207.89 194.97 207.85
  C 198.09 207.85 200.24 205.43 200.25 202.50
  Q 200.27 127.46 200.23 54.21
  Q 200.23 50.37 197.45 48.86
  Q 195.85 48.00 192.41 48.00
  Q 152.54 47.99 114.03 48.01
  C 111.27 48.01 108.65 48.89 108.48 51.99
  Q 108.31 55.18 108.35 58.66
  Q 108.36 59.22 108.92 59.26
  C 115.42 59.74 121.54 64.14 123.69 70.22
  Q 126.83 79.12 121.03 86.96
  A 0.50 0.50 0.0 0 0 121.38 87.76
  C 125.60 88.20 130.39 91.13 134.04 93.37
  A 1.15 1.14 36.4 0 0 135.49 93.16
  Q 139.21 88.98 142.94 84.84
  Q 146.05 81.39 148.30 80.55
  C 158.62 76.71 166.83 88.91 159.53 97.02
  Q 152.10 105.28 144.59 113.47
  C 141.29 117.06 136.07 117.95 131.73 115.32
  Q 130.00 114.27 128.19 113.50
  Q 127.47 113.20 127.62 113.97
  Q 131.53 134.17 135.48 154.44
  Z
  M 119.55 76.25
  A 11.80 11.80 0.0 0 0 107.75 64.45
  A 11.80 11.80 0.0 0 0 95.95 76.25
  A 11.80 11.80 0.0 0 0 107.75 88.05
  A 11.80 11.80 0.0 0 0 119.55 76.25
  Z
  M 93.14 111.14
  L 90.58 125.93
  Q 90.48 126.50 91.06 126.50
  L 123.77 126.50
  Q 124.29 126.50 124.21 125.99
  L 120.86 104.79
  Q 120.75 104.10 121.36 104.44
  Q 127.67 107.99 133.91 111.39
  C 136.37 112.73 139.24 112.60 141.18 110.48
  Q 147.79 103.23 155.49 94.83
  C 157.53 92.60 158.78 89.59 156.78 86.86
  Q 154.39 83.60 150.60 84.56
  Q 148.74 85.03 146.21 87.90
  Q 141.47 93.25 136.22 99.05
  Q 135.84 99.47 135.35 99.19
  Q 130.26 96.28 124.78 93.49
  C 123.00 92.59 120.61 91.97 118.63 91.92
  Q 109.35 91.72 97.75 91.82
  C 93.35 91.85 90.10 93.76 87.80 97.44
  Q 83.18 104.83 78.85 111.86
  Q 78.55 112.35 78.00 112.19
  L 69.96 109.75
  Q 69.37 109.58 69.37 108.96
  L 69.37 74.49
  A 2.25 2.25 0.0 0 0 68.64 72.83
  Q 67.54 71.83 66.45 71.99
  Q 63.75 72.38 63.75 75.11
  L 63.75 107.50
  Q 63.75 108.05 63.20 108.11
  C 56.00 108.85 56.06 118.49 63.22 119.48
  A 0.76 0.76 0.0 0 1 63.88 120.23
  L 63.88 178.00
  Q 63.88 178.54 63.38 178.73
  Q 56.09 181.50 55.71 189.48
  A 0.49 0.49 0.0 0 0 56.20 190.00
  L 77.06 190.00
  Q 77.74 190.00 77.70 189.32
  Q 77.16 181.34 70.01 178.72
  Q 69.50 178.54 69.50 178.00
  L 69.50 122.03
  Q 69.50 121.44 70.07 121.60
  Q 74.51 122.91 79.04 124.32
  C 81.69 125.14 84.47 124.24 85.92 121.90
  Q 89.38 116.33 92.79 111.00
  Q 93.30 110.21 93.14 111.14
  Z
  M 92.23 160.31
  Q 92.27 179.09 92.25 200.95
  C 92.24 208.04 101.63 210.58 104.96 204.47
  Q 105.96 202.62 105.94 199.62
  Q 105.78 180.56 105.90 160.28
  Q 105.91 159.74 106.44 159.74
  L 108.32 159.75
  A 0.55 0.55 0.0 0 1 108.87 160.30
  Q 108.89 179.24 108.86 200.81
  C 108.85 207.95 117.60 210.47 121.43 204.87
  Q 122.56 203.21 122.55 199.77
  Q 122.46 179.95 122.48 160.33
  Q 122.48 159.75 123.06 159.74
  C 125.95 159.69 130.93 160.49 129.95 155.50
  Q 127.51 143.11 125.24 131.36
  A 0.60 0.60 0.0 0 0 124.65 130.88
  L 110.81 130.86
  Q 110.24 130.86 110.31 131.43
  L 111.69 142.87
  Q 111.94 144.94 109.92 145.47
  Q 109.62 145.55 109.31 145.48
  Q 107.56 145.11 107.34 143.33
  L 106.13 133.27
  Q 105.91 131.38 105.52 133.24
  L 104.65 137.43
  A 1.40 1.38 -19.5 0 1 104.34 138.07
  Q 102.95 139.72 101.89 139.33
  Q 99.96 138.62 100.35 136.61
  L 101.34 131.49
  Q 101.48 130.75 100.73 130.75
  L 90.28 130.75
  Q 89.65 130.75 89.54 131.36
  Q 87.24 143.39 84.80 155.82
  Q 84.38 157.99 86.19 159.22
  C 87.55 160.14 90.01 159.71 91.62 159.71
  Q 92.22 159.70 92.23 160.31
  Z"
/>
<path fill="#000000" d="
  M 128.77 165.17
  C 133.87 164.08 136.45 159.45 135.48 154.44
  Q 131.53 134.17 127.62 113.97
  Q 127.47 113.20 128.19 113.50
  Q 130.00 114.27 131.73 115.32
  C 136.07 117.95 141.29 117.06 144.59 113.47
  Q 152.10 105.28 159.53 97.02
  C 166.83 88.91 158.62 76.71 148.30 80.55
  Q 146.05 81.39 142.94 84.84
  Q 139.21 88.98 135.49 93.16
  A 1.15 1.14 36.4 0 1 134.04 93.37
  C 130.39 91.13 125.60 88.20 121.38 87.76
  A 0.50 0.50 0.0 0 1 121.03 86.96
  Q 126.83 79.12 123.69 70.22
  C 121.54 64.14 115.42 59.74 108.92 59.26
  Q 108.36 59.22 108.35 58.66
  Q 108.31 55.18 108.48 51.99
  C 108.65 48.89 111.27 48.01 114.03 48.01
  Q 152.54 47.99 192.41 48.00
  Q 195.85 48.00 197.45 48.86
  Q 200.23 50.37 200.23 54.21
  Q 200.27 127.46 200.25 202.50
  C 200.24 205.43 198.09 207.85 194.97 207.85
  Q 161.58 207.89 126.76 207.86
  A 0.34 0.34 0.0 0 1 126.47 207.35
  C 127.73 205.20 128.28 202.87 128.27 200.38
  Q 128.23 182.46 128.26 165.80
  Q 128.26 165.28 128.77 165.17
  Z
  M 182.8496 71.1944
  A 2.58 2.58 0.0 0 0 179.3077 70.3179
  L 165.4533 78.6754
  A 2.58 2.58 0.0 0 0 164.5768 82.2172
  L 164.6904 82.4056
  A 2.58 2.58 0.0 0 0 168.2323 83.2821
  L 182.0867 74.9246
  A 2.58 2.58 0.0 0 0 182.9632 71.3828
  L 182.8496 71.1944
  Z
  M 181.6738 88.3943
  A 2.58 2.58 0.0 0 0 178.8342 86.1031
  L 168.3141 87.2274
  A 2.58 2.58 0.0 0 0 166.0229 90.0669
  L 166.0462 90.2857
  A 2.58 2.58 0.0 0 0 168.8858 92.5769
  L 179.4059 91.4526
  A 2.58 2.58 0.0 0 0 181.6971 88.6131
  L 181.6738 88.3943
  Z
  M 190.80 134.57
  A 4.85 4.85 0.0 0 0 185.95 129.72
  A 4.85 4.85 0.0 0 0 181.10 134.57
  A 4.85 4.85 0.0 0 0 185.95 139.42
  A 4.85 4.85 0.0 0 0 190.80 134.57
  Z"
/>
<circle fill="#000000" cx="107.75" cy="76.25" r="11.80"/>
<rect fill="#ffffff" x="-10.67" y="-2.69" transform="translate(173.77,76.80) rotate(-31.1)" width="21.34" height="5.38" rx="2.58"/>
<path fill="#000000" d="
  M 92.79 111.00
  Q 89.38 116.33 85.92 121.90
  C 84.47 124.24 81.69 125.14 79.04 124.32
  Q 74.51 122.91 70.07 121.60
  Q 69.50 121.44 69.50 122.03
  L 69.50 178.00
  Q 69.50 178.54 70.01 178.72
  Q 77.16 181.34 77.70 189.32
  Q 77.74 190.00 77.06 190.00
  L 56.20 190.00
  A 0.49 0.49 0.0 0 1 55.71 189.48
  Q 56.09 181.50 63.38 178.73
  Q 63.88 178.54 63.88 178.00
  L 63.88 120.23
  A 0.76 0.76 0.0 0 0 63.22 119.48
  C 56.06 118.49 56.00 108.85 63.20 108.11
  Q 63.75 108.05 63.75 107.50
  L 63.75 75.11
  Q 63.75 72.38 66.45 71.99
  Q 67.54 71.83 68.64 72.83
  A 2.25 2.25 0.0 0 1 69.37 74.49
  L 69.37 108.96
  Q 69.37 109.58 69.96 109.75
  L 78.00 112.19
  Q 78.55 112.35 78.85 111.86
  Q 83.18 104.83 87.80 97.44
  C 90.10 93.76 93.35 91.85 97.75 91.82
  Q 109.35 91.72 118.63 91.92
  C 120.61 91.97 123.00 92.59 124.78 93.49
  Q 130.26 96.28 135.35 99.19
  Q 135.84 99.47 136.22 99.05
  Q 141.47 93.25 146.21 87.90
  Q 148.74 85.03 150.60 84.56
  Q 154.39 83.60 156.78 86.86
  C 158.78 89.59 157.53 92.60 155.49 94.83
  Q 147.79 103.23 141.18 110.48
  C 139.24 112.60 136.37 112.73 133.91 111.39
  Q 127.67 107.99 121.36 104.44
  Q 120.75 104.10 120.86 104.79
  L 124.21 125.99
  Q 124.29 126.50 123.77 126.50
  L 91.06 126.50
  Q 90.48 126.50 90.58 125.93
  L 93.14 111.14
  Q 93.30 110.21 92.79 111.00
  Z"
/>
<rect fill="#ffffff" x="-7.87" y="-2.69" transform="translate(173.86,89.34) rotate(-6.1)" width="15.74" height="5.38" rx="2.58"/>
<circle fill="#ffffff" cx="185.95" cy="134.57" r="4.85"/>
<path fill="#000000" d="
  M 91.62 159.71
  C 90.01 159.71 87.55 160.14 86.19 159.22
  Q 84.38 157.99 84.80 155.82
  Q 87.24 143.39 89.54 131.36
  Q 89.65 130.75 90.28 130.75
  L 100.73 130.75
  Q 101.48 130.75 101.34 131.49
  L 100.35 136.61
  Q 99.96 138.62 101.89 139.33
  Q 102.95 139.72 104.34 138.07
  A 1.40 1.38 -19.5 0 0 104.65 137.43
  L 105.52 133.24
  Q 105.91 131.38 106.13 133.27
  L 107.34 143.33
  Q 107.56 145.11 109.31 145.48
  Q 109.62 145.55 109.92 145.47
  Q 111.94 144.94 111.69 142.87
  L 110.31 131.43
  Q 110.24 130.86 110.81 130.86
  L 124.65 130.88
  A 0.60 0.60 0.0 0 1 125.24 131.36
  Q 127.51 143.11 129.95 155.50
  C 130.93 160.49 125.95 159.69 123.06 159.74
  Q 122.48 159.75 122.48 160.33
  Q 122.46 179.95 122.55 199.77
  Q 122.56 203.21 121.43 204.87
  C 117.60 210.47 108.85 207.95 108.86 200.81
  Q 108.89 179.24 108.87 160.30
  A 0.55 0.55 0.0 0 0 108.32 159.75
  L 106.44 159.74
  Q 105.91 159.74 105.90 160.28
  Q 105.78 180.56 105.94 199.62
  Q 105.96 202.62 104.96 204.47
  C 101.63 210.58 92.24 208.04 92.25 200.95
  Q 92.27 179.09 92.23 160.31
  Q 92.22 159.70 91.62 159.71
  Z"
/>
</svg>
