<?xml version="1.0" encoding="UTF-8" standalone="no"?>
<!DOCTYPE svg PUBLIC "-//W3C//DTD SVG 1.1//EN" "http://www.w3.org/Graphics/SVG/1.1/DTD/svg11.dtd">
<svg xmlns="http://www.w3.org/2000/svg" version="1.1" viewBox="0.00 0.00 256.00 360.00">
<g stroke-width="2.00" fill="none" stroke-linecap="butt">
<path stroke="#808080" vector-effect="non-scaling-stroke" d="
  M 109.26 82.98
  A 18.98 18.98 0.0 0 0 90.28 64.00
  A 18.98 18.98 0.0 0 0 71.30 82.98
  A 18.98 18.98 0.0 0 0 90.28 101.96
  A 18.98 18.98 0.0 0 0 109.26 82.98"
/>
<path stroke="#808080" vector-effect="non-scaling-stroke" d="
  M 55.03 161.45
  Q 52.02 164.02 48.07 166.97
  C 43.56 170.34 40.44 174.04 41.98 179.79
  C 43.37 184.92 48.46 188.13 53.74 187.08
  Q 56.32 186.57 58.87 184.49
  Q 75.89 170.68 90.58 158.93
  A 0.91 0.90 -49.4 0 1 91.59 158.85
  Q 101.42 164.31 112.88 168.17
  C 122.22 171.31 129.73 160.37 123.10 152.85
  Q 121.52 151.05 118.90 150.17
  Q 109.87 147.12 102.37 143.11
  Q 101.92 142.87 101.76 142.39
  Q 99.01 134.29 90.26 134.71
  Q 89.76 134.73 89.40 134.40
  C 84.31 129.80 80.17 124.40 78.02 117.85
  Q 77.59 116.52 77.85 115.13
  C 78.70 110.66 78.65 106.81 76.41 102.81
  Q 73.82 98.18 69.24 96.28
  Q 58.93 92.00 51.07 100.94
  Q 43.37 109.69 38.65 123.64
  Q 34.79 135.01 36.56 146.90
  C 37.97 156.34 45.26 162.62 54.83 161.01
  Q 55.73 160.86 55.03 161.45"
/>
<path stroke="#808080" vector-effect="non-scaling-stroke" d="
  M 155.25 154.50
  L 159.41 165.45
  Q 160.19 167.48 159.62 169.58
  L 154.59 188.43
  Q 153.83 191.26 156.34 192.78
  Q 156.71 193.01 157.14 193.10
  Q 160.48 193.77 161.57 190.54
  Q 163.83 183.87 165.47 175.98
  C 165.73 174.77 166.97 174.50 168.02 174.85
  A 2.29 2.29 0.0 0 1 169.52 176.48
  L 172.71 189.81
  Q 173.54 193.25 177.07 193.15
  Q 177.79 193.13 178.37 192.66
  Q 180.57 190.87 179.90 188.11
  L 176.85 175.55
  A 1.19 1.18 -11.7 0 1 177.81 174.10
  L 189.70 172.18
  A 1.10 1.10 0.0 0 1 190.95 173.53
  L 187.24 188.43
  Q 186.50 191.39 189.19 192.84
  Q 189.64 193.09 190.17 193.11
  Q 193.62 193.25 194.48 189.92
  Q 196.92 180.53 198.94 172.56
  Q 199.06 172.07 199.34 171.71
  Q 199.85 171.05 200.63 171.58
  A 1.62 1.60 -79.8 0 1 201.32 172.59
  Q 203.35 181.56 205.60 190.38
  C 206.82 195.16 213.99 193.62 212.69 188.37
  Q 210.61 180.02 208.47 171.52
  C 207.13 166.18 207.40 160.48 207.21 155.08
  Q 207.18 154.42 207.82 154.24
  C 212.86 152.82 217.27 149.74 219.86 145.47
  Q 220.85 143.85 219.25 142.83
  L 218.76 142.51
  Q 216.82 141.27 215.37 143.05
  C 212.24 146.88 209.37 149.10 204.19 149.05
  Q 188.85 148.92 176.47 149.03
  Q 174.16 149.05 172.51 147.45
  Q 166.79 141.92 161.41 136.24
  Q 160.95 135.76 160.86 135.09
  L 160.21 129.83
  A 1.04 1.03 63.0 0 0 158.43 129.25
  Q 156.67 131.13 155.38 133.50
  A 1.35 1.34 -79.8 0 1 154.41 134.18
  C 151.13 134.68 146.52 137.18 146.02 140.90
  Q 145.78 142.73 145.07 144.44
  Q 144.86 144.94 144.43 145.26
  Q 141.98 147.08 140.33 149.12
  C 138.55 151.31 141.43 153.86 143.15 154.94
  Q 143.65 155.25 144.23 155.17
  L 154.00 153.76
  Q 154.92 153.62 155.25 154.50"
/>
<path stroke="#808080" vector-effect="non-scaling-stroke" d="
  M 143.73 179.58
  A 4.71 4.71 0.0 0 0 139.02 174.87
  L 113.56 174.87
  A 4.71 4.71 0.0 0 0 108.85 179.58
  L 108.85 187.04
  A 4.71 4.71 0.0 0 0 113.56 191.75
  L 139.02 191.75
  A 4.71 4.71 0.0 0 0 143.73 187.04
  L 143.73 179.58"
/>
</g>
<path fill="#ffffff" d="
  M 121.87 0.00
  L 134.24 0.00
  Q 139.12 0.58 143.98 1.20
  Q 175.51 5.18 200.53 22.52
  C 230.49 43.30 251.10 76.37 255.07 112.96
  Q 255.58 117.66 256.00 122.38
  L 256.00 133.23
  Q 253.60 177.88 226.18 210.17
  Q 201.00 239.82 163.98 250.82
  C 122.79 263.05 76.94 253.30 44.37 224.83
  Q 3.91 189.46 0.00 133.88
  L 0.00 122.01
  Q 0.56 117.00 1.19 112.02
  Q 4.67 84.27 19.00 60.86
  Q 24.09 52.55 30.84 44.77
  Q 66.14 4.06 121.87 0.00
  Z
  M 109.26 82.98
  A 18.98 18.98 0.0 0 0 90.28 64.00
  A 18.98 18.98 0.0 0 0 71.30 82.98
  A 18.98 18.98 0.0 0 0 90.28 101.96
  A 18.98 18.98 0.0 0 0 109.26 82.98
  Z
  M 55.03 161.45
  Q 52.02 164.02 48.07 166.97
  C 43.56 170.34 40.44 174.04 41.98 179.79
  C 43.37 184.92 48.46 188.13 53.74 187.08
  Q 56.32 186.57 58.87 184.49
  Q 75.89 170.68 90.58 158.93
  A 0.91 0.90 -49.4 0 1 91.59 158.85
  Q 101.42 164.31 112.88 168.17
  C 122.22 171.31 129.73 160.37 123.10 152.85
  Q 121.52 151.05 118.90 150.17
  Q 109.87 147.12 102.37 143.11
  Q 101.92 142.87 101.76 142.39
  Q 99.01 134.29 90.26 134.71
  Q 89.76 134.73 89.40 134.40
  C 84.31 129.80 80.17 124.40 78.02 117.85
  Q 77.59 116.52 77.85 115.13
  C 78.70 110.66 78.65 106.81 76.41 102.81
  Q 73.82 98.18 69.24 96.28
  Q 58.93 92.00 51.07 100.94
  Q 43.37 109.69 38.65 123.64
  Q 34.79 135.01 36.56 146.90
  C 37.97 156.34 45.26 162.62 54.83 161.01
  Q 55.73 160.86 55.03 161.45
  Z
  M 155.25 154.50
  L 159.41 165.45
  Q 160.19 167.48 159.62 169.58
  L 154.59 188.43
  Q 153.83 191.26 156.34 192.78
  Q 156.71 193.01 157.14 193.10
  Q 160.48 193.77 161.57 190.54
  Q 163.83 183.87 165.47 175.98
  C 165.73 174.77 166.97 174.50 168.02 174.85
  A 2.29 2.29 0.0 0 1 169.52 176.48
  L 172.71 189.81
  Q 173.54 193.25 177.07 193.15
  Q 177.79 193.13 178.37 192.66
  Q 180.57 190.87 179.90 188.11
  L 176.85 175.55
  A 1.19 1.18 -11.7 0 1 177.81 174.10
  L 189.70 172.18
  A 1.10 1.10 0.0 0 1 190.95 173.53
  L 187.24 188.43
  Q 186.50 191.39 189.19 192.84
  Q 189.64 193.09 190.17 193.11
  Q 193.62 193.25 194.48 189.92
  Q 196.92 180.53 198.94 172.56
  Q 199.06 172.07 199.34 171.71
  Q 199.85 171.05 200.63 171.58
  A 1.62 1.60 -79.8 0 1 201.32 172.59
  Q 203.35 181.56 205.60 190.38
  C 206.82 195.16 213.99 193.62 212.69 188.37
  Q 210.61 180.02 208.47 171.52
  C 207.13 166.18 207.40 160.48 207.21 155.08
  Q 207.18 154.42 207.82 154.24
  C 212.86 152.82 217.27 149.74 219.86 145.47
  Q 220.85 143.85 219.25 142.83
  L 218.76 142.51
  Q 216.82 141.27 215.37 143.05
  C 212.24 146.88 209.37 149.10 204.19 149.05
  Q 188.85 148.92 176.47 149.03
  Q 174.16 149.05 172.51 147.45
  Q 166.79 141.92 161.41 136.24
  Q 160.95 135.76 160.86 135.09
  L 160.21 129.83
  A 1.04 1.03 63.0 0 0 158.43 129.25
  Q 156.67 131.13 155.38 133.50
  A 1.35 1.34 -79.8 0 1 154.41 134.18
  C 151.13 134.68 146.52 137.18 146.02 140.90
  Q 145.78 142.73 145.07 144.44
  Q 144.86 144.94 144.43 145.26
  Q 141.98 147.08 140.33 149.12
  C 138.55 151.31 141.43 153.86 143.15 154.94
  Q 143.65 155.25 144.23 155.17
  L 154.00 153.76
  Q 154.92 153.62 155.25 154.50
  Z
  M 143.73 179.58
  A 4.71 4.71 0.0 0 0 139.02 174.87
  L 113.56 174.87
  A 4.71 4.71 0.0 0 0 108.85 179.58
  L 108.85 187.04
  A 4.71 4.71 0.0 0 0 113.56 191.75
  L 139.02 191.75
  A 4.71 4.71 0.0 0 0 143.73 187.04
  L 143.73 179.58
  Z"
/>
<circle fill="#000000" cx="90.28" cy="82.98" r="18.98"/>
<path fill="#000000" d="
  M 54.83 161.01
  C 45.26 162.62 37.97 156.34 36.56 146.90
  Q 34.79 135.01 38.65 123.64
  Q 43.37 109.69 51.07 100.94
  Q 58.93 92.00 69.24 96.28
  Q 73.82 98.18 76.41 102.81
  C 78.65 106.81 78.70 110.66 77.85 115.13
  Q 77.59 116.52 78.02 117.85
  C 80.17 124.40 84.31 129.80 89.40 134.40
  Q 89.76 134.73 90.26 134.71
  Q 99.01 134.29 101.76 142.39
  Q 101.92 142.87 102.37 143.11
  Q 109.87 147.12 118.90 150.17
  Q 121.52 151.05 123.10 152.85
  C 129.73 160.37 122.22 171.31 112.88 168.17
  Q 101.42 164.31 91.59 158.85
  A 0.91 0.90 -49.4 0 0 90.58 158.93
  Q 75.89 170.68 58.87 184.49
  Q 56.32 186.57 53.74 187.08
  C 48.46 188.13 43.37 184.92 41.98 179.79
  C 40.44 174.04 43.56 170.34 48.07 166.97
  Q 52.02 164.02 55.03 161.45
  Q 55.73 160.86 54.83 161.01
  Z"
/>
<path fill="#000000" d="
  M 155.25 154.50
  Q 154.92 153.62 154.00 153.76
  L 144.23 155.17
  Q 143.65 155.25 143.15 154.94
  C 141.43 153.86 138.55 151.31 140.33 149.12
  Q 141.98 147.08 144.43 145.26
  Q 144.86 144.94 145.07 144.44
  Q 145.78 142.73 146.02 140.90
  C 146.52 137.18 151.13 134.68 154.41 134.18
  A 1.35 1.34 -79.8 0 0 155.38 133.50
  Q 156.67 131.13 158.43 129.25
  A 1.04 1.03 63.0 0 1 160.21 129.83
  L 160.86 135.09
  Q 160.95 135.76 161.41 136.24
  Q 166.79 141.92 172.51 147.45
  Q 174.16 149.05 176.47 149.03
  Q 188.85 148.92 204.19 149.05
  C 209.37 149.10 212.24 146.88 215.37 143.05
  Q 216.82 141.27 218.76 142.51
  L 219.25 142.83
  Q 220.85 143.85 219.86 145.47
  C 217.27 149.74 212.86 152.82 207.82 154.24
  Q 207.18 154.42 207.21 155.08
  C 207.40 160.48 207.13 166.18 208.47 171.52
  Q 210.61 180.02 212.69 188.37
  C 213.99 193.62 206.82 195.16 205.60 190.38
  Q 203.35 181.56 201.32 172.59
  A 1.62 1.60 -79.8 0 0 200.63 171.58
  Q 199.85 171.05 199.34 171.71
  Q 199.06 172.07 198.94 172.56
  Q 196.92 180.53 194.48 189.92
  Q 193.62 193.25 190.17 193.11
  Q 189.64 193.09 189.19 192.84
  Q 186.50 191.39 187.24 188.43
  L 190.95 173.53
  A 1.10 1.10 0.0 0 0 189.70 172.18
  L 177.81 174.10
  A 1.19 1.18 -11.7 0 0 176.85 175.55
  L 179.90 188.11
  Q 180.57 190.87 178.37 192.66
  Q 177.79 193.13 177.07 193.15
  Q 173.54 193.25 172.71 189.81
  L 169.52 176.48
  A 2.29 2.29 0.0 0 0 168.02 174.85
  C 166.97 174.50 165.73 174.77 165.47 175.98
  Q 163.83 183.87 161.57 190.54
  Q 160.48 193.77 157.14 193.10
  Q 156.71 193.01 156.34 192.78
  Q 153.83 191.26 154.59 188.43
  L 159.62 169.58
  Q 160.19 167.48 159.41 165.45
  L 155.25 154.50
  Z"
/>
<rect fill="#000000" x="108.85" y="174.87" width="34.88" height="16.88" rx="4.71"/>
</svg>
