<?xml version="1.0" encoding="UTF-8" standalone="no"?>
<!DOCTYPE svg PUBLIC "-//W3C//DTD SVG 1.1//EN" "http://www.w3.org/Graphics/SVG/1.1/DTD/svg11.dtd">
<svg xmlns="http://www.w3.org/2000/svg" version="1.1" viewBox="0.00 0.00 256.00 360.00">
<g stroke-width="2.00" fill="none" stroke-linecap="butt">
<path stroke="#808080" vector-effect="non-scaling-stroke" d="
  M 125.78 91.42
  Q 132.39 99.31 140.12 108.71
  C 143.82 113.21 148.55 112.61 151.60 108.17
  Q 159.22 97.08 165.44 88.09
  C 170.38 80.93 159.83 73.35 154.68 80.84
  Q 150.03 87.63 145.56 94.10
  Q 145.23 94.58 144.86 94.13
  L 135.84 83.16
  Q 134.82 81.93 136.08 82.91
  L 142.38 87.86
  Q 142.85 88.23 143.19 87.74
  Q 146.81 82.51 150.34 77.43
  Q 151.32 76.03 152.58 74.95
  A 0.42 0.42 0.0 0 0 152.52 74.27
  Q 150.46 73.03 148.70 72.76
  C 137.67 71.06 125.48 70.85 113.93 70.46
  Q 113.40 70.44 113.15 69.97
  Q 112.53 68.79 111.24 68.58
  Q 108.06 68.06 104.70 67.91
  A 0.58 0.58 0.0 0 1 104.14 67.27
  L 105.63 50.45
  Q 105.80 48.49 103.93 47.89
  Q 103.69 47.81 103.43 47.82
  Q 101.03 47.92 100.82 50.31
  L 99.35 66.97
  Q 99.32 67.33 98.95 67.30
  L 96.49 67.10
  Q 95.94 67.05 95.99 66.50
  L 98.46 38.88
  Q 98.67 36.45 96.27 35.99
  Q 96.01 35.94 95.74 35.99
  Q 93.87 36.36 93.70 38.26
  L 91.21 66.00
  Q 91.15 66.60 90.55 66.55
  C 87.93 66.33 83.34 65.06 82.94 69.31
  Q 81.68 82.39 80.46 95.26
  Q 80.40 95.86 79.79 95.84
  C 77.65 95.75 73.47 94.29 73.10 97.89
  Q 72.61 102.73 71.98 107.68
  C 71.59 110.82 76.39 110.71 78.23 110.80
  Q 78.85 110.83 78.83 111.45
  C 78.76 114.76 77.02 119.37 82.11 119.86
  Q 94.57 121.06 105.60 122.09
  Q 107.48 122.26 108.44 120.91
  Q 108.82 120.38 109.46 120.45
  L 113.18 120.85
  Q 113.79 120.91 113.77 121.52
  Q 113.14 139.07 112.60 158.46
  Q 112.52 161.33 111.53 164.05
  Q 106.28 178.42 100.95 193.36
  C 97.34 203.48 112.12 208.78 115.75 198.17
  Q 121.20 182.23 126.48 167.39
  Q 127.57 164.34 127.71 161.16
  Q 128.33 147.51 129.11 132.95
  Q 129.13 132.52 129.56 132.56
  L 132.31 132.80
  Q 132.90 132.85 133.10 133.40
  Q 137.26 144.95 141.33 155.74
  Q 142.60 159.09 142.83 162.52
  Q 143.99 179.78 145.36 196.94
  C 146.17 207.09 161.76 206.03 160.82 194.95
  Q 159.43 178.50 158.24 159.97
  Q 157.99 156.08 156.75 152.75
  Q 153.32 143.52 150.29 135.26
  Q 149.66 133.54 149.83 131.76
  Q 150.50 124.64 150.97 118.04
  Q 151.03 117.17 150.24 117.54
  Q 145.15 119.95 140.28 117.08
  Q 137.68 115.55 135.26 110.72
  Q 130.12 100.50 125.50 91.60
  Q 124.81 90.27 125.78 91.42"
/>
<path stroke="#808080" vector-effect="non-scaling-stroke" d="
  M 152.90 56.30
  A 13.17 13.17 0.0 0 0 139.73 43.13
  A 13.17 13.17 0.0 0 0 126.56 56.30
  A 13.17 13.17 0.0 0 0 139.73 69.47
  A 13.17 13.17 0.0 0 0 152.90 56.30"
/>
<path stroke="#808080" vector-effect="non-scaling-stroke" d="
  M 91.75 76.80
  A 2.55 2.55 0.0 0 0 89.20 74.25
  A 2.55 2.55 0.0 0 0 86.65 76.80
  A 2.55 2.55 0.0 0 0 89.20 79.35
  A 2.55 2.55 0.0 0 0 91.75 76.80"
/>
<path stroke="#808080" vector-effect="non-scaling-stroke" d="
  M 117.01 77.61
  L 113.19 77.25
  A 0.29 0.29 0.0 0 0 112.87 77.51
  L 109.31 115.18
  A 0.75 0.59 -84.6 0 0 109.83 115.98
  L 113.05 116.29
  A 0.75 0.59 -84.6 0 0 113.71 115.60
  L 117.27 77.92
  A 0.29 0.29 0.0 0 0 117.01 77.61"
/>
<path stroke="#808080" vector-effect="non-scaling-stroke" d="
  M 90.67 86.30
  A 2.56 2.56 0.0 0 0 88.11 83.74
  A 2.56 2.56 0.0 0 0 85.55 86.30
  A 2.56 2.56 0.0 0 0 88.11 88.86
  A 2.56 2.56 0.0 0 0 90.67 86.30"
/>
</g>
<path fill="#ffffff" d="
  M 121.88 0.00
  L 134.24 0.00
  Q 139.12 0.58 143.98 1.20
  Q 175.53 5.19 200.60 22.56
  C 231.67 44.10 250.92 77.01 255.26 114.27
  C 255.55 116.80 255.52 119.39 256.00 121.88
  L 256.00 133.23
  Q 253.60 177.81 226.17 210.17
  C 198.89 242.37 158.38 259.26 116.27 255.43
  C 89.88 253.03 64.50 242.42 44.37 224.83
  Q 3.91 189.46 0.00 133.88
  L 0.00 122.01
  Q 0.41 118.59 0.70 115.17
  Q 0.99 111.68 1.56 108.20
  C 7.46 72.14 27.47 40.75 58.32 20.61
  Q 83.22 4.36 114.03 0.96
  Q 117.95 0.52 121.88 0.00
  Z
  M 125.78 91.42
  Q 132.39 99.31 140.12 108.71
  C 143.82 113.21 148.55 112.61 151.60 108.17
  Q 159.22 97.08 165.44 88.09
  C 170.38 80.93 159.83 73.35 154.68 80.84
  Q 150.03 87.63 145.56 94.10
  Q 145.23 94.58 144.86 94.13
  L 135.84 83.16
  Q 134.82 81.93 136.08 82.91
  L 142.38 87.86
  Q 142.85 88.23 143.19 87.74
  Q 146.81 82.51 150.34 77.43
  Q 151.32 76.03 152.58 74.95
  A 0.42 0.42 0.0 0 0 152.52 74.27
  Q 150.46 73.03 148.70 72.76
  C 137.67 71.06 125.48 70.85 113.93 70.46
  Q 113.40 70.44 113.15 69.97
  Q 112.53 68.79 111.24 68.58
  Q 108.06 68.06 104.70 67.91
  A 0.58 0.58 0.0 0 1 104.14 67.27
  L 105.63 50.45
  Q 105.80 48.49 103.93 47.89
  Q 103.69 47.81 103.43 47.82
  Q 101.03 47.92 100.82 50.31
  L 99.35 66.97
  Q 99.32 67.33 98.95 67.30
  L 96.49 67.10
  Q 95.94 67.05 95.99 66.50
  L 98.46 38.88
  Q 98.67 36.45 96.27 35.99
  Q 96.01 35.94 95.74 35.99
  Q 93.87 36.36 93.70 38.26
  L 91.21 66.00
  Q 91.15 66.60 90.55 66.55
  C 87.93 66.33 83.34 65.06 82.94 69.31
  Q 81.68 82.39 80.46 95.26
  Q 80.40 95.86 79.79 95.84
  C 77.65 95.75 73.47 94.29 73.10 97.89
  Q 72.61 102.73 71.98 107.68
  C 71.59 110.82 76.39 110.71 78.23 110.80
  Q 78.85 110.83 78.83 111.45
  C 78.76 114.76 77.02 119.37 82.11 119.86
  Q 94.57 121.06 105.60 122.09
  Q 107.48 122.26 108.44 120.91
  Q 108.82 120.38 109.46 120.45
  L 113.18 120.85
  Q 113.79 120.91 113.77 121.52
  Q 113.14 139.07 112.60 158.46
  Q 112.52 161.33 111.53 164.05
  Q 106.28 178.42 100.95 193.36
  C 97.34 203.48 112.12 208.78 115.75 198.17
  Q 121.20 182.23 126.48 167.39
  Q 127.57 164.34 127.71 161.16
  Q 128.33 147.51 129.11 132.95
  Q 129.13 132.52 129.56 132.56
  L 132.31 132.80
  Q 132.90 132.85 133.10 133.40
  Q 137.26 144.95 141.33 155.74
  Q 142.60 159.09 142.83 162.52
  Q 143.99 179.78 145.36 196.94
  C 146.17 207.09 161.76 206.03 160.82 194.95
  Q 159.43 178.50 158.24 159.97
  Q 157.99 156.08 156.75 152.75
  Q 153.32 143.52 150.29 135.26
  Q 149.66 133.54 149.83 131.76
  Q 150.50 124.64 150.97 118.04
  Q 151.03 117.17 150.24 117.54
  Q 145.15 119.95 140.28 117.08
  Q 137.68 115.55 135.26 110.72
  Q 130.12 100.50 125.50 91.60
  Q 124.81 90.27 125.78 91.42
  Z
  M 152.90 56.30
  A 13.17 13.17 0.0 0 0 139.73 43.13
  A 13.17 13.17 0.0 0 0 126.56 56.30
  A 13.17 13.17 0.0 0 0 139.73 69.47
  A 13.17 13.17 0.0 0 0 152.90 56.30
  Z"
/>
<path fill="#000000" d="
  M 125.50 91.60
  Q 130.12 100.50 135.26 110.72
  Q 137.68 115.55 140.28 117.08
  Q 145.15 119.95 150.24 117.54
  Q 151.03 117.17 150.97 118.04
  Q 150.50 124.64 149.83 131.76
  Q 149.66 133.54 150.29 135.26
  Q 153.32 143.52 156.75 152.75
  Q 157.99 156.08 158.24 159.97
  Q 159.43 178.50 160.82 194.95
  C 161.76 206.03 146.17 207.09 145.36 196.94
  Q 143.99 179.78 142.83 162.52
  Q 142.60 159.09 141.33 155.74
  Q 137.26 144.95 133.10 133.40
  Q 132.90 132.85 132.31 132.80
  L 129.56 132.56
  Q 129.13 132.52 129.11 132.95
  Q 128.33 147.51 127.71 161.16
  Q 127.57 164.34 126.48 167.39
  Q 121.20 182.23 115.75 198.17
  C 112.12 208.78 97.34 203.48 100.95 193.36
  Q 106.28 178.42 111.53 164.05
  Q 112.52 161.33 112.60 158.46
  Q 113.14 139.07 113.77 121.52
  Q 113.79 120.91 113.18 120.85
  L 109.46 120.45
  Q 108.82 120.38 108.44 120.91
  Q 107.48 122.26 105.60 122.09
  Q 94.57 121.06 82.11 119.86
  C 77.02 119.37 78.76 114.76 78.83 111.45
  Q 78.85 110.83 78.23 110.80
  C 76.39 110.71 71.59 110.82 71.98 107.68
  Q 72.61 102.73 73.10 97.89
  C 73.47 94.29 77.65 95.75 79.79 95.84
  Q 80.40 95.86 80.46 95.26
  Q 81.68 82.39 82.94 69.31
  C 83.34 65.06 87.93 66.33 90.55 66.55
  Q 91.15 66.60 91.21 66.00
  L 93.70 38.26
  Q 93.87 36.36 95.74 35.99
  Q 96.01 35.94 96.27 35.99
  Q 98.67 36.45 98.46 38.88
  L 95.99 66.50
  Q 95.94 67.05 96.49 67.10
  L 98.95 67.30
  Q 99.32 67.33 99.35 66.97
  L 100.82 50.31
  Q 101.03 47.92 103.43 47.82
  Q 103.69 47.81 103.93 47.89
  Q 105.80 48.49 105.63 50.45
  L 104.14 67.27
  A 0.58 0.58 0.0 0 0 104.70 67.91
  Q 108.06 68.06 111.24 68.58
  Q 112.53 68.79 113.15 69.97
  Q 113.40 70.44 113.93 70.46
  C 125.48 70.85 137.67 71.06 148.70 72.76
  Q 150.46 73.03 152.52 74.27
  A 0.42 0.42 0.0 0 1 152.58 74.95
  Q 151.32 76.03 150.34 77.43
  Q 146.81 82.51 143.19 87.74
  Q 142.85 88.23 142.38 87.86
  L 136.08 82.91
  Q 134.82 81.93 135.84 83.16
  L 144.86 94.13
  Q 145.23 94.58 145.56 94.10
  Q 150.03 87.63 154.68 80.84
  C 159.83 73.35 170.38 80.93 165.44 88.09
  Q 159.22 97.08 151.60 108.17
  C 148.55 112.61 143.82 113.21 140.12 108.71
  Q 132.39 99.31 125.78 91.42
  Q 124.81 90.27 125.50 91.60
  Z
  M 91.75 76.80
  A 2.55 2.55 0.0 0 0 89.20 74.25
  A 2.55 2.55 0.0 0 0 86.65 76.80
  A 2.55 2.55 0.0 0 0 89.20 79.35
  A 2.55 2.55 0.0 0 0 91.75 76.80
  Z
  M 117.01 77.61
  L 113.19 77.25
  A 0.29 0.29 0.0 0 0 112.87 77.51
  L 109.31 115.18
  A 0.75 0.59 -84.6 0 0 109.83 115.98
  L 113.05 116.29
  A 0.75 0.59 -84.6 0 0 113.71 115.60
  L 117.27 77.92
  A 0.29 0.29 0.0 0 0 117.01 77.61
  Z
  M 90.67 86.30
  A 2.56 2.56 0.0 0 0 88.11 83.74
  A 2.56 2.56 0.0 0 0 85.55 86.30
  A 2.56 2.56 0.0 0 0 88.11 88.86
  A 2.56 2.56 0.0 0 0 90.67 86.30
  Z"
/>
<circle fill="#000000" cx="139.73" cy="56.30" r="13.17"/>
<circle fill="#ffffff" cx="89.20" cy="76.80" r="2.55"/>
<path fill="#ffffff" d="
  M 117.01 77.61
  A 0.29 0.29 0.0 0 1 117.27 77.92
  L 113.71 115.60
  A 0.75 0.59 -84.6 0 1 113.05 116.29
  L 109.83 115.98
  A 0.75 0.59 -84.6 0 1 109.31 115.18
  L 112.87 77.51
  A 0.29 0.29 0.0 0 1 113.19 77.25
  L 117.01 77.61
  Z"
/>
<circle fill="#ffffff" cx="88.11" cy="86.30" r="2.56"/>
</svg>
