<?xml version="1.0" encoding="UTF-8" standalone="no"?>
<!DOCTYPE svg PUBLIC "-//W3C//DTD SVG 1.1//EN" "http://www.w3.org/Graphics/SVG/1.1/DTD/svg11.dtd">
<svg xmlns="http://www.w3.org/2000/svg" version="1.1" viewBox="0.00 0.00 264.00 360.00">
<circle fill="#000000" cx="127.88" cy="60.29" r="15.84"/>
<path fill="#000000" d="
  M 108.48 98.18
  Q 107.04 101.22 106.29 104.75
  C 103.81 116.34 103.64 128.66 104.45 140.90
  C 105.02 149.55 93.45 150.33 93.08 141.48
  C 92.40 125.42 92.28 108.48 97.99 94.05
  C 100.59 87.46 106.53 80.19 114.37 80.21
  Q 127.96 80.24 141.26 80.20
  C 151.79 80.16 157.75 91.74 159.97 100.41
  C 163.43 113.92 163.45 128.51 162.65 142.03
  C 162.18 150.16 150.77 149.24 151.34 141.39
  Q 152.64 123.38 150.16 108.03
  Q 149.27 102.53 147.20 98.06
  Q 146.93 97.47 146.93 98.12
  Q 146.97 149.40 146.96 199.10
  Q 146.95 204.82 146.02 206.89
  C 142.24 215.27 129.46 212.40 129.49 202.92
  Q 129.57 173.22 129.41 140.50
  Q 129.41 139.37 128.28 139.37
  L 127.25 139.38
  Q 126.27 139.38 126.27 140.36
  Q 126.21 173.09 126.27 202.50
  C 126.30 214.88 108.91 214.68 108.90 203.05
  Q 108.88 159.39 108.93 98.28
  Q 108.93 97.21 108.48 98.18
  Z"
/>
</svg>
