<?xml version="1.0" encoding="UTF-8" standalone="no"?>
<!DOCTYPE svg PUBLIC "-//W3C//DTD SVG 1.1//EN" "http://www.w3.org/Graphics/SVG/1.1/DTD/svg11.dtd">
<svg xmlns="http://www.w3.org/2000/svg" version="1.1" viewBox="0.00 0.00 256.00 360.00">
<g stroke-width="2.00" fill="none" stroke-linecap="butt">
<path stroke="#808080" vector-effect="non-scaling-stroke" d="
  M 65.38 71.13
  Q 64.52 79.86 70.35 85.21
  C 81.44 95.36 98.68 86.08 96.68 71.20
  A 1.51 1.45 58.0 0 1 96.88 70.26
  C 98.28 67.99 97.92 65.35 97.88 62.75
  Q 97.87 62.30 98.18 61.97
  Q 104.46 55.17 99.97 47.98
  Q 96.91 43.06 90.10 43.07
  Q 89.54 43.07 89.09 42.75
  Q 81.07 37.08 72.95 42.82
  Q 72.51 43.13 71.98 43.11
  Q 65.82 42.88 62.53 47.52
  Q 57.37 54.82 64.02 62.17
  Q 64.35 62.54 64.36 63.03
  C 64.45 65.22 63.83 68.17 65.12 70.10
  Q 65.44 70.57 65.38 71.13"
/>
<path stroke="#808080" vector-effect="non-scaling-stroke" d="
  M 101.45 121.55
  C 103.52 124.57 105.69 129.73 109.63 130.47
  Q 116.99 131.86 124.40 133.13
  Q 124.88 133.21 124.88 133.71
  C 124.88 134.35 124.53 134.93 124.67 135.60
  C 125.09 137.79 127.93 139.00 129.55 137.31
  Q 130.48 136.35 130.78 134.85
  Q 130.90 134.28 131.49 134.19
  C 137.84 133.27 139.53 126.62 135.15 122.14
  A 0.96 0.95 -59.0 0 1 134.92 121.20
  L 137.93 111.39
  Q 138.10 110.84 138.66 110.69
  C 147.97 108.12 152.32 97.41 151.87 88.50
  C 151.34 78.05 141.73 73.29 134.40 81.78
  C 128.62 88.46 125.13 101.27 132.00 108.53
  Q 132.46 109.02 132.26 109.67
  L 129.19 119.76
  Q 129.03 120.26 128.51 120.17
  L 115.83 117.86
  A 1.81 1.78 77.4 0 1 114.66 117.10
  Q 107.73 106.84 100.60 95.85
  C 99.32 93.89 97.14 92.65 94.85 92.65
  Q 82.75 92.63 67.47 92.59
  C 64.63 92.59 62.30 94.11 61.13 96.68
  Q 50.25 120.61 38.79 145.60
  C 36.00 151.70 41.91 157.61 47.87 154.78
  Q 50.11 153.72 51.79 149.91
  Q 54.45 143.83 57.32 137.65
  Q 57.35 137.57 57.43 137.55
  Q 57.50 137.54 57.54 137.59
  Q 57.61 137.69 57.59 137.81
  Q 54.97 150.99 52.10 163.65
  C 50.58 170.36 57.62 168.84 61.32 168.84
  Q 61.88 168.85 61.88 169.41
  Q 61.88 190.55 61.88 211.37
  C 61.88 222.85 78.12 222.70 78.12 211.58
  Q 78.14 190.61 78.12 169.20
  A 0.33 0.33 0.0 0 1 78.45 168.87
  L 83.73 168.86
  Q 84.00 168.86 84.00 169.13
  Q 83.99 188.12 84.01 207.28
  C 84.01 212.06 83.60 214.89 86.58 217.72
  C 91.87 222.75 100.25 219.00 100.25 211.74
  Q 100.25 188.98 100.25 169.49
  Q 100.25 168.79 100.95 168.81
  Q 103.73 168.91 106.72 168.87
  C 109.19 168.84 110.63 166.79 110.13 164.47
  Q 107.18 150.71 104.40 137.49
  A 0.78 0.76 83.9 0 0 103.65 136.87
  L 95.07 136.87
  Q 94.50 136.86 94.50 137.43
  L 94.50 153.25
  A 1.75 1.75 0.0 0 1 92.75 155.00
  L 69.58 155.00
  A 1.96 1.96 0.0 0 1 67.62 153.04
  L 67.62 137.50
  Q 67.62 136.88 67.00 136.88
  L 58.26 136.87
  Q 57.83 136.87 57.92 136.45
  L 59.61 128.70
  Q 59.73 128.13 60.31 128.13
  L 67.17 128.12
  A 0.46 0.45 -0.6 0 0 67.63 127.66
  Q 67.59 119.79 67.63 111.80
  C 67.66 106.73 70.95 104.45 75.62 104.56
  Q 81.36 104.69 87.17 104.56
  C 91.93 104.45 94.63 107.64 94.55 112.26
  Q 94.42 119.95 94.53 127.90
  Q 94.54 128.12 94.76 128.12
  L 102.21 128.14
  Q 102.41 128.14 102.36 127.95
  L 101.03 121.73
  Q 100.78 120.58 101.45 121.55"
/>
<path stroke="#808080" vector-effect="non-scaling-stroke" d="
  M 166.38 184.31
  L 166.39 207.54
  Q 166.39 208.17 165.76 208.17
  Q 161.00 208.12 156.06 208.12
  C 151.71 208.13 148.61 211.44 149.76 215.74
  C 150.74 219.39 154.01 220.09 157.50 220.06
  Q 175.41 219.92 193.71 220.04
  Q 196.99 220.06 198.57 218.84
  Q 201.28 216.75 200.88 213.58
  Q 200.22 208.21 194.52 208.14
  Q 189.86 208.08 184.74 208.16
  Q 184.13 208.17 184.13 207.55
  L 184.12 184.12
  A 0.38 0.37 -0.0 0 1 184.50 183.75
  L 210.75 183.75
  A 3.25 3.25 0.0 0 0 214.00 180.50
  L 214.00 153.25
  A 3.50 3.50 0.0 0 0 210.50 149.75
  L 200.22 149.75
  Q 199.62 149.75 199.62 149.15
  Q 199.58 139.21 199.66 129.79
  C 199.68 127.56 198.40 125.81 196.00 125.85
  Q 192.72 125.91 189.71 125.85
  Q 189.13 125.83 189.13 125.25
  L 189.12 102.05
  A 3.43 3.42 -90.0 0 0 185.70 98.62
  L 164.58 98.63
  A 3.20 3.19 0.0 0 0 161.38 101.82
  L 161.37 125.24
  Q 161.37 125.92 160.69 125.91
  Q 157.74 125.83 155.06 125.87
  Q 150.83 125.93 150.86 129.50
  Q 150.91 139.14 150.86 149.36
  A 0.40 0.40 0.0 0 1 150.47 149.75
  L 139.81 149.76
  A 3.18 3.18 0.0 0 0 136.63 152.94
  L 136.62 180.17
  Q 136.62 183.75 140.20 183.75
  L 165.81 183.75
  Q 166.38 183.75 166.38 184.31"
/>
<path stroke="#808080" vector-effect="non-scaling-stroke" d="
  M 86.87 48.88
  C 85.91 48.07 85.22 47.11 84.03 46.59
  Q 80.65 45.11 77.78 46.81
  C 76.02 47.85 75.29 50.03 72.71 49.29
  C 66.98 47.64 63.66 54.85 68.76 58.15
  C 70.88 59.52 70.28 62.39 70.23 64.52
  Q 70.21 65.12 70.81 65.12
  L 91.22 65.13
  Q 91.82 65.13 91.83 64.53
  L 91.93 60.31
  Q 91.94 59.68 92.36 59.20
  C 94.03 57.29 96.27 56.36 95.80 53.31
  Q 95.21 49.46 91.43 49.04
  C 89.81 48.86 88.34 50.12 86.87 48.88"
/>
<path stroke="#808080" vector-effect="non-scaling-stroke" d="
  M 132.39 104.93
  C 132.20 97.37 134.71 87.81 139.47 81.00
  Q 140.04 80.17 139.15 80.64
  C 131.58 84.63 128.16 98.00 132.00 105.04
  Q 132.41 105.79 132.39 104.93"
/>
<path stroke="#808080" vector-effect="non-scaling-stroke" d="
  M 142.21 81.19
  C 136.76 87.59 134.12 98.04 134.45 105.97
  Q 134.46 106.19 134.59 106.36
  Q 134.74 106.55 134.95 106.51
  Q 135.24 106.46 135.32 106.18
  L 142.85 81.53
  Q 143.36 79.84 142.21 81.19"
/>
<path stroke="#808080" vector-effect="non-scaling-stroke" d="
  M 141.41 101.91
  Q 146.11 91.75 145.74 82.88
  Q 145.61 79.61 144.65 82.74
  L 137.67 105.69
  Q 136.80 108.53 138.72 106.27
  Q 140.21 104.53 141.41 101.91"
/>
<path stroke="#808080" vector-effect="non-scaling-stroke" d="
  M 143.66 101.98
  Q 142.30 105.00 140.46 107.32
  Q 140.00 107.90 140.68 107.63
  Q 142.04 107.09 143.12 106.08
  C 149.11 100.54 151.85 90.58 148.18 82.78
  Q 147.85 82.08 147.87 82.86
  Q 148.01 92.30 143.66 101.98"
/>
</g>
<path fill="#ffffff" d="
  M 121.88 0.00
  L 134.24 0.00
  Q 139.12 0.58 143.98 1.20
  Q 175.52 5.19 200.59 22.55
  Q 209.10 28.45 215.99 35.06
  Q 249.80 67.54 255.28 114.44
  C 255.56 116.89 255.53 119.44 256.00 121.88
  L 256.00 133.23
  Q 253.60 177.77 226.17 210.17
  C 197.26 244.33 153.70 261.00 109.36 254.60
  C 82.75 250.76 57.55 238.36 38.21 219.16
  Q 3.39 184.57 0.00 133.87
  L 0.00 122.01
  Q 0.40 118.59 0.70 115.15
  Q 1.05 111.13 1.65 107.55
  C 7.54 72.68 26.35 42.83 55.48 22.55
  Q 81.26 4.60 114.02 0.96
  Q 117.96 0.52 121.88 0.00
  Z
  M 65.38 71.13
  Q 64.52 79.86 70.35 85.21
  C 81.44 95.36 98.68 86.08 96.68 71.20
  A 1.51 1.45 58.0 0 1 96.88 70.26
  C 98.28 67.99 97.92 65.35 97.88 62.75
  Q 97.87 62.30 98.18 61.97
  Q 104.46 55.17 99.97 47.98
  Q 96.91 43.06 90.10 43.07
  Q 89.54 43.07 89.09 42.75
  Q 81.07 37.08 72.95 42.82
  Q 72.51 43.13 71.98 43.11
  Q 65.82 42.88 62.53 47.52
  Q 57.37 54.82 64.02 62.17
  Q 64.35 62.54 64.36 63.03
  C 64.45 65.22 63.83 68.17 65.12 70.10
  Q 65.44 70.57 65.38 71.13
  Z
  M 101.45 121.55
  C 103.52 124.57 105.69 129.73 109.63 130.47
  Q 116.99 131.86 124.40 133.13
  Q 124.88 133.21 124.88 133.71
  C 124.88 134.35 124.53 134.93 124.67 135.60
  C 125.09 137.79 127.93 139.00 129.55 137.31
  Q 130.48 136.35 130.78 134.85
  Q 130.90 134.28 131.49 134.19
  C 137.84 133.27 139.53 126.62 135.15 122.14
  A 0.96 0.95 -59.0 0 1 134.92 121.20
  L 137.93 111.39
  Q 138.10 110.84 138.66 110.69
  C 147.97 108.12 152.32 97.41 151.87 88.50
  C 151.34 78.05 141.73 73.29 134.40 81.78
  C 128.62 88.46 125.13 101.27 132.00 108.53
  Q 132.46 109.02 132.26 109.67
  L 129.19 119.76
  Q 129.03 120.26 128.51 120.17
  L 115.83 117.86
  A 1.81 1.78 77.4 0 1 114.66 117.10
  Q 107.73 106.84 100.60 95.85
  C 99.32 93.89 97.14 92.65 94.85 92.65
  Q 82.75 92.63 67.47 92.59
  C 64.63 92.59 62.30 94.11 61.13 96.68
  Q 50.25 120.61 38.79 145.60
  C 36.00 151.70 41.91 157.61 47.87 154.78
  Q 50.11 153.72 51.79 149.91
  Q 54.45 143.83 57.32 137.65
  Q 57.35 137.57 57.43 137.55
  Q 57.50 137.54 57.54 137.59
  Q 57.61 137.69 57.59 137.81
  Q 54.97 150.99 52.10 163.65
  C 50.58 170.36 57.62 168.84 61.32 168.84
  Q 61.88 168.85 61.88 169.41
  Q 61.88 190.55 61.88 211.37
  C 61.88 222.85 78.12 222.70 78.12 211.58
  Q 78.14 190.61 78.12 169.20
  A 0.33 0.33 0.0 0 1 78.45 168.87
  L 83.73 168.86
  Q 84.00 168.86 84.00 169.13
  Q 83.99 188.12 84.01 207.28
  C 84.01 212.06 83.60 214.89 86.58 217.72
  C 91.87 222.75 100.25 219.00 100.25 211.74
  Q 100.25 188.98 100.25 169.49
  Q 100.25 168.79 100.95 168.81
  Q 103.73 168.91 106.72 168.87
  C 109.19 168.84 110.63 166.79 110.13 164.47
  Q 107.18 150.71 104.40 137.49
  A 0.78 0.76 83.9 0 0 103.65 136.87
  L 95.07 136.87
  Q 94.50 136.86 94.50 137.43
  L 94.50 153.25
  A 1.75 1.75 0.0 0 1 92.75 155.00
  L 69.58 155.00
  A 1.96 1.96 0.0 0 1 67.62 153.04
  L 67.62 137.50
  Q 67.62 136.88 67.00 136.88
  L 58.26 136.87
  Q 57.83 136.87 57.92 136.45
  L 59.61 128.70
  Q 59.73 128.13 60.31 128.13
  L 67.17 128.12
  A 0.46 0.45 -0.6 0 0 67.63 127.66
  Q 67.59 119.79 67.63 111.80
  C 67.66 106.73 70.95 104.45 75.62 104.56
  Q 81.36 104.69 87.17 104.56
  C 91.93 104.45 94.63 107.64 94.55 112.26
  Q 94.42 119.95 94.53 127.90
  Q 94.54 128.12 94.76 128.12
  L 102.21 128.14
  Q 102.41 128.14 102.36 127.95
  L 101.03 121.73
  Q 100.78 120.58 101.45 121.55
  Z
  M 166.38 184.31
  L 166.39 207.54
  Q 166.39 208.17 165.76 208.17
  Q 161.00 208.12 156.06 208.12
  C 151.71 208.13 148.61 211.44 149.76 215.74
  C 150.74 219.39 154.01 220.09 157.50 220.06
  Q 175.41 219.92 193.71 220.04
  Q 196.99 220.06 198.57 218.84
  Q 201.28 216.75 200.88 213.58
  Q 200.22 208.21 194.52 208.14
  Q 189.86 208.08 184.74 208.16
  Q 184.13 208.17 184.13 207.55
  L 184.12 184.12
  A 0.38 0.37 -0.0 0 1 184.50 183.75
  L 210.75 183.75
  A 3.25 3.25 0.0 0 0 214.00 180.50
  L 214.00 153.25
  A 3.50 3.50 0.0 0 0 210.50 149.75
  L 200.22 149.75
  Q 199.62 149.75 199.62 149.15
  Q 199.58 139.21 199.66 129.79
  C 199.68 127.56 198.40 125.81 196.00 125.85
  Q 192.72 125.91 189.71 125.85
  Q 189.13 125.83 189.13 125.25
  L 189.12 102.05
  A 3.43 3.42 -90.0 0 0 185.70 98.62
  L 164.58 98.63
  A 3.20 3.19 0.0 0 0 161.38 101.82
  L 161.37 125.24
  Q 161.37 125.92 160.69 125.91
  Q 157.74 125.83 155.06 125.87
  Q 150.83 125.93 150.86 129.50
  Q 150.91 139.14 150.86 149.36
  A 0.40 0.40 0.0 0 1 150.47 149.75
  L 139.81 149.76
  A 3.18 3.18 0.0 0 0 136.63 152.94
  L 136.62 180.17
  Q 136.62 183.75 140.20 183.75
  L 165.81 183.75
  Q 166.38 183.75 166.38 184.31
  Z"
/>
<path fill="#000000" d="
  M 65.12 70.10
  C 63.83 68.17 64.45 65.22 64.36 63.03
  Q 64.35 62.54 64.02 62.17
  Q 57.37 54.82 62.53 47.52
  Q 65.82 42.88 71.98 43.11
  Q 72.51 43.13 72.95 42.82
  Q 81.07 37.08 89.09 42.75
  Q 89.54 43.07 90.10 43.07
  Q 96.91 43.06 99.97 47.98
  Q 104.46 55.17 98.18 61.97
  Q 97.87 62.30 97.88 62.75
  C 97.92 65.35 98.28 67.99 96.88 70.26
  A 1.51 1.45 58.0 0 0 96.68 71.20
  C 98.68 86.08 81.44 95.36 70.35 85.21
  Q 64.52 79.86 65.38 71.13
  Q 65.44 70.57 65.12 70.10
  Z
  M 86.87 48.88
  C 85.91 48.07 85.22 47.11 84.03 46.59
  Q 80.65 45.11 77.78 46.81
  C 76.02 47.85 75.29 50.03 72.71 49.29
  C 66.98 47.64 63.66 54.85 68.76 58.15
  C 70.88 59.52 70.28 62.39 70.23 64.52
  Q 70.21 65.12 70.81 65.12
  L 91.22 65.13
  Q 91.82 65.13 91.83 64.53
  L 91.93 60.31
  Q 91.94 59.68 92.36 59.20
  C 94.03 57.29 96.27 56.36 95.80 53.31
  Q 95.21 49.46 91.43 49.04
  C 89.81 48.86 88.34 50.12 86.87 48.88
  Z"
/>
<path fill="#ffffff" d="
  M 86.87 48.88
  C 88.34 50.12 89.81 48.86 91.43 49.04
  Q 95.21 49.46 95.80 53.31
  C 96.27 56.36 94.03 57.29 92.36 59.20
  Q 91.94 59.68 91.93 60.31
  L 91.83 64.53
  Q 91.82 65.13 91.22 65.13
  L 70.81 65.12
  Q 70.21 65.12 70.23 64.52
  C 70.28 62.39 70.88 59.52 68.76 58.15
  C 63.66 54.85 66.98 47.64 72.71 49.29
  C 75.29 50.03 76.02 47.85 77.78 46.81
  Q 80.65 45.11 84.03 46.59
  C 85.22 47.11 85.91 48.07 86.87 48.88
  Z"
/>
<path fill="#000000" d="
  M 101.03 121.73
  L 102.36 127.95
  Q 102.41 128.14 102.21 128.14
  L 94.76 128.12
  Q 94.54 128.12 94.53 127.90
  Q 94.42 119.95 94.55 112.26
  C 94.63 107.64 91.93 104.45 87.17 104.56
  Q 81.36 104.69 75.62 104.56
  C 70.95 104.45 67.66 106.73 67.63 111.80
  Q 67.59 119.79 67.63 127.66
  A 0.46 0.45 -0.6 0 1 67.17 128.12
  L 60.31 128.13
  Q 59.73 128.13 59.61 128.70
  L 57.92 136.45
  Q 57.83 136.87 58.26 136.87
  L 67.00 136.88
  Q 67.62 136.88 67.62 137.50
  L 67.62 153.04
  A 1.96 1.96 0.0 0 0 69.58 155.00
  L 92.75 155.00
  A 1.75 1.75 0.0 0 0 94.50 153.25
  L 94.50 137.43
  Q 94.50 136.86 95.07 136.87
  L 103.65 136.87
  A 0.78 0.76 83.9 0 1 104.40 137.49
  Q 107.18 150.71 110.13 164.47
  C 110.63 166.79 109.19 168.84 106.72 168.87
  Q 103.73 168.91 100.95 168.81
  Q 100.25 168.79 100.25 169.49
  Q 100.25 188.98 100.25 211.74
  C 100.25 219.00 91.87 222.75 86.58 217.72
  C 83.60 214.89 84.01 212.06 84.01 207.28
  Q 83.99 188.12 84.00 169.13
  Q 84.00 168.86 83.73 168.86
  L 78.45 168.87
  A 0.33 0.33 0.0 0 0 78.12 169.20
  Q 78.14 190.61 78.12 211.58
  C 78.12 222.70 61.88 222.85 61.88 211.37
  Q 61.88 190.55 61.88 169.41
  Q 61.88 168.85 61.32 168.84
  C 57.62 168.84 50.58 170.36 52.10 163.65
  Q 54.97 150.99 57.59 137.81
  Q 57.61 137.69 57.54 137.59
  Q 57.50 137.54 57.43 137.55
  Q 57.35 137.57 57.32 137.65
  Q 54.45 143.83 51.79 149.91
  Q 50.11 153.72 47.87 154.78
  C 41.91 157.61 36.00 151.70 38.79 145.60
  Q 50.25 120.61 61.13 96.68
  C 62.30 94.11 64.63 92.59 67.47 92.59
  Q 82.75 92.63 94.85 92.65
  C 97.14 92.65 99.32 93.89 100.60 95.85
  Q 107.73 106.84 114.66 117.10
  A 1.81 1.78 77.4 0 0 115.83 117.86
  L 128.51 120.17
  Q 129.03 120.26 129.19 119.76
  L 132.26 109.67
  Q 132.46 109.02 132.00 108.53
  C 125.13 101.27 128.62 88.46 134.40 81.78
  C 141.73 73.29 151.34 78.05 151.87 88.50
  C 152.32 97.41 147.97 108.12 138.66 110.69
  Q 138.10 110.84 137.93 111.39
  L 134.92 121.20
  A 0.96 0.95 -59.0 0 0 135.15 122.14
  C 139.53 126.62 137.84 133.27 131.49 134.19
  Q 130.90 134.28 130.78 134.85
  Q 130.48 136.35 129.55 137.31
  C 127.93 139.00 125.09 137.79 124.67 135.60
  C 124.53 134.93 124.88 134.35 124.88 133.71
  Q 124.88 133.21 124.40 133.13
  Q 116.99 131.86 109.63 130.47
  C 105.69 129.73 103.52 124.57 101.45 121.55
  Q 100.78 120.58 101.03 121.73
  Z
  M 132.39 104.93
  C 132.20 97.37 134.71 87.81 139.47 81.00
  Q 140.04 80.17 139.15 80.64
  C 131.58 84.63 128.16 98.00 132.00 105.04
  Q 132.41 105.79 132.39 104.93
  Z
  M 142.21 81.19
  C 136.76 87.59 134.12 98.04 134.45 105.97
  Q 134.46 106.19 134.59 106.36
  Q 134.74 106.55 134.95 106.51
  Q 135.24 106.46 135.32 106.18
  L 142.85 81.53
  Q 143.36 79.84 142.21 81.19
  Z
  M 141.41 101.91
  Q 146.11 91.75 145.74 82.88
  Q 145.61 79.61 144.65 82.74
  L 137.67 105.69
  Q 136.80 108.53 138.72 106.27
  Q 140.21 104.53 141.41 101.91
  Z
  M 143.66 101.98
  Q 142.30 105.00 140.46 107.32
  Q 140.00 107.90 140.68 107.63
  Q 142.04 107.09 143.12 106.08
  C 149.11 100.54 151.85 90.58 148.18 82.78
  Q 147.85 82.08 147.87 82.86
  Q 148.01 92.30 143.66 101.98
  Z"
/>
<path fill="#ffffff" d="
  M 139.47 81.00
  C 134.71 87.81 132.20 97.37 132.39 104.93
  Q 132.41 105.79 132.00 105.04
  C 128.16 98.00 131.58 84.63 139.15 80.64
  Q 140.04 80.17 139.47 81.00
  Z"
/>
<path fill="#ffffff" d="
  M 134.45 105.97
  C 134.12 98.04 136.76 87.59 142.21 81.19
  Q 143.36 79.84 142.85 81.53
  L 135.32 106.18
  Q 135.24 106.46 134.95 106.51
  Q 134.74 106.55 134.59 106.36
  Q 134.46 106.19 134.45 105.97
  Z"
/>
<path fill="#ffffff" d="
  M 141.41 101.91
  Q 140.21 104.53 138.72 106.27
  Q 136.80 108.53 137.67 105.69
  L 144.65 82.74
  Q 145.61 79.61 145.74 82.88
  Q 146.11 91.75 141.41 101.91
  Z"
/>
<path fill="#ffffff" d="
  M 143.66 101.98
  Q 148.01 92.30 147.87 82.86
  Q 147.85 82.08 148.18 82.78
  C 151.85 90.58 149.11 100.54 143.12 106.08
  Q 142.04 107.09 140.68 107.63
  Q 140.00 107.90 140.46 107.32
  Q 142.30 105.00 143.66 101.98
  Z"
/>
<path fill="#000000" d="
  M 165.81 183.75
  L 140.20 183.75
  Q 136.62 183.75 136.62 180.17
  L 136.63 152.94
  A 3.18 3.18 0.0 0 1 139.81 149.76
  L 150.47 149.75
  A 0.40 0.40 0.0 0 0 150.86 149.36
  Q 150.91 139.14 150.86 129.50
  Q 150.83 125.93 155.06 125.87
  Q 157.74 125.83 160.69 125.91
  Q 161.37 125.92 161.37 125.24
  L 161.38 101.82
  A 3.20 3.19 0.0 0 1 164.58 98.63
  L 185.70 98.62
  A 3.43 3.42 -90.0 0 1 189.12 102.05
  L 189.13 125.25
  Q 189.13 125.83 189.71 125.85
  Q 192.72 125.91 196.00 125.85
  C 198.40 125.81 199.68 127.56 199.66 129.79
  Q 199.58 139.21 199.62 149.15
  Q 199.62 149.75 200.22 149.75
  L 210.50 149.75
  A 3.50 3.50 0.0 0 1 214.00 153.25
  L 214.00 180.50
  A 3.25 3.25 0.0 0 1 210.75 183.75
  L 184.50 183.75
  A 0.38 0.37 0.0 0 0 184.12 184.12
  L 184.13 207.55
  Q 184.13 208.17 184.74 208.16
  Q 189.86 208.08 194.52 208.14
  Q 200.22 208.21 200.88 213.58
  Q 201.28 216.75 198.57 218.84
  Q 196.99 220.06 193.71 220.04
  Q 175.41 219.92 157.50 220.06
  C 154.01 220.09 150.74 219.39 149.76 215.74
  C 148.61 211.44 151.71 208.13 156.06 208.12
  Q 161.00 208.12 165.76 208.17
  Q 166.39 208.17 166.39 207.54
  L 166.38 184.31
  Q 166.38 183.75 165.81 183.75
  Z"
/>
</svg>
