<?xml version="1.0" encoding="UTF-8" standalone="no"?>
<!DOCTYPE svg PUBLIC "-//W3C//DTD SVG 1.1//EN" "http://www.w3.org/Graphics/SVG/1.1/DTD/svg11.dtd">
<svg xmlns="http://www.w3.org/2000/svg" version="1.1" viewBox="0.00 0.00 256.00 360.00">
<g stroke-width="2.00" fill="none" stroke-linecap="butt">
<path stroke="#808080" vector-effect="non-scaling-stroke" d="
  M 95.14 54.49
  A 14.49 14.49 0.0 0 0 80.65 40.00
  A 14.49 14.49 0.0 0 0 66.16 54.49
  A 14.49 14.49 0.0 0 0 80.65 68.98
  A 14.49 14.49 0.0 0 0 95.14 54.49"
/>
<path stroke="#808080" vector-effect="non-scaling-stroke" d="
  M 137.95 59.34
  Q 137.12 56.54 137.59 50.04
  Q 137.70 48.59 136.25 48.61
  L 133.95 48.63
  Q 132.58 48.64 132.61 50.02
  Q 132.69 54.07 132.58 57.55
  C 132.46 61.79 127.90 62.59 127.89 66.45
  Q 127.87 74.47 127.88 82.71
  A 1.91 1.91 0.0 0 0 129.79 84.62
  L 140.50 84.63
  A 1.76 1.75 -0.2 0 0 142.26 82.87
  Q 142.24 75.11 142.26 66.74
  C 142.27 62.75 138.88 62.48 137.95 59.34"
/>
<path stroke="#808080" vector-effect="non-scaling-stroke" d="
  M 156.44 57.46
  C 155.42 61.13 152.22 62.68 152.67 66.99
  Q 153.51 74.99 154.57 83.10
  A 1.73 1.72 86.4 0 0 156.28 84.61
  L 162.34 84.64
  Q 164.28 84.65 164.52 82.72
  Q 165.57 74.39 166.34 66.60
  Q 166.61 63.90 164.95 61.79
  C 162.26 58.36 161.45 54.47 161.96 50.01
  Q 162.12 48.61 160.71 48.62
  L 158.29 48.64
  Q 156.98 48.64 157.10 49.95
  Q 157.45 53.84 156.44 57.46"
/>
<path stroke="#808080" vector-effect="non-scaling-stroke" d="
  M 197.44 63.88
  C 194.16 60.04 192.47 55.03 192.92 49.89
  Q 193.03 48.63 191.77 48.63
  L 187.51 48.62
  Q 186.32 48.61 186.38 49.80
  C 186.67 55.77 184.95 60.19 181.16 64.72
  C 177.47 69.14 176.41 76.17 177.31 81.50
  Q 177.84 84.63 180.99 84.62
  Q 189.10 84.61 197.89 84.64
  Q 201.55 84.66 202.02 81.07
  C 202.82 74.98 201.45 68.59 197.44 63.88"
/>
<path stroke="#808080" vector-effect="non-scaling-stroke" d="
  M 80.93 74.27
  A 0.74 0.74 0.0 0 1 80.27 74.27
  L 76.21 72.24
  A 0.74 0.74 0.0 0 0 75.14 72.90
  L 75.12 77.72
  A 0.74 0.74 0.0 0 0 76.19 78.38
  L 80.29 76.36
  A 0.74 0.74 0.0 0 1 80.95 76.36
  L 85.19 78.44
  A 0.74 0.74 0.0 0 0 86.26 77.78
  L 86.23 72.86
  A 0.74 0.74 0.0 0 0 85.17 72.20
  L 80.93 74.27"
/>
<path stroke="#808080" vector-effect="non-scaling-stroke" d="
  M 80.33 94.98
  L 71.36 73.85
  A 0.38 0.38 0.0 0 0 71.01 73.62
  L 65.01 73.63
  Q 64.86 73.63 64.91 73.77
  Q 68.49 84.39 64.43 94.17
  C 63.65 96.05 62.12 97.44 62.12 99.55
  Q 62.15 153.38 62.11 207.14
  C 62.10 218.84 78.87 219.02 78.87 207.00
  Q 78.89 174.01 78.87 142.41
  Q 78.87 140.36 80.89 140.67
  L 81.15 140.71
  Q 82.47 140.92 82.48 142.26
  Q 82.55 174.04 82.47 207.63
  C 82.45 215.98 93.52 219.15 97.97 212.11
  Q 99.33 209.95 99.32 206.25
  Q 99.10 150.87 99.11 98.84
  Q 99.11 98.24 98.80 97.73
  Q 92.11 87.05 96.40 73.80
  Q 96.46 73.62 96.26 73.62
  L 90.31 73.61
  Q 90.08 73.61 89.98 73.83
  L 81.01 94.98
  Q 80.67 95.79 80.33 94.98"
/>
<path stroke="#808080" vector-effect="non-scaling-stroke" d="
  M 59.96 88.49
  C 62.38 85.70 60.40 77.36 59.22 74.47
  Q 58.90 73.67 58.07 73.93
  Q 45.15 78.06 45.22 91.83
  Q 45.34 116.42 45.03 140.37
  Q 44.99 143.05 45.99 144.84
  C 48.68 149.66 55.45 149.53 58.15 144.84
  Q 59.05 143.28 59.07 138.17
  Q 59.17 116.03 59.28 91.25
  C 59.28 90.24 59.25 89.30 59.96 88.49"
/>
<path stroke="#808080" vector-effect="non-scaling-stroke" d="
  M 102.15 141.29
  C 102.20 150.73 116.30 150.80 116.19 140.92
  Q 115.93 118.56 115.99 96.22
  Q 116.02 86.96 114.80 84.13
  Q 111.35 76.10 103.02 73.97
  A 0.78 0.78 0.0 0 0 102.10 74.44
  C 100.56 78.29 99.23 84.82 101.24 88.59
  Q 101.98 89.99 101.97 91.76
  Q 101.95 104.95 102.15 141.29"
/>
<path stroke="#808080" vector-effect="non-scaling-stroke" d="
  M 210.87 98.67
  L 210.87 92.95
  A 1.96 1.96 0.0 0 0 208.91 90.99
  L 123.12 90.99
  A 1.63 0.40 0.0 0 0 121.49 91.39
  L 121.49 100.23
  A 1.63 0.40 -0.0 0 0 123.12 100.63
  L 208.91 100.63
  A 1.96 1.96 0.0 0 0 210.87 98.67"
/>
<path stroke="#808080" vector-effect="non-scaling-stroke" d="
  M 170.01 129.00
  C 174.92 128.34 184.70 125.90 186.27 120.59
  Q 186.56 119.63 185.56 119.63
  L 134.57 119.62
  A 0.88 0.88 0.0 0 0 133.78 120.88
  C 136.20 125.98 144.78 128.24 150.03 128.99
  Q 151.15 129.15 150.91 130.26
  Q 150.24 133.30 153.10 133.27
  Q 159.80 133.22 167.45 133.26
  C 169.10 133.27 169.63 131.64 169.21 130.26
  Q 168.86 129.16 170.01 129.00"
/>
<path stroke="#808080" vector-effect="non-scaling-stroke" d="
  M 121.67 138.83
  C 122.39 145.00 119.57 151.02 113.60 153.06
  Q 111.27 153.86 113.74 153.86
  L 208.19 153.87
  A 2.06 2.06 0.0 0 0 210.25 151.81
  L 210.25 140.57
  Q 210.25 138.13 207.81 138.13
  L 122.30 138.12
  Q 121.59 138.12 121.67 138.83"
/>
<path stroke="#808080" vector-effect="non-scaling-stroke" d="
  M 203.75 160.81
  A 1.09 1.09 0.0 0 0 202.66 159.72
  L 195.22 159.72
  A 1.09 1.09 0.0 0 0 194.13 160.81
  L 194.13 196.59
  A 1.09 1.09 0.0 0 0 195.22 197.68
  L 202.66 197.68
  A 1.09 1.09 0.0 0 0 203.75 196.59
  L 203.75 160.81"
/>
<path stroke="#808080" vector-effect="non-scaling-stroke" d="
  M 82.88 107.86
  A 2.79 2.79 0.0 0 0 80.09 105.07
  A 2.79 2.79 0.0 0 0 77.30 107.86
  A 2.79 2.79 0.0 0 0 80.09 110.65
  A 2.79 2.79 0.0 0 0 82.88 107.86"
/>
<path stroke="#808080" vector-effect="non-scaling-stroke" d="
  M 82.87 122.98
  A 2.79 2.79 0.0 0 0 80.08 120.19
  A 2.79 2.79 0.0 0 0 77.29 122.98
  A 2.79 2.79 0.0 0 0 80.08 125.77
  A 2.79 2.79 0.0 0 0 82.87 122.98"
/>
</g>
<path fill="#ffffff" d="
  M 121.88 0.00
  L 134.24 0.00
  Q 139.12 0.58 143.98 1.20
  Q 175.51 5.18 200.62 22.57
  Q 208.95 28.33 216.00 35.09
  Q 249.80 67.51 255.28 114.48
  C 255.56 116.91 255.53 119.45 256.00 121.88
  L 256.00 133.23
  Q 253.53 178.77 225.15 211.38
  C 197.99 242.59 158.53 258.94 117.15 255.50
  C 92.01 253.42 66.93 243.62 47.26 227.32
  Q 11.79 197.92 2.46 153.00
  Q 1.51 148.41 0.96 143.29
  Q 0.45 138.59 0.00 133.87
  L 0.00 122.01
  Q 0.40 118.59 0.70 115.15
  Q 1.04 111.19 1.64 107.64
  C 7.48 72.79 26.34 42.80 55.49 22.54
  Q 81.31 4.60 114.02 0.96
  Q 117.96 0.52 121.88 0.00
  Z
  M 95.14 54.49
  A 14.49 14.49 0.0 0 0 80.65 40.00
  A 14.49 14.49 0.0 0 0 66.16 54.49
  A 14.49 14.49 0.0 0 0 80.65 68.98
  A 14.49 14.49 0.0 0 0 95.14 54.49
  Z
  M 137.95 59.34
  Q 137.12 56.54 137.59 50.04
  Q 137.70 48.59 136.25 48.61
  L 133.95 48.63
  Q 132.58 48.64 132.61 50.02
  Q 132.69 54.07 132.58 57.55
  C 132.46 61.79 127.90 62.59 127.89 66.45
  Q 127.87 74.47 127.88 82.71
  A 1.91 1.91 0.0 0 0 129.79 84.62
  L 140.50 84.63
  A 1.76 1.75 -0.2 0 0 142.26 82.87
  Q 142.24 75.11 142.26 66.74
  C 142.27 62.75 138.88 62.48 137.95 59.34
  Z
  M 156.44 57.46
  C 155.42 61.13 152.22 62.68 152.67 66.99
  Q 153.51 74.99 154.57 83.10
  A 1.73 1.72 86.4 0 0 156.28 84.61
  L 162.34 84.64
  Q 164.28 84.65 164.52 82.72
  Q 165.57 74.39 166.34 66.60
  Q 166.61 63.90 164.95 61.79
  C 162.26 58.36 161.45 54.47 161.96 50.01
  Q 162.12 48.61 160.71 48.62
  L 158.29 48.64
  Q 156.98 48.64 157.10 49.95
  Q 157.45 53.84 156.44 57.46
  Z
  M 197.44 63.88
  C 194.16 60.04 192.47 55.03 192.92 49.89
  Q 193.03 48.63 191.77 48.63
  L 187.51 48.62
  Q 186.32 48.61 186.38 49.80
  C 186.67 55.77 184.95 60.19 181.16 64.72
  C 177.47 69.14 176.41 76.17 177.31 81.50
  Q 177.84 84.63 180.99 84.62
  Q 189.10 84.61 197.89 84.64
  Q 201.55 84.66 202.02 81.07
  C 202.82 74.98 201.45 68.59 197.44 63.88
  Z
  M 80.93 74.27
  A 0.74 0.74 0.0 0 1 80.27 74.27
  L 76.21 72.24
  A 0.74 0.74 0.0 0 0 75.14 72.90
  L 75.12 77.72
  A 0.74 0.74 0.0 0 0 76.19 78.38
  L 80.29 76.36
  A 0.74 0.74 0.0 0 1 80.95 76.36
  L 85.19 78.44
  A 0.74 0.74 0.0 0 0 86.26 77.78
  L 86.23 72.86
  A 0.74 0.74 0.0 0 0 85.17 72.20
  L 80.93 74.27
  Z
  M 80.33 94.98
  L 71.36 73.85
  A 0.38 0.38 0.0 0 0 71.01 73.62
  L 65.01 73.63
  Q 64.86 73.63 64.91 73.77
  Q 68.49 84.39 64.43 94.17
  C 63.65 96.05 62.12 97.44 62.12 99.55
  Q 62.15 153.38 62.11 207.14
  C 62.10 218.84 78.87 219.02 78.87 207.00
  Q 78.89 174.01 78.87 142.41
  Q 78.87 140.36 80.89 140.67
  L 81.15 140.71
  Q 82.47 140.92 82.48 142.26
  Q 82.55 174.04 82.47 207.63
  C 82.45 215.98 93.52 219.15 97.97 212.11
  Q 99.33 209.95 99.32 206.25
  Q 99.10 150.87 99.11 98.84
  Q 99.11 98.24 98.80 97.73
  Q 92.11 87.05 96.40 73.80
  Q 96.46 73.62 96.26 73.62
  L 90.31 73.61
  Q 90.08 73.61 89.98 73.83
  L 81.01 94.98
  Q 80.67 95.79 80.33 94.98
  Z
  M 59.96 88.49
  C 62.38 85.70 60.40 77.36 59.22 74.47
  Q 58.90 73.67 58.07 73.93
  Q 45.15 78.06 45.22 91.83
  Q 45.34 116.42 45.03 140.37
  Q 44.99 143.05 45.99 144.84
  C 48.68 149.66 55.45 149.53 58.15 144.84
  Q 59.05 143.28 59.07 138.17
  Q 59.17 116.03 59.28 91.25
  C 59.28 90.24 59.25 89.30 59.96 88.49
  Z
  M 102.15 141.29
  C 102.20 150.73 116.30 150.80 116.19 140.92
  Q 115.93 118.56 115.99 96.22
  Q 116.02 86.96 114.80 84.13
  Q 111.35 76.10 103.02 73.97
  A 0.78 0.78 0.0 0 0 102.10 74.44
  C 100.56 78.29 99.23 84.82 101.24 88.59
  Q 101.98 89.99 101.97 91.76
  Q 101.95 104.95 102.15 141.29
  Z
  M 210.87 98.67
  L 210.87 92.95
  A 1.96 1.96 0.0 0 0 208.91 90.99
  L 123.12 90.99
  A 1.63 0.40 0.0 0 0 121.49 91.39
  L 121.49 100.23
  A 1.63 0.40 -0.0 0 0 123.12 100.63
  L 208.91 100.63
  A 1.96 1.96 0.0 0 0 210.87 98.67
  Z
  M 170.01 129.00
  C 174.92 128.34 184.70 125.90 186.27 120.59
  Q 186.56 119.63 185.56 119.63
  L 134.57 119.62
  A 0.88 0.88 0.0 0 0 133.78 120.88
  C 136.20 125.98 144.78 128.24 150.03 128.99
  Q 151.15 129.15 150.91 130.26
  Q 150.24 133.30 153.10 133.27
  Q 159.80 133.22 167.45 133.26
  C 169.10 133.27 169.63 131.64 169.21 130.26
  Q 168.86 129.16 170.01 129.00
  Z
  M 121.67 138.83
  C 122.39 145.00 119.57 151.02 113.60 153.06
  Q 111.27 153.86 113.74 153.86
  L 208.19 153.87
  A 2.06 2.06 0.0 0 0 210.25 151.81
  L 210.25 140.57
  Q 210.25 138.13 207.81 138.13
  L 122.30 138.12
  Q 121.59 138.12 121.67 138.83
  Z
  M 203.75 160.81
  A 1.09 1.09 0.0 0 0 202.66 159.72
  L 195.22 159.72
  A 1.09 1.09 0.0 0 0 194.13 160.81
  L 194.13 196.59
  A 1.09 1.09 0.0 0 0 195.22 197.68
  L 202.66 197.68
  A 1.09 1.09 0.0 0 0 203.75 196.59
  L 203.75 160.81
  Z"
/>
<circle fill="#000000" cx="80.65" cy="54.49" r="14.49"/>
<path fill="#000000" d="
  M 137.95 59.34
  C 138.88 62.48 142.27 62.75 142.26 66.74
  Q 142.24 75.11 142.26 82.87
  A 1.76 1.75 -0.2 0 1 140.50 84.63
  L 129.79 84.62
  A 1.91 1.91 0.0 0 1 127.88 82.71
  Q 127.87 74.47 127.89 66.45
  C 127.90 62.59 132.46 61.79 132.58 57.55
  Q 132.69 54.07 132.61 50.02
  Q 132.58 48.64 133.95 48.63
  L 136.25 48.61
  Q 137.70 48.59 137.59 50.04
  Q 137.12 56.54 137.95 59.34
  Z"
/>
<path fill="#000000" d="
  M 156.44 57.46
  Q 157.45 53.84 157.10 49.95
  Q 156.98 48.64 158.29 48.64
  L 160.71 48.62
  Q 162.12 48.61 161.96 50.01
  C 161.45 54.47 162.26 58.36 164.95 61.79
  Q 166.61 63.90 166.34 66.60
  Q 165.57 74.39 164.52 82.72
  Q 164.28 84.65 162.34 84.64
  L 156.28 84.61
  A 1.73 1.72 86.4 0 1 154.57 83.10
  Q 153.51 74.99 152.67 66.99
  C 152.22 62.68 155.42 61.13 156.44 57.46
  Z"
/>
<path fill="#000000" d="
  M 192.92 49.89
  C 192.47 55.03 194.16 60.04 197.44 63.88
  C 201.45 68.59 202.82 74.98 202.02 81.07
  Q 201.55 84.66 197.89 84.64
  Q 189.10 84.61 180.99 84.62
  Q 177.84 84.63 177.31 81.50
  C 176.41 76.17 177.47 69.14 181.16 64.72
  C 184.95 60.19 186.67 55.77 186.38 49.80
  Q 186.32 48.61 187.51 48.62
  L 191.77 48.63
  Q 193.03 48.63 192.92 49.89
  Z"
/>
<path fill="#000000" d="
  M 80.93 74.27
  L 85.17 72.20
  A 0.74 0.74 0.0 0 1 86.23 72.86
  L 86.26 77.78
  A 0.74 0.74 0.0 0 1 85.19 78.44
  L 80.95 76.36
  A 0.74 0.74 0.0 0 0 80.29 76.36
  L 76.19 78.38
  A 0.74 0.74 0.0 0 1 75.12 77.72
  L 75.14 72.90
  A 0.74 0.74 0.0 0 1 76.21 72.24
  L 80.27 74.27
  A 0.74 0.74 0.0 0 0 80.93 74.27
  Z"
/>
<path fill="#000000" d="
  M 80.33 94.98
  Q 80.67 95.79 81.01 94.98
  L 89.98 73.83
  Q 90.08 73.61 90.31 73.61
  L 96.26 73.62
  Q 96.46 73.62 96.40 73.80
  Q 92.11 87.05 98.80 97.73
  Q 99.11 98.24 99.11 98.84
  Q 99.10 150.87 99.32 206.25
  Q 99.33 209.95 97.97 212.11
  C 93.52 219.15 82.45 215.98 82.47 207.63
  Q 82.55 174.04 82.48 142.26
  Q 82.47 140.92 81.15 140.71
  L 80.89 140.67
  Q 78.87 140.36 78.87 142.41
  Q 78.89 174.01 78.87 207.00
  C 78.87 219.02 62.10 218.84 62.11 207.14
  Q 62.15 153.38 62.12 99.55
  C 62.12 97.44 63.65 96.05 64.43 94.17
  Q 68.49 84.39 64.91 73.77
  Q 64.86 73.63 65.01 73.63
  L 71.01 73.62
  A 0.38 0.38 0.0 0 1 71.36 73.85
  L 80.33 94.98
  Z
  M 82.88 107.86
  A 2.79 2.79 0.0 0 0 80.09 105.07
  A 2.79 2.79 0.0 0 0 77.30 107.86
  A 2.79 2.79 0.0 0 0 80.09 110.65
  A 2.79 2.79 0.0 0 0 82.88 107.86
  Z
  M 82.87 122.98
  A 2.79 2.79 0.0 0 0 80.08 120.19
  A 2.79 2.79 0.0 0 0 77.29 122.98
  A 2.79 2.79 0.0 0 0 80.08 125.77
  A 2.79 2.79 0.0 0 0 82.87 122.98
  Z"
/>
<path fill="#000000" d="
  M 59.96 88.49
  C 59.25 89.30 59.28 90.24 59.28 91.25
  Q 59.17 116.03 59.07 138.17
  Q 59.05 143.28 58.15 144.84
  C 55.45 149.53 48.68 149.66 45.99 144.84
  Q 44.99 143.05 45.03 140.37
  Q 45.34 116.42 45.22 91.83
  Q 45.15 78.06 58.07 73.93
  Q 58.90 73.67 59.22 74.47
  C 60.40 77.36 62.38 85.70 59.96 88.49
  Z"
/>
<path fill="#000000" d="
  M 116.19 140.92
  C 116.30 150.80 102.20 150.73 102.15 141.29
  Q 101.95 104.95 101.97 91.76
  Q 101.98 89.99 101.24 88.59
  C 99.23 84.82 100.56 78.29 102.10 74.44
  A 0.78 0.78 0.0 0 1 103.02 73.97
  Q 111.35 76.10 114.80 84.13
  Q 116.02 86.96 115.99 96.22
  Q 115.93 118.56 116.19 140.92
  Z"
/>
<path fill="#000000" d="
  M 210.87 98.67
  A 1.96 1.96 0.0 0 1 208.91 100.63
  L 123.12 100.63
  A 1.63 0.40 -0.0 0 1 121.49 100.23
  L 121.49 91.39
  A 1.63 0.40 0.0 0 1 123.12 90.99
  L 208.91 90.99
  A 1.96 1.96 0.0 0 1 210.87 92.95
  L 210.87 98.67
  Z"
/>
<circle fill="#ffffff" cx="80.09" cy="107.86" r="2.79"/>
<path fill="#000000" d="
  M 170.01 129.00
  Q 168.86 129.16 169.21 130.26
  C 169.63 131.64 169.10 133.27 167.45 133.26
  Q 159.80 133.22 153.10 133.27
  Q 150.24 133.30 150.91 130.26
  Q 151.15 129.15 150.03 128.99
  C 144.78 128.24 136.20 125.98 133.78 120.88
  A 0.88 0.88 0.0 0 1 134.57 119.62
  L 185.56 119.63
  Q 186.56 119.63 186.27 120.59
  C 184.70 125.90 174.92 128.34 170.01 129.00
  Z"
/>
<circle fill="#ffffff" cx="80.08" cy="122.98" r="2.79"/>
<path fill="#000000" d="
  M 113.60 153.06
  C 119.57 151.02 122.39 145.00 121.67 138.83
  Q 121.59 138.12 122.30 138.12
  L 207.81 138.13
  Q 210.25 138.13 210.25 140.57
  L 210.25 151.81
  A 2.06 2.06 0.0 0 1 208.19 153.87
  L 113.74 153.86
  Q 111.27 153.86 113.60 153.06
  Z"
/>
<rect fill="#000000" x="194.13" y="159.72" width="9.62" height="37.96" rx="1.09"/>
</svg>
