<?xml version="1.0" encoding="UTF-8" standalone="no"?>
<!DOCTYPE svg PUBLIC "-//W3C//DTD SVG 1.1//EN" "http://www.w3.org/Graphics/SVG/1.1/DTD/svg11.dtd">
<svg xmlns="http://www.w3.org/2000/svg" version="1.1" viewBox="0.00 0.00 256.00 360.00">
<g stroke-width="2.00" fill="none" stroke-linecap="butt">
<path stroke="#808080" vector-effect="non-scaling-stroke" d="
  M 143.19 56.94
  A 15.55 15.55 0.0 0 0 127.64 41.39
  A 15.55 15.55 0.0 0 0 112.09 56.94
  A 15.55 15.55 0.0 0 0 127.64 72.49
  A 15.55 15.55 0.0 0 0 143.19 56.94"
/>
<path stroke="#808080" vector-effect="non-scaling-stroke" d="
  M 104.59 97.11
  Q 106.62 96.79 106.62 98.84
  L 106.62 117.25
  A 0.38 0.37 -0.0 0 0 107.00 117.62
  L 148.26 117.63
  A 0.37 0.36 90.0 0 0 148.62 117.26
  L 148.62 99.57
  Q 148.62 97.54 150.60 97.05
  Q 150.95 96.97 151.28 97.11
  Q 152.75 97.75 152.75 99.34
  L 152.75 116.96
  Q 152.75 117.62 153.42 117.62
  L 165.98 117.63
  Q 166.54 117.63 166.54 117.07
  Q 166.40 108.19 166.56 98.13
  Q 166.66 92.17 165.04 88.23
  C 161.77 80.27 154.64 75.61 146.06 75.68
  Q 126.82 75.85 108.70 75.70
  C 97.10 75.60 88.84 84.95 88.78 96.20
  Q 88.72 106.41 88.75 116.96
  Q 88.75 117.62 89.41 117.62
  L 101.94 117.63
  Q 102.50 117.63 102.50 117.06
  L 102.50 99.10
  Q 102.50 97.44 104.14 97.18
  L 104.59 97.11"
/>
<path stroke="#808080" vector-effect="non-scaling-stroke" d="
  M 63.69 139.63
  A 0.31 0.31 0.0 0 1 64.00 139.94
  L 64.00 214.31
  A 0.31 0.31 0.0 0 0 64.31 214.62
  L 190.94 214.62
  A 0.31 0.31 0.0 0 0 191.25 214.31
  L 191.25 139.93
  A 0.31 0.31 0.0 0 1 191.56 139.62
  L 207.44 139.63
  A 0.31 0.31 0.0 0 0 207.75 139.32
  L 207.75 121.44
  A 0.31 0.31 0.0 0 0 207.44 121.13
  L 48.56 121.13
  A 0.31 0.31 0.0 0 0 48.25 121.44
  L 48.25 139.31
  A 0.31 0.31 0.0 0 0 48.56 139.62
  L 63.69 139.63"
/>
<path stroke="#808080" vector-effect="non-scaling-stroke" d="
  M 151.04 143.47
  C 150.04 137.09 141.79 139.49 143.41 144.73
  Q 143.85 146.18 142.99 147.37
  C 140.91 150.22 137.99 152.14 134.45 152.36
  C 128.39 152.74 122.01 155.81 117.87 160.67
  Q 116.79 161.94 115.35 162.67
  Q 101.72 169.58 100.51 184.77
  C 99.97 191.53 103.75 194.75 110.06 194.69
  Q 129.02 194.50 146.02 194.69
  C 152.03 194.76 155.92 191.74 155.52 185.07
  Q 154.81 173.26 145.78 165.84
  A 0.29 0.29 0.0 0 0 145.32 165.99
  C 142.90 174.60 136.18 182.98 126.99 184.67
  Q 125.38 184.96 124.75 183.45
  Q 124.65 183.21 124.67 182.95
  Q 124.75 181.56 126.11 181.31
  C 134.95 179.67 141.57 170.79 142.54 162.23
  C 143.04 157.75 144.09 154.35 148.27 151.81
  C 149.63 150.99 150.95 152.16 152.45 151.75
  C 156.83 150.56 156.33 144.71 151.73 144.14
  Q 151.13 144.07 151.04 143.47"
/>
</g>
<path fill="#ffffff" d="
  M 121.87 0.00
  L 134.24 0.00
  Q 139.12 0.58 143.98 1.20
  Q 175.53 5.18 200.53 22.52
  C 230.49 43.31 251.10 76.35 255.07 112.96
  Q 255.58 117.66 256.00 122.38
  L 256.00 133.24
  Q 253.68 175.04 228.64 207.05
  C 210.46 230.30 184.77 246.34 156.30 252.80
  C 108.87 263.55 58.73 246.49 28.04 207.91
  Q 2.59 175.91 0.00 133.86
  L 0.00 122.01
  Q 0.56 117.00 1.19 112.02
  Q 4.67 84.27 19.00 60.86
  Q 24.09 52.55 30.84 44.77
  Q 66.14 4.06 121.87 0.00
  Z
  M 143.19 56.94
  A 15.55 15.55 0.0 0 0 127.64 41.39
  A 15.55 15.55 0.0 0 0 112.09 56.94
  A 15.55 15.55 0.0 0 0 127.64 72.49
  A 15.55 15.55 0.0 0 0 143.19 56.94
  Z
  M 104.59 97.11
  Q 106.62 96.79 106.62 98.84
  L 106.62 117.25
  A 0.38 0.37 -0.0 0 0 107.00 117.62
  L 148.26 117.63
  A 0.37 0.36 90.0 0 0 148.62 117.26
  L 148.62 99.57
  Q 148.62 97.54 150.60 97.05
  Q 150.95 96.97 151.28 97.11
  Q 152.75 97.75 152.75 99.34
  L 152.75 116.96
  Q 152.75 117.62 153.42 117.62
  L 165.98 117.63
  Q 166.54 117.63 166.54 117.07
  Q 166.40 108.19 166.56 98.13
  Q 166.66 92.17 165.04 88.23
  C 161.77 80.27 154.64 75.61 146.06 75.68
  Q 126.82 75.85 108.70 75.70
  C 97.10 75.60 88.84 84.95 88.78 96.20
  Q 88.72 106.41 88.75 116.96
  Q 88.75 117.62 89.41 117.62
  L 101.94 117.63
  Q 102.50 117.63 102.50 117.06
  L 102.50 99.10
  Q 102.50 97.44 104.14 97.18
  L 104.59 97.11
  Z
  M 63.69 139.63
  A 0.31 0.31 0.0 0 1 64.00 139.94
  L 64.00 214.31
  A 0.31 0.31 0.0 0 0 64.31 214.62
  L 190.94 214.62
  A 0.31 0.31 0.0 0 0 191.25 214.31
  L 191.25 139.93
  A 0.31 0.31 0.0 0 1 191.56 139.62
  L 207.44 139.63
  A 0.31 0.31 0.0 0 0 207.75 139.32
  L 207.75 121.44
  A 0.31 0.31 0.0 0 0 207.44 121.13
  L 48.56 121.13
  A 0.31 0.31 0.0 0 0 48.25 121.44
  L 48.25 139.31
  A 0.31 0.31 0.0 0 0 48.56 139.62
  L 63.69 139.63
  Z"
/>
<circle fill="#000000" cx="127.64" cy="56.94" r="15.55"/>
<path fill="#000000" d="
  M 104.59 97.11
  L 104.14 97.18
  Q 102.50 97.44 102.50 99.10
  L 102.50 117.06
  Q 102.50 117.63 101.94 117.63
  L 89.41 117.62
  Q 88.75 117.62 88.75 116.96
  Q 88.72 106.41 88.78 96.20
  C 88.84 84.95 97.10 75.60 108.70 75.70
  Q 126.82 75.85 146.06 75.68
  C 154.64 75.61 161.77 80.27 165.04 88.23
  Q 166.66 92.17 166.56 98.13
  Q 166.40 108.19 166.54 117.07
  Q 166.54 117.63 165.98 117.63
  L 153.42 117.62
  Q 152.75 117.62 152.75 116.96
  L 152.75 99.34
  Q 152.75 97.75 151.28 97.11
  Q 150.95 96.97 150.60 97.05
  Q 148.62 97.54 148.62 99.57
  L 148.62 117.26
  A 0.37 0.36 -90.0 0 1 148.26 117.63
  L 107.00 117.62
  A 0.38 0.37 0.0 0 1 106.62 117.25
  L 106.62 98.84
  Q 106.62 96.79 104.59 97.11
  Z"
/>
<path fill="#000000" d="
  M 63.69 139.63
  L 48.56 139.62
  A 0.31 0.31 0.0 0 1 48.25 139.31
  L 48.25 121.44
  A 0.31 0.31 0.0 0 1 48.56 121.13
  L 207.44 121.13
  A 0.31 0.31 0.0 0 1 207.75 121.44
  L 207.75 139.32
  A 0.31 0.31 0.0 0 1 207.44 139.63
  L 191.56 139.62
  A 0.31 0.31 0.0 0 0 191.25 139.93
  L 191.25 214.31
  A 0.31 0.31 0.0 0 1 190.94 214.62
  L 64.31 214.62
  A 0.31 0.31 0.0 0 1 64.00 214.31
  L 64.00 139.94
  A 0.31 0.31 0.0 0 0 63.69 139.63
  Z
  M 151.04 143.47
  C 150.04 137.09 141.79 139.49 143.41 144.73
  Q 143.85 146.18 142.99 147.37
  C 140.91 150.22 137.99 152.14 134.45 152.36
  C 128.39 152.74 122.01 155.81 117.87 160.67
  Q 116.79 161.94 115.35 162.67
  Q 101.72 169.58 100.51 184.77
  C 99.97 191.53 103.75 194.75 110.06 194.69
  Q 129.02 194.50 146.02 194.69
  C 152.03 194.76 155.92 191.74 155.52 185.07
  Q 154.81 173.26 145.78 165.84
  A 0.29 0.29 0.0 0 0 145.32 165.99
  C 142.90 174.60 136.18 182.98 126.99 184.67
  Q 125.38 184.96 124.75 183.45
  Q 124.65 183.21 124.67 182.95
  Q 124.75 181.56 126.11 181.31
  C 134.95 179.67 141.57 170.79 142.54 162.23
  C 143.04 157.75 144.09 154.35 148.27 151.81
  C 149.63 150.99 150.95 152.16 152.45 151.75
  C 156.83 150.56 156.33 144.71 151.73 144.14
  Q 151.13 144.07 151.04 143.47
  Z"
/>
<path fill="#ffffff" d="
  M 151.73 144.14
  C 156.33 144.71 156.83 150.56 152.45 151.75
  C 150.95 152.16 149.63 150.99 148.27 151.81
  C 144.09 154.35 143.04 157.75 142.54 162.23
  C 141.57 170.79 134.95 179.67 126.11 181.31
  Q 124.75 181.56 124.67 182.95
  Q 124.65 183.21 124.75 183.45
  Q 125.38 184.96 126.99 184.67
  C 136.18 182.98 142.90 174.60 145.32 165.99
  A 0.29 0.29 0.0 0 1 145.78 165.84
  Q 154.81 173.26 155.52 185.07
  C 155.92 191.74 152.03 194.76 146.02 194.69
  Q 129.02 194.50 110.06 194.69
  C 103.75 194.75 99.97 191.53 100.51 184.77
  Q 101.72 169.58 115.35 162.67
  Q 116.79 161.94 117.87 160.67
  C 122.01 155.81 128.39 152.74 134.45 152.36
  C 137.99 152.14 140.91 150.22 142.99 147.37
  Q 143.85 146.18 143.41 144.73
  C 141.79 139.49 150.04 137.09 151.04 143.47
  Q 151.13 144.07 151.73 144.14
  Z"
/>
</svg>
