<?xml version="1.0" encoding="UTF-8" standalone="no"?>
<!DOCTYPE svg PUBLIC "-//W3C//DTD SVG 1.1//EN" "http://www.w3.org/Graphics/SVG/1.1/DTD/svg11.dtd">
<svg xmlns="http://www.w3.org/2000/svg" version="1.1" viewBox="0.00 0.00 256.00 360.00">
<g stroke-width="2.00" fill="none" stroke-linecap="butt">
<path stroke="#808080" vector-effect="non-scaling-stroke" d="
  M 92.73 54.82
  A 14.81 14.81 0.0 0 0 77.92 40.01
  A 14.81 14.81 0.0 0 0 63.11 54.82
  A 14.81 14.81 0.0 0 0 77.92 69.63
  A 14.81 14.81 0.0 0 0 92.73 54.82"
/>
<path stroke="#808080" vector-effect="non-scaling-stroke" d="
  M 77.68 77.16
  A 0.74 0.74 0.0 0 1 78.34 77.16
  L 82.55 79.27
  A 0.74 0.74 0.0 0 0 83.63 78.61
  L 83.61 73.64
  A 0.74 0.74 0.0 0 0 82.54 72.98
  L 78.20 75.15
  A 0.74 0.74 0.0 0 1 77.54 75.15
  L 73.33 73.05
  A 0.74 0.74 0.0 0 0 72.26 73.71
  L 72.25 78.69
  A 0.74 0.74 0.0 0 0 73.32 79.35
  L 77.68 77.16"
/>
<path stroke="#808080" vector-effect="non-scaling-stroke" d="
  M 78.20 96.40
  A 0.31 0.31 0.0 0 1 77.63 96.40
  L 68.41 74.63
  Q 68.30 74.37 68.01 74.37
  L 61.85 74.40
  Q 61.70 74.40 61.75 74.55
  Q 66.32 87.90 59.20 99.33
  Q 58.81 99.95 58.81 100.69
  Q 59.00 155.06 58.82 210.08
  C 58.77 223.23 76.10 222.97 76.11 211.04
  Q 76.13 176.14 76.13 144.50
  Q 76.13 143.08 77.54 142.95
  L 77.89 142.91
  Q 79.73 142.73 79.73 144.58
  Q 79.79 177.45 79.72 210.60
  C 79.69 222.97 96.89 223.07 96.89 211.12
  Q 96.90 158.80 96.76 100.25
  Q 96.76 99.50 96.36 98.86
  Q 89.70 88.21 93.99 74.57
  A 0.17 0.16 7.9 0 0 93.83 74.36
  L 87.71 74.37
  Q 87.55 74.37 87.49 74.51
  L 78.20 96.40"
/>
<path stroke="#808080" vector-effect="non-scaling-stroke" d="
  M 46.75 150.55
  Q 51.70 151.85 54.62 147.64
  Q 55.87 145.83 55.87 142.14
  Q 55.87 116.61 56.10 91.57
  Q 56.11 90.39 57.08 89.17
  Q 57.46 88.70 57.55 88.10
  Q 58.53 81.65 55.91 75.04
  Q 55.70 74.52 55.16 74.67
  C 47.11 76.83 41.82 83.00 41.78 91.30
  Q 41.66 115.92 41.48 142.69
  C 41.46 146.40 42.89 149.53 46.75 150.55"
/>
<path stroke="#808080" vector-effect="non-scaling-stroke" d="
  M 99.56 90.94
  Q 99.70 92.07 99.70 93.16
  Q 99.79 118.48 99.89 143.34
  C 99.93 153.37 114.42 153.36 114.28 143.19
  Q 113.96 120.65 114.07 95.51
  Q 114.10 87.96 112.74 84.94
  Q 109.13 76.89 100.76 74.73
  Q 100.16 74.57 99.91 75.14
  Q 97.34 81.07 98.23 87.92
  C 98.39 89.15 99.42 89.75 99.56 90.94"
/>
<path stroke="#808080" vector-effect="non-scaling-stroke" d="
  M 169.07 104.12
  L 142.65 104.12
  Q 141.90 104.12 141.96 103.37
  C 142.22 100.24 141.99 97.28 138.18 96.90
  C 135.72 96.67 134.24 98.98 134.24 101.15
  Q 134.26 115.08 134.25 128.71
  A 0.29 0.29 0.0 0 0 134.54 129.00
  L 177.00 129.00
  Q 177.50 129.00 177.50 128.50
  L 177.50 101.50
  Q 177.50 98.11 174.23 96.94
  Q 173.87 96.81 173.51 96.86
  Q 169.95 97.40 169.74 100.65
  Q 169.66 101.98 169.79 103.33
  Q 169.87 104.12 169.07 104.12"
/>
<path stroke="#808080" vector-effect="non-scaling-stroke" d="
  M 118.40 150.62
  L 208.57 150.62
  A 1.93 1.93 0.0 0 0 210.50 148.69
  L 210.50 137.19
  Q 210.50 134.62 207.94 134.62
  L 120.45 134.62
  Q 119.81 134.62 119.83 135.26
  Q 119.93 139.74 119.86 144.43
  C 119.83 146.58 119.06 148.50 118.29 150.46
  Q 118.22 150.62 118.40 150.62"
/>
<path stroke="#808080" vector-effect="non-scaling-stroke" d="
  M 142.00 167.34
  A 1.09 1.09 0.0 0 1 143.09 166.25
  L 168.66 166.25
  A 1.09 1.09 0.0 0 1 169.75 167.34
  L 169.75 187.66
  A 1.09 1.09 0.0 0 0 170.84 188.75
  L 176.41 188.75
  A 1.09 1.09 0.0 0 0 177.50 187.66
  L 177.50 157.46
  A 1.09 1.09 0.0 0 0 176.41 156.37
  L 135.34 156.38
  A 1.09 1.09 0.0 0 0 134.25 157.47
  L 134.25 187.66
  A 1.09 1.09 0.0 0 0 135.34 188.75
  L 140.91 188.75
  A 1.09 1.09 0.0 0 0 142.00 187.66
  L 142.00 167.34"
/>
<path stroke="#808080" vector-effect="non-scaling-stroke" d="
  M 195.98 195.63
  L 201.90 195.63
  A 2.01 2.01 0.0 0 0 203.91 193.62
  L 203.91 157.09
  A 0.34 0.30 -90.0 0 0 203.61 156.75
  L 194.27 156.75
  A 0.34 0.30 90.0 0 0 193.97 157.09
  L 193.97 193.62
  A 2.01 2.01 0.0 0 0 195.98 195.63"
/>
<path stroke="#808080" vector-effect="non-scaling-stroke" d="
  M 80.18 109.42
  A 2.84 2.84 0.0 0 0 77.34 106.58
  A 2.84 2.84 0.0 0 0 74.50 109.42
  A 2.84 2.84 0.0 0 0 77.34 112.26
  A 2.84 2.84 0.0 0 0 80.18 109.42"
/>
<path stroke="#808080" vector-effect="non-scaling-stroke" d="
  M 80.20 124.85
  A 2.86 2.86 0.0 0 0 77.34 121.99
  A 2.86 2.86 0.0 0 0 74.48 124.85
  A 2.86 2.86 0.0 0 0 77.34 127.71
  A 2.86 2.86 0.0 0 0 80.20 124.85"
/>
</g>
<path fill="#ffffff" d="
  M 121.88 0.00
  L 134.24 0.00
  Q 139.12 0.58 143.98 1.20
  Q 175.56 5.19 200.37 22.43
  C 230.41 43.33 251.02 76.04 255.04 112.79
  Q 255.54 117.34 256.00 121.88
  L 256.00 133.23
  Q 253.54 178.70 225.15 211.38
  C 198.07 242.56 158.49 258.94 117.21 255.51
  C 91.99 253.41 66.96 243.62 47.26 227.32
  Q 11.84 197.99 2.47 153.07
  Q 1.51 148.45 0.96 143.29
  Q 0.45 138.59 0.00 133.87
  L 0.00 122.03
  Q 1.34 99.83 8.80 81.25
  Q 23.06 45.70 53.17 24.16
  Q 80.50 4.60 114.02 0.94
  Q 117.96 0.51 121.88 0.00
  Z
  M 92.73 54.82
  A 14.81 14.81 0.0 0 0 77.92 40.01
  A 14.81 14.81 0.0 0 0 63.11 54.82
  A 14.81 14.81 0.0 0 0 77.92 69.63
  A 14.81 14.81 0.0 0 0 92.73 54.82
  Z
  M 77.68 77.16
  A 0.74 0.74 0.0 0 1 78.34 77.16
  L 82.55 79.27
  A 0.74 0.74 0.0 0 0 83.63 78.61
  L 83.61 73.64
  A 0.74 0.74 0.0 0 0 82.54 72.98
  L 78.20 75.15
  A 0.74 0.74 0.0 0 1 77.54 75.15
  L 73.33 73.05
  A 0.74 0.74 0.0 0 0 72.26 73.71
  L 72.25 78.69
  A 0.74 0.74 0.0 0 0 73.32 79.35
  L 77.68 77.16
  Z
  M 78.20 96.40
  A 0.31 0.31 0.0 0 1 77.63 96.40
  L 68.41 74.63
  Q 68.30 74.37 68.01 74.37
  L 61.85 74.40
  Q 61.70 74.40 61.75 74.55
  Q 66.32 87.90 59.20 99.33
  Q 58.81 99.95 58.81 100.69
  Q 59.00 155.06 58.82 210.08
  C 58.77 223.23 76.10 222.97 76.11 211.04
  Q 76.13 176.14 76.13 144.50
  Q 76.13 143.08 77.54 142.95
  L 77.89 142.91
  Q 79.73 142.73 79.73 144.58
  Q 79.79 177.45 79.72 210.60
  C 79.69 222.97 96.89 223.07 96.89 211.12
  Q 96.90 158.80 96.76 100.25
  Q 96.76 99.50 96.36 98.86
  Q 89.70 88.21 93.99 74.57
  A 0.17 0.16 7.9 0 0 93.83 74.36
  L 87.71 74.37
  Q 87.55 74.37 87.49 74.51
  L 78.20 96.40
  Z
  M 46.75 150.55
  Q 51.70 151.85 54.62 147.64
  Q 55.87 145.83 55.87 142.14
  Q 55.87 116.61 56.10 91.57
  Q 56.11 90.39 57.08 89.17
  Q 57.46 88.70 57.55 88.10
  Q 58.53 81.65 55.91 75.04
  Q 55.70 74.52 55.16 74.67
  C 47.11 76.83 41.82 83.00 41.78 91.30
  Q 41.66 115.92 41.48 142.69
  C 41.46 146.40 42.89 149.53 46.75 150.55
  Z
  M 99.56 90.94
  Q 99.70 92.07 99.70 93.16
  Q 99.79 118.48 99.89 143.34
  C 99.93 153.37 114.42 153.36 114.28 143.19
  Q 113.96 120.65 114.07 95.51
  Q 114.10 87.96 112.74 84.94
  Q 109.13 76.89 100.76 74.73
  Q 100.16 74.57 99.91 75.14
  Q 97.34 81.07 98.23 87.92
  C 98.39 89.15 99.42 89.75 99.56 90.94
  Z
  M 169.07 104.12
  L 142.65 104.12
  Q 141.90 104.12 141.96 103.37
  C 142.22 100.24 141.99 97.28 138.18 96.90
  C 135.72 96.67 134.24 98.98 134.24 101.15
  Q 134.26 115.08 134.25 128.71
  A 0.29 0.29 0.0 0 0 134.54 129.00
  L 177.00 129.00
  Q 177.50 129.00 177.50 128.50
  L 177.50 101.50
  Q 177.50 98.11 174.23 96.94
  Q 173.87 96.81 173.51 96.86
  Q 169.95 97.40 169.74 100.65
  Q 169.66 101.98 169.79 103.33
  Q 169.87 104.12 169.07 104.12
  Z
  M 118.40 150.62
  L 208.57 150.62
  A 1.93 1.93 0.0 0 0 210.50 148.69
  L 210.50 137.19
  Q 210.50 134.62 207.94 134.62
  L 120.45 134.62
  Q 119.81 134.62 119.83 135.26
  Q 119.93 139.74 119.86 144.43
  C 119.83 146.58 119.06 148.50 118.29 150.46
  Q 118.22 150.62 118.40 150.62
  Z
  M 142.00 167.34
  A 1.09 1.09 0.0 0 1 143.09 166.25
  L 168.66 166.25
  A 1.09 1.09 0.0 0 1 169.75 167.34
  L 169.75 187.66
  A 1.09 1.09 0.0 0 0 170.84 188.75
  L 176.41 188.75
  A 1.09 1.09 0.0 0 0 177.50 187.66
  L 177.50 157.46
  A 1.09 1.09 0.0 0 0 176.41 156.37
  L 135.34 156.38
  A 1.09 1.09 0.0 0 0 134.25 157.47
  L 134.25 187.66
  A 1.09 1.09 0.0 0 0 135.34 188.75
  L 140.91 188.75
  A 1.09 1.09 0.0 0 0 142.00 187.66
  L 142.00 167.34
  Z
  M 195.98 195.63
  L 201.90 195.63
  A 2.01 2.01 0.0 0 0 203.91 193.62
  L 203.91 157.09
  A 0.34 0.30 -90.0 0 0 203.61 156.75
  L 194.27 156.75
  A 0.34 0.30 90.0 0 0 193.97 157.09
  L 193.97 193.62
  A 2.01 2.01 0.0 0 0 195.98 195.63
  Z"
/>
<circle fill="#000000" cx="77.92" cy="54.82" r="14.81"/>
<path fill="#000000" d="
  M 77.68 77.16
  L 73.32 79.35
  A 0.74 0.74 0.0 0 1 72.25 78.69
  L 72.26 73.71
  A 0.74 0.74 0.0 0 1 73.33 73.05
  L 77.54 75.15
  A 0.74 0.74 0.0 0 0 78.20 75.15
  L 82.54 72.98
  A 0.74 0.74 0.0 0 1 83.61 73.64
  L 83.63 78.61
  A 0.74 0.74 0.0 0 1 82.55 79.27
  L 78.34 77.16
  A 0.74 0.74 0.0 0 0 77.68 77.16
  Z"
/>
<path fill="#000000" d="
  M 78.20 96.40
  L 87.49 74.51
  Q 87.55 74.37 87.71 74.37
  L 93.83 74.36
  A 0.17 0.16 7.9 0 1 93.99 74.57
  Q 89.70 88.21 96.36 98.86
  Q 96.76 99.50 96.76 100.25
  Q 96.90 158.80 96.89 211.12
  C 96.89 223.07 79.69 222.97 79.72 210.60
  Q 79.79 177.45 79.73 144.58
  Q 79.73 142.73 77.89 142.91
  L 77.54 142.95
  Q 76.13 143.08 76.13 144.50
  Q 76.13 176.14 76.11 211.04
  C 76.10 222.97 58.77 223.23 58.82 210.08
  Q 59.00 155.06 58.81 100.69
  Q 58.81 99.95 59.20 99.33
  Q 66.32 87.90 61.75 74.55
  Q 61.70 74.40 61.85 74.40
  L 68.01 74.37
  Q 68.30 74.37 68.41 74.63
  L 77.63 96.40
  A 0.31 0.31 0.0 0 0 78.20 96.40
  Z
  M 80.18 109.42
  A 2.84 2.84 0.0 0 0 77.34 106.58
  A 2.84 2.84 0.0 0 0 74.50 109.42
  A 2.84 2.84 0.0 0 0 77.34 112.26
  A 2.84 2.84 0.0 0 0 80.18 109.42
  Z
  M 80.20 124.85
  A 2.86 2.86 0.0 0 0 77.34 121.99
  A 2.86 2.86 0.0 0 0 74.48 124.85
  A 2.86 2.86 0.0 0 0 77.34 127.71
  A 2.86 2.86 0.0 0 0 80.20 124.85
  Z"
/>
<path fill="#000000" d="
  M 46.75 150.55
  C 42.89 149.53 41.46 146.40 41.48 142.69
  Q 41.66 115.92 41.78 91.30
  C 41.82 83.00 47.11 76.83 55.16 74.67
  Q 55.70 74.52 55.91 75.04
  Q 58.53 81.65 57.55 88.10
  Q 57.46 88.70 57.08 89.17
  Q 56.11 90.39 56.10 91.57
  Q 55.87 116.61 55.87 142.14
  Q 55.87 145.83 54.62 147.64
  Q 51.70 151.85 46.75 150.55
  Z"
/>
<path fill="#000000" d="
  M 99.56 90.94
  C 99.42 89.75 98.39 89.15 98.23 87.92
  Q 97.34 81.07 99.91 75.14
  Q 100.16 74.57 100.76 74.73
  Q 109.13 76.89 112.74 84.94
  Q 114.10 87.96 114.07 95.51
  Q 113.96 120.65 114.28 143.19
  C 114.42 153.36 99.93 153.37 99.89 143.34
  Q 99.79 118.48 99.70 93.16
  Q 99.70 92.07 99.56 90.94
  Z"
/>
<path fill="#000000" d="
  M 169.79 103.33
  Q 169.66 101.98 169.74 100.65
  Q 169.95 97.40 173.51 96.86
  Q 173.87 96.81 174.23 96.94
  Q 177.50 98.11 177.50 101.50
  L 177.50 128.50
  Q 177.50 129.00 177.00 129.00
  L 134.54 129.00
  A 0.29 0.29 0.0 0 1 134.25 128.71
  Q 134.26 115.08 134.24 101.15
  C 134.24 98.98 135.72 96.67 138.18 96.90
  C 141.99 97.28 142.22 100.24 141.96 103.37
  Q 141.90 104.12 142.65 104.12
  L 169.07 104.12
  Q 169.87 104.12 169.79 103.33
  Z"
/>
<circle fill="#ffffff" cx="77.34" cy="109.42" r="2.84"/>
<circle fill="#ffffff" cx="77.34" cy="124.85" r="2.86"/>
<path fill="#000000" d="
  M 118.40 150.62
  Q 118.22 150.62 118.29 150.46
  C 119.06 148.50 119.83 146.58 119.86 144.43
  Q 119.93 139.74 119.83 135.26
  Q 119.81 134.62 120.45 134.62
  L 207.94 134.62
  Q 210.50 134.62 210.50 137.19
  L 210.50 148.69
  A 1.93 1.93 0.0 0 1 208.57 150.62
  L 118.40 150.62
  Z"
/>
<path fill="#000000" d="
  M 142.00 167.34
  L 142.00 187.66
  A 1.09 1.09 0.0 0 1 140.91 188.75
  L 135.34 188.75
  A 1.09 1.09 0.0 0 1 134.25 187.66
  L 134.25 157.47
  A 1.09 1.09 0.0 0 1 135.34 156.38
  L 176.41 156.37
  A 1.09 1.09 0.0 0 1 177.50 157.46
  L 177.50 187.66
  A 1.09 1.09 0.0 0 1 176.41 188.75
  L 170.84 188.75
  A 1.09 1.09 0.0 0 1 169.75 187.66
  L 169.75 167.34
  A 1.09 1.09 0.0 0 0 168.66 166.25
  L 143.09 166.25
  A 1.09 1.09 0.0 0 0 142.00 167.34
  Z"
/>
<path fill="#000000" d="
  M 195.98 195.63
  A 2.01 2.01 0.0 0 1 193.97 193.62
  L 193.97 157.09
  A 0.34 0.30 -90.0 0 1 194.27 156.75
  L 203.61 156.75
  A 0.34 0.30 -90.0 0 1 203.91 157.09
  L 203.91 193.62
  A 2.01 2.01 0.0 0 1 201.90 195.63
  L 195.98 195.63
  Z"
/>
</svg>
