<?xml version="1.0" encoding="UTF-8" standalone="no"?>
<!DOCTYPE svg PUBLIC "-//W3C//DTD SVG 1.1//EN" "http://www.w3.org/Graphics/SVG/1.1/DTD/svg11.dtd">
<svg xmlns="http://www.w3.org/2000/svg" version="1.1" viewBox="0.00 0.00 256.00 360.00">
<g stroke-width="2.00" fill="none" stroke-linecap="butt">
<path stroke="#808081" vector-effect="non-scaling-stroke" d="
  M 107.29 51.57
  C 95.93 53.92 98.62 69.78 110.28 68.34
  Q 110.81 68.27 111.20 68.64
  L 126.48 83.24
  Q 127.22 83.95 127.97 83.24
  L 141.81 70.00
  A 0.39 0.39 0.0 0 0 141.81 69.44
  L 125.94 54.29
  A 1.20 1.19 -67.1 0 1 125.56 53.35
  C 126.15 42.43 110.70 40.39 107.90 50.99
  A 0.81 0.80 -88.1 0 1 107.29 51.57"
/>
<path stroke="#808081" vector-effect="non-scaling-stroke" d="
  M 144.24 70.84
  L 127.92 86.22
  A 0.17 0.17 0.0 0 0 127.91 86.46
  L 128.00 86.55
  A 11.31 11.03 -43.3 0 0 143.79 86.82
  L 143.89 86.72
  A 11.31 11.03 -43.3 0 0 144.56 70.94
  L 144.48 70.85
  A 0.17 0.17 0.0 0 0 144.24 70.84"
/>
<path stroke="#808081" vector-effect="non-scaling-stroke" d="
  M 162.86 187.58
  Q 162.98 197.90 164.47 204.30
  C 167.35 216.74 186.28 212.97 184.11 200.15
  Q 179.20 171.15 195.65 147.98
  C 197.24 145.74 198.35 142.99 197.75 140.20
  Q 196.47 134.29 193.78 127.99
  Q 183.75 104.45 161.91 87.88
  C 159.36 85.94 155.54 85.00 152.54 85.81
  Q 140.15 89.16 140.25 100.68
  Q 140.27 103.27 139.33 105.84
  Q 134.03 120.42 119.19 121.77
  C 114.62 122.19 111.91 125.38 112.31 130.06
  Q 112.36 130.62 111.85 130.86
  Q 105.73 133.77 99.21 137.26
  Q 97.49 138.18 95.50 138.17
  Q 81.10 138.08 66.34 138.13
  Q 66.00 138.14 66.00 138.47
  L 66.00 144.50
  Q 66.01 144.75 66.25 144.75
  L 99.76 144.75
  Q 100.27 144.75 100.27 144.24
  L 100.24 142.14
  Q 100.24 141.47 100.84 141.16
  L 114.00 134.46
  Q 114.42 134.25 114.85 134.45
  Q 117.26 135.60 120.34 135.20
  Q 141.07 132.46 149.95 115.31
  Q 150.22 114.78 150.67 115.17
  Q 163.38 126.50 168.90 142.60
  Q 169.10 143.20 168.58 143.57
  C 158.96 150.37 156.50 159.43 156.71 170.65
  Q 156.85 178.54 156.69 186.41
  Q 156.68 187.06 157.33 187.03
  L 162.12 186.86
  Q 162.86 186.84 162.86 187.58"
/>
<path stroke="#808081" vector-effect="non-scaling-stroke" d="
  M 116.50 147.57
  A 0.32 0.32 0.0 0 0 116.18 147.25
  L 58.46 147.25
  A 0.32 0.32 0.0 0 0 58.14 147.57
  L 58.14 203.93
  A 0.32 0.32 0.0 0 0 58.46 204.25
  L 116.18 204.25
  A 0.32 0.32 0.0 0 0 116.50 203.93
  L 116.50 147.57"
/>
</g>
<path fill="#ffffff" d="
  M 121.87 0.00
  L 134.24 0.00
  Q 139.12 0.58 143.98 1.20
  Q 175.51 5.18 200.62 22.57
  Q 208.95 28.33 216.00 35.10
  Q 249.80 67.51 255.28 114.48
  C 255.57 116.91 255.53 119.45 256.00 121.88
  L 256.00 133.23
  Q 253.60 177.81 226.17 210.17
  C 198.84 242.42 158.21 259.34 116.03 255.40
  C 89.65 252.94 64.43 242.36 44.37 224.83
  Q 3.91 189.46 0.00 133.88
  L 0.00 122.01
  Q 0.56 117.00 1.19 112.02
  Q 4.67 84.27 19.00 60.86
  Q 24.09 52.55 30.84 44.77
  Q 66.14 4.06 121.87 0.00
  Z
  M 107.29 51.57
  C 95.93 53.92 98.62 69.78 110.28 68.34
  Q 110.81 68.27 111.20 68.64
  L 126.48 83.24
  Q 127.22 83.95 127.97 83.24
  L 141.81 70.00
  A 0.39 0.39 0.0 0 0 141.81 69.44
  L 125.94 54.29
  A 1.20 1.19 -67.1 0 1 125.56 53.35
  C 126.15 42.43 110.70 40.39 107.90 50.99
  A 0.81 0.80 -88.1 0 1 107.29 51.57
  Z
  M 144.24 70.84
  L 127.92 86.22
  A 0.17 0.17 0.0 0 0 127.91 86.46
  L 128.00 86.55
  A 11.31 11.03 -43.3 0 0 143.79 86.82
  L 143.89 86.72
  A 11.31 11.03 -43.3 0 0 144.56 70.94
  L 144.48 70.85
  A 0.17 0.17 0.0 0 0 144.24 70.84
  Z
  M 162.86 187.58
  Q 162.98 197.90 164.47 204.30
  C 167.35 216.74 186.28 212.97 184.11 200.15
  Q 179.20 171.15 195.65 147.98
  C 197.24 145.74 198.35 142.99 197.75 140.20
  Q 196.47 134.29 193.78 127.99
  Q 183.75 104.45 161.91 87.88
  C 159.36 85.94 155.54 85.00 152.54 85.81
  Q 140.15 89.16 140.25 100.68
  Q 140.27 103.27 139.33 105.84
  Q 134.03 120.42 119.19 121.77
  C 114.62 122.19 111.91 125.38 112.31 130.06
  Q 112.36 130.62 111.85 130.86
  Q 105.73 133.77 99.21 137.26
  Q 97.49 138.18 95.50 138.17
  Q 81.10 138.08 66.34 138.13
  Q 66.00 138.14 66.00 138.47
  L 66.00 144.50
  Q 66.01 144.75 66.25 144.75
  L 99.76 144.75
  Q 100.27 144.75 100.27 144.24
  L 100.24 142.14
  Q 100.24 141.47 100.84 141.16
  L 114.00 134.46
  Q 114.42 134.25 114.85 134.45
  Q 117.26 135.60 120.34 135.20
  Q 141.07 132.46 149.95 115.31
  Q 150.22 114.78 150.67 115.17
  Q 163.38 126.50 168.90 142.60
  Q 169.10 143.20 168.58 143.57
  C 158.96 150.37 156.50 159.43 156.71 170.65
  Q 156.85 178.54 156.69 186.41
  Q 156.68 187.06 157.33 187.03
  L 162.12 186.86
  Q 162.86 186.84 162.86 187.58
  Z
  M 116.50 147.57
  A 0.32 0.32 0.0 0 0 116.18 147.25
  L 58.46 147.25
  A 0.32 0.32 0.0 0 0 58.14 147.57
  L 58.14 203.93
  A 0.32 0.32 0.0 0 0 58.46 204.25
  L 116.18 204.25
  A 0.32 0.32 0.0 0 0 116.50 203.93
  L 116.50 147.57
  Z"
/>
<path fill="#010002" d="
  M 107.90 50.99
  C 110.70 40.39 126.15 42.43 125.56 53.35
  A 1.20 1.19 -67.1 0 0 125.94 54.29
  L 141.81 69.44
  A 0.39 0.39 0.0 0 1 141.81 70.00
  L 127.97 83.24
  Q 127.22 83.95 126.48 83.24
  L 111.20 68.64
  Q 110.81 68.27 110.28 68.34
  C 98.62 69.78 95.93 53.92 107.29 51.57
  A 0.81 0.80 -88.1 0 0 107.90 50.99
  Z"
/>
<path fill="#010002" d="
  M 144.24 70.84
  A 0.17 0.17 0.0 0 1 144.48 70.85
  L 144.56 70.94
  A 11.31 11.03 -43.3 0 1 143.89 86.72
  L 143.79 86.82
  A 11.31 11.03 -43.3 0 1 128.00 86.55
  L 127.91 86.46
  A 0.17 0.17 0.0 0 1 127.92 86.22
  L 144.24 70.84
  Z"
/>
<path fill="#010002" d="
  M 162.12 186.86
  L 157.33 187.03
  Q 156.68 187.06 156.69 186.41
  Q 156.85 178.54 156.71 170.65
  C 156.50 159.43 158.96 150.37 168.58 143.57
  Q 169.10 143.20 168.90 142.60
  Q 163.38 126.50 150.67 115.17
  Q 150.22 114.78 149.95 115.31
  Q 141.07 132.46 120.34 135.20
  Q 117.26 135.60 114.85 134.45
  Q 114.42 134.25 114.00 134.46
  L 100.84 141.16
  Q 100.24 141.47 100.24 142.14
  L 100.27 144.24
  Q 100.27 144.75 99.76 144.75
  L 66.25 144.75
  Q 66.01 144.75 66.00 144.50
  L 66.00 138.47
  Q 66.00 138.14 66.34 138.13
  Q 81.10 138.08 95.50 138.17
  Q 97.49 138.18 99.21 137.26
  Q 105.73 133.77 111.85 130.86
  Q 112.36 130.62 112.31 130.06
  C 111.91 125.38 114.62 122.19 119.19 121.77
  Q 134.03 120.42 139.33 105.84
  Q 140.27 103.27 140.25 100.68
  Q 140.15 89.16 152.54 85.81
  C 155.54 85.00 159.36 85.94 161.91 87.88
  Q 183.75 104.45 193.78 127.99
  Q 196.47 134.29 197.75 140.20
  C 198.35 142.99 197.24 145.74 195.65 147.98
  Q 179.20 171.15 184.11 200.15
  C 186.28 212.97 167.35 216.74 164.47 204.30
  Q 162.98 197.90 162.86 187.58
  Q 162.86 186.84 162.12 186.86
  Z"
/>
<rect fill="#010002" x="58.14" y="147.25" width="58.36" height="57.00" rx="0.32"/>
</svg>
