<?xml version="1.0" encoding="UTF-8" standalone="no"?>
<!DOCTYPE svg PUBLIC "-//W3C//DTD SVG 1.1//EN" "http://www.w3.org/Graphics/SVG/1.1/DTD/svg11.dtd">
<svg xmlns="http://www.w3.org/2000/svg" version="1.1" viewBox="0.00 0.00 268.00 360.00">
<g stroke-width="2.00" fill="none" stroke-linecap="butt">
<path stroke="#808080" vector-effect="non-scaling-stroke" d="
  M 90.21 46.83
  A 14.83 14.83 0.0 0 0 75.38 32.00
  A 14.83 14.83 0.0 0 0 60.55 46.83
  A 14.83 14.83 0.0 0 0 75.38 61.66
  A 14.83 14.83 0.0 0 0 90.21 46.83"
/>
<path stroke="#808080" vector-effect="non-scaling-stroke" d="
  M 169.58 82.67
  C 172.16 79.73 173.63 75.60 172.30 71.76
  C 171.33 68.98 170.05 65.72 170.33 62.75
  Q 170.62 59.77 169.19 62.40
  Q 166.65 67.10 167.68 72.54
  Q 168.58 77.26 168.79 82.39
  A 0.45 0.45 0.0 0 0 169.58 82.67"
/>
<path stroke="#808080" vector-effect="non-scaling-stroke" d="
  M 85.05 78.72
  L 97.27 91.38
  A 2.51 2.51 0.0 0 0 98.93 92.15
  Q 104.53 92.49 109.82 92.95
  Q 112.44 93.18 115.14 92.25
  Q 121.70 89.98 127.76 88.25
  A 0.69 0.67 63.6 0 1 128.48 88.50
  L 141.87 106.38
  Q 142.23 106.87 141.62 106.87
  L 132.84 106.87
  Q 132.29 106.87 132.30 107.42
  Q 132.33 109.51 131.24 111.81
  Q 131.02 112.25 131.52 112.25
  L 140.76 112.25
  Q 141.34 112.25 141.56 112.78
  C 143.74 118.01 148.51 119.62 154.08 119.43
  Q 159.98 119.22 165.81 119.38
  Q 172.46 119.57 174.96 119.05
  C 179.78 118.04 184.12 113.16 183.41 107.91
  A 1.19 1.18 86.1 0 0 182.24 106.88
  L 149.93 106.88
  A 1.10 1.10 0.0 0 1 149.05 106.44
  L 133.85 86.13
  Q 133.51 85.67 133.84 85.22
  Q 136.78 81.23 134.88 77.47
  Q 132.04 71.84 125.41 73.87
  Q 124.80 74.05 124.41 73.55
  C 123.18 71.95 122.43 69.94 119.88 70.63
  C 117.65 71.24 117.20 73.77 118.71 75.37
  Q 119.20 75.89 118.52 76.11
  L 108.00 79.40
  Q 107.49 79.56 107.02 79.30
  Q 100.94 75.84 94.77 72.44
  Q 93.21 71.58 92.15 70.08
  C 89.95 66.97 86.33 65.93 82.51 66.04
  Q 75.17 66.26 67.73 66.05
  C 63.53 65.94 59.98 67.43 57.69 71.09
  Q 56.25 73.39 56.31 78.19
  Q 56.45 88.95 56.34 98.83
  Q 56.33 99.50 57.00 99.50
  L 72.75 99.50
  Q 73.28 99.50 73.31 98.97
  Q 73.67 92.89 72.96 87.22
  A 0.06 0.06 0.0 0 1 73.07 87.19
  Q 78.52 96.95 84.09 106.89
  C 85.54 109.48 87.54 111.41 90.60 111.62
  Q 103.91 112.55 118.64 113.70
  C 128.45 114.47 130.08 99.91 118.58 99.23
  Q 107.73 98.59 95.78 97.60
  Q 95.30 97.56 95.06 97.14
  L 84.81 78.91
  Q 84.22 77.86 85.05 78.72"
/>
<path stroke="#808080" vector-effect="non-scaling-stroke" d="
  M 158.24 96.70
  C 158.46 97.87 158.23 98.83 158.29 99.97
  Q 158.42 102.38 159.89 100.47
  C 162.01 97.70 163.18 93.91 162.02 90.44
  C 161.01 87.42 159.73 84.24 160.03 81.00
  Q 160.25 78.67 159.04 80.67
  C 156.06 85.64 157.22 91.30 158.24 96.70"
/>
<path stroke="#808080" vector-effect="non-scaling-stroke" d="
  M 78.38 112.31
  L 78.38 139.19
  A 2.31 2.31 0.0 0 0 80.69 141.50
  L 103.42 141.50
  A 2.38 2.38 0.0 0 0 105.68 138.38
  L 99.18 118.49
  Q 99.02 118.02 98.54 117.97
  C 94.33 117.50 89.22 117.80 85.49 116.11
  C 82.31 114.68 79.67 111.67 78.81 108.16
  Q 78.42 106.58 77.95 105.03
  Q 77.80 104.50 77.25 104.50
  L 56.72 104.50
  Q 56.38 104.50 56.38 104.84
  L 56.36 111.41
  Q 56.36 111.75 56.70 111.75
  L 77.81 111.75
  Q 78.38 111.75 78.38 112.31"
/>
<path stroke="#808080" vector-effect="non-scaling-stroke" d="
  M 41.32 186.89
  Q 38.32 194.21 44.34 198.30
  C 49.24 201.62 55.06 198.69 57.12 193.67
  Q 64.56 175.49 71.37 159.06
  Q 72.25 156.93 72.38 154.48
  Q 73.52 134.40 73.30 117.32
  Q 73.29 116.75 72.72 116.75
  L 57.00 116.75
  Q 56.42 116.75 56.42 117.33
  Q 56.32 132.55 55.34 150.87
  Q 55.22 153.26 54.18 155.76
  Q 47.20 172.55 41.32 186.89"
/>
<path stroke="#808080" vector-effect="non-scaling-stroke" d="
  M 136.75 137.46
  L 136.75 196.80
  A 2.06 2.05 -90.0 0 0 138.80 198.86
  L 185.70 198.86
  A 2.06 2.05 90.0 0 0 187.75 196.80
  L 187.75 137.27
  Q 187.75 136.76 188.25 136.68
  C 195.78 135.45 194.86 125.24 187.24 125.24
  Q 160.99 125.25 136.82 125.26
  C 129.74 125.26 128.72 135.41 136.09 136.68
  Q 136.75 136.80 136.75 137.46"
/>
<path stroke="#808080" vector-effect="non-scaling-stroke" d="
  M 83.46 146.76
  L 85.14 151.39
  Q 85.33 151.90 85.22 152.44
  Q 81.24 171.40 77.56 188.31
  C 76.91 191.34 77.24 194.26 79.30 196.66
  C 82.76 200.69 89.13 200.59 92.44 196.51
  Q 93.88 194.74 94.59 191.28
  Q 99.46 167.83 102.65 153.10
  Q 103.31 150.04 101.81 147.10
  Q 101.57 146.62 101.04 146.62
  L 83.56 146.62
  A 0.11 0.10 -11.0 0 0 83.46 146.76"
/>
</g>
<path fill="#ffffff" d="
  M 121.88 0.00
  L 134.24 0.00
  Q 139.12 0.58 143.98 1.20
  Q 181.53 5.95 209.82 29.62
  Q 235.75 51.32 247.61 82.49
  C 272.85 148.86 239.35 222.36 173.45 247.62
  C 127.92 265.07 74.87 254.72 39.49 220.45
  C 18.25 199.87 4.19 172.70 0.94 143.13
  Q 0.43 138.50 0.00 133.87
  L 0.00 122.01
  Q 0.41 118.59 0.70 115.15
  Q 1.01 111.39 1.61 107.83
  C 7.81 70.95 28.46 39.37 60.35 19.35
  Q 84.46 4.20 114.02 0.95
  Q 117.96 0.52 121.88 0.00
  Z
  M 90.21 46.83
  A 14.83 14.83 0.0 0 0 75.38 32.00
  A 14.83 14.83 0.0 0 0 60.55 46.83
  A 14.83 14.83 0.0 0 0 75.38 61.66
  A 14.83 14.83 0.0 0 0 90.21 46.83
  Z
  M 169.58 82.67
  C 172.16 79.73 173.63 75.60 172.30 71.76
  C 171.33 68.98 170.05 65.72 170.33 62.75
  Q 170.62 59.77 169.19 62.40
  Q 166.65 67.10 167.68 72.54
  Q 168.58 77.26 168.79 82.39
  A 0.45 0.45 0.0 0 0 169.58 82.67
  Z
  M 85.05 78.72
  L 97.27 91.38
  A 2.51 2.51 0.0 0 0 98.93 92.15
  Q 104.53 92.49 109.82 92.95
  Q 112.44 93.18 115.14 92.25
  Q 121.70 89.98 127.76 88.25
  A 0.69 0.67 63.6 0 1 128.48 88.50
  L 141.87 106.38
  Q 142.23 106.87 141.62 106.87
  L 132.84 106.87
  Q 132.29 106.87 132.30 107.42
  Q 132.33 109.51 131.24 111.81
  Q 131.02 112.25 131.52 112.25
  L 140.76 112.25
  Q 141.34 112.25 141.56 112.78
  C 143.74 118.01 148.51 119.62 154.08 119.43
  Q 159.98 119.22 165.81 119.38
  Q 172.46 119.57 174.96 119.05
  C 179.78 118.04 184.12 113.16 183.41 107.91
  A 1.19 1.18 86.1 0 0 182.24 106.88
  L 149.93 106.88
  A 1.10 1.10 0.0 0 1 149.05 106.44
  L 133.85 86.13
  Q 133.51 85.67 133.84 85.22
  Q 136.78 81.23 134.88 77.47
  Q 132.04 71.84 125.41 73.87
  Q 124.80 74.05 124.41 73.55
  C 123.18 71.95 122.43 69.94 119.88 70.63
  C 117.65 71.24 117.20 73.77 118.71 75.37
  Q 119.20 75.89 118.52 76.11
  L 108.00 79.40
  Q 107.49 79.56 107.02 79.30
  Q 100.94 75.84 94.77 72.44
  Q 93.21 71.58 92.15 70.08
  C 89.95 66.97 86.33 65.93 82.51 66.04
  Q 75.17 66.26 67.73 66.05
  C 63.53 65.94 59.98 67.43 57.69 71.09
  Q 56.25 73.39 56.31 78.19
  Q 56.45 88.95 56.34 98.83
  Q 56.33 99.50 57.00 99.50
  L 72.75 99.50
  Q 73.28 99.50 73.31 98.97
  Q 73.67 92.89 72.96 87.22
  A 0.06 0.06 0.0 0 1 73.07 87.19
  Q 78.52 96.95 84.09 106.89
  C 85.54 109.48 87.54 111.41 90.60 111.62
  Q 103.91 112.55 118.64 113.70
  C 128.45 114.47 130.08 99.91 118.58 99.23
  Q 107.73 98.59 95.78 97.60
  Q 95.30 97.56 95.06 97.14
  L 84.81 78.91
  Q 84.22 77.86 85.05 78.72
  Z
  M 158.24 96.70
  C 158.46 97.87 158.23 98.83 158.29 99.97
  Q 158.42 102.38 159.89 100.47
  C 162.01 97.70 163.18 93.91 162.02 90.44
  C 161.01 87.42 159.73 84.24 160.03 81.00
  Q 160.25 78.67 159.04 80.67
  C 156.06 85.64 157.22 91.30 158.24 96.70
  Z
  M 78.38 112.31
  L 78.38 139.19
  A 2.31 2.31 0.0 0 0 80.69 141.50
  L 103.42 141.50
  A 2.38 2.38 0.0 0 0 105.68 138.38
  L 99.18 118.49
  Q 99.02 118.02 98.54 117.97
  C 94.33 117.50 89.22 117.80 85.49 116.11
  C 82.31 114.68 79.67 111.67 78.81 108.16
  Q 78.42 106.58 77.95 105.03
  Q 77.80 104.50 77.25 104.50
  L 56.72 104.50
  Q 56.38 104.50 56.38 104.84
  L 56.36 111.41
  Q 56.36 111.75 56.70 111.75
  L 77.81 111.75
  Q 78.38 111.75 78.38 112.31
  Z
  M 41.32 186.89
  Q 38.32 194.21 44.34 198.30
  C 49.24 201.62 55.06 198.69 57.12 193.67
  Q 64.56 175.49 71.37 159.06
  Q 72.25 156.93 72.38 154.48
  Q 73.52 134.40 73.30 117.32
  Q 73.29 116.75 72.72 116.75
  L 57.00 116.75
  Q 56.42 116.75 56.42 117.33
  Q 56.32 132.55 55.34 150.87
  Q 55.22 153.26 54.18 155.76
  Q 47.20 172.55 41.32 186.89
  Z
  M 136.75 137.46
  L 136.75 196.80
  A 2.06 2.05 -90.0 0 0 138.80 198.86
  L 185.70 198.86
  A 2.06 2.05 90.0 0 0 187.75 196.80
  L 187.75 137.27
  Q 187.75 136.76 188.25 136.68
  C 195.78 135.45 194.86 125.24 187.24 125.24
  Q 160.99 125.25 136.82 125.26
  C 129.74 125.26 128.72 135.41 136.09 136.68
  Q 136.75 136.80 136.75 137.46
  Z
  M 83.46 146.76
  L 85.14 151.39
  Q 85.33 151.90 85.22 152.44
  Q 81.24 171.40 77.56 188.31
  C 76.91 191.34 77.24 194.26 79.30 196.66
  C 82.76 200.69 89.13 200.59 92.44 196.51
  Q 93.88 194.74 94.59 191.28
  Q 99.46 167.83 102.65 153.10
  Q 103.31 150.04 101.81 147.10
  Q 101.57 146.62 101.04 146.62
  L 83.56 146.62
  A 0.11 0.10 -11.0 0 0 83.46 146.76
  Z"
/>
<circle fill="#000000" cx="75.38" cy="46.83" r="14.83"/>
<path fill="#000000" d="
  M 172.30 71.76
  C 173.63 75.60 172.16 79.73 169.58 82.67
  A 0.45 0.45 0.0 0 1 168.79 82.39
  Q 168.58 77.26 167.68 72.54
  Q 166.65 67.10 169.19 62.40
  Q 170.62 59.77 170.33 62.75
  C 170.05 65.72 171.33 68.98 172.30 71.76
  Z"
/>
<path fill="#000000" d="
  M 84.81 78.91
  L 95.06 97.14
  Q 95.30 97.56 95.78 97.60
  Q 107.73 98.59 118.58 99.23
  C 130.08 99.91 128.45 114.47 118.64 113.70
  Q 103.91 112.55 90.60 111.62
  C 87.54 111.41 85.54 109.48 84.09 106.89
  Q 78.52 96.95 73.07 87.19
  A 0.06 0.06 0.0 0 0 72.96 87.22
  Q 73.67 92.89 73.31 98.97
  Q 73.28 99.50 72.75 99.50
  L 57.00 99.50
  Q 56.33 99.50 56.34 98.83
  Q 56.45 88.95 56.31 78.19
  Q 56.25 73.39 57.69 71.09
  C 59.98 67.43 63.53 65.94 67.73 66.05
  Q 75.17 66.26 82.51 66.04
  C 86.33 65.93 89.95 66.97 92.15 70.08
  Q 93.21 71.58 94.77 72.44
  Q 100.94 75.84 107.02 79.30
  Q 107.49 79.56 108.00 79.40
  L 118.52 76.11
  Q 119.20 75.89 118.71 75.37
  C 117.20 73.77 117.65 71.24 119.88 70.63
  C 122.43 69.94 123.18 71.95 124.41 73.55
  Q 124.80 74.05 125.41 73.87
  Q 132.04 71.84 134.88 77.47
  Q 136.78 81.23 133.84 85.22
  Q 133.51 85.67 133.85 86.13
  L 149.05 106.44
  A 1.10 1.10 0.0 0 0 149.93 106.88
  L 182.24 106.88
  A 1.19 1.18 86.1 0 1 183.41 107.91
  C 184.12 113.16 179.78 118.04 174.96 119.05
  Q 172.46 119.57 165.81 119.38
  Q 159.98 119.22 154.08 119.43
  C 148.51 119.62 143.74 118.01 141.56 112.78
  Q 141.34 112.25 140.76 112.25
  L 131.52 112.25
  Q 131.02 112.25 131.24 111.81
  Q 132.33 109.51 132.30 107.42
  Q 132.29 106.87 132.84 106.87
  L 141.62 106.87
  Q 142.23 106.87 141.87 106.38
  L 128.48 88.50
  A 0.69 0.67 63.6 0 0 127.76 88.25
  Q 121.70 89.98 115.14 92.25
  Q 112.44 93.18 109.82 92.95
  Q 104.53 92.49 98.93 92.15
  A 2.51 2.51 0.0 0 1 97.27 91.38
  L 85.05 78.72
  Q 84.22 77.86 84.81 78.91
  Z"
/>
<path fill="#000000" d="
  M 158.24 96.70
  C 157.22 91.30 156.06 85.64 159.04 80.67
  Q 160.25 78.67 160.03 81.00
  C 159.73 84.24 161.01 87.42 162.02 90.44
  C 163.18 93.91 162.01 97.70 159.89 100.47
  Q 158.42 102.38 158.29 99.97
  C 158.23 98.83 158.46 97.87 158.24 96.70
  Z"
/>
<path fill="#000000" d="
  M 77.81 111.75
  L 56.70 111.75
  Q 56.36 111.75 56.36 111.41
  L 56.38 104.84
  Q 56.38 104.50 56.72 104.50
  L 77.25 104.50
  Q 77.80 104.50 77.95 105.03
  Q 78.42 106.58 78.81 108.16
  C 79.67 111.67 82.31 114.68 85.49 116.11
  C 89.22 117.80 94.33 117.50 98.54 117.97
  Q 99.02 118.02 99.18 118.49
  L 105.68 138.38
  A 2.38 2.38 0.0 0 1 103.42 141.50
  L 80.69 141.50
  A 2.31 2.31 0.0 0 1 78.38 139.19
  L 78.38 112.31
  Q 78.38 111.75 77.81 111.75
  Z"
/>
<path fill="#000000" d="
  M 41.32 186.89
  Q 47.20 172.55 54.18 155.76
  Q 55.22 153.26 55.34 150.87
  Q 56.32 132.55 56.42 117.33
  Q 56.42 116.75 57.00 116.75
  L 72.72 116.75
  Q 73.29 116.75 73.30 117.32
  Q 73.52 134.40 72.38 154.48
  Q 72.25 156.93 71.37 159.06
  Q 64.56 175.49 57.12 193.67
  C 55.06 198.69 49.24 201.62 44.34 198.30
  Q 38.32 194.21 41.32 186.89
  Z"
/>
<path fill="#000000" d="
  M 136.09 136.68
  C 128.72 135.41 129.74 125.26 136.82 125.26
  Q 160.99 125.25 187.24 125.24
  C 194.86 125.24 195.78 135.45 188.25 136.68
  Q 187.75 136.76 187.75 137.27
  L 187.75 196.80
  A 2.06 2.05 90.0 0 1 185.70 198.86
  L 138.80 198.86
  A 2.06 2.05 -90.0 0 1 136.75 196.80
  L 136.75 137.46
  Q 136.75 136.80 136.09 136.68
  Z"
/>
<path fill="#000000" d="
  M 83.46 146.76
  A 0.11 0.10 -11.0 0 1 83.56 146.62
  L 101.04 146.62
  Q 101.57 146.62 101.81 147.10
  Q 103.31 150.04 102.65 153.10
  Q 99.46 167.83 94.59 191.28
  Q 93.88 194.74 92.44 196.51
  C 89.13 200.59 82.76 200.69 79.30 196.66
  C 77.24 194.26 76.91 191.34 77.56 188.31
  Q 81.24 171.40 85.22 152.44
  Q 85.33 151.90 85.14 151.39
  L 83.46 146.76
  Z"
/>
</svg>
