<?xml version="1.0" encoding="UTF-8" standalone="no"?>
<!DOCTYPE svg PUBLIC "-//W3C//DTD SVG 1.1//EN" "http://www.w3.org/Graphics/SVG/1.1/DTD/svg11.dtd">
<svg xmlns="http://www.w3.org/2000/svg" version="1.1" viewBox="0.00 0.00 256.00 360.00">
<g stroke-width="2.00" fill="none" stroke-linecap="butt">
<path stroke="#808080" vector-effect="non-scaling-stroke" d="
  M 120.64 64.00
  A 16.00 16.00 0.0 0 0 104.64 48.00
  A 16.00 16.00 0.0 0 0 88.64 64.00
  A 16.00 16.00 0.0 0 0 104.64 80.00
  A 16.00 16.00 0.0 0 0 120.64 64.00"
/>
<path stroke="#808080" vector-effect="non-scaling-stroke" d="
  M 136.73 112.50
  A 0.87 0.87 0.0 0 1 135.96 112.00
  L 124.57 87.02
  Q 123.41 84.48 120.67 83.93
  Q 118.14 83.43 116.06 83.01
  Q 113.42 82.49 114.72 84.85
  Q 118.59 91.84 112.60 98.60
  A 1.41 1.40 -46.8 0 1 110.56 98.67
  L 105.02 93.16
  A 0.48 0.47 44.6 0 0 104.35 93.16
  L 98.89 98.59
  A 1.58 1.58 0.0 0 1 96.58 98.52
  Q 90.89 92.04 94.59 84.71
  Q 95.74 82.45 93.26 82.99
  Q 90.89 83.50 88.53 84.01
  Q 85.81 84.60 84.67 87.13
  Q 74.33 109.90 62.27 136.14
  Q 61.48 137.86 61.26 139.56
  C 60.58 144.91 66.43 148.50 71.08 146.22
  Q 73.38 145.10 74.99 141.43
  Q 79.78 130.53 84.87 119.76
  Q 85.26 118.95 85.26 119.85
  Q 85.25 158.78 85.18 202.75
  Q 85.17 209.58 90.92 211.58
  C 94.44 212.80 98.29 211.37 100.34 208.32
  Q 101.74 206.23 101.70 201.57
  Q 101.50 178.20 101.66 155.02
  Q 101.66 154.84 101.84 154.84
  L 107.44 154.90
  Q 107.58 154.90 107.59 155.05
  Q 107.72 177.96 107.55 201.27
  C 107.52 205.94 108.29 209.68 112.89 211.38
  C 117.94 213.25 123.99 209.96 123.99 204.17
  Q 124.00 164.19 124.02 119.74
  Q 124.02 119.43 124.33 119.39
  L 124.62 119.37
  Q 124.68 119.36 124.69 119.42
  Q 125.43 123.60 128.57 125.34
  Q 130.35 126.34 133.07 126.30
  Q 143.37 126.15 152.70 126.30
  C 156.43 126.36 159.57 124.83 160.52 120.89
  Q 161.43 117.13 158.15 114.12
  Q 157.61 113.63 158.34 113.63
  Q 172.48 113.65 186.72 113.58
  C 192.19 113.56 192.21 105.58 186.52 105.40
  Q 182.26 105.27 177.94 105.44
  Q 177.02 105.47 177.66 104.82
  Q 181.80 100.56 182.80 95.21
  C 183.13 93.44 181.77 91.98 179.98 91.99
  Q 166.09 92.02 150.34 91.99
  A 2.60 2.60 0.0 0 0 147.74 94.50
  C 147.61 97.86 150.87 102.81 152.93 104.81
  Q 153.50 105.36 152.70 105.38
  Q 149.47 105.45 145.46 105.29
  Q 142.60 105.19 141.39 106.18
  Q 138.59 108.50 140.55 112.11
  Q 140.78 112.52 140.31 112.52
  L 136.73 112.50"
/>
<path stroke="#808080" vector-effect="non-scaling-stroke" d="
  M 108.42 83.70
  A 0.33 0.33 0.0 0 0 108.19 83.14
  L 101.04 83.12
  A 0.33 0.33 0.0 0 0 100.81 83.69
  L 104.40 87.27
  A 0.33 0.33 0.0 0 0 104.86 87.27
  L 108.42 83.70"
/>
</g>
<path fill="#ffffff" d="
  M 121.88 0.00
  L 134.24 0.00
  Q 139.12 0.58 143.98 1.20
  Q 175.52 5.19 200.57 22.55
  Q 209.04 28.42 215.99 35.08
  Q 249.80 67.53 255.28 114.47
  C 255.56 116.90 255.53 119.45 256.00 121.88
  L 256.00 133.23
  Q 253.60 177.81 226.18 210.17
  C 198.85 242.41 158.26 259.32 116.08 255.41
  C 89.70 252.96 64.44 242.37 44.37 224.83
  Q 3.91 189.46 0.00 133.88
  L 0.00 122.03
  Q 1.34 99.82 8.80 81.24
  Q 23.28 45.17 54.03 23.54
  Q 81.06 4.53 114.02 0.94
  Q 117.96 0.51 121.88 0.00
  Z
  M 120.64 64.00
  A 16.00 16.00 0.0 0 0 104.64 48.00
  A 16.00 16.00 0.0 0 0 88.64 64.00
  A 16.00 16.00 0.0 0 0 104.64 80.00
  A 16.00 16.00 0.0 0 0 120.64 64.00
  Z
  M 136.73 112.50
  A 0.87 0.87 0.0 0 1 135.96 112.00
  L 124.57 87.02
  Q 123.41 84.48 120.67 83.93
  Q 118.14 83.43 116.06 83.01
  Q 113.42 82.49 114.72 84.85
  Q 118.59 91.84 112.60 98.60
  A 1.41 1.40 -46.8 0 1 110.56 98.67
  L 105.02 93.16
  A 0.48 0.47 44.6 0 0 104.35 93.16
  L 98.89 98.59
  A 1.58 1.58 0.0 0 1 96.58 98.52
  Q 90.89 92.04 94.59 84.71
  Q 95.74 82.45 93.26 82.99
  Q 90.89 83.50 88.53 84.01
  Q 85.81 84.60 84.67 87.13
  Q 74.33 109.90 62.27 136.14
  Q 61.48 137.86 61.26 139.56
  C 60.58 144.91 66.43 148.50 71.08 146.22
  Q 73.38 145.10 74.99 141.43
  Q 79.78 130.53 84.87 119.76
  Q 85.26 118.95 85.26 119.85
  Q 85.25 158.78 85.18 202.75
  Q 85.17 209.58 90.92 211.58
  C 94.44 212.80 98.29 211.37 100.34 208.32
  Q 101.74 206.23 101.70 201.57
  Q 101.50 178.20 101.66 155.02
  Q 101.66 154.84 101.84 154.84
  L 107.44 154.90
  Q 107.58 154.90 107.59 155.05
  Q 107.72 177.96 107.55 201.27
  C 107.52 205.94 108.29 209.68 112.89 211.38
  C 117.94 213.25 123.99 209.96 123.99 204.17
  Q 124.00 164.19 124.02 119.74
  Q 124.02 119.43 124.33 119.39
  L 124.62 119.37
  Q 124.68 119.36 124.69 119.42
  Q 125.43 123.60 128.57 125.34
  Q 130.35 126.34 133.07 126.30
  Q 143.37 126.15 152.70 126.30
  C 156.43 126.36 159.57 124.83 160.52 120.89
  Q 161.43 117.13 158.15 114.12
  Q 157.61 113.63 158.34 113.63
  Q 172.48 113.65 186.72 113.58
  C 192.19 113.56 192.21 105.58 186.52 105.40
  Q 182.26 105.27 177.94 105.44
  Q 177.02 105.47 177.66 104.82
  Q 181.80 100.56 182.80 95.21
  C 183.13 93.44 181.77 91.98 179.98 91.99
  Q 166.09 92.02 150.34 91.99
  A 2.60 2.60 0.0 0 0 147.74 94.50
  C 147.61 97.86 150.87 102.81 152.93 104.81
  Q 153.50 105.36 152.70 105.38
  Q 149.47 105.45 145.46 105.29
  Q 142.60 105.19 141.39 106.18
  Q 138.59 108.50 140.55 112.11
  Q 140.78 112.52 140.31 112.52
  L 136.73 112.50
  Z
  M 108.42 83.70
  A 0.33 0.33 0.0 0 0 108.19 83.14
  L 101.04 83.12
  A 0.33 0.33 0.0 0 0 100.81 83.69
  L 104.40 87.27
  A 0.33 0.33 0.0 0 0 104.86 87.27
  L 108.42 83.70
  Z"
/>
<circle fill="#000000" cx="104.64" cy="64.00" r="16.00"/>
<path fill="#000000" d="
  M 136.73 112.50
  L 140.31 112.52
  Q 140.78 112.52 140.55 112.11
  Q 138.59 108.50 141.39 106.18
  Q 142.60 105.19 145.46 105.29
  Q 149.47 105.45 152.70 105.38
  Q 153.50 105.36 152.93 104.81
  C 150.87 102.81 147.61 97.86 147.74 94.50
  A 2.60 2.60 0.0 0 1 150.34 91.99
  Q 166.09 92.02 179.98 91.99
  C 181.77 91.98 183.13 93.44 182.80 95.21
  Q 181.80 100.56 177.66 104.82
  Q 177.02 105.47 177.94 105.44
  Q 182.26 105.27 186.52 105.40
  C 192.21 105.58 192.19 113.56 186.72 113.58
  Q 172.48 113.65 158.34 113.63
  Q 157.61 113.63 158.15 114.12
  Q 161.43 117.13 160.52 120.89
  C 159.57 124.83 156.43 126.36 152.70 126.30
  Q 143.37 126.15 133.07 126.30
  Q 130.35 126.34 128.57 125.34
  Q 125.43 123.60 124.69 119.42
  Q 124.68 119.36 124.62 119.37
  L 124.33 119.39
  Q 124.02 119.43 124.02 119.74
  Q 124.00 164.19 123.99 204.17
  C 123.99 209.96 117.94 213.25 112.89 211.38
  C 108.29 209.68 107.52 205.94 107.55 201.27
  Q 107.72 177.96 107.59 155.05
  Q 107.58 154.90 107.44 154.90
  L 101.84 154.84
  Q 101.66 154.84 101.66 155.02
  Q 101.50 178.20 101.70 201.57
  Q 101.74 206.23 100.34 208.32
  C 98.29 211.37 94.44 212.80 90.92 211.58
  Q 85.17 209.58 85.18 202.75
  Q 85.25 158.78 85.26 119.85
  Q 85.26 118.95 84.87 119.76
  Q 79.78 130.53 74.99 141.43
  Q 73.38 145.10 71.08 146.22
  C 66.43 148.50 60.58 144.91 61.26 139.56
  Q 61.48 137.86 62.27 136.14
  Q 74.33 109.90 84.67 87.13
  Q 85.81 84.60 88.53 84.01
  Q 90.89 83.50 93.26 82.99
  Q 95.74 82.45 94.59 84.71
  Q 90.89 92.04 96.58 98.52
  A 1.58 1.58 0.0 0 0 98.89 98.59
  L 104.35 93.16
  A 0.48 0.47 44.6 0 1 105.02 93.16
  L 110.56 98.67
  A 1.41 1.40 -46.8 0 0 112.60 98.60
  Q 118.59 91.84 114.72 84.85
  Q 113.42 82.49 116.06 83.01
  Q 118.14 83.43 120.67 83.93
  Q 123.41 84.48 124.57 87.02
  L 135.96 112.00
  A 0.87 0.87 0.0 0 0 136.73 112.50
  Z"
/>
<path fill="#000000" d="
  M 108.42 83.70
  L 104.86 87.27
  A 0.33 0.33 0.0 0 1 104.40 87.27
  L 100.81 83.69
  A 0.33 0.33 0.0 0 1 101.04 83.12
  L 108.19 83.14
  A 0.33 0.33 0.0 0 1 108.42 83.70
  Z"
/>
</svg>
