<?xml version="1.0" encoding="UTF-8" standalone="no"?>
<!DOCTYPE svg PUBLIC "-//W3C//DTD SVG 1.1//EN" "http://www.w3.org/Graphics/SVG/1.1/DTD/svg11.dtd">
<svg xmlns="http://www.w3.org/2000/svg" version="1.1" viewBox="0.00 0.00 256.00 360.00">
<g stroke-width="2.00" fill="none" stroke-linecap="butt">
<path stroke="#808080" vector-effect="non-scaling-stroke" d="
  M 165.11 58.00
  A 18.00 18.00 0.0 0 0 147.11 40.00
  A 18.00 18.00 0.0 0 0 129.11 58.00
  A 18.00 18.00 0.0 0 0 147.11 76.00
  A 18.00 18.00 0.0 0 0 165.11 58.00"
/>
<path stroke="#808080" vector-effect="non-scaling-stroke" d="
  M 109.73 92.46
  Q 111.68 107.97 113.61 124.49
  Q 114.08 128.54 117.68 130.45
  Q 129.81 136.85 147.34 145.54
  Q 149.12 146.42 151.13 146.26
  C 159.75 145.57 161.66 134.44 154.01 130.65
  Q 143.33 125.34 130.00 118.53
  A 1.66 1.63 -80.6 0 1 129.11 117.26
  L 125.79 88.74
  Q 125.62 87.24 126.16 88.64
  L 135.03 111.48
  A 0.35 0.35 0.0 0 0 135.65 111.53
  Q 138.68 106.65 142.00 101.85
  Q 145.33 97.03 145.51 94.12
  C 145.86 88.13 143.20 84.66 138.23 81.43
  Q 130.95 76.68 123.74 71.86
  Q 120.25 69.52 117.64 68.98
  C 112.35 67.89 107.53 70.37 104.58 74.88
  Q 89.20 98.38 74.57 120.41
  C 72.04 124.22 70.50 128.66 70.56 133.24
  Q 70.79 151.95 71.14 173.96
  A 3.12 3.08 -25.3 0 1 70.38 176.04
  Q 58.03 190.16 46.18 203.74
  C 43.95 206.30 42.84 209.37 43.68 212.75
  C 45.01 218.09 50.51 221.24 55.72 219.56
  Q 58.47 218.67 61.03 215.71
  Q 75.15 199.40 87.80 184.93
  C 89.14 183.40 90.15 181.22 90.14 179.18
  Q 89.98 161.34 89.56 139.58
  Q 89.55 139.04 90.06 139.21
  Q 91.88 139.82 92.86 141.28
  Q 100.67 152.98 109.11 165.69
  A 0.91 0.90 32.9 0 1 109.25 166.32
  Q 106.16 187.28 103.02 207.86
  C 102.44 211.60 102.97 214.76 105.79 217.39
  C 110.25 221.54 116.99 220.65 120.21 215.62
  Q 121.50 213.61 122.10 209.39
  Q 125.28 187.08 128.61 165.51
  C 128.95 163.29 128.65 160.76 127.40 158.88
  Q 122.23 151.05 116.31 142.23
  Q 116.02 141.81 116.09 141.30
  Q 116.18 140.59 116.81 140.14
  A 0.87 0.87 0.0 0 0 116.61 138.62
  C 111.63 136.74 107.90 133.15 106.32 128.00
  Q 105.44 125.13 106.20 118.98
  Q 107.72 106.62 109.29 92.46
  Q 109.49 90.62 109.73 92.46"
/>
<path stroke="#808080" vector-effect="non-scaling-stroke" d="
  M 182.25 181.73
  A 0.32 0.32 0.0 0 1 182.01 181.24
  L 189.92 169.39
  A 2.92 2.92 0.0 0 0 189.57 165.72
  Q 182.44 158.52 175.84 152.00
  Q 174.10 150.29 172.06 151.75
  A 0.47 0.47 0.0 0 1 171.32 151.38
  Q 171.15 146.17 166.79 142.26
  Q 166.28 141.80 166.09 142.46
  Q 165.30 145.22 163.77 147.34
  Q 163.51 147.70 163.77 148.06
  Q 166.79 152.18 163.88 156.38
  C 160.65 161.03 153.70 159.87 151.65 154.66
  Q 151.45 154.15 150.90 154.16
  Q 148.20 154.20 145.66 153.34
  Q 145.15 153.16 145.18 153.71
  C 145.44 158.17 148.55 162.05 152.39 164.17
  Q 153.02 164.51 152.41 164.89
  Q 149.17 166.91 146.17 168.97
  C 142.60 171.43 142.48 175.54 145.41 178.44
  Q 153.96 186.88 162.62 195.67
  C 165.98 199.09 170.34 199.30 173.04 194.66
  A 1.13 1.11 12.2 0 1 173.92 194.10
  L 198.97 192.01
  Q 199.49 191.97 199.86 192.34
  L 205.93 198.43
  A 1.57 1.57 0.0 0 0 208.62 197.32
  L 208.62 177.98
  A 1.70 1.70 0.0 0 0 205.72 176.78
  L 199.75 182.76
  A 1.28 1.24 24.4 0 1 198.75 183.12
  L 182.25 181.73"
/>
</g>
<path fill="#ffffff" d="
  M 121.87 0.00
  L 134.24 0.00
  Q 139.11 0.59 143.98 1.21
  Q 176.36 5.33 202.38 23.83
  Q 210.39 29.53 217.65 36.72
  Q 252.51 71.24 256.00 121.88
  L 256.00 133.23
  Q 253.58 178.00 225.95 210.44
  C 185.52 257.89 117.46 270.08 63.25 238.42
  C 29.23 218.55 5.17 182.53 0.96 143.29
  Q 0.45 138.59 0.00 133.87
  L 0.00 122.01
  Q 0.56 117.00 1.19 112.02
  Q 4.67 84.27 19.00 60.86
  Q 24.09 52.55 30.84 44.77
  Q 66.14 4.06 121.87 0.00
  Z
  M 165.11 58.00
  A 18.00 18.00 0.0 0 0 147.11 40.00
  A 18.00 18.00 0.0 0 0 129.11 58.00
  A 18.00 18.00 0.0 0 0 147.11 76.00
  A 18.00 18.00 0.0 0 0 165.11 58.00
  Z
  M 109.73 92.46
  Q 111.68 107.97 113.61 124.49
  Q 114.08 128.54 117.68 130.45
  Q 129.81 136.85 147.34 145.54
  Q 149.12 146.42 151.13 146.26
  C 159.75 145.57 161.66 134.44 154.01 130.65
  Q 143.33 125.34 130.00 118.53
  A 1.66 1.63 -80.6 0 1 129.11 117.26
  L 125.79 88.74
  Q 125.62 87.24 126.16 88.64
  L 135.03 111.48
  A 0.35 0.35 0.0 0 0 135.65 111.53
  Q 138.68 106.65 142.00 101.85
  Q 145.33 97.03 145.51 94.12
  C 145.86 88.13 143.20 84.66 138.23 81.43
  Q 130.95 76.68 123.74 71.86
  Q 120.25 69.52 117.64 68.98
  C 112.35 67.89 107.53 70.37 104.58 74.88
  Q 89.20 98.38 74.57 120.41
  C 72.04 124.22 70.50 128.66 70.56 133.24
  Q 70.79 151.95 71.14 173.96
  A 3.12 3.08 -25.3 0 1 70.38 176.04
  Q 58.03 190.16 46.18 203.74
  C 43.95 206.30 42.84 209.37 43.68 212.75
  C 45.01 218.09 50.51 221.24 55.72 219.56
  Q 58.47 218.67 61.03 215.71
  Q 75.15 199.40 87.80 184.93
  C 89.14 183.40 90.15 181.22 90.14 179.18
  Q 89.98 161.34 89.56 139.58
  Q 89.55 139.04 90.06 139.21
  Q 91.88 139.82 92.86 141.28
  Q 100.67 152.98 109.11 165.69
  A 0.91 0.90 32.9 0 1 109.25 166.32
  Q 106.16 187.28 103.02 207.86
  C 102.44 211.60 102.97 214.76 105.79 217.39
  C 110.25 221.54 116.99 220.65 120.21 215.62
  Q 121.50 213.61 122.10 209.39
  Q 125.28 187.08 128.61 165.51
  C 128.95 163.29 128.65 160.76 127.40 158.88
  Q 122.23 151.05 116.31 142.23
  Q 116.02 141.81 116.09 141.30
  Q 116.18 140.59 116.81 140.14
  A 0.87 0.87 0.0 0 0 116.61 138.62
  C 111.63 136.74 107.90 133.15 106.32 128.00
  Q 105.44 125.13 106.20 118.98
  Q 107.72 106.62 109.29 92.46
  Q 109.49 90.62 109.73 92.46
  Z
  M 182.25 181.73
  A 0.32 0.32 0.0 0 1 182.01 181.24
  L 189.92 169.39
  A 2.92 2.92 0.0 0 0 189.57 165.72
  Q 182.44 158.52 175.84 152.00
  Q 174.10 150.29 172.06 151.75
  A 0.47 0.47 0.0 0 1 171.32 151.38
  Q 171.15 146.17 166.79 142.26
  Q 166.28 141.80 166.09 142.46
  Q 165.30 145.22 163.77 147.34
  Q 163.51 147.70 163.77 148.06
  Q 166.79 152.18 163.88 156.38
  C 160.65 161.03 153.70 159.87 151.65 154.66
  Q 151.45 154.15 150.90 154.16
  Q 148.20 154.20 145.66 153.34
  Q 145.15 153.16 145.18 153.71
  C 145.44 158.17 148.55 162.05 152.39 164.17
  Q 153.02 164.51 152.41 164.89
  Q 149.17 166.91 146.17 168.97
  C 142.60 171.43 142.48 175.54 145.41 178.44
  Q 153.96 186.88 162.62 195.67
  C 165.98 199.09 170.34 199.30 173.04 194.66
  A 1.13 1.11 12.2 0 1 173.92 194.10
  L 198.97 192.01
  Q 199.49 191.97 199.86 192.34
  L 205.93 198.43
  A 1.57 1.57 0.0 0 0 208.62 197.32
  L 208.62 177.98
  A 1.70 1.70 0.0 0 0 205.72 176.78
  L 199.75 182.76
  A 1.28 1.24 24.4 0 1 198.75 183.12
  L 182.25 181.73
  Z"
/>
<circle fill="#000000" cx="147.11" cy="58.00" r="18.00"/>
<path fill="#000000" d="
  M 109.73 92.46
  Q 109.49 90.62 109.29 92.46
  Q 107.72 106.62 106.20 118.98
  Q 105.44 125.13 106.32 128.00
  C 107.90 133.15 111.63 136.74 116.61 138.62
  A 0.87 0.87 0.0 0 1 116.81 140.14
  Q 116.18 140.59 116.09 141.30
  Q 116.02 141.81 116.31 142.23
  Q 122.23 151.05 127.40 158.88
  C 128.65 160.76 128.95 163.29 128.61 165.51
  Q 125.28 187.08 122.10 209.39
  Q 121.50 213.61 120.21 215.62
  C 116.99 220.65 110.25 221.54 105.79 217.39
  C 102.97 214.76 102.44 211.60 103.02 207.86
  Q 106.16 187.28 109.25 166.32
  A 0.91 0.90 32.9 0 0 109.11 165.69
  Q 100.67 152.98 92.86 141.28
  Q 91.88 139.82 90.06 139.21
  Q 89.55 139.04 89.56 139.58
  Q 89.98 161.34 90.14 179.18
  C 90.15 181.22 89.14 183.40 87.80 184.93
  Q 75.15 199.40 61.03 215.71
  Q 58.47 218.67 55.72 219.56
  C 50.51 221.24 45.01 218.09 43.68 212.75
  C 42.84 209.37 43.95 206.30 46.18 203.74
  Q 58.03 190.16 70.38 176.04
  A 3.12 3.08 -25.3 0 0 71.14 173.96
  Q 70.79 151.95 70.56 133.24
  C 70.50 128.66 72.04 124.22 74.57 120.41
  Q 89.20 98.38 104.58 74.88
  C 107.53 70.37 112.35 67.89 117.64 68.98
  Q 120.25 69.52 123.74 71.86
  Q 130.95 76.68 138.23 81.43
  C 143.20 84.66 145.86 88.13 145.51 94.12
  Q 145.33 97.03 142.00 101.85
  Q 138.68 106.65 135.65 111.53
  A 0.35 0.35 0.0 0 1 135.03 111.48
  L 126.16 88.64
  Q 125.62 87.24 125.79 88.74
  L 129.11 117.26
  A 1.66 1.63 -80.6 0 0 130.00 118.53
  Q 143.33 125.34 154.01 130.65
  C 161.66 134.44 159.75 145.57 151.13 146.26
  Q 149.12 146.42 147.34 145.54
  Q 129.81 136.85 117.68 130.45
  Q 114.08 128.54 113.61 124.49
  Q 111.68 107.97 109.73 92.46
  Z"
/>
<path fill="#000000" d="
  M 182.25 181.73
  L 198.75 183.12
  A 1.28 1.24 24.4 0 0 199.75 182.76
  L 205.72 176.78
  A 1.70 1.70 0.0 0 1 208.62 177.98
  L 208.62 197.32
  A 1.57 1.57 0.0 0 1 205.93 198.43
  L 199.86 192.34
  Q 199.49 191.97 198.97 192.01
  L 173.92 194.10
  A 1.13 1.11 12.2 0 0 173.04 194.66
  C 170.34 199.30 165.98 199.09 162.62 195.67
  Q 153.96 186.88 145.41 178.44
  C 142.48 175.54 142.60 171.43 146.17 168.97
  Q 149.17 166.91 152.41 164.89
  Q 153.02 164.51 152.39 164.17
  C 148.55 162.05 145.44 158.17 145.18 153.71
  Q 145.15 153.16 145.66 153.34
  Q 148.20 154.20 150.90 154.16
  Q 151.45 154.15 151.65 154.66
  C 153.70 159.87 160.65 161.03 163.88 156.38
  Q 166.79 152.18 163.77 148.06
  Q 163.51 147.70 163.77 147.34
  Q 165.30 145.22 166.09 142.46
  Q 166.28 141.80 166.79 142.26
  Q 171.15 146.17 171.32 151.38
  A 0.47 0.47 0.0 0 0 172.06 151.75
  Q 174.10 150.29 175.84 152.00
  Q 182.44 158.52 189.57 165.72
  A 2.92 2.92 0.0 0 1 189.92 169.39
  L 182.01 181.24
  A 0.32 0.32 0.0 0 0 182.25 181.73
  Z"
/>
</svg>
