<?xml version="1.0" encoding="UTF-8" standalone="no"?>
<!DOCTYPE svg PUBLIC "-//W3C//DTD SVG 1.1//EN" "http://www.w3.org/Graphics/SVG/1.1/DTD/svg11.dtd">
<svg xmlns="http://www.w3.org/2000/svg" version="1.1" viewBox="0.00 0.00 256.00 360.00">
<g stroke-width="2.00" fill="none" stroke-linecap="butt">
<path stroke="#808080" vector-effect="non-scaling-stroke" d="
  M 210.01 46.47
  A 0.47 0.47 0.0 0 0 209.54 46.00
  L 127.60 46.00
  A 0.47 0.47 0.0 0 0 127.13 46.47
  L 127.13 141.03
  A 0.47 0.47 0.0 0 0 127.60 141.50
  L 209.54 141.50
  A 0.47 0.47 0.0 0 0 210.01 141.03
  L 210.01 46.47"
/>
<path stroke="#808080" vector-effect="non-scaling-stroke" d="
  M 114.90 117.09
  A 21.28 21.28 0.0 0 0 93.62 95.81
  A 21.28 21.28 0.0 0 0 72.34 117.09
  A 21.28 21.28 0.0 0 0 93.62 138.37
  A 21.28 21.28 0.0 0 0 114.90 117.09"
/>
<path stroke="#808080" vector-effect="non-scaling-stroke" d="
  M 121.72 184.71
  Q 109.77 166.79 96.49 146.86
  C 93.48 142.34 87.66 139.60 82.46 139.11
  C 70.26 137.97 60.58 147.20 55.52 157.99
  C 48.19 173.60 46.31 192.86 44.93 210.41
  Q 44.88 211.00 45.47 211.00
  L 97.25 211.00
  Q 97.76 211.00 97.79 210.50
  L 98.90 193.78
  A 1.35 1.28 -60.6 0 0 98.70 192.98
  L 80.56 165.14
  Q 79.62 163.69 80.94 162.57
  Q 81.15 162.40 81.41 162.30
  Q 82.72 161.84 83.49 162.99
  Q 96.66 182.79 110.13 203.45
  C 112.41 206.96 115.91 209.46 120.15 208.95
  Q 122.96 208.62 126.67 206.07
  Q 138.91 197.68 150.70 190.19
  C 162.89 182.44 151.76 165.66 140.32 173.10
  Q 131.14 179.07 122.33 184.84
  A 0.45 0.44 56.1 0 1 121.72 184.71"
/>
<path stroke="#808080" vector-effect="non-scaling-stroke" d="
  M 204.53 136.38
  A 0.47 0.47 0.0 0 0 205.00 135.91
  L 205.00 51.47
  A 0.47 0.47 0.0 0 0 204.53 51.00
  L 132.72 51.00
  A 0.47 0.47 0.0 0 0 132.25 51.47
  L 132.25 135.91
  A 0.47 0.47 0.0 0 0 132.72 136.38
  L 204.53 136.38"
/>
<path stroke="#808080" vector-effect="non-scaling-stroke" d="
  M 195.70 75.43
  A 11.93 11.93 0.0 0 0 183.77 63.50
  A 11.93 11.93 0.0 0 0 171.84 75.43
  A 11.93 11.93 0.0 0 0 183.77 87.36
  A 11.93 11.93 0.0 0 0 195.70 75.43"
/>
<path stroke="#808080" vector-effect="non-scaling-stroke" d="
  M 170.97 118.37
  L 156.64 89.13
  Q 156.24 88.33 155.84 89.12
  L 134.58 130.84
  Q 134.37 131.25 134.83 131.25
  Q 201.43 131.26 202.47 131.23
  A 0.21 0.20 -13.9 0 0 202.65 130.94
  Q 201.99 129.66 189.40 110.33
  A 0.83 0.83 0.0 0 0 188.30 110.05
  L 172.07 118.73
  Q 171.33 119.12 170.97 118.37"
/>
</g>
<path fill="#ffffff" d="
  M 121.87 0.00
  L 134.24 0.00
  Q 139.11 0.59 143.98 1.21
  Q 176.46 5.34 202.54 23.94
  Q 210.54 29.65 217.79 36.85
  Q 252.53 71.35 256.00 121.88
  L 256.00 133.23
  Q 253.60 177.81 226.17 210.17
  C 198.80 242.47 158.18 259.34 115.91 255.40
  C 89.67 252.95 64.40 242.33 44.37 224.83
  Q 3.91 189.46 0.00 133.88
  L 0.00 122.01
  Q 0.56 117.00 1.19 112.02
  Q 4.67 84.27 19.00 60.86
  Q 24.09 52.55 30.84 44.77
  Q 66.14 4.06 121.87 0.00
  Z
  M 210.01 46.47
  A 0.47 0.47 0.0 0 0 209.54 46.00
  L 127.60 46.00
  A 0.47 0.47 0.0 0 0 127.13 46.47
  L 127.13 141.03
  A 0.47 0.47 0.0 0 0 127.60 141.50
  L 209.54 141.50
  A 0.47 0.47 0.0 0 0 210.01 141.03
  L 210.01 46.47
  Z
  M 114.90 117.09
  A 21.28 21.28 0.0 0 0 93.62 95.81
  A 21.28 21.28 0.0 0 0 72.34 117.09
  A 21.28 21.28 0.0 0 0 93.62 138.37
  A 21.28 21.28 0.0 0 0 114.90 117.09
  Z
  M 121.72 184.71
  Q 109.77 166.79 96.49 146.86
  C 93.48 142.34 87.66 139.60 82.46 139.11
  C 70.26 137.97 60.58 147.20 55.52 157.99
  C 48.19 173.60 46.31 192.86 44.93 210.41
  Q 44.88 211.00 45.47 211.00
  L 97.25 211.00
  Q 97.76 211.00 97.79 210.50
  L 98.90 193.78
  A 1.35 1.28 -60.6 0 0 98.70 192.98
  L 80.56 165.14
  Q 79.62 163.69 80.94 162.57
  Q 81.15 162.40 81.41 162.30
  Q 82.72 161.84 83.49 162.99
  Q 96.66 182.79 110.13 203.45
  C 112.41 206.96 115.91 209.46 120.15 208.95
  Q 122.96 208.62 126.67 206.07
  Q 138.91 197.68 150.70 190.19
  C 162.89 182.44 151.76 165.66 140.32 173.10
  Q 131.14 179.07 122.33 184.84
  A 0.45 0.44 56.1 0 1 121.72 184.71
  Z"
/>
<path fill="#000000" d="
  M 210.01 141.03
  A 0.47 0.47 0.0 0 1 209.54 141.50
  L 127.60 141.50
  A 0.47 0.47 0.0 0 1 127.13 141.03
  L 127.13 46.47
  A 0.47 0.47 0.0 0 1 127.60 46.00
  L 209.54 46.00
  A 0.47 0.47 0.0 0 1 210.01 46.47
  L 210.01 141.03
  Z
  M 204.53 136.38
  A 0.47 0.47 0.0 0 0 205.00 135.91
  L 205.00 51.47
  A 0.47 0.47 0.0 0 0 204.53 51.00
  L 132.72 51.00
  A 0.47 0.47 0.0 0 0 132.25 51.47
  L 132.25 135.91
  A 0.47 0.47 0.0 0 0 132.72 136.38
  L 204.53 136.38
  Z"
/>
<path fill="#ffffff" d="
  M 204.53 136.38
  L 132.72 136.38
  A 0.47 0.47 0.0 0 1 132.25 135.91
  L 132.25 51.47
  A 0.47 0.47 0.0 0 1 132.72 51.00
  L 204.53 51.00
  A 0.47 0.47 0.0 0 1 205.00 51.47
  L 205.00 135.91
  A 0.47 0.47 0.0 0 1 204.53 136.38
  Z
  M 195.70 75.43
  A 11.93 11.93 0.0 0 0 183.77 63.50
  A 11.93 11.93 0.0 0 0 171.84 75.43
  A 11.93 11.93 0.0 0 0 183.77 87.36
  A 11.93 11.93 0.0 0 0 195.70 75.43
  Z
  M 170.97 118.37
  L 156.64 89.13
  Q 156.24 88.33 155.84 89.12
  L 134.58 130.84
  Q 134.37 131.25 134.83 131.25
  Q 201.43 131.26 202.47 131.23
  A 0.21 0.20 -13.9 0 0 202.65 130.94
  Q 201.99 129.66 189.40 110.33
  A 0.83 0.83 0.0 0 0 188.30 110.05
  L 172.07 118.73
  Q 171.33 119.12 170.97 118.37
  Z"
/>
<circle fill="#000000" cx="183.77" cy="75.43" r="11.93"/>
<path fill="#000000" d="
  M 172.07 118.73
  L 188.30 110.05
  A 0.83 0.83 0.0 0 1 189.40 110.33
  Q 201.99 129.66 202.65 130.94
  A 0.21 0.20 -13.9 0 1 202.47 131.23
  Q 201.43 131.26 134.83 131.25
  Q 134.37 131.25 134.58 130.84
  L 155.84 89.12
  Q 156.24 88.33 156.64 89.13
  L 170.97 118.37
  Q 171.33 119.12 172.07 118.73
  Z"
/>
<circle fill="#000000" cx="93.62" cy="117.09" r="21.28"/>
<path fill="#000000" d="
  M 121.72 184.71
  A 0.45 0.44 56.1 0 0 122.33 184.84
  Q 131.14 179.07 140.32 173.10
  C 151.76 165.66 162.89 182.44 150.70 190.19
  Q 138.91 197.68 126.67 206.07
  Q 122.96 208.62 120.15 208.95
  C 115.91 209.46 112.41 206.96 110.13 203.45
  Q 96.66 182.79 83.49 162.99
  Q 82.72 161.84 81.41 162.30
  Q 81.15 162.40 80.94 162.57
  Q 79.62 163.69 80.56 165.14
  L 98.70 192.98
  A 1.35 1.28 -60.6 0 1 98.90 193.78
  L 97.79 210.50
  Q 97.76 211.00 97.25 211.00
  L 45.47 211.00
  Q 44.88 211.00 44.93 210.41
  C 46.31 192.86 48.19 173.60 55.52 157.99
  C 60.58 147.20 70.26 137.97 82.46 139.11
  C 87.66 139.60 93.48 142.34 96.49 146.86
  Q 109.77 166.79 121.72 184.71
  Z"
/>
</svg>
