<?xml version="1.0" encoding="UTF-8" standalone="no"?>
<!DOCTYPE svg PUBLIC "-//W3C//DTD SVG 1.1//EN" "http://www.w3.org/Graphics/SVG/1.1/DTD/svg11.dtd">
<svg xmlns="http://www.w3.org/2000/svg" version="1.1" viewBox="0.00 0.00 256.00 360.00">
<g stroke-width="2.00" fill="none" stroke-linecap="butt">
<path stroke="#808080" vector-effect="non-scaling-stroke" d="
  M 197.31 55.73
  A 13.12 13.12 0.0 0 0 184.19 42.61
  A 13.12 13.12 0.0 0 0 171.07 55.73
  A 13.12 13.12 0.0 0 0 184.19 68.85
  A 13.12 13.12 0.0 0 0 197.31 55.73"
/>
<path stroke="#808080" vector-effect="non-scaling-stroke" d="
  M 85.16 56.10
  A 13.13 13.13 0.0 0 0 72.03 42.97
  A 13.13 13.13 0.0 0 0 58.90 56.10
  A 13.13 13.13 0.0 0 0 72.03 69.23
  A 13.13 13.13 0.0 0 0 85.16 56.10"
/>
<path stroke="#808080" vector-effect="non-scaling-stroke" d="
  M 141.60 70.11
  A 12.86 12.86 0.0 0 0 128.74 57.25
  A 12.86 12.86 0.0 0 0 115.88 70.11
  A 12.86 12.86 0.0 0 0 128.74 82.97
  A 12.86 12.86 0.0 0 0 141.60 70.11"
/>
<path stroke="#808080" vector-effect="non-scaling-stroke" d="
  M 185.54 133.73
  A 0.33 0.32 0.0 0 1 185.87 134.05
  Q 185.89 163.81 185.87 194.59
  C 185.87 204.46 200.97 204.50 200.99 194.53
  Q 201.06 154.91 200.92 122.31
  Q 200.92 121.65 200.26 121.71
  C 195.32 122.11 188.93 123.68 184.37 122.23
  C 177.39 119.99 173.85 112.38 176.65 105.65
  Q 179.56 98.66 187.57 97.81
  Q 194.06 97.12 200.22 96.50
  Q 200.87 96.43 200.87 95.77
  L 200.88 88.08
  Q 200.88 86.86 202.10 86.86
  L 202.53 86.86
  A 0.85 0.85 0.0 0 1 203.37 87.71
  L 203.38 101.79
  Q 203.38 102.41 202.77 102.47
  Q 196.33 103.15 188.73 103.87
  C 178.86 104.81 180.25 117.59 189.44 116.61
  Q 199.72 115.51 210.12 114.42
  C 213.45 114.08 216.05 111.47 216.01 108.05
  Q 215.91 99.48 216.06 89.49
  C 216.16 82.80 213.21 77.25 207.23 74.45
  Q 203.60 72.75 196.00 72.91
  Q 182.42 73.19 169.40 72.93
  C 162.80 72.80 158.05 74.68 154.19 80.10
  Q 153.77 80.69 154.42 81.02
  C 158.54 83.13 161.14 85.10 164.14 89.67
  Q 164.75 90.60 164.69 89.49
  L 164.59 87.70
  Q 164.53 86.67 165.55 86.71
  L 165.98 86.72
  A 1.04 1.04 0.0 0 1 166.99 87.76
  Q 167.02 141.09 166.99 193.76
  C 166.98 204.51 182.59 205.16 182.55 193.64
  Q 182.46 163.20 182.50 134.01
  Q 182.51 133.76 182.75 133.76
  L 185.54 133.73"
/>
<path stroke="#808080" vector-effect="non-scaling-stroke" d="
  M 73.28 134.18
  Q 73.86 134.19 73.86 134.77
  Q 73.90 164.08 73.87 195.18
  Q 73.87 197.94 75.78 199.89
  Q 80.23 204.42 85.57 201.18
  Q 88.97 199.10 88.98 195.15
  Q 89.03 142.52 88.99 88.43
  Q 88.99 87.50 89.88 87.24
  Q 90.21 87.14 90.56 87.16
  Q 91.34 87.21 91.35 88.00
  L 91.40 94.49
  Q 91.41 96.50 91.93 94.56
  Q 94.03 86.55 102.04 81.76
  A 0.46 0.46 0.0 0 0 102.20 81.12
  Q 97.25 73.17 87.28 73.32
  Q 73.92 73.52 59.97 73.29
  Q 53.22 73.17 49.86 74.42
  C 43.02 76.96 39.76 83.13 39.93 90.37
  Q 40.12 98.87 39.94 107.67
  C 39.88 110.19 40.72 112.46 42.94 113.83
  Q 47.47 116.61 51.99 119.16
  A 0.42 0.42 0.0 0 0 52.62 118.79
  L 52.63 88.30
  Q 52.63 87.23 53.70 87.21
  L 54.12 87.19
  Q 55.38 87.16 55.38 88.42
  Q 55.37 141.89 55.38 194.61
  C 55.38 202.21 63.99 205.21 69.05 199.38
  Q 70.46 197.74 70.47 195.66
  Q 70.54 165.18 70.50 134.50
  Q 70.50 134.16 70.83 134.16
  L 73.28 134.18"
/>
<path stroke="#808080" vector-effect="non-scaling-stroke" d="
  M 129.10 87.20
  A 1.11 1.11 0.0 0 1 128.08 87.18
  L 124.39 85.17
  A 1.11 1.11 0.0 0 0 122.75 86.15
  L 122.77 91.58
  A 1.11 1.11 0.0 0 0 124.38 92.57
  L 128.36 90.56
  A 1.11 1.11 0.0 0 1 129.41 90.59
  L 133.10 92.70
  A 1.11 1.11 0.0 0 0 134.76 91.73
  L 134.74 86.20
  A 1.11 1.11 0.0 0 0 133.14 85.20
  L 129.10 87.20"
/>
<path stroke="#808080" vector-effect="non-scaling-stroke" d="
  M 128.36 111.44
  L 119.05 87.52
  Q 118.92 87.19 118.56 87.16
  Q 111.18 86.47 107.82 87.70
  Q 97.08 91.62 97.10 102.35
  Q 97.16 125.06 97.13 147.51
  C 97.12 155.17 109.62 155.80 109.62 146.58
  Q 109.60 125.75 109.63 101.57
  A 1.00 0.98 -19.8 0 1 110.00 100.80
  Q 110.46 100.44 110.95 100.47
  Q 112.25 100.56 112.25 101.87
  Q 112.24 152.72 112.26 205.62
  C 112.26 213.35 121.64 216.26 125.96 209.98
  Q 127.21 208.16 127.20 204.60
  Q 127.06 175.44 127.14 146.68
  Q 127.14 146.52 127.30 146.52
  L 130.06 146.49
  Q 130.36 146.49 130.36 146.79
  Q 130.40 176.33 130.36 205.68
  C 130.34 215.91 145.27 215.80 145.26 205.81
  Q 145.23 152.71 145.26 101.42
  Q 145.26 100.61 146.00 100.30
  Q 146.23 100.20 146.47 100.23
  A 1.34 1.34 0.0 0 1 147.64 101.56
  Q 147.59 124.56 147.65 147.16
  C 147.67 153.74 156.54 155.84 159.27 150.18
  Q 160.10 148.44 160.07 144.86
  Q 159.89 124.46 160.07 104.15
  Q 160.12 98.62 158.81 95.81
  C 154.79 87.15 147.45 86.74 138.95 87.05
  A 0.73 0.73 0.0 0 0 138.30 87.52
  L 129.17 111.44
  Q 128.77 112.50 128.36 111.44"
/>
<path stroke="#808080" vector-effect="non-scaling-stroke" d="
  M 130.40 96.60
  A 1.68 1.68 0.0 0 0 128.72 94.92
  A 1.68 1.68 0.0 0 0 127.04 96.60
  A 1.68 1.68 0.0 0 0 128.72 98.28
  A 1.68 1.68 0.0 0 0 130.40 96.60"
/>
<path stroke="#808080" vector-effect="non-scaling-stroke" d="
  M 130.43 103.43
  A 1.67 1.67 0.0 0 0 128.76 101.76
  A 1.67 1.67 0.0 0 0 127.09 103.43
  A 1.67 1.67 0.0 0 0 128.76 105.10
  A 1.67 1.67 0.0 0 0 130.43 103.43"
/>
</g>
<path fill="#ffffff" d="
  M 121.88 0.00
  L 134.24 0.00
  Q 139.12 0.58 143.98 1.20
  Q 175.52 5.18 200.39 22.45
  C 230.41 43.30 251.02 76.10 255.04 112.79
  Q 255.54 117.34 256.00 121.88
  L 256.00 133.23
  Q 253.54 178.70 225.15 211.38
  Q 202.84 237.07 171.18 248.47
  C 128.10 263.99 78.99 255.09 44.37 224.83
  Q 3.91 189.46 0.00 133.88
  L 0.00 122.03
  Q 1.34 99.83 8.80 81.25
  Q 23.06 45.70 53.17 24.16
  Q 80.50 4.60 114.02 0.94
  Q 117.96 0.51 121.88 0.00
  Z
  M 197.31 55.73
  A 13.12 13.12 0.0 0 0 184.19 42.61
  A 13.12 13.12 0.0 0 0 171.07 55.73
  A 13.12 13.12 0.0 0 0 184.19 68.85
  A 13.12 13.12 0.0 0 0 197.31 55.73
  Z
  M 85.16 56.10
  A 13.13 13.13 0.0 0 0 72.03 42.97
  A 13.13 13.13 0.0 0 0 58.90 56.10
  A 13.13 13.13 0.0 0 0 72.03 69.23
  A 13.13 13.13 0.0 0 0 85.16 56.10
  Z
  M 141.60 70.11
  A 12.86 12.86 0.0 0 0 128.74 57.25
  A 12.86 12.86 0.0 0 0 115.88 70.11
  A 12.86 12.86 0.0 0 0 128.74 82.97
  A 12.86 12.86 0.0 0 0 141.60 70.11
  Z
  M 185.54 133.73
  A 0.33 0.32 0.0 0 1 185.87 134.05
  Q 185.89 163.81 185.87 194.59
  C 185.87 204.46 200.97 204.50 200.99 194.53
  Q 201.06 154.91 200.92 122.31
  Q 200.92 121.65 200.26 121.71
  C 195.32 122.11 188.93 123.68 184.37 122.23
  C 177.39 119.99 173.85 112.38 176.65 105.65
  Q 179.56 98.66 187.57 97.81
  Q 194.06 97.12 200.22 96.50
  Q 200.87 96.43 200.87 95.77
  L 200.88 88.08
  Q 200.88 86.86 202.10 86.86
  L 202.53 86.86
  A 0.85 0.85 0.0 0 1 203.37 87.71
  L 203.38 101.79
  Q 203.38 102.41 202.77 102.47
  Q 196.33 103.15 188.73 103.87
  C 178.86 104.81 180.25 117.59 189.44 116.61
  Q 199.72 115.51 210.12 114.42
  C 213.45 114.08 216.05 111.47 216.01 108.05
  Q 215.91 99.48 216.06 89.49
  C 216.16 82.80 213.21 77.25 207.23 74.45
  Q 203.60 72.75 196.00 72.91
  Q 182.42 73.19 169.40 72.93
  C 162.80 72.80 158.05 74.68 154.19 80.10
  Q 153.77 80.69 154.42 81.02
  C 158.54 83.13 161.14 85.10 164.14 89.67
  Q 164.75 90.60 164.69 89.49
  L 164.59 87.70
  Q 164.53 86.67 165.55 86.71
  L 165.98 86.72
  A 1.04 1.04 0.0 0 1 166.99 87.76
  Q 167.02 141.09 166.99 193.76
  C 166.98 204.51 182.59 205.16 182.55 193.64
  Q 182.46 163.20 182.50 134.01
  Q 182.51 133.76 182.75 133.76
  L 185.54 133.73
  Z
  M 73.28 134.18
  Q 73.86 134.19 73.86 134.77
  Q 73.90 164.08 73.87 195.18
  Q 73.87 197.94 75.78 199.89
  Q 80.23 204.42 85.57 201.18
  Q 88.97 199.10 88.98 195.15
  Q 89.03 142.52 88.99 88.43
  Q 88.99 87.50 89.88 87.24
  Q 90.21 87.14 90.56 87.16
  Q 91.34 87.21 91.35 88.00
  L 91.40 94.49
  Q 91.41 96.50 91.93 94.56
  Q 94.03 86.55 102.04 81.76
  A 0.46 0.46 0.0 0 0 102.20 81.12
  Q 97.25 73.17 87.28 73.32
  Q 73.92 73.52 59.97 73.29
  Q 53.22 73.17 49.86 74.42
  C 43.02 76.96 39.76 83.13 39.93 90.37
  Q 40.12 98.87 39.94 107.67
  C 39.88 110.19 40.72 112.46 42.94 113.83
  Q 47.47 116.61 51.99 119.16
  A 0.42 0.42 0.0 0 0 52.62 118.79
  L 52.63 88.30
  Q 52.63 87.23 53.70 87.21
  L 54.12 87.19
  Q 55.38 87.16 55.38 88.42
  Q 55.37 141.89 55.38 194.61
  C 55.38 202.21 63.99 205.21 69.05 199.38
  Q 70.46 197.74 70.47 195.66
  Q 70.54 165.18 70.50 134.50
  Q 70.50 134.16 70.83 134.16
  L 73.28 134.18
  Z
  M 129.10 87.20
  A 1.11 1.11 0.0 0 1 128.08 87.18
  L 124.39 85.17
  A 1.11 1.11 0.0 0 0 122.75 86.15
  L 122.77 91.58
  A 1.11 1.11 0.0 0 0 124.38 92.57
  L 128.36 90.56
  A 1.11 1.11 0.0 0 1 129.41 90.59
  L 133.10 92.70
  A 1.11 1.11 0.0 0 0 134.76 91.73
  L 134.74 86.20
  A 1.11 1.11 0.0 0 0 133.14 85.20
  L 129.10 87.20
  Z
  M 128.36 111.44
  L 119.05 87.52
  Q 118.92 87.19 118.56 87.16
  Q 111.18 86.47 107.82 87.70
  Q 97.08 91.62 97.10 102.35
  Q 97.16 125.06 97.13 147.51
  C 97.12 155.17 109.62 155.80 109.62 146.58
  Q 109.60 125.75 109.63 101.57
  A 1.00 0.98 -19.8 0 1 110.00 100.80
  Q 110.46 100.44 110.95 100.47
  Q 112.25 100.56 112.25 101.87
  Q 112.24 152.72 112.26 205.62
  C 112.26 213.35 121.64 216.26 125.96 209.98
  Q 127.21 208.16 127.20 204.60
  Q 127.06 175.44 127.14 146.68
  Q 127.14 146.52 127.30 146.52
  L 130.06 146.49
  Q 130.36 146.49 130.36 146.79
  Q 130.40 176.33 130.36 205.68
  C 130.34 215.91 145.27 215.80 145.26 205.81
  Q 145.23 152.71 145.26 101.42
  Q 145.26 100.61 146.00 100.30
  Q 146.23 100.20 146.47 100.23
  A 1.34 1.34 0.0 0 1 147.64 101.56
  Q 147.59 124.56 147.65 147.16
  C 147.67 153.74 156.54 155.84 159.27 150.18
  Q 160.10 148.44 160.07 144.86
  Q 159.89 124.46 160.07 104.15
  Q 160.12 98.62 158.81 95.81
  C 154.79 87.15 147.45 86.74 138.95 87.05
  A 0.73 0.73 0.0 0 0 138.30 87.52
  L 129.17 111.44
  Q 128.77 112.50 128.36 111.44
  Z
  M 130.40 96.60
  A 1.68 1.68 0.0 0 0 128.72 94.92
  A 1.68 1.68 0.0 0 0 127.04 96.60
  A 1.68 1.68 0.0 0 0 128.72 98.28
  A 1.68 1.68 0.0 0 0 130.40 96.60
  Z
  M 130.43 103.43
  A 1.67 1.67 0.0 0 0 128.76 101.76
  A 1.67 1.67 0.0 0 0 127.09 103.43
  A 1.67 1.67 0.0 0 0 128.76 105.10
  A 1.67 1.67 0.0 0 0 130.43 103.43
  Z"
/>
<circle fill="#000000" cx="184.19" cy="55.73" r="13.12"/>
<circle fill="#000000" cx="72.03" cy="56.10" r="13.13"/>
<circle fill="#000000" cx="128.74" cy="70.11" r="12.86"/>
<path fill="#000000" d="
  M 182.50 134.01
  Q 182.46 163.20 182.55 193.64
  C 182.59 205.16 166.98 204.51 166.99 193.76
  Q 167.02 141.09 166.99 87.76
  A 1.04 1.04 0.0 0 0 165.98 86.72
  L 165.55 86.71
  Q 164.53 86.67 164.59 87.70
  L 164.69 89.49
  Q 164.75 90.60 164.14 89.67
  C 161.14 85.10 158.54 83.13 154.42 81.02
  Q 153.77 80.69 154.19 80.10
  C 158.05 74.68 162.80 72.80 169.40 72.93
  Q 182.42 73.19 196.00 72.91
  Q 203.60 72.75 207.23 74.45
  C 213.21 77.25 216.16 82.80 216.06 89.49
  Q 215.91 99.48 216.01 108.05
  C 216.05 111.47 213.45 114.08 210.12 114.42
  Q 199.72 115.51 189.44 116.61
  C 180.25 117.59 178.86 104.81 188.73 103.87
  Q 196.33 103.15 202.77 102.47
  Q 203.38 102.41 203.38 101.79
  L 203.37 87.71
  A 0.85 0.85 0.0 0 0 202.53 86.86
  L 202.10 86.86
  Q 200.88 86.86 200.88 88.08
  L 200.87 95.77
  Q 200.87 96.43 200.22 96.50
  Q 194.06 97.12 187.57 97.81
  Q 179.56 98.66 176.65 105.65
  C 173.85 112.38 177.39 119.99 184.37 122.23
  C 188.93 123.68 195.32 122.11 200.26 121.71
  Q 200.92 121.65 200.92 122.31
  Q 201.06 154.91 200.99 194.53
  C 200.97 204.50 185.87 204.46 185.87 194.59
  Q 185.89 163.81 185.87 134.05
  A 0.33 0.32 -0.0 0 0 185.54 133.73
  L 182.75 133.76
  Q 182.51 133.76 182.50 134.01
  Z"
/>
<path fill="#000000" d="
  M 70.50 134.50
  Q 70.54 165.18 70.47 195.66
  Q 70.46 197.74 69.05 199.38
  C 63.99 205.21 55.38 202.21 55.38 194.61
  Q 55.37 141.89 55.38 88.42
  Q 55.38 87.16 54.12 87.19
  L 53.70 87.21
  Q 52.63 87.23 52.63 88.30
  L 52.62 118.79
  A 0.42 0.42 0.0 0 1 51.99 119.16
  Q 47.47 116.61 42.94 113.83
  C 40.72 112.46 39.88 110.19 39.94 107.67
  Q 40.12 98.87 39.93 90.37
  C 39.76 83.13 43.02 76.96 49.86 74.42
  Q 53.22 73.17 59.97 73.29
  Q 73.92 73.52 87.28 73.32
  Q 97.25 73.17 102.20 81.12
  A 0.46 0.46 0.0 0 1 102.04 81.76
  Q 94.03 86.55 91.93 94.56
  Q 91.41 96.50 91.40 94.49
  L 91.35 88.00
  Q 91.34 87.21 90.56 87.16
  Q 90.21 87.14 89.88 87.24
  Q 88.99 87.50 88.99 88.43
  Q 89.03 142.52 88.98 195.15
  Q 88.97 199.10 85.57 201.18
  Q 80.23 204.42 75.78 199.89
  Q 73.87 197.94 73.87 195.18
  Q 73.90 164.08 73.86 134.77
  Q 73.86 134.19 73.28 134.18
  L 70.83 134.16
  Q 70.50 134.16 70.50 134.50
  Z"
/>
<path fill="#000000" d="
  M 129.10 87.20
  L 133.14 85.20
  A 1.11 1.11 0.0 0 1 134.74 86.20
  L 134.76 91.73
  A 1.11 1.11 0.0 0 1 133.10 92.70
  L 129.41 90.59
  A 1.11 1.11 0.0 0 0 128.36 90.56
  L 124.38 92.57
  A 1.11 1.11 0.0 0 1 122.77 91.58
  L 122.75 86.15
  A 1.11 1.11 0.0 0 1 124.39 85.17
  L 128.08 87.18
  A 1.11 1.11 0.0 0 0 129.10 87.20
  Z"
/>
<path fill="#000000" d="
  M 128.36 111.44
  Q 128.77 112.50 129.17 111.44
  L 138.30 87.52
  A 0.73 0.73 0.0 0 1 138.95 87.05
  C 147.45 86.74 154.79 87.15 158.81 95.81
  Q 160.12 98.62 160.07 104.15
  Q 159.89 124.46 160.07 144.86
  Q 160.10 148.44 159.27 150.18
  C 156.54 155.84 147.67 153.74 147.65 147.16
  Q 147.59 124.56 147.64 101.56
  A 1.34 1.34 0.0 0 0 146.47 100.23
  Q 146.23 100.20 146.00 100.30
  Q 145.26 100.61 145.26 101.42
  Q 145.23 152.71 145.26 205.81
  C 145.27 215.80 130.34 215.91 130.36 205.68
  Q 130.40 176.33 130.36 146.79
  Q 130.36 146.49 130.06 146.49
  L 127.30 146.52
  Q 127.14 146.52 127.14 146.68
  Q 127.06 175.44 127.20 204.60
  Q 127.21 208.16 125.96 209.98
  C 121.64 216.26 112.26 213.35 112.26 205.62
  Q 112.24 152.72 112.25 101.87
  Q 112.25 100.56 110.95 100.47
  Q 110.46 100.44 110.00 100.80
  A 1.00 0.98 -19.8 0 0 109.63 101.57
  Q 109.60 125.75 109.62 146.58
  C 109.62 155.80 97.12 155.17 97.13 147.51
  Q 97.16 125.06 97.10 102.35
  Q 97.08 91.62 107.82 87.70
  Q 111.18 86.47 118.56 87.16
  Q 118.92 87.19 119.05 87.52
  L 128.36 111.44
  Z"
/>
<circle fill="#000000" cx="128.72" cy="96.60" r="1.68"/>
<circle fill="#000000" cx="128.76" cy="103.43" r="1.67"/>
</svg>
