<?xml version="1.0" encoding="UTF-8" standalone="no"?>
<!DOCTYPE svg PUBLIC "-//W3C//DTD SVG 1.1//EN" "http://www.w3.org/Graphics/SVG/1.1/DTD/svg11.dtd">
<svg xmlns="http://www.w3.org/2000/svg" version="1.1" viewBox="0.00 0.00 256.00 360.00">
<g stroke-width="2.00" fill="none" stroke-linecap="butt">
<path stroke="#808080" vector-effect="non-scaling-stroke" d="
  M 176.82 82.82
  A 18.98 18.98 0.0 0 0 157.84 63.84
  A 18.98 18.98 0.0 0 0 138.86 82.82
  A 18.98 18.98 0.0 0 0 157.84 101.80
  A 18.98 18.98 0.0 0 0 176.82 82.82"
/>
<path stroke="#808080" vector-effect="non-scaling-stroke" d="
  M 161.08 147.88
  Q 159.44 150.57 161.35 153.06
  C 165.27 158.18 170.95 150.48 173.47 148.00
  Q 173.80 147.68 174.26 147.65
  C 175.75 147.59 177.27 147.70 178.67 147.15
  Q 184.82 144.70 184.49 138.05
  Q 184.46 137.49 184.86 137.10
  L 189.52 132.56
  Q 189.95 132.15 190.54 132.22
  C 199.15 133.25 208.07 126.17 212.69 119.17
  C 216.02 114.11 218.27 106.33 212.22 102.51
  C 207.42 99.48 200.42 102.25 196.04 105.34
  C 189.80 109.75 183.47 117.10 183.91 124.98
  Q 183.94 125.59 183.51 126.01
  L 179.13 130.37
  Q 178.77 130.72 178.28 130.66
  Q 176.32 130.42 174.52 130.40
  Q 162.77 130.25 149.04 130.09
  Q 148.47 130.08 148.18 129.59
  L 142.89 120.79
  Q 142.58 120.28 142.80 119.72
  Q 146.73 109.81 138.51 103.11
  Q 133.08 98.69 127.87 93.88
  Q 122.22 88.66 118.88 87.47
  C 112.75 85.29 107.21 88.14 103.49 93.23
  Q 85.28 118.14 67.41 142.32
  Q 63.59 147.48 65.14 152.74
  Q 66.03 155.74 69.76 159.15
  Q 78.93 167.51 87.28 174.84
  Q 87.85 175.33 87.10 175.33
  Q 67.59 175.22 47.06 175.05
  C 32.33 174.92 32.34 195.65 47.20 195.72
  Q 80.27 195.88 114.35 196.17
  C 121.96 196.24 127.48 189.36 124.67 182.19
  Q 123.57 179.39 119.64 176.02
  Q 112.77 170.13 105.76 163.68
  Q 105.34 163.30 105.74 162.90
  L 106.75 161.86
  A 0.84 0.84 0.0 0 0 106.59 160.57
  C 100.15 156.50 99.25 150.59 101.80 143.66
  Q 107.71 127.50 113.30 111.83
  Q 113.72 110.64 113.60 111.90
  Q 111.89 128.95 110.00 146.27
  Q 109.41 151.66 113.99 155.10
  Q 124.87 163.28 137.17 173.03
  Q 139.70 175.05 141.71 175.66
  C 150.74 178.46 156.78 166.41 149.39 160.67
  Q 138.80 152.44 128.07 144.23
  Q 127.57 143.84 127.64 143.22
  L 130.65 114.50
  Q 130.89 112.28 131.19 114.50
  L 134.27 137.02
  Q 134.36 137.71 134.91 138.14
  L 146.18 146.86
  A 1.76 1.75 64.1 0 0 147.27 147.24
  L 160.81 147.40
  Q 161.37 147.41 161.08 147.88"
/>
<path stroke="#808080" vector-effect="non-scaling-stroke" d="
  M 191.49 125.28
  C 198.48 125.98 205.87 117.88 208.51 112.15
  Q 208.92 111.26 208.98 110.24
  Q 209.14 107.45 206.44 108.21
  Q 196.63 110.99 191.75 120.52
  Q 190.78 122.41 190.83 124.57
  Q 190.84 125.22 191.49 125.28"
/>
</g>
<path fill="#ffffff" d="
  M 121.87 0.00
  L 134.24 0.00
  Q 139.11 0.59 143.98 1.21
  Q 176.46 5.34 202.53 23.94
  Q 210.53 29.65 217.78 36.85
  Q 252.72 71.54 256.00 122.37
  L 256.00 133.23
  Q 253.60 177.79 226.18 210.17
  C 183.22 260.89 109.46 271.02 54.62 232.86
  C 24.96 212.21 4.87 178.90 0.94 143.13
  Q 0.43 138.50 0.00 133.87
  L 0.00 122.01
  Q 0.56 117.00 1.19 112.02
  Q 4.67 84.27 19.00 60.86
  Q 24.09 52.55 30.84 44.77
  Q 66.14 4.06 121.87 0.00
  Z
  M 176.82 82.82
  A 18.98 18.98 0.0 0 0 157.84 63.84
  A 18.98 18.98 0.0 0 0 138.86 82.82
  A 18.98 18.98 0.0 0 0 157.84 101.80
  A 18.98 18.98 0.0 0 0 176.82 82.82
  Z
  M 161.08 147.88
  Q 159.44 150.57 161.35 153.06
  C 165.27 158.18 170.95 150.48 173.47 148.00
  Q 173.80 147.68 174.26 147.65
  C 175.75 147.59 177.27 147.70 178.67 147.15
  Q 184.82 144.70 184.49 138.05
  Q 184.46 137.49 184.86 137.10
  L 189.52 132.56
  Q 189.95 132.15 190.54 132.22
  C 199.15 133.25 208.07 126.17 212.69 119.17
  C 216.02 114.11 218.27 106.33 212.22 102.51
  C 207.42 99.48 200.42 102.25 196.04 105.34
  C 189.80 109.75 183.47 117.10 183.91 124.98
  Q 183.94 125.59 183.51 126.01
  L 179.13 130.37
  Q 178.77 130.72 178.28 130.66
  Q 176.32 130.42 174.52 130.40
  Q 162.77 130.25 149.04 130.09
  Q 148.47 130.08 148.18 129.59
  L 142.89 120.79
  Q 142.58 120.28 142.80 119.72
  Q 146.73 109.81 138.51 103.11
  Q 133.08 98.69 127.87 93.88
  Q 122.22 88.66 118.88 87.47
  C 112.75 85.29 107.21 88.14 103.49 93.23
  Q 85.28 118.14 67.41 142.32
  Q 63.59 147.48 65.14 152.74
  Q 66.03 155.74 69.76 159.15
  Q 78.93 167.51 87.28 174.84
  Q 87.85 175.33 87.10 175.33
  Q 67.59 175.22 47.06 175.05
  C 32.33 174.92 32.34 195.65 47.20 195.72
  Q 80.27 195.88 114.35 196.17
  C 121.96 196.24 127.48 189.36 124.67 182.19
  Q 123.57 179.39 119.64 176.02
  Q 112.77 170.13 105.76 163.68
  Q 105.34 163.30 105.74 162.90
  L 106.75 161.86
  A 0.84 0.84 0.0 0 0 106.59 160.57
  C 100.15 156.50 99.25 150.59 101.80 143.66
  Q 107.71 127.50 113.30 111.83
  Q 113.72 110.64 113.60 111.90
  Q 111.89 128.95 110.00 146.27
  Q 109.41 151.66 113.99 155.10
  Q 124.87 163.28 137.17 173.03
  Q 139.70 175.05 141.71 175.66
  C 150.74 178.46 156.78 166.41 149.39 160.67
  Q 138.80 152.44 128.07 144.23
  Q 127.57 143.84 127.64 143.22
  L 130.65 114.50
  Q 130.89 112.28 131.19 114.50
  L 134.27 137.02
  Q 134.36 137.71 134.91 138.14
  L 146.18 146.86
  A 1.76 1.75 64.1 0 0 147.27 147.24
  L 160.81 147.40
  Q 161.37 147.41 161.08 147.88
  Z"
/>
<circle fill="#000000" cx="157.84" cy="82.82" r="18.98"/>
<path fill="#000000" d="
  M 160.81 147.40
  L 147.27 147.24
  A 1.76 1.75 64.1 0 1 146.18 146.86
  L 134.91 138.14
  Q 134.36 137.71 134.27 137.02
  L 131.19 114.50
  Q 130.89 112.28 130.65 114.50
  L 127.64 143.22
  Q 127.57 143.84 128.07 144.23
  Q 138.80 152.44 149.39 160.67
  C 156.78 166.41 150.74 178.46 141.71 175.66
  Q 139.70 175.05 137.17 173.03
  Q 124.87 163.28 113.99 155.10
  Q 109.41 151.66 110.00 146.27
  Q 111.89 128.95 113.60 111.90
  Q 113.72 110.64 113.30 111.83
  Q 107.71 127.50 101.80 143.66
  C 99.25 150.59 100.15 156.50 106.59 160.57
  A 0.84 0.84 0.0 0 1 106.75 161.86
  L 105.74 162.90
  Q 105.34 163.30 105.76 163.68
  Q 112.77 170.13 119.64 176.02
  Q 123.57 179.39 124.67 182.19
  C 127.48 189.36 121.96 196.24 114.35 196.17
  Q 80.27 195.88 47.20 195.72
  C 32.34 195.65 32.33 174.92 47.06 175.05
  Q 67.59 175.22 87.10 175.33
  Q 87.85 175.33 87.28 174.84
  Q 78.93 167.51 69.76 159.15
  Q 66.03 155.74 65.14 152.74
  Q 63.59 147.48 67.41 142.32
  Q 85.28 118.14 103.49 93.23
  C 107.21 88.14 112.75 85.29 118.88 87.47
  Q 122.22 88.66 127.87 93.88
  Q 133.08 98.69 138.51 103.11
  Q 146.73 109.81 142.80 119.72
  Q 142.58 120.28 142.89 120.79
  L 148.18 129.59
  Q 148.47 130.08 149.04 130.09
  Q 162.77 130.25 174.52 130.40
  Q 176.32 130.42 178.28 130.66
  Q 178.77 130.72 179.13 130.37
  L 183.51 126.01
  Q 183.94 125.59 183.91 124.98
  C 183.47 117.10 189.80 109.75 196.04 105.34
  C 200.42 102.25 207.42 99.48 212.22 102.51
  C 218.27 106.33 216.02 114.11 212.69 119.17
  C 208.07 126.17 199.15 133.25 190.54 132.22
  Q 189.95 132.15 189.52 132.56
  L 184.86 137.10
  Q 184.46 137.49 184.49 138.05
  Q 184.82 144.70 178.67 147.15
  C 177.27 147.70 175.75 147.59 174.26 147.65
  Q 173.80 147.68 173.47 148.00
  C 170.95 150.48 165.27 158.18 161.35 153.06
  Q 159.44 150.57 161.08 147.88
  Q 161.37 147.41 160.81 147.40
  Z
  M 191.49 125.28
  C 198.48 125.98 205.87 117.88 208.51 112.15
  Q 208.92 111.26 208.98 110.24
  Q 209.14 107.45 206.44 108.21
  Q 196.63 110.99 191.75 120.52
  Q 190.78 122.41 190.83 124.57
  Q 190.84 125.22 191.49 125.28
  Z"
/>
<path fill="#ffffff" d="
  M 208.51 112.15
  C 205.87 117.88 198.48 125.98 191.49 125.28
  Q 190.84 125.22 190.83 124.57
  Q 190.78 122.41 191.75 120.52
  Q 196.63 110.99 206.44 108.21
  Q 209.14 107.45 208.98 110.24
  Q 208.92 111.26 208.51 112.15
  Z"
/>
</svg>
