<?xml version="1.0" encoding="UTF-8" standalone="no"?>
<!DOCTYPE svg PUBLIC "-//W3C//DTD SVG 1.1//EN" "http://www.w3.org/Graphics/SVG/1.1/DTD/svg11.dtd">
<svg xmlns="http://www.w3.org/2000/svg" version="1.1" viewBox="0.00 0.00 256.00 360.00">
<g stroke-width="2.00" fill="none" stroke-linecap="butt">
<path stroke="#808080" vector-effect="non-scaling-stroke" d="
  M 96.10 54.49
  A 14.49 14.49 0.0 0 0 81.61 40.00
  A 14.49 14.49 0.0 0 0 67.12 54.49
  A 14.49 14.49 0.0 0 0 81.61 68.98
  A 14.49 14.49 0.0 0 0 96.10 54.49"
/>
<path stroke="#808080" vector-effect="non-scaling-stroke" d="
  M 84.76 95.52
  Q 85.97 90.97 86.73 86.41
  Q 86.82 85.88 86.57 85.41
  L 83.77 80.18
  Q 83.57 79.81 83.77 79.44
  L 86.21 74.86
  A 0.82 0.81 14.7 0 0 85.50 73.66
  Q 81.87 73.58 78.10 73.66
  Q 77.50 73.67 77.22 74.36
  A 0.83 0.81 -49.1 0 0 77.26 75.07
  L 79.62 79.41
  A 0.86 0.84 45.7 0 1 79.62 80.22
  L 76.84 85.35
  Q 76.60 85.79 76.66 86.29
  Q 77.26 90.79 78.35 95.19
  Q 78.40 95.37 78.21 95.43
  L 78.21 95.43
  Q 78.01 95.49 77.94 95.30
  Q 74.21 85.27 70.04 74.06
  A 0.66 0.66 0.0 0 0 69.42 73.63
  Q 66.59 73.65 64.25 73.58
  C 56.73 73.34 50.57 76.86 47.50 83.81
  Q 46.27 86.59 46.25 94.18
  Q 46.14 138.99 46.14 138.99
  Q 45.94 142.84 46.84 144.66
  C 50.04 151.15 60.00 148.81 60.02 141.16
  Q 60.11 114.39 60.29 90.10
  Q 60.30 88.83 61.58 88.77
  L 61.92 88.75
  Q 62.99 88.71 62.99 89.78
  Q 63.00 148.07 63.00 207.03
  C 63.00 210.90 64.82 214.11 68.61 215.47
  C 73.59 217.28 79.82 213.75 79.80 208.18
  Q 79.65 174.28 79.82 142.52
  Q 79.83 140.88 81.46 140.70
  Q 81.80 140.66 82.15 140.71
  Q 83.37 140.87 83.37 142.10
  Q 83.38 175.12 83.42 207.00
  C 83.43 219.11 100.27 218.59 100.24 207.49
  Q 100.06 146.26 100.12 89.95
  Q 100.12 88.35 101.69 88.64
  L 101.94 88.69
  Q 102.95 88.87 102.96 89.90
  Q 103.03 101.53 103.11 115.18
  C 103.15 121.88 109.34 124.48 114.70 121.07
  Q 126.97 113.29 138.23 106.44
  C 146.44 101.44 139.21 89.46 131.20 94.35
  Q 124.09 98.68 117.45 102.89
  A 0.29 0.29 0.0 0 1 117.00 102.64
  Q 117.01 96.53 116.98 90.19
  C 116.93 81.96 110.61 74.42 102.27 73.76
  Q 98.32 73.46 94.04 73.68
  Q 93.50 73.71 93.31 74.21
  Q 89.16 84.99 85.08 95.51
  Q 85.01 95.70 84.83 95.63
  L 84.82 95.63
  Q 84.74 95.60 84.76 95.52"
/>
<path stroke="#808080" vector-effect="non-scaling-stroke" d="
  M 192.47 123.46
  Q 179.91 118.82 166.54 116.14
  Q 164.58 115.74 162.74 116.11
  C 153.78 117.89 119.56 125.76 119.03 136.76
  Q 118.94 138.67 119.38 140.61
  Q 124.35 162.66 131.72 188.91
  Q 132.22 190.70 133.62 192.22
  C 140.93 200.20 149.57 208.82 159.00 214.11
  Q 164.47 217.18 170.15 213.98
  Q 174.56 211.50 178.02 208.70
  Q 187.58 200.94 195.52 191.99
  Q 196.87 190.46 197.55 188.02
  C 202.37 170.75 206.38 155.10 209.69 140.19
  Q 210.34 137.27 209.55 135.14
  C 207.47 129.56 197.95 125.48 192.47 123.46"
/>
<path stroke="#808080" vector-effect="non-scaling-stroke" d="
  M 135.79 136.30
  Q 133.36 137.34 131.33 138.93
  A 0.84 0.83 64.4 0 0 131.03 139.79
  Q 136.24 161.85 142.25 183.42
  Q 142.64 184.85 143.73 186.04
  Q 153.44 196.67 163.98 203.75
  A 0.34 0.33 -73.1 0 0 164.50 203.47
  L 164.50 128.24
  Q 164.50 127.64 163.91 127.76
  Q 148.78 130.74 135.79 136.30"
/>
</g>
<path fill="#ffffff" d="
  M 121.88 0.00
  L 134.24 0.00
  Q 139.12 0.58 143.98 1.20
  Q 175.51 5.18 200.56 22.54
  Q 209.01 28.38 215.99 35.09
  Q 249.80 67.53 255.28 114.48
  C 255.57 116.91 255.53 119.45 256.00 121.88
  L 256.00 133.24
  Q 253.68 175.04 228.64 207.05
  C 196.15 248.59 141.59 265.44 91.57 250.70
  C 66.74 243.37 44.24 228.34 27.92 207.75
  Q 2.58 175.79 0.00 133.86
  L 0.00 122.01
  Q 0.45 117.29 0.98 112.58
  C 5.09 76.01 25.51 43.40 55.45 22.57
  Q 81.27 4.60 114.02 0.96
  Q 117.96 0.52 121.88 0.00
  Z
  M 96.10 54.49
  A 14.49 14.49 0.0 0 0 81.61 40.00
  A 14.49 14.49 0.0 0 0 67.12 54.49
  A 14.49 14.49 0.0 0 0 81.61 68.98
  A 14.49 14.49 0.0 0 0 96.10 54.49
  Z
  M 84.76 95.52
  Q 85.97 90.97 86.73 86.41
  Q 86.82 85.88 86.57 85.41
  L 83.77 80.18
  Q 83.57 79.81 83.77 79.44
  L 86.21 74.86
  A 0.82 0.81 14.7 0 0 85.50 73.66
  Q 81.87 73.58 78.10 73.66
  Q 77.50 73.67 77.22 74.36
  A 0.83 0.81 -49.1 0 0 77.26 75.07
  L 79.62 79.41
  A 0.86 0.84 45.7 0 1 79.62 80.22
  L 76.84 85.35
  Q 76.60 85.79 76.66 86.29
  Q 77.26 90.79 78.35 95.19
  Q 78.40 95.37 78.21 95.43
  L 78.21 95.43
  Q 78.01 95.49 77.94 95.30
  Q 74.21 85.27 70.04 74.06
  A 0.66 0.66 0.0 0 0 69.42 73.63
  Q 66.59 73.65 64.25 73.58
  C 56.73 73.34 50.57 76.86 47.50 83.81
  Q 46.27 86.59 46.25 94.18
  Q 46.14 138.99 46.14 138.99
  Q 45.94 142.84 46.84 144.66
  C 50.04 151.15 60.00 148.81 60.02 141.16
  Q 60.11 114.39 60.29 90.10
  Q 60.30 88.83 61.58 88.77
  L 61.92 88.75
  Q 62.99 88.71 62.99 89.78
  Q 63.00 148.07 63.00 207.03
  C 63.00 210.90 64.82 214.11 68.61 215.47
  C 73.59 217.28 79.82 213.75 79.80 208.18
  Q 79.65 174.28 79.82 142.52
  Q 79.83 140.88 81.46 140.70
  Q 81.80 140.66 82.15 140.71
  Q 83.37 140.87 83.37 142.10
  Q 83.38 175.12 83.42 207.00
  C 83.43 219.11 100.27 218.59 100.24 207.49
  Q 100.06 146.26 100.12 89.95
  Q 100.12 88.35 101.69 88.64
  L 101.94 88.69
  Q 102.95 88.87 102.96 89.90
  Q 103.03 101.53 103.11 115.18
  C 103.15 121.88 109.34 124.48 114.70 121.07
  Q 126.97 113.29 138.23 106.44
  C 146.44 101.44 139.21 89.46 131.20 94.35
  Q 124.09 98.68 117.45 102.89
  A 0.29 0.29 0.0 0 1 117.00 102.64
  Q 117.01 96.53 116.98 90.19
  C 116.93 81.96 110.61 74.42 102.27 73.76
  Q 98.32 73.46 94.04 73.68
  Q 93.50 73.71 93.31 74.21
  Q 89.16 84.99 85.08 95.51
  Q 85.01 95.70 84.83 95.63
  L 84.82 95.63
  Q 84.74 95.60 84.76 95.52
  Z
  M 192.47 123.46
  Q 179.91 118.82 166.54 116.14
  Q 164.58 115.74 162.74 116.11
  C 153.78 117.89 119.56 125.76 119.03 136.76
  Q 118.94 138.67 119.38 140.61
  Q 124.35 162.66 131.72 188.91
  Q 132.22 190.70 133.62 192.22
  C 140.93 200.20 149.57 208.82 159.00 214.11
  Q 164.47 217.18 170.15 213.98
  Q 174.56 211.50 178.02 208.70
  Q 187.58 200.94 195.52 191.99
  Q 196.87 190.46 197.55 188.02
  C 202.37 170.75 206.38 155.10 209.69 140.19
  Q 210.34 137.27 209.55 135.14
  C 207.47 129.56 197.95 125.48 192.47 123.46
  Z"
/>
<circle fill="#000000" cx="81.61" cy="54.49" r="14.49"/>
<path fill="#000000" d="
  M 84.76 95.52
  Q 84.74 95.60 84.82 95.63
  L 84.83 95.63
  Q 85.01 95.70 85.08 95.51
  Q 89.16 84.99 93.31 74.21
  Q 93.50 73.71 94.04 73.68
  Q 98.32 73.46 102.27 73.76
  C 110.61 74.42 116.93 81.96 116.98 90.19
  Q 117.01 96.53 117.00 102.64
  A 0.29 0.29 0.0 0 0 117.45 102.89
  Q 124.09 98.68 131.20 94.35
  C 139.21 89.46 146.44 101.44 138.23 106.44
  Q 126.97 113.29 114.70 121.07
  C 109.34 124.48 103.15 121.88 103.11 115.18
  Q 103.03 101.53 102.96 89.90
  Q 102.95 88.87 101.94 88.69
  L 101.69 88.64
  Q 100.12 88.35 100.12 89.95
  Q 100.06 146.26 100.24 207.49
  C 100.27 218.59 83.43 219.11 83.42 207.00
  Q 83.38 175.12 83.37 142.10
  Q 83.37 140.87 82.15 140.71
  Q 81.80 140.66 81.46 140.70
  Q 79.83 140.88 79.82 142.52
  Q 79.65 174.28 79.80 208.18
  C 79.82 213.75 73.59 217.28 68.61 215.47
  C 64.82 214.11 63.00 210.90 63.00 207.03
  Q 63.00 148.07 62.99 89.78
  Q 62.99 88.71 61.92 88.75
  L 61.58 88.77
  Q 60.30 88.83 60.29 90.10
  Q 60.11 114.39 60.02 141.16
  C 60.00 148.81 50.04 151.15 46.84 144.66
  Q 45.94 142.84 46.14 138.99
  Q 46.14 138.99 46.25 94.18
  Q 46.27 86.59 47.50 83.81
  C 50.57 76.86 56.73 73.34 64.25 73.58
  Q 66.59 73.65 69.42 73.63
  A 0.66 0.66 0.0 0 1 70.04 74.06
  Q 74.21 85.27 77.94 95.30
  Q 78.01 95.49 78.21 95.43
  L 78.21 95.43
  Q 78.40 95.37 78.35 95.19
  Q 77.26 90.79 76.66 86.29
  Q 76.60 85.79 76.84 85.35
  L 79.62 80.22
  A 0.86 0.84 45.7 0 0 79.62 79.41
  L 77.26 75.07
  A 0.83 0.81 -49.1 0 1 77.22 74.36
  Q 77.50 73.67 78.10 73.66
  Q 81.87 73.58 85.50 73.66
  A 0.82 0.81 14.7 0 1 86.21 74.86
  L 83.77 79.44
  Q 83.57 79.81 83.77 80.18
  L 86.57 85.41
  Q 86.82 85.88 86.73 86.41
  Q 85.97 90.97 84.76 95.52
  Z"
/>
<path fill="#000000" d="
  M 192.47 123.46
  C 197.95 125.48 207.47 129.56 209.55 135.14
  Q 210.34 137.27 209.69 140.19
  C 206.38 155.10 202.37 170.75 197.55 188.02
  Q 196.87 190.46 195.52 191.99
  Q 187.58 200.94 178.02 208.70
  Q 174.56 211.50 170.15 213.98
  Q 164.47 217.18 159.00 214.11
  C 149.57 208.82 140.93 200.20 133.62 192.22
  Q 132.22 190.70 131.72 188.91
  Q 124.35 162.66 119.38 140.61
  Q 118.94 138.67 119.03 136.76
  C 119.56 125.76 153.78 117.89 162.74 116.11
  Q 164.58 115.74 166.54 116.14
  Q 179.91 118.82 192.47 123.46
  Z
  M 135.79 136.30
  Q 133.36 137.34 131.33 138.93
  A 0.84 0.83 64.4 0 0 131.03 139.79
  Q 136.24 161.85 142.25 183.42
  Q 142.64 184.85 143.73 186.04
  Q 153.44 196.67 163.98 203.75
  A 0.34 0.33 -73.1 0 0 164.50 203.47
  L 164.50 128.24
  Q 164.50 127.64 163.91 127.76
  Q 148.78 130.74 135.79 136.30
  Z"
/>
<path fill="#ffffff" d="
  M 135.79 136.30
  Q 148.78 130.74 163.91 127.76
  Q 164.50 127.64 164.50 128.24
  L 164.50 203.47
  A 0.34 0.33 -73.1 0 1 163.98 203.75
  Q 153.44 196.67 143.73 186.04
  Q 142.64 184.85 142.25 183.42
  Q 136.24 161.85 131.03 139.79
  A 0.84 0.83 64.4 0 1 131.33 138.93
  Q 133.36 137.34 135.79 136.30
  Z"
/>
</svg>
