<?xml version="1.0" encoding="UTF-8" standalone="no"?>
<!DOCTYPE svg PUBLIC "-//W3C//DTD SVG 1.1//EN" "http://www.w3.org/Graphics/SVG/1.1/DTD/svg11.dtd">
<svg xmlns="http://www.w3.org/2000/svg" version="1.1" viewBox="0.00 0.00 256.00 360.00">
<g stroke-width="2.00" fill="none" stroke-linecap="butt">
<path stroke="#808080" vector-effect="non-scaling-stroke" d="
  M 145.67 88.76
  A 18.86 18.86 0.0 0 0 126.81 69.90
  A 18.86 18.86 0.0 0 0 107.95 88.76
  A 18.86 18.86 0.0 0 0 126.81 107.62
  A 18.86 18.86 0.0 0 0 145.67 88.76"
/>
<path stroke="#808080" vector-effect="non-scaling-stroke" d="
  M 204.57 129.70
  L 208.20 132.78
  A 0.40 0.40 0.0 0 0 208.86 132.43
  Q 208.25 126.44 202.25 126.93
  Q 201.68 126.98 201.27 126.59
  L 194.82 120.70
  Q 194.62 120.51 194.80 120.30
  L 199.19 115.21
  Q 199.35 115.02 199.54 115.19
  L 206.48 121.39
  Q 206.66 121.55 206.82 121.37
  L 213.10 114.32
  Q 213.27 114.12 213.07 113.94
  L 195.01 98.05
  A 0.45 0.44 40.9 0 0 194.38 98.09
  L 188.42 104.98
  A 0.40 0.39 -49.7 0 0 188.46 105.53
  L 195.09 111.34
  Q 195.34 111.56 195.12 111.81
  L 190.75 116.60
  A 0.33 0.32 43.2 0 1 190.29 116.61
  L 184.44 111.15
  Q 184.09 110.82 184.09 110.34
  Q 184.12 104.33 178.10 104.35
  Q 176.81 104.36 177.80 105.20
  L 181.06 107.97
  A 0.63 0.62 -47.7 0 1 181.10 108.88
  L 177.93 112.10
  Q 177.58 112.46 177.21 112.11
  L 174.01 109.06
  A 0.40 0.40 0.0 0 0 173.33 109.35
  Q 173.30 113.36 176.89 114.78
  C 178.03 115.22 179.26 114.87 180.45 115.00
  A 0.95 0.95 0.0 0 1 181.02 115.26
  L 186.52 120.40
  Q 186.78 120.65 186.53 120.90
  L 175.78 131.84
  A 2.86 2.85 58.2 0 0 175.11 134.74
  Q 175.60 136.19 176.68 136.79
  Q 178.98 138.06 180.74 136.11
  L 190.76 125.07
  Q 191.19 124.59 191.66 125.02
  L 197.77 130.62
  Q 198.17 130.99 198.14 131.53
  Q 197.78 137.53 204.06 137.66
  A 0.48 0.48 0.0 0 0 204.39 136.83
  L 200.86 133.59
  Q 200.70 133.44 200.85 133.29
  L 204.23 129.72
  Q 204.39 129.54 204.57 129.70"
/>
<path stroke="#808080" vector-effect="non-scaling-stroke" d="
  M 64.78 131.29
  Q 65.00 130.32 64.83 129.36
  Q 64.69 128.62 65.44 128.62
  L 77.57 128.63
  Q 79.88 128.63 79.88 126.32
  L 79.87 103.25
  A 2.37 2.37 0.0 0 0 77.50 100.88
  L 42.16 100.87
  A 2.17 2.16 90.0 0 0 40.00 103.04
  L 40.00 126.81
  A 1.82 1.81 0.2 0 0 41.81 128.62
  L 54.29 128.63
  Q 55.04 128.63 55.03 129.38
  Q 55.00 131.48 55.00 131.49
  Q 54.99 132.25 54.25 132.20
  Q 53.24 132.13 52.21 132.08
  A 0.42 0.40 -83.7 0 0 51.79 132.43
  Q 51.61 133.50 51.86 134.37
  Q 51.89 134.50 52.03 134.50
  L 67.49 134.50
  A 0.65 0.64 0.9 0 0 68.14 133.88
  L 68.19 132.61
  Q 68.22 132.00 67.61 132.04
  L 65.54 132.17
  A 0.73 0.72 -85.8 0 1 64.78 131.29"
/>
<path stroke="#808080" vector-effect="non-scaling-stroke" d="
  M 150.29 141.01
  Q 150.29 140.03 150.85 140.83
  Q 156.87 149.40 163.23 158.52
  C 164.90 160.90 167.75 162.26 170.69 162.25
  Q 186.60 162.24 204.43 162.28
  C 215.97 162.30 216.35 145.40 204.08 145.47
  Q 188.64 145.55 175.39 145.47
  A 0.81 0.80 -17.9 0 1 174.74 145.14
  Q 167.76 135.24 160.04 123.58
  C 154.53 115.25 149.31 110.66 139.38 110.64
  Q 126.69 110.61 114.26 110.63
  Q 102.48 110.65 95.54 120.76
  Q 87.31 132.73 79.07 145.00
  A 1.05 1.01 -72.5 0 1 78.22 145.46
  Q 65.01 145.59 50.46 145.44
  C 46.15 145.39 42.39 146.85 41.11 151.23
  C 39.57 156.53 42.93 162.24 48.80 162.24
  Q 66.63 162.25 83.09 162.26
  C 85.95 162.26 88.92 161.13 90.64 158.68
  Q 96.81 149.89 103.17 140.84
  Q 103.71 140.08 103.71 141.01
  L 103.87 185.71
  Q 103.87 186.12 104.28 186.12
  L 149.59 186.12
  Q 150.16 186.12 150.17 185.55
  L 150.29 141.01"
/>
<path stroke="#808080" vector-effect="non-scaling-stroke" d="
  M 76.87 104.62
  A 0.37 0.37 0.0 0 0 76.50 104.25
  L 43.62 104.25
  A 0.37 0.37 0.0 0 0 43.25 104.62
  L 43.25 123.76
  A 0.37 0.37 0.0 0 0 43.62 124.13
  L 76.50 124.13
  A 0.37 0.37 0.0 0 0 76.87 123.76
  L 76.87 104.62"
/>
</g>
<path fill="#ffffff" d="
  M 121.87 0.00
  L 134.24 0.00
  Q 139.12 0.58 143.98 1.20
  Q 175.51 5.18 200.56 22.54
  C 230.50 43.30 251.11 76.41 255.07 112.96
  Q 255.58 117.66 256.00 122.38
  L 256.00 133.23
  Q 253.60 177.79 226.18 210.17
  C 197.36 244.19 154.08 260.87 109.80 254.66
  C 53.05 246.70 7.24 200.40 0.94 143.13
  Q 0.43 138.50 0.00 133.87
  L 0.00 122.01
  Q 0.56 117.00 1.19 112.02
  Q 4.67 84.27 19.00 60.86
  Q 24.09 52.55 30.84 44.77
  Q 66.14 4.06 121.87 0.00
  Z
  M 145.67 88.76
  A 18.86 18.86 0.0 0 0 126.81 69.90
  A 18.86 18.86 0.0 0 0 107.95 88.76
  A 18.86 18.86 0.0 0 0 126.81 107.62
  A 18.86 18.86 0.0 0 0 145.67 88.76
  Z
  M 204.57 129.70
  L 208.20 132.78
  A 0.40 0.40 0.0 0 0 208.86 132.43
  Q 208.25 126.44 202.25 126.93
  Q 201.68 126.98 201.27 126.59
  L 194.82 120.70
  Q 194.62 120.51 194.80 120.30
  L 199.19 115.21
  Q 199.35 115.02 199.54 115.19
  L 206.48 121.39
  Q 206.66 121.55 206.82 121.37
  L 213.10 114.32
  Q 213.27 114.12 213.07 113.94
  L 195.01 98.05
  A 0.45 0.44 40.9 0 0 194.38 98.09
  L 188.42 104.98
  A 0.40 0.39 -49.7 0 0 188.46 105.53
  L 195.09 111.34
  Q 195.34 111.56 195.12 111.81
  L 190.75 116.60
  A 0.33 0.32 43.2 0 1 190.29 116.61
  L 184.44 111.15
  Q 184.09 110.82 184.09 110.34
  Q 184.12 104.33 178.10 104.35
  Q 176.81 104.36 177.80 105.20
  L 181.06 107.97
  A 0.63 0.62 -47.7 0 1 181.10 108.88
  L 177.93 112.10
  Q 177.58 112.46 177.21 112.11
  L 174.01 109.06
  A 0.40 0.40 0.0 0 0 173.33 109.35
  Q 173.30 113.36 176.89 114.78
  C 178.03 115.22 179.26 114.87 180.45 115.00
  A 0.95 0.95 0.0 0 1 181.02 115.26
  L 186.52 120.40
  Q 186.78 120.65 186.53 120.90
  L 175.78 131.84
  A 2.86 2.85 58.2 0 0 175.11 134.74
  Q 175.60 136.19 176.68 136.79
  Q 178.98 138.06 180.74 136.11
  L 190.76 125.07
  Q 191.19 124.59 191.66 125.02
  L 197.77 130.62
  Q 198.17 130.99 198.14 131.53
  Q 197.78 137.53 204.06 137.66
  A 0.48 0.48 0.0 0 0 204.39 136.83
  L 200.86 133.59
  Q 200.70 133.44 200.85 133.29
  L 204.23 129.72
  Q 204.39 129.54 204.57 129.70
  Z
  M 64.78 131.29
  Q 65.00 130.32 64.83 129.36
  Q 64.69 128.62 65.44 128.62
  L 77.57 128.63
  Q 79.88 128.63 79.88 126.32
  L 79.87 103.25
  A 2.37 2.37 0.0 0 0 77.50 100.88
  L 42.16 100.87
  A 2.17 2.16 90.0 0 0 40.00 103.04
  L 40.00 126.81
  A 1.82 1.81 0.2 0 0 41.81 128.62
  L 54.29 128.63
  Q 55.04 128.63 55.03 129.38
  Q 55.00 131.48 55.00 131.49
  Q 54.99 132.25 54.25 132.20
  Q 53.24 132.13 52.21 132.08
  A 0.42 0.40 -83.7 0 0 51.79 132.43
  Q 51.61 133.50 51.86 134.37
  Q 51.89 134.50 52.03 134.50
  L 67.49 134.50
  A 0.65 0.64 0.9 0 0 68.14 133.88
  L 68.19 132.61
  Q 68.22 132.00 67.61 132.04
  L 65.54 132.17
  A 0.73 0.72 -85.8 0 1 64.78 131.29
  Z
  M 150.29 141.01
  Q 150.29 140.03 150.85 140.83
  Q 156.87 149.40 163.23 158.52
  C 164.90 160.90 167.75 162.26 170.69 162.25
  Q 186.60 162.24 204.43 162.28
  C 215.97 162.30 216.35 145.40 204.08 145.47
  Q 188.64 145.55 175.39 145.47
  A 0.81 0.80 -17.9 0 1 174.74 145.14
  Q 167.76 135.24 160.04 123.58
  C 154.53 115.25 149.31 110.66 139.38 110.64
  Q 126.69 110.61 114.26 110.63
  Q 102.48 110.65 95.54 120.76
  Q 87.31 132.73 79.07 145.00
  A 1.05 1.01 -72.5 0 1 78.22 145.46
  Q 65.01 145.59 50.46 145.44
  C 46.15 145.39 42.39 146.85 41.11 151.23
  C 39.57 156.53 42.93 162.24 48.80 162.24
  Q 66.63 162.25 83.09 162.26
  C 85.95 162.26 88.92 161.13 90.64 158.68
  Q 96.81 149.89 103.17 140.84
  Q 103.71 140.08 103.71 141.01
  L 103.87 185.71
  Q 103.87 186.12 104.28 186.12
  L 149.59 186.12
  Q 150.16 186.12 150.17 185.55
  L 150.29 141.01
  Z"
/>
<circle fill="#000000" cx="126.81" cy="88.76" r="18.86"/>
<path fill="#000000" d="
  M 204.57 129.70
  Q 204.39 129.54 204.23 129.72
  L 200.85 133.29
  Q 200.70 133.44 200.86 133.59
  L 204.39 136.83
  A 0.48 0.48 0.0 0 1 204.06 137.66
  Q 197.78 137.53 198.14 131.53
  Q 198.17 130.99 197.77 130.62
  L 191.66 125.02
  Q 191.19 124.59 190.76 125.07
  L 180.74 136.11
  Q 178.98 138.06 176.68 136.79
  Q 175.60 136.19 175.11 134.74
  A 2.86 2.85 58.2 0 1 175.78 131.84
  L 186.53 120.90
  Q 186.78 120.65 186.52 120.40
  L 181.02 115.26
  A 0.95 0.95 0.0 0 0 180.45 115.00
  C 179.26 114.87 178.03 115.22 176.89 114.78
  Q 173.30 113.36 173.33 109.35
  A 0.40 0.40 0.0 0 1 174.01 109.06
  L 177.21 112.11
  Q 177.58 112.46 177.93 112.10
  L 181.10 108.88
  A 0.63 0.62 -47.7 0 0 181.06 107.97
  L 177.80 105.20
  Q 176.81 104.36 178.10 104.35
  Q 184.12 104.33 184.09 110.34
  Q 184.09 110.82 184.44 111.15
  L 190.29 116.61
  A 0.33 0.32 43.2 0 0 190.75 116.60
  L 195.12 111.81
  Q 195.34 111.56 195.09 111.34
  L 188.46 105.53
  A 0.40 0.39 -49.7 0 1 188.42 104.98
  L 194.38 98.09
  A 0.45 0.44 40.9 0 1 195.01 98.05
  L 213.07 113.94
  Q 213.27 114.12 213.10 114.32
  L 206.82 121.37
  Q 206.66 121.55 206.48 121.39
  L 199.54 115.19
  Q 199.35 115.02 199.19 115.21
  L 194.80 120.30
  Q 194.62 120.51 194.82 120.70
  L 201.27 126.59
  Q 201.68 126.98 202.25 126.93
  Q 208.25 126.44 208.86 132.43
  A 0.40 0.40 0.0 0 1 208.20 132.78
  L 204.57 129.70
  Z"
/>
<path fill="#000000" d="
  M 65.54 132.17
  L 67.61 132.04
  Q 68.22 132.00 68.19 132.61
  L 68.14 133.88
  A 0.65 0.64 0.9 0 1 67.49 134.50
  L 52.03 134.50
  Q 51.89 134.50 51.86 134.37
  Q 51.61 133.50 51.79 132.43
  A 0.42 0.40 -83.7 0 1 52.21 132.08
  Q 53.24 132.13 54.25 132.20
  Q 54.99 132.25 55.00 131.49
  Q 55.00 131.48 55.03 129.38
  Q 55.04 128.63 54.29 128.63
  L 41.81 128.62
  A 1.82 1.81 0.2 0 1 40.00 126.81
  L 40.00 103.04
  A 2.17 2.16 -90.0 0 1 42.16 100.87
  L 77.50 100.88
  A 2.37 2.37 0.0 0 1 79.87 103.25
  L 79.88 126.32
  Q 79.88 128.63 77.57 128.63
  L 65.44 128.62
  Q 64.69 128.62 64.83 129.36
  Q 65.00 130.32 64.78 131.29
  A 0.73 0.72 -85.8 0 0 65.54 132.17
  Z
  M 76.87 104.62
  A 0.37 0.37 0.0 0 0 76.50 104.25
  L 43.62 104.25
  A 0.37 0.37 0.0 0 0 43.25 104.62
  L 43.25 123.76
  A 0.37 0.37 0.0 0 0 43.62 124.13
  L 76.50 124.13
  A 0.37 0.37 0.0 0 0 76.87 123.76
  L 76.87 104.62
  Z"
/>
<rect fill="#ffffff" x="43.25" y="104.25" width="33.62" height="19.88" rx="0.37"/>
<path fill="#000000" d="
  M 150.29 141.01
  L 150.17 185.55
  Q 150.16 186.12 149.59 186.12
  L 104.28 186.12
  Q 103.87 186.12 103.87 185.71
  L 103.71 141.01
  Q 103.71 140.08 103.17 140.84
  Q 96.81 149.89 90.64 158.68
  C 88.92 161.13 85.95 162.26 83.09 162.26
  Q 66.63 162.25 48.80 162.24
  C 42.93 162.24 39.57 156.53 41.11 151.23
  C 42.39 146.85 46.15 145.39 50.46 145.44
  Q 65.01 145.59 78.22 145.46
  A 1.05 1.01 -72.5 0 0 79.07 145.00
  Q 87.31 132.73 95.54 120.76
  Q 102.48 110.65 114.26 110.63
  Q 126.69 110.61 139.38 110.64
  C 149.31 110.66 154.53 115.25 160.04 123.58
  Q 167.76 135.24 174.74 145.14
  A 0.81 0.80 -17.9 0 0 175.39 145.47
  Q 188.64 145.55 204.08 145.47
  C 216.35 145.40 215.97 162.30 204.43 162.28
  Q 186.60 162.24 170.69 162.25
  C 167.75 162.26 164.90 160.90 163.23 158.52
  Q 156.87 149.40 150.85 140.83
  Q 150.29 140.03 150.29 141.01
  Z"
/>
</svg>
