<?xml version="1.0" encoding="UTF-8" standalone="no"?>
<!DOCTYPE svg PUBLIC "-//W3C//DTD SVG 1.1//EN" "http://www.w3.org/Graphics/SVG/1.1/DTD/svg11.dtd">
<svg xmlns="http://www.w3.org/2000/svg" version="1.1" viewBox="0.00 0.00 256.00 360.00">
<path fill="#000000" d="
  M 89.71 51.50
  L 81.25 51.50
  A 1.91 1.91 0.0 0 1 79.71 48.46
  L 94.36 28.32
  A 1.84 1.83 -69.9 0 1 95.97 27.57
  Q 97.62 27.69 97.62 29.39
  Q 97.63 34.81 97.62 39.88
  Q 97.62 40.50 98.24 40.50
  L 106.80 40.50
  A 1.85 1.85 0.0 0 1 108.30 43.43
  Q 100.99 53.52 94.12 62.95
  C 93.54 63.73 92.65 64.61 91.56 64.20
  Q 90.42 63.77 90.40 62.72
  Q 90.28 57.57 90.42 52.23
  Q 90.44 51.50 89.71 51.50
  Z
  M 93.99 49.31
  L 94.02 55.20
  Q 94.02 56.84 94.98 55.51
  L 102.76 44.69
  Q 103.16 44.13 102.47 44.13
  L 95.70 44.12
  A 1.68 1.68 0.0 0 1 94.02 42.45
  L 93.98 36.46
  Q 93.97 35.13 93.19 36.21
  L 85.26 47.32
  Q 84.85 47.88 85.55 47.88
  L 92.56 47.89
  A 1.43 1.42 -0.0 0 1 93.99 49.31
  Z"
/>
<circle fill="#000000" cx="127.88" cy="60.29" r="15.84"/>
<path fill="#000000" d="
  M 108.48 98.17
  Q 107.11 101.10 106.33 104.64
  C 103.87 115.86 103.57 128.43 104.40 140.26
  Q 104.60 143.17 103.57 144.94
  C 100.54 150.10 93.51 147.83 93.16 142.04
  Q 92.54 131.92 93.00 120.02
  C 93.53 106.52 97.35 80.02 115.37 80.17
  Q 128.69 80.28 141.10 80.19
  C 151.93 80.10 157.76 91.83 160.05 100.76
  C 163.44 114.05 163.53 129.24 162.62 142.17
  C 162.06 150.21 150.75 149.10 151.33 141.43
  Q 152.72 122.90 149.97 107.02
  Q 149.14 102.27 147.20 98.06
  Q 146.93 97.48 146.93 98.12
  Q 146.97 149.37 146.96 199.10
  Q 146.95 204.82 146.02 206.89
  C 142.26 215.22 129.47 212.41 129.50 203.03
  Q 129.58 169.30 129.41 140.46
  A 1.10 1.10 0.0 0 0 128.31 139.37
  L 127.25 139.38
  Q 126.26 139.38 126.26 140.37
  Q 126.22 171.05 126.26 202.55
  Q 126.27 207.91 122.28 210.42
  C 117.73 213.29 111.24 211.52 109.44 206.26
  Q 108.91 204.69 108.90 200.67
  Q 108.88 149.53 108.93 98.27
  Q 108.93 97.21 108.48 98.17
  Z"
/>
</svg>
