<?xml version="1.0" encoding="UTF-8" standalone="no"?>
<!DOCTYPE svg PUBLIC "-//W3C//DTD SVG 1.1//EN" "http://www.w3.org/Graphics/SVG/1.1/DTD/svg11.dtd">
<svg xmlns="http://www.w3.org/2000/svg" version="1.1" viewBox="0.00 0.00 256.00 264.00">
<path fill="#1b1a1a" d="
  M 187.23 53.27
  C 186.56 34.80 174.13 21.72 155.45 20.86
  Q 153.64 20.78 152.96 19.10
  Q 152.79 18.68 152.89 18.24
  Q 153.45 15.85 155.91 15.96
  C 176.26 16.87 191.14 31.75 192.04 52.11
  Q 192.14 54.50 189.83 55.10
  Q 189.49 55.19 189.15 55.09
  Q 187.28 54.55 187.23 53.27
  Z"
/>
<path fill="#1b1a1a" d="
  M 177.44 52.79
  C 176.66 39.76 168.01 31.14 155.11 30.60
  Q 153.29 30.53 152.92 28.75
  Q 152.82 28.28 152.91 27.89
  Q 153.42 25.58 155.78 25.72
  C 170.93 26.61 182.10 37.74 182.23 52.98
  A 1.87 1.87 0.0 0 1 181.53 54.46
  Q 180.68 55.13 179.75 55.08
  Q 177.57 54.97 177.44 52.79
  Z"
/>
<path fill="#1b1a1a" d="
  M 167.58 52.70
  C 167.21 45.94 162.56 40.62 155.66 40.52
  Q 153.22 40.48 152.90 38.06
  Q 152.86 37.71 152.98 37.39
  Q 153.65 35.58 155.58 35.60
  C 165.13 35.70 171.64 42.82 172.54 52.28
  A 2.24 2.24 0.0 0 1 171.97 53.99
  Q 170.79 55.29 169.69 55.09
  Q 167.69 54.73 167.58 52.70
  Z"
/>
<circle fill="#000000" cx="127.88" cy="60.29" r="15.84"/>
<path fill="#1b1a1a" d="
  M 162.48 52.75
  A 7.24 7.24 0.0 0 1 155.24 59.99
  A 7.24 7.24 0.0 0 1 148.00 52.75
  A 7.24 7.24 0.0 0 1 155.24 45.51
  A 7.24 7.24 0.0 0 1 162.48 52.75
  Z
  M 157.77 52.66
  A 2.46 2.46 0.0 0 0 155.31 50.20
  A 2.46 2.46 0.0 0 0 152.85 52.66
  A 2.46 2.46 0.0 0 0 155.31 55.12
  A 2.46 2.46 0.0 0 0 157.77 52.66
  Z"
/>
<path fill="#000000" d="
  M 108.50 98.17
  Q 107.13 101.02 106.35 104.55
  C 103.84 115.98 103.64 128.30 104.42 140.31
  Q 104.63 143.57 103.26 145.46
  C 99.88 150.15 93.41 147.37 93.12 141.92
  Q 92.53 130.81 93.02 119.58
  C 93.60 106.25 97.50 79.93 115.36 80.16
  Q 128.10 80.32 140.45 80.16
  C 157.87 79.93 161.97 105.29 162.67 117.79
  Q 163.41 131.28 162.59 142.44
  C 162.02 150.06 150.78 149.15 151.34 141.39
  Q 152.73 122.04 149.95 107.00
  Q 149.08 102.27 147.22 98.06
  Q 146.93 97.39 146.93 98.12
  Q 146.97 149.50 146.96 199.10
  Q 146.95 204.82 146.02 206.89
  C 142.24 215.29 129.46 212.38 129.49 202.92
  Q 129.57 173.22 129.41 140.50
  Q 129.41 139.37 128.28 139.37
  L 127.25 139.38
  Q 126.26 139.38 126.26 140.37
  Q 126.22 171.04 126.26 202.57
  Q 126.27 207.92 122.27 210.43
  C 117.73 213.29 111.23 211.52 109.44 206.26
  Q 108.91 204.69 108.90 200.67
  Q 108.88 149.53 108.93 98.27
  Q 108.93 97.28 108.50 98.17
  Z"
/>
</svg>
