<?xml version="1.0" encoding="UTF-8" standalone="no"?>
<!DOCTYPE svg PUBLIC "-//W3C//DTD SVG 1.1//EN" "http://www.w3.org/Graphics/SVG/1.1/DTD/svg11.dtd">
<svg xmlns="http://www.w3.org/2000/svg" version="1.1" viewBox="0.00 0.00 256.00 256.00">
<g stroke-width="2.00" fill="none" stroke-linecap="butt">
<path stroke="#808080" vector-effect="non-scaling-stroke" d="
  M 153.17 72.49
  Q 152.99 72.37 152.79 72.42
  Q 152.32 72.53 152.04 72.92
  Q 150.96 74.37 149.31 74.65
  A 1.19 1.19 0.0 0 1 147.93 73.61
  Q 147.74 71.92 148.79 70.68
  A 0.86 0.86 0.0 0 0 148.59 69.39
  Q 147.34 68.60 146.96 67.54
  A 1.77 1.77 0.0 0 1 149.36 65.33
  L 150.87 66.02
  Q 151.56 66.33 151.72 65.60
  Q 154.22 54.67 147.52 46.94
  C 135.91 33.56 115.00 40.49 112.49 57.73
  Q 112.34 58.73 111.99 57.78
  Q 111.40 56.14 109.99 56.15
  Q 108.87 56.16 108.45 57.41
  Q 108.00 58.72 108.19 60.14
  Q 108.27 60.76 107.65 60.79
  C 106.11 60.85 103.99 61.45 103.98 63.32
  Q 103.98 64.09 104.66 64.44
  C 107.43 65.85 109.62 65.22 112.33 63.62
  Q 112.69 63.41 112.64 63.00
  L 112.36 60.96
  Q 112.28 60.41 112.83 60.33
  Q 114.90 60.04 116.69 61.23
  A 0.85 0.84 17.8 0 1 117.07 61.95
  Q 117.04 64.16 114.29 64.38
  Q 112.67 64.51 112.82 66.12
  Q 113.00 68.23 111.33 69.27
  A 0.84 0.83 44.1 0 1 110.46 69.28
  Q 108.99 68.41 108.78 66.63
  A 0.77 0.77 0.0 0 0 107.64 66.05
  C 92.30 74.76 87.95 93.90 89.09 111.02
  A 1.58 1.52 60.6 0 1 88.85 111.95
  Q 86.46 115.63 87.59 120.50
  C 88.99 126.52 91.00 133.24 96.69 136.54
  Q 97.18 136.82 97.31 137.37
  Q 99.40 146.50 106.29 153.74
  Q 106.68 154.15 106.66 154.72
  Q 106.56 158.58 106.68 162.56
  Q 106.75 164.87 104.89 166.17
  Q 100.22 169.44 94.67 170.85
  C 87.84 172.59 80.94 174.51 75.08 178.38
  Q 62.40 186.75 63.65 203.99
  C 64.11 210.32 81.12 214.62 85.98 215.69
  Q 120.66 223.37 156.75 217.55
  C 166.23 216.03 176.11 213.71 184.44 209.03
  Q 188.23 206.90 188.44 203.36
  Q 189.34 188.27 179.19 180.09
  C 172.08 174.37 163.46 172.81 155.05 170.10
  C 152.33 169.23 145.30 166.45 145.35 162.94
  Q 145.41 158.71 145.35 154.75
  Q 145.35 154.23 145.70 153.85
  Q 152.56 146.49 154.83 137.16
  Q 154.97 136.58 155.50 136.32
  C 160.97 133.55 163.27 126.00 164.51 120.20
  Q 165.68 114.68 162.49 111.33
  A 1.36 1.35 -65.5 0 1 162.13 110.36
  C 162.46 97.54 162.82 84.62 154.70 74.01
  Q 154.30 73.48 154.97 73.49
  L 155.97 73.50
  A 1.40 1.40 0.0 0 0 157.31 71.63
  Q 156.75 70.05 155.37 69.40
  A 0.66 0.65 -56.6 0 1 155.16 68.36
  Q 156.85 66.52 155.87 64.66
  A 1.18 1.18 0.0 0 0 154.34 64.14
  Q 151.25 65.57 150.39 69.03
  Q 150.26 69.55 150.70 69.87
  Q 152.12 70.91 153.28 72.36
  Q 153.62 72.78 153.17 72.49"
/>
<path stroke="#808080" vector-effect="non-scaling-stroke" d="
  M 124.67 62.49
  A 1.28 1.28 0.0 0 1 123.55 62.23
  L 121.50 60.52
  A 1.28 1.28 0.0 0 0 119.44 61.81
  L 120.06 64.40
  A 1.28 1.28 0.0 0 1 119.80 65.52
  L 118.09 67.57
  A 1.28 1.28 0.0 0 0 119.38 69.63
  L 121.97 69.01
  A 1.28 1.28 0.0 0 1 123.09 69.27
  L 125.14 70.98
  A 1.28 1.28 0.0 0 0 127.20 69.69
  L 126.58 67.10
  A 1.28 1.28 0.0 0 1 126.84 65.98
  L 128.55 63.93
  A 1.28 1.28 0.0 0 0 127.26 61.87
  L 124.67 62.49"
/>
<path stroke="#808080" vector-effect="non-scaling-stroke" d="
  M 141.22 67.89
  A 1.29 1.29 0.0 0 1 140.58 66.86
  L 140.42 64.24
  A 1.29 1.29 0.0 0 0 138.02 63.67
  L 136.68 65.93
  A 1.29 1.29 0.0 0 1 135.65 66.57
  L 133.03 66.73
  A 1.29 1.29 0.0 0 0 132.46 69.13
  L 134.72 70.47
  A 1.29 1.29 0.0 0 1 135.36 71.50
  L 135.52 74.12
  A 1.29 1.29 0.0 0 0 137.92 74.69
  L 139.26 72.43
  A 1.29 1.29 0.0 0 1 140.29 71.79
  L 142.91 71.63
  A 1.29 1.29 0.0 0 0 143.48 69.23
  L 141.22 67.89"
/>
<path stroke="#808080" vector-effect="non-scaling-stroke" d="
  M 152.52 121.62
  C 152.73 111.86 152.81 101.68 151.34 92.03
  Q 151.15 90.82 150.01 90.37
  Q 143.09 87.63 135.43 81.83
  Q 134.98 81.49 134.71 81.98
  Q 122.41 103.74 100.07 111.55
  Q 99.53 111.74 99.50 112.31
  Q 99.31 116.92 98.33 121.18
  Q 98.12 122.10 97.83 121.20
  L 95.80 114.95
  Q 95.41 113.73 94.22 114.21
  L 93.65 114.45
  Q 91.77 115.21 92.05 117.22
  Q 93.13 125.02 96.40 129.96
  Q 97.82 132.09 100.74 132.81
  A 0.88 0.88 0.0 0 1 101.40 133.53
  C 102.56 141.25 106.12 146.32 111.16 152.04
  Q 111.52 152.45 111.52 153.01
  Q 111.46 157.94 111.53 163.22
  C 111.65 171.12 98.82 174.95 92.86 176.38
  C 79.53 179.59 67.94 185.58 68.43 201.53
  C 68.47 202.74 68.29 203.79 69.48 204.51
  Q 74.88 207.74 81.80 209.53
  Q 82.36 209.68 82.59 209.15
  Q 86.59 200.14 93.76 195.88
  C 104.38 189.56 116.32 193.40 125.54 200.59
  Q 126.04 200.98 126.53 200.59
  C 142.08 188.12 160.88 190.15 169.57 209.26
  Q 169.79 209.74 170.29 209.59
  Q 175.29 208.13 180.20 205.88
  Q 181.84 205.13 183.08 203.88
  Q 183.48 203.48 183.52 202.91
  Q 184.61 188.35 173.01 181.68
  C 167.26 178.38 160.87 176.91 154.43 175.02
  C 149.58 173.60 140.51 169.60 140.50 163.78
  Q 140.49 158.53 140.50 153.10
  A 1.85 1.83 67.3 0 1 141.00 151.86
  C 145.87 146.69 149.40 141.29 150.50 134.07
  C 150.61 133.33 151.05 132.78 151.80 132.63
  C 153.89 132.23 155.75 130.35 156.62 128.50
  C 157.60 126.41 163.45 113.25 156.73 114.15
  Q 156.17 114.22 155.95 114.74
  L 152.95 121.71
  Q 152.49 122.78 152.52 121.62"
/>
<path stroke="#808080" vector-effect="non-scaling-stroke" d="
  M 125.50 205.19
  C 112.60 193.47 94.29 191.70 86.10 210.06
  A 0.63 0.62 18.5 0 0 86.54 210.93
  Q 125.78 219.40 165.62 210.92
  Q 166.30 210.77 166.03 210.13
  Q 163.00 203.24 157.19 199.35
  C 147.37 192.79 134.70 197.49 126.63 205.18
  Q 126.07 205.71 125.50 205.19"
/>
<path stroke="#808080" vector-effect="non-scaling-stroke" d="
  M 112.22 177.21
  A 2.48 2.48 0.0 0 0 109.74 174.73
  A 2.48 2.48 0.0 0 0 107.26 177.21
  A 2.48 2.48 0.0 0 0 109.74 179.69
  A 2.48 2.48 0.0 0 0 112.22 177.21"
/>
<path stroke="#808080" vector-effect="non-scaling-stroke" d="
  M 144.77 177.20
  A 2.48 2.48 0.0 0 0 142.29 174.72
  A 2.48 2.48 0.0 0 0 139.81 177.20
  A 2.48 2.48 0.0 0 0 142.29 179.68
  A 2.48 2.48 0.0 0 0 144.77 177.20"
/>
<path stroke="#808080" vector-effect="non-scaling-stroke" d="
  M 119.15 183.83
  A 2.49 2.49 0.0 0 0 116.66 181.34
  A 2.49 2.49 0.0 0 0 114.17 183.83
  A 2.49 2.49 0.0 0 0 116.66 186.32
  A 2.49 2.49 0.0 0 0 119.15 183.83"
/>
<path stroke="#808080" vector-effect="non-scaling-stroke" d="
  M 137.86 183.82
  A 2.47 2.47 0.0 0 0 135.39 181.35
  A 2.47 2.47 0.0 0 0 132.92 183.82
  A 2.47 2.47 0.0 0 0 135.39 186.29
  A 2.47 2.47 0.0 0 0 137.86 183.82"
/>
<path stroke="#808080" vector-effect="non-scaling-stroke" d="
  M 128.48 186.57
  A 2.47 2.47 0.0 0 0 126.01 184.10
  A 2.47 2.47 0.0 0 0 123.54 186.57
  A 2.47 2.47 0.0 0 0 126.01 189.04
  A 2.47 2.47 0.0 0 0 128.48 186.57"
/>
</g>
<path fill="#ffffff" d="
  M 121.87 0.00
  L 134.24 0.00
  Q 139.12 0.58 143.98 1.20
  Q 175.54 5.19 200.59 22.56
  C 231.67 44.12 250.91 76.98 255.27 114.31
  C 255.56 116.81 255.52 119.40 256.00 121.88
  L 256.00 133.22
  Q 253.63 177.65 226.16 210.17
  Q 190.83 251.99 134.34 256.00
  L 121.51 256.00
  Q 115.75 255.34 110.03 254.53
  Q 80.77 250.38 56.67 234.30
  Q 48.54 228.87 41.04 221.86
  Q 3.62 186.84 0.00 133.88
  L 0.00 122.01
  Q 0.56 117.00 1.19 112.02
  Q 4.67 84.27 19.00 60.86
  Q 24.09 52.55 30.84 44.77
  Q 66.14 4.06 121.87 0.00
  Z
  M 153.17 72.49
  Q 152.99 72.37 152.79 72.42
  Q 152.32 72.53 152.04 72.92
  Q 150.96 74.37 149.31 74.65
  A 1.19 1.19 0.0 0 1 147.93 73.61
  Q 147.74 71.92 148.79 70.68
  A 0.86 0.86 0.0 0 0 148.59 69.39
  Q 147.34 68.60 146.96 67.54
  A 1.77 1.77 0.0 0 1 149.36 65.33
  L 150.87 66.02
  Q 151.56 66.33 151.72 65.60
  Q 154.22 54.67 147.52 46.94
  C 135.91 33.56 115.00 40.49 112.49 57.73
  Q 112.34 58.73 111.99 57.78
  Q 111.40 56.14 109.99 56.15
  Q 108.87 56.16 108.45 57.41
  Q 108.00 58.72 108.19 60.14
  Q 108.27 60.76 107.65 60.79
  C 106.11 60.85 103.99 61.45 103.98 63.32
  Q 103.98 64.09 104.66 64.44
  C 107.43 65.85 109.62 65.22 112.33 63.62
  Q 112.69 63.41 112.64 63.00
  L 112.36 60.96
  Q 112.28 60.41 112.83 60.33
  Q 114.90 60.04 116.69 61.23
  A 0.85 0.84 17.8 0 1 117.07 61.95
  Q 117.04 64.16 114.29 64.38
  Q 112.67 64.51 112.82 66.12
  Q 113.00 68.23 111.33 69.27
  A 0.84 0.83 44.1 0 1 110.46 69.28
  Q 108.99 68.41 108.78 66.63
  A 0.77 0.77 0.0 0 0 107.64 66.05
  C 92.30 74.76 87.95 93.90 89.09 111.02
  A 1.58 1.52 60.6 0 1 88.85 111.95
  Q 86.46 115.63 87.59 120.50
  C 88.99 126.52 91.00 133.24 96.69 136.54
  Q 97.18 136.82 97.31 137.37
  Q 99.40 146.50 106.29 153.74
  Q 106.68 154.15 106.66 154.72
  Q 106.56 158.58 106.68 162.56
  Q 106.75 164.87 104.89 166.17
  Q 100.22 169.44 94.67 170.85
  C 87.84 172.59 80.94 174.51 75.08 178.38
  Q 62.40 186.75 63.65 203.99
  C 64.11 210.32 81.12 214.62 85.98 215.69
  Q 120.66 223.37 156.75 217.55
  C 166.23 216.03 176.11 213.71 184.44 209.03
  Q 188.23 206.90 188.44 203.36
  Q 189.34 188.27 179.19 180.09
  C 172.08 174.37 163.46 172.81 155.05 170.10
  C 152.33 169.23 145.30 166.45 145.35 162.94
  Q 145.41 158.71 145.35 154.75
  Q 145.35 154.23 145.70 153.85
  Q 152.56 146.49 154.83 137.16
  Q 154.97 136.58 155.50 136.32
  C 160.97 133.55 163.27 126.00 164.51 120.20
  Q 165.68 114.68 162.49 111.33
  A 1.36 1.35 -65.5 0 1 162.13 110.36
  C 162.46 97.54 162.82 84.62 154.70 74.01
  Q 154.30 73.48 154.97 73.49
  L 155.97 73.50
  A 1.40 1.40 0.0 0 0 157.31 71.63
  Q 156.75 70.05 155.37 69.40
  A 0.66 0.65 -56.6 0 1 155.16 68.36
  Q 156.85 66.52 155.87 64.66
  A 1.18 1.18 0.0 0 0 154.34 64.14
  Q 151.25 65.57 150.39 69.03
  Q 150.26 69.55 150.70 69.87
  Q 152.12 70.91 153.28 72.36
  Q 153.62 72.78 153.17 72.49
  Z"
/>
<path fill="#000000" d="
  M 153.28 72.36
  Q 152.12 70.91 150.70 69.87
  Q 150.26 69.55 150.39 69.03
  Q 151.25 65.57 154.34 64.14
  A 1.18 1.18 0.0 0 1 155.87 64.66
  Q 156.85 66.52 155.16 68.36
  A 0.66 0.65 -56.6 0 0 155.37 69.40
  Q 156.75 70.05 157.31 71.63
  A 1.40 1.40 0.0 0 1 155.97 73.50
  L 154.97 73.49
  Q 154.30 73.48 154.70 74.01
  C 162.82 84.62 162.46 97.54 162.13 110.36
  A 1.36 1.35 -65.5 0 0 162.49 111.33
  Q 165.68 114.68 164.51 120.20
  C 163.27 126.00 160.97 133.55 155.50 136.32
  Q 154.97 136.58 154.83 137.16
  Q 152.56 146.49 145.70 153.85
  Q 145.35 154.23 145.35 154.75
  Q 145.41 158.71 145.35 162.94
  C 145.30 166.45 152.33 169.23 155.05 170.10
  C 163.46 172.81 172.08 174.37 179.19 180.09
  Q 189.34 188.27 188.44 203.36
  Q 188.23 206.90 184.44 209.03
  C 176.11 213.71 166.23 216.03 156.75 217.55
  Q 120.66 223.37 85.98 215.69
  C 81.12 214.62 64.11 210.32 63.65 203.99
  Q 62.40 186.75 75.08 178.38
  C 80.94 174.51 87.84 172.59 94.67 170.85
  Q 100.22 169.44 104.89 166.17
  Q 106.75 164.87 106.68 162.56
  Q 106.56 158.58 106.66 154.72
  Q 106.68 154.15 106.29 153.74
  Q 99.40 146.50 97.31 137.37
  Q 97.18 136.82 96.69 136.54
  C 91.00 133.24 88.99 126.52 87.59 120.50
  Q 86.46 115.63 88.85 111.95
  A 1.58 1.52 60.6 0 0 89.09 111.02
  C 87.95 93.90 92.30 74.76 107.64 66.05
  A 0.77 0.77 0.0 0 1 108.78 66.63
  Q 108.99 68.41 110.46 69.28
  A 0.84 0.83 44.1 0 0 111.33 69.27
  Q 113.00 68.23 112.82 66.12
  Q 112.67 64.51 114.29 64.38
  Q 117.04 64.16 117.07 61.95
  A 0.85 0.84 17.8 0 0 116.69 61.23
  Q 114.90 60.04 112.83 60.33
  Q 112.28 60.41 112.36 60.96
  L 112.64 63.00
  Q 112.69 63.41 112.33 63.62
  C 109.62 65.22 107.43 65.85 104.66 64.44
  Q 103.98 64.09 103.98 63.32
  C 103.99 61.45 106.11 60.85 107.65 60.79
  Q 108.27 60.76 108.19 60.14
  Q 108.00 58.72 108.45 57.41
  Q 108.87 56.16 109.99 56.15
  Q 111.40 56.14 111.99 57.78
  Q 112.34 58.73 112.49 57.73
  C 115.00 40.49 135.91 33.56 147.52 46.94
  Q 154.22 54.67 151.72 65.60
  Q 151.56 66.33 150.87 66.02
  L 149.36 65.33
  A 1.77 1.77 0.0 0 0 146.96 67.54
  Q 147.34 68.60 148.59 69.39
  A 0.86 0.86 0.0 0 1 148.79 70.68
  Q 147.74 71.92 147.93 73.61
  A 1.19 1.19 0.0 0 0 149.31 74.65
  Q 150.96 74.37 152.04 72.92
  Q 152.32 72.53 152.79 72.42
  Q 152.99 72.37 153.17 72.49
  Q 153.62 72.78 153.28 72.36
  Z
  M 124.67 62.49
  A 1.28 1.28 0.0 0 1 123.55 62.23
  L 121.50 60.52
  A 1.28 1.28 0.0 0 0 119.44 61.81
  L 120.06 64.40
  A 1.28 1.28 0.0 0 1 119.80 65.52
  L 118.09 67.57
  A 1.28 1.28 0.0 0 0 119.38 69.63
  L 121.97 69.01
  A 1.28 1.28 0.0 0 1 123.09 69.27
  L 125.14 70.98
  A 1.28 1.28 0.0 0 0 127.20 69.69
  L 126.58 67.10
  A 1.28 1.28 0.0 0 1 126.84 65.98
  L 128.55 63.93
  A 1.28 1.28 0.0 0 0 127.26 61.87
  L 124.67 62.49
  Z
  M 141.22 67.89
  A 1.29 1.29 0.0 0 1 140.58 66.86
  L 140.42 64.24
  A 1.29 1.29 0.0 0 0 138.02 63.67
  L 136.68 65.93
  A 1.29 1.29 0.0 0 1 135.65 66.57
  L 133.03 66.73
  A 1.29 1.29 0.0 0 0 132.46 69.13
  L 134.72 70.47
  A 1.29 1.29 0.0 0 1 135.36 71.50
  L 135.52 74.12
  A 1.29 1.29 0.0 0 0 137.92 74.69
  L 139.26 72.43
  A 1.29 1.29 0.0 0 1 140.29 71.79
  L 142.91 71.63
  A 1.29 1.29 0.0 0 0 143.48 69.23
  L 141.22 67.89
  Z
  M 152.52 121.62
  C 152.73 111.86 152.81 101.68 151.34 92.03
  Q 151.15 90.82 150.01 90.37
  Q 143.09 87.63 135.43 81.83
  Q 134.98 81.49 134.71 81.98
  Q 122.41 103.74 100.07 111.55
  Q 99.53 111.74 99.50 112.31
  Q 99.31 116.92 98.33 121.18
  Q 98.12 122.10 97.83 121.20
  L 95.80 114.95
  Q 95.41 113.73 94.22 114.21
  L 93.65 114.45
  Q 91.77 115.21 92.05 117.22
  Q 93.13 125.02 96.40 129.96
  Q 97.82 132.09 100.74 132.81
  A 0.88 0.88 0.0 0 1 101.40 133.53
  C 102.56 141.25 106.12 146.32 111.16 152.04
  Q 111.52 152.45 111.52 153.01
  Q 111.46 157.94 111.53 163.22
  C 111.65 171.12 98.82 174.95 92.86 176.38
  C 79.53 179.59 67.94 185.58 68.43 201.53
  C 68.47 202.74 68.29 203.79 69.48 204.51
  Q 74.88 207.74 81.80 209.53
  Q 82.36 209.68 82.59 209.15
  Q 86.59 200.14 93.76 195.88
  C 104.38 189.56 116.32 193.40 125.54 200.59
  Q 126.04 200.98 126.53 200.59
  C 142.08 188.12 160.88 190.15 169.57 209.26
  Q 169.79 209.74 170.29 209.59
  Q 175.29 208.13 180.20 205.88
  Q 181.84 205.13 183.08 203.88
  Q 183.48 203.48 183.52 202.91
  Q 184.61 188.35 173.01 181.68
  C 167.26 178.38 160.87 176.91 154.43 175.02
  C 149.58 173.60 140.51 169.60 140.50 163.78
  Q 140.49 158.53 140.50 153.10
  A 1.85 1.83 67.3 0 1 141.00 151.86
  C 145.87 146.69 149.40 141.29 150.50 134.07
  C 150.61 133.33 151.05 132.78 151.80 132.63
  C 153.89 132.23 155.75 130.35 156.62 128.50
  C 157.60 126.41 163.45 113.25 156.73 114.15
  Q 156.17 114.22 155.95 114.74
  L 152.95 121.71
  Q 152.49 122.78 152.52 121.62
  Z
  M 125.50 205.19
  C 112.60 193.47 94.29 191.70 86.10 210.06
  A 0.63 0.62 18.5 0 0 86.54 210.93
  Q 125.78 219.40 165.62 210.92
  Q 166.30 210.77 166.03 210.13
  Q 163.00 203.24 157.19 199.35
  C 147.37 192.79 134.70 197.49 126.63 205.18
  Q 126.07 205.71 125.50 205.19
  Z"
/>
<path fill="#ffffff" d="
  M 124.67 62.49
  L 127.26 61.87
  A 1.28 1.28 0.0 0 1 128.55 63.93
  L 126.84 65.98
  A 1.28 1.28 0.0 0 0 126.58 67.10
  L 127.20 69.69
  A 1.28 1.28 0.0 0 1 125.14 70.98
  L 123.09 69.27
  A 1.28 1.28 0.0 0 0 121.97 69.01
  L 119.38 69.63
  A 1.28 1.28 0.0 0 1 118.09 67.57
  L 119.80 65.52
  A 1.28 1.28 0.0 0 0 120.06 64.40
  L 119.44 61.81
  A 1.28 1.28 0.0 0 1 121.50 60.52
  L 123.55 62.23
  A 1.28 1.28 0.0 0 0 124.67 62.49
  Z"
/>
<path fill="#ffffff" d="
  M 141.22 67.89
  L 143.48 69.23
  A 1.29 1.29 0.0 0 1 142.91 71.63
  L 140.29 71.79
  A 1.29 1.29 0.0 0 0 139.26 72.43
  L 137.92 74.69
  A 1.29 1.29 0.0 0 1 135.52 74.12
  L 135.36 71.50
  A 1.29 1.29 0.0 0 0 134.72 70.47
  L 132.46 69.13
  A 1.29 1.29 0.0 0 1 133.03 66.73
  L 135.65 66.57
  A 1.29 1.29 0.0 0 0 136.68 65.93
  L 138.02 63.67
  A 1.29 1.29 0.0 0 1 140.42 64.24
  L 140.58 66.86
  A 1.29 1.29 0.0 0 0 141.22 67.89
  Z"
/>
<path fill="#ffffff" d="
  M 152.95 121.71
  L 155.95 114.74
  Q 156.17 114.22 156.73 114.15
  C 163.45 113.25 157.60 126.41 156.62 128.50
  C 155.75 130.35 153.89 132.23 151.80 132.63
  C 151.05 132.78 150.61 133.33 150.50 134.07
  C 149.40 141.29 145.87 146.69 141.00 151.86
  A 1.85 1.83 67.3 0 0 140.50 153.10
  Q 140.49 158.53 140.50 163.78
  C 140.51 169.60 149.58 173.60 154.43 175.02
  C 160.87 176.91 167.26 178.38 173.01 181.68
  Q 184.61 188.35 183.52 202.91
  Q 183.48 203.48 183.08 203.88
  Q 181.84 205.13 180.20 205.88
  Q 175.29 208.13 170.29 209.59
  Q 169.79 209.74 169.57 209.26
  C 160.88 190.15 142.08 188.12 126.53 200.59
  Q 126.04 200.98 125.54 200.59
  C 116.32 193.40 104.38 189.56 93.76 195.88
  Q 86.59 200.14 82.59 209.15
  Q 82.36 209.68 81.80 209.53
  Q 74.88 207.74 69.48 204.51
  C 68.29 203.79 68.47 202.74 68.43 201.53
  C 67.94 185.58 79.53 179.59 92.86 176.38
  C 98.82 174.95 111.65 171.12 111.53 163.22
  Q 111.46 157.94 111.52 153.01
  Q 111.52 152.45 111.16 152.04
  C 106.12 146.32 102.56 141.25 101.40 133.53
  A 0.88 0.88 0.0 0 0 100.74 132.81
  Q 97.82 132.09 96.40 129.96
  Q 93.13 125.02 92.05 117.22
  Q 91.77 115.21 93.65 114.45
  L 94.22 114.21
  Q 95.41 113.73 95.80 114.95
  L 97.83 121.20
  Q 98.12 122.10 98.33 121.18
  Q 99.31 116.92 99.50 112.31
  Q 99.53 111.74 100.07 111.55
  Q 122.41 103.74 134.71 81.98
  Q 134.98 81.49 135.43 81.83
  Q 143.09 87.63 150.01 90.37
  Q 151.15 90.82 151.34 92.03
  C 152.81 101.68 152.73 111.86 152.52 121.62
  Q 152.49 122.78 152.95 121.71
  Z
  M 112.22 177.21
  A 2.48 2.48 0.0 0 0 109.74 174.73
  A 2.48 2.48 0.0 0 0 107.26 177.21
  A 2.48 2.48 0.0 0 0 109.74 179.69
  A 2.48 2.48 0.0 0 0 112.22 177.21
  Z
  M 144.77 177.20
  A 2.48 2.48 0.0 0 0 142.29 174.72
  A 2.48 2.48 0.0 0 0 139.81 177.20
  A 2.48 2.48 0.0 0 0 142.29 179.68
  A 2.48 2.48 0.0 0 0 144.77 177.20
  Z
  M 119.15 183.83
  A 2.49 2.49 0.0 0 0 116.66 181.34
  A 2.49 2.49 0.0 0 0 114.17 183.83
  A 2.49 2.49 0.0 0 0 116.66 186.32
  A 2.49 2.49 0.0 0 0 119.15 183.83
  Z
  M 137.86 183.82
  A 2.47 2.47 0.0 0 0 135.39 181.35
  A 2.47 2.47 0.0 0 0 132.92 183.82
  A 2.47 2.47 0.0 0 0 135.39 186.29
  A 2.47 2.47 0.0 0 0 137.86 183.82
  Z
  M 128.48 186.57
  A 2.47 2.47 0.0 0 0 126.01 184.10
  A 2.47 2.47 0.0 0 0 123.54 186.57
  A 2.47 2.47 0.0 0 0 126.01 189.04
  A 2.47 2.47 0.0 0 0 128.48 186.57
  Z"
/>
<circle fill="#000000" cx="109.74" cy="177.21" r="2.48"/>
<circle fill="#000000" cx="142.29" cy="177.20" r="2.48"/>
<circle fill="#000000" cx="116.66" cy="183.83" r="2.49"/>
<circle fill="#000000" cx="135.39" cy="183.82" r="2.47"/>
<circle fill="#000000" cx="126.01" cy="186.57" r="2.47"/>
<path fill="#ffffff" d="
  M 126.63 205.18
  C 134.70 197.49 147.37 192.79 157.19 199.35
  Q 163.00 203.24 166.03 210.13
  Q 166.30 210.77 165.62 210.92
  Q 125.78 219.40 86.54 210.93
  A 0.63 0.62 18.5 0 1 86.10 210.06
  C 94.29 191.70 112.60 193.47 125.50 205.19
  Q 126.07 205.71 126.63 205.18
  Z"
/>
</svg>
