<?xml version="1.0" encoding="UTF-8" standalone="no"?>
<!DOCTYPE svg PUBLIC "-//W3C//DTD SVG 1.1//EN" "http://www.w3.org/Graphics/SVG/1.1/DTD/svg11.dtd">
<svg xmlns="http://www.w3.org/2000/svg" version="1.1" viewBox="0.00 0.00 256.00 360.00">
<g stroke-width="2.00" fill="none" stroke-linecap="butt">
<path stroke="#808080" vector-effect="non-scaling-stroke" d="
  M 165.28 85.92
  Q 157.77 89.08 150.48 91.73
  A 1.44 1.42 45.3 0 1 149.46 91.72
  Q 136.78 86.80 124.50 82.15
  C 120.53 80.65 116.29 83.63 115.78 87.64
  C 115.40 90.57 117.12 93.61 119.91 94.68
  Q 133.07 99.73 147.00 105.10
  C 148.78 105.78 150.67 106.07 152.44 105.38
  Q 160.62 102.17 170.57 98.33
  Q 171.44 98.00 170.70 98.56
  Q 162.01 105.11 154.18 110.90
  Q 153.63 111.31 152.98 111.59
  Q 152.54 111.78 152.54 112.26
  Q 152.64 125.30 152.92 138.15
  Q 153.00 141.84 152.03 145.49
  Q 149.98 153.28 148.03 160.95
  Q 146.97 165.09 146.94 169.33
  Q 146.82 187.50 146.35 206.90
  C 146.26 210.56 147.65 213.83 151.22 215.29
  C 156.38 217.42 162.26 214.05 162.39 208.30
  Q 162.82 189.54 162.94 171.68
  Q 162.97 167.18 164.01 163.18
  Q 166.56 153.40 169.39 141.94
  Q 169.48 141.56 169.87 141.51
  Q 172.05 141.21 173.16 141.49
  Q 173.40 141.54 173.34 141.78
  L 167.82 166.24
  A 9.26 9.25 -44.3 0 0 167.77 170.07
  Q 171.82 190.10 175.75 209.51
  C 177.85 219.89 193.63 217.08 191.35 205.87
  Q 187.38 186.33 184.07 169.64
  A 6.29 6.22 -44.7 0 1 184.10 167.14
  Q 186.72 155.17 189.39 143.55
  C 189.82 141.70 189.81 139.89 189.84 138.00
  Q 190.14 117.54 190.33 91.73
  C 190.36 86.53 189.17 82.87 184.39 80.54
  Q 182.23 79.48 175.80 79.62
  Q 169.74 79.76 163.74 79.88
  Q 161.89 79.92 156.51 77.87
  Q 156.03 77.69 155.77 77.25
  Q 148.58 65.28 141.91 54.45
  Q 140.51 52.18 137.59 51.52
  Q 137.07 51.40 137.03 50.87
  C 136.09 40.64 121.17 42.49 122.76 52.66
  Q 122.89 53.50 122.07 53.68
  Q 121.53 53.80 121.24 53.33
  C 118.85 49.39 115.27 47.00 110.56 47.69
  A 0.71 0.71 0.0 0 0 110.12 48.84
  L 117.00 57.18
  Q 117.40 57.68 116.91 58.09
  L 108.89 64.64
  Q 107.29 65.95 109.31 66.41
  Q 111.84 66.98 114.32 66.47
  Q 116.58 66.02 118.25 64.45
  Q 119.04 63.71 119.87 63.14
  Q 122.66 61.21 121.58 64.43
  C 118.82 72.66 131.17 77.49 134.95 69.36
  A 0.25 0.25 0.0 0 1 135.39 69.34
  L 143.57 82.93
  A 1.72 1.71 -5.2 0 0 144.45 83.66
  Q 147.49 84.74 150.72 86.11
  Q 152.75 86.96 155.02 86.71
  Q 160.28 86.11 165.20 85.60
  Q 166.34 85.48 165.28 85.92"
/>
<path stroke="#808080" vector-effect="non-scaling-stroke" d="
  M 182.40 59.27
  A 13.75 13.75 0.0 0 0 168.65 45.52
  A 13.75 13.75 0.0 0 0 154.90 59.27
  A 13.75 13.75 0.0 0 0 168.65 73.02
  A 13.75 13.75 0.0 0 0 182.40 59.27"
/>
<path stroke="#808080" vector-effect="non-scaling-stroke" d="
  M 116.02 99.28
  C 110.30 94.91 108.62 89.73 111.15 83.40
  Q 111.38 82.81 110.80 82.56
  Q 102.92 79.21 96.79 83.87
  C 90.43 88.70 89.96 98.13 95.74 103.55
  C 102.22 109.63 111.57 107.81 116.22 100.35
  Q 116.61 99.73 116.02 99.28"
/>
<path stroke="#808080" vector-effect="non-scaling-stroke" d="
  M 108.34 126.44
  Q 105.93 135.14 103.34 143.67
  Q 102.02 148.00 97.35 148.36
  Q 84.22 149.37 69.07 150.57
  C 65.30 150.87 62.90 154.03 63.50 157.67
  Q 66.01 172.80 68.65 189.70
  C 69.17 193.00 72.07 195.69 75.44 194.94
  C 81.15 193.68 80.76 189.68 79.92 184.73
  Q 78.88 178.59 77.77 171.71
  Q 77.69 171.21 78.12 171.48
  Q 79.48 172.34 81.02 172.35
  A 0.61 0.60 90.0 0 1 81.62 172.96
  L 81.63 201.67
  A 0.30 0.29 -1.0 0 1 81.34 201.96
  Q 75.57 202.09 68.26 201.95
  C 57.95 201.75 57.82 216.06 67.90 216.02
  Q 97.95 215.94 125.79 216.03
  C 129.95 216.05 133.73 213.39 133.48 208.90
  C 133.12 202.41 128.03 201.71 122.50 201.94
  Q 117.50 202.14 112.87 201.96
  Q 112.25 201.94 112.25 201.31
  L 112.25 173.20
  Q 112.25 172.59 112.87 172.59
  Q 114.89 172.59 116.94 172.67
  C 120.42 172.82 123.41 170.85 124.36 167.49
  Q 131.59 141.95 139.91 112.73
  C 142.06 105.18 132.31 100.27 127.79 106.33
  Q 126.61 107.92 125.82 110.78
  Q 118.43 137.38 112.47 158.12
  Q 112.33 158.63 111.80 158.62
  L 108.24 158.62
  Q 107.51 158.62 108.15 158.25
  Q 109.40 157.53 109.63 156.17
  Q 112.47 139.34 115.24 122.11
  C 116.21 116.09 112.14 113.51 106.65 112.78
  Q 101.78 112.13 96.98 111.27
  C 91.32 110.27 88.14 113.66 87.45 118.99
  Q 86.79 124.05 85.95 128.49
  Q 85.83 129.12 86.47 129.09
  L 90.54 128.90
  Q 91.24 128.86 91.73 128.36
  Q 95.29 124.70 98.94 121.45
  Q 99.98 120.52 99.26 121.71
  L 92.41 133.15
  A 1.45 1.44 -75.1 0 1 91.21 133.85
  Q 83.47 133.97 74.69 134.68
  C 68.32 135.19 68.89 144.64 75.79 144.38
  Q 85.09 144.04 95.09 143.52
  A 5.11 5.08 -75.9 0 0 99.19 141.05
  L 108.04 126.31
  Q 108.66 125.28 108.34 126.44"
/>
<path stroke="#808080" vector-effect="non-scaling-stroke" d="
  M 132.23 51.18
  A 2.36 2.36 0.0 0 0 129.87 48.82
  A 2.36 2.36 0.0 0 0 127.51 51.18
  A 2.36 2.36 0.0 0 0 129.87 53.54
  A 2.36 2.36 0.0 0 0 132.23 51.18"
/>
<path stroke="#808080" vector-effect="non-scaling-stroke" d="
  M 128.79 58.25
  C 128.03 58.02 127.24 57.72 126.54 57.77
  Q 125.85 57.82 125.76 58.51
  Q 125.72 58.80 125.92 59.00
  Q 126.23 59.31 126.64 59.31
  Q 128.00 59.32 129.47 59.19
  Q 130.17 59.12 129.62 58.68
  Q 129.26 58.39 128.79 58.25"
/>
<path stroke="#808080" vector-effect="non-scaling-stroke" d="
  M 130.70 66.40
  A 2.35 2.35 0.0 0 0 128.35 64.05
  A 2.35 2.35 0.0 0 0 126.00 66.40
  A 2.35 2.35 0.0 0 0 128.35 68.75
  A 2.35 2.35 0.0 0 0 130.70 66.40"
/>
</g>
<path fill="#ffffff" d="
  M 121.87 0.00
  L 134.24 0.00
  Q 139.11 0.59 143.98 1.21
  Q 176.36 5.33 202.38 23.83
  Q 210.39 29.53 217.65 36.72
  Q 252.51 71.24 256.00 121.88
  L 256.00 133.23
  Q 253.54 178.70 225.15 211.38
  C 184.34 258.36 116.07 270.01 62.30 237.84
  C 28.75 217.78 5.14 182.24 0.96 143.29
  Q 0.45 138.59 0.00 133.87
  L 0.00 122.01
  Q 0.56 117.00 1.19 112.02
  Q 4.67 84.27 19.00 60.86
  Q 24.09 52.55 30.84 44.77
  Q 66.14 4.06 121.87 0.00
  Z
  M 165.28 85.92
  Q 157.77 89.08 150.48 91.73
  A 1.44 1.42 45.3 0 1 149.46 91.72
  Q 136.78 86.80 124.50 82.15
  C 120.53 80.65 116.29 83.63 115.78 87.64
  C 115.40 90.57 117.12 93.61 119.91 94.68
  Q 133.07 99.73 147.00 105.10
  C 148.78 105.78 150.67 106.07 152.44 105.38
  Q 160.62 102.17 170.57 98.33
  Q 171.44 98.00 170.70 98.56
  Q 162.01 105.11 154.18 110.90
  Q 153.63 111.31 152.98 111.59
  Q 152.54 111.78 152.54 112.26
  Q 152.64 125.30 152.92 138.15
  Q 153.00 141.84 152.03 145.49
  Q 149.98 153.28 148.03 160.95
  Q 146.97 165.09 146.94 169.33
  Q 146.82 187.50 146.35 206.90
  C 146.26 210.56 147.65 213.83 151.22 215.29
  C 156.38 217.42 162.26 214.05 162.39 208.30
  Q 162.82 189.54 162.94 171.68
  Q 162.97 167.18 164.01 163.18
  Q 166.56 153.40 169.39 141.94
  Q 169.48 141.56 169.87 141.51
  Q 172.05 141.21 173.16 141.49
  Q 173.40 141.54 173.34 141.78
  L 167.82 166.24
  A 9.26 9.25 -44.3 0 0 167.77 170.07
  Q 171.82 190.10 175.75 209.51
  C 177.85 219.89 193.63 217.08 191.35 205.87
  Q 187.38 186.33 184.07 169.64
  A 6.29 6.22 -44.7 0 1 184.10 167.14
  Q 186.72 155.17 189.39 143.55
  C 189.82 141.70 189.81 139.89 189.84 138.00
  Q 190.14 117.54 190.33 91.73
  C 190.36 86.53 189.17 82.87 184.39 80.54
  Q 182.23 79.48 175.80 79.62
  Q 169.74 79.76 163.74 79.88
  Q 161.89 79.92 156.51 77.87
  Q 156.03 77.69 155.77 77.25
  Q 148.58 65.28 141.91 54.45
  Q 140.51 52.18 137.59 51.52
  Q 137.07 51.40 137.03 50.87
  C 136.09 40.64 121.17 42.49 122.76 52.66
  Q 122.89 53.50 122.07 53.68
  Q 121.53 53.80 121.24 53.33
  C 118.85 49.39 115.27 47.00 110.56 47.69
  A 0.71 0.71 0.0 0 0 110.12 48.84
  L 117.00 57.18
  Q 117.40 57.68 116.91 58.09
  L 108.89 64.64
  Q 107.29 65.95 109.31 66.41
  Q 111.84 66.98 114.32 66.47
  Q 116.58 66.02 118.25 64.45
  Q 119.04 63.71 119.87 63.14
  Q 122.66 61.21 121.58 64.43
  C 118.82 72.66 131.17 77.49 134.95 69.36
  A 0.25 0.25 0.0 0 1 135.39 69.34
  L 143.57 82.93
  A 1.72 1.71 -5.2 0 0 144.45 83.66
  Q 147.49 84.74 150.72 86.11
  Q 152.75 86.96 155.02 86.71
  Q 160.28 86.11 165.20 85.60
  Q 166.34 85.48 165.28 85.92
  Z
  M 182.40 59.27
  A 13.75 13.75 0.0 0 0 168.65 45.52
  A 13.75 13.75 0.0 0 0 154.90 59.27
  A 13.75 13.75 0.0 0 0 168.65 73.02
  A 13.75 13.75 0.0 0 0 182.40 59.27
  Z
  M 116.02 99.28
  C 110.30 94.91 108.62 89.73 111.15 83.40
  Q 111.38 82.81 110.80 82.56
  Q 102.92 79.21 96.79 83.87
  C 90.43 88.70 89.96 98.13 95.74 103.55
  C 102.22 109.63 111.57 107.81 116.22 100.35
  Q 116.61 99.73 116.02 99.28
  Z
  M 108.34 126.44
  Q 105.93 135.14 103.34 143.67
  Q 102.02 148.00 97.35 148.36
  Q 84.22 149.37 69.07 150.57
  C 65.30 150.87 62.90 154.03 63.50 157.67
  Q 66.01 172.80 68.65 189.70
  C 69.17 193.00 72.07 195.69 75.44 194.94
  C 81.15 193.68 80.76 189.68 79.92 184.73
  Q 78.88 178.59 77.77 171.71
  Q 77.69 171.21 78.12 171.48
  Q 79.48 172.34 81.02 172.35
  A 0.61 0.60 90.0 0 1 81.62 172.96
  L 81.63 201.67
  A 0.30 0.29 -1.0 0 1 81.34 201.96
  Q 75.57 202.09 68.26 201.95
  C 57.95 201.75 57.82 216.06 67.90 216.02
  Q 97.95 215.94 125.79 216.03
  C 129.95 216.05 133.73 213.39 133.48 208.90
  C 133.12 202.41 128.03 201.71 122.50 201.94
  Q 117.50 202.14 112.87 201.96
  Q 112.25 201.94 112.25 201.31
  L 112.25 173.20
  Q 112.25 172.59 112.87 172.59
  Q 114.89 172.59 116.94 172.67
  C 120.42 172.82 123.41 170.85 124.36 167.49
  Q 131.59 141.95 139.91 112.73
  C 142.06 105.18 132.31 100.27 127.79 106.33
  Q 126.61 107.92 125.82 110.78
  Q 118.43 137.38 112.47 158.12
  Q 112.33 158.63 111.80 158.62
  L 108.24 158.62
  Q 107.51 158.62 108.15 158.25
  Q 109.40 157.53 109.63 156.17
  Q 112.47 139.34 115.24 122.11
  C 116.21 116.09 112.14 113.51 106.65 112.78
  Q 101.78 112.13 96.98 111.27
  C 91.32 110.27 88.14 113.66 87.45 118.99
  Q 86.79 124.05 85.95 128.49
  Q 85.83 129.12 86.47 129.09
  L 90.54 128.90
  Q 91.24 128.86 91.73 128.36
  Q 95.29 124.70 98.94 121.45
  Q 99.98 120.52 99.26 121.71
  L 92.41 133.15
  A 1.45 1.44 -75.1 0 1 91.21 133.85
  Q 83.47 133.97 74.69 134.68
  C 68.32 135.19 68.89 144.64 75.79 144.38
  Q 85.09 144.04 95.09 143.52
  A 5.11 5.08 -75.9 0 0 99.19 141.05
  L 108.04 126.31
  Q 108.66 125.28 108.34 126.44
  Z"
/>
<path fill="#000000" d="
  M 165.20 85.60
  Q 160.28 86.11 155.02 86.71
  Q 152.75 86.96 150.72 86.11
  Q 147.49 84.74 144.45 83.66
  A 1.72 1.71 -5.2 0 1 143.57 82.93
  L 135.39 69.34
  A 0.25 0.25 0.0 0 0 134.95 69.36
  C 131.17 77.49 118.82 72.66 121.58 64.43
  Q 122.66 61.21 119.87 63.14
  Q 119.04 63.71 118.25 64.45
  Q 116.58 66.02 114.32 66.47
  Q 111.84 66.98 109.31 66.41
  Q 107.29 65.95 108.89 64.64
  L 116.91 58.09
  Q 117.40 57.68 117.00 57.18
  L 110.12 48.84
  A 0.71 0.71 0.0 0 1 110.56 47.69
  C 115.27 47.00 118.85 49.39 121.24 53.33
  Q 121.53 53.80 122.07 53.68
  Q 122.89 53.50 122.76 52.66
  C 121.17 42.49 136.09 40.64 137.03 50.87
  Q 137.07 51.40 137.59 51.52
  Q 140.51 52.18 141.91 54.45
  Q 148.58 65.28 155.77 77.25
  Q 156.03 77.69 156.51 77.87
  Q 161.89 79.92 163.74 79.88
  Q 169.74 79.76 175.80 79.62
  Q 182.23 79.48 184.39 80.54
  C 189.17 82.87 190.36 86.53 190.33 91.73
  Q 190.14 117.54 189.84 138.00
  C 189.81 139.89 189.82 141.70 189.39 143.55
  Q 186.72 155.17 184.10 167.14
  A 6.29 6.22 -44.7 0 0 184.07 169.64
  Q 187.38 186.33 191.35 205.87
  C 193.63 217.08 177.85 219.89 175.75 209.51
  Q 171.82 190.10 167.77 170.07
  A 9.26 9.25 -44.3 0 1 167.82 166.24
  L 173.34 141.78
  Q 173.40 141.54 173.16 141.49
  Q 172.05 141.21 169.87 141.51
  Q 169.48 141.56 169.39 141.94
  Q 166.56 153.40 164.01 163.18
  Q 162.97 167.18 162.94 171.68
  Q 162.82 189.54 162.39 208.30
  C 162.26 214.05 156.38 217.42 151.22 215.29
  C 147.65 213.83 146.26 210.56 146.35 206.90
  Q 146.82 187.50 146.94 169.33
  Q 146.97 165.09 148.03 160.95
  Q 149.98 153.28 152.03 145.49
  Q 153.00 141.84 152.92 138.15
  Q 152.64 125.30 152.54 112.26
  Q 152.54 111.78 152.98 111.59
  Q 153.63 111.31 154.18 110.90
  Q 162.01 105.11 170.70 98.56
  Q 171.44 98.00 170.57 98.33
  Q 160.62 102.17 152.44 105.38
  C 150.67 106.07 148.78 105.78 147.00 105.10
  Q 133.07 99.73 119.91 94.68
  C 117.12 93.61 115.40 90.57 115.78 87.64
  C 116.29 83.63 120.53 80.65 124.50 82.15
  Q 136.78 86.80 149.46 91.72
  A 1.44 1.42 45.3 0 0 150.48 91.73
  Q 157.77 89.08 165.28 85.92
  Q 166.34 85.48 165.20 85.60
  Z
  M 132.23 51.18
  A 2.36 2.36 0.0 0 0 129.87 48.82
  A 2.36 2.36 0.0 0 0 127.51 51.18
  A 2.36 2.36 0.0 0 0 129.87 53.54
  A 2.36 2.36 0.0 0 0 132.23 51.18
  Z
  M 128.79 58.25
  C 128.03 58.02 127.24 57.72 126.54 57.77
  Q 125.85 57.82 125.76 58.51
  Q 125.72 58.80 125.92 59.00
  Q 126.23 59.31 126.64 59.31
  Q 128.00 59.32 129.47 59.19
  Q 130.17 59.12 129.62 58.68
  Q 129.26 58.39 128.79 58.25
  Z
  M 130.70 66.40
  A 2.35 2.35 0.0 0 0 128.35 64.05
  A 2.35 2.35 0.0 0 0 126.00 66.40
  A 2.35 2.35 0.0 0 0 128.35 68.75
  A 2.35 2.35 0.0 0 0 130.70 66.40
  Z"
/>
<circle fill="#000000" cx="168.65" cy="59.27" r="13.75"/>
<circle fill="#ffffff" cx="129.87" cy="51.18" r="2.36"/>
<path fill="#ffffff" d="
  M 128.79 58.25
  Q 129.26 58.39 129.62 58.68
  Q 130.17 59.12 129.47 59.19
  Q 128.00 59.32 126.64 59.31
  Q 126.23 59.31 125.92 59.00
  Q 125.72 58.80 125.76 58.51
  Q 125.85 57.82 126.54 57.77
  C 127.24 57.72 128.03 58.02 128.79 58.25
  Z"
/>
<circle fill="#ffffff" cx="128.35" cy="66.40" r="2.35"/>
<path fill="#000000" d="
  M 111.15 83.40
  C 108.62 89.73 110.30 94.91 116.02 99.28
  Q 116.61 99.73 116.22 100.35
  C 111.57 107.81 102.22 109.63 95.74 103.55
  C 89.96 98.13 90.43 88.70 96.79 83.87
  Q 102.92 79.21 110.80 82.56
  Q 111.38 82.81 111.15 83.40
  Z"
/>
<path fill="#000000" d="
  M 108.04 126.31
  L 99.19 141.05
  A 5.11 5.08 -75.9 0 1 95.09 143.52
  Q 85.09 144.04 75.79 144.38
  C 68.89 144.64 68.32 135.19 74.69 134.68
  Q 83.47 133.97 91.21 133.85
  A 1.45 1.44 -75.1 0 0 92.41 133.15
  L 99.26 121.71
  Q 99.98 120.52 98.94 121.45
  Q 95.29 124.70 91.73 128.36
  Q 91.24 128.86 90.54 128.90
  L 86.47 129.09
  Q 85.83 129.12 85.95 128.49
  Q 86.79 124.05 87.45 118.99
  C 88.14 113.66 91.32 110.27 96.98 111.27
  Q 101.78 112.13 106.65 112.78
  C 112.14 113.51 116.21 116.09 115.24 122.11
  Q 112.47 139.34 109.63 156.17
  Q 109.40 157.53 108.15 158.25
  Q 107.51 158.62 108.24 158.62
  L 111.80 158.62
  Q 112.33 158.63 112.47 158.12
  Q 118.43 137.38 125.82 110.78
  Q 126.61 107.92 127.79 106.33
  C 132.31 100.27 142.06 105.18 139.91 112.73
  Q 131.59 141.95 124.36 167.49
  C 123.41 170.85 120.42 172.82 116.94 172.67
  Q 114.89 172.59 112.87 172.59
  Q 112.25 172.59 112.25 173.20
  L 112.25 201.31
  Q 112.25 201.94 112.87 201.96
  Q 117.50 202.14 122.50 201.94
  C 128.03 201.71 133.12 202.41 133.48 208.90
  C 133.73 213.39 129.95 216.05 125.79 216.03
  Q 97.95 215.94 67.90 216.02
  C 57.82 216.06 57.95 201.75 68.26 201.95
  Q 75.57 202.09 81.34 201.96
  A 0.30 0.29 -1.0 0 0 81.63 201.67
  L 81.62 172.96
  A 0.61 0.60 -90.0 0 0 81.02 172.35
  Q 79.48 172.34 78.12 171.48
  Q 77.69 171.21 77.77 171.71
  Q 78.88 178.59 79.92 184.73
  C 80.76 189.68 81.15 193.68 75.44 194.94
  C 72.07 195.69 69.17 193.00 68.65 189.70
  Q 66.01 172.80 63.50 157.67
  C 62.90 154.03 65.30 150.87 69.07 150.57
  Q 84.22 149.37 97.35 148.36
  Q 102.02 148.00 103.34 143.67
  Q 105.93 135.14 108.34 126.44
  Q 108.66 125.28 108.04 126.31
  Z"
/>
</svg>
