<?xml version="1.0" encoding="UTF-8" standalone="no"?>
<!DOCTYPE svg PUBLIC "-//W3C//DTD SVG 1.1//EN" "http://www.w3.org/Graphics/SVG/1.1/DTD/svg11.dtd">
<svg xmlns="http://www.w3.org/2000/svg" version="1.1" viewBox="0.00 0.00 256.00 360.00">
<g stroke-width="2.00" fill="none" stroke-linecap="butt">
<path stroke="#808080" vector-effect="non-scaling-stroke" d="
  M 88.31 59.79
  A 13.90 13.90 0.0 0 0 74.41 45.89
  A 13.90 13.90 0.0 0 0 60.51 59.79
  A 13.90 13.90 0.0 0 0 74.41 73.69
  A 13.90 13.90 0.0 0 0 88.31 59.79"
/>
<path stroke="#808080" vector-effect="non-scaling-stroke" d="
  M 57.65 102.49
  A 0.06 0.06 0.0 0 1 57.67 102.57
  Q 57.25 103.29 57.25 104.06
  Q 57.26 104.94 58.14 104.96
  L 66.31 105.15
  Q 66.94 105.16 67.08 104.55
  Q 69.57 93.65 80.95 95.29
  Q 81.50 95.37 81.62 94.82
  C 82.31 91.50 85.41 86.71 89.34 86.63
  C 94.90 86.52 94.20 94.07 94.39 97.63
  Q 94.41 97.93 94.71 97.91
  L 102.55 97.42
  Q 102.84 97.40 102.76 97.12
  C 100.30 88.18 96.21 78.52 85.31 78.59
  Q 73.15 78.66 63.03 78.63
  C 55.96 78.61 50.77 83.64 48.49 90.10
  Q 44.77 100.64 40.35 113.00
  C 39.37 115.72 40.48 118.84 42.96 120.29
  Q 44.55 121.21 46.98 121.25
  Q 57.51 121.41 67.85 121.83
  Q 69.93 121.91 71.64 121.16
  C 75.92 119.29 76.35 113.46 72.66 110.71
  Q 70.93 109.41 67.48 109.36
  Q 61.50 109.27 55.60 109.13
  Q 54.84 109.11 55.09 108.39
  L 57.17 102.42
  Q 57.23 102.24 57.40 102.34
  L 57.65 102.49"
/>
<path stroke="#808080" vector-effect="non-scaling-stroke" d="
  M 91.03 101.22
  L 90.35 91.75
  Q 90.15 88.96 88.13 90.88
  L 86.83 92.12
  Q 84.79 94.05 84.98 96.85
  L 85.31 102.00
  A 0.48 0.48 0.0 0 1 84.51 102.40
  C 83.22 101.28 82.24 99.80 80.60 99.18
  C 76.07 97.46 71.60 99.98 70.86 104.82
  Q 70.79 105.31 71.26 105.44
  Q 76.59 106.94 78.55 111.62
  Q 79.10 112.95 80.40 112.33
  Q 83.10 111.05 84.23 108.61
  Q 84.45 108.13 84.97 108.02
  Q 85.52 107.89 85.82 108.37
  A 0.73 0.72 -32.4 0 1 85.59 109.36
  C 78.88 113.67 82.67 123.79 90.44 122.39
  C 97.37 121.14 98.28 112.11 91.97 109.03
  Q 91.45 108.78 91.37 108.22
  A 0.57 0.56 83.3 0 1 91.88 107.57
  L 95.83 107.26
  Q 98.38 107.06 100.40 105.50
  Q 101.65 104.55 102.46 103.05
  Q 103.57 100.99 101.23 101.15
  L 91.72 101.81
  Q 91.08 101.86 91.03 101.22"
/>
<path stroke="#808080" vector-effect="non-scaling-stroke" d="
  M 130.77 198.62
  L 183.88 198.62
  Q 184.55 198.62 184.54 199.29
  Q 184.43 204.74 184.54 210.16
  C 184.59 212.38 186.63 215.01 189.16 214.03
  Q 191.87 212.97 191.87 210.05
  Q 191.87 191.75 191.88 165.61
  Q 191.88 161.41 187.79 161.38
  Q 184.50 161.36 181.01 161.39
  A 0.33 0.33 0.0 0 1 180.70 160.94
  L 185.41 148.77
  Q 185.63 148.19 186.25 148.26
  Q 192.78 148.94 197.03 143.92
  A 1.13 1.10 -69.9 0 1 197.86 143.52
  C 200.41 143.48 204.89 142.99 207.33 144.02
  C 209.82 145.08 212.07 142.96 212.03 140.44
  Q 211.95 135.98 212.03 131.66
  C 212.08 129.06 209.74 127.18 207.27 128.17
  C 204.84 129.13 200.65 128.61 198.04 128.63
  Q 197.54 128.63 197.20 128.26
  C 187.63 117.86 171.33 127.52 176.38 140.87
  A 1.30 1.30 0.0 0 1 176.38 141.83
  Q 172.69 151.34 169.16 160.56
  Q 169.00 160.97 168.65 161.24
  Q 168.38 161.44 168.05 161.46
  A 0.72 0.72 0.0 0 1 167.27 160.74
  Q 167.23 154.40 167.26 147.35
  C 167.27 145.75 165.57 145.38 164.30 145.64
  Q 163.25 145.86 163.25 144.79
  L 163.25 130.50
  Q 163.25 128.75 161.50 128.75
  L 158.94 128.75
  A 1.57 1.56 -89.8 0 0 157.38 130.31
  L 157.35 145.03
  Q 157.34 145.65 156.72 145.67
  L 154.71 145.74
  A 1.21 1.20 89.8 0 0 153.54 146.93
  L 153.30 160.79
  Q 153.29 161.37 152.71 161.38
  L 150.37 161.39
  A 0.65 0.65 0.0 0 1 149.72 160.73
  Q 149.84 152.75 149.61 144.72
  C 149.55 142.61 148.47 141.18 148.42 139.10
  A 1.82 1.81 2.5 0 0 146.79 137.33
  Q 142.37 136.87 138.46 137.30
  A 1.34 1.33 -2.7 0 0 137.27 138.60
  L 137.22 141.00
  Q 137.21 141.46 136.89 141.78
  Q 136.09 142.57 136.07 143.82
  Q 135.94 152.59 136.02 160.89
  Q 136.03 161.40 135.51 161.40
  L 130.75 161.35
  Q 130.25 161.35 130.25 160.85
  Q 130.24 152.26 130.25 143.49
  C 130.25 141.08 128.51 139.47 126.04 139.49
  Q 122.71 139.51 119.56 139.51
  Q 118.94 139.52 118.72 138.93
  L 106.05 105.93
  Q 105.64 104.88 105.01 105.82
  Q 102.83 109.05 99.11 110.35
  Q 98.65 110.51 98.85 110.96
  Q 100.93 115.72 98.75 120.23
  Q 98.48 120.78 98.70 121.35
  Q 102.77 131.70 106.97 142.73
  C 108.53 146.83 111.60 149.49 116.00 147.45
  C 118.01 146.52 120.44 146.89 122.56 146.85
  A 0.31 0.31 0.0 0 1 122.88 147.16
  L 122.88 210.17
  Q 122.88 213.04 125.58 214.00
  C 128.30 214.96 130.28 212.22 130.27 209.80
  Q 130.24 204.11 130.24 199.15
  Q 130.24 198.62 130.77 198.62"
/>
<path stroke="#808080" vector-effect="non-scaling-stroke" d="
  M 91.98 158.15
  L 97.37 158.10
  A 3.76 3.76 0.0 0 0 101.03 153.62
  L 95.47 125.02
  Q 95.36 124.46 94.84 124.69
  Q 84.48 129.33 79.20 119.61
  Q 78.82 118.92 78.54 119.65
  C 76.75 124.31 72.41 126.25 67.44 126.04
  Q 60.02 125.73 53.82 125.63
  Q 53.19 125.62 53.07 126.24
  Q 50.60 139.38 47.87 153.17
  C 46.70 159.09 53.51 158.19 56.85 158.14
  Q 57.25 158.13 57.25 158.53
  Q 57.28 181.92 57.22 206.08
  C 57.20 216.71 72.12 217.09 72.05 205.47
  Q 71.93 183.95 72.02 158.40
  Q 72.02 158.15 72.27 158.15
  L 76.53 158.13
  Q 76.83 158.13 76.83 158.42
  Q 76.91 182.45 76.86 205.76
  C 76.84 217.19 91.61 216.20 91.62 206.75
  Q 91.63 182.65 91.62 158.50
  A 0.36 0.35 0.0 0 1 91.98 158.15"
/>
<path stroke="#808080" vector-effect="non-scaling-stroke" d="
  M 80.13 105.64
  A 2.30 2.30 0.0 0 0 77.83 103.34
  A 2.30 2.30 0.0 0 0 75.53 105.64
  A 2.30 2.30 0.0 0 0 77.83 107.94
  A 2.30 2.30 0.0 0 0 80.13 105.64"
/>
<path stroke="#808080" vector-effect="non-scaling-stroke" d="
  M 91.48 115.51
  A 2.30 2.30 0.0 0 0 89.18 113.21
  A 2.30 2.30 0.0 0 0 86.88 115.51
  A 2.30 2.30 0.0 0 0 89.18 117.81
  A 2.30 2.30 0.0 0 0 91.48 115.51"
/>
<path stroke="#808080" vector-effect="non-scaling-stroke" d="
  M 192.94 136.09
  A 5.26 5.26 0.0 0 0 187.68 130.83
  A 5.26 5.26 0.0 0 0 182.42 136.09
  A 5.26 5.26 0.0 0 0 187.68 141.35
  A 5.26 5.26 0.0 0 0 192.94 136.09"
/>
</g>
<path fill="#ffffff" d="
  M 121.88 0.00
  L 134.24 0.00
  Q 139.11 0.59 143.98 1.21
  Q 175.22 5.17 200.63 22.60
  Q 208.72 28.15 216.12 35.24
  Q 252.59 70.20 256.00 122.37
  L 256.00 133.23
  Q 253.60 177.80 226.17 210.17
  C 199.00 242.24 158.65 259.15 116.71 255.47
  C 91.04 253.21 66.29 243.21 46.41 226.58
  C 21.63 205.86 4.47 176.04 0.96 143.29
  Q 0.45 138.59 0.00 133.87
  L 0.00 122.00
  Q 3.82 67.66 42.90 32.47
  Q 50.53 25.61 58.76 20.34
  Q 83.83 4.31 114.02 0.97
  Q 117.96 0.53 121.88 0.00
  Z
  M 88.31 59.79
  A 13.90 13.90 0.0 0 0 74.41 45.89
  A 13.90 13.90 0.0 0 0 60.51 59.79
  A 13.90 13.90 0.0 0 0 74.41 73.69
  A 13.90 13.90 0.0 0 0 88.31 59.79
  Z
  M 57.65 102.49
  A 0.06 0.06 0.0 0 1 57.67 102.57
  Q 57.25 103.29 57.25 104.06
  Q 57.26 104.94 58.14 104.96
  L 66.31 105.15
  Q 66.94 105.16 67.08 104.55
  Q 69.57 93.65 80.95 95.29
  Q 81.50 95.37 81.62 94.82
  C 82.31 91.50 85.41 86.71 89.34 86.63
  C 94.90 86.52 94.20 94.07 94.39 97.63
  Q 94.41 97.93 94.71 97.91
  L 102.55 97.42
  Q 102.84 97.40 102.76 97.12
  C 100.30 88.18 96.21 78.52 85.31 78.59
  Q 73.15 78.66 63.03 78.63
  C 55.96 78.61 50.77 83.64 48.49 90.10
  Q 44.77 100.64 40.35 113.00
  C 39.37 115.72 40.48 118.84 42.96 120.29
  Q 44.55 121.21 46.98 121.25
  Q 57.51 121.41 67.85 121.83
  Q 69.93 121.91 71.64 121.16
  C 75.92 119.29 76.35 113.46 72.66 110.71
  Q 70.93 109.41 67.48 109.36
  Q 61.50 109.27 55.60 109.13
  Q 54.84 109.11 55.09 108.39
  L 57.17 102.42
  Q 57.23 102.24 57.40 102.34
  L 57.65 102.49
  Z
  M 91.03 101.22
  L 90.35 91.75
  Q 90.15 88.96 88.13 90.88
  L 86.83 92.12
  Q 84.79 94.05 84.98 96.85
  L 85.31 102.00
  A 0.48 0.48 0.0 0 1 84.51 102.40
  C 83.22 101.28 82.24 99.80 80.60 99.18
  C 76.07 97.46 71.60 99.98 70.86 104.82
  Q 70.79 105.31 71.26 105.44
  Q 76.59 106.94 78.55 111.62
  Q 79.10 112.95 80.40 112.33
  Q 83.10 111.05 84.23 108.61
  Q 84.45 108.13 84.97 108.02
  Q 85.52 107.89 85.82 108.37
  A 0.73 0.72 -32.4 0 1 85.59 109.36
  C 78.88 113.67 82.67 123.79 90.44 122.39
  C 97.37 121.14 98.28 112.11 91.97 109.03
  Q 91.45 108.78 91.37 108.22
  A 0.57 0.56 83.3 0 1 91.88 107.57
  L 95.83 107.26
  Q 98.38 107.06 100.40 105.50
  Q 101.65 104.55 102.46 103.05
  Q 103.57 100.99 101.23 101.15
  L 91.72 101.81
  Q 91.08 101.86 91.03 101.22
  Z
  M 130.77 198.62
  L 183.88 198.62
  Q 184.55 198.62 184.54 199.29
  Q 184.43 204.74 184.54 210.16
  C 184.59 212.38 186.63 215.01 189.16 214.03
  Q 191.87 212.97 191.87 210.05
  Q 191.87 191.75 191.88 165.61
  Q 191.88 161.41 187.79 161.38
  Q 184.50 161.36 181.01 161.39
  A 0.33 0.33 0.0 0 1 180.70 160.94
  L 185.41 148.77
  Q 185.63 148.19 186.25 148.26
  Q 192.78 148.94 197.03 143.92
  A 1.13 1.10 -69.9 0 1 197.86 143.52
  C 200.41 143.48 204.89 142.99 207.33 144.02
  C 209.82 145.08 212.07 142.96 212.03 140.44
  Q 211.95 135.98 212.03 131.66
  C 212.08 129.06 209.74 127.18 207.27 128.17
  C 204.84 129.13 200.65 128.61 198.04 128.63
  Q 197.54 128.63 197.20 128.26
  C 187.63 117.86 171.33 127.52 176.38 140.87
  A 1.30 1.30 0.0 0 1 176.38 141.83
  Q 172.69 151.34 169.16 160.56
  Q 169.00 160.97 168.65 161.24
  Q 168.38 161.44 168.05 161.46
  A 0.72 0.72 0.0 0 1 167.27 160.74
  Q 167.23 154.40 167.26 147.35
  C 167.27 145.75 165.57 145.38 164.30 145.64
  Q 163.25 145.86 163.25 144.79
  L 163.25 130.50
  Q 163.25 128.75 161.50 128.75
  L 158.94 128.75
  A 1.57 1.56 -89.8 0 0 157.38 130.31
  L 157.35 145.03
  Q 157.34 145.65 156.72 145.67
  L 154.71 145.74
  A 1.21 1.20 89.8 0 0 153.54 146.93
  L 153.30 160.79
  Q 153.29 161.37 152.71 161.38
  L 150.37 161.39
  A 0.65 0.65 0.0 0 1 149.72 160.73
  Q 149.84 152.75 149.61 144.72
  C 149.55 142.61 148.47 141.18 148.42 139.10
  A 1.82 1.81 2.5 0 0 146.79 137.33
  Q 142.37 136.87 138.46 137.30
  A 1.34 1.33 -2.7 0 0 137.27 138.60
  L 137.22 141.00
  Q 137.21 141.46 136.89 141.78
  Q 136.09 142.57 136.07 143.82
  Q 135.94 152.59 136.02 160.89
  Q 136.03 161.40 135.51 161.40
  L 130.75 161.35
  Q 130.25 161.35 130.25 160.85
  Q 130.24 152.26 130.25 143.49
  C 130.25 141.08 128.51 139.47 126.04 139.49
  Q 122.71 139.51 119.56 139.51
  Q 118.94 139.52 118.72 138.93
  L 106.05 105.93
  Q 105.64 104.88 105.01 105.82
  Q 102.83 109.05 99.11 110.35
  Q 98.65 110.51 98.85 110.96
  Q 100.93 115.72 98.75 120.23
  Q 98.48 120.78 98.70 121.35
  Q 102.77 131.70 106.97 142.73
  C 108.53 146.83 111.60 149.49 116.00 147.45
  C 118.01 146.52 120.44 146.89 122.56 146.85
  A 0.31 0.31 0.0 0 1 122.88 147.16
  L 122.88 210.17
  Q 122.88 213.04 125.58 214.00
  C 128.30 214.96 130.28 212.22 130.27 209.80
  Q 130.24 204.11 130.24 199.15
  Q 130.24 198.62 130.77 198.62
  Z
  M 91.98 158.15
  L 97.37 158.10
  A 3.76 3.76 0.0 0 0 101.03 153.62
  L 95.47 125.02
  Q 95.36 124.46 94.84 124.69
  Q 84.48 129.33 79.20 119.61
  Q 78.82 118.92 78.54 119.65
  C 76.75 124.31 72.41 126.25 67.44 126.04
  Q 60.02 125.73 53.82 125.63
  Q 53.19 125.62 53.07 126.24
  Q 50.60 139.38 47.87 153.17
  C 46.70 159.09 53.51 158.19 56.85 158.14
  Q 57.25 158.13 57.25 158.53
  Q 57.28 181.92 57.22 206.08
  C 57.20 216.71 72.12 217.09 72.05 205.47
  Q 71.93 183.95 72.02 158.40
  Q 72.02 158.15 72.27 158.15
  L 76.53 158.13
  Q 76.83 158.13 76.83 158.42
  Q 76.91 182.45 76.86 205.76
  C 76.84 217.19 91.61 216.20 91.62 206.75
  Q 91.63 182.65 91.62 158.50
  A 0.36 0.35 0.0 0 1 91.98 158.15
  Z"
/>
<circle fill="#000000" cx="74.41" cy="59.79" r="13.90"/>
<path fill="#000000" d="
  M 57.17 102.42
  L 55.09 108.39
  Q 54.84 109.11 55.60 109.13
  Q 61.50 109.27 67.48 109.36
  Q 70.93 109.41 72.66 110.71
  C 76.35 113.46 75.92 119.29 71.64 121.16
  Q 69.93 121.91 67.85 121.83
  Q 57.51 121.41 46.98 121.25
  Q 44.55 121.21 42.96 120.29
  C 40.48 118.84 39.37 115.72 40.35 113.00
  Q 44.77 100.64 48.49 90.10
  C 50.77 83.64 55.96 78.61 63.03 78.63
  Q 73.15 78.66 85.31 78.59
  C 96.21 78.52 100.30 88.18 102.76 97.12
  Q 102.84 97.40 102.55 97.42
  L 94.71 97.91
  Q 94.41 97.93 94.39 97.63
  C 94.20 94.07 94.90 86.52 89.34 86.63
  C 85.41 86.71 82.31 91.50 81.62 94.82
  Q 81.50 95.37 80.95 95.29
  Q 69.57 93.65 67.08 104.55
  Q 66.94 105.16 66.31 105.15
  L 58.14 104.96
  Q 57.26 104.94 57.25 104.06
  Q 57.25 103.29 57.67 102.57
  A 0.06 0.06 0.0 0 0 57.65 102.49
  L 57.40 102.34
  Q 57.23 102.24 57.17 102.42
  Z"
/>
<path fill="#000000" d="
  M 91.72 101.81
  L 101.23 101.15
  Q 103.57 100.99 102.46 103.05
  Q 101.65 104.55 100.40 105.50
  Q 98.38 107.06 95.83 107.26
  L 91.88 107.57
  A 0.57 0.56 83.3 0 0 91.37 108.22
  Q 91.45 108.78 91.97 109.03
  C 98.28 112.11 97.37 121.14 90.44 122.39
  C 82.67 123.79 78.88 113.67 85.59 109.36
  A 0.73 0.72 -32.4 0 0 85.82 108.37
  Q 85.52 107.89 84.97 108.02
  Q 84.45 108.13 84.23 108.61
  Q 83.10 111.05 80.40 112.33
  Q 79.10 112.95 78.55 111.62
  Q 76.59 106.94 71.26 105.44
  Q 70.79 105.31 70.86 104.82
  C 71.60 99.98 76.07 97.46 80.60 99.18
  C 82.24 99.80 83.22 101.28 84.51 102.40
  A 0.48 0.48 0.0 0 0 85.31 102.00
  L 84.98 96.85
  Q 84.79 94.05 86.83 92.12
  L 88.13 90.88
  Q 90.15 88.96 90.35 91.75
  L 91.03 101.22
  Q 91.08 101.86 91.72 101.81
  Z
  M 80.13 105.64
  A 2.30 2.30 0.0 0 0 77.83 103.34
  A 2.30 2.30 0.0 0 0 75.53 105.64
  A 2.30 2.30 0.0 0 0 77.83 107.94
  A 2.30 2.30 0.0 0 0 80.13 105.64
  Z
  M 91.48 115.51
  A 2.30 2.30 0.0 0 0 89.18 113.21
  A 2.30 2.30 0.0 0 0 86.88 115.51
  A 2.30 2.30 0.0 0 0 89.18 117.81
  A 2.30 2.30 0.0 0 0 91.48 115.51
  Z"
/>
<circle fill="#ffffff" cx="77.83" cy="105.64" r="2.30"/>
<path fill="#000000" d="
  M 130.24 199.15
  Q 130.24 204.11 130.27 209.80
  C 130.28 212.22 128.30 214.96 125.58 214.00
  Q 122.88 213.04 122.88 210.17
  L 122.88 147.16
  A 0.31 0.31 0.0 0 0 122.56 146.85
  C 120.44 146.89 118.01 146.52 116.00 147.45
  C 111.60 149.49 108.53 146.83 106.97 142.73
  Q 102.77 131.70 98.70 121.35
  Q 98.48 120.78 98.75 120.23
  Q 100.93 115.72 98.85 110.96
  Q 98.65 110.51 99.11 110.35
  Q 102.83 109.05 105.01 105.82
  Q 105.64 104.88 106.05 105.93
  L 118.72 138.93
  Q 118.94 139.52 119.56 139.51
  Q 122.71 139.51 126.04 139.49
  C 128.51 139.47 130.25 141.08 130.25 143.49
  Q 130.24 152.26 130.25 160.85
  Q 130.25 161.35 130.75 161.35
  L 135.51 161.40
  Q 136.03 161.40 136.02 160.89
  Q 135.94 152.59 136.07 143.82
  Q 136.09 142.57 136.89 141.78
  Q 137.21 141.46 137.22 141.00
  L 137.27 138.60
  A 1.34 1.33 -2.7 0 1 138.46 137.30
  Q 142.37 136.87 146.79 137.33
  A 1.82 1.81 2.5 0 1 148.42 139.10
  C 148.47 141.18 149.55 142.61 149.61 144.72
  Q 149.84 152.75 149.72 160.73
  A 0.65 0.65 0.0 0 0 150.37 161.39
  L 152.71 161.38
  Q 153.29 161.37 153.30 160.79
  L 153.54 146.93
  A 1.21 1.20 89.8 0 1 154.71 145.74
  L 156.72 145.67
  Q 157.34 145.65 157.35 145.03
  L 157.38 130.31
  A 1.57 1.56 -89.8 0 1 158.94 128.75
  L 161.50 128.75
  Q 163.25 128.75 163.25 130.50
  L 163.25 144.79
  Q 163.25 145.86 164.30 145.64
  C 165.57 145.38 167.27 145.75 167.26 147.35
  Q 167.23 154.40 167.27 160.74
  A 0.72 0.72 0.0 0 0 168.05 161.46
  Q 168.38 161.44 168.65 161.24
  Q 169.00 160.97 169.16 160.56
  Q 172.69 151.34 176.38 141.83
  A 1.30 1.30 0.0 0 0 176.38 140.87
  C 171.33 127.52 187.63 117.86 197.20 128.26
  Q 197.54 128.63 198.04 128.63
  C 200.65 128.61 204.84 129.13 207.27 128.17
  C 209.74 127.18 212.08 129.06 212.03 131.66
  Q 211.95 135.98 212.03 140.44
  C 212.07 142.96 209.82 145.08 207.33 144.02
  C 204.89 142.99 200.41 143.48 197.86 143.52
  A 1.13 1.10 -69.9 0 0 197.03 143.92
  Q 192.78 148.94 186.25 148.26
  Q 185.63 148.19 185.41 148.77
  L 180.70 160.94
  A 0.33 0.33 0.0 0 0 181.01 161.39
  Q 184.50 161.36 187.79 161.38
  Q 191.88 161.41 191.88 165.61
  Q 191.87 191.75 191.87 210.05
  Q 191.87 212.97 189.16 214.03
  C 186.63 215.01 184.59 212.38 184.54 210.16
  Q 184.43 204.74 184.54 199.29
  Q 184.55 198.62 183.88 198.62
  L 130.77 198.62
  Q 130.24 198.62 130.24 199.15
  Z
  M 192.94 136.09
  A 5.26 5.26 0.0 0 0 187.68 130.83
  A 5.26 5.26 0.0 0 0 182.42 136.09
  A 5.26 5.26 0.0 0 0 187.68 141.35
  A 5.26 5.26 0.0 0 0 192.94 136.09
  Z"
/>
<circle fill="#ffffff" cx="89.18" cy="115.51" r="2.30"/>
<path fill="#000000" d="
  M 91.98 158.15
  A 0.36 0.35 -0.0 0 0 91.62 158.50
  Q 91.63 182.65 91.62 206.75
  C 91.61 216.20 76.84 217.19 76.86 205.76
  Q 76.91 182.45 76.83 158.42
  Q 76.83 158.13 76.53 158.13
  L 72.27 158.15
  Q 72.02 158.15 72.02 158.40
  Q 71.93 183.95 72.05 205.47
  C 72.12 217.09 57.20 216.71 57.22 206.08
  Q 57.28 181.92 57.25 158.53
  Q 57.25 158.13 56.85 158.14
  C 53.51 158.19 46.70 159.09 47.87 153.17
  Q 50.60 139.38 53.07 126.24
  Q 53.19 125.62 53.82 125.63
  Q 60.02 125.73 67.44 126.04
  C 72.41 126.25 76.75 124.31 78.54 119.65
  Q 78.82 118.92 79.20 119.61
  Q 84.48 129.33 94.84 124.69
  Q 95.36 124.46 95.47 125.02
  L 101.03 153.62
  A 3.76 3.76 0.0 0 1 97.37 158.10
  L 91.98 158.15
  Z"
/>
<circle fill="#ffffff" cx="187.68" cy="136.09" r="5.26"/>
</svg>
