<?xml version="1.0" encoding="UTF-8" standalone="no"?>
<!DOCTYPE svg PUBLIC "-//W3C//DTD SVG 1.1//EN" "http://www.w3.org/Graphics/SVG/1.1/DTD/svg11.dtd">
<svg xmlns="http://www.w3.org/2000/svg" version="1.1" viewBox="0.00 0.00 256.00 360.00">
<g stroke-width="2.00" fill="none" stroke-linecap="butt">
<path stroke="#808080" vector-effect="non-scaling-stroke" d="
  M 120.87 58.30
  A 14.30 14.30 0.0 0 0 106.57 44.00
  A 14.30 14.30 0.0 0 0 92.27 58.30
  A 14.30 14.30 0.0 0 0 106.57 72.60
  A 14.30 14.30 0.0 0 0 120.87 58.30"
/>
<path stroke="#808080" vector-effect="non-scaling-stroke" d="
  M 101.54 85.87
  L 112.43 89.38
  Q 113.22 89.64 114.04 89.51
  Q 127.89 87.36 143.05 85.02
  C 143.86 84.89 144.70 85.10 145.49 85.20
  Q 146.05 85.28 146.40 84.83
  Q 158.45 69.85 176.13 78.82
  Q 176.71 79.11 176.98 78.51
  Q 179.54 72.67 175.02 69.13
  C 173.33 67.81 170.86 67.44 168.84 68.16
  Q 153.90 73.51 139.36 78.95
  Q 136.69 79.95 133.89 79.92
  C 123.21 79.84 112.41 80.31 101.80 79.45
  Q 94.64 78.88 87.84 78.20
  Q 84.83 77.90 82.49 78.49
  C 77.78 79.67 74.94 83.63 74.64 88.48
  Q 73.17 112.43 71.55 137.22
  Q 71.26 141.63 72.01 146.21
  Q 73.79 157.09 75.55 168.75
  Q 75.80 170.40 75.40 171.84
  Q 70.43 190.07 65.13 209.29
  C 62.98 217.09 71.37 222.82 77.97 218.40
  Q 80.37 216.80 81.10 214.13
  Q 86.86 193.22 92.22 173.68
  Q 92.88 171.25 92.42 168.39
  Q 90.34 155.58 88.55 143.41
  Q 88.43 142.61 89.23 142.71
  L 90.75 142.89
  Q 91.53 142.98 91.81 143.72
  L 101.53 170.22
  Q 101.70 170.68 101.60 171.17
  Q 97.39 191.02 93.41 209.76
  C 91.63 218.14 101.69 223.41 107.57 217.47
  Q 109.35 215.67 110.39 210.53
  Q 113.96 192.83 117.81 175.23
  C 118.45 172.33 119.15 169.88 118.10 166.99
  Q 114.52 157.06 110.50 146.39
  Q 109.74 144.37 109.94 142.19
  Q 111.09 129.15 112.06 116.66
  Q 112.10 116.15 111.59 116.09
  Q 108.17 115.67 106.46 113.73
  Q 99.55 105.88 92.93 98.02
  Q 92.08 97.01 93.19 97.73
  Q 100.84 102.68 109.18 108.29
  C 110.84 109.41 112.51 109.85 114.43 109.55
  Q 128.53 107.37 144.76 104.84
  C 154.15 103.38 151.79 89.64 142.54 91.10
  Q 128.11 93.38 115.47 95.33
  A 1.53 1.51 -32.0 0 1 114.39 95.09
  L 101.30 86.37
  Q 99.59 85.24 101.54 85.87"
/>
<path stroke="#808080" vector-effect="non-scaling-stroke" d="
  M 169.45 84.37
  Q 160.58 80.78 153.49 88.45
  Q 153.10 88.87 153.46 89.32
  Q 159.67 97.02 154.28 105.67
  A 0.50 0.48 -52.3 0 0 154.35 106.28
  C 165.28 116.88 182.31 105.68 176.78 91.72
  Q 174.70 86.49 169.45 84.37"
/>
<path stroke="#808080" vector-effect="non-scaling-stroke" d="
  M 159.71 127.96
  L 166.06 140.43
  A 1.52 1.49 -2.4 0 0 166.87 141.16
  L 171.98 143.12
  Q 172.65 143.38 172.76 142.67
  Q 173.72 136.40 174.94 129.21
  C 176.11 122.35 171.78 118.40 165.23 117.62
  Q 159.52 116.93 153.91 115.76
  C 149.57 114.85 145.66 115.03 142.58 118.71
  Q 140.96 120.64 140.52 123.37
  Q 136.83 146.21 134.14 165.78
  Q 133.55 170.15 135.66 173.35
  Q 136.01 173.87 135.38 173.88
  C 130.25 173.98 121.83 172.16 121.85 180.27
  Q 121.91 198.04 121.88 214.39
  C 121.87 218.95 126.97 221.24 130.71 219.11
  Q 133.51 217.52 133.51 214.28
  Q 133.51 209.78 133.48 205.04
  Q 133.48 204.50 134.02 204.50
  L 156.23 204.50
  Q 156.73 204.50 156.74 205.00
  Q 156.82 209.01 156.70 213.15
  C 156.43 222.24 168.52 222.19 168.50 213.61
  Q 168.46 196.25 168.53 178.38
  Q 168.53 178.14 168.78 178.15
  L 174.93 178.56
  Q 175.22 178.58 175.18 178.88
  Q 172.70 194.51 170.18 210.11
  Q 169.81 212.37 170.07 214.09
  C 171.02 220.39 179.44 221.85 183.09 217.19
  Q 184.37 215.54 184.83 212.56
  Q 187.74 193.37 190.97 174.50
  C 191.72 170.11 190.28 165.90 185.67 164.70
  Q 185.18 164.58 185.51 164.18
  C 188.96 160.02 187.07 155.48 182.40 153.74
  Q 172.40 150.02 163.94 146.62
  A 1.03 1.02 -85.6 0 1 163.33 145.90
  L 159.40 128.07
  Q 159.12 126.81 159.71 127.96"
/>
<path stroke="#808080" vector-effect="non-scaling-stroke" d="
  M 157.16 157.25
  C 154.54 156.25 152.71 155.07 152.11 152.34
  Q 149.94 142.52 147.83 132.59
  Q 147.76 132.25 147.81 131.91
  Q 147.87 131.47 147.74 131.02
  Q 147.49 130.21 147.33 131.04
  Q 147.03 132.55 146.96 134.05
  Q 146.51 143.52 146.10 153.22
  Q 145.91 157.78 148.60 160.16
  Q 150.42 161.77 155.03 162.24
  Q 164.21 163.17 172.50 163.62
  Q 173.67 163.68 172.58 163.25
  Q 164.68 160.11 157.16 157.25"
/>
<path stroke="#808080" vector-effect="non-scaling-stroke" d="
  M 156.74 185.97
  A 0.34 0.34 0.0 0 0 156.40 185.63
  L 133.84 185.63
  A 0.34 0.34 0.0 0 0 133.50 185.97
  L 133.50 196.41
  A 0.34 0.34 0.0 0 0 133.84 196.75
  L 156.40 196.75
  A 0.34 0.34 0.0 0 0 156.74 196.41
  L 156.74 185.97"
/>
</g>
<path fill="#ffffff" d="
  M 121.87 0.00
  L 134.24 0.00
  Q 139.11 0.59 143.98 1.21
  Q 176.36 5.33 202.38 23.83
  Q 210.39 29.53 217.65 36.72
  Q 252.51 71.24 256.00 121.88
  L 256.00 133.23
  Q 253.53 178.79 225.15 211.39
  C 184.58 257.97 117.58 269.76 63.68 238.67
  C 29.44 218.92 5.17 182.62 0.96 143.29
  Q 0.45 138.59 0.00 133.87
  L 0.00 122.01
  Q 0.56 117.00 1.19 112.02
  Q 4.67 84.27 19.00 60.86
  Q 24.09 52.55 30.84 44.77
  Q 66.14 4.06 121.87 0.00
  Z
  M 120.87 58.30
  A 14.30 14.30 0.0 0 0 106.57 44.00
  A 14.30 14.30 0.0 0 0 92.27 58.30
  A 14.30 14.30 0.0 0 0 106.57 72.60
  A 14.30 14.30 0.0 0 0 120.87 58.30
  Z
  M 101.54 85.87
  L 112.43 89.38
  Q 113.22 89.64 114.04 89.51
  Q 127.89 87.36 143.05 85.02
  C 143.86 84.89 144.70 85.10 145.49 85.20
  Q 146.05 85.28 146.40 84.83
  Q 158.45 69.85 176.13 78.82
  Q 176.71 79.11 176.98 78.51
  Q 179.54 72.67 175.02 69.13
  C 173.33 67.81 170.86 67.44 168.84 68.16
  Q 153.90 73.51 139.36 78.95
  Q 136.69 79.95 133.89 79.92
  C 123.21 79.84 112.41 80.31 101.80 79.45
  Q 94.64 78.88 87.84 78.20
  Q 84.83 77.90 82.49 78.49
  C 77.78 79.67 74.94 83.63 74.64 88.48
  Q 73.17 112.43 71.55 137.22
  Q 71.26 141.63 72.01 146.21
  Q 73.79 157.09 75.55 168.75
  Q 75.80 170.40 75.40 171.84
  Q 70.43 190.07 65.13 209.29
  C 62.98 217.09 71.37 222.82 77.97 218.40
  Q 80.37 216.80 81.10 214.13
  Q 86.86 193.22 92.22 173.68
  Q 92.88 171.25 92.42 168.39
  Q 90.34 155.58 88.55 143.41
  Q 88.43 142.61 89.23 142.71
  L 90.75 142.89
  Q 91.53 142.98 91.81 143.72
  L 101.53 170.22
  Q 101.70 170.68 101.60 171.17
  Q 97.39 191.02 93.41 209.76
  C 91.63 218.14 101.69 223.41 107.57 217.47
  Q 109.35 215.67 110.39 210.53
  Q 113.96 192.83 117.81 175.23
  C 118.45 172.33 119.15 169.88 118.10 166.99
  Q 114.52 157.06 110.50 146.39
  Q 109.74 144.37 109.94 142.19
  Q 111.09 129.15 112.06 116.66
  Q 112.10 116.15 111.59 116.09
  Q 108.17 115.67 106.46 113.73
  Q 99.55 105.88 92.93 98.02
  Q 92.08 97.01 93.19 97.73
  Q 100.84 102.68 109.18 108.29
  C 110.84 109.41 112.51 109.85 114.43 109.55
  Q 128.53 107.37 144.76 104.84
  C 154.15 103.38 151.79 89.64 142.54 91.10
  Q 128.11 93.38 115.47 95.33
  A 1.53 1.51 -32.0 0 1 114.39 95.09
  L 101.30 86.37
  Q 99.59 85.24 101.54 85.87
  Z
  M 169.45 84.37
  Q 160.58 80.78 153.49 88.45
  Q 153.10 88.87 153.46 89.32
  Q 159.67 97.02 154.28 105.67
  A 0.50 0.48 -52.3 0 0 154.35 106.28
  C 165.28 116.88 182.31 105.68 176.78 91.72
  Q 174.70 86.49 169.45 84.37
  Z
  M 159.71 127.96
  L 166.06 140.43
  A 1.52 1.49 -2.4 0 0 166.87 141.16
  L 171.98 143.12
  Q 172.65 143.38 172.76 142.67
  Q 173.72 136.40 174.94 129.21
  C 176.11 122.35 171.78 118.40 165.23 117.62
  Q 159.52 116.93 153.91 115.76
  C 149.57 114.85 145.66 115.03 142.58 118.71
  Q 140.96 120.64 140.52 123.37
  Q 136.83 146.21 134.14 165.78
  Q 133.55 170.15 135.66 173.35
  Q 136.01 173.87 135.38 173.88
  C 130.25 173.98 121.83 172.16 121.85 180.27
  Q 121.91 198.04 121.88 214.39
  C 121.87 218.95 126.97 221.24 130.71 219.11
  Q 133.51 217.52 133.51 214.28
  Q 133.51 209.78 133.48 205.04
  Q 133.48 204.50 134.02 204.50
  L 156.23 204.50
  Q 156.73 204.50 156.74 205.00
  Q 156.82 209.01 156.70 213.15
  C 156.43 222.24 168.52 222.19 168.50 213.61
  Q 168.46 196.25 168.53 178.38
  Q 168.53 178.14 168.78 178.15
  L 174.93 178.56
  Q 175.22 178.58 175.18 178.88
  Q 172.70 194.51 170.18 210.11
  Q 169.81 212.37 170.07 214.09
  C 171.02 220.39 179.44 221.85 183.09 217.19
  Q 184.37 215.54 184.83 212.56
  Q 187.74 193.37 190.97 174.50
  C 191.72 170.11 190.28 165.90 185.67 164.70
  Q 185.18 164.58 185.51 164.18
  C 188.96 160.02 187.07 155.48 182.40 153.74
  Q 172.40 150.02 163.94 146.62
  A 1.03 1.02 -85.6 0 1 163.33 145.90
  L 159.40 128.07
  Q 159.12 126.81 159.71 127.96
  Z"
/>
<circle fill="#000000" cx="106.57" cy="58.30" r="14.30"/>
<path fill="#000000" d="
  M 101.54 85.87
  Q 99.59 85.24 101.30 86.37
  L 114.39 95.09
  A 1.53 1.51 -32.0 0 0 115.47 95.33
  Q 128.11 93.38 142.54 91.10
  C 151.79 89.64 154.15 103.38 144.76 104.84
  Q 128.53 107.37 114.43 109.55
  C 112.51 109.85 110.84 109.41 109.18 108.29
  Q 100.84 102.68 93.19 97.73
  Q 92.08 97.01 92.93 98.02
  Q 99.55 105.88 106.46 113.73
  Q 108.17 115.67 111.59 116.09
  Q 112.10 116.15 112.06 116.66
  Q 111.09 129.15 109.94 142.19
  Q 109.74 144.37 110.50 146.39
  Q 114.52 157.06 118.10 166.99
  C 119.15 169.88 118.45 172.33 117.81 175.23
  Q 113.96 192.83 110.39 210.53
  Q 109.35 215.67 107.57 217.47
  C 101.69 223.41 91.63 218.14 93.41 209.76
  Q 97.39 191.02 101.60 171.17
  Q 101.70 170.68 101.53 170.22
  L 91.81 143.72
  Q 91.53 142.98 90.75 142.89
  L 89.23 142.71
  Q 88.43 142.61 88.55 143.41
  Q 90.34 155.58 92.42 168.39
  Q 92.88 171.25 92.22 173.68
  Q 86.86 193.22 81.10 214.13
  Q 80.37 216.80 77.97 218.40
  C 71.37 222.82 62.98 217.09 65.13 209.29
  Q 70.43 190.07 75.40 171.84
  Q 75.80 170.40 75.55 168.75
  Q 73.79 157.09 72.01 146.21
  Q 71.26 141.63 71.55 137.22
  Q 73.17 112.43 74.64 88.48
  C 74.94 83.63 77.78 79.67 82.49 78.49
  Q 84.83 77.90 87.84 78.20
  Q 94.64 78.88 101.80 79.45
  C 112.41 80.31 123.21 79.84 133.89 79.92
  Q 136.69 79.95 139.36 78.95
  Q 153.90 73.51 168.84 68.16
  C 170.86 67.44 173.33 67.81 175.02 69.13
  Q 179.54 72.67 176.98 78.51
  Q 176.71 79.11 176.13 78.82
  Q 158.45 69.85 146.40 84.83
  Q 146.05 85.28 145.49 85.20
  C 144.70 85.10 143.86 84.89 143.05 85.02
  Q 127.89 87.36 114.04 89.51
  Q 113.22 89.64 112.43 89.38
  L 101.54 85.87
  Z"
/>
<path fill="#000000" d="
  M 169.45 84.37
  Q 174.70 86.49 176.78 91.72
  C 182.31 105.68 165.28 116.88 154.35 106.28
  A 0.50 0.48 -52.3 0 1 154.28 105.67
  Q 159.67 97.02 153.46 89.32
  Q 153.10 88.87 153.49 88.45
  Q 160.58 80.78 169.45 84.37
  Z"
/>
<path fill="#000000" d="
  M 159.40 128.07
  L 163.33 145.90
  A 1.03 1.02 -85.6 0 0 163.94 146.62
  Q 172.40 150.02 182.40 153.74
  C 187.07 155.48 188.96 160.02 185.51 164.18
  Q 185.18 164.58 185.67 164.70
  C 190.28 165.90 191.72 170.11 190.97 174.50
  Q 187.74 193.37 184.83 212.56
  Q 184.37 215.54 183.09 217.19
  C 179.44 221.85 171.02 220.39 170.07 214.09
  Q 169.81 212.37 170.18 210.11
  Q 172.70 194.51 175.18 178.88
  Q 175.22 178.58 174.93 178.56
  L 168.78 178.15
  Q 168.53 178.14 168.53 178.38
  Q 168.46 196.25 168.50 213.61
  C 168.52 222.19 156.43 222.24 156.70 213.15
  Q 156.82 209.01 156.74 205.00
  Q 156.73 204.50 156.23 204.50
  L 134.02 204.50
  Q 133.48 204.50 133.48 205.04
  Q 133.51 209.78 133.51 214.28
  Q 133.51 217.52 130.71 219.11
  C 126.97 221.24 121.87 218.95 121.88 214.39
  Q 121.91 198.04 121.85 180.27
  C 121.83 172.16 130.25 173.98 135.38 173.88
  Q 136.01 173.87 135.66 173.35
  Q 133.55 170.15 134.14 165.78
  Q 136.83 146.21 140.52 123.37
  Q 140.96 120.64 142.58 118.71
  C 145.66 115.03 149.57 114.85 153.91 115.76
  Q 159.52 116.93 165.23 117.62
  C 171.78 118.40 176.11 122.35 174.94 129.21
  Q 173.72 136.40 172.76 142.67
  Q 172.65 143.38 171.98 143.12
  L 166.87 141.16
  A 1.52 1.49 -2.4 0 1 166.06 140.43
  L 159.71 127.96
  Q 159.12 126.81 159.40 128.07
  Z
  M 157.16 157.25
  C 154.54 156.25 152.71 155.07 152.11 152.34
  Q 149.94 142.52 147.83 132.59
  Q 147.76 132.25 147.81 131.91
  Q 147.87 131.47 147.74 131.02
  Q 147.49 130.21 147.33 131.04
  Q 147.03 132.55 146.96 134.05
  Q 146.51 143.52 146.10 153.22
  Q 145.91 157.78 148.60 160.16
  Q 150.42 161.77 155.03 162.24
  Q 164.21 163.17 172.50 163.62
  Q 173.67 163.68 172.58 163.25
  Q 164.68 160.11 157.16 157.25
  Z
  M 156.74 185.97
  A 0.34 0.34 0.0 0 0 156.40 185.63
  L 133.84 185.63
  A 0.34 0.34 0.0 0 0 133.50 185.97
  L 133.50 196.41
  A 0.34 0.34 0.0 0 0 133.84 196.75
  L 156.40 196.75
  A 0.34 0.34 0.0 0 0 156.74 196.41
  L 156.74 185.97
  Z"
/>
<path fill="#ffffff" d="
  M 157.16 157.25
  Q 164.68 160.11 172.58 163.25
  Q 173.67 163.68 172.50 163.62
  Q 164.21 163.17 155.03 162.24
  Q 150.42 161.77 148.60 160.16
  Q 145.91 157.78 146.10 153.22
  Q 146.51 143.52 146.96 134.05
  Q 147.03 132.55 147.33 131.04
  Q 147.49 130.21 147.74 131.02
  Q 147.87 131.47 147.81 131.91
  Q 147.76 132.25 147.83 132.59
  Q 149.94 142.52 152.11 152.34
  C 152.71 155.07 154.54 156.25 157.16 157.25
  Z"
/>
<rect fill="#ffffff" x="133.50" y="185.63" width="23.24" height="11.12" rx="0.34"/>
</svg>
