<?xml version="1.0" encoding="UTF-8" standalone="no"?>
<!DOCTYPE svg PUBLIC "-//W3C//DTD SVG 1.1//EN" "http://www.w3.org/Graphics/SVG/1.1/DTD/svg11.dtd">
<svg xmlns="http://www.w3.org/2000/svg" version="1.1" viewBox="0.00 0.00 256.00 360.00">
<g stroke-width="2.00" fill="none" stroke-linecap="butt">
<path stroke="#808080" vector-effect="non-scaling-stroke" d="
  M 88.18 79.57
  C 79.25 77.30 70.57 82.51 68.40 91.27
  Q 67.69 94.13 67.80 103.58
  Q 68.05 127.43 67.83 151.42
  Q 67.71 163.62 69.33 170.67
  C 80.15 217.95 140.72 232.13 171.23 194.30
  Q 184.06 178.38 184.10 156.98
  Q 184.13 137.73 184.13 118.37
  C 184.13 107.18 174.71 99.21 163.75 101.93
  Q 163.18 102.07 163.17 101.49
  Q 162.99 91.97 163.14 80.65
  Q 163.23 73.32 162.70 70.72
  C 160.82 61.51 151.72 56.32 142.67 58.59
  Q 142.08 58.73 141.99 58.13
  C 139.12 39.28 113.27 39.31 109.92 58.42
  A 0.30 0.30 0.0 0 1 109.54 58.67
  C 100.30 56.15 91.32 61.49 89.31 70.82
  C 88.72 73.55 88.94 76.29 88.85 79.06
  Q 88.83 79.73 88.18 79.57"
/>
<path stroke="#808080" vector-effect="non-scaling-stroke" d="
  M 122.31 70.54
  Q 121.89 70.62 121.54 70.88
  Q 121.12 71.19 121.12 71.71
  Q 121.12 91.68 121.14 111.31
  C 121.14 114.93 118.36 117.82 114.67 117.23
  C 110.72 116.60 109.76 113.46 109.80 109.92
  Q 109.96 96.17 109.88 82.74
  Q 109.87 82.33 109.46 82.29
  L 109.01 82.25
  Q 108.53 82.21 108.15 81.91
  Q 107.11 81.11 107.62 79.93
  A 1.50 1.49 -83.2 0 1 108.73 79.05
  L 109.26 78.96
  Q 109.85 78.85 109.88 78.26
  Q 110.00 75.44 109.72 73.07
  C 109.30 69.55 104.94 68.09 102.15 70.11
  C 99.49 72.04 100.21 75.16 100.15 78.10
  Q 100.13 78.73 100.68 79.05
  L 101.28 79.40
  Q 101.63 79.60 101.76 80.00
  Q 102.22 81.51 100.75 81.99
  A 0.87 0.85 -9.6 0 0 100.16 82.80
  Q 100.04 100.32 100.20 116.49
  Q 100.23 119.27 99.36 120.93
  C 96.38 126.63 88.70 123.66 88.83 117.31
  Q 88.99 109.29 88.78 101.36
  Q 88.77 100.98 88.51 100.70
  Q 88.30 100.46 88.02 100.34
  Q 87.41 100.07 87.25 99.42
  Q 86.91 98.04 88.19 97.59
  Q 88.67 97.42 88.76 96.92
  C 89.61 92.36 86.26 88.71 81.77 90.73
  C 79.36 91.81 79.01 94.49 79.07 96.85
  Q 79.09 97.48 79.72 97.50
  L 80.39 97.52
  A 1.12 1.11 -11.6 0 1 81.37 98.16
  Q 81.80 99.07 81.35 100.00
  Q 81.08 100.58 80.43 100.52
  Q 79.95 100.47 79.52 100.68
  Q 79.12 100.88 79.12 101.33
  L 79.13 137.78
  Q 79.13 138.46 79.81 138.49
  Q 102.12 139.52 114.92 157.31
  C 124.68 170.89 125.11 188.80 117.08 203.46
  Q 116.83 203.92 117.34 204.01
  Q 133.66 206.94 147.68 199.52
  Q 148.12 199.29 147.73 198.97
  C 122.45 178.10 139.91 138.81 172.33 142.97
  Q 172.88 143.04 172.88 142.48
  L 172.88 129.06
  Q 172.88 128.46 172.34 128.20
  L 171.64 127.87
  Q 171.16 127.64 171.12 127.10
  Q 171.00 125.54 172.35 124.97
  Q 172.85 124.76 172.86 124.22
  Q 172.97 120.42 172.82 117.28
  Q 172.63 113.06 168.12 112.55
  Q 167.95 112.53 167.78 112.56
  Q 163.22 113.11 163.16 117.53
  Q 163.11 120.70 163.09 124.42
  Q 163.08 125.19 163.83 125.03
  Q 164.23 124.95 164.65 125.13
  A 1.02 0.98 85.7 0 1 165.13 125.56
  Q 165.74 126.66 165.14 127.76
  Q 164.87 128.25 164.31 128.30
  L 163.73 128.34
  Q 163.07 128.39 163.08 129.06
  C 163.14 131.76 163.55 135.99 162.50 138.24
  C 160.04 143.52 151.89 141.88 151.89 136.03
  Q 151.89 107.74 151.86 83.64
  Q 151.86 82.24 150.81 81.48
  Q 150.45 81.21 150.46 80.77
  Q 150.49 79.88 151.19 79.31
  Q 151.68 78.91 151.77 78.29
  C 152.34 74.05 151.94 68.66 146.28 69.30
  C 141.58 69.82 141.91 74.95 142.14 78.51
  Q 142.17 79.06 142.72 79.03
  L 143.42 78.99
  Q 144.06 78.96 144.44 79.47
  C 145.37 80.70 144.49 82.57 142.80 82.24
  Q 142.09 82.10 142.10 82.81
  Q 142.18 98.70 142.09 111.48
  C 142.03 119.27 130.81 119.36 130.85 111.11
  Q 130.94 91.31 130.84 71.54
  Q 130.84 71.15 130.52 70.92
  Q 130.24 70.73 129.88 70.73
  A 0.78 0.77 68.3 0 1 129.28 70.47
  Q 128.41 69.51 128.87 68.38
  Q 129.07 67.89 129.58 67.75
  L 130.44 67.52
  Q 130.94 67.38 130.93 66.86
  Q 130.83 63.81 130.90 60.52
  C 131.05 53.75 121.70 53.45 121.24 59.56
  Q 120.98 62.92 121.15 66.91
  Q 121.18 67.47 121.72 67.61
  Q 123.34 68.03 123.00 69.85
  Q 122.89 70.43 122.31 70.54"
/>
<path stroke="#808080" vector-effect="non-scaling-stroke" d="
  M 113.56 172.44
  C 109.00 157.18 95.76 146.71 79.72 146.37
  Q 79.06 146.35 79.06 147.02
  L 79.30 164.20
  Q 79.30 164.89 79.99 164.93
  Q 88.33 165.41 93.04 171.57
  Q 99.90 180.54 93.96 191.37
  Q 93.69 191.86 94.10 192.25
  Q 100.57 198.27 108.63 201.51
  A 0.42 0.40 27.2 0 0 109.13 201.36
  C 114.66 193.04 116.41 181.97 113.56 172.44"
/>
<path stroke="#808080" vector-effect="non-scaling-stroke" d="
  M 172.87 160.25
  L 172.89 151.46
  Q 172.89 151.13 172.57 151.07
  Q 165.29 149.64 158.75 151.90
  Q 157.28 152.41 158.38 153.50
  L 164.63 159.76
  Q 165.40 160.53 166.47 160.30
  Q 169.60 159.62 172.53 160.50
  A 0.27 0.26 -80.9 0 0 172.87 160.25"
/>
<path stroke="#808080" vector-effect="non-scaling-stroke" d="
  M 153.77 173.44
  C 153.63 170.63 156.01 166.94 157.85 164.74
  Q 158.20 164.33 157.81 163.94
  L 151.30 157.42
  A 0.55 0.54 44.6 0 0 150.53 157.42
  Q 143.99 163.84 143.49 173.73
  Q 143.44 174.75 144.46 174.75
  L 152.52 174.75
  Q 153.83 174.75 153.77 173.44"
/>
<path stroke="#808080" vector-effect="non-scaling-stroke" d="
  M 166.39 182.68
  L 171.91 168.58
  A 0.11 0.11 0.0 0 0 171.85 168.44
  L 171.82 168.43
  A 7.66 7.62 21.4 0 0 161.91 172.73
  L 161.87 172.84
  A 7.66 7.62 21.4 0 0 166.22 182.73
  L 166.25 182.74
  A 0.11 0.11 0.0 0 0 166.39 182.68"
/>
<path stroke="#808080" vector-effect="non-scaling-stroke" d="
  M 81.73 173.55
  C 83.38 177.66 85.24 181.50 87.68 184.88
  Q 88.35 185.82 88.57 184.69
  Q 90.15 176.20 82.21 173.07
  A 0.37 0.37 0.0 0 0 81.73 173.55"
/>
<path stroke="#808080" vector-effect="non-scaling-stroke" d="
  M 145.15 182.69
  Q 148.39 190.59 154.85 194.34
  Q 155.38 194.65 155.82 194.22
  L 160.69 189.46
  Q 161.21 188.95 160.59 188.57
  Q 157.30 186.56 155.34 182.71
  A 0.40 0.39 -13.6 0 0 154.99 182.50
  L 145.27 182.50
  A 0.14 0.13 78.2 0 0 145.15 182.69"
/>
<path stroke="#808080" vector-effect="non-scaling-stroke" d="
  M 127.57 69.18
  A 1.68 1.68 0.0 0 0 125.89 67.50
  A 1.68 1.68 0.0 0 0 124.21 69.18
  A 1.68 1.68 0.0 0 0 125.89 70.86
  A 1.68 1.68 0.0 0 0 127.57 69.18"
/>
<path stroke="#808080" vector-effect="non-scaling-stroke" d="
  M 106.33 80.60
  A 1.67 1.67 0.0 0 0 104.66 78.93
  A 1.67 1.67 0.0 0 0 102.99 80.60
  A 1.67 1.67 0.0 0 0 104.66 82.27
  A 1.67 1.67 0.0 0 0 106.33 80.60"
/>
<path stroke="#808080" vector-effect="non-scaling-stroke" d="
  M 149.31 80.60
  A 1.66 1.66 0.0 0 0 147.65 78.94
  A 1.66 1.66 0.0 0 0 145.99 80.60
  A 1.66 1.66 0.0 0 0 147.65 82.26
  A 1.66 1.66 0.0 0 0 149.31 80.60"
/>
<path stroke="#808080" vector-effect="non-scaling-stroke" d="
  M 86.06 99.04
  A 1.67 1.67 0.0 0 0 84.39 97.37
  A 1.67 1.67 0.0 0 0 82.72 99.04
  A 1.67 1.67 0.0 0 0 84.39 100.71
  A 1.67 1.67 0.0 0 0 86.06 99.04"
/>
<path stroke="#808080" vector-effect="non-scaling-stroke" d="
  M 169.97 126.68
  A 1.67 1.67 0.0 0 0 168.30 125.01
  A 1.67 1.67 0.0 0 0 166.63 126.68
  A 1.67 1.67 0.0 0 0 168.30 128.35
  A 1.67 1.67 0.0 0 0 169.97 126.68"
/>
<path stroke="#808080" vector-effect="non-scaling-stroke" d="
  M 127.13 132.26
  A 3.91 3.91 0.0 0 0 123.22 128.35
  A 3.91 3.91 0.0 0 0 119.31 132.26
  A 3.91 3.91 0.0 0 0 123.22 136.17
  A 3.91 3.91 0.0 0 0 127.13 132.26"
/>
<path stroke="#808080" vector-effect="non-scaling-stroke" d="
  M 137.71 132.26
  A 3.91 3.91 0.0 0 0 133.80 128.35
  A 3.91 3.91 0.0 0 0 129.89 132.26
  A 3.91 3.91 0.0 0 0 133.80 136.17
  A 3.91 3.91 0.0 0 0 137.71 132.26"
/>
<path stroke="#808080" vector-effect="non-scaling-stroke" d="
  M 148.31 132.25
  A 3.90 3.90 0.0 0 0 144.41 128.35
  A 3.90 3.90 0.0 0 0 140.51 132.25
  A 3.90 3.90 0.0 0 0 144.41 136.15
  A 3.90 3.90 0.0 0 0 148.31 132.25"
/>
<path stroke="#808080" vector-effect="non-scaling-stroke" d="
  M 85.78 133.00
  A 2.79 2.79 0.0 0 0 82.99 130.21
  A 2.79 2.79 0.0 0 0 80.20 133.00
  A 2.79 2.79 0.0 0 0 82.99 135.79
  A 2.79 2.79 0.0 0 0 85.78 133.00"
/>
<path stroke="#808080" vector-effect="non-scaling-stroke" d="
  M 92.45 133.48
  A 2.78 2.78 0.0 0 0 89.67 130.70
  A 2.78 2.78 0.0 0 0 86.89 133.48
  A 2.78 2.78 0.0 0 0 89.67 136.26
  A 2.78 2.78 0.0 0 0 92.45 133.48"
/>
<path stroke="#808080" vector-effect="non-scaling-stroke" d="
  M 98.98 134.93
  A 2.78 2.78 0.0 0 0 96.20 132.15
  A 2.78 2.78 0.0 0 0 93.42 134.93
  A 2.78 2.78 0.0 0 0 96.20 137.71
  A 2.78 2.78 0.0 0 0 98.98 134.93"
/>
<path stroke="#808080" vector-effect="non-scaling-stroke" d="
  M 105.22 137.32
  A 2.78 2.78 0.0 0 0 102.44 134.54
  A 2.78 2.78 0.0 0 0 99.66 137.32
  A 2.78 2.78 0.0 0 0 102.44 140.10
  A 2.78 2.78 0.0 0 0 105.22 137.32"
/>
<path stroke="#808080" vector-effect="non-scaling-stroke" d="
  M 111.08 140.58
  A 2.78 2.78 0.0 0 0 108.30 137.80
  A 2.78 2.78 0.0 0 0 105.52 140.58
  A 2.78 2.78 0.0 0 0 108.30 143.36
  A 2.78 2.78 0.0 0 0 111.08 140.58"
/>
<path stroke="#808080" vector-effect="non-scaling-stroke" d="
  M 116.36 144.68
  A 2.79 2.79 0.0 0 0 113.57 141.89
  A 2.79 2.79 0.0 0 0 110.78 144.68
  A 2.79 2.79 0.0 0 0 113.57 147.47
  A 2.79 2.79 0.0 0 0 116.36 144.68"
/>
<path stroke="#808080" vector-effect="non-scaling-stroke" d="
  M 121.02 149.50
  A 2.77 2.77 0.0 0 0 118.25 146.73
  A 2.77 2.77 0.0 0 0 115.48 149.50
  A 2.77 2.77 0.0 0 0 118.25 152.27
  A 2.77 2.77 0.0 0 0 121.02 149.50"
/>
<path stroke="#808080" vector-effect="non-scaling-stroke" d="
  M 124.91 154.94
  A 2.77 2.77 0.0 0 0 122.14 152.17
  A 2.77 2.77 0.0 0 0 119.37 154.94
  A 2.77 2.77 0.0 0 0 122.14 157.71
  A 2.77 2.77 0.0 0 0 124.91 154.94"
/>
<path stroke="#808080" vector-effect="non-scaling-stroke" d="
  M 127.97 160.91
  A 2.78 2.78 0.0 0 0 125.19 158.13
  A 2.78 2.78 0.0 0 0 122.41 160.91
  A 2.78 2.78 0.0 0 0 125.19 163.69
  A 2.78 2.78 0.0 0 0 127.97 160.91"
/>
<path stroke="#808080" vector-effect="non-scaling-stroke" d="
  M 130.12 167.23
  A 2.79 2.79 0.0 0 0 127.33 164.44
  A 2.79 2.79 0.0 0 0 124.54 167.23
  A 2.79 2.79 0.0 0 0 127.33 170.02
  A 2.79 2.79 0.0 0 0 130.12 167.23"
/>
<path stroke="#808080" vector-effect="non-scaling-stroke" d="
  M 131.37 173.82
  A 2.80 2.80 0.0 0 0 128.57 171.02
  A 2.80 2.80 0.0 0 0 125.77 173.82
  A 2.80 2.80 0.0 0 0 128.57 176.62
  A 2.80 2.80 0.0 0 0 131.37 173.82"
/>
<path stroke="#808080" vector-effect="non-scaling-stroke" d="
  M 131.54 180.49
  A 2.77 2.77 0.0 0 0 128.77 177.72
  A 2.77 2.77 0.0 0 0 126.00 180.49
  A 2.77 2.77 0.0 0 0 128.77 183.26
  A 2.77 2.77 0.0 0 0 131.54 180.49"
/>
<path stroke="#808080" vector-effect="non-scaling-stroke" d="
  M 131.02 187.18
  A 2.79 2.79 0.0 0 0 128.23 184.39
  A 2.79 2.79 0.0 0 0 125.44 187.18
  A 2.79 2.79 0.0 0 0 128.23 189.97
  A 2.79 2.79 0.0 0 0 131.02 187.18"
/>
<path stroke="#808080" vector-effect="non-scaling-stroke" d="
  M 129.66 193.71
  A 2.81 2.81 0.0 0 0 126.85 190.90
  A 2.81 2.81 0.0 0 0 124.04 193.71
  A 2.81 2.81 0.0 0 0 126.85 196.52
  A 2.81 2.81 0.0 0 0 129.66 193.71"
/>
<path stroke="#808080" vector-effect="non-scaling-stroke" d="
  M 127.47 200.07
  A 2.80 2.80 0.0 0 0 124.67 197.27
  A 2.80 2.80 0.0 0 0 121.87 200.07
  A 2.80 2.80 0.0 0 0 124.67 202.87
  A 2.80 2.80 0.0 0 0 127.47 200.07"
/>
<path stroke="#808080" vector-effect="non-scaling-stroke" d="
  M 88.28 156.63
  A 3.90 3.90 0.0 0 0 84.38 152.73
  A 3.90 3.90 0.0 0 0 80.48 156.63
  A 3.90 3.90 0.0 0 0 84.38 160.53
  A 3.90 3.90 0.0 0 0 88.28 156.63"
/>
<path stroke="#808080" vector-effect="non-scaling-stroke" d="
  M 97.99 161.41
  A 3.90 3.90 0.0 0 0 94.09 157.51
  A 3.90 3.90 0.0 0 0 90.19 161.41
  A 3.90 3.90 0.0 0 0 94.09 165.31
  A 3.90 3.90 0.0 0 0 97.99 161.41"
/>
<path stroke="#808080" vector-effect="non-scaling-stroke" d="
  M 105.07 169.68
  A 3.91 3.91 0.0 0 0 101.16 165.77
  A 3.91 3.91 0.0 0 0 97.25 169.68
  A 3.91 3.91 0.0 0 0 101.16 173.59
  A 3.91 3.91 0.0 0 0 105.07 169.68"
/>
<path stroke="#808080" vector-effect="non-scaling-stroke" d="
  M 108.30 180.05
  A 3.91 3.91 0.0 0 0 104.39 176.14
  A 3.91 3.91 0.0 0 0 100.48 180.05
  A 3.91 3.91 0.0 0 0 104.39 183.96
  A 3.91 3.91 0.0 0 0 108.30 180.05"
/>
<path stroke="#808080" vector-effect="non-scaling-stroke" d="
  M 107.19 190.86
  A 3.91 3.91 0.0 0 0 103.28 186.95
  A 3.91 3.91 0.0 0 0 99.37 190.86
  A 3.91 3.91 0.0 0 0 103.28 194.77
  A 3.91 3.91 0.0 0 0 107.19 190.86"
/>
</g>
<path fill="#ffffff" d="
  M 121.87 0.00
  L 134.24 0.00
  Q 139.12 0.58 143.98 1.20
  Q 175.57 5.19 200.60 22.56
  C 231.67 44.12 250.92 77.00 255.26 114.24
  C 255.55 116.77 255.52 119.37 256.00 121.88
  L 256.00 133.23
  Q 253.60 177.81 226.18 210.17
  C 198.90 242.35 158.37 259.28 116.26 255.43
  C 89.82 253.01 64.50 242.42 44.37 224.83
  Q 3.91 189.46 0.00 133.88
  L 0.00 122.01
  Q 0.56 117.00 1.19 112.02
  Q 4.67 84.27 19.00 60.86
  Q 24.09 52.55 30.84 44.77
  Q 66.14 4.06 121.87 0.00
  Z
  M 88.18 79.57
  C 79.25 77.30 70.57 82.51 68.40 91.27
  Q 67.69 94.13 67.80 103.58
  Q 68.05 127.43 67.83 151.42
  Q 67.71 163.62 69.33 170.67
  C 80.15 217.95 140.72 232.13 171.23 194.30
  Q 184.06 178.38 184.10 156.98
  Q 184.13 137.73 184.13 118.37
  C 184.13 107.18 174.71 99.21 163.75 101.93
  Q 163.18 102.07 163.17 101.49
  Q 162.99 91.97 163.14 80.65
  Q 163.23 73.32 162.70 70.72
  C 160.82 61.51 151.72 56.32 142.67 58.59
  Q 142.08 58.73 141.99 58.13
  C 139.12 39.28 113.27 39.31 109.92 58.42
  A 0.30 0.30 0.0 0 1 109.54 58.67
  C 100.30 56.15 91.32 61.49 89.31 70.82
  C 88.72 73.55 88.94 76.29 88.85 79.06
  Q 88.83 79.73 88.18 79.57
  Z"
/>
<path fill="#000000" d="
  M 88.85 79.06
  C 88.94 76.29 88.72 73.55 89.31 70.82
  C 91.32 61.49 100.30 56.15 109.54 58.67
  A 0.30 0.30 0.0 0 0 109.92 58.42
  C 113.27 39.31 139.12 39.28 141.99 58.13
  Q 142.08 58.73 142.67 58.59
  C 151.72 56.32 160.82 61.51 162.70 70.72
  Q 163.23 73.32 163.14 80.65
  Q 162.99 91.97 163.17 101.49
  Q 163.18 102.07 163.75 101.93
  C 174.71 99.21 184.13 107.18 184.13 118.37
  Q 184.13 137.73 184.10 156.98
  Q 184.06 178.38 171.23 194.30
  C 140.72 232.13 80.15 217.95 69.33 170.67
  Q 67.71 163.62 67.83 151.42
  Q 68.05 127.43 67.80 103.58
  Q 67.69 94.13 68.40 91.27
  C 70.57 82.51 79.25 77.30 88.18 79.57
  Q 88.83 79.73 88.85 79.06
  Z
  M 122.31 70.54
  Q 121.89 70.62 121.54 70.88
  Q 121.12 71.19 121.12 71.71
  Q 121.12 91.68 121.14 111.31
  C 121.14 114.93 118.36 117.82 114.67 117.23
  C 110.72 116.60 109.76 113.46 109.80 109.92
  Q 109.96 96.17 109.88 82.74
  Q 109.87 82.33 109.46 82.29
  L 109.01 82.25
  Q 108.53 82.21 108.15 81.91
  Q 107.11 81.11 107.62 79.93
  A 1.50 1.49 -83.2 0 1 108.73 79.05
  L 109.26 78.96
  Q 109.85 78.85 109.88 78.26
  Q 110.00 75.44 109.72 73.07
  C 109.30 69.55 104.94 68.09 102.15 70.11
  C 99.49 72.04 100.21 75.16 100.15 78.10
  Q 100.13 78.73 100.68 79.05
  L 101.28 79.40
  Q 101.63 79.60 101.76 80.00
  Q 102.22 81.51 100.75 81.99
  A 0.87 0.85 -9.6 0 0 100.16 82.80
  Q 100.04 100.32 100.20 116.49
  Q 100.23 119.27 99.36 120.93
  C 96.38 126.63 88.70 123.66 88.83 117.31
  Q 88.99 109.29 88.78 101.36
  Q 88.77 100.98 88.51 100.70
  Q 88.30 100.46 88.02 100.34
  Q 87.41 100.07 87.25 99.42
  Q 86.91 98.04 88.19 97.59
  Q 88.67 97.42 88.76 96.92
  C 89.61 92.36 86.26 88.71 81.77 90.73
  C 79.36 91.81 79.01 94.49 79.07 96.85
  Q 79.09 97.48 79.72 97.50
  L 80.39 97.52
  A 1.12 1.11 -11.6 0 1 81.37 98.16
  Q 81.80 99.07 81.35 100.00
  Q 81.08 100.58 80.43 100.52
  Q 79.95 100.47 79.52 100.68
  Q 79.12 100.88 79.12 101.33
  L 79.13 137.78
  Q 79.13 138.46 79.81 138.49
  Q 102.12 139.52 114.92 157.31
  C 124.68 170.89 125.11 188.80 117.08 203.46
  Q 116.83 203.92 117.34 204.01
  Q 133.66 206.94 147.68 199.52
  Q 148.12 199.29 147.73 198.97
  C 122.45 178.10 139.91 138.81 172.33 142.97
  Q 172.88 143.04 172.88 142.48
  L 172.88 129.06
  Q 172.88 128.46 172.34 128.20
  L 171.64 127.87
  Q 171.16 127.64 171.12 127.10
  Q 171.00 125.54 172.35 124.97
  Q 172.85 124.76 172.86 124.22
  Q 172.97 120.42 172.82 117.28
  Q 172.63 113.06 168.12 112.55
  Q 167.95 112.53 167.78 112.56
  Q 163.22 113.11 163.16 117.53
  Q 163.11 120.70 163.09 124.42
  Q 163.08 125.19 163.83 125.03
  Q 164.23 124.95 164.65 125.13
  A 1.02 0.98 85.7 0 1 165.13 125.56
  Q 165.74 126.66 165.14 127.76
  Q 164.87 128.25 164.31 128.30
  L 163.73 128.34
  Q 163.07 128.39 163.08 129.06
  C 163.14 131.76 163.55 135.99 162.50 138.24
  C 160.04 143.52 151.89 141.88 151.89 136.03
  Q 151.89 107.74 151.86 83.64
  Q 151.86 82.24 150.81 81.48
  Q 150.45 81.21 150.46 80.77
  Q 150.49 79.88 151.19 79.31
  Q 151.68 78.91 151.77 78.29
  C 152.34 74.05 151.94 68.66 146.28 69.30
  C 141.58 69.82 141.91 74.95 142.14 78.51
  Q 142.17 79.06 142.72 79.03
  L 143.42 78.99
  Q 144.06 78.96 144.44 79.47
  C 145.37 80.70 144.49 82.57 142.80 82.24
  Q 142.09 82.10 142.10 82.81
  Q 142.18 98.70 142.09 111.48
  C 142.03 119.27 130.81 119.36 130.85 111.11
  Q 130.94 91.31 130.84 71.54
  Q 130.84 71.15 130.52 70.92
  Q 130.24 70.73 129.88 70.73
  A 0.78 0.77 68.3 0 1 129.28 70.47
  Q 128.41 69.51 128.87 68.38
  Q 129.07 67.89 129.58 67.75
  L 130.44 67.52
  Q 130.94 67.38 130.93 66.86
  Q 130.83 63.81 130.90 60.52
  C 131.05 53.75 121.70 53.45 121.24 59.56
  Q 120.98 62.92 121.15 66.91
  Q 121.18 67.47 121.72 67.61
  Q 123.34 68.03 123.00 69.85
  Q 122.89 70.43 122.31 70.54
  Z
  M 113.56 172.44
  C 109.00 157.18 95.76 146.71 79.72 146.37
  Q 79.06 146.35 79.06 147.02
  L 79.30 164.20
  Q 79.30 164.89 79.99 164.93
  Q 88.33 165.41 93.04 171.57
  Q 99.90 180.54 93.96 191.37
  Q 93.69 191.86 94.10 192.25
  Q 100.57 198.27 108.63 201.51
  A 0.42 0.40 27.2 0 0 109.13 201.36
  C 114.66 193.04 116.41 181.97 113.56 172.44
  Z
  M 172.87 160.25
  L 172.89 151.46
  Q 172.89 151.13 172.57 151.07
  Q 165.29 149.64 158.75 151.90
  Q 157.28 152.41 158.38 153.50
  L 164.63 159.76
  Q 165.40 160.53 166.47 160.30
  Q 169.60 159.62 172.53 160.50
  A 0.27 0.26 -80.9 0 0 172.87 160.25
  Z
  M 153.77 173.44
  C 153.63 170.63 156.01 166.94 157.85 164.74
  Q 158.20 164.33 157.81 163.94
  L 151.30 157.42
  A 0.55 0.54 44.6 0 0 150.53 157.42
  Q 143.99 163.84 143.49 173.73
  Q 143.44 174.75 144.46 174.75
  L 152.52 174.75
  Q 153.83 174.75 153.77 173.44
  Z
  M 166.39 182.68
  L 171.91 168.58
  A 0.11 0.11 0.0 0 0 171.85 168.44
  L 171.82 168.43
  A 7.66 7.62 21.4 0 0 161.91 172.73
  L 161.87 172.84
  A 7.66 7.62 21.4 0 0 166.22 182.73
  L 166.25 182.74
  A 0.11 0.11 0.0 0 0 166.39 182.68
  Z
  M 81.73 173.55
  C 83.38 177.66 85.24 181.50 87.68 184.88
  Q 88.35 185.82 88.57 184.69
  Q 90.15 176.20 82.21 173.07
  A 0.37 0.37 0.0 0 0 81.73 173.55
  Z
  M 145.15 182.69
  Q 148.39 190.59 154.85 194.34
  Q 155.38 194.65 155.82 194.22
  L 160.69 189.46
  Q 161.21 188.95 160.59 188.57
  Q 157.30 186.56 155.34 182.71
  A 0.40 0.39 -13.6 0 0 154.99 182.50
  L 145.27 182.50
  A 0.14 0.13 78.2 0 0 145.15 182.69
  Z"
/>
<path fill="#ffffff" d="
  M 123.00 69.85
  Q 123.34 68.03 121.72 67.61
  Q 121.18 67.47 121.15 66.91
  Q 120.98 62.92 121.24 59.56
  C 121.70 53.45 131.05 53.75 130.90 60.52
  Q 130.83 63.81 130.93 66.86
  Q 130.94 67.38 130.44 67.52
  L 129.58 67.75
  Q 129.07 67.89 128.87 68.38
  Q 128.41 69.51 129.28 70.47
  A 0.78 0.77 68.3 0 0 129.88 70.73
  Q 130.24 70.73 130.52 70.92
  Q 130.84 71.15 130.84 71.54
  Q 130.94 91.31 130.85 111.11
  C 130.81 119.36 142.03 119.27 142.09 111.48
  Q 142.18 98.70 142.10 82.81
  Q 142.09 82.10 142.80 82.24
  C 144.49 82.57 145.37 80.70 144.44 79.47
  Q 144.06 78.96 143.42 78.99
  L 142.72 79.03
  Q 142.17 79.06 142.14 78.51
  C 141.91 74.95 141.58 69.82 146.28 69.30
  C 151.94 68.66 152.34 74.05 151.77 78.29
  Q 151.68 78.91 151.19 79.31
  Q 150.49 79.88 150.46 80.77
  Q 150.45 81.21 150.81 81.48
  Q 151.86 82.24 151.86 83.64
  Q 151.89 107.74 151.89 136.03
  C 151.89 141.88 160.04 143.52 162.50 138.24
  C 163.55 135.99 163.14 131.76 163.08 129.06
  Q 163.07 128.39 163.73 128.34
  L 164.31 128.30
  Q 164.87 128.25 165.14 127.76
  Q 165.74 126.66 165.13 125.56
  A 1.02 0.98 85.7 0 0 164.65 125.13
  Q 164.23 124.95 163.83 125.03
  Q 163.08 125.19 163.09 124.42
  Q 163.11 120.70 163.16 117.53
  Q 163.22 113.11 167.78 112.56
  Q 167.95 112.53 168.12 112.55
  Q 172.63 113.06 172.82 117.28
  Q 172.97 120.42 172.86 124.22
  Q 172.85 124.76 172.35 124.97
  Q 171.00 125.54 171.12 127.10
  Q 171.16 127.64 171.64 127.87
  L 172.34 128.20
  Q 172.88 128.46 172.88 129.06
  L 172.88 142.48
  Q 172.88 143.04 172.33 142.97
  C 139.91 138.81 122.45 178.10 147.73 198.97
  Q 148.12 199.29 147.68 199.52
  Q 133.66 206.94 117.34 204.01
  Q 116.83 203.92 117.08 203.46
  C 125.11 188.80 124.68 170.89 114.92 157.31
  Q 102.12 139.52 79.81 138.49
  Q 79.13 138.46 79.13 137.78
  L 79.12 101.33
  Q 79.12 100.88 79.52 100.68
  Q 79.95 100.47 80.43 100.52
  Q 81.08 100.58 81.35 100.00
  Q 81.80 99.07 81.37 98.16
  A 1.12 1.11 -11.6 0 0 80.39 97.52
  L 79.72 97.50
  Q 79.09 97.48 79.07 96.85
  C 79.01 94.49 79.36 91.81 81.77 90.73
  C 86.26 88.71 89.61 92.36 88.76 96.92
  Q 88.67 97.42 88.19 97.59
  Q 86.91 98.04 87.25 99.42
  Q 87.41 100.07 88.02 100.34
  Q 88.30 100.46 88.51 100.70
  Q 88.77 100.98 88.78 101.36
  Q 88.99 109.29 88.83 117.31
  C 88.70 123.66 96.38 126.63 99.36 120.93
  Q 100.23 119.27 100.20 116.49
  Q 100.04 100.32 100.16 82.80
  A 0.87 0.85 -9.6 0 1 100.75 81.99
  Q 102.22 81.51 101.76 80.00
  Q 101.63 79.60 101.28 79.40
  L 100.68 79.05
  Q 100.13 78.73 100.15 78.10
  C 100.21 75.16 99.49 72.04 102.15 70.11
  C 104.94 68.09 109.30 69.55 109.72 73.07
  Q 110.00 75.44 109.88 78.26
  Q 109.85 78.85 109.26 78.96
  L 108.73 79.05
  A 1.50 1.49 -83.2 0 0 107.62 79.93
  Q 107.11 81.11 108.15 81.91
  Q 108.53 82.21 109.01 82.25
  L 109.46 82.29
  Q 109.87 82.33 109.88 82.74
  Q 109.96 96.17 109.80 109.92
  C 109.76 113.46 110.72 116.60 114.67 117.23
  C 118.36 117.82 121.14 114.93 121.14 111.31
  Q 121.12 91.68 121.12 71.71
  Q 121.12 71.19 121.54 70.88
  Q 121.89 70.62 122.31 70.54
  Q 122.89 70.43 123.00 69.85
  Z
  M 127.57 69.18
  A 1.68 1.68 0.0 0 0 125.89 67.50
  A 1.68 1.68 0.0 0 0 124.21 69.18
  A 1.68 1.68 0.0 0 0 125.89 70.86
  A 1.68 1.68 0.0 0 0 127.57 69.18
  Z
  M 106.33 80.60
  A 1.67 1.67 0.0 0 0 104.66 78.93
  A 1.67 1.67 0.0 0 0 102.99 80.60
  A 1.67 1.67 0.0 0 0 104.66 82.27
  A 1.67 1.67 0.0 0 0 106.33 80.60
  Z
  M 149.31 80.60
  A 1.66 1.66 0.0 0 0 147.65 78.94
  A 1.66 1.66 0.0 0 0 145.99 80.60
  A 1.66 1.66 0.0 0 0 147.65 82.26
  A 1.66 1.66 0.0 0 0 149.31 80.60
  Z
  M 86.06 99.04
  A 1.67 1.67 0.0 0 0 84.39 97.37
  A 1.67 1.67 0.0 0 0 82.72 99.04
  A 1.67 1.67 0.0 0 0 84.39 100.71
  A 1.67 1.67 0.0 0 0 86.06 99.04
  Z
  M 169.97 126.68
  A 1.67 1.67 0.0 0 0 168.30 125.01
  A 1.67 1.67 0.0 0 0 166.63 126.68
  A 1.67 1.67 0.0 0 0 168.30 128.35
  A 1.67 1.67 0.0 0 0 169.97 126.68
  Z
  M 127.13 132.26
  A 3.91 3.91 0.0 0 0 123.22 128.35
  A 3.91 3.91 0.0 0 0 119.31 132.26
  A 3.91 3.91 0.0 0 0 123.22 136.17
  A 3.91 3.91 0.0 0 0 127.13 132.26
  Z
  M 137.71 132.26
  A 3.91 3.91 0.0 0 0 133.80 128.35
  A 3.91 3.91 0.0 0 0 129.89 132.26
  A 3.91 3.91 0.0 0 0 133.80 136.17
  A 3.91 3.91 0.0 0 0 137.71 132.26
  Z
  M 148.31 132.25
  A 3.90 3.90 0.0 0 0 144.41 128.35
  A 3.90 3.90 0.0 0 0 140.51 132.25
  A 3.90 3.90 0.0 0 0 144.41 136.15
  A 3.90 3.90 0.0 0 0 148.31 132.25
  Z
  M 85.78 133.00
  A 2.79 2.79 0.0 0 0 82.99 130.21
  A 2.79 2.79 0.0 0 0 80.20 133.00
  A 2.79 2.79 0.0 0 0 82.99 135.79
  A 2.79 2.79 0.0 0 0 85.78 133.00
  Z
  M 92.45 133.48
  A 2.78 2.78 0.0 0 0 89.67 130.70
  A 2.78 2.78 0.0 0 0 86.89 133.48
  A 2.78 2.78 0.0 0 0 89.67 136.26
  A 2.78 2.78 0.0 0 0 92.45 133.48
  Z
  M 98.98 134.93
  A 2.78 2.78 0.0 0 0 96.20 132.15
  A 2.78 2.78 0.0 0 0 93.42 134.93
  A 2.78 2.78 0.0 0 0 96.20 137.71
  A 2.78 2.78 0.0 0 0 98.98 134.93
  Z
  M 105.22 137.32
  A 2.78 2.78 0.0 0 0 102.44 134.54
  A 2.78 2.78 0.0 0 0 99.66 137.32
  A 2.78 2.78 0.0 0 0 102.44 140.10
  A 2.78 2.78 0.0 0 0 105.22 137.32
  Z
  M 111.08 140.58
  A 2.78 2.78 0.0 0 0 108.30 137.80
  A 2.78 2.78 0.0 0 0 105.52 140.58
  A 2.78 2.78 0.0 0 0 108.30 143.36
  A 2.78 2.78 0.0 0 0 111.08 140.58
  Z
  M 116.36 144.68
  A 2.79 2.79 0.0 0 0 113.57 141.89
  A 2.79 2.79 0.0 0 0 110.78 144.68
  A 2.79 2.79 0.0 0 0 113.57 147.47
  A 2.79 2.79 0.0 0 0 116.36 144.68
  Z
  M 121.02 149.50
  A 2.77 2.77 0.0 0 0 118.25 146.73
  A 2.77 2.77 0.0 0 0 115.48 149.50
  A 2.77 2.77 0.0 0 0 118.25 152.27
  A 2.77 2.77 0.0 0 0 121.02 149.50
  Z
  M 124.91 154.94
  A 2.77 2.77 0.0 0 0 122.14 152.17
  A 2.77 2.77 0.0 0 0 119.37 154.94
  A 2.77 2.77 0.0 0 0 122.14 157.71
  A 2.77 2.77 0.0 0 0 124.91 154.94
  Z
  M 127.97 160.91
  A 2.78 2.78 0.0 0 0 125.19 158.13
  A 2.78 2.78 0.0 0 0 122.41 160.91
  A 2.78 2.78 0.0 0 0 125.19 163.69
  A 2.78 2.78 0.0 0 0 127.97 160.91
  Z
  M 130.12 167.23
  A 2.79 2.79 0.0 0 0 127.33 164.44
  A 2.79 2.79 0.0 0 0 124.54 167.23
  A 2.79 2.79 0.0 0 0 127.33 170.02
  A 2.79 2.79 0.0 0 0 130.12 167.23
  Z
  M 131.37 173.82
  A 2.80 2.80 0.0 0 0 128.57 171.02
  A 2.80 2.80 0.0 0 0 125.77 173.82
  A 2.80 2.80 0.0 0 0 128.57 176.62
  A 2.80 2.80 0.0 0 0 131.37 173.82
  Z
  M 131.54 180.49
  A 2.77 2.77 0.0 0 0 128.77 177.72
  A 2.77 2.77 0.0 0 0 126.00 180.49
  A 2.77 2.77 0.0 0 0 128.77 183.26
  A 2.77 2.77 0.0 0 0 131.54 180.49
  Z
  M 131.02 187.18
  A 2.79 2.79 0.0 0 0 128.23 184.39
  A 2.79 2.79 0.0 0 0 125.44 187.18
  A 2.79 2.79 0.0 0 0 128.23 189.97
  A 2.79 2.79 0.0 0 0 131.02 187.18
  Z
  M 129.66 193.71
  A 2.81 2.81 0.0 0 0 126.85 190.90
  A 2.81 2.81 0.0 0 0 124.04 193.71
  A 2.81 2.81 0.0 0 0 126.85 196.52
  A 2.81 2.81 0.0 0 0 129.66 193.71
  Z
  M 127.47 200.07
  A 2.80 2.80 0.0 0 0 124.67 197.27
  A 2.80 2.80 0.0 0 0 121.87 200.07
  A 2.80 2.80 0.0 0 0 124.67 202.87
  A 2.80 2.80 0.0 0 0 127.47 200.07
  Z"
/>
<circle fill="#000000" cx="125.89" cy="69.18" r="1.68"/>
<circle fill="#000000" cx="104.66" cy="80.60" r="1.67"/>
<circle fill="#000000" cx="147.65" cy="80.60" r="1.66"/>
<circle fill="#000000" cx="84.39" cy="99.04" r="1.67"/>
<circle fill="#000000" cx="168.30" cy="126.68" r="1.67"/>
<circle fill="#000000" cx="123.22" cy="132.26" r="3.91"/>
<circle fill="#000000" cx="133.80" cy="132.26" r="3.91"/>
<circle fill="#000000" cx="144.41" cy="132.25" r="3.90"/>
<circle fill="#000000" cx="82.99" cy="133.00" r="2.79"/>
<circle fill="#000000" cx="89.67" cy="133.48" r="2.78"/>
<circle fill="#000000" cx="96.20" cy="134.93" r="2.78"/>
<circle fill="#000000" cx="102.44" cy="137.32" r="2.78"/>
<circle fill="#000000" cx="108.30" cy="140.58" r="2.78"/>
<circle fill="#000000" cx="113.57" cy="144.68" r="2.79"/>
<path fill="#ffffff" d="
  M 79.72 146.37
  C 95.76 146.71 109.00 157.18 113.56 172.44
  C 116.41 181.97 114.66 193.04 109.13 201.36
  A 0.42 0.40 27.2 0 1 108.63 201.51
  Q 100.57 198.27 94.10 192.25
  Q 93.69 191.86 93.96 191.37
  Q 99.90 180.54 93.04 171.57
  Q 88.33 165.41 79.99 164.93
  Q 79.30 164.89 79.30 164.20
  L 79.06 147.02
  Q 79.06 146.35 79.72 146.37
  Z
  M 88.28 156.63
  A 3.90 3.90 0.0 0 0 84.38 152.73
  A 3.90 3.90 0.0 0 0 80.48 156.63
  A 3.90 3.90 0.0 0 0 84.38 160.53
  A 3.90 3.90 0.0 0 0 88.28 156.63
  Z
  M 97.99 161.41
  A 3.90 3.90 0.0 0 0 94.09 157.51
  A 3.90 3.90 0.0 0 0 90.19 161.41
  A 3.90 3.90 0.0 0 0 94.09 165.31
  A 3.90 3.90 0.0 0 0 97.99 161.41
  Z
  M 105.07 169.68
  A 3.91 3.91 0.0 0 0 101.16 165.77
  A 3.91 3.91 0.0 0 0 97.25 169.68
  A 3.91 3.91 0.0 0 0 101.16 173.59
  A 3.91 3.91 0.0 0 0 105.07 169.68
  Z
  M 108.30 180.05
  A 3.91 3.91 0.0 0 0 104.39 176.14
  A 3.91 3.91 0.0 0 0 100.48 180.05
  A 3.91 3.91 0.0 0 0 104.39 183.96
  A 3.91 3.91 0.0 0 0 108.30 180.05
  Z
  M 107.19 190.86
  A 3.91 3.91 0.0 0 0 103.28 186.95
  A 3.91 3.91 0.0 0 0 99.37 190.86
  A 3.91 3.91 0.0 0 0 103.28 194.77
  A 3.91 3.91 0.0 0 0 107.19 190.86
  Z"
/>
<circle fill="#000000" cx="118.25" cy="149.50" r="2.77"/>
<path fill="#ffffff" d="
  M 172.53 160.50
  Q 169.60 159.62 166.47 160.30
  Q 165.40 160.53 164.63 159.76
  L 158.38 153.50
  Q 157.28 152.41 158.75 151.90
  Q 165.29 149.64 172.57 151.07
  Q 172.89 151.13 172.89 151.46
  L 172.87 160.25
  A 0.27 0.26 -80.9 0 1 172.53 160.50
  Z"
/>
<circle fill="#000000" cx="122.14" cy="154.94" r="2.77"/>
<circle fill="#000000" cx="84.38" cy="156.63" r="3.90"/>
<path fill="#ffffff" d="
  M 157.85 164.74
  C 156.01 166.94 153.63 170.63 153.77 173.44
  Q 153.83 174.75 152.52 174.75
  L 144.46 174.75
  Q 143.44 174.75 143.49 173.73
  Q 143.99 163.84 150.53 157.42
  A 0.55 0.54 44.6 0 1 151.30 157.42
  L 157.81 163.94
  Q 158.20 164.33 157.85 164.74
  Z"
/>
<circle fill="#000000" cx="94.09" cy="161.41" r="3.90"/>
<circle fill="#000000" cx="125.19" cy="160.91" r="2.78"/>
<circle fill="#000000" cx="127.33" cy="167.23" r="2.79"/>
<circle fill="#000000" cx="101.16" cy="169.68" r="3.91"/>
<path fill="#ffffff" d="
  M 166.39 182.68
  A 0.11 0.11 0.0 0 1 166.25 182.74
  L 166.22 182.73
  A 7.66 7.62 21.4 0 1 161.87 172.84
  L 161.91 172.73
  A 7.66 7.62 21.4 0 1 171.82 168.43
  L 171.85 168.44
  A 0.11 0.11 0.0 0 1 171.91 168.58
  L 166.39 182.68
  Z"
/>
<circle fill="#000000" cx="128.57" cy="173.82" r="2.80"/>
<path fill="#ffffff" d="
  M 87.68 184.88
  C 85.24 181.50 83.38 177.66 81.73 173.55
  A 0.37 0.37 0.0 0 1 82.21 173.07
  Q 90.15 176.20 88.57 184.69
  Q 88.35 185.82 87.68 184.88
  Z"
/>
<circle fill="#000000" cx="104.39" cy="180.05" r="3.91"/>
<circle fill="#000000" cx="128.77" cy="180.49" r="2.77"/>
<path fill="#ffffff" d="
  M 145.15 182.69
  A 0.14 0.13 78.2 0 1 145.27 182.50
  L 154.99 182.50
  A 0.40 0.39 -13.6 0 1 155.34 182.71
  Q 157.30 186.56 160.59 188.57
  Q 161.21 188.95 160.69 189.46
  L 155.82 194.22
  Q 155.38 194.65 154.85 194.34
  Q 148.39 190.59 145.15 182.69
  Z"
/>
<circle fill="#000000" cx="128.23" cy="187.18" r="2.79"/>
<circle fill="#000000" cx="103.28" cy="190.86" r="3.91"/>
<circle fill="#000000" cx="126.85" cy="193.71" r="2.81"/>
<circle fill="#000000" cx="124.67" cy="200.07" r="2.80"/>
</svg>
