<?xml version="1.0" encoding="UTF-8" standalone="no"?>
<!DOCTYPE svg PUBLIC "-//W3C//DTD SVG 1.1//EN" "http://www.w3.org/Graphics/SVG/1.1/DTD/svg11.dtd">
<svg xmlns="http://www.w3.org/2000/svg" version="1.1" viewBox="0.00 0.00 256.00 360.00">
<g stroke-width="2.00" fill="none" stroke-linecap="butt">
<path stroke="#808080" vector-effect="non-scaling-stroke" d="
  M 83.92 118.64
  L 88.05 118.61
  Q 88.57 118.61 88.69 119.12
  C 90.22 125.68 92.51 131.72 96.60 137.33
  Q 123.88 174.72 149.25 209.61
  Q 149.63 210.12 150.26 210.12
  L 162.31 210.13
  Q 162.87 210.14 162.55 209.67
  L 114.28 139.50
  Q 113.93 138.99 114.55 138.92
  Q 122.50 138.10 128.67 131.46
  C 138.35 121.03 129.21 107.31 120.77 99.91
  Q 120.63 99.79 120.59 99.62
  Q 120.48 99.16 120.86 99.44
  Q 126.66 103.83 130.59 108.91
  Q 139.14 119.96 148.55 132.74
  Q 175.43 169.23 201.67 205.50
  Q 202.25 206.31 202.25 205.31
  L 202.25 197.21
  Q 202.25 196.54 201.85 195.99
  Q 168.38 149.82 138.38 109.71
  C 132.47 101.81 120.13 87.67 108.85 90.66
  Q 108.27 90.82 107.74 90.53
  C 98.76 85.71 86.90 85.43 86.77 98.92
  Q 86.76 99.85 86.09 99.21
  Q 77.37 90.94 71.19 78.71
  Q 70.20 76.75 70.21 74.37
  Q 70.29 59.96 70.24 45.81
  Q 70.24 45.13 69.55 45.13
  L 58.29 45.12
  Q 57.75 45.12 57.75 45.66
  Q 57.72 59.81 57.79 73.85
  Q 57.80 76.82 56.99 79.68
  C 54.22 89.43 51.85 102.73 55.89 111.92
  C 59.40 119.91 67.14 125.56 75.96 126.11
  C 79.77 126.35 84.21 125.57 87.03 123.03
  Q 87.77 122.37 86.92 121.85
  Q 85.11 120.73 83.68 119.20
  Q 83.17 118.65 83.92 118.64"
/>
<path stroke="#808080" vector-effect="non-scaling-stroke" d="
  M 187.17 93.88
  C 193.45 99.74 197.71 108.09 201.82 115.55
  Q 202.31 116.45 202.28 115.42
  Q 202.17 111.23 202.32 106.77
  Q 202.37 104.99 201.54 103.52
  C 196.67 95.01 185.15 80.56 174.52 82.69
  Q 173.98 82.79 173.52 82.51
  C 167.20 78.65 157.72 76.19 154.35 85.12
  Q 152.70 89.51 153.18 94.82
  Q 153.49 98.16 153.29 101.90
  Q 152.87 109.77 155.83 118.51
  Q 157.48 123.38 163.48 132.73
  Q 182.92 163.07 201.75 193.08
  Q 202.25 193.88 202.25 192.94
  Q 202.23 185.14 202.28 176.53
  Q 202.29 174.82 201.45 173.36
  Q 188.82 151.44 176.48 130.02
  Q 176.14 129.43 176.82 129.40
  C 183.72 129.15 192.07 124.50 194.60 117.44
  C 197.57 109.14 191.84 100.36 186.99 94.04
  Q 186.11 92.90 187.17 93.88"
/>
<path stroke="#808080" vector-effect="non-scaling-stroke" d="
  M 93.33 163.54
  Q 98.09 166.37 101.89 170.64
  Q 118.69 189.53 135.87 209.87
  A 0.76 0.73 -19.5 0 0 136.44 210.13
  L 143.16 210.13
  A 0.08 0.08 0.0 0 0 143.22 209.99
  Q 126.69 190.46 108.56 169.66
  C 103.19 163.49 89.18 150.62 80.73 155.14
  Q 80.21 155.42 79.67 155.18
  C 73.63 152.41 62.85 150.40 60.29 159.26
  C 58.49 165.53 61.14 170.60 61.72 176.66
  Q 62.46 184.49 67.08 193.11
  C 70.25 199.01 75.22 204.10 79.35 209.48
  A 1.67 1.66 -18.3 0 0 80.65 210.13
  L 93.97 210.13
  A 0.38 0.38 0.0 0 0 94.28 209.52
  L 87.89 201.28
  Q 87.44 200.70 88.17 200.62
  Q 96.93 199.60 102.74 191.41
  C 109.75 181.52 101.36 170.47 93.23 163.68
  Q 92.42 163.00 93.33 163.54"
/>
<path stroke="#808080" vector-effect="non-scaling-stroke" d="
  M 67.32 112.68
  Q 79.35 115.79 90.75 114.28
  Q 93.77 113.88 90.76 113.39
  C 84.14 112.31 77.17 109.61 72.27 105.20
  Q 71.03 104.09 72.65 104.48
  Q 78.57 105.92 85.46 106.32
  Q 86.54 106.39 85.59 105.88
  C 74.40 99.96 67.01 89.61 63.38 77.22
  A 0.66 0.66 0.0 0 0 62.75 76.75
  L 60.72 76.74
  A 1.11 1.10 -82.0 0 0 59.66 77.54
  Q 57.35 85.50 56.12 94.94
  Q 53.58 114.49 70.99 122.36
  Q 74.88 124.12 78.88 123.27
  Q 81.41 122.73 78.94 121.97
  C 74.48 120.61 69.24 117.49 66.93 113.17
  Q 66.56 112.48 67.32 112.68"
/>
<path stroke="#808080" vector-effect="non-scaling-stroke" d="
  M 104.41 92.26
  Q 101.23 90.69 97.82 90.24
  A 1.29 1.29 0.0 0 0 96.48 92.03
  Q 97.33 94.01 98.73 95.62
  Q 103.10 100.64 107.50 105.42
  Q 116.75 115.50 123.46 127.72
  Q 124.52 129.64 126.25 128.29
  C 131.14 124.47 129.53 117.13 126.79 112.41
  Q 119.45 99.75 104.41 92.26"
/>
<path stroke="#808080" vector-effect="non-scaling-stroke" d="
  M 169.37 83.49
  Q 167.03 82.16 164.35 81.82
  A 1.19 1.19 0.0 0 0 163.07 83.35
  Q 163.54 84.86 164.35 85.99
  Q 168.74 92.10 173.64 98.46
  C 178.53 104.80 182.46 111.93 185.82 119.21
  Q 186.94 121.65 189.01 119.92
  C 193.26 116.35 192.56 109.94 190.45 105.43
  Q 184.11 91.84 169.37 83.49"
/>
<path stroke="#808080" vector-effect="non-scaling-stroke" d="
  M 76.57 157.04
  Q 73.24 155.65 69.64 155.44
  A 1.30 1.30 0.0 0 0 68.42 157.34
  Q 69.04 158.51 70.01 159.52
  C 75.92 165.61 82.45 170.98 87.91 177.36
  Q 92.82 183.10 97.09 189.47
  A 1.54 1.53 50.4 0 0 99.46 189.70
  C 104.80 184.31 100.89 176.46 96.74 171.49
  C 91.47 165.17 84.31 160.26 76.57 157.04"
/>
</g>
<path fill="#ffffff" d="
  M 121.87 0.00
  L 134.24 0.00
  Q 139.12 0.58 143.98 1.20
  Q 175.60 5.19 200.59 22.56
  C 230.61 43.43 251.06 76.44 255.04 112.79
  Q 255.54 117.33 256.00 121.88
  L 256.00 133.23
  Q 253.53 178.77 225.15 211.38
  C 197.75 242.87 157.78 259.25 116.08 255.41
  C 90.83 253.08 65.96 243.07 46.38 226.59
  C 21.49 205.63 4.46 175.95 0.96 143.29
  Q 0.45 138.59 0.00 133.87
  L 0.00 122.01
  Q 0.56 117.00 1.19 112.02
  Q 4.67 84.27 19.00 60.86
  Q 24.09 52.55 30.84 44.77
  Q 66.14 4.06 121.87 0.00
  Z
  M 83.92 118.64
  L 88.05 118.61
  Q 88.57 118.61 88.69 119.12
  C 90.22 125.68 92.51 131.72 96.60 137.33
  Q 123.88 174.72 149.25 209.61
  Q 149.63 210.12 150.26 210.12
  L 162.31 210.13
  Q 162.87 210.14 162.55 209.67
  L 114.28 139.50
  Q 113.93 138.99 114.55 138.92
  Q 122.50 138.10 128.67 131.46
  C 138.35 121.03 129.21 107.31 120.77 99.91
  Q 120.63 99.79 120.59 99.62
  Q 120.48 99.16 120.86 99.44
  Q 126.66 103.83 130.59 108.91
  Q 139.14 119.96 148.55 132.74
  Q 175.43 169.23 201.67 205.50
  Q 202.25 206.31 202.25 205.31
  L 202.25 197.21
  Q 202.25 196.54 201.85 195.99
  Q 168.38 149.82 138.38 109.71
  C 132.47 101.81 120.13 87.67 108.85 90.66
  Q 108.27 90.82 107.74 90.53
  C 98.76 85.71 86.90 85.43 86.77 98.92
  Q 86.76 99.85 86.09 99.21
  Q 77.37 90.94 71.19 78.71
  Q 70.20 76.75 70.21 74.37
  Q 70.29 59.96 70.24 45.81
  Q 70.24 45.13 69.55 45.13
  L 58.29 45.12
  Q 57.75 45.12 57.75 45.66
  Q 57.72 59.81 57.79 73.85
  Q 57.80 76.82 56.99 79.68
  C 54.22 89.43 51.85 102.73 55.89 111.92
  C 59.40 119.91 67.14 125.56 75.96 126.11
  C 79.77 126.35 84.21 125.57 87.03 123.03
  Q 87.77 122.37 86.92 121.85
  Q 85.11 120.73 83.68 119.20
  Q 83.17 118.65 83.92 118.64
  Z
  M 187.17 93.88
  C 193.45 99.74 197.71 108.09 201.82 115.55
  Q 202.31 116.45 202.28 115.42
  Q 202.17 111.23 202.32 106.77
  Q 202.37 104.99 201.54 103.52
  C 196.67 95.01 185.15 80.56 174.52 82.69
  Q 173.98 82.79 173.52 82.51
  C 167.20 78.65 157.72 76.19 154.35 85.12
  Q 152.70 89.51 153.18 94.82
  Q 153.49 98.16 153.29 101.90
  Q 152.87 109.77 155.83 118.51
  Q 157.48 123.38 163.48 132.73
  Q 182.92 163.07 201.75 193.08
  Q 202.25 193.88 202.25 192.94
  Q 202.23 185.14 202.28 176.53
  Q 202.29 174.82 201.45 173.36
  Q 188.82 151.44 176.48 130.02
  Q 176.14 129.43 176.82 129.40
  C 183.72 129.15 192.07 124.50 194.60 117.44
  C 197.57 109.14 191.84 100.36 186.99 94.04
  Q 186.11 92.90 187.17 93.88
  Z
  M 93.33 163.54
  Q 98.09 166.37 101.89 170.64
  Q 118.69 189.53 135.87 209.87
  A 0.76 0.73 -19.5 0 0 136.44 210.13
  L 143.16 210.13
  A 0.08 0.08 0.0 0 0 143.22 209.99
  Q 126.69 190.46 108.56 169.66
  C 103.19 163.49 89.18 150.62 80.73 155.14
  Q 80.21 155.42 79.67 155.18
  C 73.63 152.41 62.85 150.40 60.29 159.26
  C 58.49 165.53 61.14 170.60 61.72 176.66
  Q 62.46 184.49 67.08 193.11
  C 70.25 199.01 75.22 204.10 79.35 209.48
  A 1.67 1.66 -18.3 0 0 80.65 210.13
  L 93.97 210.13
  A 0.38 0.38 0.0 0 0 94.28 209.52
  L 87.89 201.28
  Q 87.44 200.70 88.17 200.62
  Q 96.93 199.60 102.74 191.41
  C 109.75 181.52 101.36 170.47 93.23 163.68
  Q 92.42 163.00 93.33 163.54
  Z"
/>
<path fill="#000000" d="
  M 83.68 119.20
  Q 85.11 120.73 86.92 121.85
  Q 87.77 122.37 87.03 123.03
  C 84.21 125.57 79.77 126.35 75.96 126.11
  C 67.14 125.56 59.40 119.91 55.89 111.92
  C 51.85 102.73 54.22 89.43 56.99 79.68
  Q 57.80 76.82 57.79 73.85
  Q 57.72 59.81 57.75 45.66
  Q 57.75 45.12 58.29 45.12
  L 69.55 45.13
  Q 70.24 45.13 70.24 45.81
  Q 70.29 59.96 70.21 74.37
  Q 70.20 76.75 71.19 78.71
  Q 77.37 90.94 86.09 99.21
  Q 86.76 99.85 86.77 98.92
  C 86.90 85.43 98.76 85.71 107.74 90.53
  Q 108.27 90.82 108.85 90.66
  C 120.13 87.67 132.47 101.81 138.38 109.71
  Q 168.38 149.82 201.85 195.99
  Q 202.25 196.54 202.25 197.21
  L 202.25 205.31
  Q 202.25 206.31 201.67 205.50
  Q 175.43 169.23 148.55 132.74
  Q 139.14 119.96 130.59 108.91
  Q 126.66 103.83 120.86 99.44
  Q 120.48 99.16 120.59 99.62
  Q 120.63 99.79 120.77 99.91
  C 129.21 107.31 138.35 121.03 128.67 131.46
  Q 122.50 138.10 114.55 138.92
  Q 113.93 138.99 114.28 139.50
  L 162.55 209.67
  Q 162.87 210.14 162.31 210.13
  L 150.26 210.12
  Q 149.63 210.12 149.25 209.61
  Q 123.88 174.72 96.60 137.33
  C 92.51 131.72 90.22 125.68 88.69 119.12
  Q 88.57 118.61 88.05 118.61
  L 83.92 118.64
  Q 83.17 118.65 83.68 119.20
  Z
  M 67.32 112.68
  Q 79.35 115.79 90.75 114.28
  Q 93.77 113.88 90.76 113.39
  C 84.14 112.31 77.17 109.61 72.27 105.20
  Q 71.03 104.09 72.65 104.48
  Q 78.57 105.92 85.46 106.32
  Q 86.54 106.39 85.59 105.88
  C 74.40 99.96 67.01 89.61 63.38 77.22
  A 0.66 0.66 0.0 0 0 62.75 76.75
  L 60.72 76.74
  A 1.11 1.10 -82.0 0 0 59.66 77.54
  Q 57.35 85.50 56.12 94.94
  Q 53.58 114.49 70.99 122.36
  Q 74.88 124.12 78.88 123.27
  Q 81.41 122.73 78.94 121.97
  C 74.48 120.61 69.24 117.49 66.93 113.17
  Q 66.56 112.48 67.32 112.68
  Z
  M 104.41 92.26
  Q 101.23 90.69 97.82 90.24
  A 1.29 1.29 0.0 0 0 96.48 92.03
  Q 97.33 94.01 98.73 95.62
  Q 103.10 100.64 107.50 105.42
  Q 116.75 115.50 123.46 127.72
  Q 124.52 129.64 126.25 128.29
  C 131.14 124.47 129.53 117.13 126.79 112.41
  Q 119.45 99.75 104.41 92.26
  Z"
/>
<path fill="#ffffff" d="
  M 66.93 113.17
  C 69.24 117.49 74.48 120.61 78.94 121.97
  Q 81.41 122.73 78.88 123.27
  Q 74.88 124.12 70.99 122.36
  Q 53.58 114.49 56.12 94.94
  Q 57.35 85.50 59.66 77.54
  A 1.11 1.10 -82.0 0 1 60.72 76.74
  L 62.75 76.75
  A 0.66 0.66 0.0 0 1 63.38 77.22
  C 67.01 89.61 74.40 99.96 85.59 105.88
  Q 86.54 106.39 85.46 106.32
  Q 78.57 105.92 72.65 104.48
  Q 71.03 104.09 72.27 105.20
  C 77.17 109.61 84.14 112.31 90.76 113.39
  Q 93.77 113.88 90.75 114.28
  Q 79.35 115.79 67.32 112.68
  Q 66.56 112.48 66.93 113.17
  Z"
/>
<path fill="#000000" d="
  M 186.99 94.04
  C 191.84 100.36 197.57 109.14 194.60 117.44
  C 192.07 124.50 183.72 129.15 176.82 129.40
  Q 176.14 129.43 176.48 130.02
  Q 188.82 151.44 201.45 173.36
  Q 202.29 174.82 202.28 176.53
  Q 202.23 185.14 202.25 192.94
  Q 202.25 193.88 201.75 193.08
  Q 182.92 163.07 163.48 132.73
  Q 157.48 123.38 155.83 118.51
  Q 152.87 109.77 153.29 101.90
  Q 153.49 98.16 153.18 94.82
  Q 152.70 89.51 154.35 85.12
  C 157.72 76.19 167.20 78.65 173.52 82.51
  Q 173.98 82.79 174.52 82.69
  C 185.15 80.56 196.67 95.01 201.54 103.52
  Q 202.37 104.99 202.32 106.77
  Q 202.17 111.23 202.28 115.42
  Q 202.31 116.45 201.82 115.55
  C 197.71 108.09 193.45 99.74 187.17 93.88
  Q 186.11 92.90 186.99 94.04
  Z
  M 169.37 83.49
  Q 167.03 82.16 164.35 81.82
  A 1.19 1.19 0.0 0 0 163.07 83.35
  Q 163.54 84.86 164.35 85.99
  Q 168.74 92.10 173.64 98.46
  C 178.53 104.80 182.46 111.93 185.82 119.21
  Q 186.94 121.65 189.01 119.92
  C 193.26 116.35 192.56 109.94 190.45 105.43
  Q 184.11 91.84 169.37 83.49
  Z"
/>
<path fill="#ffffff" d="
  M 169.37 83.49
  Q 184.11 91.84 190.45 105.43
  C 192.56 109.94 193.26 116.35 189.01 119.92
  Q 186.94 121.65 185.82 119.21
  C 182.46 111.93 178.53 104.80 173.64 98.46
  Q 168.74 92.10 164.35 85.99
  Q 163.54 84.86 163.07 83.35
  A 1.19 1.19 0.0 0 1 164.35 81.82
  Q 167.03 82.16 169.37 83.49
  Z"
/>
<path fill="#ffffff" d="
  M 104.41 92.26
  Q 119.45 99.75 126.79 112.41
  C 129.53 117.13 131.14 124.47 126.25 128.29
  Q 124.52 129.64 123.46 127.72
  Q 116.75 115.50 107.50 105.42
  Q 103.10 100.64 98.73 95.62
  Q 97.33 94.01 96.48 92.03
  A 1.29 1.29 0.0 0 1 97.82 90.24
  Q 101.23 90.69 104.41 92.26
  Z"
/>
<path fill="#000000" d="
  M 93.23 163.68
  C 101.36 170.47 109.75 181.52 102.74 191.41
  Q 96.93 199.60 88.17 200.62
  Q 87.44 200.70 87.89 201.28
  L 94.28 209.52
  A 0.38 0.38 0.0 0 1 93.97 210.13
  L 80.65 210.13
  A 1.67 1.66 -18.3 0 1 79.35 209.48
  C 75.22 204.10 70.25 199.01 67.08 193.11
  Q 62.46 184.49 61.72 176.66
  C 61.14 170.60 58.49 165.53 60.29 159.26
  C 62.85 150.40 73.63 152.41 79.67 155.18
  Q 80.21 155.42 80.73 155.14
  C 89.18 150.62 103.19 163.49 108.56 169.66
  Q 126.69 190.46 143.22 209.99
  A 0.08 0.08 0.0 0 1 143.16 210.13
  L 136.44 210.13
  A 0.76 0.73 -19.5 0 1 135.87 209.87
  Q 118.69 189.53 101.89 170.64
  Q 98.09 166.37 93.33 163.54
  Q 92.42 163.00 93.23 163.68
  Z
  M 76.57 157.04
  Q 73.24 155.65 69.64 155.44
  A 1.30 1.30 0.0 0 0 68.42 157.34
  Q 69.04 158.51 70.01 159.52
  C 75.92 165.61 82.45 170.98 87.91 177.36
  Q 92.82 183.10 97.09 189.47
  A 1.54 1.53 50.4 0 0 99.46 189.70
  C 104.80 184.31 100.89 176.46 96.74 171.49
  C 91.47 165.17 84.31 160.26 76.57 157.04
  Z"
/>
<path fill="#ffffff" d="
  M 76.57 157.04
  C 84.31 160.26 91.47 165.17 96.74 171.49
  C 100.89 176.46 104.80 184.31 99.46 189.70
  A 1.54 1.53 50.4 0 1 97.09 189.47
  Q 92.82 183.10 87.91 177.36
  C 82.45 170.98 75.92 165.61 70.01 159.52
  Q 69.04 158.51 68.42 157.34
  A 1.30 1.30 0.0 0 1 69.64 155.44
  Q 73.24 155.65 76.57 157.04
  Z"
/>
</svg>
