<?xml version="1.0" encoding="UTF-8" standalone="no"?>
<!DOCTYPE svg PUBLIC "-//W3C//DTD SVG 1.1//EN" "http://www.w3.org/Graphics/SVG/1.1/DTD/svg11.dtd">
<svg xmlns="http://www.w3.org/2000/svg" version="1.1" viewBox="0.00 0.00 256.00 360.00">
<g stroke-width="2.00" fill="none" stroke-linecap="butt">
<path stroke="#808080" vector-effect="non-scaling-stroke" d="
  M 155.71 78.33
  Q 155.70 76.26 155.80 73.83
  C 155.95 70.23 153.98 67.62 150.41 67.62
  Q 98.04 67.62 45.67 67.61
  C 42.06 67.61 39.98 69.73 39.98 73.15
  Q 40.01 121.03 40.01 166.01
  A 3.24 3.24 0.0 0 0 43.25 169.25
  L 57.49 169.25
  Q 58.25 169.25 58.23 168.48
  C 58.07 162.73 60.96 156.87 65.02 152.98
  C 71.39 146.86 80.90 145.19 88.99 148.74
  Q 101.07 154.04 102.32 168.66
  Q 102.37 169.25 102.96 169.25
  L 137.04 169.25
  Q 137.62 169.25 137.67 168.67
  Q 138.98 153.41 152.18 148.26
  C 158.11 145.94 165.57 146.59 170.95 149.91
  Q 181.29 156.29 181.85 168.65
  Q 181.88 169.25 182.48 169.25
  L 211.81 169.25
  A 3.31 3.31 0.0 0 0 215.12 165.94
  L 215.12 127.26
  A 7.92 7.88 -62.4 0 0 213.73 122.78
  Q 199.92 102.73 185.42 81.68
  C 184.29 80.04 182.76 79.12 180.81 79.12
  Q 167.90 79.13 156.50 79.13
  Q 155.71 79.12 155.71 78.33"
/>
<path stroke="#808080" vector-effect="non-scaling-stroke" d="
  M 163.64 77.35
  L 174.36 77.39
  A 0.40 0.40 0.0 0 0 174.76 76.99
  L 174.77 73.47
  A 3.53 3.34 0.2 0 0 171.25 70.12
  L 166.79 70.10
  A 3.53 3.34 0.2 0 0 163.25 73.43
  L 163.24 76.95
  A 0.40 0.40 0.0 0 0 163.64 77.35"
/>
<path stroke="#808080" vector-effect="non-scaling-stroke" d="
  M 99.25 169.27
  A 19.08 19.08 0.0 0 0 80.17 150.19
  A 19.08 19.08 0.0 0 0 61.09 169.27
  A 19.08 19.08 0.0 0 0 80.17 188.35
  A 19.08 19.08 0.0 0 0 99.25 169.27"
/>
<path stroke="#808080" vector-effect="non-scaling-stroke" d="
  M 178.84 169.27
  A 19.08 19.08 0.0 0 0 159.76 150.19
  A 19.08 19.08 0.0 0 0 140.68 169.27
  A 19.08 19.08 0.0 0 0 159.76 188.35
  A 19.08 19.08 0.0 0 0 178.84 169.27"
/>
<path stroke="#808080" vector-effect="non-scaling-stroke" d="
  M 90.75 98.43
  A 0.32 0.32 0.0 0 1 90.43 98.75
  L 77.57 98.75
  A 0.32 0.32 0.0 0 0 77.25 99.07
  L 77.25 110.79
  A 0.32 0.32 0.0 0 0 77.57 111.11
  L 90.43 111.14
  A 0.32 0.32 0.0 0 1 90.75 111.46
  L 90.75 124.31
  A 0.32 0.32 0.0 0 0 91.07 124.63
  L 102.81 124.62
  A 0.32 0.32 0.0 0 0 103.13 124.30
  L 103.13 111.44
  A 0.32 0.32 0.0 0 1 103.45 111.12
  L 116.30 111.13
  A 0.32 0.32 0.0 0 0 116.62 110.81
  L 116.63 99.07
  A 0.32 0.32 0.0 0 0 116.31 98.75
  L 103.44 98.75
  A 0.32 0.32 0.0 0 1 103.12 98.43
  L 103.13 85.46
  A 0.32 0.32 0.0 0 0 102.81 85.14
  L 91.07 85.13
  A 0.32 0.32 0.0 0 0 90.75 85.45
  L 90.75 98.43"
/>
<path stroke="#808080" vector-effect="non-scaling-stroke" d="
  M 181.91 87.05
  C 180.56 85.08 177.97 85.04 175.82 85.07
  Q 159.40 85.27 156.38 85.13
  Q 155.75 85.10 155.75 85.74
  L 155.75 124.25
  Q 155.75 124.75 156.25 124.75
  L 206.01 124.74
  A 0.90 0.90 0.0 0 0 206.88 123.60
  Q 206.74 123.05 206.41 122.57
  Q 193.87 104.42 181.91 87.05"
/>
<path stroke="#808080" vector-effect="non-scaling-stroke" d="
  M 86.66 169.26
  A 6.49 6.49 0.0 0 0 80.17 162.77
  A 6.49 6.49 0.0 0 0 73.68 169.26
  A 6.49 6.49 0.0 0 0 80.17 175.75
  A 6.49 6.49 0.0 0 0 86.66 169.26"
/>
<path stroke="#808080" vector-effect="non-scaling-stroke" d="
  M 166.25 169.26
  A 6.49 6.49 0.0 0 0 159.76 162.77
  A 6.49 6.49 0.0 0 0 153.27 169.26
  A 6.49 6.49 0.0 0 0 159.76 175.75
  A 6.49 6.49 0.0 0 0 166.25 169.26"
/>
</g>
<path fill="#ffffff" d="
  M 121.88 0.00
  L 134.24 0.00
  Q 139.11 0.59 143.98 1.21
  Q 176.46 5.34 202.53 23.94
  Q 210.53 29.65 217.78 36.85
  Q 252.72 71.54 256.00 122.37
  L 256.00 133.23
  Q 253.60 177.88 226.18 210.17
  C 198.82 242.38 158.35 259.32 116.14 255.42
  C 89.73 252.98 64.45 242.38 44.37 224.83
  Q 3.91 189.46 0.00 133.88
  L 0.00 122.03
  Q 1.34 99.82 8.80 81.24
  Q 23.28 45.17 54.03 23.54
  Q 81.06 4.53 114.02 0.94
  Q 117.96 0.51 121.88 0.00
  Z
  M 155.71 78.33
  Q 155.70 76.26 155.80 73.83
  C 155.95 70.23 153.98 67.62 150.41 67.62
  Q 98.04 67.62 45.67 67.61
  C 42.06 67.61 39.98 69.73 39.98 73.15
  Q 40.01 121.03 40.01 166.01
  A 3.24 3.24 0.0 0 0 43.25 169.25
  L 57.49 169.25
  Q 58.25 169.25 58.23 168.48
  C 58.07 162.73 60.96 156.87 65.02 152.98
  C 71.39 146.86 80.90 145.19 88.99 148.74
  Q 101.07 154.04 102.32 168.66
  Q 102.37 169.25 102.96 169.25
  L 137.04 169.25
  Q 137.62 169.25 137.67 168.67
  Q 138.98 153.41 152.18 148.26
  C 158.11 145.94 165.57 146.59 170.95 149.91
  Q 181.29 156.29 181.85 168.65
  Q 181.88 169.25 182.48 169.25
  L 211.81 169.25
  A 3.31 3.31 0.0 0 0 215.12 165.94
  L 215.12 127.26
  A 7.92 7.88 -62.4 0 0 213.73 122.78
  Q 199.92 102.73 185.42 81.68
  C 184.29 80.04 182.76 79.12 180.81 79.12
  Q 167.90 79.13 156.50 79.13
  Q 155.71 79.12 155.71 78.33
  Z
  M 163.64 77.35
  L 174.36 77.39
  A 0.40 0.40 0.0 0 0 174.76 76.99
  L 174.77 73.47
  A 3.53 3.34 0.2 0 0 171.25 70.12
  L 166.79 70.10
  A 3.53 3.34 0.2 0 0 163.25 73.43
  L 163.24 76.95
  A 0.40 0.40 0.0 0 0 163.64 77.35
  Z
  M 99.25 169.27
  A 19.08 19.08 0.0 0 0 80.17 150.19
  A 19.08 19.08 0.0 0 0 61.09 169.27
  A 19.08 19.08 0.0 0 0 80.17 188.35
  A 19.08 19.08 0.0 0 0 99.25 169.27
  Z
  M 178.84 169.27
  A 19.08 19.08 0.0 0 0 159.76 150.19
  A 19.08 19.08 0.0 0 0 140.68 169.27
  A 19.08 19.08 0.0 0 0 159.76 188.35
  A 19.08 19.08 0.0 0 0 178.84 169.27
  Z"
/>
<path fill="#000000" d="
  M 156.50 79.13
  Q 167.90 79.13 180.81 79.12
  C 182.76 79.12 184.29 80.04 185.42 81.68
  Q 199.92 102.73 213.73 122.78
  A 7.92 7.88 -62.4 0 1 215.12 127.26
  L 215.12 165.94
  A 3.31 3.31 0.0 0 1 211.81 169.25
  L 182.48 169.25
  Q 181.88 169.25 181.85 168.65
  Q 181.29 156.29 170.95 149.91
  C 165.57 146.59 158.11 145.94 152.18 148.26
  Q 138.98 153.41 137.67 168.67
  Q 137.62 169.25 137.04 169.25
  L 102.96 169.25
  Q 102.37 169.25 102.32 168.66
  Q 101.07 154.04 88.99 148.74
  C 80.90 145.19 71.39 146.86 65.02 152.98
  C 60.96 156.87 58.07 162.73 58.23 168.48
  Q 58.25 169.25 57.49 169.25
  L 43.25 169.25
  A 3.24 3.24 0.0 0 1 40.01 166.01
  Q 40.01 121.03 39.98 73.15
  C 39.98 69.73 42.06 67.61 45.67 67.61
  Q 98.04 67.62 150.41 67.62
  C 153.98 67.62 155.95 70.23 155.80 73.83
  Q 155.70 76.26 155.71 78.33
  Q 155.71 79.12 156.50 79.13
  Z
  M 90.75 98.43
  A 0.32 0.32 0.0 0 1 90.43 98.75
  L 77.57 98.75
  A 0.32 0.32 0.0 0 0 77.25 99.07
  L 77.25 110.79
  A 0.32 0.32 0.0 0 0 77.57 111.11
  L 90.43 111.14
  A 0.32 0.32 0.0 0 1 90.75 111.46
  L 90.75 124.31
  A 0.32 0.32 0.0 0 0 91.07 124.63
  L 102.81 124.62
  A 0.32 0.32 0.0 0 0 103.13 124.30
  L 103.13 111.44
  A 0.32 0.32 0.0 0 1 103.45 111.12
  L 116.30 111.13
  A 0.32 0.32 0.0 0 0 116.62 110.81
  L 116.63 99.07
  A 0.32 0.32 0.0 0 0 116.31 98.75
  L 103.44 98.75
  A 0.32 0.32 0.0 0 1 103.12 98.43
  L 103.13 85.46
  A 0.32 0.32 0.0 0 0 102.81 85.14
  L 91.07 85.13
  A 0.32 0.32 0.0 0 0 90.75 85.45
  L 90.75 98.43
  Z
  M 181.91 87.05
  C 180.56 85.08 177.97 85.04 175.82 85.07
  Q 159.40 85.27 156.38 85.13
  Q 155.75 85.10 155.75 85.74
  L 155.75 124.25
  Q 155.75 124.75 156.25 124.75
  L 206.01 124.74
  A 0.90 0.90 0.0 0 0 206.88 123.60
  Q 206.74 123.05 206.41 122.57
  Q 193.87 104.42 181.91 87.05
  Z"
/>
<path fill="#000000" d="
  M 163.64 77.35
  A 0.40 0.40 0.0 0 1 163.24 76.95
  L 163.25 73.43
  A 3.53 3.34 0.2 0 1 166.79 70.10
  L 171.25 70.12
  A 3.53 3.34 0.2 0 1 174.77 73.47
  L 174.76 76.99
  A 0.40 0.40 0.0 0 1 174.36 77.39
  L 163.64 77.35
  Z"
/>
<path fill="#ffffff" d="
  M 90.75 98.43
  L 90.75 85.45
  A 0.32 0.32 0.0 0 1 91.07 85.13
  L 102.81 85.14
  A 0.32 0.32 0.0 0 1 103.13 85.46
  L 103.12 98.43
  A 0.32 0.32 0.0 0 0 103.44 98.75
  L 116.31 98.75
  A 0.32 0.32 0.0 0 1 116.63 99.07
  L 116.62 110.81
  A 0.32 0.32 0.0 0 1 116.30 111.13
  L 103.45 111.12
  A 0.32 0.32 0.0 0 0 103.13 111.44
  L 103.13 124.30
  A 0.32 0.32 0.0 0 1 102.81 124.62
  L 91.07 124.63
  A 0.32 0.32 0.0 0 1 90.75 124.31
  L 90.75 111.46
  A 0.32 0.32 0.0 0 0 90.43 111.14
  L 77.57 111.11
  A 0.32 0.32 0.0 0 1 77.25 110.79
  L 77.25 99.07
  A 0.32 0.32 0.0 0 1 77.57 98.75
  L 90.43 98.75
  A 0.32 0.32 0.0 0 0 90.75 98.43
  Z"
/>
<path fill="#ffffff" d="
  M 175.82 85.07
  C 177.97 85.04 180.56 85.08 181.91 87.05
  Q 193.87 104.42 206.41 122.57
  Q 206.74 123.05 206.88 123.60
  A 0.90 0.90 0.0 0 1 206.01 124.74
  L 156.25 124.75
  Q 155.75 124.75 155.75 124.25
  L 155.75 85.74
  Q 155.75 85.10 156.38 85.13
  Q 159.40 85.27 175.82 85.07
  Z"
/>
<path fill="#000000" d="
  M 99.25 169.27
  A 19.08 19.08 0.0 0 1 80.17 188.35
  A 19.08 19.08 0.0 0 1 61.09 169.27
  A 19.08 19.08 0.0 0 1 80.17 150.19
  A 19.08 19.08 0.0 0 1 99.25 169.27
  Z
  M 86.66 169.26
  A 6.49 6.49 0.0 0 0 80.17 162.77
  A 6.49 6.49 0.0 0 0 73.68 169.26
  A 6.49 6.49 0.0 0 0 80.17 175.75
  A 6.49 6.49 0.0 0 0 86.66 169.26
  Z"
/>
<path fill="#000000" d="
  M 178.84 169.27
  A 19.08 19.08 0.0 0 1 159.76 188.35
  A 19.08 19.08 0.0 0 1 140.68 169.27
  A 19.08 19.08 0.0 0 1 159.76 150.19
  A 19.08 19.08 0.0 0 1 178.84 169.27
  Z
  M 166.25 169.26
  A 6.49 6.49 0.0 0 0 159.76 162.77
  A 6.49 6.49 0.0 0 0 153.27 169.26
  A 6.49 6.49 0.0 0 0 159.76 175.75
  A 6.49 6.49 0.0 0 0 166.25 169.26
  Z"
/>
<circle fill="#ffffff" cx="80.17" cy="169.26" r="6.49"/>
<circle fill="#ffffff" cx="159.76" cy="169.26" r="6.49"/>
</svg>
