<?xml version="1.0" encoding="UTF-8" standalone="no"?>
<!DOCTYPE svg PUBLIC "-//W3C//DTD SVG 1.1//EN" "http://www.w3.org/Graphics/SVG/1.1/DTD/svg11.dtd">
<svg xmlns="http://www.w3.org/2000/svg" version="1.1" viewBox="0.00 0.00 256.00 360.00">
<g stroke-width="2.00" fill="none" stroke-linecap="butt">
<path stroke="#808080" vector-effect="non-scaling-stroke" d="
  M 132.07 54.48
  A 14.49 14.49 0.0 0 0 117.58 39.99
  A 14.49 14.49 0.0 0 0 103.09 54.48
  A 14.49 14.49 0.0 0 0 117.58 68.97
  A 14.49 14.49 0.0 0 0 132.07 54.48"
/>
<path stroke="#808080" vector-effect="non-scaling-stroke" d="
  M 101.82 89.52
  C 102.03 82.39 100.78 76.05 106.20 70.23
  Q 106.53 69.87 106.11 69.62
  Q 104.34 68.55 102.66 66.34
  Q 102.35 65.93 102.00 66.31
  C 95.65 73.17 95.89 80.74 96.17 89.43
  Q 96.19 90.14 95.51 90.33
  Q 88.32 92.37 85.77 99.46
  C 84.86 101.99 85.22 104.81 85.06 107.47
  Q 84.84 111.15 85.55 113.21
  Q 87.27 118.24 93.32 117.70
  Q 95.24 117.53 96.02 115.77
  Q 96.30 115.13 96.15 114.52
  Q 95.47 111.82 92.52 112.03
  Q 91.82 112.07 91.23 111.78
  A 0.81 0.80 13.0 0 1 90.79 111.08
  C 90.67 106.11 89.73 99.87 94.68 96.94
  C 100.24 93.64 107.11 97.19 107.23 103.71
  Q 107.30 107.51 107.21 111.38
  A 0.58 0.58 0.0 0 1 106.65 111.95
  Q 105.49 112.00 104.33 112.05
  C 101.22 112.19 100.98 117.17 104.35 117.66
  Q 109.45 118.40 111.89 114.51
  C 113.74 111.54 113.14 104.15 112.58 100.95
  Q 111.23 93.14 102.34 90.26
  Q 101.81 90.08 101.82 89.52"
/>
<path stroke="#808080" vector-effect="non-scaling-stroke" d="
  M 138.85 89.61
  Q 138.86 85.49 138.90 81.52
  Q 138.98 72.55 133.06 66.37
  A 0.39 0.39 0.0 0 0 132.47 66.40
  Q 131.01 68.27 128.93 69.78
  Q 128.54 70.06 128.88 70.40
  Q 132.56 74.10 132.93 78.73
  Q 133.31 83.40 133.10 89.86
  Q 133.08 90.36 132.64 90.60
  Q 126.10 94.10 127.84 100.90
  C 129.88 108.89 141.94 109.03 144.15 101.23
  Q 146.14 94.21 139.42 90.56
  Q 138.85 90.26 138.85 89.61"
/>
<path stroke="#808080" vector-effect="non-scaling-stroke" d="
  M 119.09 140.64
  A 0.30 0.29 90.0 0 1 119.38 140.94
  L 119.36 153.02
  Q 119.36 154.09 119.96 153.21
  C 124.28 146.96 129.25 148.49 135.71 148.23
  A 0.47 0.47 0.0 0 0 136.16 147.76
  L 136.05 112.28
  Q 136.05 111.67 135.44 111.61
  Q 126.13 110.62 123.55 102.36
  Q 121.00 94.22 128.18 87.86
  Q 128.57 87.52 128.59 87.02
  C 128.82 82.69 129.17 77.42 126.18 74.06
  Q 125.79 73.62 125.21 73.62
  L 109.76 73.62
  Q 109.24 73.62 108.90 74.02
  C 105.94 77.60 106.43 81.96 106.51 86.29
  Q 106.51 86.85 107.01 87.11
  Q 115.30 91.55 117.14 100.14
  C 117.80 103.19 117.37 106.34 117.54 109.46
  C 117.95 117.13 113.02 122.33 105.09 122.34
  Q 101.78 122.34 99.71 120.27
  Q 98.97 119.53 98.97 120.58
  Q 99.04 160.97 98.98 206.59
  Q 98.97 208.87 99.62 210.66
  C 101.54 216.00 108.26 217.56 112.59 214.18
  Q 115.76 211.70 115.76 207.36
  Q 115.74 172.51 115.74 140.87
  Q 115.74 140.61 116.01 140.61
  L 119.09 140.64"
/>
<path stroke="#808080" vector-effect="non-scaling-stroke" d="
  M 144.43 137.50
  Q 144.60 139.01 143.11 138.72
  Q 138.04 137.75 138.09 142.29
  Q 138.15 147.72 138.14 153.30
  Q 138.14 153.84 137.59 153.86
  Q 134.51 153.98 131.13 153.82
  C 127.40 153.65 124.11 154.81 124.11 158.93
  Q 124.13 174.30 124.12 189.85
  A 4.77 4.77 0.0 0 0 128.89 194.63
  L 175.03 194.62
  A 4.69 4.68 0.1 0 0 179.72 189.95
  Q 179.78 175.39 179.74 158.87
  C 179.73 155.48 177.19 153.74 173.97 153.83
  Q 170.03 153.95 166.11 153.83
  A 0.36 0.36 0.0 0 1 165.77 153.47
  Q 165.72 147.40 165.74 141.44
  Q 165.74 140.12 164.62 139.26
  Q 163.41 138.34 160.46 138.83
  Q 158.73 139.12 158.52 137.38
  Q 155.64 113.87 153.26 91.62
  Q 152.56 85.10 150.80 82.03
  Q 148.16 77.43 143.08 74.90
  Q 142.63 74.68 142.80 75.15
  Q 143.56 77.17 143.53 87.24
  Q 143.53 87.63 143.84 87.88
  C 151.79 94.30 150.73 105.33 141.81 110.34
  Q 141.30 110.62 141.37 111.20
  L 144.43 137.50"
/>
<path stroke="#808080" vector-effect="non-scaling-stroke" d="
  M 82.17 96.59
  Q 84.52 90.38 91.25 87.09
  Q 91.72 86.86 91.70 86.33
  Q 91.34 79.39 92.20 75.39
  Q 92.32 74.82 91.81 75.08
  C 85.20 78.46 82.59 83.72 82.07 90.74
  Q 81.84 93.96 81.43 96.89
  Q 81.30 97.83 81.93 97.12
  Q 81.99 97.05 82.17 96.59"
/>
<path stroke="#808080" vector-effect="non-scaling-stroke" d="
  M 100.15 100.42
  Q 99.00 99.94 99.00 101.18
  L 99.00 109.54
  A 0.27 0.26 -22.6 0 0 99.45 109.72
  Q 100.65 108.54 102.12 107.96
  Q 102.63 107.76 102.62 107.22
  L 102.62 103.00
  Q 102.62 101.44 101.17 100.84
  L 100.15 100.42"
/>
<path stroke="#808080" vector-effect="non-scaling-stroke" d="
  M 91.91 122.24
  C 85.24 122.35 80.36 116.82 80.46 110.33
  Q 80.48 108.52 80.42 106.66
  A 0.05 0.04 -43.6 0 0 80.33 106.66
  Q 78.36 122.36 76.49 139.25
  Q 76.02 143.51 77.58 145.55
  C 81.62 150.83 89.46 148.44 90.23 141.89
  Q 91.52 130.87 92.46 122.84
  Q 92.53 122.23 91.91 122.24"
/>
<path stroke="#808080" vector-effect="non-scaling-stroke" d="
  M 135.64 200.35
  C 129.80 200.46 123.45 201.22 119.92 195.31
  Q 119.39 194.43 119.39 195.46
  Q 119.37 201.17 119.37 207.29
  C 119.36 216.59 131.54 219.39 135.37 211.04
  C 136.74 208.05 135.97 204.18 136.18 200.92
  A 0.53 0.53 0.0 0 0 135.64 200.35"
/>
<path stroke="#808080" vector-effect="non-scaling-stroke" d="
  M 138.92 98.47
  A 2.87 2.87 0.0 0 0 136.05 95.60
  A 2.87 2.87 0.0 0 0 133.18 98.47
  A 2.87 2.87 0.0 0 0 136.05 101.34
  A 2.87 2.87 0.0 0 0 138.92 98.47"
/>
<path stroke="#808080" vector-effect="non-scaling-stroke" d="
  M 154.02 148.09
  Q 148.60 149.35 145.74 144.72
  Q 145.45 144.26 144.93 144.15
  Q 144.47 144.06 144.18 144.41
  Q 143.88 144.76 143.88 145.22
  Q 143.88 149.24 143.85 153.23
  Q 143.85 153.86 144.48 153.86
  L 159.43 153.89
  Q 160.00 153.89 160.00 153.32
  L 160.00 145.74
  Q 160.00 142.44 157.93 145.02
  C 156.88 146.33 155.73 147.69 154.02 148.09"
/>
<path stroke="#808080" vector-effect="non-scaling-stroke" d="
  M 145.25 168.25
  L 140.99 168.26
  A 1.99 1.99 0.0 0 0 139.00 170.26
  L 139.01 178.39
  A 1.86 1.86 0.0 0 0 140.88 180.25
  L 145.37 180.24
  Q 146.00 180.24 146.00 180.87
  L 146.00 185.51
  A 1.75 1.75 0.0 0 0 147.76 187.26
  L 156.21 187.22
  A 1.63 1.63 0.0 0 0 157.83 185.61
  L 157.89 180.80
  Q 157.90 180.26 158.44 180.26
  L 163.25 180.24
  A 1.55 1.55 0.0 0 0 164.79 178.76
  Q 164.97 174.51 164.85 170.24
  Q 164.79 168.24 162.74 168.24
  Q 160.53 168.25 158.37 168.26
  Q 157.90 168.27 157.89 167.80
  L 157.83 162.60
  A 1.23 1.23 0.0 0 0 156.60 161.39
  L 147.63 161.36
  A 1.63 1.63 0.0 0 0 146.00 162.99
  L 146.00 167.50
  Q 146.00 168.25 145.25 168.25"
/>
</g>
<path fill="#ffffff" d="
  M 121.87 0.00
  L 134.24 0.00
  Q 139.12 0.58 143.98 1.20
  Q 175.55 5.19 200.58 22.55
  C 231.70 44.14 250.90 76.94 255.28 114.47
  C 255.56 116.89 255.53 119.45 256.00 121.88
  L 256.00 133.23
  Q 253.60 177.81 226.17 210.17
  C 198.88 242.38 158.27 259.32 116.15 255.41
  C 89.71 252.96 64.46 242.39 44.37 224.83
  Q 3.91 189.46 0.00 133.88
  L 0.00 122.01
  Q 0.56 117.00 1.19 112.02
  Q 4.67 84.27 19.00 60.86
  Q 24.09 52.55 30.84 44.77
  Q 66.14 4.06 121.87 0.00
  Z
  M 132.07 54.48
  A 14.49 14.49 0.0 0 0 117.58 39.99
  A 14.49 14.49 0.0 0 0 103.09 54.48
  A 14.49 14.49 0.0 0 0 117.58 68.97
  A 14.49 14.49 0.0 0 0 132.07 54.48
  Z
  M 101.82 89.52
  C 102.03 82.39 100.78 76.05 106.20 70.23
  Q 106.53 69.87 106.11 69.62
  Q 104.34 68.55 102.66 66.34
  Q 102.35 65.93 102.00 66.31
  C 95.65 73.17 95.89 80.74 96.17 89.43
  Q 96.19 90.14 95.51 90.33
  Q 88.32 92.37 85.77 99.46
  C 84.86 101.99 85.22 104.81 85.06 107.47
  Q 84.84 111.15 85.55 113.21
  Q 87.27 118.24 93.32 117.70
  Q 95.24 117.53 96.02 115.77
  Q 96.30 115.13 96.15 114.52
  Q 95.47 111.82 92.52 112.03
  Q 91.82 112.07 91.23 111.78
  A 0.81 0.80 13.0 0 1 90.79 111.08
  C 90.67 106.11 89.73 99.87 94.68 96.94
  C 100.24 93.64 107.11 97.19 107.23 103.71
  Q 107.30 107.51 107.21 111.38
  A 0.58 0.58 0.0 0 1 106.65 111.95
  Q 105.49 112.00 104.33 112.05
  C 101.22 112.19 100.98 117.17 104.35 117.66
  Q 109.45 118.40 111.89 114.51
  C 113.74 111.54 113.14 104.15 112.58 100.95
  Q 111.23 93.14 102.34 90.26
  Q 101.81 90.08 101.82 89.52
  Z
  M 138.85 89.61
  Q 138.86 85.49 138.90 81.52
  Q 138.98 72.55 133.06 66.37
  A 0.39 0.39 0.0 0 0 132.47 66.40
  Q 131.01 68.27 128.93 69.78
  Q 128.54 70.06 128.88 70.40
  Q 132.56 74.10 132.93 78.73
  Q 133.31 83.40 133.10 89.86
  Q 133.08 90.36 132.64 90.60
  Q 126.10 94.10 127.84 100.90
  C 129.88 108.89 141.94 109.03 144.15 101.23
  Q 146.14 94.21 139.42 90.56
  Q 138.85 90.26 138.85 89.61
  Z
  M 119.09 140.64
  A 0.30 0.29 90.0 0 1 119.38 140.94
  L 119.36 153.02
  Q 119.36 154.09 119.96 153.21
  C 124.28 146.96 129.25 148.49 135.71 148.23
  A 0.47 0.47 0.0 0 0 136.16 147.76
  L 136.05 112.28
  Q 136.05 111.67 135.44 111.61
  Q 126.13 110.62 123.55 102.36
  Q 121.00 94.22 128.18 87.86
  Q 128.57 87.52 128.59 87.02
  C 128.82 82.69 129.17 77.42 126.18 74.06
  Q 125.79 73.62 125.21 73.62
  L 109.76 73.62
  Q 109.24 73.62 108.90 74.02
  C 105.94 77.60 106.43 81.96 106.51 86.29
  Q 106.51 86.85 107.01 87.11
  Q 115.30 91.55 117.14 100.14
  C 117.80 103.19 117.37 106.34 117.54 109.46
  C 117.95 117.13 113.02 122.33 105.09 122.34
  Q 101.78 122.34 99.71 120.27
  Q 98.97 119.53 98.97 120.58
  Q 99.04 160.97 98.98 206.59
  Q 98.97 208.87 99.62 210.66
  C 101.54 216.00 108.26 217.56 112.59 214.18
  Q 115.76 211.70 115.76 207.36
  Q 115.74 172.51 115.74 140.87
  Q 115.74 140.61 116.01 140.61
  L 119.09 140.64
  Z
  M 144.43 137.50
  Q 144.60 139.01 143.11 138.72
  Q 138.04 137.75 138.09 142.29
  Q 138.15 147.72 138.14 153.30
  Q 138.14 153.84 137.59 153.86
  Q 134.51 153.98 131.13 153.82
  C 127.40 153.65 124.11 154.81 124.11 158.93
  Q 124.13 174.30 124.12 189.85
  A 4.77 4.77 0.0 0 0 128.89 194.63
  L 175.03 194.62
  A 4.69 4.68 0.1 0 0 179.72 189.95
  Q 179.78 175.39 179.74 158.87
  C 179.73 155.48 177.19 153.74 173.97 153.83
  Q 170.03 153.95 166.11 153.83
  A 0.36 0.36 0.0 0 1 165.77 153.47
  Q 165.72 147.40 165.74 141.44
  Q 165.74 140.12 164.62 139.26
  Q 163.41 138.34 160.46 138.83
  Q 158.73 139.12 158.52 137.38
  Q 155.64 113.87 153.26 91.62
  Q 152.56 85.10 150.80 82.03
  Q 148.16 77.43 143.08 74.90
  Q 142.63 74.68 142.80 75.15
  Q 143.56 77.17 143.53 87.24
  Q 143.53 87.63 143.84 87.88
  C 151.79 94.30 150.73 105.33 141.81 110.34
  Q 141.30 110.62 141.37 111.20
  L 144.43 137.50
  Z
  M 82.17 96.59
  Q 84.52 90.38 91.25 87.09
  Q 91.72 86.86 91.70 86.33
  Q 91.34 79.39 92.20 75.39
  Q 92.32 74.82 91.81 75.08
  C 85.20 78.46 82.59 83.72 82.07 90.74
  Q 81.84 93.96 81.43 96.89
  Q 81.30 97.83 81.93 97.12
  Q 81.99 97.05 82.17 96.59
  Z
  M 100.15 100.42
  Q 99.00 99.94 99.00 101.18
  L 99.00 109.54
  A 0.27 0.26 -22.6 0 0 99.45 109.72
  Q 100.65 108.54 102.12 107.96
  Q 102.63 107.76 102.62 107.22
  L 102.62 103.00
  Q 102.62 101.44 101.17 100.84
  L 100.15 100.42
  Z
  M 91.91 122.24
  C 85.24 122.35 80.36 116.82 80.46 110.33
  Q 80.48 108.52 80.42 106.66
  A 0.05 0.04 -43.6 0 0 80.33 106.66
  Q 78.36 122.36 76.49 139.25
  Q 76.02 143.51 77.58 145.55
  C 81.62 150.83 89.46 148.44 90.23 141.89
  Q 91.52 130.87 92.46 122.84
  Q 92.53 122.23 91.91 122.24
  Z
  M 135.64 200.35
  C 129.80 200.46 123.45 201.22 119.92 195.31
  Q 119.39 194.43 119.39 195.46
  Q 119.37 201.17 119.37 207.29
  C 119.36 216.59 131.54 219.39 135.37 211.04
  C 136.74 208.05 135.97 204.18 136.18 200.92
  A 0.53 0.53 0.0 0 0 135.64 200.35
  Z"
/>
<circle fill="#000000" cx="117.58" cy="54.48" r="14.49"/>
<path fill="#000000" d="
  M 102.34 90.26
  Q 111.23 93.14 112.58 100.95
  C 113.14 104.15 113.74 111.54 111.89 114.51
  Q 109.45 118.40 104.35 117.66
  C 100.98 117.17 101.22 112.19 104.33 112.05
  Q 105.49 112.00 106.65 111.95
  A 0.58 0.58 0.0 0 0 107.21 111.38
  Q 107.30 107.51 107.23 103.71
  C 107.11 97.19 100.24 93.64 94.68 96.94
  C 89.73 99.87 90.67 106.11 90.79 111.08
  A 0.81 0.80 13.0 0 0 91.23 111.78
  Q 91.82 112.07 92.52 112.03
  Q 95.47 111.82 96.15 114.52
  Q 96.30 115.13 96.02 115.77
  Q 95.24 117.53 93.32 117.70
  Q 87.27 118.24 85.55 113.21
  Q 84.84 111.15 85.06 107.47
  C 85.22 104.81 84.86 101.99 85.77 99.46
  Q 88.32 92.37 95.51 90.33
  Q 96.19 90.14 96.17 89.43
  C 95.89 80.74 95.65 73.17 102.00 66.31
  Q 102.35 65.93 102.66 66.34
  Q 104.34 68.55 106.11 69.62
  Q 106.53 69.87 106.20 70.23
  C 100.78 76.05 102.03 82.39 101.82 89.52
  Q 101.81 90.08 102.34 90.26
  Z"
/>
<path fill="#000000" d="
  M 139.42 90.56
  Q 146.14 94.21 144.15 101.23
  C 141.94 109.03 129.88 108.89 127.84 100.90
  Q 126.10 94.10 132.64 90.60
  Q 133.08 90.36 133.10 89.86
  Q 133.31 83.40 132.93 78.73
  Q 132.56 74.10 128.88 70.40
  Q 128.54 70.06 128.93 69.78
  Q 131.01 68.27 132.47 66.40
  A 0.39 0.39 0.0 0 1 133.06 66.37
  Q 138.98 72.55 138.90 81.52
  Q 138.86 85.49 138.85 89.61
  Q 138.85 90.26 139.42 90.56
  Z
  M 138.92 98.47
  A 2.87 2.87 0.0 0 0 136.05 95.60
  A 2.87 2.87 0.0 0 0 133.18 98.47
  A 2.87 2.87 0.0 0 0 136.05 101.34
  A 2.87 2.87 0.0 0 0 138.92 98.47
  Z"
/>
<path fill="#000000" d="
  M 115.74 140.87
  Q 115.74 172.51 115.76 207.36
  Q 115.76 211.70 112.59 214.18
  C 108.26 217.56 101.54 216.00 99.62 210.66
  Q 98.97 208.87 98.98 206.59
  Q 99.04 160.97 98.97 120.58
  Q 98.97 119.53 99.71 120.27
  Q 101.78 122.34 105.09 122.34
  C 113.02 122.33 117.95 117.13 117.54 109.46
  C 117.37 106.34 117.80 103.19 117.14 100.14
  Q 115.30 91.55 107.01 87.11
  Q 106.51 86.85 106.51 86.29
  C 106.43 81.96 105.94 77.60 108.90 74.02
  Q 109.24 73.62 109.76 73.62
  L 125.21 73.62
  Q 125.79 73.62 126.18 74.06
  C 129.17 77.42 128.82 82.69 128.59 87.02
  Q 128.57 87.52 128.18 87.86
  Q 121.00 94.22 123.55 102.36
  Q 126.13 110.62 135.44 111.61
  Q 136.05 111.67 136.05 112.28
  L 136.16 147.76
  A 0.47 0.47 0.0 0 1 135.71 148.23
  C 129.25 148.49 124.28 146.96 119.96 153.21
  Q 119.36 154.09 119.36 153.02
  L 119.38 140.94
  A 0.30 0.29 90.0 0 0 119.09 140.64
  L 116.01 140.61
  Q 115.74 140.61 115.74 140.87
  Z"
/>
<path fill="#000000" d="
  M 144.43 137.50
  L 141.37 111.20
  Q 141.30 110.62 141.81 110.34
  C 150.73 105.33 151.79 94.30 143.84 87.88
  Q 143.53 87.63 143.53 87.24
  Q 143.56 77.17 142.80 75.15
  Q 142.63 74.68 143.08 74.90
  Q 148.16 77.43 150.80 82.03
  Q 152.56 85.10 153.26 91.62
  Q 155.64 113.87 158.52 137.38
  Q 158.73 139.12 160.46 138.83
  Q 163.41 138.34 164.62 139.26
  Q 165.74 140.12 165.74 141.44
  Q 165.72 147.40 165.77 153.47
  A 0.36 0.36 0.0 0 0 166.11 153.83
  Q 170.03 153.95 173.97 153.83
  C 177.19 153.74 179.73 155.48 179.74 158.87
  Q 179.78 175.39 179.72 189.95
  A 4.69 4.68 0.1 0 1 175.03 194.62
  L 128.89 194.63
  A 4.77 4.77 0.0 0 1 124.12 189.85
  Q 124.13 174.30 124.11 158.93
  C 124.11 154.81 127.40 153.65 131.13 153.82
  Q 134.51 153.98 137.59 153.86
  Q 138.14 153.84 138.14 153.30
  Q 138.15 147.72 138.09 142.29
  Q 138.04 137.75 143.11 138.72
  Q 144.60 139.01 144.43 137.50
  Z
  M 154.02 148.09
  Q 148.60 149.35 145.74 144.72
  Q 145.45 144.26 144.93 144.15
  Q 144.47 144.06 144.18 144.41
  Q 143.88 144.76 143.88 145.22
  Q 143.88 149.24 143.85 153.23
  Q 143.85 153.86 144.48 153.86
  L 159.43 153.89
  Q 160.00 153.89 160.00 153.32
  L 160.00 145.74
  Q 160.00 142.44 157.93 145.02
  C 156.88 146.33 155.73 147.69 154.02 148.09
  Z
  M 145.25 168.25
  L 140.99 168.26
  A 1.99 1.99 0.0 0 0 139.00 170.26
  L 139.01 178.39
  A 1.86 1.86 0.0 0 0 140.88 180.25
  L 145.37 180.24
  Q 146.00 180.24 146.00 180.87
  L 146.00 185.51
  A 1.75 1.75 0.0 0 0 147.76 187.26
  L 156.21 187.22
  A 1.63 1.63 0.0 0 0 157.83 185.61
  L 157.89 180.80
  Q 157.90 180.26 158.44 180.26
  L 163.25 180.24
  A 1.55 1.55 0.0 0 0 164.79 178.76
  Q 164.97 174.51 164.85 170.24
  Q 164.79 168.24 162.74 168.24
  Q 160.53 168.25 158.37 168.26
  Q 157.90 168.27 157.89 167.80
  L 157.83 162.60
  A 1.23 1.23 0.0 0 0 156.60 161.39
  L 147.63 161.36
  A 1.63 1.63 0.0 0 0 146.00 162.99
  L 146.00 167.50
  Q 146.00 168.25 145.25 168.25
  Z"
/>
<path fill="#000000" d="
  M 82.17 96.59
  Q 81.99 97.05 81.93 97.12
  Q 81.30 97.83 81.43 96.89
  Q 81.84 93.96 82.07 90.74
  C 82.59 83.72 85.20 78.46 91.81 75.08
  Q 92.32 74.82 92.20 75.39
  Q 91.34 79.39 91.70 86.33
  Q 91.72 86.86 91.25 87.09
  Q 84.52 90.38 82.17 96.59
  Z"
/>
<circle fill="#ffffff" cx="136.05" cy="98.47" r="2.87"/>
<path fill="#000000" d="
  M 100.15 100.42
  L 101.17 100.84
  Q 102.62 101.44 102.62 103.00
  L 102.62 107.22
  Q 102.63 107.76 102.12 107.96
  Q 100.65 108.54 99.45 109.72
  A 0.27 0.26 -22.6 0 1 99.00 109.54
  L 99.00 101.18
  Q 99.00 99.94 100.15 100.42
  Z"
/>
<path fill="#000000" d="
  M 80.46 110.33
  C 80.36 116.82 85.24 122.35 91.91 122.24
  Q 92.53 122.23 92.46 122.84
  Q 91.52 130.87 90.23 141.89
  C 89.46 148.44 81.62 150.83 77.58 145.55
  Q 76.02 143.51 76.49 139.25
  Q 78.36 122.36 80.33 106.66
  A 0.05 0.04 -43.6 0 1 80.42 106.66
  Q 80.48 108.52 80.46 110.33
  Z"
/>
<path fill="#ffffff" d="
  M 154.02 148.09
  C 155.73 147.69 156.88 146.33 157.93 145.02
  Q 160.00 142.44 160.00 145.74
  L 160.00 153.32
  Q 160.00 153.89 159.43 153.89
  L 144.48 153.86
  Q 143.85 153.86 143.85 153.23
  Q 143.88 149.24 143.88 145.22
  Q 143.88 144.76 144.18 144.41
  Q 144.47 144.06 144.93 144.15
  Q 145.45 144.26 145.74 144.72
  Q 148.60 149.35 154.02 148.09
  Z"
/>
<path fill="#ffffff" d="
  M 146.00 167.50
  L 146.00 162.99
  A 1.63 1.63 0.0 0 1 147.63 161.36
  L 156.60 161.39
  A 1.23 1.23 0.0 0 1 157.83 162.60
  L 157.89 167.80
  Q 157.90 168.27 158.37 168.26
  Q 160.53 168.25 162.74 168.24
  Q 164.79 168.24 164.85 170.24
  Q 164.97 174.51 164.79 178.76
  A 1.55 1.55 0.0 0 1 163.25 180.24
  L 158.44 180.26
  Q 157.90 180.26 157.89 180.80
  L 157.83 185.61
  A 1.63 1.63 0.0 0 1 156.21 187.22
  L 147.76 187.26
  A 1.75 1.75 0.0 0 1 146.00 185.51
  L 146.00 180.87
  Q 146.00 180.24 145.37 180.24
  L 140.88 180.25
  A 1.86 1.86 0.0 0 1 139.01 178.39
  L 139.00 170.26
  A 1.99 1.99 0.0 0 1 140.99 168.26
  L 145.25 168.25
  Q 146.00 168.25 146.00 167.50
  Z"
/>
<path fill="#000000" d="
  M 119.92 195.31
  C 123.45 201.22 129.80 200.46 135.64 200.35
  A 0.53 0.53 0.0 0 1 136.18 200.92
  C 135.97 204.18 136.74 208.05 135.37 211.04
  C 131.54 219.39 119.36 216.59 119.37 207.29
  Q 119.37 201.17 119.39 195.46
  Q 119.39 194.43 119.92 195.31
  Z"
/>
</svg>
