<?xml version="1.0" encoding="UTF-8" standalone="no"?>
<!DOCTYPE svg PUBLIC "-//W3C//DTD SVG 1.1//EN" "http://www.w3.org/Graphics/SVG/1.1/DTD/svg11.dtd">
<svg xmlns="http://www.w3.org/2000/svg" version="1.1" viewBox="0.00 0.00 256.00 404.00">
<g stroke-width="2.00" fill="none" stroke-linecap="butt">
<path stroke="#808080" vector-effect="non-scaling-stroke" d="
  M 171.03 91.84
  Q 168.97 103.64 166.67 113.74
  C 165.77 117.69 159.30 119.49 155.83 120.52
  Q 155.12 120.73 155.28 121.46
  L 159.91 141.81
  Q 160.03 142.30 159.85 142.78
  Q 155.53 154.58 151.50 165.63
  C 150.83 167.46 150.65 169.17 151.04 171.01
  Q 154.90 189.03 159.05 208.73
  C 159.96 213.10 160.41 217.68 165.34 219.43
  C 171.77 221.70 178.08 216.39 176.68 209.71
  Q 172.56 190.11 168.32 170.19
  Q 168.19 169.60 168.40 169.03
  L 179.58 138.56
  Q 179.74 138.12 180.20 138.00
  L 181.52 137.67
  Q 182.32 137.47 182.20 138.28
  L 177.56 168.49
  A 8.69 8.58 42.3 0 0 177.75 172.00
  Q 183.63 193.80 189.20 213.75
  C 191.56 222.23 203.63 221.93 205.63 213.58
  Q 206.23 211.06 204.83 206.14
  Q 200.34 190.35 196.01 174.23
  C 195.38 171.86 194.56 169.94 194.96 167.42
  Q 196.84 155.38 198.95 142.30
  C 199.51 138.88 199.61 135.14 198.90 131.81
  Q 193.73 107.52 188.00 81.01
  C 186.43 73.77 180.74 70.52 173.51 72.26
  Q 165.56 74.18 157.36 75.74
  C 152.94 76.58 149.40 79.42 148.30 83.81
  C 147.47 87.12 148.70 90.57 149.29 93.80
  A 0.27 0.27 0.0 0 0 149.75 93.93
  L 157.34 85.76
  Q 158.93 84.05 157.85 86.12
  L 150.40 100.41
  A 1.97 1.94 -86.0 0 1 149.35 101.34
  L 127.33 109.57
  Q 126.77 109.78 126.88 109.19
  Q 129.78 93.79 141.12 86.31
  Q 150.11 80.38 155.10 69.32
  A 1.24 1.22 1.6 0 1 155.79 68.68
  Q 165.05 65.33 166.15 56.12
  C 167.57 44.26 154.46 36.15 144.44 41.92
  Q 137.09 46.15 137.03 54.93
  Q 137.01 56.96 136.23 58.96
  Q 131.11 71.99 129.83 88.52
  Q 129.79 89.06 129.45 89.50
  Q 122.22 98.96 120.78 111.88
  C 120.67 112.93 119.99 113.52 119.45 114.39
  Q 119.08 114.98 118.58 114.50
  C 117.90 113.87 117.25 113.03 116.30 112.88
  Q 113.04 112.36 112.43 116.14
  Q 112.29 116.97 111.52 116.64
  Q 109.97 115.99 108.32 115.72
  Q 101.50 114.60 94.21 113.36
  Q 89.84 112.61 87.26 113.59
  Q 82.46 115.40 81.53 120.38
  Q 79.02 133.88 74.57 165.50
  Q 73.99 169.67 76.28 172.40
  Q 76.71 172.91 76.04 172.91
  Q 72.54 172.88 69.16 172.83
  Q 62.03 172.74 62.09 180.03
  Q 62.23 197.08 62.06 213.18
  C 61.96 222.27 74.31 222.28 74.05 213.21
  Q 73.92 208.68 74.02 204.74
  Q 74.03 204.13 74.65 204.13
  L 97.20 204.12
  Q 97.72 204.12 97.73 204.64
  Q 97.84 208.40 97.69 212.77
  C 97.36 222.34 109.71 222.02 109.74 213.83
  Q 109.79 193.95 109.74 177.44
  Q 109.74 177.17 110.00 177.19
  L 116.48 177.68
  Q 116.64 177.69 116.62 177.85
  Q 114.03 194.21 111.35 210.71
  C 109.62 221.36 124.70 223.71 126.36 212.97
  Q 129.46 192.99 132.83 172.58
  C 133.52 168.44 131.49 164.63 127.37 163.53
  Q 126.78 163.37 127.16 162.89
  C 130.41 158.77 128.98 154.20 124.31 152.43
  Q 113.77 148.43 105.16 145.03
  Q 104.58 144.80 104.45 144.20
  L 100.64 126.68
  Q 100.29 125.08 101.05 126.53
  L 107.39 138.68
  Q 107.69 139.25 108.29 139.49
  L 113.28 141.45
  Q 113.97 141.72 114.09 140.99
  L 115.72 131.04
  A 0.89 0.89 0.0 0 1 117.07 130.43
  C 121.36 133.11 122.98 128.86 122.88 125.54
  Q 122.85 124.45 123.91 124.72
  Q 125.93 125.25 127.94 124.50
  Q 142.04 119.27 158.17 113.19
  Q 160.20 112.42 161.12 110.70
  Q 165.95 101.64 170.73 91.74
  Q 171.23 90.71 171.03 91.84"
/>
<path stroke="#808080" vector-effect="non-scaling-stroke" d="
  M 119.31 94.14
  A 13.91 13.91 0.0 0 0 105.40 80.23
  A 13.91 13.91 0.0 0 0 91.49 94.14
  A 13.91 13.91 0.0 0 0 105.40 108.05
  A 13.91 13.91 0.0 0 0 119.31 94.14"
/>
<path stroke="#808080" vector-effect="non-scaling-stroke" d="
  M 148.11 70.61
  Q 148.41 70.07 148.73 69.54
  Q 149.08 68.95 148.41 68.82
  Q 143.99 67.94 140.80 64.38
  Q 140.28 63.81 140.05 64.55
  Q 137.26 73.50 136.18 82.35
  Q 136.10 82.95 136.62 82.64
  Q 143.81 78.22 148.11 70.61"
/>
<path stroke="#808080" vector-effect="non-scaling-stroke" d="
  M 93.27 151.49
  Q 90.58 140.16 88.28 129.18
  Q 87.84 127.10 87.79 129.23
  Q 87.55 138.72 86.95 148.33
  Q 86.63 153.48 87.56 155.67
  Q 89.37 159.96 94.27 160.43
  Q 103.91 161.36 113.87 162.32
  Q 115.21 162.44 113.96 161.96
  Q 105.84 158.82 97.01 155.36
  Q 93.90 154.13 93.27 151.49"
/>
<path stroke="#808080" vector-effect="non-scaling-stroke" d="
  M 97.75 185.23
  A 0.36 0.36 0.0 0 0 97.39 184.87
  L 74.37 184.87
  A 0.36 0.36 0.0 0 0 74.01 185.23
  L 74.01 195.89
  A 0.36 0.36 0.0 0 0 74.37 196.25
  L 97.39 196.25
  A 0.36 0.36 0.0 0 0 97.75 195.89
  L 97.75 185.23"
/>
</g>
<path fill="#ffffff" d="
  M 121.87 0.00
  L 134.24 0.00
  Q 139.11 0.59 143.98 1.21
  Q 176.36 5.33 202.38 23.83
  Q 210.39 29.53 217.65 36.72
  Q 252.51 71.24 256.00 121.88
  L 256.00 133.24
  Q 253.53 178.70 225.15 211.38
  C 165.28 280.31 56.14 267.13 14.08 186.41
  Q 1.64 162.54 0.00 133.86
  L 0.00 122.01
  Q 0.56 117.00 1.19 112.02
  Q 4.67 84.27 19.00 60.86
  Q 24.09 52.55 30.84 44.77
  Q 66.14 4.06 121.87 0.00
  Z
  M 171.03 91.84
  Q 168.97 103.64 166.67 113.74
  C 165.77 117.69 159.30 119.49 155.83 120.52
  Q 155.12 120.73 155.28 121.46
  L 159.91 141.81
  Q 160.03 142.30 159.85 142.78
  Q 155.53 154.58 151.50 165.63
  C 150.83 167.46 150.65 169.17 151.04 171.01
  Q 154.90 189.03 159.05 208.73
  C 159.96 213.10 160.41 217.68 165.34 219.43
  C 171.77 221.70 178.08 216.39 176.68 209.71
  Q 172.56 190.11 168.32 170.19
  Q 168.19 169.60 168.40 169.03
  L 179.58 138.56
  Q 179.74 138.12 180.20 138.00
  L 181.52 137.67
  Q 182.32 137.47 182.20 138.28
  L 177.56 168.49
  A 8.69 8.58 42.3 0 0 177.75 172.00
  Q 183.63 193.80 189.20 213.75
  C 191.56 222.23 203.63 221.93 205.63 213.58
  Q 206.23 211.06 204.83 206.14
  Q 200.34 190.35 196.01 174.23
  C 195.38 171.86 194.56 169.94 194.96 167.42
  Q 196.84 155.38 198.95 142.30
  C 199.51 138.88 199.61 135.14 198.90 131.81
  Q 193.73 107.52 188.00 81.01
  C 186.43 73.77 180.74 70.52 173.51 72.26
  Q 165.56 74.18 157.36 75.74
  C 152.94 76.58 149.40 79.42 148.30 83.81
  C 147.47 87.12 148.70 90.57 149.29 93.80
  A 0.27 0.27 0.0 0 0 149.75 93.93
  L 157.34 85.76
  Q 158.93 84.05 157.85 86.12
  L 150.40 100.41
  A 1.97 1.94 -86.0 0 1 149.35 101.34
  L 127.33 109.57
  Q 126.77 109.78 126.88 109.19
  Q 129.78 93.79 141.12 86.31
  Q 150.11 80.38 155.10 69.32
  A 1.24 1.22 1.6 0 1 155.79 68.68
  Q 165.05 65.33 166.15 56.12
  C 167.57 44.26 154.46 36.15 144.44 41.92
  Q 137.09 46.15 137.03 54.93
  Q 137.01 56.96 136.23 58.96
  Q 131.11 71.99 129.83 88.52
  Q 129.79 89.06 129.45 89.50
  Q 122.22 98.96 120.78 111.88
  C 120.67 112.93 119.99 113.52 119.45 114.39
  Q 119.08 114.98 118.58 114.50
  C 117.90 113.87 117.25 113.03 116.30 112.88
  Q 113.04 112.36 112.43 116.14
  Q 112.29 116.97 111.52 116.64
  Q 109.97 115.99 108.32 115.72
  Q 101.50 114.60 94.21 113.36
  Q 89.84 112.61 87.26 113.59
  Q 82.46 115.40 81.53 120.38
  Q 79.02 133.88 74.57 165.50
  Q 73.99 169.67 76.28 172.40
  Q 76.71 172.91 76.04 172.91
  Q 72.54 172.88 69.16 172.83
  Q 62.03 172.74 62.09 180.03
  Q 62.23 197.08 62.06 213.18
  C 61.96 222.27 74.31 222.28 74.05 213.21
  Q 73.92 208.68 74.02 204.74
  Q 74.03 204.13 74.65 204.13
  L 97.20 204.12
  Q 97.72 204.12 97.73 204.64
  Q 97.84 208.40 97.69 212.77
  C 97.36 222.34 109.71 222.02 109.74 213.83
  Q 109.79 193.95 109.74 177.44
  Q 109.74 177.17 110.00 177.19
  L 116.48 177.68
  Q 116.64 177.69 116.62 177.85
  Q 114.03 194.21 111.35 210.71
  C 109.62 221.36 124.70 223.71 126.36 212.97
  Q 129.46 192.99 132.83 172.58
  C 133.52 168.44 131.49 164.63 127.37 163.53
  Q 126.78 163.37 127.16 162.89
  C 130.41 158.77 128.98 154.20 124.31 152.43
  Q 113.77 148.43 105.16 145.03
  Q 104.58 144.80 104.45 144.20
  L 100.64 126.68
  Q 100.29 125.08 101.05 126.53
  L 107.39 138.68
  Q 107.69 139.25 108.29 139.49
  L 113.28 141.45
  Q 113.97 141.72 114.09 140.99
  L 115.72 131.04
  A 0.89 0.89 0.0 0 1 117.07 130.43
  C 121.36 133.11 122.98 128.86 122.88 125.54
  Q 122.85 124.45 123.91 124.72
  Q 125.93 125.25 127.94 124.50
  Q 142.04 119.27 158.17 113.19
  Q 160.20 112.42 161.12 110.70
  Q 165.95 101.64 170.73 91.74
  Q 171.23 90.71 171.03 91.84
  Z
  M 119.31 94.14
  A 13.91 13.91 0.0 0 0 105.40 80.23
  A 13.91 13.91 0.0 0 0 91.49 94.14
  A 13.91 13.91 0.0 0 0 105.40 108.05
  A 13.91 13.91 0.0 0 0 119.31 94.14
  Z"
/>
<path fill="#000000" d="
  M 170.73 91.74
  Q 165.95 101.64 161.12 110.70
  Q 160.20 112.42 158.17 113.19
  Q 142.04 119.27 127.94 124.50
  Q 125.93 125.25 123.91 124.72
  Q 122.85 124.45 122.88 125.54
  C 122.98 128.86 121.36 133.11 117.07 130.43
  A 0.89 0.89 0.0 0 0 115.72 131.04
  L 114.09 140.99
  Q 113.97 141.72 113.28 141.45
  L 108.29 139.49
  Q 107.69 139.25 107.39 138.68
  L 101.05 126.53
  Q 100.29 125.08 100.64 126.68
  L 104.45 144.20
  Q 104.58 144.80 105.16 145.03
  Q 113.77 148.43 124.31 152.43
  C 128.98 154.20 130.41 158.77 127.16 162.89
  Q 126.78 163.37 127.37 163.53
  C 131.49 164.63 133.52 168.44 132.83 172.58
  Q 129.46 192.99 126.36 212.97
  C 124.70 223.71 109.62 221.36 111.35 210.71
  Q 114.03 194.21 116.62 177.85
  Q 116.64 177.69 116.48 177.68
  L 110.00 177.19
  Q 109.74 177.17 109.74 177.44
  Q 109.79 193.95 109.74 213.83
  C 109.71 222.02 97.36 222.34 97.69 212.77
  Q 97.84 208.40 97.73 204.64
  Q 97.72 204.12 97.20 204.12
  L 74.65 204.13
  Q 74.03 204.13 74.02 204.74
  Q 73.92 208.68 74.05 213.21
  C 74.31 222.28 61.96 222.27 62.06 213.18
  Q 62.23 197.08 62.09 180.03
  Q 62.03 172.74 69.16 172.83
  Q 72.54 172.88 76.04 172.91
  Q 76.71 172.91 76.28 172.40
  Q 73.99 169.67 74.57 165.50
  Q 79.02 133.88 81.53 120.38
  Q 82.46 115.40 87.26 113.59
  Q 89.84 112.61 94.21 113.36
  Q 101.50 114.60 108.32 115.72
  Q 109.97 115.99 111.52 116.64
  Q 112.29 116.97 112.43 116.14
  Q 113.04 112.36 116.30 112.88
  C 117.25 113.03 117.90 113.87 118.58 114.50
  Q 119.08 114.98 119.45 114.39
  C 119.99 113.52 120.67 112.93 120.78 111.88
  Q 122.22 98.96 129.45 89.50
  Q 129.79 89.06 129.83 88.52
  Q 131.11 71.99 136.23 58.96
  Q 137.01 56.96 137.03 54.93
  Q 137.09 46.15 144.44 41.92
  C 154.46 36.15 167.57 44.26 166.15 56.12
  Q 165.05 65.33 155.79 68.68
  A 1.24 1.22 1.6 0 0 155.10 69.32
  Q 150.11 80.38 141.12 86.31
  Q 129.78 93.79 126.88 109.19
  Q 126.77 109.78 127.33 109.57
  L 149.35 101.34
  A 1.97 1.94 -86.0 0 0 150.40 100.41
  L 157.85 86.12
  Q 158.93 84.05 157.34 85.76
  L 149.75 93.93
  A 0.27 0.27 0.0 0 1 149.29 93.80
  C 148.70 90.57 147.47 87.12 148.30 83.81
  C 149.40 79.42 152.94 76.58 157.36 75.74
  Q 165.56 74.18 173.51 72.26
  C 180.74 70.52 186.43 73.77 188.00 81.01
  Q 193.73 107.52 198.90 131.81
  C 199.61 135.14 199.51 138.88 198.95 142.30
  Q 196.84 155.38 194.96 167.42
  C 194.56 169.94 195.38 171.86 196.01 174.23
  Q 200.34 190.35 204.83 206.14
  Q 206.23 211.06 205.63 213.58
  C 203.63 221.93 191.56 222.23 189.20 213.75
  Q 183.63 193.80 177.75 172.00
  A 8.69 8.58 42.3 0 1 177.56 168.49
  L 182.20 138.28
  Q 182.32 137.47 181.52 137.67
  L 180.20 138.00
  Q 179.74 138.12 179.58 138.56
  L 168.40 169.03
  Q 168.19 169.60 168.32 170.19
  Q 172.56 190.11 176.68 209.71
  C 178.08 216.39 171.77 221.70 165.34 219.43
  C 160.41 217.68 159.96 213.10 159.05 208.73
  Q 154.90 189.03 151.04 171.01
  C 150.65 169.17 150.83 167.46 151.50 165.63
  Q 155.53 154.58 159.85 142.78
  Q 160.03 142.30 159.91 141.81
  L 155.28 121.46
  Q 155.12 120.73 155.83 120.52
  C 159.30 119.49 165.77 117.69 166.67 113.74
  Q 168.97 103.64 171.03 91.84
  Q 171.23 90.71 170.73 91.74
  Z
  M 148.11 70.61
  Q 148.41 70.07 148.73 69.54
  Q 149.08 68.95 148.41 68.82
  Q 143.99 67.94 140.80 64.38
  Q 140.28 63.81 140.05 64.55
  Q 137.26 73.50 136.18 82.35
  Q 136.10 82.95 136.62 82.64
  Q 143.81 78.22 148.11 70.61
  Z
  M 93.27 151.49
  Q 90.58 140.16 88.28 129.18
  Q 87.84 127.10 87.79 129.23
  Q 87.55 138.72 86.95 148.33
  Q 86.63 153.48 87.56 155.67
  Q 89.37 159.96 94.27 160.43
  Q 103.91 161.36 113.87 162.32
  Q 115.21 162.44 113.96 161.96
  Q 105.84 158.82 97.01 155.36
  Q 93.90 154.13 93.27 151.49
  Z
  M 97.75 185.23
  A 0.36 0.36 0.0 0 0 97.39 184.87
  L 74.37 184.87
  A 0.36 0.36 0.0 0 0 74.01 185.23
  L 74.01 195.89
  A 0.36 0.36 0.0 0 0 74.37 196.25
  L 97.39 196.25
  A 0.36 0.36 0.0 0 0 97.75 195.89
  L 97.75 185.23
  Z"
/>
<path fill="#ffffff" d="
  M 148.11 70.61
  Q 143.81 78.22 136.62 82.64
  Q 136.10 82.95 136.18 82.35
  Q 137.26 73.50 140.05 64.55
  Q 140.28 63.81 140.80 64.38
  Q 143.99 67.94 148.41 68.82
  Q 149.08 68.95 148.73 69.54
  Q 148.41 70.07 148.11 70.61
  Z"
/>
<circle fill="#000000" cx="105.40" cy="94.14" r="13.91"/>
<path fill="#ffffff" d="
  M 93.27 151.49
  Q 93.90 154.13 97.01 155.36
  Q 105.84 158.82 113.96 161.96
  Q 115.21 162.44 113.87 162.32
  Q 103.91 161.36 94.27 160.43
  Q 89.37 159.96 87.56 155.67
  Q 86.63 153.48 86.95 148.33
  Q 87.55 138.72 87.79 129.23
  Q 87.84 127.10 88.28 129.18
  Q 90.58 140.16 93.27 151.49
  Z"
/>
<rect fill="#ffffff" x="74.01" y="184.87" width="23.74" height="11.38" rx="0.36"/>
</svg>
