<?xml version="1.0" encoding="UTF-8" standalone="no"?>
<!DOCTYPE svg PUBLIC "-//W3C//DTD SVG 1.1//EN" "http://www.w3.org/Graphics/SVG/1.1/DTD/svg11.dtd">
<svg xmlns="http://www.w3.org/2000/svg" version="1.1" viewBox="0.00 0.00 256.00 360.00">
<g stroke-width="2.00" fill="none" stroke-linecap="butt">
<path stroke="#808080" vector-effect="non-scaling-stroke" d="
  M 98.61 57.22
  A 13.43 13.43 0.0 0 0 85.18 43.79
  A 13.43 13.43 0.0 0 0 71.75 57.22
  A 13.43 13.43 0.0 0 0 85.18 70.65
  A 13.43 13.43 0.0 0 0 98.61 57.22"
/>
<path stroke="#808080" vector-effect="non-scaling-stroke" d="
  M 81.73 84.10
  L 75.58 74.45
  A 0.93 0.93 0.0 0 0 74.78 74.02
  C 70.78 74.07 66.37 73.60 62.56 74.63
  Q 54.63 76.77 51.26 84.60
  Q 49.84 87.91 49.91 94.49
  Q 50.11 113.09 49.94 132.96
  C 49.88 139.67 57.90 143.31 62.96 139.04
  Q 63.50 138.58 63.50 139.29
  L 63.50 157.32
  Q 63.50 157.88 64.06 157.88
  L 67.51 157.87
  Q 68.12 157.87 68.12 158.48
  Q 68.13 184.82 68.15 205.46
  C 68.16 215.35 82.88 215.68 82.87 205.36
  Q 82.86 181.15 82.90 158.08
  Q 82.90 157.87 83.11 157.87
  L 87.26 157.86
  Q 87.48 157.86 87.49 158.08
  Q 87.54 181.93 87.47 205.05
  C 87.46 208.00 88.51 210.31 91.01 211.94
  C 94.53 214.23 99.63 212.85 101.35 209.09
  Q 102.28 207.06 102.27 204.21
  Q 102.23 179.89 102.24 158.55
  Q 102.24 157.84 102.95 157.84
  L 106.24 157.88
  Q 106.87 157.89 106.87 157.26
  L 106.87 119.28
  Q 106.87 118.51 107.43 119.04
  Q 109.92 121.42 112.66 121.47
  Q 118.92 121.57 125.60 121.45
  Q 127.27 121.42 126.97 123.06
  C 125.13 133.08 137.26 133.23 136.80 125.51
  Q 136.70 123.77 136.72 122.07
  Q 136.73 121.44 137.35 121.54
  C 147.94 123.21 151.40 109.04 141.62 106.03
  C 140.19 105.59 138.75 105.77 137.29 105.77
  Q 136.76 105.77 136.75 105.23
  L 136.74 97.10
  Q 136.74 96.89 136.53 96.89
  L 127.23 96.86
  A 0.36 0.35 -90.0 0 0 126.88 97.22
  L 126.87 105.31
  A 0.43 0.43 0.0 0 1 126.44 105.74
  L 120.77 105.75
  A 0.36 0.36 0.0 0 1 120.41 105.41
  Q 120.24 100.20 120.42 95.16
  Q 120.65 88.91 119.50 85.59
  Q 116.67 77.46 108.21 74.77
  C 104.32 73.54 99.75 74.07 95.63 73.98
  Q 95.05 73.97 94.74 74.46
  L 88.78 83.97
  Q 88.17 84.94 88.16 83.79
  L 88.12 74.43
  Q 88.12 74.00 87.68 74.00
  L 82.75 74.00
  Q 82.25 74.00 82.25 74.50
  L 82.25 83.95
  Q 82.25 84.93 81.73 84.10"
/>
<path stroke="#808080" vector-effect="non-scaling-stroke" d="
  M 164.22 135.64
  L 159.75 135.62
  Q 159.13 135.62 159.13 136.25
  L 159.14 141.99
  Q 159.14 142.63 158.51 142.63
  L 127.08 142.62
  Q 126.86 142.62 126.86 142.85
  L 126.87 149.56
  Q 126.87 149.75 127.06 149.75
  L 205.75 149.75
  Q 206.00 149.75 206.00 149.50
  L 205.99 142.84
  Q 205.99 142.62 205.77 142.62
  L 192.82 142.63
  Q 192.00 142.63 192.00 141.82
  L 192.00 136.23
  Q 192.00 135.63 191.41 135.63
  Q 184.25 135.58 176.14 135.67
  Q 174.12 135.69 172.41 134.56
  C 163.61 128.69 165.93 120.16 174.63 115.97
  Q 175.18 115.71 175.47 116.23
  L 179.08 122.51
  Q 179.44 123.15 180.07 122.78
  L 186.14 119.25
  Q 186.84 118.84 186.44 118.14
  L 174.01 96.65
  Q 173.89 96.44 173.68 96.56
  L 166.73 100.57
  Q 166.48 100.71 166.62 100.97
  L 172.00 110.22
  A 0.44 0.44 0.0 0 1 171.81 110.83
  C 162.41 115.46 156.98 125.84 164.47 135.13
  Q 164.88 135.64 164.22 135.64"
/>
<path stroke="#808080" vector-effect="non-scaling-stroke" d="
  M 190.3844 120.4487
  A 0.49 0.49 0.0 0 0 189.7153 120.2682
  L 179.0699 126.3897
  A 0.49 0.49 0.0 0 0 178.8893 127.0587
  L 180.1156 129.1913
  A 0.49 0.49 0.0 0 0 180.7847 129.3718
  L 191.4301 123.2503
  A 0.49 0.49 0.0 0 0 191.6107 122.5813
  L 190.3844 120.4487"
/>
<path stroke="#808080" vector-effect="non-scaling-stroke" d="
  M 109.25 97.25
  L 109.25 112.57
  A 4.31 4.31 0.0 0 0 113.56 116.88
  L 126.44 116.87
  Q 126.87 116.87 126.87 116.44
  L 126.86 110.74
  Q 126.86 110.37 126.49 110.37
  L 116.20 110.37
  A 0.56 0.55 0.0 0 1 115.64 109.82
  Q 115.58 100.58 115.66 91.16
  C 115.72 83.85 109.71 78.50 102.60 78.72
  Q 100.23 78.80 98.06 78.75
  Q 97.60 78.74 97.36 79.13
  L 85.52 97.83
  A 0.42 0.42 0.0 0 1 84.82 97.83
  L 73.04 79.19
  Q 72.73 78.71 72.16 78.73
  C 68.91 78.85 65.59 78.32 62.53 79.56
  Q 54.62 82.80 54.61 92.25
  Q 54.58 110.73 54.66 132.21
  Q 54.67 135.20 57.50 136.15
  Q 58.27 136.41 59.01 135.98
  Q 61.13 134.74 61.13 132.28
  L 61.12 97.15
  A 0.33 0.33 0.0 0 1 61.46 96.82
  L 67.95 97.04
  Q 68.13 97.05 68.13 97.23
  L 68.12 152.90
  A 0.36 0.35 -0.0 0 0 68.48 153.25
  L 101.75 153.25
  Q 102.25 153.25 102.25 152.75
  L 102.25 97.25
  A 0.25 0.25 0.0 0 1 102.50 97.00
  L 109.00 97.00
  A 0.25 0.25 0.0 0 1 109.25 97.25"
/>
<path stroke="#808080" vector-effect="non-scaling-stroke" d="
  M 136.74 110.66
  L 136.76 116.60
  A 0.29 0.29 0.0 0 0 137.05 116.88
  L 139.40 116.88
  A 3.28 3.16 -0.1 0 0 142.67 113.71
  L 142.67 113.51
  A 3.28 3.16 -0.1 0 0 139.38 110.36
  L 137.03 110.36
  A 0.29 0.29 0.0 0 0 136.74 110.66"
/>
</g>
<path fill="#ffffff" d="
  M 121.88 0.00
  L 134.24 0.00
  Q 139.12 0.58 143.98 1.20
  Q 175.51 5.18 200.62 22.57
  Q 208.94 28.33 216.00 35.10
  Q 249.80 67.51 255.28 114.48
  C 255.57 116.91 255.53 119.45 256.00 121.88
  L 256.00 133.23
  Q 253.60 177.79 226.18 210.17
  C 197.29 244.28 153.81 260.97 109.48 254.61
  C 82.78 250.79 57.57 238.39 38.21 219.16
  Q 3.39 184.57 0.00 133.87
  L 0.00 122.00
  Q 3.61 69.52 40.52 34.64
  Q 47.96 27.62 56.08 22.12
  Q 82.12 4.51 114.01 0.97
  Q 117.97 0.53 121.88 0.00
  Z
  M 98.61 57.22
  A 13.43 13.43 0.0 0 0 85.18 43.79
  A 13.43 13.43 0.0 0 0 71.75 57.22
  A 13.43 13.43 0.0 0 0 85.18 70.65
  A 13.43 13.43 0.0 0 0 98.61 57.22
  Z
  M 81.73 84.10
  L 75.58 74.45
  A 0.93 0.93 0.0 0 0 74.78 74.02
  C 70.78 74.07 66.37 73.60 62.56 74.63
  Q 54.63 76.77 51.26 84.60
  Q 49.84 87.91 49.91 94.49
  Q 50.11 113.09 49.94 132.96
  C 49.88 139.67 57.90 143.31 62.96 139.04
  Q 63.50 138.58 63.50 139.29
  L 63.50 157.32
  Q 63.50 157.88 64.06 157.88
  L 67.51 157.87
  Q 68.12 157.87 68.12 158.48
  Q 68.13 184.82 68.15 205.46
  C 68.16 215.35 82.88 215.68 82.87 205.36
  Q 82.86 181.15 82.90 158.08
  Q 82.90 157.87 83.11 157.87
  L 87.26 157.86
  Q 87.48 157.86 87.49 158.08
  Q 87.54 181.93 87.47 205.05
  C 87.46 208.00 88.51 210.31 91.01 211.94
  C 94.53 214.23 99.63 212.85 101.35 209.09
  Q 102.28 207.06 102.27 204.21
  Q 102.23 179.89 102.24 158.55
  Q 102.24 157.84 102.95 157.84
  L 106.24 157.88
  Q 106.87 157.89 106.87 157.26
  L 106.87 119.28
  Q 106.87 118.51 107.43 119.04
  Q 109.92 121.42 112.66 121.47
  Q 118.92 121.57 125.60 121.45
  Q 127.27 121.42 126.97 123.06
  C 125.13 133.08 137.26 133.23 136.80 125.51
  Q 136.70 123.77 136.72 122.07
  Q 136.73 121.44 137.35 121.54
  C 147.94 123.21 151.40 109.04 141.62 106.03
  C 140.19 105.59 138.75 105.77 137.29 105.77
  Q 136.76 105.77 136.75 105.23
  L 136.74 97.10
  Q 136.74 96.89 136.53 96.89
  L 127.23 96.86
  A 0.36 0.35 -90.0 0 0 126.88 97.22
  L 126.87 105.31
  A 0.43 0.43 0.0 0 1 126.44 105.74
  L 120.77 105.75
  A 0.36 0.36 0.0 0 1 120.41 105.41
  Q 120.24 100.20 120.42 95.16
  Q 120.65 88.91 119.50 85.59
  Q 116.67 77.46 108.21 74.77
  C 104.32 73.54 99.75 74.07 95.63 73.98
  Q 95.05 73.97 94.74 74.46
  L 88.78 83.97
  Q 88.17 84.94 88.16 83.79
  L 88.12 74.43
  Q 88.12 74.00 87.68 74.00
  L 82.75 74.00
  Q 82.25 74.00 82.25 74.50
  L 82.25 83.95
  Q 82.25 84.93 81.73 84.10
  Z
  M 164.22 135.64
  L 159.75 135.62
  Q 159.13 135.62 159.13 136.25
  L 159.14 141.99
  Q 159.14 142.63 158.51 142.63
  L 127.08 142.62
  Q 126.86 142.62 126.86 142.85
  L 126.87 149.56
  Q 126.87 149.75 127.06 149.75
  L 205.75 149.75
  Q 206.00 149.75 206.00 149.50
  L 205.99 142.84
  Q 205.99 142.62 205.77 142.62
  L 192.82 142.63
  Q 192.00 142.63 192.00 141.82
  L 192.00 136.23
  Q 192.00 135.63 191.41 135.63
  Q 184.25 135.58 176.14 135.67
  Q 174.12 135.69 172.41 134.56
  C 163.61 128.69 165.93 120.16 174.63 115.97
  Q 175.18 115.71 175.47 116.23
  L 179.08 122.51
  Q 179.44 123.15 180.07 122.78
  L 186.14 119.25
  Q 186.84 118.84 186.44 118.14
  L 174.01 96.65
  Q 173.89 96.44 173.68 96.56
  L 166.73 100.57
  Q 166.48 100.71 166.62 100.97
  L 172.00 110.22
  A 0.44 0.44 0.0 0 1 171.81 110.83
  C 162.41 115.46 156.98 125.84 164.47 135.13
  Q 164.88 135.64 164.22 135.64
  Z
  M 190.3844 120.4487
  A 0.49 0.49 0.0 0 0 189.7153 120.2682
  L 179.0699 126.3897
  A 0.49 0.49 0.0 0 0 178.8893 127.0587
  L 180.1156 129.1913
  A 0.49 0.49 0.0 0 0 180.7847 129.3718
  L 191.4301 123.2503
  A 0.49 0.49 0.0 0 0 191.6107 122.5813
  L 190.3844 120.4487
  Z"
/>
<circle fill="#000000" cx="85.18" cy="57.22" r="13.43"/>
<path fill="#000000" d="
  M 82.25 83.95
  L 82.25 74.50
  Q 82.25 74.00 82.75 74.00
  L 87.68 74.00
  Q 88.12 74.00 88.12 74.43
  L 88.16 83.79
  Q 88.17 84.94 88.78 83.97
  L 94.74 74.46
  Q 95.05 73.97 95.63 73.98
  C 99.75 74.07 104.32 73.54 108.21 74.77
  Q 116.67 77.46 119.50 85.59
  Q 120.65 88.91 120.42 95.16
  Q 120.24 100.20 120.41 105.41
  A 0.36 0.36 0.0 0 0 120.77 105.75
  L 126.44 105.74
  A 0.43 0.43 0.0 0 0 126.87 105.31
  L 126.88 97.22
  A 0.36 0.35 90.0 0 1 127.23 96.86
  L 136.53 96.89
  Q 136.74 96.89 136.74 97.10
  L 136.75 105.23
  Q 136.76 105.77 137.29 105.77
  C 138.75 105.77 140.19 105.59 141.62 106.03
  C 151.40 109.04 147.94 123.21 137.35 121.54
  Q 136.73 121.44 136.72 122.07
  Q 136.70 123.77 136.80 125.51
  C 137.26 133.23 125.13 133.08 126.97 123.06
  Q 127.27 121.42 125.60 121.45
  Q 118.92 121.57 112.66 121.47
  Q 109.92 121.42 107.43 119.04
  Q 106.87 118.51 106.87 119.28
  L 106.87 157.26
  Q 106.87 157.89 106.24 157.88
  L 102.95 157.84
  Q 102.24 157.84 102.24 158.55
  Q 102.23 179.89 102.27 204.21
  Q 102.28 207.06 101.35 209.09
  C 99.63 212.85 94.53 214.23 91.01 211.94
  C 88.51 210.31 87.46 208.00 87.47 205.05
  Q 87.54 181.93 87.49 158.08
  Q 87.48 157.86 87.26 157.86
  L 83.11 157.87
  Q 82.90 157.87 82.90 158.08
  Q 82.86 181.15 82.87 205.36
  C 82.88 215.68 68.16 215.35 68.15 205.46
  Q 68.13 184.82 68.12 158.48
  Q 68.12 157.87 67.51 157.87
  L 64.06 157.88
  Q 63.50 157.88 63.50 157.32
  L 63.50 139.29
  Q 63.50 138.58 62.96 139.04
  C 57.90 143.31 49.88 139.67 49.94 132.96
  Q 50.11 113.09 49.91 94.49
  Q 49.84 87.91 51.26 84.60
  Q 54.63 76.77 62.56 74.63
  C 66.37 73.60 70.78 74.07 74.78 74.02
  A 0.93 0.93 0.0 0 1 75.58 74.45
  L 81.73 84.10
  Q 82.25 84.93 82.25 83.95
  Z
  M 109.25 97.25
  L 109.25 112.57
  A 4.31 4.31 0.0 0 0 113.56 116.88
  L 126.44 116.87
  Q 126.87 116.87 126.87 116.44
  L 126.86 110.74
  Q 126.86 110.37 126.49 110.37
  L 116.20 110.37
  A 0.56 0.55 0.0 0 1 115.64 109.82
  Q 115.58 100.58 115.66 91.16
  C 115.72 83.85 109.71 78.50 102.60 78.72
  Q 100.23 78.80 98.06 78.75
  Q 97.60 78.74 97.36 79.13
  L 85.52 97.83
  A 0.42 0.42 0.0 0 1 84.82 97.83
  L 73.04 79.19
  Q 72.73 78.71 72.16 78.73
  C 68.91 78.85 65.59 78.32 62.53 79.56
  Q 54.62 82.80 54.61 92.25
  Q 54.58 110.73 54.66 132.21
  Q 54.67 135.20 57.50 136.15
  Q 58.27 136.41 59.01 135.98
  Q 61.13 134.74 61.13 132.28
  L 61.12 97.15
  A 0.33 0.33 0.0 0 1 61.46 96.82
  L 67.95 97.04
  Q 68.13 97.05 68.13 97.23
  L 68.12 152.90
  A 0.36 0.35 -0.0 0 0 68.48 153.25
  L 101.75 153.25
  Q 102.25 153.25 102.25 152.75
  L 102.25 97.25
  A 0.25 0.25 0.0 0 1 102.50 97.00
  L 109.00 97.00
  A 0.25 0.25 0.0 0 1 109.25 97.25
  Z
  M 136.74 110.66
  L 136.76 116.60
  A 0.29 0.29 0.0 0 0 137.05 116.88
  L 139.40 116.88
  A 3.28 3.16 -0.1 0 0 142.67 113.71
  L 142.67 113.51
  A 3.28 3.16 -0.1 0 0 139.38 110.36
  L 137.03 110.36
  A 0.29 0.29 0.0 0 0 136.74 110.66
  Z"
/>
<path fill="#ffffff" d="
  M 109.25 97.25
  A 0.25 0.25 0.0 0 0 109.00 97.00
  L 102.50 97.00
  A 0.25 0.25 0.0 0 0 102.25 97.25
  L 102.25 152.75
  Q 102.25 153.25 101.75 153.25
  L 68.48 153.25
  A 0.36 0.35 -0.0 0 1 68.12 152.90
  L 68.13 97.23
  Q 68.13 97.05 67.95 97.04
  L 61.46 96.82
  A 0.33 0.33 0.0 0 0 61.12 97.15
  L 61.13 132.28
  Q 61.13 134.74 59.01 135.98
  Q 58.27 136.41 57.50 136.15
  Q 54.67 135.20 54.66 132.21
  Q 54.58 110.73 54.61 92.25
  Q 54.62 82.80 62.53 79.56
  C 65.59 78.32 68.91 78.85 72.16 78.73
  Q 72.73 78.71 73.04 79.19
  L 84.82 97.83
  A 0.42 0.42 0.0 0 0 85.52 97.83
  L 97.36 79.13
  Q 97.60 78.74 98.06 78.75
  Q 100.23 78.80 102.60 78.72
  C 109.71 78.50 115.72 83.85 115.66 91.16
  Q 115.58 100.58 115.64 109.82
  A 0.56 0.55 0.0 0 0 116.20 110.37
  L 126.49 110.37
  Q 126.86 110.37 126.86 110.74
  L 126.87 116.44
  Q 126.87 116.87 126.44 116.87
  L 113.56 116.88
  A 4.31 4.31 0.0 0 1 109.25 112.57
  L 109.25 97.25
  Z"
/>
<path fill="#000000" d="
  M 164.47 135.13
  C 156.98 125.84 162.41 115.46 171.81 110.83
  A 0.44 0.44 0.0 0 0 172.00 110.22
  L 166.62 100.97
  Q 166.48 100.71 166.73 100.57
  L 173.68 96.56
  Q 173.89 96.44 174.01 96.65
  L 186.44 118.14
  Q 186.84 118.84 186.14 119.25
  L 180.07 122.78
  Q 179.44 123.15 179.08 122.51
  L 175.47 116.23
  Q 175.18 115.71 174.63 115.97
  C 165.93 120.16 163.61 128.69 172.41 134.56
  Q 174.12 135.69 176.14 135.67
  Q 184.25 135.58 191.41 135.63
  Q 192.00 135.63 192.00 136.23
  L 192.00 141.82
  Q 192.00 142.63 192.82 142.63
  L 205.77 142.62
  Q 205.99 142.62 205.99 142.84
  L 206.00 149.50
  Q 206.00 149.75 205.75 149.75
  L 127.06 149.75
  Q 126.87 149.75 126.87 149.56
  L 126.86 142.85
  Q 126.86 142.62 127.08 142.62
  L 158.51 142.63
  Q 159.14 142.63 159.14 141.99
  L 159.13 136.25
  Q 159.13 135.62 159.75 135.62
  L 164.22 135.64
  Q 164.88 135.64 164.47 135.13
  Z"
/>
<path fill="#ffffff" d="
  M 136.74 110.66
  A 0.29 0.29 0.0 0 1 137.03 110.36
  L 139.38 110.36
  A 3.28 3.16 -0.1 0 1 142.67 113.51
  L 142.67 113.71
  A 3.28 3.16 -0.1 0 1 139.40 116.88
  L 137.05 116.88
  A 0.29 0.29 0.0 0 1 136.76 116.60
  L 136.74 110.66
  Z"
/>
<rect fill="#000000" x="-6.63" y="-1.72" transform="translate(185.25,124.82) rotate(-29.9)" width="13.26" height="3.44" rx="0.49"/>
</svg>
