<?xml version="1.0" encoding="UTF-8" standalone="no"?>
<!DOCTYPE svg PUBLIC "-//W3C//DTD SVG 1.1//EN" "http://www.w3.org/Graphics/SVG/1.1/DTD/svg11.dtd">
<svg xmlns="http://www.w3.org/2000/svg" version="1.1" viewBox="0.00 0.00 256.00 360.00">
<g stroke-width="2.00" fill="none" stroke-linecap="butt">
<path stroke="#808080" vector-effect="non-scaling-stroke" d="
  M 134.50 51.54
  Q 134.50 51.08 134.96 51.10
  L 136.73 51.16
  Q 137.87 51.21 136.91 50.59
  L 134.26 48.88
  A 1.05 0.98 88.7 0 1 133.92 48.53
  C 130.90 43.22 123.29 42.08 119.87 47.64
  C 119.07 48.94 118.13 49.37 116.91 50.11
  Q 115.10 51.23 117.23 51.15
  L 118.54 51.10
  A 0.65 0.64 -89.2 0 1 119.21 51.79
  L 119.10 53.22
  A 0.57 0.57 0.0 0 1 118.53 53.75
  L 113.56 53.75
  A 1.09 1.06 -73.3 0 0 112.66 54.25
  Q 107.83 61.74 110.51 69.73
  C 114.16 80.61 127.52 84.42 136.58 77.79
  C 144.26 72.18 145.69 62.16 140.45 54.24
  Q 140.12 53.75 139.53 53.75
  L 135.00 53.75
  Q 134.50 53.75 134.50 53.25
  L 134.50 51.54"
/>
<path stroke="#808080" vector-effect="non-scaling-stroke" d="
  M 107.73 118.09
  C 107.79 121.84 107.97 125.49 107.10 129.30
  Q 102.04 151.44 96.58 175.85
  A 2.74 2.73 -66.2 0 0 97.68 178.69
  Q 102.35 181.97 108.75 183.00
  A 0.57 0.56 -85.2 0 1 109.22 183.56
  Q 109.27 193.95 109.23 207.75
  C 109.23 211.82 111.85 215.02 115.90 215.83
  C 120.66 216.79 125.38 213.07 125.36 208.17
  Q 125.31 196.40 125.40 184.85
  Q 125.40 184.39 125.86 184.36
  L 126.23 184.33
  Q 126.55 184.31 126.55 184.63
  Q 126.77 194.99 126.56 206.55
  C 126.34 219.07 142.77 218.71 142.76 207.81
  Q 142.74 196.25 142.75 183.55
  Q 142.75 183.00 143.30 182.92
  Q 150.07 182.03 154.93 178.21
  A 2.03 2.03 0.0 0 0 155.68 176.23
  L 147.62 132.86
  Q 147.50 132.21 148.16 132.23
  C 153.01 132.41 158.63 131.54 162.28 128.28
  C 168.83 122.43 165.64 113.88 161.63 107.61
  C 154.85 97.02 144.25 86.72 132.20 82.55
  Q 131.64 82.35 131.22 82.77
  L 127.41 86.60
  Q 126.94 87.07 126.46 86.60
  L 122.69 82.82
  A 0.85 0.85 0.0 0 0 121.75 82.64
  C 111.02 87.38 102.35 96.78 96.44 107.03
  Q 87.80 122.02 85.96 142.27
  C 85.31 149.43 93.77 152.85 98.53 148.01
  Q 100.20 146.32 100.76 142.37
  Q 102.50 130.19 107.33 118.01
  Q 107.71 117.05 107.73 118.09"
/>
<path stroke="#808080" vector-effect="non-scaling-stroke" d="
  M 131.19 52.22
  A 4.61 4.61 0.0 0 0 126.58 47.61
  A 4.61 4.61 0.0 0 0 121.97 52.22
  A 4.61 4.61 0.0 0 0 126.58 56.83
  A 4.61 4.61 0.0 0 0 131.19 52.22"
/>
<path stroke="#808080" vector-effect="non-scaling-stroke" d="
  M 119.57 106.25
  L 114.75 106.25
  A 2.01 2.00 -0.1 0 0 112.75 108.25
  L 112.75 144.31
  A 2.06 2.06 0.0 0 0 114.81 146.37
  L 139.00 146.38
  A 2.13 2.12 90.0 0 0 141.12 144.25
  L 141.13 132.50
  Q 141.13 131.95 140.59 131.85
  Q 137.53 131.28 134.27 130.59
  C 125.37 128.69 125.70 117.26 134.28 116.00
  C 136.34 115.70 138.56 116.65 140.63 117.08
  A 0.43 0.43 0.0 0 0 141.15 116.64
  Q 141.04 112.99 141.20 109.36
  C 141.40 105.03 136.62 106.33 134.05 106.24
  Q 133.55 106.23 133.58 105.72
  Q 133.74 103.28 131.29 103.26
  Q 127.02 103.23 122.60 103.26
  Q 120.15 103.28 120.19 105.61
  Q 120.20 106.25 119.57 106.25"
/>
<path stroke="#808080" vector-effect="non-scaling-stroke" d="
  M 150.91 117.68
  A 0.32 0.32 0.0 0 0 151.18 117.17
  L 146.73 111.23
  A 0.32 0.32 0.0 0 0 146.16 111.43
  L 146.13 117.26
  A 0.32 0.32 0.0 0 0 146.44 117.58
  L 150.91 117.68"
/>
</g>
<path fill="#ffffff" d="
  M 121.87 0.00
  L 134.24 0.00
  Q 139.12 0.58 143.98 1.20
  Q 175.51 5.19 200.57 22.54
  C 231.68 44.09 250.94 77.05 255.27 114.36
  C 255.56 116.84 255.52 119.41 256.00 121.88
  L 256.00 133.23
  Q 253.60 177.88 226.18 210.17
  C 198.81 242.40 158.41 259.28 116.14 255.41
  C 89.75 252.99 64.45 242.38 44.37 224.83
  Q 3.91 189.46 0.00 133.88
  L 0.00 122.01
  Q 0.56 117.00 1.19 112.02
  Q 4.67 84.27 19.00 60.86
  Q 24.09 52.55 30.84 44.77
  Q 66.14 4.06 121.87 0.00
  Z
  M 134.50 51.54
  Q 134.50 51.08 134.96 51.10
  L 136.73 51.16
  Q 137.87 51.21 136.91 50.59
  L 134.26 48.88
  A 1.05 0.98 88.7 0 1 133.92 48.53
  C 130.90 43.22 123.29 42.08 119.87 47.64
  C 119.07 48.94 118.13 49.37 116.91 50.11
  Q 115.10 51.23 117.23 51.15
  L 118.54 51.10
  A 0.65 0.64 -89.2 0 1 119.21 51.79
  L 119.10 53.22
  A 0.57 0.57 0.0 0 1 118.53 53.75
  L 113.56 53.75
  A 1.09 1.06 -73.3 0 0 112.66 54.25
  Q 107.83 61.74 110.51 69.73
  C 114.16 80.61 127.52 84.42 136.58 77.79
  C 144.26 72.18 145.69 62.16 140.45 54.24
  Q 140.12 53.75 139.53 53.75
  L 135.00 53.75
  Q 134.50 53.75 134.50 53.25
  L 134.50 51.54
  Z
  M 107.73 118.09
  C 107.79 121.84 107.97 125.49 107.10 129.30
  Q 102.04 151.44 96.58 175.85
  A 2.74 2.73 -66.2 0 0 97.68 178.69
  Q 102.35 181.97 108.75 183.00
  A 0.57 0.56 -85.2 0 1 109.22 183.56
  Q 109.27 193.95 109.23 207.75
  C 109.23 211.82 111.85 215.02 115.90 215.83
  C 120.66 216.79 125.38 213.07 125.36 208.17
  Q 125.31 196.40 125.40 184.85
  Q 125.40 184.39 125.86 184.36
  L 126.23 184.33
  Q 126.55 184.31 126.55 184.63
  Q 126.77 194.99 126.56 206.55
  C 126.34 219.07 142.77 218.71 142.76 207.81
  Q 142.74 196.25 142.75 183.55
  Q 142.75 183.00 143.30 182.92
  Q 150.07 182.03 154.93 178.21
  A 2.03 2.03 0.0 0 0 155.68 176.23
  L 147.62 132.86
  Q 147.50 132.21 148.16 132.23
  C 153.01 132.41 158.63 131.54 162.28 128.28
  C 168.83 122.43 165.64 113.88 161.63 107.61
  C 154.85 97.02 144.25 86.72 132.20 82.55
  Q 131.64 82.35 131.22 82.77
  L 127.41 86.60
  Q 126.94 87.07 126.46 86.60
  L 122.69 82.82
  A 0.85 0.85 0.0 0 0 121.75 82.64
  C 111.02 87.38 102.35 96.78 96.44 107.03
  Q 87.80 122.02 85.96 142.27
  C 85.31 149.43 93.77 152.85 98.53 148.01
  Q 100.20 146.32 100.76 142.37
  Q 102.50 130.19 107.33 118.01
  Q 107.71 117.05 107.73 118.09
  Z"
/>
<path fill="#000000" d="
  M 135.00 53.75
  L 139.53 53.75
  Q 140.12 53.75 140.45 54.24
  C 145.69 62.16 144.26 72.18 136.58 77.79
  C 127.52 84.42 114.16 80.61 110.51 69.73
  Q 107.83 61.74 112.66 54.25
  A 1.09 1.06 -73.3 0 1 113.56 53.75
  L 118.53 53.75
  A 0.57 0.57 0.0 0 0 119.10 53.22
  L 119.21 51.79
  A 0.65 0.64 -89.2 0 0 118.54 51.10
  L 117.23 51.15
  Q 115.10 51.23 116.91 50.11
  C 118.13 49.37 119.07 48.94 119.87 47.64
  C 123.29 42.08 130.90 43.22 133.92 48.53
  A 1.05 0.98 88.7 0 0 134.26 48.88
  L 136.91 50.59
  Q 137.87 51.21 136.73 51.16
  L 134.96 51.10
  Q 134.50 51.08 134.50 51.54
  L 134.50 53.25
  Q 134.50 53.75 135.00 53.75
  Z
  M 131.19 52.22
  A 4.61 4.61 0.0 0 0 126.58 47.61
  A 4.61 4.61 0.0 0 0 121.97 52.22
  A 4.61 4.61 0.0 0 0 126.58 56.83
  A 4.61 4.61 0.0 0 0 131.19 52.22
  Z"
/>
<circle fill="#ffffff" cx="126.58" cy="52.22" r="4.61"/>
<path fill="#000000" d="
  M 107.33 118.01
  Q 102.50 130.19 100.76 142.37
  Q 100.20 146.32 98.53 148.01
  C 93.77 152.85 85.31 149.43 85.96 142.27
  Q 87.80 122.02 96.44 107.03
  C 102.35 96.78 111.02 87.38 121.75 82.64
  A 0.85 0.85 0.0 0 1 122.69 82.82
  L 126.46 86.60
  Q 126.94 87.07 127.41 86.60
  L 131.22 82.77
  Q 131.64 82.35 132.20 82.55
  C 144.25 86.72 154.85 97.02 161.63 107.61
  C 165.64 113.88 168.83 122.43 162.28 128.28
  C 158.63 131.54 153.01 132.41 148.16 132.23
  Q 147.50 132.21 147.62 132.86
  L 155.68 176.23
  A 2.03 2.03 0.0 0 1 154.93 178.21
  Q 150.07 182.03 143.30 182.92
  Q 142.75 183.00 142.75 183.55
  Q 142.74 196.25 142.76 207.81
  C 142.77 218.71 126.34 219.07 126.56 206.55
  Q 126.77 194.99 126.55 184.63
  Q 126.55 184.31 126.23 184.33
  L 125.86 184.36
  Q 125.40 184.39 125.40 184.85
  Q 125.31 196.40 125.36 208.17
  C 125.38 213.07 120.66 216.79 115.90 215.83
  C 111.85 215.02 109.23 211.82 109.23 207.75
  Q 109.27 193.95 109.22 183.56
  A 0.57 0.56 -85.2 0 0 108.75 183.00
  Q 102.35 181.97 97.68 178.69
  A 2.74 2.73 -66.2 0 1 96.58 175.85
  Q 102.04 151.44 107.10 129.30
  C 107.97 125.49 107.79 121.84 107.73 118.09
  Q 107.71 117.05 107.33 118.01
  Z
  M 119.57 106.25
  L 114.75 106.25
  A 2.01 2.00 -0.1 0 0 112.75 108.25
  L 112.75 144.31
  A 2.06 2.06 0.0 0 0 114.81 146.37
  L 139.00 146.38
  A 2.13 2.12 90.0 0 0 141.12 144.25
  L 141.13 132.50
  Q 141.13 131.95 140.59 131.85
  Q 137.53 131.28 134.27 130.59
  C 125.37 128.69 125.70 117.26 134.28 116.00
  C 136.34 115.70 138.56 116.65 140.63 117.08
  A 0.43 0.43 0.0 0 0 141.15 116.64
  Q 141.04 112.99 141.20 109.36
  C 141.40 105.03 136.62 106.33 134.05 106.24
  Q 133.55 106.23 133.58 105.72
  Q 133.74 103.28 131.29 103.26
  Q 127.02 103.23 122.60 103.26
  Q 120.15 103.28 120.19 105.61
  Q 120.20 106.25 119.57 106.25
  Z
  M 150.91 117.68
  A 0.32 0.32 0.0 0 0 151.18 117.17
  L 146.73 111.23
  A 0.32 0.32 0.0 0 0 146.16 111.43
  L 146.13 117.26
  A 0.32 0.32 0.0 0 0 146.44 117.58
  L 150.91 117.68
  Z"
/>
<path fill="#ffffff" d="
  M 120.19 105.61
  Q 120.15 103.28 122.60 103.26
  Q 127.02 103.23 131.29 103.26
  Q 133.74 103.28 133.58 105.72
  Q 133.55 106.23 134.05 106.24
  C 136.62 106.33 141.40 105.03 141.20 109.36
  Q 141.04 112.99 141.15 116.64
  A 0.43 0.43 0.0 0 1 140.63 117.08
  C 138.56 116.65 136.34 115.70 134.28 116.00
  C 125.70 117.26 125.37 128.69 134.27 130.59
  Q 137.53 131.28 140.59 131.85
  Q 141.13 131.95 141.13 132.50
  L 141.12 144.25
  A 2.13 2.12 90.0 0 1 139.00 146.38
  L 114.81 146.37
  A 2.06 2.06 0.0 0 1 112.75 144.31
  L 112.75 108.25
  A 2.01 2.00 -0.1 0 1 114.75 106.25
  L 119.57 106.25
  Q 120.20 106.25 120.19 105.61
  Z"
/>
<path fill="#ffffff" d="
  M 150.91 117.68
  L 146.44 117.58
  A 0.32 0.32 0.0 0 1 146.13 117.26
  L 146.16 111.43
  A 0.32 0.32 0.0 0 1 146.73 111.23
  L 151.18 117.17
  A 0.32 0.32 0.0 0 1 150.91 117.68
  Z"
/>
</svg>
