<?xml version="1.0" encoding="UTF-8" standalone="no"?>
<!DOCTYPE svg PUBLIC "-//W3C//DTD SVG 1.1//EN" "http://www.w3.org/Graphics/SVG/1.1/DTD/svg11.dtd">
<svg xmlns="http://www.w3.org/2000/svg" version="1.1" viewBox="0.00 0.00 256.00 360.00">
<g stroke-width="2.00" fill="none" stroke-linecap="butt">
<path stroke="#808080" vector-effect="non-scaling-stroke" d="
  M 143.19 56.94
  A 15.55 15.55 0.0 0 0 127.64 41.39
  A 15.55 15.55 0.0 0 0 112.09 56.94
  A 15.55 15.55 0.0 0 0 127.64 72.49
  A 15.55 15.55 0.0 0 0 143.19 56.94"
/>
<path stroke="#808080" vector-effect="non-scaling-stroke" d="
  M 104.96 97.14
  Q 106.62 97.30 106.62 98.96
  L 106.62 117.25
  A 0.38 0.37 -0.0 0 0 107.00 117.62
  L 148.26 117.62
  A 0.36 0.36 0.0 0 0 148.62 117.26
  L 148.62 99.48
  Q 148.62 97.38 150.69 97.04
  Q 151.63 96.88 152.50 98.20
  A 1.54 1.45 29.8 0 1 152.75 99.02
  L 152.75 116.96
  Q 152.75 117.62 153.42 117.62
  L 165.98 117.63
  Q 166.55 117.63 166.54 117.05
  Q 166.40 108.65 166.55 98.25
  C 166.76 84.94 158.95 75.55 145.17 75.68
  Q 127.09 75.85 109.73 75.69
  C 97.27 75.58 88.74 84.27 88.75 96.81
  Q 88.76 107.06 88.74 116.95
  Q 88.74 117.62 89.41 117.62
  L 101.94 117.63
  Q 102.50 117.63 102.50 117.06
  L 102.50 99.09
  A 1.99 1.99 0.0 0 1 104.67 97.11
  L 104.96 97.14"
/>
<path stroke="#808080" vector-effect="non-scaling-stroke" d="
  M 63.69 139.63
  A 0.31 0.31 0.0 0 1 64.00 139.94
  L 64.00 214.31
  A 0.31 0.31 0.0 0 0 64.31 214.62
  L 190.94 214.62
  A 0.31 0.31 0.0 0 0 191.25 214.31
  L 191.25 139.93
  A 0.31 0.31 0.0 0 1 191.56 139.62
  L 207.44 139.63
  A 0.31 0.31 0.0 0 0 207.75 139.32
  L 207.75 121.44
  A 0.31 0.31 0.0 0 0 207.44 121.13
  L 48.56 121.13
  A 0.31 0.31 0.0 0 0 48.25 121.44
  L 48.25 139.31
  A 0.31 0.31 0.0 0 0 48.56 139.62
  L 63.69 139.63"
/>
<path stroke="#808080" vector-effect="non-scaling-stroke" d="
  M 159.76 150.53
  C 163.85 146.16 158.01 140.45 153.97 144.44
  Q 146.61 151.74 140.08 158.31
  A 0.03 0.03 0.0 0 0 140.10 158.36
  Q 146.06 158.42 151.61 158.35
  Q 152.00 158.34 152.27 158.07
  Q 156.51 154.02 159.76 150.53"
/>
<path stroke="#808080" vector-effect="non-scaling-stroke" d="
  M 114.50 191.23
  L 114.50 194.25
  A 0.50 0.50 0.0 0 0 115.00 194.75
  L 138.75 194.75
  Q 139.25 194.75 139.25 194.25
  L 139.25 191.25
  Q 139.25 190.69 139.75 190.45
  Q 157.55 181.80 158.99 161.74
  Q 159.04 161.00 158.30 161.00
  L 95.76 161.00
  Q 94.67 161.00 94.75 162.09
  Q 96.26 181.96 114.05 190.51
  Q 114.50 190.73 114.50 191.23"
/>
<path stroke="#808080" vector-effect="non-scaling-stroke" d="
  M 130.32 178.86
  L 136.75 178.87
  Q 137.13 178.87 137.13 178.50
  L 137.15 173.51
  A 0.39 0.38 -0.0 0 0 136.76 173.13
  L 130.31 173.12
  Q 129.75 173.12 129.75 172.56
  L 129.75 166.00
  Q 129.75 165.76 129.50 165.76
  L 124.19 165.75
  Q 123.89 165.75 123.88 166.06
  L 123.86 172.77
  A 0.37 0.36 -90.0 0 1 123.50 173.14
  L 116.84 173.11
  Q 116.50 173.11 116.50 173.46
  Q 116.51 178.45 116.51 178.52
  A 0.34 0.33 -89.1 0 0 116.83 178.86
  Q 119.99 178.94 123.27 178.81
  Q 123.87 178.78 123.87 179.39
  L 123.87 186.06
  Q 123.87 186.25 124.06 186.25
  L 129.50 186.24
  Q 129.74 186.24 129.74 186.00
  L 129.75 179.43
  Q 129.75 178.86 130.32 178.86"
/>
</g>
<path fill="#ffffff" d="
  M 121.87 0.00
  L 134.24 0.00
  Q 139.12 0.58 143.98 1.20
  Q 175.53 5.18 200.53 22.52
  C 230.49 43.31 251.10 76.35 255.07 112.96
  Q 255.58 117.66 256.00 122.38
  L 256.00 133.23
  Q 253.60 177.80 226.17 210.17
  C 197.18 244.39 153.45 261.12 108.98 254.54
  C 82.44 250.62 57.44 238.25 38.21 219.16
  Q 3.39 184.57 0.00 133.87
  L 0.00 122.01
  Q 0.56 117.00 1.19 112.02
  Q 4.67 84.27 19.00 60.86
  Q 24.09 52.55 30.84 44.77
  Q 66.14 4.06 121.87 0.00
  Z
  M 143.19 56.94
  A 15.55 15.55 0.0 0 0 127.64 41.39
  A 15.55 15.55 0.0 0 0 112.09 56.94
  A 15.55 15.55 0.0 0 0 127.64 72.49
  A 15.55 15.55 0.0 0 0 143.19 56.94
  Z
  M 104.96 97.14
  Q 106.62 97.30 106.62 98.96
  L 106.62 117.25
  A 0.38 0.37 -0.0 0 0 107.00 117.62
  L 148.26 117.62
  A 0.36 0.36 0.0 0 0 148.62 117.26
  L 148.62 99.48
  Q 148.62 97.38 150.69 97.04
  Q 151.63 96.88 152.50 98.20
  A 1.54 1.45 29.8 0 1 152.75 99.02
  L 152.75 116.96
  Q 152.75 117.62 153.42 117.62
  L 165.98 117.63
  Q 166.55 117.63 166.54 117.05
  Q 166.40 108.65 166.55 98.25
  C 166.76 84.94 158.95 75.55 145.17 75.68
  Q 127.09 75.85 109.73 75.69
  C 97.27 75.58 88.74 84.27 88.75 96.81
  Q 88.76 107.06 88.74 116.95
  Q 88.74 117.62 89.41 117.62
  L 101.94 117.63
  Q 102.50 117.63 102.50 117.06
  L 102.50 99.09
  A 1.99 1.99 0.0 0 1 104.67 97.11
  L 104.96 97.14
  Z
  M 63.69 139.63
  A 0.31 0.31 0.0 0 1 64.00 139.94
  L 64.00 214.31
  A 0.31 0.31 0.0 0 0 64.31 214.62
  L 190.94 214.62
  A 0.31 0.31 0.0 0 0 191.25 214.31
  L 191.25 139.93
  A 0.31 0.31 0.0 0 1 191.56 139.62
  L 207.44 139.63
  A 0.31 0.31 0.0 0 0 207.75 139.32
  L 207.75 121.44
  A 0.31 0.31 0.0 0 0 207.44 121.13
  L 48.56 121.13
  A 0.31 0.31 0.0 0 0 48.25 121.44
  L 48.25 139.31
  A 0.31 0.31 0.0 0 0 48.56 139.62
  L 63.69 139.63
  Z"
/>
<circle fill="#000000" cx="127.64" cy="56.94" r="15.55"/>
<path fill="#000000" d="
  M 104.96 97.14
  L 104.67 97.11
  A 1.99 1.99 0.0 0 0 102.50 99.09
  L 102.50 117.06
  Q 102.50 117.63 101.94 117.63
  L 89.41 117.62
  Q 88.74 117.62 88.74 116.95
  Q 88.76 107.06 88.75 96.81
  C 88.74 84.27 97.27 75.58 109.73 75.69
  Q 127.09 75.85 145.17 75.68
  C 158.95 75.55 166.76 84.94 166.55 98.25
  Q 166.40 108.65 166.54 117.05
  Q 166.55 117.63 165.98 117.63
  L 153.42 117.62
  Q 152.75 117.62 152.75 116.96
  L 152.75 99.02
  A 1.54 1.45 29.8 0 0 152.50 98.20
  Q 151.63 96.88 150.69 97.04
  Q 148.62 97.38 148.62 99.48
  L 148.62 117.26
  A 0.36 0.36 0.0 0 1 148.26 117.62
  L 107.00 117.62
  A 0.38 0.37 0.0 0 1 106.62 117.25
  L 106.62 98.96
  Q 106.62 97.30 104.96 97.14
  Z"
/>
<path fill="#000000" d="
  M 63.69 139.63
  L 48.56 139.62
  A 0.31 0.31 0.0 0 1 48.25 139.31
  L 48.25 121.44
  A 0.31 0.31 0.0 0 1 48.56 121.13
  L 207.44 121.13
  A 0.31 0.31 0.0 0 1 207.75 121.44
  L 207.75 139.32
  A 0.31 0.31 0.0 0 1 207.44 139.63
  L 191.56 139.62
  A 0.31 0.31 0.0 0 0 191.25 139.93
  L 191.25 214.31
  A 0.31 0.31 0.0 0 1 190.94 214.62
  L 64.31 214.62
  A 0.31 0.31 0.0 0 1 64.00 214.31
  L 64.00 139.94
  A 0.31 0.31 0.0 0 0 63.69 139.63
  Z
  M 159.76 150.53
  C 163.85 146.16 158.01 140.45 153.97 144.44
  Q 146.61 151.74 140.08 158.31
  A 0.03 0.03 0.0 0 0 140.10 158.36
  Q 146.06 158.42 151.61 158.35
  Q 152.00 158.34 152.27 158.07
  Q 156.51 154.02 159.76 150.53
  Z
  M 114.50 191.23
  L 114.50 194.25
  A 0.50 0.50 0.0 0 0 115.00 194.75
  L 138.75 194.75
  Q 139.25 194.75 139.25 194.25
  L 139.25 191.25
  Q 139.25 190.69 139.75 190.45
  Q 157.55 181.80 158.99 161.74
  Q 159.04 161.00 158.30 161.00
  L 95.76 161.00
  Q 94.67 161.00 94.75 162.09
  Q 96.26 181.96 114.05 190.51
  Q 114.50 190.73 114.50 191.23
  Z"
/>
<path fill="#ffffff" d="
  M 159.76 150.53
  Q 156.51 154.02 152.27 158.07
  Q 152.00 158.34 151.61 158.35
  Q 146.06 158.42 140.10 158.36
  A 0.03 0.03 0.0 0 1 140.08 158.31
  Q 146.61 151.74 153.97 144.44
  C 158.01 140.45 163.85 146.16 159.76 150.53
  Z"
/>
<path fill="#ffffff" d="
  M 114.05 190.51
  Q 96.26 181.96 94.75 162.09
  Q 94.67 161.00 95.76 161.00
  L 158.30 161.00
  Q 159.04 161.00 158.99 161.74
  Q 157.55 181.80 139.75 190.45
  Q 139.25 190.69 139.25 191.25
  L 139.25 194.25
  Q 139.25 194.75 138.75 194.75
  L 115.00 194.75
  A 0.50 0.50 0.0 0 1 114.50 194.25
  L 114.50 191.23
  Q 114.50 190.73 114.05 190.51
  Z
  M 130.32 178.86
  L 136.75 178.87
  Q 137.13 178.87 137.13 178.50
  L 137.15 173.51
  A 0.39 0.38 -0.0 0 0 136.76 173.13
  L 130.31 173.12
  Q 129.75 173.12 129.75 172.56
  L 129.75 166.00
  Q 129.75 165.76 129.50 165.76
  L 124.19 165.75
  Q 123.89 165.75 123.88 166.06
  L 123.86 172.77
  A 0.37 0.36 -90.0 0 1 123.50 173.14
  L 116.84 173.11
  Q 116.50 173.11 116.50 173.46
  Q 116.51 178.45 116.51 178.52
  A 0.34 0.33 -89.1 0 0 116.83 178.86
  Q 119.99 178.94 123.27 178.81
  Q 123.87 178.78 123.87 179.39
  L 123.87 186.06
  Q 123.87 186.25 124.06 186.25
  L 129.50 186.24
  Q 129.74 186.24 129.74 186.00
  L 129.75 179.43
  Q 129.75 178.86 130.32 178.86
  Z"
/>
<path fill="#000000" d="
  M 129.75 179.43
  L 129.74 186.00
  Q 129.74 186.24 129.50 186.24
  L 124.06 186.25
  Q 123.87 186.25 123.87 186.06
  L 123.87 179.39
  Q 123.87 178.78 123.27 178.81
  Q 119.99 178.94 116.83 178.86
  A 0.34 0.33 -89.1 0 1 116.51 178.52
  Q 116.51 178.45 116.50 173.46
  Q 116.50 173.11 116.84 173.11
  L 123.50 173.14
  A 0.37 0.36 90.0 0 0 123.86 172.77
  L 123.88 166.06
  Q 123.89 165.75 124.19 165.75
  L 129.50 165.76
  Q 129.75 165.76 129.75 166.00
  L 129.75 172.56
  Q 129.75 173.12 130.31 173.12
  L 136.76 173.13
  A 0.39 0.38 0.0 0 1 137.15 173.51
  L 137.13 178.50
  Q 137.13 178.87 136.75 178.87
  L 130.32 178.86
  Q 129.75 178.86 129.75 179.43
  Z"
/>
</svg>
