<?xml version="1.0" encoding="UTF-8" standalone="no"?>
<!DOCTYPE svg PUBLIC "-//W3C//DTD SVG 1.1//EN" "http://www.w3.org/Graphics/SVG/1.1/DTD/svg11.dtd">
<svg xmlns="http://www.w3.org/2000/svg" version="1.1" viewBox="0.00 0.00 256.00 360.00">
<g stroke-width="2.00" fill="none" stroke-linecap="butt">
<path stroke="#808080" vector-effect="non-scaling-stroke" d="
  M 145.14 58.20
  A 18.22 18.22 0.0 0 0 126.92 39.98
  A 18.22 18.22 0.0 0 0 108.70 58.20
  A 18.22 18.22 0.0 0 0 126.92 76.42
  A 18.22 18.22 0.0 0 0 145.14 58.20"
/>
<path stroke="#808080" vector-effect="non-scaling-stroke" d="
  M 108.24 109.58
  Q 108.34 121.49 108.21 134.49
  Q 108.19 136.66 108.84 138.74
  Q 109.50 140.81 109.50 142.87
  Q 109.50 172.95 109.51 203.24
  C 109.51 208.06 109.09 212.58 114.25 215.08
  C 119.73 217.74 126.29 213.92 126.28 207.81
  Q 126.21 179.46 126.26 149.99
  Q 126.26 149.36 126.89 149.48
  L 127.20 149.55
  A 0.38 0.37 -84.4 0 1 127.50 149.92
  Q 127.50 178.70 127.51 207.89
  C 127.51 210.77 129.35 213.59 131.78 214.98
  C 137.81 218.44 144.15 213.57 144.14 207.06
  Q 144.11 173.09 144.13 142.12
  C 144.13 139.82 145.40 137.78 145.45 135.40
  Q 145.56 130.49 145.47 125.63
  A 0.77 0.77 0.0 0 1 146.10 124.86
  C 153.28 123.64 161.56 119.67 163.60 112.10
  C 164.91 107.23 160.61 100.97 157.66 97.39
  C 151.06 89.36 141.71 81.09 132.09 77.65
  Q 131.54 77.45 131.12 77.87
  L 127.43 81.58
  A 0.64 0.64 0.0 0 1 126.52 81.57
  L 122.68 77.66
  Q 122.38 77.35 121.99 77.53
  Q 98.53 88.07 93.24 111.28
  C 91.69 118.06 91.88 125.47 92.83 132.47
  C 93.51 137.48 97.62 141.67 102.86 138.87
  Q 106.94 136.70 106.54 131.99
  C 105.91 124.44 105.71 116.61 107.89 109.52
  Q 108.23 108.39 108.24 109.58"
/>
<path stroke="#808080" vector-effect="non-scaling-stroke" d="
  M 132.90 95.05
  Q 132.88 94.25 132.48 93.53
  Q 132.17 93.00 131.56 93.00
  L 122.46 93.00
  A 1.33 1.32 -71.3 0 0 121.40 93.53
  Q 120.88 94.23 120.85 95.10
  Q 120.84 95.67 120.26 95.66
  Q 118.49 95.63 116.47 95.61
  Q 114.14 95.59 114.14 97.92
  Q 114.10 114.13 114.14 129.77
  A 1.86 1.86 0.0 0 0 116.00 131.63
  L 138.09 131.62
  A 1.48 1.48 0.0 0 0 139.57 130.17
  L 139.65 127.06
  Q 139.67 125.92 138.56 126.16
  Q 132.79 127.41 130.05 122.70
  C 128.20 119.53 129.31 115.59 132.23 113.49
  C 134.14 112.11 136.81 112.28 139.07 111.75
  Q 139.63 111.63 139.63 111.05
  L 139.62 97.42
  A 1.73 1.73 0.0 0 0 137.92 95.69
  L 133.47 95.61
  Q 132.91 95.60 132.90 95.05"
/>
<path stroke="#808080" vector-effect="non-scaling-stroke" d="
  M 149.45 108.83
  Q 150.37 108.41 149.73 107.62
  L 146.17 103.19
  Q 145.50 102.35 145.50 103.43
  L 145.50 109.76
  Q 145.50 110.62 146.28 110.27
  L 149.45 108.83"
/>
</g>
<path fill="#ffffff" d="
  M 121.87 0.00
  L 134.24 0.00
  Q 139.12 0.58 143.98 1.20
  Q 175.54 5.19 200.61 22.57
  C 231.68 44.11 250.91 77.00 255.27 114.31
  C 255.56 116.81 255.52 119.40 256.00 121.88
  L 256.00 133.23
  Q 253.60 177.81 226.18 210.17
  C 184.99 258.77 115.09 270.45 60.56 236.79
  Q 52.05 231.54 44.37 224.83
  Q 3.91 189.46 0.00 133.88
  L 0.00 122.01
  Q 0.56 117.00 1.19 112.02
  Q 4.67 84.27 19.00 60.86
  Q 24.09 52.55 30.84 44.77
  Q 66.14 4.06 121.87 0.00
  Z
  M 145.14 58.20
  A 18.22 18.22 0.0 0 0 126.92 39.98
  A 18.22 18.22 0.0 0 0 108.70 58.20
  A 18.22 18.22 0.0 0 0 126.92 76.42
  A 18.22 18.22 0.0 0 0 145.14 58.20
  Z
  M 108.24 109.58
  Q 108.34 121.49 108.21 134.49
  Q 108.19 136.66 108.84 138.74
  Q 109.50 140.81 109.50 142.87
  Q 109.50 172.95 109.51 203.24
  C 109.51 208.06 109.09 212.58 114.25 215.08
  C 119.73 217.74 126.29 213.92 126.28 207.81
  Q 126.21 179.46 126.26 149.99
  Q 126.26 149.36 126.89 149.48
  L 127.20 149.55
  A 0.38 0.37 -84.4 0 1 127.50 149.92
  Q 127.50 178.70 127.51 207.89
  C 127.51 210.77 129.35 213.59 131.78 214.98
  C 137.81 218.44 144.15 213.57 144.14 207.06
  Q 144.11 173.09 144.13 142.12
  C 144.13 139.82 145.40 137.78 145.45 135.40
  Q 145.56 130.49 145.47 125.63
  A 0.77 0.77 0.0 0 1 146.10 124.86
  C 153.28 123.64 161.56 119.67 163.60 112.10
  C 164.91 107.23 160.61 100.97 157.66 97.39
  C 151.06 89.36 141.71 81.09 132.09 77.65
  Q 131.54 77.45 131.12 77.87
  L 127.43 81.58
  A 0.64 0.64 0.0 0 1 126.52 81.57
  L 122.68 77.66
  Q 122.38 77.35 121.99 77.53
  Q 98.53 88.07 93.24 111.28
  C 91.69 118.06 91.88 125.47 92.83 132.47
  C 93.51 137.48 97.62 141.67 102.86 138.87
  Q 106.94 136.70 106.54 131.99
  C 105.91 124.44 105.71 116.61 107.89 109.52
  Q 108.23 108.39 108.24 109.58
  Z"
/>
<circle fill="#000000" cx="126.92" cy="58.20" r="18.22"/>
<path fill="#000000" d="
  M 107.89 109.52
  C 105.71 116.61 105.91 124.44 106.54 131.99
  Q 106.94 136.70 102.86 138.87
  C 97.62 141.67 93.51 137.48 92.83 132.47
  C 91.88 125.47 91.69 118.06 93.24 111.28
  Q 98.53 88.07 121.99 77.53
  Q 122.38 77.35 122.68 77.66
  L 126.52 81.57
  A 0.64 0.64 0.0 0 0 127.43 81.58
  L 131.12 77.87
  Q 131.54 77.45 132.09 77.65
  C 141.71 81.09 151.06 89.36 157.66 97.39
  C 160.61 100.97 164.91 107.23 163.60 112.10
  C 161.56 119.67 153.28 123.64 146.10 124.86
  A 0.77 0.77 0.0 0 0 145.47 125.63
  Q 145.56 130.49 145.45 135.40
  C 145.40 137.78 144.13 139.82 144.13 142.12
  Q 144.11 173.09 144.14 207.06
  C 144.15 213.57 137.81 218.44 131.78 214.98
  C 129.35 213.59 127.51 210.77 127.51 207.89
  Q 127.50 178.70 127.50 149.92
  A 0.38 0.37 -84.4 0 0 127.20 149.55
  L 126.89 149.48
  Q 126.26 149.36 126.26 149.99
  Q 126.21 179.46 126.28 207.81
  C 126.29 213.92 119.73 217.74 114.25 215.08
  C 109.09 212.58 109.51 208.06 109.51 203.24
  Q 109.50 172.95 109.50 142.87
  Q 109.50 140.81 108.84 138.74
  Q 108.19 136.66 108.21 134.49
  Q 108.34 121.49 108.24 109.58
  Q 108.23 108.39 107.89 109.52
  Z
  M 132.90 95.05
  Q 132.88 94.25 132.48 93.53
  Q 132.17 93.00 131.56 93.00
  L 122.46 93.00
  A 1.33 1.32 -71.3 0 0 121.40 93.53
  Q 120.88 94.23 120.85 95.10
  Q 120.84 95.67 120.26 95.66
  Q 118.49 95.63 116.47 95.61
  Q 114.14 95.59 114.14 97.92
  Q 114.10 114.13 114.14 129.77
  A 1.86 1.86 0.0 0 0 116.00 131.63
  L 138.09 131.62
  A 1.48 1.48 0.0 0 0 139.57 130.17
  L 139.65 127.06
  Q 139.67 125.92 138.56 126.16
  Q 132.79 127.41 130.05 122.70
  C 128.20 119.53 129.31 115.59 132.23 113.49
  C 134.14 112.11 136.81 112.28 139.07 111.75
  Q 139.63 111.63 139.63 111.05
  L 139.62 97.42
  A 1.73 1.73 0.0 0 0 137.92 95.69
  L 133.47 95.61
  Q 132.91 95.60 132.90 95.05
  Z
  M 149.45 108.83
  Q 150.37 108.41 149.73 107.62
  L 146.17 103.19
  Q 145.50 102.35 145.50 103.43
  L 145.50 109.76
  Q 145.50 110.62 146.28 110.27
  L 149.45 108.83
  Z"
/>
<path fill="#ffffff" d="
  M 133.47 95.61
  L 137.92 95.69
  A 1.73 1.73 0.0 0 1 139.62 97.42
  L 139.63 111.05
  Q 139.63 111.63 139.07 111.75
  C 136.81 112.28 134.14 112.11 132.23 113.49
  C 129.31 115.59 128.20 119.53 130.05 122.70
  Q 132.79 127.41 138.56 126.16
  Q 139.67 125.92 139.65 127.06
  L 139.57 130.17
  A 1.48 1.48 0.0 0 1 138.09 131.62
  L 116.00 131.63
  A 1.86 1.86 0.0 0 1 114.14 129.77
  Q 114.10 114.13 114.14 97.92
  Q 114.14 95.59 116.47 95.61
  Q 118.49 95.63 120.26 95.66
  Q 120.84 95.67 120.85 95.10
  Q 120.88 94.23 121.40 93.53
  A 1.33 1.32 -71.3 0 1 122.46 93.00
  L 131.56 93.00
  Q 132.17 93.00 132.48 93.53
  Q 132.88 94.25 132.90 95.05
  Q 132.91 95.60 133.47 95.61
  Z"
/>
<path fill="#ffffff" d="
  M 149.45 108.83
  L 146.28 110.27
  Q 145.50 110.62 145.50 109.76
  L 145.50 103.43
  Q 145.50 102.35 146.17 103.19
  L 149.73 107.62
  Q 150.37 108.41 149.45 108.83
  Z"
/>
</svg>
