<?xml version="1.0" encoding="UTF-8" standalone="no"?>
<!DOCTYPE svg PUBLIC "-//W3C//DTD SVG 1.1//EN" "http://www.w3.org/Graphics/SVG/1.1/DTD/svg11.dtd">
<svg xmlns="http://www.w3.org/2000/svg" version="1.1" viewBox="0.00 0.00 256.00 360.00">
<g stroke-width="2.00" fill="none" stroke-linecap="butt">
<path stroke="#808080" vector-effect="non-scaling-stroke" d="
  M 165.63 73.06
  L 165.62 186.85
  Q 165.62 188.00 166.77 188.00
  L 191.69 188.00
  Q 194.37 188.00 194.37 185.31
  L 194.37 46.56
  Q 194.37 44.00 191.81 44.00
  L 62.75 44.00
  Q 60.00 44.00 60.00 46.75
  L 60.00 185.75
  A 2.25 2.25 0.0 0 0 62.25 188.00
  L 74.00 188.00
  A 0.37 0.37 0.0 0 0 74.37 187.63
  L 74.38 73.12
  Q 74.38 72.75 74.75 72.75
  L 165.31 72.75
  Q 165.63 72.75 165.63 73.06"
/>
<path stroke="#808080" vector-effect="non-scaling-stroke" d="
  M 117.63 77.97
  A 0.35 0.35 0.0 0 0 117.28 77.62
  L 79.60 77.63
  A 0.35 0.35 0.0 0 0 79.25 77.98
  L 79.25 187.65
  A 0.35 0.35 0.0 0 0 79.60 188.00
  L 117.27 188.00
  A 0.35 0.35 0.0 0 0 117.62 187.65
  L 117.63 77.97"
/>
<path stroke="#808080" vector-effect="non-scaling-stroke" d="
  M 160.75 77.98
  A 0.36 0.36 0.0 0 0 160.39 77.62
  L 122.73 77.62
  A 0.36 0.36 0.0 0 0 122.37 77.98
  L 122.37 187.64
  A 0.36 0.36 0.0 0 0 122.73 188.00
  L 160.39 188.00
  A 0.36 0.36 0.0 0 0 160.75 187.64
  L 160.75 77.98"
/>
<path stroke="#808080" vector-effect="non-scaling-stroke" d="
  M 139.15 60.54
  A 6.89 6.89 0.0 0 0 132.26 53.65
  L 107.74 53.65
  A 6.89 6.89 0.0 0 0 100.85 60.54
  L 100.85 61.08
  A 6.89 6.89 0.0 0 0 107.74 67.97
  L 132.26 67.97
  A 6.89 6.89 0.0 0 0 139.15 61.08
  L 139.15 60.54"
/>
<path stroke="#808080" vector-effect="non-scaling-stroke" d="
  M 178.24 122.41
  L 181.15 125.22
  A 1.61 1.58 -22.3 0 0 182.23 125.66
  Q 183.51 125.67 184.18 124.81
  Q 185.55 123.03 183.96 121.45
  L 179.03 116.54
  A 2.09 2.09 0.0 0 0 176.08 116.54
  L 170.96 121.66
  A 1.78 1.74 69.3 0 0 170.45 122.83
  Q 170.38 124.52 171.42 125.11
  Q 173.34 126.21 174.89 124.63
  L 177.07 122.42
  Q 177.65 121.84 178.24 122.41"
/>
<path stroke="#808080" vector-effect="non-scaling-stroke" d="
  M 177.07 138.59
  L 174.78 136.26
  Q 173.27 134.73 171.33 135.65
  Q 170.94 135.83 170.77 136.23
  Q 169.98 138.12 171.43 139.57
  L 176.09 144.21
  A 2.28 2.27 44.7 0 0 179.31 144.20
  L 183.95 139.55
  Q 185.60 137.90 184.19 136.04
  Q 183.64 135.31 182.43 135.16
  A 1.72 1.71 -63.7 0 0 181.02 135.64
  L 178.00 138.59
  Q 177.53 139.06 177.07 138.59"
/>
<path stroke="#808080" vector-effect="non-scaling-stroke" d="
  M 134.40 60.76
  A 2.38 2.38 0.0 0 0 132.02 58.38
  L 108.06 58.38
  A 2.38 2.38 0.0 0 0 105.68 60.76
  L 105.68 60.86
  A 2.38 2.38 0.0 0 0 108.06 63.24
  L 132.02 63.24
  A 2.38 2.38 0.0 0 0 134.40 60.86
  L 134.40 60.76"
/>
</g>
<path fill="#ffffff" d="
  M 121.88 0.00
  L 134.24 0.00
  Q 139.12 0.58 143.98 1.20
  Q 175.61 5.19 200.58 22.55
  C 230.57 43.41 251.05 76.38 255.04 112.79
  Q 255.54 117.33 256.00 121.88
  L 256.00 133.23
  Q 253.60 177.79 226.18 210.17
  C 197.34 244.22 153.98 260.91 109.69 254.64
  C 52.98 246.61 7.24 200.39 0.94 143.13
  Q 0.43 138.50 0.00 133.87
  L 0.00 122.03
  Q 1.46 97.27 10.77 76.50
  Q 25.51 43.61 54.03 23.54
  Q 81.05 4.53 114.02 0.94
  Q 117.96 0.51 121.88 0.00
  Z
  M 165.63 73.06
  L 165.62 186.85
  Q 165.62 188.00 166.77 188.00
  L 191.69 188.00
  Q 194.37 188.00 194.37 185.31
  L 194.37 46.56
  Q 194.37 44.00 191.81 44.00
  L 62.75 44.00
  Q 60.00 44.00 60.00 46.75
  L 60.00 185.75
  A 2.25 2.25 0.0 0 0 62.25 188.00
  L 74.00 188.00
  A 0.37 0.37 0.0 0 0 74.37 187.63
  L 74.38 73.12
  Q 74.38 72.75 74.75 72.75
  L 165.31 72.75
  Q 165.63 72.75 165.63 73.06
  Z
  M 117.63 77.97
  A 0.35 0.35 0.0 0 0 117.28 77.62
  L 79.60 77.63
  A 0.35 0.35 0.0 0 0 79.25 77.98
  L 79.25 187.65
  A 0.35 0.35 0.0 0 0 79.60 188.00
  L 117.27 188.00
  A 0.35 0.35 0.0 0 0 117.62 187.65
  L 117.63 77.97
  Z
  M 160.75 77.98
  A 0.36 0.36 0.0 0 0 160.39 77.62
  L 122.73 77.62
  A 0.36 0.36 0.0 0 0 122.37 77.98
  L 122.37 187.64
  A 0.36 0.36 0.0 0 0 122.73 188.00
  L 160.39 188.00
  A 0.36 0.36 0.0 0 0 160.75 187.64
  L 160.75 77.98
  Z"
/>
<path fill="#000000" d="
  M 165.31 72.75
  L 74.75 72.75
  Q 74.38 72.75 74.38 73.12
  L 74.37 187.63
  A 0.37 0.37 0.0 0 1 74.00 188.00
  L 62.25 188.00
  A 2.25 2.25 0.0 0 1 60.00 185.75
  L 60.00 46.75
  Q 60.00 44.00 62.75 44.00
  L 191.81 44.00
  Q 194.37 44.00 194.37 46.56
  L 194.37 185.31
  Q 194.37 188.00 191.69 188.00
  L 166.77 188.00
  Q 165.62 188.00 165.62 186.85
  L 165.63 73.06
  Q 165.63 72.75 165.31 72.75
  Z
  M 139.15 60.54
  A 6.89 6.89 0.0 0 0 132.26 53.65
  L 107.74 53.65
  A 6.89 6.89 0.0 0 0 100.85 60.54
  L 100.85 61.08
  A 6.89 6.89 0.0 0 0 107.74 67.97
  L 132.26 67.97
  A 6.89 6.89 0.0 0 0 139.15 61.08
  L 139.15 60.54
  Z
  M 178.24 122.41
  L 181.15 125.22
  A 1.61 1.58 -22.3 0 0 182.23 125.66
  Q 183.51 125.67 184.18 124.81
  Q 185.55 123.03 183.96 121.45
  L 179.03 116.54
  A 2.09 2.09 0.0 0 0 176.08 116.54
  L 170.96 121.66
  A 1.78 1.74 69.3 0 0 170.45 122.83
  Q 170.38 124.52 171.42 125.11
  Q 173.34 126.21 174.89 124.63
  L 177.07 122.42
  Q 177.65 121.84 178.24 122.41
  Z
  M 177.07 138.59
  L 174.78 136.26
  Q 173.27 134.73 171.33 135.65
  Q 170.94 135.83 170.77 136.23
  Q 169.98 138.12 171.43 139.57
  L 176.09 144.21
  A 2.28 2.27 44.7 0 0 179.31 144.20
  L 183.95 139.55
  Q 185.60 137.90 184.19 136.04
  Q 183.64 135.31 182.43 135.16
  A 1.72 1.71 -63.7 0 0 181.02 135.64
  L 178.00 138.59
  Q 177.53 139.06 177.07 138.59
  Z"
/>
<path fill="#ffffff" d="
  M 139.15 61.08
  A 6.89 6.89 0.0 0 1 132.26 67.97
  L 107.74 67.97
  A 6.89 6.89 0.0 0 1 100.85 61.08
  L 100.85 60.54
  A 6.89 6.89 0.0 0 1 107.74 53.65
  L 132.26 53.65
  A 6.89 6.89 0.0 0 1 139.15 60.54
  L 139.15 61.08
  Z
  M 134.40 60.76
  A 2.38 2.38 0.0 0 0 132.02 58.38
  L 108.06 58.38
  A 2.38 2.38 0.0 0 0 105.68 60.76
  L 105.68 60.86
  A 2.38 2.38 0.0 0 0 108.06 63.24
  L 132.02 63.24
  A 2.38 2.38 0.0 0 0 134.40 60.86
  L 134.40 60.76
  Z"
/>
<rect fill="#000000" x="105.68" y="58.38" width="28.72" height="4.86" rx="2.38"/>
<path fill="#000000" d="
  M 117.63 77.97
  L 117.62 187.65
  A 0.35 0.35 0.0 0 1 117.27 188.00
  L 79.60 188.00
  A 0.35 0.35 0.0 0 1 79.25 187.65
  L 79.25 77.98
  A 0.35 0.35 0.0 0 1 79.60 77.63
  L 117.28 77.62
  A 0.35 0.35 0.0 0 1 117.63 77.97
  Z"
/>
<rect fill="#000000" x="122.37" y="77.62" width="38.38" height="110.38" rx="0.36"/>
<path fill="#ffffff" d="
  M 177.07 122.42
  L 174.89 124.63
  Q 173.34 126.21 171.42 125.11
  Q 170.38 124.52 170.45 122.83
  A 1.78 1.74 69.3 0 1 170.96 121.66
  L 176.08 116.54
  A 2.09 2.09 0.0 0 1 179.03 116.54
  L 183.96 121.45
  Q 185.55 123.03 184.18 124.81
  Q 183.51 125.67 182.23 125.66
  A 1.61 1.58 -22.3 0 1 181.15 125.22
  L 178.24 122.41
  Q 177.65 121.84 177.07 122.42
  Z"
/>
<path fill="#ffffff" d="
  M 178.00 138.59
  L 181.02 135.64
  A 1.72 1.71 -63.7 0 1 182.43 135.16
  Q 183.64 135.31 184.19 136.04
  Q 185.60 137.90 183.95 139.55
  L 179.31 144.20
  A 2.28 2.27 44.7 0 1 176.09 144.21
  L 171.43 139.57
  Q 169.98 138.12 170.77 136.23
  Q 170.94 135.83 171.33 135.65
  Q 173.27 134.73 174.78 136.26
  L 177.07 138.59
  Q 177.53 139.06 178.00 138.59
  Z"
/>
</svg>
