<?xml version="1.0" encoding="UTF-8" standalone="no"?>
<!DOCTYPE svg PUBLIC "-//W3C//DTD SVG 1.1//EN" "http://www.w3.org/Graphics/SVG/1.1/DTD/svg11.dtd">
<svg xmlns="http://www.w3.org/2000/svg" version="1.1" viewBox="0.00 0.00 256.00 360.00">
<g stroke-width="2.00" fill="none" stroke-linecap="butt">
<path stroke="#808080" vector-effect="non-scaling-stroke" d="
  M 185.54 13.66
  Q 174.21 26.55 163.16 39.41
  Q 162.64 40.01 160.73 40.38
  Q 160.20 40.48 159.71 40.25
  Q 154.87 37.99 149.96 41.62
  A 0.76 0.76 0.0 0 1 148.96 41.53
  L 136.89 28.91
  A 1.29 1.29 0.0 0 1 136.54 28.08
  Q 136.40 23.45 131.81 23.16
  Q 131.28 23.13 130.93 22.74
  L 127.97 19.53
  Q 127.66 19.19 127.26 19.40
  Q 127.10 19.49 126.96 19.59
  Q 126.51 19.94 126.16 19.50
  Q 124.46 17.43 121.83 17.00
  Q 121.26 16.91 121.34 16.33
  C 121.46 15.42 121.75 14.61 122.65 14.19
  Q 126.93 12.18 126.11 6.72
  Q 126.03 6.19 125.49 6.22
  L 124.11 6.28
  Q 123.63 6.31 123.70 6.78
  C 123.88 8.06 123.92 10.25 122.88 11.22
  Q 122.36 11.70 122.38 11.00
  L 122.46 7.02
  A 0.71 0.71 0.0 0 0 121.77 6.29
  L 120.29 6.23
  Q 119.74 6.21 119.67 6.76
  Q 119.42 8.76 118.14 10.44
  A 0.37 0.37 0.0 0 1 117.47 10.23
  L 117.30 6.59
  Q 117.28 6.30 117.00 6.29
  L 115.30 6.24
  Q 115.14 6.23 115.10 6.39
  Q 114.43 9.74 116.07 12.32
  Q 116.37 12.79 116.06 13.26
  C 115.01 14.86 113.19 17.53 115.10 19.15
  Q 115.97 19.89 117.18 19.79
  Q 121.11 19.48 124.58 20.32
  Q 125.05 20.43 125.21 20.89
  Q 125.86 22.74 127.63 23.97
  A 0.90 0.89 -57.5 0 1 127.89 25.15
  L 116.47 44.69
  Q 115.98 45.53 116.87 45.14
  Q 122.30 42.76 127.86 42.90
  Q 128.59 42.91 128.95 42.29
  L 134.88 32.10
  A 0.23 0.23 0.0 0 1 135.24 32.05
  L 146.61 43.91
  A 0.58 0.58 0.0 0 1 146.65 44.68
  Q 144.51 47.35 144.09 50.61
  Q 144.01 51.20 143.41 51.32
  L 126.40 54.59
  Q 125.80 54.70 125.95 55.29
  Q 126.94 59.00 126.21 62.99
  Q 126.09 63.63 126.73 63.50
  Q 134.52 61.87 143.04 60.30
  Q 143.86 60.15 144.75 60.23
  Q 145.28 60.28 145.36 59.76
  C 146.59 52.37 154.46 45.41 160.73 42.24
  C 162.10 41.54 165.87 40.47 167.05 41.90
  Q 167.60 42.57 166.74 42.50
  C 160.18 42.00 152.26 50.17 148.75 55.48
  A 0.21 0.20 2.3 0 0 149.02 55.77
  Q 150.91 54.74 152.98 55.00
  Q 153.51 55.06 153.82 54.64
  Q 157.90 49.19 163.71 46.84
  Q 165.88 45.97 165.74 48.30
  C 165.54 51.54 160.87 56.00 158.37 57.96
  Q 157.91 58.32 158.12 58.86
  Q 159.48 62.38 157.41 65.42
  A 1.21 1.21 0.0 0 0 157.36 66.71
  L 167.64 84.06
  A 1.97 1.97 0.0 0 0 170.11 84.87
  Q 174.06 83.20 177.78 80.51
  A 2.27 2.27 0.0 0 0 178.43 77.55
  L 165.29 54.20
  Q 164.95 53.60 165.40 53.08
  Q 167.34 50.81 168.26 48.06
  Q 168.88 46.22 170.42 44.42
  Q 181.77 31.19 193.52 18.03"
/>
<path stroke="#808080" vector-effect="non-scaling-stroke" d="
  M 64.52 239.22
  L 67.07 228.36
  A 0.75 0.75 0.0 0 1 67.80 227.79
  L 104.25 227.79
  Q 104.99 227.79 104.89 228.52
  L 101.90 249.63
  A 0.22 0.22 0.0 0 0 102.13 249.87
  L 107.03 249.45
  A 0.27 0.27 0.0 0 0 107.27 249.22
  L 123.02 137.76
  Q 123.10 137.13 123.74 137.13
  L 132.52 137.14
  Q 132.93 137.14 132.93 136.73
  L 132.94 133.23
  A 0.47 0.46 -90.0 0 0 132.48 132.76
  L 122.71 132.76
  Q 121.97 132.76 121.86 133.48
  Q 120.27 143.22 118.59 153.24
  C 118.11 156.12 117.04 157.27 115.14 159.31
  C 114.11 160.42 114.29 162.28 114.12 163.71
  Q 114.05 164.28 113.47 164.28
  L 98.03 164.28
  Q 97.59 164.28 97.48 164.72
  L 96.98 166.71
  Q 96.82 167.33 97.46 167.33
  L 112.92 167.32
  Q 113.53 167.32 113.44 167.92
  L 109.79 193.91
  Q 109.70 194.51 109.09 194.51
  L 75.57 194.52
  Q 74.97 194.52 75.10 193.92
  L 76.15 189.25
  Q 76.26 188.77 76.09 188.31
  Q 75.15 185.75 75.62 183.26
  Q 78.54 168.08 82.08 149.46
  C 82.35 148.05 82.27 146.67 81.72 145.36
  Q 81.19 144.09 80.88 145.43
  L 59.91 236.37"
/>
<path stroke="#808080" vector-effect="non-scaling-stroke" d="
  M 117.66 55.89
  C 121.77 54.51 128.64 51.46 130.47 47.51
  A 1.90 1.90 0.0 0 0 128.89 44.82
  Q 122.72 44.36 116.95 47.06
  Q 116.56 47.25 116.16 47.10
  C 102.63 42.16 91.76 58.53 101.66 68.96
  C 105.39 72.89 111.81 74.31 116.67 71.96
  Q 126.12 67.40 124.41 56.26
  A 0.89 0.89 0.0 0 0 123.28 55.55
  Q 120.55 56.37 117.72 56.29
  Q 116.55 56.26 117.66 55.89"
/>
<path stroke="#808080" vector-effect="non-scaling-stroke" d="
  M 111.24 109.54
  L 116.34 87.80
  Q 116.46 87.30 116.97 87.29
  L 138.53 86.73
  A 4.14 4.13 -73.3 0 0 141.83 84.95
  Q 148.51 75.30 155.68 64.77
  C 159.81 58.72 151.85 53.54 147.98 59.13
  Q 142.11 67.63 135.93 76.73
  Q 135.59 77.23 134.99 77.24
  Q 126.32 77.37 117.29 77.75
  Q 113.47 77.91 109.75 76.97
  Q 105.27 75.83 101.20 74.90
  A 0.34 0.34 0.0 0 1 101.07 74.30
  L 102.77 72.95
  A 0.52 0.52 0.0 0 0 102.71 72.09
  Q 99.24 70.04 97.49 65.82
  Q 97.20 65.13 96.63 65.62
  L 87.37 73.55
  A 4.43 4.37 76.7 0 0 85.93 75.92
  L 76.56 115.79
  Q 76.16 117.50 76.60 119.19
  Q 79.92 132.08 83.70 145.79
  Q 84.25 147.78 83.90 149.62
  Q 80.63 166.71 77.41 183.22
  C 75.89 191.01 85.74 195.52 90.16 189.18
  Q 91.31 187.52 91.87 184.49
  Q 95.15 166.46 98.56 149.52
  A 9.06 8.94 43.4 0 0 98.42 145.42
  L 96.15 137.02
  Q 96.00 136.48 96.52 136.29
  Q 98.15 135.70 99.61 134.77
  Q 105.56 130.97 111.19 127.37
  Q 111.76 127.00 112.19 127.53
  L 112.52 127.94
  Q 112.92 128.44 112.37 128.79
  L 105.94 132.86
  A 1.16 1.14 -12.0 0 0 105.42 133.65
  Q 104.25 141.71 102.68 150.35
  C 100.84 160.43 115.30 163.09 116.98 152.30
  Q 119.67 135.09 122.57 118.61
  Q 123.00 116.18 122.49 114.07
  C 121.37 109.46 115.92 107.60 111.86 110.00
  Q 111.02 110.49 111.24 109.54"
/>
<path stroke="#808080" vector-effect="non-scaling-stroke" d="
  M 102.90 134.78
  L 100.01 136.58
  Q 99.19 137.10 100.16 137.11
  L 102.51 137.14
  A 0.74 0.74 0.0 0 0 103.25 136.48
  L 103.39 135.09
  Q 103.46 134.42 102.90 134.78"
/>
<path stroke="#808080" vector-effect="non-scaling-stroke" d="
  M 133.17 163.87
  A 0.34 0.34 0.0 0 1 132.84 164.29
  L 121.35 164.28
  A 0.34 0.34 0.0 0 0 121.02 164.57
  L 120.68 166.94
  A 0.34 0.34 0.0 0 0 121.01 167.33
  L 133.70 167.32
  A 0.34 0.34 0.0 0 1 134.03 167.58
  L 140.15 194.09
  A 0.34 0.34 0.0 0 1 139.82 194.51
  L 117.10 194.51
  A 0.34 0.34 0.0 0 0 116.76 194.81
  L 116.48 197.12
  A 0.34 0.34 0.0 0 0 116.81 197.50
  L 140.67 197.50
  A 0.34 0.34 0.0 0 1 141.00 197.76
  L 147.14 224.40
  A 0.34 0.34 0.0 0 1 146.81 224.82
  L 112.81 224.82
  A 0.34 0.34 0.0 0 0 112.47 225.12
  L 112.22 227.41
  A 0.34 0.34 0.0 0 0 112.56 227.79
  L 147.67 227.78
  A 0.34 0.34 0.0 0 1 148.00 228.04
  L 152.70 248.51
  A 0.34 0.34 0.0 0 0 153.03 248.78
  L 157.71 248.75
  A 0.34 0.34 0.0 0 0 158.03 248.34
  L 132.87 139.21
  A 0.34 0.34 0.0 0 0 132.54 138.95
  L 127.86 138.97
  A 0.34 0.34 0.0 0 0 127.53 139.38
  L 133.17 163.87"
/>
<path stroke="#808080" vector-effect="non-scaling-stroke" d="
  M 99.31 154.50
  L 97.95 162.08
  Q 97.87 162.54 98.33 162.54
  L 100.50 162.54
  Q 101.04 162.54 100.96 162.00
  L 99.77 154.51
  Q 99.56 153.15 99.31 154.50"
/>
<path stroke="#808080" vector-effect="non-scaling-stroke" d="
  M 99.90 192.39
  A 0.40 0.40 0.0 0 0 100.30 192.74
  L 104.80 192.72
  A 0.40 0.40 0.0 0 0 105.20 192.27
  L 101.97 169.48
  A 0.40 0.40 0.0 0 0 101.57 169.14
  L 97.06 169.12
  A 0.40 0.40 0.0 0 0 96.66 169.58
  L 99.90 192.39"
/>
<path stroke="#808080" vector-effect="non-scaling-stroke" d="
  M 110.62 236.55
  Q 110.19 242.79 109.13 248.65
  Q 108.97 249.52 109.86 249.59
  L 112.59 249.81
  Q 113.40 249.88 113.26 249.07
  Q 112.15 242.65 111.64 236.54
  A 0.51 0.51 0.0 0 0 110.62 236.55"
/>
<path stroke="#808080" vector-effect="non-scaling-stroke" d="
  M 120.78 7.18
  Q 120.53 9.47 119.12 11.01
  Q 118.79 11.36 119.12 11.71
  Q 119.61 12.22 120.38 12.26
  Q 121.12 12.30 121.16 11.56
  L 121.37 7.40
  Q 121.38 7.15 121.13 7.13
  L 120.85 7.12
  Q 120.79 7.11 120.78 7.18"
/>
<path stroke="#808080" vector-effect="non-scaling-stroke" d="
  M 119.93 14.51
  Q 118.81 14.54 117.95 13.95
  Q 117.23 13.45 116.79 14.21
  C 116.16 15.33 115.18 16.78 115.58 18.08
  A 0.54 0.53 -7.4 0 0 116.08 18.46
  L 121.98 18.70
  Q 123.04 18.74 122.02 18.46
  Q 118.99 17.64 120.40 15.31
  Q 120.90 14.48 119.93 14.51"
/>
<path stroke="#808080" vector-effect="non-scaling-stroke" d="
  M 74.51 197.50
  A 0.32 0.32 0.0 0 0 74.20 197.75
  L 68.04 224.43
  A 0.32 0.32 0.0 0 0 68.35 224.82
  L 105.13 224.82
  A 0.32 0.32 0.0 0 0 105.45 224.54
  L 109.23 197.86
  A 0.32 0.32 0.0 0 0 108.91 197.50
  L 74.51 197.50"
/>
<path stroke="#808080" vector-effect="non-scaling-stroke" d="
  M 104.36 219.30
  Q 105.38 212.45 106.47 204.21
  Q 106.75 202.11 106.28 199.75
  Q 106.18 199.29 105.72 199.29
  L 101.53 199.28
  A 0.65 0.65 0.0 0 0 100.89 200.05
  Q 102.53 209.35 103.44 219.27
  A 0.46 0.46 0.0 0 0 104.36 219.30"
/>
</g>
<path fill="#ffffff" d="
  M 121.88 0.00
  L 134.24 0.00
  Q 139.12 0.57 143.98 1.16
  Q 165.88 3.79 185.54 13.66
  Q 174.21 26.55 163.16 39.41
  Q 162.64 40.01 160.73 40.38
  Q 160.20 40.48 159.71 40.25
  Q 154.87 37.99 149.96 41.62
  A 0.76 0.76 0.0 0 1 148.96 41.53
  L 136.89 28.91
  A 1.29 1.29 0.0 0 1 136.54 28.08
  Q 136.40 23.45 131.81 23.16
  Q 131.28 23.13 130.93 22.74
  L 127.97 19.53
  Q 127.66 19.19 127.26 19.40
  Q 127.10 19.49 126.96 19.59
  Q 126.51 19.94 126.16 19.50
  Q 124.46 17.43 121.83 17.00
  Q 121.26 16.91 121.34 16.33
  C 121.46 15.42 121.75 14.61 122.65 14.19
  Q 126.93 12.18 126.11 6.72
  Q 126.03 6.19 125.49 6.22
  L 124.11 6.28
  Q 123.63 6.31 123.70 6.78
  C 123.88 8.06 123.92 10.25 122.88 11.22
  Q 122.36 11.70 122.38 11.00
  L 122.46 7.02
  A 0.71 0.71 0.0 0 0 121.77 6.29
  L 120.29 6.23
  Q 119.74 6.21 119.67 6.76
  Q 119.42 8.76 118.14 10.44
  A 0.37 0.37 0.0 0 1 117.47 10.23
  L 117.30 6.59
  Q 117.28 6.30 117.00 6.29
  L 115.30 6.24
  Q 115.14 6.23 115.10 6.39
  Q 114.43 9.74 116.07 12.32
  Q 116.37 12.79 116.06 13.26
  C 115.01 14.86 113.19 17.53 115.10 19.15
  Q 115.97 19.89 117.18 19.79
  Q 121.11 19.48 124.58 20.32
  Q 125.05 20.43 125.21 20.89
  Q 125.86 22.74 127.63 23.97
  A 0.90 0.89 -57.5 0 1 127.89 25.15
  L 116.47 44.69
  Q 115.98 45.53 116.87 45.14
  Q 122.30 42.76 127.86 42.90
  Q 128.59 42.91 128.95 42.29
  L 134.88 32.10
  A 0.23 0.23 0.0 0 1 135.24 32.05
  L 146.61 43.91
  A 0.58 0.58 0.0 0 1 146.65 44.68
  Q 144.51 47.35 144.09 50.61
  Q 144.01 51.20 143.41 51.32
  L 126.40 54.59
  Q 125.80 54.70 125.95 55.29
  Q 126.94 59.00 126.21 62.99
  Q 126.09 63.63 126.73 63.50
  Q 134.52 61.87 143.04 60.30
  Q 143.86 60.15 144.75 60.23
  Q 145.28 60.28 145.36 59.76
  C 146.59 52.37 154.46 45.41 160.73 42.24
  C 162.10 41.54 165.87 40.47 167.05 41.90
  Q 167.60 42.57 166.74 42.50
  C 160.18 42.00 152.26 50.17 148.75 55.48
  A 0.21 0.20 2.3 0 0 149.02 55.77
  Q 150.91 54.74 152.98 55.00
  Q 153.51 55.06 153.82 54.64
  Q 157.90 49.19 163.71 46.84
  Q 165.88 45.97 165.74 48.30
  C 165.54 51.54 160.87 56.00 158.37 57.96
  Q 157.91 58.32 158.12 58.86
  Q 159.48 62.38 157.41 65.42
  A 1.21 1.21 0.0 0 0 157.36 66.71
  L 167.64 84.06
  A 1.97 1.97 0.0 0 0 170.11 84.87
  Q 174.06 83.20 177.78 80.51
  A 2.27 2.27 0.0 0 0 178.43 77.55
  L 165.29 54.20
  Q 164.95 53.60 165.40 53.08
  Q 167.34 50.81 168.26 48.06
  Q 168.88 46.22 170.42 44.42
  Q 181.77 31.19 193.52 18.03
  Q 222.94 35.79 239.65 65.54
  Q 253.05 89.40 255.36 116.77
  Q 255.57 119.33 256.00 121.88
  L 256.00 133.23
  Q 253.93 171.70 232.25 202.24
  Q 226.50 210.35 219.45 217.57
  Q 196.02 241.55 164.75 250.68
  Q 112.78 265.86 64.52 239.22
  L 67.07 228.36
  A 0.75 0.75 0.0 0 1 67.80 227.79
  L 104.25 227.79
  Q 104.99 227.79 104.89 228.52
  L 101.90 249.63
  A 0.22 0.22 0.0 0 0 102.13 249.87
  L 107.03 249.45
  A 0.27 0.27 0.0 0 0 107.27 249.22
  L 123.02 137.76
  Q 123.10 137.13 123.74 137.13
  L 132.52 137.14
  Q 132.93 137.14 132.93 136.73
  L 132.94 133.23
  A 0.47 0.46 -90.0 0 0 132.48 132.76
  L 122.71 132.76
  Q 121.97 132.76 121.86 133.48
  Q 120.27 143.22 118.59 153.24
  C 118.11 156.12 117.04 157.27 115.14 159.31
  C 114.11 160.42 114.29 162.28 114.12 163.71
  Q 114.05 164.28 113.47 164.28
  L 98.03 164.28
  Q 97.59 164.28 97.48 164.72
  L 96.98 166.71
  Q 96.82 167.33 97.46 167.33
  L 112.92 167.32
  Q 113.53 167.32 113.44 167.92
  L 109.79 193.91
  Q 109.70 194.51 109.09 194.51
  L 75.57 194.52
  Q 74.97 194.52 75.10 193.92
  L 76.15 189.25
  Q 76.26 188.77 76.09 188.31
  Q 75.15 185.75 75.62 183.26
  Q 78.54 168.08 82.08 149.46
  C 82.35 148.05 82.27 146.67 81.72 145.36
  Q 81.19 144.09 80.88 145.43
  L 59.91 236.37
  Q 37.74 222.38 23.12 201.38
  Q 2.14 171.22 0.00 133.84
  L 0.00 122.01
  Q 0.41 118.59 0.70 115.17
  Q 1.00 111.49 1.54 108.25
  C 7.53 71.95 27.46 40.83 58.33 20.62
  Q 83.17 4.36 114.03 0.96
  Q 117.95 0.52 121.88 0.00
  Z
  M 117.66 55.89
  C 121.77 54.51 128.64 51.46 130.47 47.51
  A 1.90 1.90 0.0 0 0 128.89 44.82
  Q 122.72 44.36 116.95 47.06
  Q 116.56 47.25 116.16 47.10
  C 102.63 42.16 91.76 58.53 101.66 68.96
  C 105.39 72.89 111.81 74.31 116.67 71.96
  Q 126.12 67.40 124.41 56.26
  A 0.89 0.89 0.0 0 0 123.28 55.55
  Q 120.55 56.37 117.72 56.29
  Q 116.55 56.26 117.66 55.89
  Z
  M 111.24 109.54
  L 116.34 87.80
  Q 116.46 87.30 116.97 87.29
  L 138.53 86.73
  A 4.14 4.13 -73.3 0 0 141.83 84.95
  Q 148.51 75.30 155.68 64.77
  C 159.81 58.72 151.85 53.54 147.98 59.13
  Q 142.11 67.63 135.93 76.73
  Q 135.59 77.23 134.99 77.24
  Q 126.32 77.37 117.29 77.75
  Q 113.47 77.91 109.75 76.97
  Q 105.27 75.83 101.20 74.90
  A 0.34 0.34 0.0 0 1 101.07 74.30
  L 102.77 72.95
  A 0.52 0.52 0.0 0 0 102.71 72.09
  Q 99.24 70.04 97.49 65.82
  Q 97.20 65.13 96.63 65.62
  L 87.37 73.55
  A 4.43 4.37 76.7 0 0 85.93 75.92
  L 76.56 115.79
  Q 76.16 117.50 76.60 119.19
  Q 79.92 132.08 83.70 145.79
  Q 84.25 147.78 83.90 149.62
  Q 80.63 166.71 77.41 183.22
  C 75.89 191.01 85.74 195.52 90.16 189.18
  Q 91.31 187.52 91.87 184.49
  Q 95.15 166.46 98.56 149.52
  A 9.06 8.94 43.4 0 0 98.42 145.42
  L 96.15 137.02
  Q 96.00 136.48 96.52 136.29
  Q 98.15 135.70 99.61 134.77
  Q 105.56 130.97 111.19 127.37
  Q 111.76 127.00 112.19 127.53
  L 112.52 127.94
  Q 112.92 128.44 112.37 128.79
  L 105.94 132.86
  A 1.16 1.14 -12.0 0 0 105.42 133.65
  Q 104.25 141.71 102.68 150.35
  C 100.84 160.43 115.30 163.09 116.98 152.30
  Q 119.67 135.09 122.57 118.61
  Q 123.00 116.18 122.49 114.07
  C 121.37 109.46 115.92 107.60 111.86 110.00
  Q 111.02 110.49 111.24 109.54
  Z
  M 102.90 134.78
  L 100.01 136.58
  Q 99.19 137.10 100.16 137.11
  L 102.51 137.14
  A 0.74 0.74 0.0 0 0 103.25 136.48
  L 103.39 135.09
  Q 103.46 134.42 102.90 134.78
  Z
  M 133.17 163.87
  A 0.34 0.34 0.0 0 1 132.84 164.29
  L 121.35 164.28
  A 0.34 0.34 0.0 0 0 121.02 164.57
  L 120.68 166.94
  A 0.34 0.34 0.0 0 0 121.01 167.33
  L 133.70 167.32
  A 0.34 0.34 0.0 0 1 134.03 167.58
  L 140.15 194.09
  A 0.34 0.34 0.0 0 1 139.82 194.51
  L 117.10 194.51
  A 0.34 0.34 0.0 0 0 116.76 194.81
  L 116.48 197.12
  A 0.34 0.34 0.0 0 0 116.81 197.50
  L 140.67 197.50
  A 0.34 0.34 0.0 0 1 141.00 197.76
  L 147.14 224.40
  A 0.34 0.34 0.0 0 1 146.81 224.82
  L 112.81 224.82
  A 0.34 0.34 0.0 0 0 112.47 225.12
  L 112.22 227.41
  A 0.34 0.34 0.0 0 0 112.56 227.79
  L 147.67 227.78
  A 0.34 0.34 0.0 0 1 148.00 228.04
  L 152.70 248.51
  A 0.34 0.34 0.0 0 0 153.03 248.78
  L 157.71 248.75
  A 0.34 0.34 0.0 0 0 158.03 248.34
  L 132.87 139.21
  A 0.34 0.34 0.0 0 0 132.54 138.95
  L 127.86 138.97
  A 0.34 0.34 0.0 0 0 127.53 139.38
  L 133.17 163.87
  Z
  M 99.31 154.50
  L 97.95 162.08
  Q 97.87 162.54 98.33 162.54
  L 100.50 162.54
  Q 101.04 162.54 100.96 162.00
  L 99.77 154.51
  Q 99.56 153.15 99.31 154.50
  Z
  M 99.90 192.39
  A 0.40 0.40 0.0 0 0 100.30 192.74
  L 104.80 192.72
  A 0.40 0.40 0.0 0 0 105.20 192.27
  L 101.97 169.48
  A 0.40 0.40 0.0 0 0 101.57 169.14
  L 97.06 169.12
  A 0.40 0.40 0.0 0 0 96.66 169.58
  L 99.90 192.39
  Z
  M 110.62 236.55
  Q 110.19 242.79 109.13 248.65
  Q 108.97 249.52 109.86 249.59
  L 112.59 249.81
  Q 113.40 249.88 113.26 249.07
  Q 112.15 242.65 111.64 236.54
  A 0.51 0.51 0.0 0 0 110.62 236.55
  Z"
/>
<path fill="#000000" d="
  M 185.54 13.66
  L 193.52 18.03
  Q 181.77 31.19 170.42 44.42
  Q 168.88 46.22 168.26 48.06
  Q 167.34 50.81 165.40 53.08
  Q 164.95 53.60 165.29 54.20
  L 178.43 77.55
  A 2.27 2.27 0.0 0 1 177.78 80.51
  Q 174.06 83.20 170.11 84.87
  A 1.97 1.97 0.0 0 1 167.64 84.06
  L 157.36 66.71
  A 1.21 1.21 0.0 0 1 157.41 65.42
  Q 159.48 62.38 158.12 58.86
  Q 157.91 58.32 158.37 57.96
  C 160.87 56.00 165.54 51.54 165.74 48.30
  Q 165.88 45.97 163.71 46.84
  Q 157.90 49.19 153.82 54.64
  Q 153.51 55.06 152.98 55.00
  Q 150.91 54.74 149.02 55.77
  A 0.21 0.20 2.3 0 1 148.75 55.48
  C 152.26 50.17 160.18 42.00 166.74 42.50
  Q 167.60 42.57 167.05 41.90
  C 165.87 40.47 162.10 41.54 160.73 42.24
  C 154.46 45.41 146.59 52.37 145.36 59.76
  Q 145.28 60.28 144.75 60.23
  Q 143.86 60.15 143.04 60.30
  Q 134.52 61.87 126.73 63.50
  Q 126.09 63.63 126.21 62.99
  Q 126.94 59.00 125.95 55.29
  Q 125.80 54.70 126.40 54.59
  L 143.41 51.32
  Q 144.01 51.20 144.09 50.61
  Q 144.51 47.35 146.65 44.68
  A 0.58 0.58 0.0 0 0 146.61 43.91
  L 135.24 32.05
  A 0.23 0.23 0.0 0 0 134.88 32.10
  L 128.95 42.29
  Q 128.59 42.91 127.86 42.90
  Q 122.30 42.76 116.87 45.14
  Q 115.98 45.53 116.47 44.69
  L 127.89 25.15
  A 0.90 0.89 -57.5 0 0 127.63 23.97
  Q 125.86 22.74 125.21 20.89
  Q 125.05 20.43 124.58 20.32
  Q 121.11 19.48 117.18 19.79
  Q 115.97 19.89 115.10 19.15
  C 113.19 17.53 115.01 14.86 116.06 13.26
  Q 116.37 12.79 116.07 12.32
  Q 114.43 9.74 115.10 6.39
  Q 115.14 6.23 115.30 6.24
  L 117.00 6.29
  Q 117.28 6.30 117.30 6.59
  L 117.47 10.23
  A 0.37 0.37 0.0 0 0 118.14 10.44
  Q 119.42 8.76 119.67 6.76
  Q 119.74 6.21 120.29 6.23
  L 121.77 6.29
  A 0.71 0.71 0.0 0 1 122.46 7.02
  L 122.38 11.00
  Q 122.36 11.70 122.88 11.22
  C 123.92 10.25 123.88 8.06 123.70 6.78
  Q 123.63 6.31 124.11 6.28
  L 125.49 6.22
  Q 126.03 6.19 126.11 6.72
  Q 126.93 12.18 122.65 14.19
  C 121.75 14.61 121.46 15.42 121.34 16.33
  Q 121.26 16.91 121.83 17.00
  Q 124.46 17.43 126.16 19.50
  Q 126.51 19.94 126.96 19.59
  Q 127.10 19.49 127.26 19.40
  Q 127.66 19.19 127.97 19.53
  L 130.93 22.74
  Q 131.28 23.13 131.81 23.16
  Q 136.40 23.45 136.54 28.08
  A 1.29 1.29 0.0 0 0 136.89 28.91
  L 148.96 41.53
  A 0.76 0.76 0.0 0 0 149.96 41.62
  Q 154.87 37.99 159.71 40.25
  Q 160.20 40.48 160.73 40.38
  Q 162.64 40.01 163.16 39.41
  Q 174.21 26.55 185.54 13.66
  Z
  M 120.78 7.18
  Q 120.53 9.47 119.12 11.01
  Q 118.79 11.36 119.12 11.71
  Q 119.61 12.22 120.38 12.26
  Q 121.12 12.30 121.16 11.56
  L 121.37 7.40
  Q 121.38 7.15 121.13 7.13
  L 120.85 7.12
  Q 120.79 7.11 120.78 7.18
  Z
  M 119.93 14.51
  Q 118.81 14.54 117.95 13.95
  Q 117.23 13.45 116.79 14.21
  C 116.16 15.33 115.18 16.78 115.58 18.08
  A 0.54 0.53 -7.4 0 0 116.08 18.46
  L 121.98 18.70
  Q 123.04 18.74 122.02 18.46
  Q 118.99 17.64 120.40 15.31
  Q 120.90 14.48 119.93 14.51
  Z"
/>
<path fill="#ffffff" d="
  M 120.78 7.18
  Q 120.79 7.11 120.85 7.12
  L 121.13 7.13
  Q 121.38 7.15 121.37 7.40
  L 121.16 11.56
  Q 121.12 12.30 120.38 12.26
  Q 119.61 12.22 119.12 11.71
  Q 118.79 11.36 119.12 11.01
  Q 120.53 9.47 120.78 7.18
  Z"
/>
<path fill="#ffffff" d="
  M 120.40 15.31
  Q 118.99 17.64 122.02 18.46
  Q 123.04 18.74 121.98 18.70
  L 116.08 18.46
  A 0.54 0.53 -7.4 0 1 115.58 18.08
  C 115.18 16.78 116.16 15.33 116.79 14.21
  Q 117.23 13.45 117.95 13.95
  Q 118.81 14.54 119.93 14.51
  Q 120.90 14.48 120.40 15.31
  Z"
/>
<path fill="#000000" d="
  M 117.72 56.29
  Q 120.55 56.37 123.28 55.55
  A 0.89 0.89 0.0 0 1 124.41 56.26
  Q 126.12 67.40 116.67 71.96
  C 111.81 74.31 105.39 72.89 101.66 68.96
  C 91.76 58.53 102.63 42.16 116.16 47.10
  Q 116.56 47.25 116.95 47.06
  Q 122.72 44.36 128.89 44.82
  A 1.90 1.90 0.0 0 1 130.47 47.51
  C 128.64 51.46 121.77 54.51 117.66 55.89
  Q 116.55 56.26 117.72 56.29
  Z"
/>
<path fill="#000000" d="
  M 111.86 110.00
  C 115.92 107.60 121.37 109.46 122.49 114.07
  Q 123.00 116.18 122.57 118.61
  Q 119.67 135.09 116.98 152.30
  C 115.30 163.09 100.84 160.43 102.68 150.35
  Q 104.25 141.71 105.42 133.65
  A 1.16 1.14 -12.0 0 1 105.94 132.86
  L 112.37 128.79
  Q 112.92 128.44 112.52 127.94
  L 112.19 127.53
  Q 111.76 127.00 111.19 127.37
  Q 105.56 130.97 99.61 134.77
  Q 98.15 135.70 96.52 136.29
  Q 96.00 136.48 96.15 137.02
  L 98.42 145.42
  A 9.06 8.94 43.4 0 1 98.56 149.52
  Q 95.15 166.46 91.87 184.49
  Q 91.31 187.52 90.16 189.18
  C 85.74 195.52 75.89 191.01 77.41 183.22
  Q 80.63 166.71 83.90 149.62
  Q 84.25 147.78 83.70 145.79
  Q 79.92 132.08 76.60 119.19
  Q 76.16 117.50 76.56 115.79
  L 85.93 75.92
  A 4.43 4.37 76.7 0 1 87.37 73.55
  L 96.63 65.62
  Q 97.20 65.13 97.49 65.82
  Q 99.24 70.04 102.71 72.09
  A 0.52 0.52 0.0 0 1 102.77 72.95
  L 101.07 74.30
  A 0.34 0.34 0.0 0 0 101.20 74.90
  Q 105.27 75.83 109.75 76.97
  Q 113.47 77.91 117.29 77.75
  Q 126.32 77.37 134.99 77.24
  Q 135.59 77.23 135.93 76.73
  Q 142.11 67.63 147.98 59.13
  C 151.85 53.54 159.81 58.72 155.68 64.77
  Q 148.51 75.30 141.83 84.95
  A 4.14 4.13 -73.3 0 1 138.53 86.73
  L 116.97 87.29
  Q 116.46 87.30 116.34 87.80
  L 111.24 109.54
  Q 111.02 110.49 111.86 110.00
  Z"
/>
<path fill="#000000" d="
  M 64.52 239.22
  L 59.91 236.37
  L 80.88 145.43
  Q 81.19 144.09 81.72 145.36
  C 82.27 146.67 82.35 148.05 82.08 149.46
  Q 78.54 168.08 75.62 183.26
  Q 75.15 185.75 76.09 188.31
  Q 76.26 188.77 76.15 189.25
  L 75.10 193.92
  Q 74.97 194.52 75.57 194.52
  L 109.09 194.51
  Q 109.70 194.51 109.79 193.91
  L 113.44 167.92
  Q 113.53 167.32 112.92 167.32
  L 97.46 167.33
  Q 96.82 167.33 96.98 166.71
  L 97.48 164.72
  Q 97.59 164.28 98.03 164.28
  L 113.47 164.28
  Q 114.05 164.28 114.12 163.71
  C 114.29 162.28 114.11 160.42 115.14 159.31
  C 117.04 157.27 118.11 156.12 118.59 153.24
  Q 120.27 143.22 121.86 133.48
  Q 121.97 132.76 122.71 132.76
  L 132.48 132.76
  A 0.47 0.46 -90.0 0 1 132.94 133.23
  L 132.93 136.73
  Q 132.93 137.14 132.52 137.14
  L 123.74 137.13
  Q 123.10 137.13 123.02 137.76
  L 107.27 249.22
  A 0.27 0.27 0.0 0 1 107.03 249.45
  L 102.13 249.87
  A 0.22 0.22 0.0 0 1 101.90 249.63
  L 104.89 228.52
  Q 104.99 227.79 104.25 227.79
  L 67.80 227.79
  A 0.75 0.75 0.0 0 0 67.07 228.36
  L 64.52 239.22
  Z
  M 74.51 197.50
  A 0.32 0.32 0.0 0 0 74.20 197.75
  L 68.04 224.43
  A 0.32 0.32 0.0 0 0 68.35 224.82
  L 105.13 224.82
  A 0.32 0.32 0.0 0 0 105.45 224.54
  L 109.23 197.86
  A 0.32 0.32 0.0 0 0 108.91 197.50
  L 74.51 197.50
  Z"
/>
<path fill="#000000" d="
  M 100.01 136.58
  L 102.90 134.78
  Q 103.46 134.42 103.39 135.09
  L 103.25 136.48
  A 0.74 0.74 0.0 0 1 102.51 137.14
  L 100.16 137.11
  Q 99.19 137.10 100.01 136.58
  Z"
/>
<path fill="#000000" d="
  M 133.17 163.87
  L 127.53 139.38
  A 0.34 0.34 0.0 0 1 127.86 138.97
  L 132.54 138.95
  A 0.34 0.34 0.0 0 1 132.87 139.21
  L 158.03 248.34
  A 0.34 0.34 0.0 0 1 157.71 248.75
  L 153.03 248.78
  A 0.34 0.34 0.0 0 1 152.70 248.51
  L 148.00 228.04
  A 0.34 0.34 0.0 0 0 147.67 227.78
  L 112.56 227.79
  A 0.34 0.34 0.0 0 1 112.22 227.41
  L 112.47 225.12
  A 0.34 0.34 0.0 0 1 112.81 224.82
  L 146.81 224.82
  A 0.34 0.34 0.0 0 0 147.14 224.40
  L 141.00 197.76
  A 0.34 0.34 0.0 0 0 140.67 197.50
  L 116.81 197.50
  A 0.34 0.34 0.0 0 1 116.48 197.12
  L 116.76 194.81
  A 0.34 0.34 0.0 0 1 117.10 194.51
  L 139.82 194.51
  A 0.34 0.34 0.0 0 0 140.15 194.09
  L 134.03 167.58
  A 0.34 0.34 0.0 0 0 133.70 167.32
  L 121.01 167.33
  A 0.34 0.34 0.0 0 1 120.68 166.94
  L 121.02 164.57
  A 0.34 0.34 0.0 0 1 121.35 164.28
  L 132.84 164.29
  A 0.34 0.34 0.0 0 0 133.17 163.87
  Z"
/>
<path fill="#000000" d="
  M 97.95 162.08
  L 99.31 154.50
  Q 99.56 153.15 99.77 154.51
  L 100.96 162.00
  Q 101.04 162.54 100.50 162.54
  L 98.33 162.54
  Q 97.87 162.54 97.95 162.08
  Z"
/>
<path fill="#000000" d="
  M 99.90 192.39
  L 96.66 169.58
  A 0.40 0.40 0.0 0 1 97.06 169.12
  L 101.57 169.14
  A 0.40 0.40 0.0 0 1 101.97 169.48
  L 105.20 192.27
  A 0.40 0.40 0.0 0 1 104.80 192.72
  L 100.30 192.74
  A 0.40 0.40 0.0 0 1 99.90 192.39
  Z"
/>
<path fill="#ffffff" d="
  M 74.51 197.50
  L 108.91 197.50
  A 0.32 0.32 0.0 0 1 109.23 197.86
  L 105.45 224.54
  A 0.32 0.32 0.0 0 1 105.13 224.82
  L 68.35 224.82
  A 0.32 0.32 0.0 0 1 68.04 224.43
  L 74.20 197.75
  A 0.32 0.32 0.0 0 1 74.51 197.50
  Z
  M 104.36 219.30
  Q 105.38 212.45 106.47 204.21
  Q 106.75 202.11 106.28 199.75
  Q 106.18 199.29 105.72 199.29
  L 101.53 199.28
  A 0.65 0.65 0.0 0 0 100.89 200.05
  Q 102.53 209.35 103.44 219.27
  A 0.46 0.46 0.0 0 0 104.36 219.30
  Z"
/>
<path fill="#000000" d="
  M 103.44 219.27
  Q 102.53 209.35 100.89 200.05
  A 0.65 0.65 0.0 0 1 101.53 199.28
  L 105.72 199.29
  Q 106.18 199.29 106.28 199.75
  Q 106.75 202.11 106.47 204.21
  Q 105.38 212.45 104.36 219.30
  A 0.46 0.46 0.0 0 1 103.44 219.27
  Z"
/>
<path fill="#000000" d="
  M 111.64 236.54
  Q 112.15 242.65 113.26 249.07
  Q 113.40 249.88 112.59 249.81
  L 109.86 249.59
  Q 108.97 249.52 109.13 248.65
  Q 110.19 242.79 110.62 236.55
  A 0.51 0.51 0.0 0 1 111.64 236.54
  Z"
/>
</svg>
