<?xml version="1.0" encoding="UTF-8" standalone="no"?>
<!DOCTYPE svg PUBLIC "-//W3C//DTD SVG 1.1//EN" "http://www.w3.org/Graphics/SVG/1.1/DTD/svg11.dtd">
<svg xmlns="http://www.w3.org/2000/svg" version="1.1" viewBox="0.00 0.00 256.00 360.00">
<circle fill="#000000" cx="127.88" cy="60.29" r="15.84"/>
<path fill="#000000" d="
  M 108.48 98.18
  Q 107.04 101.22 106.29 104.75
  C 103.81 116.34 103.64 128.66 104.45 140.90
  C 105.02 149.55 93.45 150.33 93.08 141.48
  C 92.40 125.42 92.28 108.48 97.99 94.05
  C 100.61 87.42 106.53 80.20 114.40 80.21
  Q 127.59 80.23 141.39 80.20
  C 151.78 80.18 157.76 91.80 159.97 100.41
  C 163.43 113.92 163.45 128.51 162.66 142.03
  C 162.18 150.19 150.74 149.17 151.33 141.42
  Q 152.72 122.96 149.98 107.03
  Q 149.16 102.27 147.20 98.06
  Q 146.93 97.48 146.93 98.12
  Q 146.97 146.42 146.96 199.10
  Q 146.95 204.82 146.02 206.89
  C 142.24 215.28 129.46 212.40 129.49 202.92
  Q 129.57 173.22 129.41 140.50
  Q 129.41 139.37 128.28 139.37
  L 127.25 139.38
  Q 126.27 139.38 126.27 140.36
  Q 126.21 173.09 126.27 202.50
  C 126.30 214.88 108.91 214.68 108.90 203.05
  Q 108.88 159.39 108.93 98.28
  Q 108.93 97.21 108.48 98.18
  Z"
/>
</svg>
