<?xml version="1.0" encoding="UTF-8" standalone="no"?>
<!DOCTYPE svg PUBLIC "-//W3C//DTD SVG 1.1//EN" "http://www.w3.org/Graphics/SVG/1.1/DTD/svg11.dtd">
<svg xmlns="http://www.w3.org/2000/svg" version="1.1" viewBox="0.00 0.00 256.00 360.00">
<g stroke-width="2.00" fill="none" stroke-linecap="butt">
<path stroke="#808080" vector-effect="non-scaling-stroke" d="
  M 165.25 140.63
  Q 165.25 170.06 165.25 198.84
  C 165.26 208.64 179.03 208.64 179.02 198.56
  Q 178.97 142.94 179.01 91.76
  A 2.82 2.80 -23.0 0 1 179.81 89.80
  Q 194.66 74.58 209.56 59.28
  Q 211.32 57.48 211.84 56.23
  C 214.64 49.56 206.68 44.03 201.52 49.35
  Q 186.47 64.86 171.77 80.17
  Q 171.45 80.50 170.99 80.50
  L 154.27 80.50
  Q 153.69 80.50 153.28 80.08
  Q 138.17 64.51 123.04 48.96
  C 120.82 46.68 116.86 46.64 114.62 48.90
  C 110.87 52.69 112.48 56.43 115.69 59.68
  Q 132.03 76.26 145.50 90.31
  A 1.82 1.79 -67.3 0 1 146.00 91.56
  Q 145.99 144.88 146.01 199.55
  C 146.02 206.63 155.88 208.61 158.83 202.48
  Q 159.78 200.51 159.74 196.33
  Q 159.50 168.38 159.66 140.56
  Q 159.67 140.36 159.87 140.36
  L 165.01 140.39
  Q 165.25 140.39 165.25 140.63"
/>
<path stroke="#808080" vector-effect="non-scaling-stroke" d="
  M 162.5437 77.6591
  A 12.58 12.20 89.3 0 0 174.5891 64.9310
  A 12.58 12.20 89.3 0 0 162.2363 52.5009
  A 12.58 12.20 89.3 0 0 150.1909 65.2290
  A 12.58 12.20 89.3 0 0 162.5437 77.6591"
/>
<path stroke="#808080" vector-effect="non-scaling-stroke" d="
  M 87.6437 122.4499
  A 12.55 12.17 87.7 0 0 99.3002 109.4216
  A 12.55 12.17 87.7 0 0 86.6363 97.3701
  A 12.55 12.17 87.7 0 0 74.9798 110.3984
  A 12.55 12.17 87.7 0 0 87.6437 122.4499"
/>
<path stroke="#808080" vector-effect="non-scaling-stroke" d="
  M 104.00 169.76
  L 104.00 144.30
  Q 104.00 143.38 104.64 144.05
  Q 114.16 153.93 123.36 163.45
  C 128.40 168.67 136.21 163.08 133.79 156.89
  Q 133.13 155.20 131.35 153.39
  Q 118.51 140.32 106.75 128.13
  Q 103.92 125.20 99.73 125.17
  Q 86.10 125.07 74.05 125.14
  Q 69.96 125.17 67.04 128.18
  Q 54.67 140.92 41.72 154.22
  C 35.40 160.70 44.45 169.83 50.70 163.22
  Q 60.23 153.13 69.70 143.71
  Q 70.25 143.17 70.25 143.94
  L 70.25 169.78
  Q 70.25 170.35 69.68 170.36
  Q 60.10 170.46 49.94 170.31
  C 46.01 170.25 42.74 171.20 41.19 174.89
  Q 39.09 179.90 43.17 183.99
  Q 55.18 196.05 67.93 209.57
  Q 70.16 211.94 72.21 212.49
  C 79.48 214.46 84.95 205.43 79.57 199.90
  Q 72.87 193.02 66.80 186.77
  A 0.24 0.24 0.0 0 1 66.97 186.37
  L 107.14 186.38
  A 0.22 0.21 21.2 0 1 107.30 186.74
  Q 101.04 193.58 94.81 199.58
  Q 92.90 201.41 92.53 203.41
  C 91.11 211.16 100.55 216.32 105.74 210.05
  Q 106.78 208.79 107.94 207.60
  Q 118.75 196.45 129.74 185.33
  Q 132.72 182.32 133.30 180.30
  C 134.67 175.57 131.38 170.40 126.32 170.38
  Q 115.41 170.35 104.65 170.40
  Q 104.00 170.40 104.00 169.76"
/>
</g>
<path fill="#ffffff" d="
  M 121.87 0.00
  L 134.24 0.00
  Q 139.12 0.58 143.98 1.20
  Q 175.57 5.19 200.60 22.58
  C 230.89 43.64 251.57 77.22 255.18 113.96
  Q 255.57 117.93 256.00 121.88
  L 256.00 133.23
  Q 253.60 177.79 226.18 210.17
  Q 204.58 235.66 173.85 247.47
  C 128.67 264.84 76.65 255.17 41.04 221.86
  Q 3.62 186.84 0.00 133.88
  L 0.00 122.01
  Q 0.56 117.00 1.19 112.02
  Q 4.67 84.27 19.00 60.86
  Q 24.09 52.55 30.84 44.77
  Q 66.14 4.06 121.87 0.00
  Z
  M 165.25 140.63
  Q 165.25 170.06 165.25 198.84
  C 165.26 208.64 179.03 208.64 179.02 198.56
  Q 178.97 142.94 179.01 91.76
  A 2.82 2.80 -23.0 0 1 179.81 89.80
  Q 194.66 74.58 209.56 59.28
  Q 211.32 57.48 211.84 56.23
  C 214.64 49.56 206.68 44.03 201.52 49.35
  Q 186.47 64.86 171.77 80.17
  Q 171.45 80.50 170.99 80.50
  L 154.27 80.50
  Q 153.69 80.50 153.28 80.08
  Q 138.17 64.51 123.04 48.96
  C 120.82 46.68 116.86 46.64 114.62 48.90
  C 110.87 52.69 112.48 56.43 115.69 59.68
  Q 132.03 76.26 145.50 90.31
  A 1.82 1.79 -67.3 0 1 146.00 91.56
  Q 145.99 144.88 146.01 199.55
  C 146.02 206.63 155.88 208.61 158.83 202.48
  Q 159.78 200.51 159.74 196.33
  Q 159.50 168.38 159.66 140.56
  Q 159.67 140.36 159.87 140.36
  L 165.01 140.39
  Q 165.25 140.39 165.25 140.63
  Z
  M 162.5437 77.6591
  A 12.58 12.20 89.3 0 0 174.5891 64.9310
  A 12.58 12.20 89.3 0 0 162.2363 52.5009
  A 12.58 12.20 89.3 0 0 150.1909 65.2290
  A 12.58 12.20 89.3 0 0 162.5437 77.6591
  Z
  M 87.6437 122.4499
  A 12.55 12.17 87.7 0 0 99.3002 109.4216
  A 12.55 12.17 87.7 0 0 86.6363 97.3701
  A 12.55 12.17 87.7 0 0 74.9798 110.3984
  A 12.55 12.17 87.7 0 0 87.6437 122.4499
  Z
  M 104.00 169.76
  L 104.00 144.30
  Q 104.00 143.38 104.64 144.05
  Q 114.16 153.93 123.36 163.45
  C 128.40 168.67 136.21 163.08 133.79 156.89
  Q 133.13 155.20 131.35 153.39
  Q 118.51 140.32 106.75 128.13
  Q 103.92 125.20 99.73 125.17
  Q 86.10 125.07 74.05 125.14
  Q 69.96 125.17 67.04 128.18
  Q 54.67 140.92 41.72 154.22
  C 35.40 160.70 44.45 169.83 50.70 163.22
  Q 60.23 153.13 69.70 143.71
  Q 70.25 143.17 70.25 143.94
  L 70.25 169.78
  Q 70.25 170.35 69.68 170.36
  Q 60.10 170.46 49.94 170.31
  C 46.01 170.25 42.74 171.20 41.19 174.89
  Q 39.09 179.90 43.17 183.99
  Q 55.18 196.05 67.93 209.57
  Q 70.16 211.94 72.21 212.49
  C 79.48 214.46 84.95 205.43 79.57 199.90
  Q 72.87 193.02 66.80 186.77
  A 0.24 0.24 0.0 0 1 66.97 186.37
  L 107.14 186.38
  A 0.22 0.21 21.2 0 1 107.30 186.74
  Q 101.04 193.58 94.81 199.58
  Q 92.90 201.41 92.53 203.41
  C 91.11 211.16 100.55 216.32 105.74 210.05
  Q 106.78 208.79 107.94 207.60
  Q 118.75 196.45 129.74 185.33
  Q 132.72 182.32 133.30 180.30
  C 134.67 175.57 131.38 170.40 126.32 170.38
  Q 115.41 170.35 104.65 170.40
  Q 104.00 170.40 104.00 169.76
  Z"
/>
<path fill="#000000" d="
  M 165.25 140.63
  Q 165.25 140.39 165.01 140.39
  L 159.87 140.36
  Q 159.67 140.36 159.66 140.56
  Q 159.50 168.38 159.74 196.33
  Q 159.78 200.51 158.83 202.48
  C 155.88 208.61 146.02 206.63 146.01 199.55
  Q 145.99 144.88 146.00 91.56
  A 1.82 1.79 -67.3 0 0 145.50 90.31
  Q 132.03 76.26 115.69 59.68
  C 112.48 56.43 110.87 52.69 114.62 48.90
  C 116.86 46.64 120.82 46.68 123.04 48.96
  Q 138.17 64.51 153.28 80.08
  Q 153.69 80.50 154.27 80.50
  L 170.99 80.50
  Q 171.45 80.50 171.77 80.17
  Q 186.47 64.86 201.52 49.35
  C 206.68 44.03 214.64 49.56 211.84 56.23
  Q 211.32 57.48 209.56 59.28
  Q 194.66 74.58 179.81 89.80
  A 2.82 2.80 -23.0 0 0 179.01 91.76
  Q 178.97 142.94 179.02 198.56
  C 179.03 208.64 165.26 208.64 165.25 198.84
  Q 165.25 170.06 165.25 140.63
  Z"
/>
<ellipse fill="#000000" cx="0.00" cy="0.00" transform="translate(162.39,65.08) rotate(89.3)" rx="12.58" ry="12.20"/>
<ellipse fill="#000000" cx="0.00" cy="0.00" transform="translate(87.14,109.91) rotate(87.7)" rx="12.55" ry="12.17"/>
<path fill="#000000" d="
  M 104.65 170.40
  Q 115.41 170.35 126.32 170.38
  C 131.38 170.40 134.67 175.57 133.30 180.30
  Q 132.72 182.32 129.74 185.33
  Q 118.75 196.45 107.94 207.60
  Q 106.78 208.79 105.74 210.05
  C 100.55 216.32 91.11 211.16 92.53 203.41
  Q 92.90 201.41 94.81 199.58
  Q 101.04 193.58 107.30 186.74
  A 0.22 0.21 21.2 0 0 107.14 186.38
  L 66.97 186.37
  A 0.24 0.24 0.0 0 0 66.80 186.77
  Q 72.87 193.02 79.57 199.90
  C 84.95 205.43 79.48 214.46 72.21 212.49
  Q 70.16 211.94 67.93 209.57
  Q 55.18 196.05 43.17 183.99
  Q 39.09 179.90 41.19 174.89
  C 42.74 171.20 46.01 170.25 49.94 170.31
  Q 60.10 170.46 69.68 170.36
  Q 70.25 170.35 70.25 169.78
  L 70.25 143.94
  Q 70.25 143.17 69.70 143.71
  Q 60.23 153.13 50.70 163.22
  C 44.45 169.83 35.40 160.70 41.72 154.22
  Q 54.67 140.92 67.04 128.18
  Q 69.96 125.17 74.05 125.14
  Q 86.10 125.07 99.73 125.17
  Q 103.92 125.20 106.75 128.13
  Q 118.51 140.32 131.35 153.39
  Q 133.13 155.20 133.79 156.89
  C 136.21 163.08 128.40 168.67 123.36 163.45
  Q 114.16 153.93 104.64 144.05
  Q 104.00 143.38 104.00 144.30
  L 104.00 169.76
  Q 104.00 170.40 104.65 170.40
  Z"
/>
</svg>
