<?xml version="1.0" encoding="UTF-8" standalone="no"?>
<!DOCTYPE svg PUBLIC "-//W3C//DTD SVG 1.1//EN" "http://www.w3.org/Graphics/SVG/1.1/DTD/svg11.dtd">
<svg xmlns="http://www.w3.org/2000/svg" version="1.1" viewBox="0.00 0.00 256.00 360.00">
<g stroke-width="2.00" fill="none" stroke-linecap="butt">
<path stroke="#808080" vector-effect="non-scaling-stroke" d="
  M 168.24 137.64
  Q 169.01 138.26 169.11 139.29
  Q 172.80 176.60 176.17 211.80
  C 177.27 223.24 193.12 222.17 193.22 211.38
  Q 193.64 163.11 194.13 118.22
  Q 194.15 115.84 195.76 114.30
  Q 202.70 107.67 209.69 100.80
  Q 211.50 99.01 213.52 97.38
  C 218.26 93.55 219.98 88.41 216.58 82.73
  Q 205.51 64.25 191.60 40.85
  C 188.82 36.17 182.41 34.23 177.80 37.79
  Q 156.62 54.18 132.49 72.90
  C 123.68 79.73 116.31 82.24 105.37 79.16
  Q 77.93 71.44 46.72 62.50
  C 43.43 61.56 39.89 63.35 38.48 66.26
  C 36.64 70.03 38.03 74.62 42.08 76.19
  Q 70.83 87.37 98.45 98.10
  C 100.69 98.97 102.33 100.55 103.82 102.44
  C 109.86 110.03 116.02 117.49 123.74 123.27
  C 136.35 132.72 151.29 136.89 167.06 137.20
  Q 167.72 137.21 168.24 137.64"
/>
<path stroke="#808080" vector-effect="non-scaling-stroke" d="
  M 129.42 55.58
  A 18.63 18.63 0.0 0 0 110.79 36.95
  A 18.63 18.63 0.0 0 0 92.16 55.58
  A 18.63 18.63 0.0 0 0 110.79 74.21
  A 18.63 18.63 0.0 0 0 129.42 55.58"
/>
<path stroke="#808080" vector-effect="non-scaling-stroke" d="
  M 178.68 57.60
  Q 178.47 57.17 178.12 57.49
  Q 163.37 70.85 147.25 86.08
  C 144.48 88.69 143.97 93.08 145.46 96.39
  C 149.51 105.41 164.59 105.40 171.86 99.56
  Q 181.26 91.99 191.02 84.46
  Q 191.49 84.10 191.23 83.56
  L 178.68 57.60"
/>
</g>
<path fill="#ffffff" d="
  M 121.87 0.00
  L 134.24 0.00
  Q 139.12 0.58 143.98 1.20
  Q 175.57 5.19 200.59 22.56
  C 231.66 44.13 250.91 76.97 255.26 114.23
  C 255.55 116.77 255.52 119.37 256.00 121.88
  L 256.00 133.23
  Q 253.59 178.00 225.95 210.44
  Q 203.43 236.87 170.95 248.56
  C 128.15 263.95 79.00 255.09 44.37 224.83
  Q 3.91 189.46 0.00 133.88
  L 0.00 122.01
  Q 0.56 117.00 1.19 112.02
  Q 4.67 84.27 19.00 60.86
  Q 24.09 52.55 30.84 44.77
  Q 66.14 4.06 121.87 0.00
  Z
  M 168.24 137.64
  Q 169.01 138.26 169.11 139.29
  Q 172.80 176.60 176.17 211.80
  C 177.27 223.24 193.12 222.17 193.22 211.38
  Q 193.64 163.11 194.13 118.22
  Q 194.15 115.84 195.76 114.30
  Q 202.70 107.67 209.69 100.80
  Q 211.50 99.01 213.52 97.38
  C 218.26 93.55 219.98 88.41 216.58 82.73
  Q 205.51 64.25 191.60 40.85
  C 188.82 36.17 182.41 34.23 177.80 37.79
  Q 156.62 54.18 132.49 72.90
  C 123.68 79.73 116.31 82.24 105.37 79.16
  Q 77.93 71.44 46.72 62.50
  C 43.43 61.56 39.89 63.35 38.48 66.26
  C 36.64 70.03 38.03 74.62 42.08 76.19
  Q 70.83 87.37 98.45 98.10
  C 100.69 98.97 102.33 100.55 103.82 102.44
  C 109.86 110.03 116.02 117.49 123.74 123.27
  C 136.35 132.72 151.29 136.89 167.06 137.20
  Q 167.72 137.21 168.24 137.64
  Z
  M 129.42 55.58
  A 18.63 18.63 0.0 0 0 110.79 36.95
  A 18.63 18.63 0.0 0 0 92.16 55.58
  A 18.63 18.63 0.0 0 0 110.79 74.21
  A 18.63 18.63 0.0 0 0 129.42 55.58
  Z"
/>
<path fill="#000000" d="
  M 168.24 137.64
  Q 167.72 137.21 167.06 137.20
  C 151.29 136.89 136.35 132.72 123.74 123.27
  C 116.02 117.49 109.86 110.03 103.82 102.44
  C 102.33 100.55 100.69 98.97 98.45 98.10
  Q 70.83 87.37 42.08 76.19
  C 38.03 74.62 36.64 70.03 38.48 66.26
  C 39.89 63.35 43.43 61.56 46.72 62.50
  Q 77.93 71.44 105.37 79.16
  C 116.31 82.24 123.68 79.73 132.49 72.90
  Q 156.62 54.18 177.80 37.79
  C 182.41 34.23 188.82 36.17 191.60 40.85
  Q 205.51 64.25 216.58 82.73
  C 219.98 88.41 218.26 93.55 213.52 97.38
  Q 211.50 99.01 209.69 100.80
  Q 202.70 107.67 195.76 114.30
  Q 194.15 115.84 194.13 118.22
  Q 193.64 163.11 193.22 211.38
  C 193.12 222.17 177.27 223.24 176.17 211.80
  Q 172.80 176.60 169.11 139.29
  Q 169.01 138.26 168.24 137.64
  Z
  M 178.68 57.60
  Q 178.47 57.17 178.12 57.49
  Q 163.37 70.85 147.25 86.08
  C 144.48 88.69 143.97 93.08 145.46 96.39
  C 149.51 105.41 164.59 105.40 171.86 99.56
  Q 181.26 91.99 191.02 84.46
  Q 191.49 84.10 191.23 83.56
  L 178.68 57.60
  Z"
/>
<circle fill="#000000" cx="110.79" cy="55.58" r="18.63"/>
<path fill="#ffffff" d="
  M 178.68 57.60
  L 191.23 83.56
  Q 191.49 84.10 191.02 84.46
  Q 181.26 91.99 171.86 99.56
  C 164.59 105.40 149.51 105.41 145.46 96.39
  C 143.97 93.08 144.48 88.69 147.25 86.08
  Q 163.37 70.85 178.12 57.49
  Q 178.47 57.17 178.68 57.60
  Z"
/>
</svg>
