<?xml version="1.0" encoding="UTF-8" standalone="no"?>
<!DOCTYPE svg PUBLIC "-//W3C//DTD SVG 1.1//EN" "http://www.w3.org/Graphics/SVG/1.1/DTD/svg11.dtd">
<svg xmlns="http://www.w3.org/2000/svg" version="1.1" viewBox="0.00 0.00 256.00 360.00">
<g stroke-width="2.00" fill="none" stroke-linecap="butt">
<path stroke="#808080" vector-effect="non-scaling-stroke" d="
  M 117.4203 58.5976
  A 12.14 12.14 0.0 0 0 107.2804 44.7433
  L 100.9162 43.7581
  A 12.14 12.14 0.0 0 0 87.0619 53.8979
  L 86.0797 60.2424
  A 12.14 12.14 0.0 0 0 96.2196 74.0967
  L 102.5838 75.0819
  A 12.14 12.14 0.0 0 0 116.4381 64.9421
  L 117.4203 58.5976"
/>
<path stroke="#808080" vector-effect="non-scaling-stroke" d="
  M 108.67 116.83
  Q 119.94 127.22 132.50 139.09
  Q 135.97 142.37 138.57 142.92
  C 146.40 144.57 152.51 137.44 149.87 129.90
  C 149.05 127.55 146.93 125.82 145.11 124.14
  Q 126.62 106.94 108.48 90.02
  C 103.97 85.82 100.57 83.30 94.71 83.64
  Q 86.95 84.09 82.69 90.43
  Q 80.74 93.34 79.89 98.97
  Q 76.47 121.81 73.47 140.22
  Q 73.37 140.88 74.03 140.88
  L 104.05 140.87
  Q 104.47 140.87 104.53 140.45
  L 108.14 117.02
  Q 108.23 116.42 108.67 116.83"
/>
<path stroke="#808080" vector-effect="non-scaling-stroke" d="
  M 198.3644 142.3830
  A 12.13 12.13 0.0 0 0 181.7714 138.0299
  L 176.1594 141.3093
  A 12.13 12.13 0.0 0 0 171.8063 157.9022
  L 175.0756 163.4970
  A 12.13 12.13 0.0 0 0 191.6686 167.8501
  L 197.2806 164.5707
  A 12.13 12.13 0.0 0 0 201.6337 147.9778
  L 198.3644 142.3830"
/>
<path stroke="#808080" vector-effect="non-scaling-stroke" d="
  M 176.70 192.51
  Q 166.89 175.11 157.93 159.05
  C 154.33 152.60 148.96 150.65 141.51 150.68
  Q 99.94 150.81 56.29 150.73
  C 39.00 150.70 34.02 172.56 49.38 180.22
  Q 52.11 181.59 59.11 181.57
  Q 104.31 181.42 147.72 181.53
  Q 148.22 181.53 148.46 181.97
  Q 156.03 195.66 162.65 207.22
  Q 165.62 212.41 171.75 212.39
  Q 188.83 212.35 206.20 212.38
  C 212.94 212.39 217.77 205.66 215.39 199.38
  Q 212.94 192.94 205.71 192.90
  Q 193.16 192.84 177.36 192.90
  A 0.77 0.75 75.0 0 1 176.70 192.51"
/>
<path stroke="#808080" vector-effect="non-scaling-stroke" d="
  M 139.72 201.22
  A 6.59 6.59 0.0 0 0 133.13 194.63
  L 46.61 194.63
  A 6.59 6.59 0.0 0 0 40.02 201.22
  L 40.02 201.40
  A 6.59 6.59 0.0 0 0 46.61 207.99
  L 133.13 207.99
  A 6.59 6.59 0.0 0 0 139.72 201.40
  L 139.72 201.22"
/>
</g>
<path fill="#ffffff" d="
  M 121.87 0.00
  L 134.24 0.00
  Q 139.12 0.58 143.98 1.20
  Q 175.50 5.18 200.57 22.55
  C 231.69 44.10 250.94 77.03 255.27 114.37
  C 255.56 116.84 255.52 119.41 256.00 121.88
  L 256.00 133.23
  Q 253.59 178.00 225.95 210.44
  C 166.78 279.89 57.41 267.90 14.60 187.41
  Q 1.66 163.09 0.00 133.85
  L 0.00 122.01
  Q 0.56 117.00 1.19 112.02
  Q 4.67 84.27 19.00 60.86
  Q 24.09 52.55 30.84 44.77
  Q 66.14 4.06 121.87 0.00
  Z
  M 117.4203 58.5976
  A 12.14 12.14 0.0 0 0 107.2804 44.7433
  L 100.9162 43.7581
  A 12.14 12.14 0.0 0 0 87.0619 53.8979
  L 86.0797 60.2424
  A 12.14 12.14 0.0 0 0 96.2196 74.0967
  L 102.5838 75.0819
  A 12.14 12.14 0.0 0 0 116.4381 64.9421
  L 117.4203 58.5976
  Z
  M 108.67 116.83
  Q 119.94 127.22 132.50 139.09
  Q 135.97 142.37 138.57 142.92
  C 146.40 144.57 152.51 137.44 149.87 129.90
  C 149.05 127.55 146.93 125.82 145.11 124.14
  Q 126.62 106.94 108.48 90.02
  C 103.97 85.82 100.57 83.30 94.71 83.64
  Q 86.95 84.09 82.69 90.43
  Q 80.74 93.34 79.89 98.97
  Q 76.47 121.81 73.47 140.22
  Q 73.37 140.88 74.03 140.88
  L 104.05 140.87
  Q 104.47 140.87 104.53 140.45
  L 108.14 117.02
  Q 108.23 116.42 108.67 116.83
  Z
  M 198.3644 142.3830
  A 12.13 12.13 0.0 0 0 181.7714 138.0299
  L 176.1594 141.3093
  A 12.13 12.13 0.0 0 0 171.8063 157.9022
  L 175.0756 163.4970
  A 12.13 12.13 0.0 0 0 191.6686 167.8501
  L 197.2806 164.5707
  A 12.13 12.13 0.0 0 0 201.6337 147.9778
  L 198.3644 142.3830
  Z
  M 176.70 192.51
  Q 166.89 175.11 157.93 159.05
  C 154.33 152.60 148.96 150.65 141.51 150.68
  Q 99.94 150.81 56.29 150.73
  C 39.00 150.70 34.02 172.56 49.38 180.22
  Q 52.11 181.59 59.11 181.57
  Q 104.31 181.42 147.72 181.53
  Q 148.22 181.53 148.46 181.97
  Q 156.03 195.66 162.65 207.22
  Q 165.62 212.41 171.75 212.39
  Q 188.83 212.35 206.20 212.38
  C 212.94 212.39 217.77 205.66 215.39 199.38
  Q 212.94 192.94 205.71 192.90
  Q 193.16 192.84 177.36 192.90
  A 0.77 0.75 75.0 0 1 176.70 192.51
  Z
  M 139.72 201.22
  A 6.59 6.59 0.0 0 0 133.13 194.63
  L 46.61 194.63
  A 6.59 6.59 0.0 0 0 40.02 201.22
  L 40.02 201.40
  A 6.59 6.59 0.0 0 0 46.61 207.99
  L 133.13 207.99
  A 6.59 6.59 0.0 0 0 139.72 201.40
  L 139.72 201.22
  Z"
/>
<rect fill="#000000" x="-15.36" y="-15.35" transform="translate(101.75,59.42) rotate(8.8)" width="30.72" height="30.70" rx="12.14"/>
<path fill="#000000" d="
  M 108.67 116.83
  Q 108.23 116.42 108.14 117.02
  L 104.53 140.45
  Q 104.47 140.87 104.05 140.87
  L 74.03 140.88
  Q 73.37 140.88 73.47 140.22
  Q 76.47 121.81 79.89 98.97
  Q 80.74 93.34 82.69 90.43
  Q 86.95 84.09 94.71 83.64
  C 100.57 83.30 103.97 85.82 108.48 90.02
  Q 126.62 106.94 145.11 124.14
  C 146.93 125.82 149.05 127.55 149.87 129.90
  C 152.51 137.44 146.40 144.57 138.57 142.92
  Q 135.97 142.37 132.50 139.09
  Q 119.94 127.22 108.67 116.83
  Z"
/>
<rect fill="#000000" x="-15.38" y="-15.37" transform="translate(186.72,152.94) rotate(-30.3)" width="30.76" height="30.74" rx="12.13"/>
<path fill="#000000" d="
  M 176.70 192.51
  A 0.77 0.75 75.0 0 0 177.36 192.90
  Q 193.16 192.84 205.71 192.90
  Q 212.94 192.94 215.39 199.38
  C 217.77 205.66 212.94 212.39 206.20 212.38
  Q 188.83 212.35 171.75 212.39
  Q 165.62 212.41 162.65 207.22
  Q 156.03 195.66 148.46 181.97
  Q 148.22 181.53 147.72 181.53
  Q 104.31 181.42 59.11 181.57
  Q 52.11 181.59 49.38 180.22
  C 34.02 172.56 39.00 150.70 56.29 150.73
  Q 99.94 150.81 141.51 150.68
  C 148.96 150.65 154.33 152.60 157.93 159.05
  Q 166.89 175.11 176.70 192.51
  Z"
/>
<rect fill="#000000" x="40.02" y="194.63" width="99.70" height="13.36" rx="6.59"/>
</svg>
