<?xml version="1.0" encoding="UTF-8" standalone="no"?>
<!DOCTYPE svg PUBLIC "-//W3C//DTD SVG 1.1//EN" "http://www.w3.org/Graphics/SVG/1.1/DTD/svg11.dtd">
<svg xmlns="http://www.w3.org/2000/svg" version="1.1" viewBox="0.00 0.00 256.00 360.00">
<path stroke="#808080" stroke-width="2.00" fill="none" stroke-linecap="butt" vector-effect="non-scaling-stroke" d="
  M 141.35 75.21
  C 147.40 70.58 150.32 62.76 148.56 55.28
  C 145.85 43.76 134.55 37.65 123.33 40.99
  C 117.02 42.88 111.69 48.77 110.33 55.17
  Q 107.82 66.95 117.54 75.38
  Q 117.99 75.76 117.40 75.76
  L 106.47 75.74
  Q 105.90 75.74 105.76 75.19
  C 103.89 67.88 95.58 65.55 90.25 70.90
  C 89.11 72.05 88.51 73.75 87.95 75.27
  A 0.74 0.72 9.5 0 1 87.26 75.75
  L 75.04 75.75
  Q 74.47 75.75 74.48 75.17
  Q 74.54 69.29 74.49 63.38
  Q 74.45 58.51 70.10 58.47
  Q 69.93 58.47 69.93 58.47
  Q 65.58 58.44 65.52 63.33
  Q 65.44 68.92 65.53 75.12
  Q 65.55 75.92 64.76 75.78
  C 57.80 74.57 57.08 85.60 64.75 84.84
  Q 65.50 84.77 65.50 85.52
  Q 65.50 148.48 65.50 211.22
  C 65.51 217.60 74.50 217.65 74.50 211.13
  Q 74.50 147.80 74.50 85.55
  A 0.68 0.67 90.0 0 1 75.17 84.87
  L 88.53 84.87
  A 0.67 0.66 -11.4 0 1 89.14 85.27
  Q 93.28 95.12 104.43 95.02
  Q 106.24 95.00 108.10 94.91
  Q 108.76 94.87 108.76 95.54
  Q 108.73 134.34 108.76 180.86
  C 108.76 190.46 121.45 193.63 125.92 185.17
  Q 127.10 182.95 127.07 178.78
  Q 126.93 161.22 127.02 143.87
  Q 127.02 143.61 127.28 143.61
  L 131.55 143.64
  A 0.32 0.32 0.0 0 1 131.87 143.96
  Q 131.88 160.36 131.88 176.32
  C 131.88 180.49 131.36 184.70 134.99 187.79
  C 140.92 192.83 150.10 189.04 150.11 180.93
  Q 150.17 137.74 150.10 95.56
  Q 150.09 94.74 150.91 94.83
  C 159.40 95.73 166.29 93.52 169.74 85.28
  A 0.66 0.66 0.0 0 1 170.35 84.87
  L 181.20 84.87
  A 0.30 0.29 0.0 0 1 181.50 85.16
  Q 181.50 148.27 181.50 211.32
  C 181.50 217.54 190.50 217.65 190.50 211.12
  Q 190.50 149.24 190.50 85.41
  A 0.59 0.59 0.0 0 1 191.17 84.82
  C 198.35 85.74 198.90 75.09 191.11 75.76
  Q 190.47 75.82 190.47 75.17
  Q 190.55 68.59 190.47 63.00
  C 190.38 56.71 181.52 56.78 181.42 63.17
  Q 181.32 68.93 181.39 75.10
  Q 181.40 75.75 180.75 75.75
  L 171.50 75.75
  Q 170.94 75.75 170.81 75.21
  C 168.45 65.54 155.56 65.66 153.07 75.17
  Q 152.91 75.75 152.31 75.75
  L 141.53 75.75
  Q 140.64 75.75 141.35 75.21"
/>
<path fill="#ffffff" d="
  M 121.88 0.00
  L 134.24 0.00
  Q 139.11 0.59 143.98 1.21
  Q 176.36 5.33 202.38 23.84
  Q 210.39 29.53 217.65 36.72
  Q 252.51 71.24 256.00 121.88
  L 256.00 133.23
  Q 253.53 178.77 225.15 211.38
  C 198.01 242.56 158.53 258.95 117.22 255.51
  C 91.87 253.40 66.84 243.56 47.09 227.18
  Q 11.73 197.83 2.42 152.83
  Q 1.50 148.37 0.96 143.29
  Q 0.45 138.59 0.00 133.87
  L 0.00 122.03
  Q 1.34 99.82 8.80 81.24
  Q 23.28 45.17 54.03 23.54
  Q 81.06 4.53 114.02 0.94
  Q 117.96 0.51 121.88 0.00
  Z
  M 141.35 75.21
  C 147.40 70.58 150.32 62.76 148.56 55.28
  C 145.85 43.76 134.55 37.65 123.33 40.99
  C 117.02 42.88 111.69 48.77 110.33 55.17
  Q 107.82 66.95 117.54 75.38
  Q 117.99 75.76 117.40 75.76
  L 106.47 75.74
  Q 105.90 75.74 105.76 75.19
  C 103.89 67.88 95.58 65.55 90.25 70.90
  C 89.11 72.05 88.51 73.75 87.95 75.27
  A 0.74 0.72 9.5 0 1 87.26 75.75
  L 75.04 75.75
  Q 74.47 75.75 74.48 75.17
  Q 74.54 69.29 74.49 63.38
  Q 74.45 58.51 70.10 58.47
  Q 69.93 58.47 69.93 58.47
  Q 65.58 58.44 65.52 63.33
  Q 65.44 68.92 65.53 75.12
  Q 65.55 75.92 64.76 75.78
  C 57.80 74.57 57.08 85.60 64.75 84.84
  Q 65.50 84.77 65.50 85.52
  Q 65.50 148.48 65.50 211.22
  C 65.51 217.60 74.50 217.65 74.50 211.13
  Q 74.50 147.80 74.50 85.55
  A 0.68 0.67 90.0 0 1 75.17 84.87
  L 88.53 84.87
  A 0.67 0.66 -11.4 0 1 89.14 85.27
  Q 93.28 95.12 104.43 95.02
  Q 106.24 95.00 108.10 94.91
  Q 108.76 94.87 108.76 95.54
  Q 108.73 134.34 108.76 180.86
  C 108.76 190.46 121.45 193.63 125.92 185.17
  Q 127.10 182.95 127.07 178.78
  Q 126.93 161.22 127.02 143.87
  Q 127.02 143.61 127.28 143.61
  L 131.55 143.64
  A 0.32 0.32 0.0 0 1 131.87 143.96
  Q 131.88 160.36 131.88 176.32
  C 131.88 180.49 131.36 184.70 134.99 187.79
  C 140.92 192.83 150.10 189.04 150.11 180.93
  Q 150.17 137.74 150.10 95.56
  Q 150.09 94.74 150.91 94.83
  C 159.40 95.73 166.29 93.52 169.74 85.28
  A 0.66 0.66 0.0 0 1 170.35 84.87
  L 181.20 84.87
  A 0.30 0.29 0.0 0 1 181.50 85.16
  Q 181.50 148.27 181.50 211.32
  C 181.50 217.54 190.50 217.65 190.50 211.12
  Q 190.50 149.24 190.50 85.41
  A 0.59 0.59 0.0 0 1 191.17 84.82
  C 198.35 85.74 198.90 75.09 191.11 75.76
  Q 190.47 75.82 190.47 75.17
  Q 190.55 68.59 190.47 63.00
  C 190.38 56.71 181.52 56.78 181.42 63.17
  Q 181.32 68.93 181.39 75.10
  Q 181.40 75.75 180.75 75.75
  L 171.50 75.75
  Q 170.94 75.75 170.81 75.21
  C 168.45 65.54 155.56 65.66 153.07 75.17
  Q 152.91 75.75 152.31 75.75
  L 141.53 75.75
  Q 140.64 75.75 141.35 75.21
  Z"
/>
<path fill="#000000" d="
  M 141.53 75.75
  L 152.31 75.75
  Q 152.91 75.75 153.07 75.17
  C 155.56 65.66 168.45 65.54 170.81 75.21
  Q 170.94 75.75 171.50 75.75
  L 180.75 75.75
  Q 181.40 75.75 181.39 75.10
  Q 181.32 68.93 181.42 63.17
  C 181.52 56.78 190.38 56.71 190.47 63.00
  Q 190.55 68.59 190.47 75.17
  Q 190.47 75.82 191.11 75.76
  C 198.90 75.09 198.35 85.74 191.17 84.82
  A 0.59 0.59 0.0 0 0 190.50 85.41
  Q 190.50 149.24 190.50 211.12
  C 190.50 217.65 181.50 217.54 181.50 211.32
  Q 181.50 148.27 181.50 85.16
  A 0.30 0.29 0.0 0 0 181.20 84.87
  L 170.35 84.87
  A 0.66 0.66 0.0 0 0 169.74 85.28
  C 166.29 93.52 159.40 95.73 150.91 94.83
  Q 150.09 94.74 150.10 95.56
  Q 150.17 137.74 150.11 180.93
  C 150.10 189.04 140.92 192.83 134.99 187.79
  C 131.36 184.70 131.88 180.49 131.88 176.32
  Q 131.88 160.36 131.87 143.96
  A 0.32 0.32 0.0 0 0 131.55 143.64
  L 127.28 143.61
  Q 127.02 143.61 127.02 143.87
  Q 126.93 161.22 127.07 178.78
  Q 127.10 182.95 125.92 185.17
  C 121.45 193.63 108.76 190.46 108.76 180.86
  Q 108.73 134.34 108.76 95.54
  Q 108.76 94.87 108.10 94.91
  Q 106.24 95.00 104.43 95.02
  Q 93.28 95.12 89.14 85.27
  A 0.67 0.66 -11.4 0 0 88.53 84.87
  L 75.17 84.87
  A 0.68 0.67 90.0 0 0 74.50 85.55
  Q 74.50 147.80 74.50 211.13
  C 74.50 217.65 65.51 217.60 65.50 211.22
  Q 65.50 148.48 65.50 85.52
  Q 65.50 84.77 64.75 84.84
  C 57.08 85.60 57.80 74.57 64.76 75.78
  Q 65.55 75.92 65.53 75.12
  Q 65.44 68.92 65.52 63.33
  Q 65.58 58.44 69.93 58.47
  Q 69.93 58.47 70.10 58.47
  Q 74.45 58.51 74.49 63.38
  Q 74.54 69.29 74.48 75.17
  Q 74.47 75.75 75.04 75.75
  L 87.26 75.75
  A 0.74 0.72 9.5 0 0 87.95 75.27
  C 88.51 73.75 89.11 72.05 90.25 70.90
  C 95.58 65.55 103.89 67.88 105.76 75.19
  Q 105.90 75.74 106.47 75.74
  L 117.40 75.76
  Q 117.99 75.76 117.54 75.38
  Q 107.82 66.95 110.33 55.17
  C 111.69 48.77 117.02 42.88 123.33 40.99
  C 134.55 37.65 145.85 43.76 148.56 55.28
  C 150.32 62.76 147.40 70.58 141.35 75.21
  Q 140.64 75.75 141.53 75.75
  Z"
/>
</svg>
