<?xml version="1.0" encoding="UTF-8" standalone="no"?>
<!DOCTYPE svg PUBLIC "-//W3C//DTD SVG 1.1//EN" "http://www.w3.org/Graphics/SVG/1.1/DTD/svg11.dtd">
<svg xmlns="http://www.w3.org/2000/svg" version="1.1" viewBox="0.00 0.00 256.00 360.00">
<g stroke-width="2.00" fill="none" stroke-linecap="butt">
<path stroke="#808080" vector-effect="non-scaling-stroke" d="
  M 141.42 38.18
  Q 127.00 33.47 112.81 38.82
  Q 110.83 39.56 111.32 41.68
  A 2.04 2.02 83.3 0 0 113.29 43.25
  L 142.69 43.25
  A 2.03 2.03 0.0 0 0 144.71 41.43
  C 144.97 39.01 143.23 38.78 141.42 38.18"
/>
<path stroke="#808080" vector-effect="non-scaling-stroke" d="
  M 172.24 59.44
  A 6.81 6.81 0.0 0 0 165.43 52.63
  L 90.57 52.63
  A 6.81 6.81 0.0 0 0 83.76 59.44
  L 83.76 59.68
  A 6.81 6.81 0.0 0 0 90.57 66.49
  L 165.43 66.49
  A 6.81 6.81 0.0 0 0 172.24 59.68
  L 172.24 59.44"
/>
<path stroke="#808080" vector-effect="non-scaling-stroke" d="
  M 168.49 75.74
  L 87.57 75.74
  A 2.36 2.36 0.0 0 0 85.21 78.10
  L 85.21 78.74
  A 42.82 42.25 90.0 0 0 127.46 121.56
  L 128.60 121.56
  A 42.82 42.25 90.0 0 0 170.85 78.74
  L 170.85 78.10
  A 2.36 2.36 0.0 0 0 168.49 75.74"
/>
<path stroke="#808080" vector-effect="non-scaling-stroke" d="
  M 145.23 151.20
  C 145.19 166.07 127.69 174.65 116.41 164.29
  Q 110.80 159.14 110.77 150.97
  Q 110.73 141.37 110.74 132.61
  A 2.23 2.23 0.0 0 0 107.84 130.47
  Q 103.35 131.88 98.82 134.27
  Q 97.63 134.90 97.63 136.25
  L 97.63 217.81
  A 2.19 2.18 90.0 0 0 99.81 220.00
  L 156.03 220.00
  A 2.34 2.34 0.0 0 0 158.37 217.66
  Q 158.38 176.71 158.35 136.50
  Q 158.35 134.80 156.85 134.04
  Q 152.28 131.72 148.02 130.47
  A 2.16 2.16 0.0 0 0 145.25 132.54
  Q 145.26 142.15 145.23 151.20"
/>
<path stroke="#808080" vector-effect="non-scaling-stroke" d="
  M 84.61 144.30
  C 74.22 153.90 67.43 166.40 65.08 180.35
  C 63.45 190.07 64.43 201.68 64.20 212.20
  C 64.09 217.10 67.22 220.14 72.13 220.06
  Q 79.80 219.93 85.93 220.02
  A 2.40 2.39 -89.4 0 0 88.36 217.63
  Q 88.40 181.78 88.36 146.40
  Q 88.36 144.79 86.97 144.02
  A 2.02 2.02 0.0 0 0 84.61 144.30"
/>
<path stroke="#808080" vector-effect="non-scaling-stroke" d="
  M 191.66 187.01
  C 191.01 171.17 183.29 155.34 171.50 144.41
  C 169.89 142.92 167.65 144.31 167.65 146.26
  Q 167.62 181.80 167.63 217.44
  Q 167.63 220.00 170.18 219.99
  Q 176.72 219.96 183.45 220.05
  C 187.71 220.11 191.68 218.02 191.79 213.22
  Q 192.12 198.25 191.66 187.01"
/>
</g>
<path fill="#ffffff" d="
  M 121.87 0.00
  L 134.24 0.00
  Q 139.11 0.59 143.98 1.21
  Q 176.36 5.33 202.38 23.83
  Q 210.39 29.53 217.65 36.72
  Q 252.51 71.24 256.00 121.88
  L 256.00 133.23
  Q 253.60 177.79 226.18 210.17
  Q 204.69 235.54 174.15 247.36
  C 128.92 264.86 76.76 255.27 41.04 221.86
  Q 3.62 186.84 0.00 133.88
  L 0.00 122.01
  Q 0.56 117.00 1.19 112.02
  Q 4.67 84.27 19.00 60.86
  Q 24.09 52.55 30.84 44.77
  Q 66.14 4.06 121.87 0.00
  Z
  M 141.42 38.18
  Q 127.00 33.47 112.81 38.82
  Q 110.83 39.56 111.32 41.68
  A 2.04 2.02 83.3 0 0 113.29 43.25
  L 142.69 43.25
  A 2.03 2.03 0.0 0 0 144.71 41.43
  C 144.97 39.01 143.23 38.78 141.42 38.18
  Z
  M 172.24 59.44
  A 6.81 6.81 0.0 0 0 165.43 52.63
  L 90.57 52.63
  A 6.81 6.81 0.0 0 0 83.76 59.44
  L 83.76 59.68
  A 6.81 6.81 0.0 0 0 90.57 66.49
  L 165.43 66.49
  A 6.81 6.81 0.0 0 0 172.24 59.68
  L 172.24 59.44
  Z
  M 168.49 75.74
  L 87.57 75.74
  A 2.36 2.36 0.0 0 0 85.21 78.10
  L 85.21 78.74
  A 42.82 42.25 90.0 0 0 127.46 121.56
  L 128.60 121.56
  A 42.82 42.25 90.0 0 0 170.85 78.74
  L 170.85 78.10
  A 2.36 2.36 0.0 0 0 168.49 75.74
  Z
  M 145.23 151.20
  C 145.19 166.07 127.69 174.65 116.41 164.29
  Q 110.80 159.14 110.77 150.97
  Q 110.73 141.37 110.74 132.61
  A 2.23 2.23 0.0 0 0 107.84 130.47
  Q 103.35 131.88 98.82 134.27
  Q 97.63 134.90 97.63 136.25
  L 97.63 217.81
  A 2.19 2.18 90.0 0 0 99.81 220.00
  L 156.03 220.00
  A 2.34 2.34 0.0 0 0 158.37 217.66
  Q 158.38 176.71 158.35 136.50
  Q 158.35 134.80 156.85 134.04
  Q 152.28 131.72 148.02 130.47
  A 2.16 2.16 0.0 0 0 145.25 132.54
  Q 145.26 142.15 145.23 151.20
  Z
  M 84.61 144.30
  C 74.22 153.90 67.43 166.40 65.08 180.35
  C 63.45 190.07 64.43 201.68 64.20 212.20
  C 64.09 217.10 67.22 220.14 72.13 220.06
  Q 79.80 219.93 85.93 220.02
  A 2.40 2.39 -89.4 0 0 88.36 217.63
  Q 88.40 181.78 88.36 146.40
  Q 88.36 144.79 86.97 144.02
  A 2.02 2.02 0.0 0 0 84.61 144.30
  Z
  M 191.66 187.01
  C 191.01 171.17 183.29 155.34 171.50 144.41
  C 169.89 142.92 167.65 144.31 167.65 146.26
  Q 167.62 181.80 167.63 217.44
  Q 167.63 220.00 170.18 219.99
  Q 176.72 219.96 183.45 220.05
  C 187.71 220.11 191.68 218.02 191.79 213.22
  Q 192.12 198.25 191.66 187.01
  Z"
/>
<path fill="#000000" d="
  M 141.42 38.18
  C 143.23 38.78 144.97 39.01 144.71 41.43
  A 2.03 2.03 0.0 0 1 142.69 43.25
  L 113.29 43.25
  A 2.04 2.02 83.3 0 1 111.32 41.68
  Q 110.83 39.56 112.81 38.82
  Q 127.00 33.47 141.42 38.18
  Z"
/>
<rect fill="#000000" x="83.76" y="52.63" width="88.48" height="13.86" rx="6.81"/>
<path fill="#000000" d="
  M 168.49 75.74
  A 2.36 2.36 0.0 0 1 170.85 78.10
  L 170.85 78.74
  A 42.82 42.25 -90.0 0 1 128.60 121.56
  L 127.46 121.56
  A 42.82 42.25 -90.0 0 1 85.21 78.74
  L 85.21 78.10
  A 2.36 2.36 0.0 0 1 87.57 75.74
  L 168.49 75.74
  Z"
/>
<path fill="#000000" d="
  M 116.41 164.29
  C 127.69 174.65 145.19 166.07 145.23 151.20
  Q 145.26 142.15 145.25 132.54
  A 2.16 2.16 0.0 0 1 148.02 130.47
  Q 152.28 131.72 156.85 134.04
  Q 158.35 134.80 158.35 136.50
  Q 158.38 176.71 158.37 217.66
  A 2.34 2.34 0.0 0 1 156.03 220.00
  L 99.81 220.00
  A 2.19 2.18 -90.0 0 1 97.63 217.81
  L 97.63 136.25
  Q 97.63 134.90 98.82 134.27
  Q 103.35 131.88 107.84 130.47
  A 2.23 2.23 0.0 0 1 110.74 132.61
  Q 110.73 141.37 110.77 150.97
  Q 110.80 159.14 116.41 164.29
  Z"
/>
<path fill="#000000" d="
  M 65.08 180.35
  C 67.43 166.40 74.22 153.90 84.61 144.30
  A 2.02 2.02 0.0 0 1 86.97 144.02
  Q 88.36 144.79 88.36 146.40
  Q 88.40 181.78 88.36 217.63
  A 2.40 2.39 -89.4 0 1 85.93 220.02
  Q 79.80 219.93 72.13 220.06
  C 67.22 220.14 64.09 217.10 64.20 212.20
  C 64.43 201.68 63.45 190.07 65.08 180.35
  Z"
/>
<path fill="#000000" d="
  M 171.50 144.41
  C 183.29 155.34 191.01 171.17 191.66 187.01
  Q 192.12 198.25 191.79 213.22
  C 191.68 218.02 187.71 220.11 183.45 220.05
  Q 176.72 219.96 170.18 219.99
  Q 167.63 220.00 167.63 217.44
  Q 167.62 181.80 167.65 146.26
  C 167.65 144.31 169.89 142.92 171.50 144.41
  Z"
/>
</svg>
