<?xml version="1.0" encoding="UTF-8" standalone="no"?>
<!DOCTYPE svg PUBLIC "-//W3C//DTD SVG 1.1//EN" "http://www.w3.org/Graphics/SVG/1.1/DTD/svg11.dtd">
<svg xmlns="http://www.w3.org/2000/svg" version="1.1" viewBox="0.00 0.00 256.00 452.00">
<g stroke-width="2.00" fill="none" stroke-linecap="butt">
<path stroke="#808080" vector-effect="non-scaling-stroke" d="
  M 112.1800 86.3900
  A 18.89 13.40 90.0 0 0 125.5800 67.5000
  A 18.89 13.40 90.0 0 0 112.1800 48.6100
  A 18.89 13.40 90.0 0 0 98.7800 67.5000
  A 18.89 13.40 90.0 0 0 112.1800 86.3900"
/>
<path stroke="#808080" vector-effect="non-scaling-stroke" d="
  M 181.46 59.71
  A 0.43 0.43 0.0 0 1 181.02 59.77
  L 173.91 56.86
  A 0.43 0.43 0.0 0 0 173.36 57.06
  L 171.07 61.53
  A 0.43 0.43 0.0 0 0 171.29 62.12
  L 199.93 74.26
  A 0.43 0.43 0.0 0 0 200.49 74.05
  L 205.87 62.91
  A 0.43 0.43 0.0 0 0 205.66 62.33
  L 187.95 54.71
  A 0.43 0.43 0.0 0 0 187.51 54.77
  L 181.46 59.71"
/>
<path stroke="#808080" vector-effect="non-scaling-stroke" d="
  M 191.67 77.88
  A 0.40 0.40 0.0 0 0 191.46 77.34
  L 186.25 75.21
  A 0.40 0.40 0.0 0 0 185.74 75.41
  L 167.23 114.67
  A 0.40 0.40 0.0 0 0 167.43 115.21
  L 172.75 117.45
  A 0.40 0.40 0.0 0 0 173.26 117.25
  L 191.67 77.88"
/>
<path stroke="#808080" vector-effect="non-scaling-stroke" d="
  M 131.18 102.70
  Q 112.36 112.63 93.10 102.71
  Q 92.62 102.46 92.62 101.92
  L 92.63 82.48
  Q 92.63 82.21 92.36 82.23
  Q 90.02 82.42 87.48 83.09
  Q 87.12 83.19 87.12 83.56
  L 87.14 126.57
  A 0.43 0.43 0.0 0 0 87.57 127.00
  L 136.75 127.00
  Q 137.25 127.00 137.25 126.50
  L 137.25 83.66
  A 0.70 0.70 0.0 0 0 136.67 82.97
  L 132.23 82.14
  A 0.41 0.41 0.0 0 0 131.75 82.54
  L 131.75 101.75
  Q 131.75 102.40 131.18 102.70"
/>
<path stroke="#808080" vector-effect="non-scaling-stroke" d="
  M 80.37 85.89
  C 73.40 89.65 70.50 97.30 70.25 104.83
  Q 69.90 115.24 71.11 126.80
  Q 71.13 127.00 71.32 127.00
  L 80.66 127.00
  Q 80.87 127.00 80.87 126.78
  L 80.88 86.19
  Q 80.88 85.62 80.37 85.89"
/>
<path stroke="#808080" vector-effect="non-scaling-stroke" d="
  M 144.41 86.01
  Q 143.50 85.41 143.50 86.50
  L 143.50 126.75
  Q 143.50 127.00 143.75 127.00
  L 153.00 127.00
  A 0.31 0.31 0.0 0 0 153.31 126.72
  C 154.00 118.11 154.94 109.04 153.61 100.48
  Q 152.16 91.14 144.41 86.01"
/>
<path stroke="#808080" vector-effect="non-scaling-stroke" d="
  M 124.90 86.65
  C 117.15 94.56 106.43 94.67 99.28 86.33
  Q 98.75 85.70 98.75 86.52
  L 98.75 97.96
  Q 98.75 98.48 99.22 98.68
  Q 111.91 104.30 124.95 98.80
  Q 125.62 98.52 125.62 97.79
  L 125.62 86.94
  Q 125.62 85.91 124.90 86.65"
/>
<path stroke="#808080" vector-effect="non-scaling-stroke" d="
  M 112.91 177.40
  Q 106.18 192.40 93.20 203.15
  Q 92.78 203.50 92.23 203.50
  L 84.42 203.50
  Q 84.26 203.50 84.26 203.66
  L 84.26 209.67
  Q 84.26 209.87 84.45 209.87
  L 181.71 209.87
  Q 182.00 209.87 182.00 209.58
  L 182.00 203.75
  A 0.25 0.25 0.0 0 0 181.75 203.50
  L 173.25 203.50
  Q 172.73 203.50 172.31 203.20
  Q 158.20 193.05 151.52 177.44
  Q 151.23 176.75 151.97 176.75
  L 172.75 176.75
  Q 173.25 176.75 173.25 176.25
  L 173.26 167.03
  A 0.33 0.33 0.0 0 1 173.47 166.72
  Q 184.12 162.63 193.14 154.49
  Q 193.57 154.10 193.13 153.73
  Q 184.13 145.97 173.86 143.30
  Q 173.25 143.14 173.25 142.51
  L 173.25 133.50
  Q 173.25 133.00 172.75 133.00
  L 93.50 133.00
  Q 93.00 133.00 93.00 133.50
  L 93.00 139.50
  A 0.50 0.50 0.0 0 1 92.50 140.00
  L 62.96 140.00
  A 0.47 0.47 0.0 0 0 62.54 140.68
  Q 71.86 159.88 92.53 165.42
  Q 93.00 165.54 93.00 166.03
  L 93.00 176.25
  Q 93.00 176.75 93.50 176.75
  L 112.49 176.75
  Q 113.20 176.75 112.91 177.40"
/>
</g>
<path fill="#ffffff" d="
  M 121.87 0.00
  L 134.24 0.00
  Q 139.12 0.58 143.98 1.20
  Q 175.55 5.19 200.55 22.53
  C 231.68 44.13 250.92 76.97 255.27 114.34
  C 255.56 116.83 255.52 119.41 256.00 121.88
  L 256.00 133.24
  Q 253.60 177.81 226.18 210.17
  C 198.89 242.36 158.38 259.26 116.28 255.43
  C 89.87 253.03 64.50 242.42 44.37 224.83
  Q 3.91 189.46 0.00 133.88
  L 0.00 122.01
  Q 0.56 117.00 1.19 112.02
  Q 4.67 84.27 19.00 60.86
  Q 24.09 52.55 30.84 44.77
  Q 66.14 4.06 121.87 0.00
  Z
  M 112.1800 86.3900
  A 18.89 13.40 90.0 0 0 125.5800 67.5000
  A 18.89 13.40 90.0 0 0 112.1800 48.6100
  A 18.89 13.40 90.0 0 0 98.7800 67.5000
  A 18.89 13.40 90.0 0 0 112.1800 86.3900
  Z
  M 181.46 59.71
  A 0.43 0.43 0.0 0 1 181.02 59.77
  L 173.91 56.86
  A 0.43 0.43 0.0 0 0 173.36 57.06
  L 171.07 61.53
  A 0.43 0.43 0.0 0 0 171.29 62.12
  L 199.93 74.26
  A 0.43 0.43 0.0 0 0 200.49 74.05
  L 205.87 62.91
  A 0.43 0.43 0.0 0 0 205.66 62.33
  L 187.95 54.71
  A 0.43 0.43 0.0 0 0 187.51 54.77
  L 181.46 59.71
  Z
  M 191.67 77.88
  A 0.40 0.40 0.0 0 0 191.46 77.34
  L 186.25 75.21
  A 0.40 0.40 0.0 0 0 185.74 75.41
  L 167.23 114.67
  A 0.40 0.40 0.0 0 0 167.43 115.21
  L 172.75 117.45
  A 0.40 0.40 0.0 0 0 173.26 117.25
  L 191.67 77.88
  Z
  M 131.18 102.70
  Q 112.36 112.63 93.10 102.71
  Q 92.62 102.46 92.62 101.92
  L 92.63 82.48
  Q 92.63 82.21 92.36 82.23
  Q 90.02 82.42 87.48 83.09
  Q 87.12 83.19 87.12 83.56
  L 87.14 126.57
  A 0.43 0.43 0.0 0 0 87.57 127.00
  L 136.75 127.00
  Q 137.25 127.00 137.25 126.50
  L 137.25 83.66
  A 0.70 0.70 0.0 0 0 136.67 82.97
  L 132.23 82.14
  A 0.41 0.41 0.0 0 0 131.75 82.54
  L 131.75 101.75
  Q 131.75 102.40 131.18 102.70
  Z
  M 80.37 85.89
  C 73.40 89.65 70.50 97.30 70.25 104.83
  Q 69.90 115.24 71.11 126.80
  Q 71.13 127.00 71.32 127.00
  L 80.66 127.00
  Q 80.87 127.00 80.87 126.78
  L 80.88 86.19
  Q 80.88 85.62 80.37 85.89
  Z
  M 144.41 86.01
  Q 143.50 85.41 143.50 86.50
  L 143.50 126.75
  Q 143.50 127.00 143.75 127.00
  L 153.00 127.00
  A 0.31 0.31 0.0 0 0 153.31 126.72
  C 154.00 118.11 154.94 109.04 153.61 100.48
  Q 152.16 91.14 144.41 86.01
  Z
  M 124.90 86.65
  C 117.15 94.56 106.43 94.67 99.28 86.33
  Q 98.75 85.70 98.75 86.52
  L 98.75 97.96
  Q 98.75 98.48 99.22 98.68
  Q 111.91 104.30 124.95 98.80
  Q 125.62 98.52 125.62 97.79
  L 125.62 86.94
  Q 125.62 85.91 124.90 86.65
  Z
  M 112.91 177.40
  Q 106.18 192.40 93.20 203.15
  Q 92.78 203.50 92.23 203.50
  L 84.42 203.50
  Q 84.26 203.50 84.26 203.66
  L 84.26 209.67
  Q 84.26 209.87 84.45 209.87
  L 181.71 209.87
  Q 182.00 209.87 182.00 209.58
  L 182.00 203.75
  A 0.25 0.25 0.0 0 0 181.75 203.50
  L 173.25 203.50
  Q 172.73 203.50 172.31 203.20
  Q 158.20 193.05 151.52 177.44
  Q 151.23 176.75 151.97 176.75
  L 172.75 176.75
  Q 173.25 176.75 173.25 176.25
  L 173.26 167.03
  A 0.33 0.33 0.0 0 1 173.47 166.72
  Q 184.12 162.63 193.14 154.49
  Q 193.57 154.10 193.13 153.73
  Q 184.13 145.97 173.86 143.30
  Q 173.25 143.14 173.25 142.51
  L 173.25 133.50
  Q 173.25 133.00 172.75 133.00
  L 93.50 133.00
  Q 93.00 133.00 93.00 133.50
  L 93.00 139.50
  A 0.50 0.50 0.0 0 1 92.50 140.00
  L 62.96 140.00
  A 0.47 0.47 0.0 0 0 62.54 140.68
  Q 71.86 159.88 92.53 165.42
  Q 93.00 165.54 93.00 166.03
  L 93.00 176.25
  Q 93.00 176.75 93.50 176.75
  L 112.49 176.75
  Q 113.20 176.75 112.91 177.40
  Z"
/>
<ellipse fill="#000000" cx="0.00" cy="0.00" transform="translate(112.18,67.50) rotate(90.0)" rx="18.89" ry="13.40"/>
<path fill="#000000" d="
  M 181.46 59.71
  L 187.51 54.77
  A 0.43 0.43 0.0 0 1 187.95 54.71
  L 205.66 62.33
  A 0.43 0.43 0.0 0 1 205.87 62.91
  L 200.49 74.05
  A 0.43 0.43 0.0 0 1 199.93 74.26
  L 171.29 62.12
  A 0.43 0.43 0.0 0 1 171.07 61.53
  L 173.36 57.06
  A 0.43 0.43 0.0 0 1 173.91 56.86
  L 181.02 59.77
  A 0.43 0.43 0.0 0 0 181.46 59.71
  Z"
/>
<path fill="#000000" d="
  M 191.67 77.88
  L 173.26 117.25
  A 0.40 0.40 0.0 0 1 172.75 117.45
  L 167.43 115.21
  A 0.40 0.40 0.0 0 1 167.23 114.67
  L 185.74 75.41
  A 0.40 0.40 0.0 0 1 186.25 75.21
  L 191.46 77.34
  A 0.40 0.40 0.0 0 1 191.67 77.88
  Z"
/>
<path fill="#000000" d="
  M 131.75 101.75
  L 131.75 82.54
  A 0.41 0.41 0.0 0 1 132.23 82.14
  L 136.67 82.97
  A 0.70 0.70 0.0 0 1 137.25 83.66
  L 137.25 126.50
  Q 137.25 127.00 136.75 127.00
  L 87.57 127.00
  A 0.43 0.43 0.0 0 1 87.14 126.57
  L 87.12 83.56
  Q 87.12 83.19 87.48 83.09
  Q 90.02 82.42 92.36 82.23
  Q 92.63 82.21 92.63 82.48
  L 92.62 101.92
  Q 92.62 102.46 93.10 102.71
  Q 112.36 112.63 131.18 102.70
  Q 131.75 102.40 131.75 101.75
  Z"
/>
<path fill="#000000" d="
  M 70.25 104.83
  C 70.50 97.30 73.40 89.65 80.37 85.89
  Q 80.88 85.62 80.88 86.19
  L 80.87 126.78
  Q 80.87 127.00 80.66 127.00
  L 71.32 127.00
  Q 71.13 127.00 71.11 126.80
  Q 69.90 115.24 70.25 104.83
  Z"
/>
<path fill="#000000" d="
  M 144.41 86.01
  Q 152.16 91.14 153.61 100.48
  C 154.94 109.04 154.00 118.11 153.31 126.72
  A 0.31 0.31 0.0 0 1 153.00 127.00
  L 143.75 127.00
  Q 143.50 127.00 143.50 126.75
  L 143.50 86.50
  Q 143.50 85.41 144.41 86.01
  Z"
/>
<path fill="#000000" d="
  M 99.28 86.33
  C 106.43 94.67 117.15 94.56 124.90 86.65
  Q 125.62 85.91 125.62 86.94
  L 125.62 97.79
  Q 125.62 98.52 124.95 98.80
  Q 111.91 104.30 99.22 98.68
  Q 98.75 98.48 98.75 97.96
  L 98.75 86.52
  Q 98.75 85.70 99.28 86.33
  Z"
/>
<path fill="#000000" d="
  M 112.49 176.75
  L 93.50 176.75
  Q 93.00 176.75 93.00 176.25
  L 93.00 166.03
  Q 93.00 165.54 92.53 165.42
  Q 71.86 159.88 62.54 140.68
  A 0.47 0.47 0.0 0 1 62.96 140.00
  L 92.50 140.00
  A 0.50 0.50 0.0 0 0 93.00 139.50
  L 93.00 133.50
  Q 93.00 133.00 93.50 133.00
  L 172.75 133.00
  Q 173.25 133.00 173.25 133.50
  L 173.25 142.51
  Q 173.25 143.14 173.86 143.30
  Q 184.13 145.97 193.13 153.73
  Q 193.57 154.10 193.14 154.49
  Q 184.12 162.63 173.47 166.72
  A 0.33 0.33 0.0 0 0 173.26 167.03
  L 173.25 176.25
  Q 173.25 176.75 172.75 176.75
  L 151.97 176.75
  Q 151.23 176.75 151.52 177.44
  Q 158.20 193.05 172.31 203.20
  Q 172.73 203.50 173.25 203.50
  L 181.75 203.50
  A 0.25 0.25 0.0 0 1 182.00 203.75
  L 182.00 209.58
  Q 182.00 209.87 181.71 209.87
  L 84.45 209.87
  Q 84.26 209.87 84.26 209.67
  L 84.26 203.66
  Q 84.26 203.50 84.42 203.50
  L 92.23 203.50
  Q 92.78 203.50 93.20 203.15
  Q 106.18 192.40 112.91 177.40
  Q 113.20 176.75 112.49 176.75
  Z"
/>
</svg>
