<?xml version="1.0" encoding="UTF-8" standalone="no"?>
<!DOCTYPE svg PUBLIC "-//W3C//DTD SVG 1.1//EN" "http://www.w3.org/Graphics/SVG/1.1/DTD/svg11.dtd">
<svg xmlns="http://www.w3.org/2000/svg" version="1.1" viewBox="0.00 0.00 256.00 452.00">
<g stroke-width="2.00" fill="none" stroke-linecap="butt">
<path stroke="#808080" vector-effect="non-scaling-stroke" d="
  M 142.52 60.16
  A 14.85 14.85 0.0 0 0 127.67 45.31
  A 14.85 14.85 0.0 0 0 112.82 60.16
  A 14.85 14.85 0.0 0 0 127.67 75.01
  A 14.85 14.85 0.0 0 0 142.52 60.16"
/>
<path stroke="#808080" vector-effect="non-scaling-stroke" d="
  M 105.64 98.50
  L 105.95 98.51
  A 1.70 1.69 0.5 0 1 107.62 100.20
  L 107.62 117.50
  Q 107.62 118.12 108.25 118.12
  L 147.20 118.12
  Q 147.62 118.12 147.62 117.70
  L 147.63 100.66
  Q 147.63 98.73 149.55 98.49
  Q 149.78 98.46 150.00 98.50
  Q 151.62 98.79 151.62 100.44
  L 151.62 117.50
  Q 151.62 118.12 152.25 118.12
  L 164.24 118.13
  Q 164.79 118.13 164.79 117.57
  Q 164.66 108.55 164.81 99.17
  Q 164.88 94.43 163.57 90.62
  C 161.11 83.48 154.21 78.20 146.66 78.16
  Q 126.07 78.05 108.73 78.18
  C 101.03 78.23 94.47 83.39 91.79 90.32
  Q 90.49 93.68 90.57 99.16
  Q 90.71 108.60 90.59 117.48
  Q 90.58 118.12 91.21 118.12
  L 103.19 118.13
  Q 103.75 118.13 103.75 117.56
  L 103.75 100.36
  Q 103.75 98.47 105.64 98.50"
/>
<path stroke="#808080" vector-effect="non-scaling-stroke" d="
  M 188.37 139.49
  A 0.36 0.36 0.0 0 1 188.73 139.13
  L 203.76 139.13
  A 0.36 0.36 0.0 0 0 204.12 138.77
  L 204.13 121.74
  A 0.36 0.36 0.0 0 0 203.77 121.38
  L 52.23 121.38
  A 0.36 0.36 0.0 0 0 51.87 121.74
  L 51.88 138.76
  A 0.36 0.36 0.0 0 0 52.24 139.12
  L 66.64 139.13
  A 0.36 0.36 0.0 0 1 67.00 139.49
  L 67.00 210.26
  A 0.36 0.36 0.0 0 0 67.36 210.62
  L 188.01 210.62
  A 0.36 0.36 0.0 0 0 188.37 210.26
  L 188.37 139.49"
/>
<path stroke="#808080" vector-effect="non-scaling-stroke" d="
  M 107.53 139.25
  A 0.34 0.34 0.0 0 0 107.21 139.72
  L 112.00 151.83
  A 0.34 0.34 0.0 0 0 112.58 151.93
  L 123.12 139.81
  A 0.34 0.34 0.0 0 0 122.86 139.25
  L 107.53 139.25"
/>
<path stroke="#808080" vector-effect="non-scaling-stroke" d="
  M 116.81 151.96
  A 0.33 0.33 0.0 0 0 117.06 152.50
  L 138.94 152.50
  A 0.33 0.33 0.0 0 0 139.19 151.96
  L 128.25 139.37
  A 0.33 0.33 0.0 0 0 127.75 139.37
  L 116.81 151.96"
/>
<path stroke="#808080" vector-effect="non-scaling-stroke" d="
  M 143.52 152.02
  A 0.33 0.33 0.0 0 0 144.08 151.92
  L 148.83 139.70
  A 0.33 0.33 0.0 0 0 148.53 139.25
  L 133.11 139.25
  A 0.33 0.33 0.0 0 0 132.86 139.80
  L 143.52 152.02"
/>
<path stroke="#808080" vector-effect="non-scaling-stroke" d="
  M 108.36 152.50
  A 0.33 0.33 0.0 0 0 108.66 152.05
  L 104.88 142.37
  A 0.33 0.33 0.0 0 0 104.32 142.27
  L 95.85 151.95
  A 0.33 0.33 0.0 0 0 96.10 152.50
  L 108.36 152.50"
/>
<path stroke="#808080" vector-effect="non-scaling-stroke" d="
  M 151.71 142.26
  A 0.31 0.31 0.0 0 0 151.18 142.35
  L 147.44 152.08
  A 0.31 0.31 0.0 0 0 147.73 152.50
  L 159.90 152.50
  A 0.31 0.31 0.0 0 0 160.14 151.99
  L 151.71 142.26"
/>
<path stroke="#808080" vector-effect="non-scaling-stroke" d="
  M 123.76 190.96
  L 110.31 156.48
  A 1.14 1.13 79.5 0 0 109.25 155.75
  L 96.21 155.75
  Q 95.33 155.75 95.88 156.44
  L 123.43 191.15
  Q 124.24 192.17 123.76 190.96"
/>
<path stroke="#808080" vector-effect="non-scaling-stroke" d="
  M 142.41 156.20
  A 0.33 0.33 0.0 0 0 142.11 155.75
  L 113.95 155.75
  A 0.33 0.33 0.0 0 0 113.65 156.20
  L 127.67 192.19
  A 0.33 0.33 0.0 0 0 128.29 192.19
  L 142.41 156.20"
/>
<path stroke="#808080" vector-effect="non-scaling-stroke" d="
  M 132.56 190.18
  Q 131.81 192.11 133.10 190.48
  L 160.25 156.26
  Q 160.66 155.75 160.00 155.75
  L 146.32 155.75
  A 0.43 0.42 9.7 0 0 145.92 156.03
  L 132.56 190.18"
/>
</g>
<path fill="#ffffff" d="
  M 121.87 0.00
  L 134.24 0.00
  Q 139.12 0.58 143.98 1.20
  Q 175.52 5.19 200.60 22.56
  C 231.66 44.08 250.92 77.03 255.26 114.20
  C 255.55 116.75 255.51 119.36 256.00 121.88
  L 256.00 133.24
  Q 253.60 177.81 226.17 210.17
  C 198.88 242.38 158.34 259.29 116.19 255.42
  C 89.79 252.99 64.49 242.41 44.37 224.83
  Q 3.91 189.46 0.00 133.88
  L 0.00 122.01
  Q 0.56 117.00 1.19 112.02
  Q 4.67 84.27 19.00 60.86
  Q 24.09 52.55 30.84 44.77
  Q 66.14 4.06 121.87 0.00
  Z
  M 142.52 60.16
  A 14.85 14.85 0.0 0 0 127.67 45.31
  A 14.85 14.85 0.0 0 0 112.82 60.16
  A 14.85 14.85 0.0 0 0 127.67 75.01
  A 14.85 14.85 0.0 0 0 142.52 60.16
  Z
  M 105.64 98.50
  L 105.95 98.51
  A 1.70 1.69 0.5 0 1 107.62 100.20
  L 107.62 117.50
  Q 107.62 118.12 108.25 118.12
  L 147.20 118.12
  Q 147.62 118.12 147.62 117.70
  L 147.63 100.66
  Q 147.63 98.73 149.55 98.49
  Q 149.78 98.46 150.00 98.50
  Q 151.62 98.79 151.62 100.44
  L 151.62 117.50
  Q 151.62 118.12 152.25 118.12
  L 164.24 118.13
  Q 164.79 118.13 164.79 117.57
  Q 164.66 108.55 164.81 99.17
  Q 164.88 94.43 163.57 90.62
  C 161.11 83.48 154.21 78.20 146.66 78.16
  Q 126.07 78.05 108.73 78.18
  C 101.03 78.23 94.47 83.39 91.79 90.32
  Q 90.49 93.68 90.57 99.16
  Q 90.71 108.60 90.59 117.48
  Q 90.58 118.12 91.21 118.12
  L 103.19 118.13
  Q 103.75 118.13 103.75 117.56
  L 103.75 100.36
  Q 103.75 98.47 105.64 98.50
  Z
  M 188.37 139.49
  A 0.36 0.36 0.0 0 1 188.73 139.13
  L 203.76 139.13
  A 0.36 0.36 0.0 0 0 204.12 138.77
  L 204.13 121.74
  A 0.36 0.36 0.0 0 0 203.77 121.38
  L 52.23 121.38
  A 0.36 0.36 0.0 0 0 51.87 121.74
  L 51.88 138.76
  A 0.36 0.36 0.0 0 0 52.24 139.12
  L 66.64 139.13
  A 0.36 0.36 0.0 0 1 67.00 139.49
  L 67.00 210.26
  A 0.36 0.36 0.0 0 0 67.36 210.62
  L 188.01 210.62
  A 0.36 0.36 0.0 0 0 188.37 210.26
  L 188.37 139.49
  Z"
/>
<circle fill="#000000" cx="127.67" cy="60.16" r="14.85"/>
<path fill="#000000" d="
  M 105.64 98.50
  Q 103.75 98.47 103.75 100.36
  L 103.75 117.56
  Q 103.75 118.13 103.19 118.13
  L 91.21 118.12
  Q 90.58 118.12 90.59 117.48
  Q 90.71 108.60 90.57 99.16
  Q 90.49 93.68 91.79 90.32
  C 94.47 83.39 101.03 78.23 108.73 78.18
  Q 126.07 78.05 146.66 78.16
  C 154.21 78.20 161.11 83.48 163.57 90.62
  Q 164.88 94.43 164.81 99.17
  Q 164.66 108.55 164.79 117.57
  Q 164.79 118.13 164.24 118.13
  L 152.25 118.12
  Q 151.62 118.12 151.62 117.50
  L 151.62 100.44
  Q 151.62 98.79 150.00 98.50
  Q 149.78 98.46 149.55 98.49
  Q 147.63 98.73 147.63 100.66
  L 147.62 117.70
  Q 147.62 118.12 147.20 118.12
  L 108.25 118.12
  Q 107.62 118.12 107.62 117.50
  L 107.62 100.20
  A 1.70 1.69 0.5 0 0 105.95 98.51
  L 105.64 98.50
  Z"
/>
<path fill="#000000" d="
  M 188.37 139.49
  L 188.37 210.26
  A 0.36 0.36 0.0 0 1 188.01 210.62
  L 67.36 210.62
  A 0.36 0.36 0.0 0 1 67.00 210.26
  L 67.00 139.49
  A 0.36 0.36 0.0 0 0 66.64 139.13
  L 52.24 139.12
  A 0.36 0.36 0.0 0 1 51.88 138.76
  L 51.87 121.74
  A 0.36 0.36 0.0 0 1 52.23 121.38
  L 203.77 121.38
  A 0.36 0.36 0.0 0 1 204.13 121.74
  L 204.12 138.77
  A 0.36 0.36 0.0 0 1 203.76 139.13
  L 188.73 139.13
  A 0.36 0.36 0.0 0 0 188.37 139.49
  Z
  M 107.53 139.25
  A 0.34 0.34 0.0 0 0 107.21 139.72
  L 112.00 151.83
  A 0.34 0.34 0.0 0 0 112.58 151.93
  L 123.12 139.81
  A 0.34 0.34 0.0 0 0 122.86 139.25
  L 107.53 139.25
  Z
  M 116.81 151.96
  A 0.33 0.33 0.0 0 0 117.06 152.50
  L 138.94 152.50
  A 0.33 0.33 0.0 0 0 139.19 151.96
  L 128.25 139.37
  A 0.33 0.33 0.0 0 0 127.75 139.37
  L 116.81 151.96
  Z
  M 143.52 152.02
  A 0.33 0.33 0.0 0 0 144.08 151.92
  L 148.83 139.70
  A 0.33 0.33 0.0 0 0 148.53 139.25
  L 133.11 139.25
  A 0.33 0.33 0.0 0 0 132.86 139.80
  L 143.52 152.02
  Z
  M 108.36 152.50
  A 0.33 0.33 0.0 0 0 108.66 152.05
  L 104.88 142.37
  A 0.33 0.33 0.0 0 0 104.32 142.27
  L 95.85 151.95
  A 0.33 0.33 0.0 0 0 96.10 152.50
  L 108.36 152.50
  Z
  M 151.71 142.26
  A 0.31 0.31 0.0 0 0 151.18 142.35
  L 147.44 152.08
  A 0.31 0.31 0.0 0 0 147.73 152.50
  L 159.90 152.50
  A 0.31 0.31 0.0 0 0 160.14 151.99
  L 151.71 142.26
  Z
  M 123.76 190.96
  L 110.31 156.48
  A 1.14 1.13 79.5 0 0 109.25 155.75
  L 96.21 155.75
  Q 95.33 155.75 95.88 156.44
  L 123.43 191.15
  Q 124.24 192.17 123.76 190.96
  Z
  M 142.41 156.20
  A 0.33 0.33 0.0 0 0 142.11 155.75
  L 113.95 155.75
  A 0.33 0.33 0.0 0 0 113.65 156.20
  L 127.67 192.19
  A 0.33 0.33 0.0 0 0 128.29 192.19
  L 142.41 156.20
  Z
  M 132.56 190.18
  Q 131.81 192.11 133.10 190.48
  L 160.25 156.26
  Q 160.66 155.75 160.00 155.75
  L 146.32 155.75
  A 0.43 0.42 9.7 0 0 145.92 156.03
  L 132.56 190.18
  Z"
/>
<path fill="#ffffff" d="
  M 107.53 139.25
  L 122.86 139.25
  A 0.34 0.34 0.0 0 1 123.12 139.81
  L 112.58 151.93
  A 0.34 0.34 0.0 0 1 112.00 151.83
  L 107.21 139.72
  A 0.34 0.34 0.0 0 1 107.53 139.25
  Z"
/>
<path fill="#ffffff" d="
  M 116.81 151.96
  L 127.75 139.37
  A 0.33 0.33 0.0 0 1 128.25 139.37
  L 139.19 151.96
  A 0.33 0.33 0.0 0 1 138.94 152.50
  L 117.06 152.50
  A 0.33 0.33 0.0 0 1 116.81 151.96
  Z"
/>
<path fill="#ffffff" d="
  M 143.52 152.02
  L 132.86 139.80
  A 0.33 0.33 0.0 0 1 133.11 139.25
  L 148.53 139.25
  A 0.33 0.33 0.0 0 1 148.83 139.70
  L 144.08 151.92
  A 0.33 0.33 0.0 0 1 143.52 152.02
  Z"
/>
<path fill="#ffffff" d="
  M 108.36 152.50
  L 96.10 152.50
  A 0.33 0.33 0.0 0 1 95.85 151.95
  L 104.32 142.27
  A 0.33 0.33 0.0 0 1 104.88 142.37
  L 108.66 152.05
  A 0.33 0.33 0.0 0 1 108.36 152.50
  Z"
/>
<path fill="#ffffff" d="
  M 151.71 142.26
  L 160.14 151.99
  A 0.31 0.31 0.0 0 1 159.90 152.50
  L 147.73 152.50
  A 0.31 0.31 0.0 0 1 147.44 152.08
  L 151.18 142.35
  A 0.31 0.31 0.0 0 1 151.71 142.26
  Z"
/>
<path fill="#ffffff" d="
  M 110.31 156.48
  L 123.76 190.96
  Q 124.24 192.17 123.43 191.15
  L 95.88 156.44
  Q 95.33 155.75 96.21 155.75
  L 109.25 155.75
  A 1.14 1.13 79.5 0 1 110.31 156.48
  Z"
/>
<path fill="#ffffff" d="
  M 142.41 156.20
  L 128.29 192.19
  A 0.33 0.33 0.0 0 1 127.67 192.19
  L 113.65 156.20
  A 0.33 0.33 0.0 0 1 113.95 155.75
  L 142.11 155.75
  A 0.33 0.33 0.0 0 1 142.41 156.20
  Z"
/>
<path fill="#ffffff" d="
  M 132.56 190.18
  L 145.92 156.03
  A 0.43 0.42 9.7 0 1 146.32 155.75
  L 160.00 155.75
  Q 160.66 155.75 160.25 156.26
  L 133.10 190.48
  Q 131.81 192.11 132.56 190.18
  Z"
/>
</svg>
