<?xml version="1.0" encoding="UTF-8" standalone="no"?>
<!DOCTYPE svg PUBLIC "-//W3C//DTD SVG 1.1//EN" "http://www.w3.org/Graphics/SVG/1.1/DTD/svg11.dtd">
<svg xmlns="http://www.w3.org/2000/svg" version="1.1" viewBox="0.00 0.00 256.00 360.00">
<g stroke-width="2.00" fill="none" stroke-linecap="butt">
<path stroke="#808080" vector-effect="non-scaling-stroke" d="
  M 159.32 105.62
  L 172.21 105.63
  Q 172.90 105.63 172.80 106.31
  C 171.78 113.03 179.42 112.91 178.33 106.32
  Q 178.21 105.57 178.97 105.58
  C 181.08 105.62 186.81 106.60 186.78 103.04
  Q 186.72 96.78 186.76 91.57
  A 2.81 2.81 0.0 0 0 183.95 88.75
  L 139.53 88.75
  Q 139.13 88.75 139.13 88.34
  L 139.13 75.36
  Q 139.13 74.75 139.74 74.75
  L 152.71 74.75
  A 0.51 0.51 0.0 0 1 153.21 75.36
  C 152.75 77.59 153.21 80.44 156.11 80.40
  C 159.11 80.37 158.79 77.31 158.72 75.32
  Q 158.70 74.75 159.27 74.75
  L 167.50 74.75
  A 2.50 2.50 0.0 0 0 170.00 72.25
  L 170.00 61.00
  Q 170.00 58.00 167.00 58.00
  L 139.73 58.00
  Q 139.14 58.00 139.12 57.41
  Q 139.08 56.22 139.15 55.02
  C 139.47 49.97 137.27 46.01 132.33 44.36
  C 130.24 43.66 125.19 43.76 123.15 44.54
  C 117.21 46.80 116.46 51.57 116.78 57.38
  Q 116.81 58.00 116.20 58.00
  L 88.75 58.00
  A 2.75 2.75 0.0 0 0 86.00 60.75
  L 86.01 72.38
  A 2.37 2.37 0.0 0 0 88.38 74.75
  L 96.56 74.75
  Q 97.32 74.75 97.18 75.50
  C 96.79 77.64 97.23 80.31 99.90 80.40
  C 103.09 80.51 102.79 77.40 102.72 75.31
  Q 102.70 74.75 103.26 74.75
  L 116.25 74.75
  A 0.50 0.50 0.0 0 1 116.75 75.25
  L 116.75 88.25
  A 0.50 0.50 0.0 0 1 116.25 88.75
  L 72.28 88.75
  Q 69.27 88.75 69.18 91.77
  Q 69.03 97.29 69.15 102.44
  C 69.25 106.78 74.23 105.62 77.05 105.61
  Q 77.62 105.61 77.62 106.17
  L 77.61 108.38
  Q 77.60 110.71 79.89 111.15
  Q 80.45 111.26 81.02 111.14
  Q 83.15 110.73 83.14 108.57
  L 83.13 106.25
  Q 83.13 105.63 83.75 105.63
  L 96.31 105.63
  Q 97.34 105.63 97.20 106.65
  Q 96.63 111.03 99.88 111.20
  Q 101.30 111.28 102.34 110.08
  A 1.69 1.68 65.4 0 0 102.74 108.99
  L 102.75 106.18
  Q 102.76 105.62 103.32 105.62
  L 116.07 105.63
  Q 116.75 105.63 116.75 106.32
  L 116.75 186.25
  Q 116.75 186.75 117.25 186.75
  L 124.87 186.75
  Q 127.44 186.75 127.98 189.26
  Q 128.10 189.79 127.93 190.30
  Q 127.28 192.40 125.08 192.40
  L 117.07 192.36
  Q 116.75 192.36 116.75 192.68
  L 116.75 195.00
  Q 116.75 195.25 117.00 195.25
  L 124.98 195.25
  Q 127.66 195.25 128.01 197.90
  Q 128.06 198.33 127.91 198.74
  Q 127.18 200.75 125.04 200.75
  L 117.25 200.75
  Q 116.75 200.75 116.75 201.25
  L 116.75 205.82
  Q 116.74 206.38 116.18 206.38
  L 111.51 206.37
  Q 109.34 206.37 108.48 208.36
  Q 108.25 208.90 108.35 209.46
  Q 108.80 212.00 111.38 212.00
  L 145.11 212.00
  A 2.42 2.42 0.0 0 0 147.53 209.64
  L 147.54 209.29
  Q 147.61 206.36 144.67 206.36
  L 139.50 206.37
  Q 139.12 206.37 139.12 206.00
  L 139.12 106.06
  Q 139.12 105.63 139.55 105.63
  L 152.78 105.63
  Q 153.26 105.63 153.19 106.10
  Q 152.85 108.34 153.76 110.26
  Q 153.99 110.73 154.47 110.92
  Q 156.60 111.77 158.31 110.16
  Q 158.73 109.76 158.74 109.18
  L 158.76 106.18
  Q 158.76 105.62 159.32 105.62"
/>
<path stroke="#808080" vector-effect="non-scaling-stroke" d="
  M 164.38 63.90
  A 0.27 0.27 0.0 0 0 164.11 63.63
  L 91.89 63.63
  A 0.27 0.27 0.0 0 0 91.62 63.90
  L 91.62 68.98
  A 0.27 0.27 0.0 0 0 91.89 69.25
  L 164.11 69.25
  A 0.27 0.27 0.0 0 0 164.38 68.98
  L 164.38 63.90"
/>
<path stroke="#808080" vector-effect="non-scaling-stroke" d="
  M 181.13 94.65
  A 0.27 0.27 0.0 0 0 180.86 94.38
  L 75.02 94.38
  A 0.27 0.27 0.0 0 0 74.75 94.65
  L 74.75 99.73
  A 0.27 0.27 0.0 0 0 75.02 100.00
  L 180.86 100.00
  A 0.27 0.27 0.0 0 0 181.13 99.73
  L 181.13 94.65"
/>
</g>
<path fill="#ffffff" d="
  M 121.87 0.00
  L 134.24 0.00
  Q 139.11 0.59 143.98 1.21
  Q 176.36 5.33 202.38 23.83
  Q 210.39 29.53 217.65 36.72
  Q 252.51 71.24 256.00 121.88
  L 256.00 133.23
  Q 253.60 177.81 226.18 210.17
  C 198.85 242.41 158.24 259.33 116.08 255.41
  C 89.68 252.95 64.44 242.37 44.37 224.83
  Q 3.91 189.46 0.00 133.88
  L 0.00 122.01
  Q 0.56 117.00 1.19 112.02
  Q 4.67 84.27 19.00 60.86
  Q 24.09 52.55 30.84 44.77
  Q 66.14 4.06 121.87 0.00
  Z
  M 159.32 105.62
  L 172.21 105.63
  Q 172.90 105.63 172.80 106.31
  C 171.78 113.03 179.42 112.91 178.33 106.32
  Q 178.21 105.57 178.97 105.58
  C 181.08 105.62 186.81 106.60 186.78 103.04
  Q 186.72 96.78 186.76 91.57
  A 2.81 2.81 0.0 0 0 183.95 88.75
  L 139.53 88.75
  Q 139.13 88.75 139.13 88.34
  L 139.13 75.36
  Q 139.13 74.75 139.74 74.75
  L 152.71 74.75
  A 0.51 0.51 0.0 0 1 153.21 75.36
  C 152.75 77.59 153.21 80.44 156.11 80.40
  C 159.11 80.37 158.79 77.31 158.72 75.32
  Q 158.70 74.75 159.27 74.75
  L 167.50 74.75
  A 2.50 2.50 0.0 0 0 170.00 72.25
  L 170.00 61.00
  Q 170.00 58.00 167.00 58.00
  L 139.73 58.00
  Q 139.14 58.00 139.12 57.41
  Q 139.08 56.22 139.15 55.02
  C 139.47 49.97 137.27 46.01 132.33 44.36
  C 130.24 43.66 125.19 43.76 123.15 44.54
  C 117.21 46.80 116.46 51.57 116.78 57.38
  Q 116.81 58.00 116.20 58.00
  L 88.75 58.00
  A 2.75 2.75 0.0 0 0 86.00 60.75
  L 86.01 72.38
  A 2.37 2.37 0.0 0 0 88.38 74.75
  L 96.56 74.75
  Q 97.32 74.75 97.18 75.50
  C 96.79 77.64 97.23 80.31 99.90 80.40
  C 103.09 80.51 102.79 77.40 102.72 75.31
  Q 102.70 74.75 103.26 74.75
  L 116.25 74.75
  A 0.50 0.50 0.0 0 1 116.75 75.25
  L 116.75 88.25
  A 0.50 0.50 0.0 0 1 116.25 88.75
  L 72.28 88.75
  Q 69.27 88.75 69.18 91.77
  Q 69.03 97.29 69.15 102.44
  C 69.25 106.78 74.23 105.62 77.05 105.61
  Q 77.62 105.61 77.62 106.17
  L 77.61 108.38
  Q 77.60 110.71 79.89 111.15
  Q 80.45 111.26 81.02 111.14
  Q 83.15 110.73 83.14 108.57
  L 83.13 106.25
  Q 83.13 105.63 83.75 105.63
  L 96.31 105.63
  Q 97.34 105.63 97.20 106.65
  Q 96.63 111.03 99.88 111.20
  Q 101.30 111.28 102.34 110.08
  A 1.69 1.68 65.4 0 0 102.74 108.99
  L 102.75 106.18
  Q 102.76 105.62 103.32 105.62
  L 116.07 105.63
  Q 116.75 105.63 116.75 106.32
  L 116.75 186.25
  Q 116.75 186.75 117.25 186.75
  L 124.87 186.75
  Q 127.44 186.75 127.98 189.26
  Q 128.10 189.79 127.93 190.30
  Q 127.28 192.40 125.08 192.40
  L 117.07 192.36
  Q 116.75 192.36 116.75 192.68
  L 116.75 195.00
  Q 116.75 195.25 117.00 195.25
  L 124.98 195.25
  Q 127.66 195.25 128.01 197.90
  Q 128.06 198.33 127.91 198.74
  Q 127.18 200.75 125.04 200.75
  L 117.25 200.75
  Q 116.75 200.75 116.75 201.25
  L 116.75 205.82
  Q 116.74 206.38 116.18 206.38
  L 111.51 206.37
  Q 109.34 206.37 108.48 208.36
  Q 108.25 208.90 108.35 209.46
  Q 108.80 212.00 111.38 212.00
  L 145.11 212.00
  A 2.42 2.42 0.0 0 0 147.53 209.64
  L 147.54 209.29
  Q 147.61 206.36 144.67 206.36
  L 139.50 206.37
  Q 139.12 206.37 139.12 206.00
  L 139.12 106.06
  Q 139.12 105.63 139.55 105.63
  L 152.78 105.63
  Q 153.26 105.63 153.19 106.10
  Q 152.85 108.34 153.76 110.26
  Q 153.99 110.73 154.47 110.92
  Q 156.60 111.77 158.31 110.16
  Q 158.73 109.76 158.74 109.18
  L 158.76 106.18
  Q 158.76 105.62 159.32 105.62
  Z"
/>
<path fill="#000000" d="
  M 158.76 106.18
  L 158.74 109.18
  Q 158.73 109.76 158.31 110.16
  Q 156.60 111.77 154.47 110.92
  Q 153.99 110.73 153.76 110.26
  Q 152.85 108.34 153.19 106.10
  Q 153.26 105.63 152.78 105.63
  L 139.55 105.63
  Q 139.12 105.63 139.12 106.06
  L 139.12 206.00
  Q 139.12 206.37 139.50 206.37
  L 144.67 206.36
  Q 147.61 206.36 147.54 209.29
  L 147.53 209.64
  A 2.42 2.42 0.0 0 1 145.11 212.00
  L 111.38 212.00
  Q 108.80 212.00 108.35 209.46
  Q 108.25 208.90 108.48 208.36
  Q 109.34 206.37 111.51 206.37
  L 116.18 206.38
  Q 116.74 206.38 116.75 205.82
  L 116.75 201.25
  Q 116.75 200.75 117.25 200.75
  L 125.04 200.75
  Q 127.18 200.75 127.91 198.74
  Q 128.06 198.33 128.01 197.90
  Q 127.66 195.25 124.98 195.25
  L 117.00 195.25
  Q 116.75 195.25 116.75 195.00
  L 116.75 192.68
  Q 116.75 192.36 117.07 192.36
  L 125.08 192.40
  Q 127.28 192.40 127.93 190.30
  Q 128.10 189.79 127.98 189.26
  Q 127.44 186.75 124.87 186.75
  L 117.25 186.75
  Q 116.75 186.75 116.75 186.25
  L 116.75 106.32
  Q 116.75 105.63 116.07 105.63
  L 103.32 105.62
  Q 102.76 105.62 102.75 106.18
  L 102.74 108.99
  A 1.69 1.68 65.4 0 1 102.34 110.08
  Q 101.30 111.28 99.88 111.20
  Q 96.63 111.03 97.20 106.65
  Q 97.34 105.63 96.31 105.63
  L 83.75 105.63
  Q 83.13 105.63 83.13 106.25
  L 83.14 108.57
  Q 83.15 110.73 81.02 111.14
  Q 80.45 111.26 79.89 111.15
  Q 77.60 110.71 77.61 108.38
  L 77.62 106.17
  Q 77.62 105.61 77.05 105.61
  C 74.23 105.62 69.25 106.78 69.15 102.44
  Q 69.03 97.29 69.18 91.77
  Q 69.27 88.75 72.28 88.75
  L 116.25 88.75
  A 0.50 0.50 0.0 0 0 116.75 88.25
  L 116.75 75.25
  A 0.50 0.50 0.0 0 0 116.25 74.75
  L 103.26 74.75
  Q 102.70 74.75 102.72 75.31
  C 102.79 77.40 103.09 80.51 99.90 80.40
  C 97.23 80.31 96.79 77.64 97.18 75.50
  Q 97.32 74.75 96.56 74.75
  L 88.38 74.75
  A 2.37 2.37 0.0 0 1 86.01 72.38
  L 86.00 60.75
  A 2.75 2.75 0.0 0 1 88.75 58.00
  L 116.20 58.00
  Q 116.81 58.00 116.78 57.38
  C 116.46 51.57 117.21 46.80 123.15 44.54
  C 125.19 43.76 130.24 43.66 132.33 44.36
  C 137.27 46.01 139.47 49.97 139.15 55.02
  Q 139.08 56.22 139.12 57.41
  Q 139.14 58.00 139.73 58.00
  L 167.00 58.00
  Q 170.00 58.00 170.00 61.00
  L 170.00 72.25
  A 2.50 2.50 0.0 0 1 167.50 74.75
  L 159.27 74.75
  Q 158.70 74.75 158.72 75.32
  C 158.79 77.31 159.11 80.37 156.11 80.40
  C 153.21 80.44 152.75 77.59 153.21 75.36
  A 0.51 0.51 0.0 0 0 152.71 74.75
  L 139.74 74.75
  Q 139.13 74.75 139.13 75.36
  L 139.13 88.34
  Q 139.13 88.75 139.53 88.75
  L 183.95 88.75
  A 2.81 2.81 0.0 0 1 186.76 91.57
  Q 186.72 96.78 186.78 103.04
  C 186.81 106.60 181.08 105.62 178.97 105.58
  Q 178.21 105.57 178.33 106.32
  C 179.42 112.91 171.78 113.03 172.80 106.31
  Q 172.90 105.63 172.21 105.63
  L 159.32 105.62
  Q 158.76 105.62 158.76 106.18
  Z
  M 164.38 63.90
  A 0.27 0.27 0.0 0 0 164.11 63.63
  L 91.89 63.63
  A 0.27 0.27 0.0 0 0 91.62 63.90
  L 91.62 68.98
  A 0.27 0.27 0.0 0 0 91.89 69.25
  L 164.11 69.25
  A 0.27 0.27 0.0 0 0 164.38 68.98
  L 164.38 63.90
  Z
  M 181.13 94.65
  A 0.27 0.27 0.0 0 0 180.86 94.38
  L 75.02 94.38
  A 0.27 0.27 0.0 0 0 74.75 94.65
  L 74.75 99.73
  A 0.27 0.27 0.0 0 0 75.02 100.00
  L 180.86 100.00
  A 0.27 0.27 0.0 0 0 181.13 99.73
  L 181.13 94.65
  Z"
/>
<rect fill="#ffffff" x="91.62" y="63.63" width="72.76" height="5.62" rx="0.27"/>
<rect fill="#ffffff" x="74.75" y="94.38" width="106.38" height="5.62" rx="0.27"/>
</svg>
