<?xml version="1.0" encoding="UTF-8" standalone="no"?>
<!DOCTYPE svg PUBLIC "-//W3C//DTD SVG 1.1//EN" "http://www.w3.org/Graphics/SVG/1.1/DTD/svg11.dtd">
<svg xmlns="http://www.w3.org/2000/svg" version="1.1" viewBox="0.00 0.00 256.00 360.00">
<g stroke-width="2.00" fill="none" stroke-linecap="butt">
<path stroke="#808080" vector-effect="non-scaling-stroke" d="
  M 165.23 135.37
  L 171.43 135.38
  Q 172.00 135.39 172.00 134.82
  L 172.00 124.94
  Q 172.00 124.37 172.56 124.37
  L 200.89 124.36
  A 0.49 0.49 0.0 0 0 201.38 123.87
  L 201.35 110.24
  Q 201.35 109.62 200.73 109.62
  L 172.69 109.63
  Q 172.00 109.63 172.00 108.94
  L 172.00 99.18
  Q 172.00 98.62 171.43 98.62
  L 165.04 98.63
  Q 164.56 98.63 164.58 98.15
  Q 164.68 95.01 164.66 91.86
  C 164.63 85.33 161.26 79.74 155.02 77.59
  Q 151.90 76.52 147.21 76.54
  Q 108.89 76.72 69.99 76.58
  C 61.14 76.55 54.57 83.12 54.61 92.10
  Q 54.70 117.58 54.56 140.70
  C 54.50 150.54 60.23 157.44 70.56 157.41
  Q 106.29 157.30 148.05 157.42
  Q 152.81 157.44 155.77 156.14
  C 161.51 153.62 164.88 148.14 164.66 141.85
  Q 164.56 139.04 164.61 135.99
  Q 164.62 135.37 165.23 135.37"
/>
<path stroke="#808080" vector-effect="non-scaling-stroke" d="
  M 157.36 165.06
  A 0.44 0.44 0.0 0 0 156.92 164.62
  L 62.44 164.62
  A 0.44 0.44 0.0 0 0 62.00 165.06
  L 62.00 178.94
  A 0.44 0.44 0.0 0 0 62.44 179.38
  L 156.92 179.38
  A 0.44 0.44 0.0 0 0 157.36 178.94
  L 157.36 165.06"
/>
<path stroke="#808080" vector-effect="non-scaling-stroke" d="
  M 142.62 91.70
  A 0.33 0.33 0.0 0 0 142.29 91.37
  L 76.95 91.37
  A 0.33 0.33 0.0 0 0 76.62 91.70
  L 76.62 98.30
  A 0.33 0.33 0.0 0 0 76.95 98.63
  L 142.29 98.63
  A 0.33 0.33 0.0 0 0 142.62 98.30
  L 142.62 91.70"
/>
<path stroke="#808080" vector-effect="non-scaling-stroke" d="
  M 142.63 106.34
  A 0.34 0.34 0.0 0 0 142.29 106.00
  L 76.97 106.00
  A 0.34 0.34 0.0 0 0 76.63 106.34
  L 76.63 113.04
  A 0.34 0.34 0.0 0 0 76.97 113.38
  L 142.29 113.38
  A 0.34 0.34 0.0 0 0 142.63 113.04
  L 142.63 106.34"
/>
<path stroke="#808080" vector-effect="non-scaling-stroke" d="
  M 142.62 120.90
  A 0.28 0.28 0.0 0 0 142.34 120.62
  L 76.90 120.62
  A 0.28 0.28 0.0 0 0 76.62 120.90
  L 76.62 127.72
  A 0.28 0.28 0.0 0 0 76.90 128.00
  L 142.34 128.00
  A 0.28 0.28 0.0 0 0 142.62 127.72
  L 142.62 120.90"
/>
<path stroke="#808080" vector-effect="non-scaling-stroke" d="
  M 142.62 135.71
  A 0.34 0.34 0.0 0 0 142.28 135.37
  L 76.96 135.37
  A 0.34 0.34 0.0 0 0 76.62 135.71
  L 76.62 142.29
  A 0.34 0.34 0.0 0 0 76.96 142.63
  L 142.28 142.63
  A 0.34 0.34 0.0 0 0 142.62 142.29
  L 142.62 135.71"
/>
</g>
<path fill="#ffffff" d="
  M 121.88 0.00
  L 134.24 0.00
  Q 139.12 0.58 143.98 1.20
  Q 175.52 5.19 200.58 22.54
  Q 209.00 28.38 215.99 35.09
  Q 249.80 67.52 255.28 114.48
  C 255.56 116.90 255.53 119.45 256.00 121.88
  L 256.00 133.23
  Q 253.60 177.79 226.18 210.17
  C 197.36 244.19 154.10 260.86 109.82 254.66
  C 53.08 246.72 7.24 200.42 0.94 143.13
  Q 0.43 138.50 0.00 133.87
  L 0.00 122.03
  Q 1.46 97.27 10.77 76.50
  Q 25.51 43.61 54.03 23.54
  Q 81.05 4.53 114.02 0.94
  Q 117.96 0.51 121.88 0.00
  Z
  M 165.23 135.37
  L 171.43 135.38
  Q 172.00 135.39 172.00 134.82
  L 172.00 124.94
  Q 172.00 124.37 172.56 124.37
  L 200.89 124.36
  A 0.49 0.49 0.0 0 0 201.38 123.87
  L 201.35 110.24
  Q 201.35 109.62 200.73 109.62
  L 172.69 109.63
  Q 172.00 109.63 172.00 108.94
  L 172.00 99.18
  Q 172.00 98.62 171.43 98.62
  L 165.04 98.63
  Q 164.56 98.63 164.58 98.15
  Q 164.68 95.01 164.66 91.86
  C 164.63 85.33 161.26 79.74 155.02 77.59
  Q 151.90 76.52 147.21 76.54
  Q 108.89 76.72 69.99 76.58
  C 61.14 76.55 54.57 83.12 54.61 92.10
  Q 54.70 117.58 54.56 140.70
  C 54.50 150.54 60.23 157.44 70.56 157.41
  Q 106.29 157.30 148.05 157.42
  Q 152.81 157.44 155.77 156.14
  C 161.51 153.62 164.88 148.14 164.66 141.85
  Q 164.56 139.04 164.61 135.99
  Q 164.62 135.37 165.23 135.37
  Z
  M 157.36 165.06
  A 0.44 0.44 0.0 0 0 156.92 164.62
  L 62.44 164.62
  A 0.44 0.44 0.0 0 0 62.00 165.06
  L 62.00 178.94
  A 0.44 0.44 0.0 0 0 62.44 179.38
  L 156.92 179.38
  A 0.44 0.44 0.0 0 0 157.36 178.94
  L 157.36 165.06
  Z"
/>
<path fill="#000000" d="
  M 164.61 135.99
  Q 164.56 139.04 164.66 141.85
  C 164.88 148.14 161.51 153.62 155.77 156.14
  Q 152.81 157.44 148.05 157.42
  Q 106.29 157.30 70.56 157.41
  C 60.23 157.44 54.50 150.54 54.56 140.70
  Q 54.70 117.58 54.61 92.10
  C 54.57 83.12 61.14 76.55 69.99 76.58
  Q 108.89 76.72 147.21 76.54
  Q 151.90 76.52 155.02 77.59
  C 161.26 79.74 164.63 85.33 164.66 91.86
  Q 164.68 95.01 164.58 98.15
  Q 164.56 98.63 165.04 98.63
  L 171.43 98.62
  Q 172.00 98.62 172.00 99.18
  L 172.00 108.94
  Q 172.00 109.63 172.69 109.63
  L 200.73 109.62
  Q 201.35 109.62 201.35 110.24
  L 201.38 123.87
  A 0.49 0.49 0.0 0 1 200.89 124.36
  L 172.56 124.37
  Q 172.00 124.37 172.00 124.94
  L 172.00 134.82
  Q 172.00 135.39 171.43 135.38
  L 165.23 135.37
  Q 164.62 135.37 164.61 135.99
  Z
  M 142.62 91.70
  A 0.33 0.33 0.0 0 0 142.29 91.37
  L 76.95 91.37
  A 0.33 0.33 0.0 0 0 76.62 91.70
  L 76.62 98.30
  A 0.33 0.33 0.0 0 0 76.95 98.63
  L 142.29 98.63
  A 0.33 0.33 0.0 0 0 142.62 98.30
  L 142.62 91.70
  Z
  M 142.63 106.34
  A 0.34 0.34 0.0 0 0 142.29 106.00
  L 76.97 106.00
  A 0.34 0.34 0.0 0 0 76.63 106.34
  L 76.63 113.04
  A 0.34 0.34 0.0 0 0 76.97 113.38
  L 142.29 113.38
  A 0.34 0.34 0.0 0 0 142.63 113.04
  L 142.63 106.34
  Z
  M 142.62 120.90
  A 0.28 0.28 0.0 0 0 142.34 120.62
  L 76.90 120.62
  A 0.28 0.28 0.0 0 0 76.62 120.90
  L 76.62 127.72
  A 0.28 0.28 0.0 0 0 76.90 128.00
  L 142.34 128.00
  A 0.28 0.28 0.0 0 0 142.62 127.72
  L 142.62 120.90
  Z
  M 142.62 135.71
  A 0.34 0.34 0.0 0 0 142.28 135.37
  L 76.96 135.37
  A 0.34 0.34 0.0 0 0 76.62 135.71
  L 76.62 142.29
  A 0.34 0.34 0.0 0 0 76.96 142.63
  L 142.28 142.63
  A 0.34 0.34 0.0 0 0 142.62 142.29
  L 142.62 135.71
  Z"
/>
<rect fill="#ffffff" x="76.62" y="91.37" width="66.00" height="7.26" rx="0.33"/>
<rect fill="#ffffff" x="76.63" y="106.00" width="66.00" height="7.38" rx="0.34"/>
<rect fill="#ffffff" x="76.62" y="120.62" width="66.00" height="7.38" rx="0.28"/>
<rect fill="#ffffff" x="76.62" y="135.37" width="66.00" height="7.26" rx="0.34"/>
<rect fill="#000000" x="62.00" y="164.62" width="95.36" height="14.76" rx="0.44"/>
</svg>
