<?xml version="1.0" encoding="UTF-8" standalone="no"?>
<!DOCTYPE svg PUBLIC "-//W3C//DTD SVG 1.1//EN" "http://www.w3.org/Graphics/SVG/1.1/DTD/svg11.dtd">
<svg xmlns="http://www.w3.org/2000/svg" version="1.1" viewBox="0.00 0.00 256.00 360.00">
<g stroke-width="2.00" fill="none" stroke-linecap="butt">
<path stroke="#808080" vector-effect="non-scaling-stroke" d="
  M 179.50 95.30
  L 179.50 111.50
  A 0.25 0.25 0.0 0 0 179.75 111.75
  L 184.44 111.75
  Q 184.88 111.75 184.88 111.31
  L 184.87 95.29
  Q 184.87 94.70 185.44 94.58
  Q 188.34 93.97 190.66 92.42
  Q 191.12 92.11 191.51 92.50
  L 202.85 103.85
  Q 203.19 104.19 203.54 103.85
  L 206.69 100.69
  Q 207.00 100.38 206.69 100.07
  L 195.33 88.72
  Q 194.91 88.30 195.26 87.82
  Q 196.90 85.61 197.40 82.69
  Q 197.52 82.00 198.22 82.00
  L 214.20 82.00
  Q 214.64 82.00 214.64 81.55
  L 214.62 76.93
  Q 214.62 76.50 214.19 76.50
  L 198.05 76.50
  Q 197.55 76.50 197.45 76.01
  Q 196.89 73.10 195.23 70.71
  Q 194.89 70.23 195.31 69.81
  L 206.68 58.45
  Q 207.00 58.13 206.68 57.82
  L 203.53 54.66
  Q 203.19 54.31 202.85 54.65
  L 191.39 66.10
  Q 191.04 66.45 190.65 66.15
  Q 188.45 64.48 185.48 63.97
  Q 184.86 63.86 184.86 63.23
  L 184.88 47.06
  Q 184.88 46.74 184.56 46.74
  L 179.75 46.75
  Q 179.50 46.76 179.50 47.00
  L 179.50 63.25
  Q 179.50 63.83 178.92 63.92
  Q 176.17 64.36 173.66 66.07
  A 0.84 0.83 49.9 0 1 172.59 65.97
  L 161.34 54.72
  Q 161.07 54.44 160.79 54.72
  L 157.49 58.00
  Q 157.24 58.25 157.49 58.50
  L 168.88 69.87
  A 0.69 0.69 0.0 0 1 168.97 70.73
  Q 167.46 73.08 166.78 75.92
  Q 166.64 76.50 166.04 76.50
  L 149.95 76.50
  Q 149.63 76.50 149.63 76.82
  L 149.61 81.65
  A 0.35 0.35 0.0 0 0 149.96 82.00
  L 166.03 82.00
  Q 166.62 82.00 166.75 82.57
  Q 167.37 85.23 168.90 87.73
  Q 169.21 88.24 168.79 88.67
  Q 157.79 99.91 157.61 99.93
  Q 157.22 99.97 157.58 100.60
  Q 157.58 100.60 160.71 103.70
  Q 161.07 104.06 161.42 103.70
  L 172.58 92.54
  Q 173.05 92.06 173.62 92.42
  Q 176.21 94.02 179.00 94.67
  Q 179.50 94.79 179.50 95.30"
/>
<path stroke="#808080" vector-effect="non-scaling-stroke" d="
  M 47.88 126.33
  A 0.39 0.39 0.0 0 0 48.26 126.62
  L 64.10 126.63
  A 0.39 0.39 0.0 0 0 64.48 126.14
  L 58.09 101.17
  A 0.39 0.39 0.0 0 0 57.71 100.88
  L 41.84 100.87
  A 0.39 0.39 0.0 0 0 41.47 101.36
  L 47.88 126.33"
/>
<path stroke="#808080" vector-effect="non-scaling-stroke" d="
  M 68.73 126.37
  A 0.33 0.33 0.0 0 0 69.05 126.62
  L 84.96 126.63
  A 0.33 0.33 0.0 0 0 85.28 126.22
  L 78.87 101.13
  A 0.33 0.33 0.0 0 0 78.55 100.88
  L 62.63 100.87
  A 0.33 0.33 0.0 0 0 62.31 101.28
  L 68.73 126.37"
/>
<path stroke="#808080" vector-effect="non-scaling-stroke" d="
  M 99.64 101.16
  A 0.37 0.37 0.0 0 0 99.28 100.88
  L 83.48 100.88
  A 0.37 0.37 0.0 0 0 83.12 101.34
  L 89.51 126.34
  A 0.37 0.37 0.0 0 0 89.87 126.62
  L 105.72 126.62
  A 0.37 0.37 0.0 0 0 106.08 126.16
  L 99.64 101.16"
/>
<path stroke="#808080" vector-effect="non-scaling-stroke" d="
  M 65.73 131.02
  A 0.36 0.36 0.0 0 0 65.38 130.75
  L 49.49 130.75
  A 0.36 0.36 0.0 0 0 49.15 131.20
  L 55.54 156.10
  A 0.36 0.36 0.0 0 0 55.89 156.37
  L 71.75 156.38
  A 0.36 0.36 0.0 0 0 72.10 155.93
  L 65.73 131.02"
/>
<path stroke="#808080" vector-effect="non-scaling-stroke" d="
  M 76.32 156.06
  A 0.41 0.41 0.0 0 0 76.72 156.37
  L 92.47 156.38
  A 0.41 0.41 0.0 0 0 92.87 155.87
  L 86.53 131.06
  A 0.41 0.41 0.0 0 0 86.13 130.75
  L 70.39 130.75
  A 0.41 0.41 0.0 0 0 69.99 131.26
  L 76.32 156.06"
/>
<path stroke="#808080" vector-effect="non-scaling-stroke" d="
  M 97.14 156.14
  A 0.30 0.30 0.0 0 0 97.43 156.37
  L 113.45 156.38
  A 0.30 0.30 0.0 0 0 113.74 156.01
  L 107.32 130.98
  A 0.30 0.30 0.0 0 0 107.03 130.75
  L 91.03 130.75
  A 0.30 0.30 0.0 0 0 90.74 131.12
  L 97.14 156.14"
/>
<path stroke="#808080" vector-effect="non-scaling-stroke" d="
  M 124.35 147.96
  A 0.38 0.38 0.0 0 0 124.71 148.25
  L 135.38 148.25
  A 0.38 0.38 0.0 0 0 135.75 147.78
  L 131.46 131.04
  A 0.38 0.38 0.0 0 0 131.10 130.75
  L 120.41 130.75
  A 0.38 0.38 0.0 0 0 120.04 131.22
  L 124.35 147.96"
/>
<path stroke="#808080" vector-effect="non-scaling-stroke" d="
  M 146.45 131.04
  A 0.39 0.39 0.0 0 0 146.07 130.75
  L 135.39 130.75
  A 0.39 0.39 0.0 0 0 135.01 131.24
  L 139.29 147.96
  A 0.39 0.39 0.0 0 0 139.66 148.25
  L 150.36 148.25
  A 0.39 0.39 0.0 0 0 150.74 147.76
  L 146.45 131.04"
/>
<path stroke="#808080" vector-effect="non-scaling-stroke" d="
  M 161.43 131.04
  A 0.39 0.39 0.0 0 0 161.05 130.75
  L 150.36 130.75
  A 0.39 0.39 0.0 0 0 149.98 131.24
  L 154.26 147.96
  A 0.39 0.39 0.0 0 0 154.64 148.25
  L 165.36 148.25
  A 0.39 0.39 0.0 0 0 165.73 147.76
  L 161.43 131.04"
/>
<path stroke="#808080" vector-effect="non-scaling-stroke" d="
  M 136.85 152.04
  A 0.39 0.39 0.0 0 0 136.48 151.75
  L 125.81 151.75
  A 0.39 0.39 0.0 0 0 125.44 152.24
  L 130.09 170.33
  A 0.39 0.39 0.0 0 0 130.47 170.62
  L 141.09 170.62
  A 0.39 0.39 0.0 0 0 141.47 170.13
  L 136.85 152.04"
/>
<path stroke="#808080" vector-effect="non-scaling-stroke" d="
  M 151.81 151.98
  A 0.31 0.31 0.0 0 0 151.51 151.75
  L 140.66 151.75
  A 0.31 0.31 0.0 0 0 140.36 152.14
  L 145.03 170.39
  A 0.31 0.31 0.0 0 0 145.33 170.62
  L 156.18 170.62
  A 0.31 0.31 0.0 0 0 156.48 170.23
  L 151.81 151.98"
/>
<path stroke="#808080" vector-effect="non-scaling-stroke" d="
  M 166.82 152.00
  A 0.33 0.33 0.0 0 0 166.50 151.75
  L 155.67 151.75
  A 0.33 0.33 0.0 0 0 155.35 152.16
  L 160.00 170.37
  A 0.33 0.33 0.0 0 0 160.32 170.62
  L 171.18 170.62
  A 0.33 0.33 0.0 0 0 171.50 170.21
  L 166.82 152.00"
/>
<path stroke="#808080" vector-effect="non-scaling-stroke" d="
  M 73.34 160.76
  A 0.35 0.35 0.0 0 0 73.00 160.50
  L 57.13 160.50
  A 0.35 0.35 0.0 0 0 56.79 160.94
  L 63.22 185.99
  A 0.35 0.35 0.0 0 0 63.56 186.25
  L 79.41 186.25
  A 0.35 0.35 0.0 0 0 79.75 185.81
  L 73.34 160.76"
/>
<path stroke="#808080" vector-effect="non-scaling-stroke" d="
  M 83.98 186.01
  A 0.32 0.32 0.0 0 0 84.29 186.25
  L 100.24 186.25
  A 0.32 0.32 0.0 0 0 100.55 185.85
  L 94.11 160.74
  A 0.32 0.32 0.0 0 0 93.80 160.50
  L 77.88 160.50
  A 0.32 0.32 0.0 0 0 77.57 160.90
  L 83.98 186.01"
/>
<path stroke="#808080" vector-effect="non-scaling-stroke" d="
  M 114.98 160.76
  A 0.34 0.34 0.0 0 0 114.65 160.50
  L 98.69 160.50
  A 0.34 0.34 0.0 0 0 98.36 160.92
  L 104.77 185.99
  A 0.34 0.34 0.0 0 0 105.10 186.25
  L 121.09 186.25
  A 0.34 0.34 0.0 0 0 121.42 185.83
  L 114.98 160.76"
/>
<path stroke="#808080" vector-effect="non-scaling-stroke" d="
  M 186.53 160.79
  A 0.39 0.39 0.0 0 0 186.15 160.50
  L 180.45 160.50
  A 0.39 0.39 0.0 0 0 180.08 160.99
  L 182.69 171.08
  A 0.39 0.39 0.0 0 0 183.07 171.37
  L 188.74 171.38
  A 0.39 0.39 0.0 0 0 189.11 170.89
  L 186.53 160.79"
/>
<path stroke="#808080" vector-effect="non-scaling-stroke" d="
  M 195.81 160.76
  A 0.35 0.35 0.0 0 0 195.47 160.50
  L 189.70 160.50
  A 0.35 0.35 0.0 0 0 189.36 160.94
  L 191.96 171.12
  A 0.35 0.35 0.0 0 0 192.30 171.38
  L 198.07 171.36
  A 0.35 0.35 0.0 0 0 198.41 170.92
  L 195.81 160.76"
/>
<path stroke="#808080" vector-effect="non-scaling-stroke" d="
  M 205.12 160.73
  A 0.31 0.31 0.0 0 0 204.82 160.50
  L 198.94 160.50
  A 0.31 0.31 0.0 0 0 198.64 160.89
  L 201.27 171.14
  A 0.31 0.31 0.0 0 0 201.57 171.37
  L 207.47 171.38
  A 0.31 0.31 0.0 0 0 207.77 170.99
  L 205.12 160.73"
/>
<path stroke="#808080" vector-effect="non-scaling-stroke" d="
  M 135.49 191.34
  A 0.38 0.38 0.0 0 0 135.86 191.63
  L 146.48 191.62
  A 0.38 0.38 0.0 0 0 146.85 191.15
  L 142.54 174.29
  A 0.38 0.38 0.0 0 0 142.17 174.00
  L 131.55 174.00
  A 0.38 0.38 0.0 0 0 131.18 174.47
  L 135.49 191.34"
/>
<path stroke="#808080" vector-effect="non-scaling-stroke" d="
  M 150.39 191.37
  A 0.35 0.35 0.0 0 0 150.73 191.63
  L 161.51 191.62
  A 0.35 0.35 0.0 0 0 161.85 191.18
  L 157.51 174.26
  A 0.35 0.35 0.0 0 0 157.17 174.00
  L 146.40 174.00
  A 0.35 0.35 0.0 0 0 146.06 174.44
  L 150.39 191.37"
/>
<path stroke="#808080" vector-effect="non-scaling-stroke" d="
  M 172.55 174.28
  A 0.37 0.37 0.0 0 0 172.19 174.00
  L 161.42 174.00
  A 0.37 0.37 0.0 0 0 161.06 174.46
  L 165.36 191.35
  A 0.37 0.37 0.0 0 0 165.72 191.63
  L 176.54 191.62
  A 0.37 0.37 0.0 0 0 176.90 191.16
  L 172.55 174.28"
/>
<path stroke="#808080" vector-effect="non-scaling-stroke" d="
  M 186.17 184.63
  A 0.34 0.34 0.0 0 0 186.51 184.89
  L 192.26 184.85
  A 0.34 0.34 0.0 0 0 192.59 184.43
  L 189.97 174.26
  A 0.34 0.34 0.0 0 0 189.64 174.00
  L 183.87 174.00
  A 0.34 0.34 0.0 0 0 183.54 174.42
  L 186.17 184.63"
/>
<path stroke="#808080" vector-effect="non-scaling-stroke" d="
  M 199.27 174.27
  A 0.36 0.36 0.0 0 0 198.92 174.00
  L 193.17 174.00
  A 0.36 0.36 0.0 0 0 192.82 174.45
  L 195.42 184.64
  A 0.36 0.36 0.0 0 0 195.77 184.91
  L 201.51 184.84
  A 0.36 0.36 0.0 0 0 201.86 184.40
  L 199.27 174.27"
/>
<path stroke="#808080" vector-effect="non-scaling-stroke" d="
  M 208.63 174.27
  A 0.36 0.36 0.0 0 0 208.28 174.00
  L 202.45 174.00
  A 0.36 0.36 0.0 0 0 202.10 174.45
  L 204.70 184.63
  A 0.36 0.36 0.0 0 0 205.05 184.90
  L 210.88 184.86
  A 0.36 0.36 0.0 0 0 211.23 184.41
  L 208.63 174.27"
/>
<path stroke="#808080" vector-effect="non-scaling-stroke" d="
  M 193.46 187.88
  A 0.34 0.34 0.0 0 0 193.13 187.63
  L 187.39 187.61
  A 0.34 0.34 0.0 0 0 187.06 188.04
  L 189.47 197.49
  A 0.34 0.34 0.0 0 0 189.80 197.75
  L 195.55 197.75
  A 0.34 0.34 0.0 0 0 195.88 197.33
  L 193.46 187.88"
/>
<path stroke="#808080" vector-effect="non-scaling-stroke" d="
  M 202.75 187.88
  A 0.32 0.32 0.0 0 0 202.44 187.64
  L 196.60 187.61
  A 0.32 0.32 0.0 0 0 196.28 188.01
  L 198.74 197.51
  A 0.32 0.32 0.0 0 0 199.05 197.75
  L 204.86 197.75
  A 0.32 0.32 0.0 0 0 205.17 197.35
  L 202.75 187.88"
/>
<path stroke="#808080" vector-effect="non-scaling-stroke" d="
  M 212.12 187.88
  A 0.33 0.33 0.0 0 0 211.80 187.63
  L 205.90 187.63
  A 0.33 0.33 0.0 0 0 205.58 188.04
  L 208.03 197.50
  A 0.33 0.33 0.0 0 0 208.35 197.75
  L 214.23 197.74
  A 0.33 0.33 0.0 0 0 214.54 197.33
  L 212.12 187.88"
/>
<path stroke="#808080" vector-effect="non-scaling-stroke" d="
  M 79.25 204.79
  A 0.35 0.35 0.0 0 1 78.90 205.14
  L 69.50 205.12
  A 0.35 0.35 0.0 0 0 69.15 205.47
  L 69.13 208.90
  A 0.35 0.35 0.0 0 0 69.48 209.25
  L 93.77 209.25
  A 0.35 0.35 0.0 0 0 94.12 208.91
  L 94.16 205.48
  A 0.35 0.35 0.0 0 0 93.81 205.12
  L 83.72 205.12
  A 0.35 0.35 0.0 0 1 83.37 204.77
  L 83.37 190.59
  A 0.35 0.35 0.0 0 0 83.02 190.24
  L 79.60 190.26
  A 0.35 0.35 0.0 0 0 79.25 190.61
  L 79.25 204.79"
/>
<path stroke="#808080" vector-effect="non-scaling-stroke" d="
  M 147.00 205.58
  A 0.31 0.31 0.0 0 1 146.69 205.89
  L 139.80 205.85
  A 0.31 0.31 0.0 0 0 139.49 206.16
  L 139.51 208.94
  A 0.31 0.31 0.0 0 0 139.82 209.25
  L 157.43 209.25
  A 0.31 0.31 0.0 0 0 157.74 208.94
  L 157.75 206.19
  A 0.31 0.31 0.0 0 0 157.44 205.88
  L 150.67 205.86
  A 0.31 0.31 0.0 0 1 150.36 205.55
  L 150.38 195.31
  A 0.31 0.31 0.0 0 0 150.07 195.00
  L 147.31 195.00
  A 0.31 0.31 0.0 0 0 147.00 195.31
  L 147.00 205.58"
/>
<path stroke="#808080" vector-effect="non-scaling-stroke" d="
  M 195.75 206.17
  A 0.33 0.33 0.0 0 1 195.42 206.50
  L 191.97 206.49
  A 0.33 0.33 0.0 0 0 191.64 206.81
  L 191.61 208.91
  A 0.33 0.33 0.0 0 0 191.94 209.25
  L 202.17 209.25
  A 0.33 0.33 0.0 0 0 202.50 208.92
  L 202.50 206.83
  A 0.33 0.33 0.0 0 0 202.17 206.50
  L 198.70 206.50
  A 0.33 0.33 0.0 0 1 198.37 206.17
  L 198.37 200.74
  A 0.33 0.33 0.0 0 0 198.05 200.41
  L 196.09 200.38
  A 0.33 0.33 0.0 0 0 195.75 200.71
  L 195.75 206.17"
/>
<path stroke="#808080" vector-effect="non-scaling-stroke" d="
  M 192.42 79.26
  A 10.28 10.28 0.0 0 0 182.14 68.98
  A 10.28 10.28 0.0 0 0 171.86 79.26
  A 10.28 10.28 0.0 0 0 182.14 89.54
  A 10.28 10.28 0.0 0 0 192.42 79.26"
/>
</g>
<path fill="#ffffff" d="
  M 121.88 0.00
  L 134.24 0.00
  Q 139.12 0.58 143.98 1.20
  Q 175.57 5.19 200.60 22.57
  C 231.67 44.15 250.90 76.94 255.26 114.28
  C 255.56 116.79 255.52 119.39 256.00 121.88
  L 256.00 133.23
  Q 253.58 178.01 225.95 210.44
  C 198.83 242.26 158.78 259.05 116.97 255.48
  C 91.34 253.30 66.33 243.30 46.48 226.67
  C 21.58 205.79 4.47 176.02 0.96 143.29
  Q 0.45 138.59 0.00 133.87
  L 0.00 122.03
  Q 1.34 99.82 8.80 81.24
  Q 23.28 45.17 54.03 23.54
  Q 81.06 4.53 114.02 0.94
  Q 117.96 0.51 121.88 0.00
  Z
  M 179.50 95.30
  L 179.50 111.50
  A 0.25 0.25 0.0 0 0 179.75 111.75
  L 184.44 111.75
  Q 184.88 111.75 184.88 111.31
  L 184.87 95.29
  Q 184.87 94.70 185.44 94.58
  Q 188.34 93.97 190.66 92.42
  Q 191.12 92.11 191.51 92.50
  L 202.85 103.85
  Q 203.19 104.19 203.54 103.85
  L 206.69 100.69
  Q 207.00 100.38 206.69 100.07
  L 195.33 88.72
  Q 194.91 88.30 195.26 87.82
  Q 196.90 85.61 197.40 82.69
  Q 197.52 82.00 198.22 82.00
  L 214.20 82.00
  Q 214.64 82.00 214.64 81.55
  L 214.62 76.93
  Q 214.62 76.50 214.19 76.50
  L 198.05 76.50
  Q 197.55 76.50 197.45 76.01
  Q 196.89 73.10 195.23 70.71
  Q 194.89 70.23 195.31 69.81
  L 206.68 58.45
  Q 207.00 58.13 206.68 57.82
  L 203.53 54.66
  Q 203.19 54.31 202.85 54.65
  L 191.39 66.10
  Q 191.04 66.45 190.65 66.15
  Q 188.45 64.48 185.48 63.97
  Q 184.86 63.86 184.86 63.23
  L 184.88 47.06
  Q 184.88 46.74 184.56 46.74
  L 179.75 46.75
  Q 179.50 46.76 179.50 47.00
  L 179.50 63.25
  Q 179.50 63.83 178.92 63.92
  Q 176.17 64.36 173.66 66.07
  A 0.84 0.83 49.9 0 1 172.59 65.97
  L 161.34 54.72
  Q 161.07 54.44 160.79 54.72
  L 157.49 58.00
  Q 157.24 58.25 157.49 58.50
  L 168.88 69.87
  A 0.69 0.69 0.0 0 1 168.97 70.73
  Q 167.46 73.08 166.78 75.92
  Q 166.64 76.50 166.04 76.50
  L 149.95 76.50
  Q 149.63 76.50 149.63 76.82
  L 149.61 81.65
  A 0.35 0.35 0.0 0 0 149.96 82.00
  L 166.03 82.00
  Q 166.62 82.00 166.75 82.57
  Q 167.37 85.23 168.90 87.73
  Q 169.21 88.24 168.79 88.67
  Q 157.79 99.91 157.61 99.93
  Q 157.22 99.97 157.58 100.60
  Q 157.58 100.60 160.71 103.70
  Q 161.07 104.06 161.42 103.70
  L 172.58 92.54
  Q 173.05 92.06 173.62 92.42
  Q 176.21 94.02 179.00 94.67
  Q 179.50 94.79 179.50 95.30
  Z
  M 47.88 126.33
  A 0.39 0.39 0.0 0 0 48.26 126.62
  L 64.10 126.63
  A 0.39 0.39 0.0 0 0 64.48 126.14
  L 58.09 101.17
  A 0.39 0.39 0.0 0 0 57.71 100.88
  L 41.84 100.87
  A 0.39 0.39 0.0 0 0 41.47 101.36
  L 47.88 126.33
  Z
  M 68.73 126.37
  A 0.33 0.33 0.0 0 0 69.05 126.62
  L 84.96 126.63
  A 0.33 0.33 0.0 0 0 85.28 126.22
  L 78.87 101.13
  A 0.33 0.33 0.0 0 0 78.55 100.88
  L 62.63 100.87
  A 0.33 0.33 0.0 0 0 62.31 101.28
  L 68.73 126.37
  Z
  M 99.64 101.16
  A 0.37 0.37 0.0 0 0 99.28 100.88
  L 83.48 100.88
  A 0.37 0.37 0.0 0 0 83.12 101.34
  L 89.51 126.34
  A 0.37 0.37 0.0 0 0 89.87 126.62
  L 105.72 126.62
  A 0.37 0.37 0.0 0 0 106.08 126.16
  L 99.64 101.16
  Z
  M 65.73 131.02
  A 0.36 0.36 0.0 0 0 65.38 130.75
  L 49.49 130.75
  A 0.36 0.36 0.0 0 0 49.15 131.20
  L 55.54 156.10
  A 0.36 0.36 0.0 0 0 55.89 156.37
  L 71.75 156.38
  A 0.36 0.36 0.0 0 0 72.10 155.93
  L 65.73 131.02
  Z
  M 76.32 156.06
  A 0.41 0.41 0.0 0 0 76.72 156.37
  L 92.47 156.38
  A 0.41 0.41 0.0 0 0 92.87 155.87
  L 86.53 131.06
  A 0.41 0.41 0.0 0 0 86.13 130.75
  L 70.39 130.75
  A 0.41 0.41 0.0 0 0 69.99 131.26
  L 76.32 156.06
  Z
  M 97.14 156.14
  A 0.30 0.30 0.0 0 0 97.43 156.37
  L 113.45 156.38
  A 0.30 0.30 0.0 0 0 113.74 156.01
  L 107.32 130.98
  A 0.30 0.30 0.0 0 0 107.03 130.75
  L 91.03 130.75
  A 0.30 0.30 0.0 0 0 90.74 131.12
  L 97.14 156.14
  Z
  M 124.35 147.96
  A 0.38 0.38 0.0 0 0 124.71 148.25
  L 135.38 148.25
  A 0.38 0.38 0.0 0 0 135.75 147.78
  L 131.46 131.04
  A 0.38 0.38 0.0 0 0 131.10 130.75
  L 120.41 130.75
  A 0.38 0.38 0.0 0 0 120.04 131.22
  L 124.35 147.96
  Z
  M 146.45 131.04
  A 0.39 0.39 0.0 0 0 146.07 130.75
  L 135.39 130.75
  A 0.39 0.39 0.0 0 0 135.01 131.24
  L 139.29 147.96
  A 0.39 0.39 0.0 0 0 139.66 148.25
  L 150.36 148.25
  A 0.39 0.39 0.0 0 0 150.74 147.76
  L 146.45 131.04
  Z
  M 161.43 131.04
  A 0.39 0.39 0.0 0 0 161.05 130.75
  L 150.36 130.75
  A 0.39 0.39 0.0 0 0 149.98 131.24
  L 154.26 147.96
  A 0.39 0.39 0.0 0 0 154.64 148.25
  L 165.36 148.25
  A 0.39 0.39 0.0 0 0 165.73 147.76
  L 161.43 131.04
  Z
  M 136.85 152.04
  A 0.39 0.39 0.0 0 0 136.48 151.75
  L 125.81 151.75
  A 0.39 0.39 0.0 0 0 125.44 152.24
  L 130.09 170.33
  A 0.39 0.39 0.0 0 0 130.47 170.62
  L 141.09 170.62
  A 0.39 0.39 0.0 0 0 141.47 170.13
  L 136.85 152.04
  Z
  M 151.81 151.98
  A 0.31 0.31 0.0 0 0 151.51 151.75
  L 140.66 151.75
  A 0.31 0.31 0.0 0 0 140.36 152.14
  L 145.03 170.39
  A 0.31 0.31 0.0 0 0 145.33 170.62
  L 156.18 170.62
  A 0.31 0.31 0.0 0 0 156.48 170.23
  L 151.81 151.98
  Z
  M 166.82 152.00
  A 0.33 0.33 0.0 0 0 166.50 151.75
  L 155.67 151.75
  A 0.33 0.33 0.0 0 0 155.35 152.16
  L 160.00 170.37
  A 0.33 0.33 0.0 0 0 160.32 170.62
  L 171.18 170.62
  A 0.33 0.33 0.0 0 0 171.50 170.21
  L 166.82 152.00
  Z
  M 73.34 160.76
  A 0.35 0.35 0.0 0 0 73.00 160.50
  L 57.13 160.50
  A 0.35 0.35 0.0 0 0 56.79 160.94
  L 63.22 185.99
  A 0.35 0.35 0.0 0 0 63.56 186.25
  L 79.41 186.25
  A 0.35 0.35 0.0 0 0 79.75 185.81
  L 73.34 160.76
  Z
  M 83.98 186.01
  A 0.32 0.32 0.0 0 0 84.29 186.25
  L 100.24 186.25
  A 0.32 0.32 0.0 0 0 100.55 185.85
  L 94.11 160.74
  A 0.32 0.32 0.0 0 0 93.80 160.50
  L 77.88 160.50
  A 0.32 0.32 0.0 0 0 77.57 160.90
  L 83.98 186.01
  Z
  M 114.98 160.76
  A 0.34 0.34 0.0 0 0 114.65 160.50
  L 98.69 160.50
  A 0.34 0.34 0.0 0 0 98.36 160.92
  L 104.77 185.99
  A 0.34 0.34 0.0 0 0 105.10 186.25
  L 121.09 186.25
  A 0.34 0.34 0.0 0 0 121.42 185.83
  L 114.98 160.76
  Z
  M 186.53 160.79
  A 0.39 0.39 0.0 0 0 186.15 160.50
  L 180.45 160.50
  A 0.39 0.39 0.0 0 0 180.08 160.99
  L 182.69 171.08
  A 0.39 0.39 0.0 0 0 183.07 171.37
  L 188.74 171.38
  A 0.39 0.39 0.0 0 0 189.11 170.89
  L 186.53 160.79
  Z
  M 195.81 160.76
  A 0.35 0.35 0.0 0 0 195.47 160.50
  L 189.70 160.50
  A 0.35 0.35 0.0 0 0 189.36 160.94
  L 191.96 171.12
  A 0.35 0.35 0.0 0 0 192.30 171.38
  L 198.07 171.36
  A 0.35 0.35 0.0 0 0 198.41 170.92
  L 195.81 160.76
  Z
  M 205.12 160.73
  A 0.31 0.31 0.0 0 0 204.82 160.50
  L 198.94 160.50
  A 0.31 0.31 0.0 0 0 198.64 160.89
  L 201.27 171.14
  A 0.31 0.31 0.0 0 0 201.57 171.37
  L 207.47 171.38
  A 0.31 0.31 0.0 0 0 207.77 170.99
  L 205.12 160.73
  Z
  M 135.49 191.34
  A 0.38 0.38 0.0 0 0 135.86 191.63
  L 146.48 191.62
  A 0.38 0.38 0.0 0 0 146.85 191.15
  L 142.54 174.29
  A 0.38 0.38 0.0 0 0 142.17 174.00
  L 131.55 174.00
  A 0.38 0.38 0.0 0 0 131.18 174.47
  L 135.49 191.34
  Z
  M 150.39 191.37
  A 0.35 0.35 0.0 0 0 150.73 191.63
  L 161.51 191.62
  A 0.35 0.35 0.0 0 0 161.85 191.18
  L 157.51 174.26
  A 0.35 0.35 0.0 0 0 157.17 174.00
  L 146.40 174.00
  A 0.35 0.35 0.0 0 0 146.06 174.44
  L 150.39 191.37
  Z
  M 172.55 174.28
  A 0.37 0.37 0.0 0 0 172.19 174.00
  L 161.42 174.00
  A 0.37 0.37 0.0 0 0 161.06 174.46
  L 165.36 191.35
  A 0.37 0.37 0.0 0 0 165.72 191.63
  L 176.54 191.62
  A 0.37 0.37 0.0 0 0 176.90 191.16
  L 172.55 174.28
  Z
  M 186.17 184.63
  A 0.34 0.34 0.0 0 0 186.51 184.89
  L 192.26 184.85
  A 0.34 0.34 0.0 0 0 192.59 184.43
  L 189.97 174.26
  A 0.34 0.34 0.0 0 0 189.64 174.00
  L 183.87 174.00
  A 0.34 0.34 0.0 0 0 183.54 174.42
  L 186.17 184.63
  Z
  M 199.27 174.27
  A 0.36 0.36 0.0 0 0 198.92 174.00
  L 193.17 174.00
  A 0.36 0.36 0.0 0 0 192.82 174.45
  L 195.42 184.64
  A 0.36 0.36 0.0 0 0 195.77 184.91
  L 201.51 184.84
  A 0.36 0.36 0.0 0 0 201.86 184.40
  L 199.27 174.27
  Z
  M 208.63 174.27
  A 0.36 0.36 0.0 0 0 208.28 174.00
  L 202.45 174.00
  A 0.36 0.36 0.0 0 0 202.10 174.45
  L 204.70 184.63
  A 0.36 0.36 0.0 0 0 205.05 184.90
  L 210.88 184.86
  A 0.36 0.36 0.0 0 0 211.23 184.41
  L 208.63 174.27
  Z
  M 193.46 187.88
  A 0.34 0.34 0.0 0 0 193.13 187.63
  L 187.39 187.61
  A 0.34 0.34 0.0 0 0 187.06 188.04
  L 189.47 197.49
  A 0.34 0.34 0.0 0 0 189.80 197.75
  L 195.55 197.75
  A 0.34 0.34 0.0 0 0 195.88 197.33
  L 193.46 187.88
  Z
  M 202.75 187.88
  A 0.32 0.32 0.0 0 0 202.44 187.64
  L 196.60 187.61
  A 0.32 0.32 0.0 0 0 196.28 188.01
  L 198.74 197.51
  A 0.32 0.32 0.0 0 0 199.05 197.75
  L 204.86 197.75
  A 0.32 0.32 0.0 0 0 205.17 197.35
  L 202.75 187.88
  Z
  M 212.12 187.88
  A 0.33 0.33 0.0 0 0 211.80 187.63
  L 205.90 187.63
  A 0.33 0.33 0.0 0 0 205.58 188.04
  L 208.03 197.50
  A 0.33 0.33 0.0 0 0 208.35 197.75
  L 214.23 197.74
  A 0.33 0.33 0.0 0 0 214.54 197.33
  L 212.12 187.88
  Z
  M 79.25 204.79
  A 0.35 0.35 0.0 0 1 78.90 205.14
  L 69.50 205.12
  A 0.35 0.35 0.0 0 0 69.15 205.47
  L 69.13 208.90
  A 0.35 0.35 0.0 0 0 69.48 209.25
  L 93.77 209.25
  A 0.35 0.35 0.0 0 0 94.12 208.91
  L 94.16 205.48
  A 0.35 0.35 0.0 0 0 93.81 205.12
  L 83.72 205.12
  A 0.35 0.35 0.0 0 1 83.37 204.77
  L 83.37 190.59
  A 0.35 0.35 0.0 0 0 83.02 190.24
  L 79.60 190.26
  A 0.35 0.35 0.0 0 0 79.25 190.61
  L 79.25 204.79
  Z
  M 147.00 205.58
  A 0.31 0.31 0.0 0 1 146.69 205.89
  L 139.80 205.85
  A 0.31 0.31 0.0 0 0 139.49 206.16
  L 139.51 208.94
  A 0.31 0.31 0.0 0 0 139.82 209.25
  L 157.43 209.25
  A 0.31 0.31 0.0 0 0 157.74 208.94
  L 157.75 206.19
  A 0.31 0.31 0.0 0 0 157.44 205.88
  L 150.67 205.86
  A 0.31 0.31 0.0 0 1 150.36 205.55
  L 150.38 195.31
  A 0.31 0.31 0.0 0 0 150.07 195.00
  L 147.31 195.00
  A 0.31 0.31 0.0 0 0 147.00 195.31
  L 147.00 205.58
  Z
  M 195.75 206.17
  A 0.33 0.33 0.0 0 1 195.42 206.50
  L 191.97 206.49
  A 0.33 0.33 0.0 0 0 191.64 206.81
  L 191.61 208.91
  A 0.33 0.33 0.0 0 0 191.94 209.25
  L 202.17 209.25
  A 0.33 0.33 0.0 0 0 202.50 208.92
  L 202.50 206.83
  A 0.33 0.33 0.0 0 0 202.17 206.50
  L 198.70 206.50
  A 0.33 0.33 0.0 0 1 198.37 206.17
  L 198.37 200.74
  A 0.33 0.33 0.0 0 0 198.05 200.41
  L 196.09 200.38
  A 0.33 0.33 0.0 0 0 195.75 200.71
  L 195.75 206.17
  Z"
/>
<path fill="#000000" d="
  M 179.00 94.67
  Q 176.21 94.02 173.62 92.42
  Q 173.05 92.06 172.58 92.54
  L 161.42 103.70
  Q 161.07 104.06 160.71 103.70
  Q 157.58 100.60 157.58 100.60
  Q 157.22 99.97 157.61 99.93
  Q 157.79 99.91 168.79 88.67
  Q 169.21 88.24 168.90 87.73
  Q 167.37 85.23 166.75 82.57
  Q 166.62 82.00 166.03 82.00
  L 149.96 82.00
  A 0.35 0.35 0.0 0 1 149.61 81.65
  L 149.63 76.82
  Q 149.63 76.50 149.95 76.50
  L 166.04 76.50
  Q 166.64 76.50 166.78 75.92
  Q 167.46 73.08 168.97 70.73
  A 0.69 0.69 0.0 0 0 168.88 69.87
  L 157.49 58.50
  Q 157.24 58.25 157.49 58.00
  L 160.79 54.72
  Q 161.07 54.44 161.34 54.72
  L 172.59 65.97
  A 0.84 0.83 49.9 0 0 173.66 66.07
  Q 176.17 64.36 178.92 63.92
  Q 179.50 63.83 179.50 63.25
  L 179.50 47.00
  Q 179.50 46.76 179.75 46.75
  L 184.56 46.74
  Q 184.88 46.74 184.88 47.06
  L 184.86 63.23
  Q 184.86 63.86 185.48 63.97
  Q 188.45 64.48 190.65 66.15
  Q 191.04 66.45 191.39 66.10
  L 202.85 54.65
  Q 203.19 54.31 203.53 54.66
  L 206.68 57.82
  Q 207.00 58.13 206.68 58.45
  L 195.31 69.81
  Q 194.89 70.23 195.23 70.71
  Q 196.89 73.10 197.45 76.01
  Q 197.55 76.50 198.05 76.50
  L 214.19 76.50
  Q 214.62 76.50 214.62 76.93
  L 214.64 81.55
  Q 214.64 82.00 214.20 82.00
  L 198.22 82.00
  Q 197.52 82.00 197.40 82.69
  Q 196.90 85.61 195.26 87.82
  Q 194.91 88.30 195.33 88.72
  L 206.69 100.07
  Q 207.00 100.38 206.69 100.69
  L 203.54 103.85
  Q 203.19 104.19 202.85 103.85
  L 191.51 92.50
  Q 191.12 92.11 190.66 92.42
  Q 188.34 93.97 185.44 94.58
  Q 184.87 94.70 184.87 95.29
  L 184.88 111.31
  Q 184.88 111.75 184.44 111.75
  L 179.75 111.75
  A 0.25 0.25 0.0 0 1 179.50 111.50
  L 179.50 95.30
  Q 179.50 94.79 179.00 94.67
  Z
  M 192.42 79.26
  A 10.28 10.28 0.0 0 0 182.14 68.98
  A 10.28 10.28 0.0 0 0 171.86 79.26
  A 10.28 10.28 0.0 0 0 182.14 89.54
  A 10.28 10.28 0.0 0 0 192.42 79.26
  Z"
/>
<circle fill="#ffffff" cx="182.14" cy="79.26" r="10.28"/>
<path fill="#000000" d="
  M 47.88 126.33
  L 41.47 101.36
  A 0.39 0.39 0.0 0 1 41.84 100.87
  L 57.71 100.88
  A 0.39 0.39 0.0 0 1 58.09 101.17
  L 64.48 126.14
  A 0.39 0.39 0.0 0 1 64.10 126.63
  L 48.26 126.62
  A 0.39 0.39 0.0 0 1 47.88 126.33
  Z"
/>
<path fill="#000000" d="
  M 68.73 126.37
  L 62.31 101.28
  A 0.33 0.33 0.0 0 1 62.63 100.87
  L 78.55 100.88
  A 0.33 0.33 0.0 0 1 78.87 101.13
  L 85.28 126.22
  A 0.33 0.33 0.0 0 1 84.96 126.63
  L 69.05 126.62
  A 0.33 0.33 0.0 0 1 68.73 126.37
  Z"
/>
<path fill="#000000" d="
  M 99.64 101.16
  L 106.08 126.16
  A 0.37 0.37 0.0 0 1 105.72 126.62
  L 89.87 126.62
  A 0.37 0.37 0.0 0 1 89.51 126.34
  L 83.12 101.34
  A 0.37 0.37 0.0 0 1 83.48 100.88
  L 99.28 100.88
  A 0.37 0.37 0.0 0 1 99.64 101.16
  Z"
/>
<path fill="#000000" d="
  M 65.73 131.02
  L 72.10 155.93
  A 0.36 0.36 0.0 0 1 71.75 156.38
  L 55.89 156.37
  A 0.36 0.36 0.0 0 1 55.54 156.10
  L 49.15 131.20
  A 0.36 0.36 0.0 0 1 49.49 130.75
  L 65.38 130.75
  A 0.36 0.36 0.0 0 1 65.73 131.02
  Z"
/>
<path fill="#000000" d="
  M 76.32 156.06
  L 69.99 131.26
  A 0.41 0.41 0.0 0 1 70.39 130.75
  L 86.13 130.75
  A 0.41 0.41 0.0 0 1 86.53 131.06
  L 92.87 155.87
  A 0.41 0.41 0.0 0 1 92.47 156.38
  L 76.72 156.37
  A 0.41 0.41 0.0 0 1 76.32 156.06
  Z"
/>
<path fill="#000000" d="
  M 97.14 156.14
  L 90.74 131.12
  A 0.30 0.30 0.0 0 1 91.03 130.75
  L 107.03 130.75
  A 0.30 0.30 0.0 0 1 107.32 130.98
  L 113.74 156.01
  A 0.30 0.30 0.0 0 1 113.45 156.38
  L 97.43 156.37
  A 0.30 0.30 0.0 0 1 97.14 156.14
  Z"
/>
<path fill="#000000" d="
  M 124.35 147.96
  L 120.04 131.22
  A 0.38 0.38 0.0 0 1 120.41 130.75
  L 131.10 130.75
  A 0.38 0.38 0.0 0 1 131.46 131.04
  L 135.75 147.78
  A 0.38 0.38 0.0 0 1 135.38 148.25
  L 124.71 148.25
  A 0.38 0.38 0.0 0 1 124.35 147.96
  Z"
/>
<path fill="#000000" d="
  M 146.45 131.04
  L 150.74 147.76
  A 0.39 0.39 0.0 0 1 150.36 148.25
  L 139.66 148.25
  A 0.39 0.39 0.0 0 1 139.29 147.96
  L 135.01 131.24
  A 0.39 0.39 0.0 0 1 135.39 130.75
  L 146.07 130.75
  A 0.39 0.39 0.0 0 1 146.45 131.04
  Z"
/>
<path fill="#000000" d="
  M 161.43 131.04
  L 165.73 147.76
  A 0.39 0.39 0.0 0 1 165.36 148.25
  L 154.64 148.25
  A 0.39 0.39 0.0 0 1 154.26 147.96
  L 149.98 131.24
  A 0.39 0.39 0.0 0 1 150.36 130.75
  L 161.05 130.75
  A 0.39 0.39 0.0 0 1 161.43 131.04
  Z"
/>
<path fill="#000000" d="
  M 136.85 152.04
  L 141.47 170.13
  A 0.39 0.39 0.0 0 1 141.09 170.62
  L 130.47 170.62
  A 0.39 0.39 0.0 0 1 130.09 170.33
  L 125.44 152.24
  A 0.39 0.39 0.0 0 1 125.81 151.75
  L 136.48 151.75
  A 0.39 0.39 0.0 0 1 136.85 152.04
  Z"
/>
<path fill="#000000" d="
  M 151.81 151.98
  L 156.48 170.23
  A 0.31 0.31 0.0 0 1 156.18 170.62
  L 145.33 170.62
  A 0.31 0.31 0.0 0 1 145.03 170.39
  L 140.36 152.14
  A 0.31 0.31 0.0 0 1 140.66 151.75
  L 151.51 151.75
  A 0.31 0.31 0.0 0 1 151.81 151.98
  Z"
/>
<path fill="#000000" d="
  M 166.82 152.00
  L 171.50 170.21
  A 0.33 0.33 0.0 0 1 171.18 170.62
  L 160.32 170.62
  A 0.33 0.33 0.0 0 1 160.00 170.37
  L 155.35 152.16
  A 0.33 0.33 0.0 0 1 155.67 151.75
  L 166.50 151.75
  A 0.33 0.33 0.0 0 1 166.82 152.00
  Z"
/>
<path fill="#000000" d="
  M 73.34 160.76
  L 79.75 185.81
  A 0.35 0.35 0.0 0 1 79.41 186.25
  L 63.56 186.25
  A 0.35 0.35 0.0 0 1 63.22 185.99
  L 56.79 160.94
  A 0.35 0.35 0.0 0 1 57.13 160.50
  L 73.00 160.50
  A 0.35 0.35 0.0 0 1 73.34 160.76
  Z"
/>
<path fill="#000000" d="
  M 83.98 186.01
  L 77.57 160.90
  A 0.32 0.32 0.0 0 1 77.88 160.50
  L 93.80 160.50
  A 0.32 0.32 0.0 0 1 94.11 160.74
  L 100.55 185.85
  A 0.32 0.32 0.0 0 1 100.24 186.25
  L 84.29 186.25
  A 0.32 0.32 0.0 0 1 83.98 186.01
  Z"
/>
<path fill="#000000" d="
  M 114.98 160.76
  L 121.42 185.83
  A 0.34 0.34 0.0 0 1 121.09 186.25
  L 105.10 186.25
  A 0.34 0.34 0.0 0 1 104.77 185.99
  L 98.36 160.92
  A 0.34 0.34 0.0 0 1 98.69 160.50
  L 114.65 160.50
  A 0.34 0.34 0.0 0 1 114.98 160.76
  Z"
/>
<path fill="#000000" d="
  M 186.53 160.79
  L 189.11 170.89
  A 0.39 0.39 0.0 0 1 188.74 171.38
  L 183.07 171.37
  A 0.39 0.39 0.0 0 1 182.69 171.08
  L 180.08 160.99
  A 0.39 0.39 0.0 0 1 180.45 160.50
  L 186.15 160.50
  A 0.39 0.39 0.0 0 1 186.53 160.79
  Z"
/>
<path fill="#000000" d="
  M 195.81 160.76
  L 198.41 170.92
  A 0.35 0.35 0.0 0 1 198.07 171.36
  L 192.30 171.38
  A 0.35 0.35 0.0 0 1 191.96 171.12
  L 189.36 160.94
  A 0.35 0.35 0.0 0 1 189.70 160.50
  L 195.47 160.50
  A 0.35 0.35 0.0 0 1 195.81 160.76
  Z"
/>
<path fill="#000000" d="
  M 205.12 160.73
  L 207.77 170.99
  A 0.31 0.31 0.0 0 1 207.47 171.38
  L 201.57 171.37
  A 0.31 0.31 0.0 0 1 201.27 171.14
  L 198.64 160.89
  A 0.31 0.31 0.0 0 1 198.94 160.50
  L 204.82 160.50
  A 0.31 0.31 0.0 0 1 205.12 160.73
  Z"
/>
<path fill="#000000" d="
  M 135.49 191.34
  L 131.18 174.47
  A 0.38 0.38 0.0 0 1 131.55 174.00
  L 142.17 174.00
  A 0.38 0.38 0.0 0 1 142.54 174.29
  L 146.85 191.15
  A 0.38 0.38 0.0 0 1 146.48 191.62
  L 135.86 191.63
  A 0.38 0.38 0.0 0 1 135.49 191.34
  Z"
/>
<path fill="#000000" d="
  M 150.39 191.37
  L 146.06 174.44
  A 0.35 0.35 0.0 0 1 146.40 174.00
  L 157.17 174.00
  A 0.35 0.35 0.0 0 1 157.51 174.26
  L 161.85 191.18
  A 0.35 0.35 0.0 0 1 161.51 191.62
  L 150.73 191.63
  A 0.35 0.35 0.0 0 1 150.39 191.37
  Z"
/>
<path fill="#000000" d="
  M 172.55 174.28
  L 176.90 191.16
  A 0.37 0.37 0.0 0 1 176.54 191.62
  L 165.72 191.63
  A 0.37 0.37 0.0 0 1 165.36 191.35
  L 161.06 174.46
  A 0.37 0.37 0.0 0 1 161.42 174.00
  L 172.19 174.00
  A 0.37 0.37 0.0 0 1 172.55 174.28
  Z"
/>
<path fill="#000000" d="
  M 186.17 184.63
  L 183.54 174.42
  A 0.34 0.34 0.0 0 1 183.87 174.00
  L 189.64 174.00
  A 0.34 0.34 0.0 0 1 189.97 174.26
  L 192.59 184.43
  A 0.34 0.34 0.0 0 1 192.26 184.85
  L 186.51 184.89
  A 0.34 0.34 0.0 0 1 186.17 184.63
  Z"
/>
<path fill="#000000" d="
  M 199.27 174.27
  L 201.86 184.40
  A 0.36 0.36 0.0 0 1 201.51 184.84
  L 195.77 184.91
  A 0.36 0.36 0.0 0 1 195.42 184.64
  L 192.82 174.45
  A 0.36 0.36 0.0 0 1 193.17 174.00
  L 198.92 174.00
  A 0.36 0.36 0.0 0 1 199.27 174.27
  Z"
/>
<path fill="#000000" d="
  M 208.63 174.27
  L 211.23 184.41
  A 0.36 0.36 0.0 0 1 210.88 184.86
  L 205.05 184.90
  A 0.36 0.36 0.0 0 1 204.70 184.63
  L 202.10 174.45
  A 0.36 0.36 0.0 0 1 202.45 174.00
  L 208.28 174.00
  A 0.36 0.36 0.0 0 1 208.63 174.27
  Z"
/>
<path fill="#000000" d="
  M 193.46 187.88
  L 195.88 197.33
  A 0.34 0.34 0.0 0 1 195.55 197.75
  L 189.80 197.75
  A 0.34 0.34 0.0 0 1 189.47 197.49
  L 187.06 188.04
  A 0.34 0.34 0.0 0 1 187.39 187.61
  L 193.13 187.63
  A 0.34 0.34 0.0 0 1 193.46 187.88
  Z"
/>
<path fill="#000000" d="
  M 202.75 187.88
  L 205.17 197.35
  A 0.32 0.32 0.0 0 1 204.86 197.75
  L 199.05 197.75
  A 0.32 0.32 0.0 0 1 198.74 197.51
  L 196.28 188.01
  A 0.32 0.32 0.0 0 1 196.60 187.61
  L 202.44 187.64
  A 0.32 0.32 0.0 0 1 202.75 187.88
  Z"
/>
<path fill="#000000" d="
  M 212.12 187.88
  L 214.54 197.33
  A 0.33 0.33 0.0 0 1 214.23 197.74
  L 208.35 197.75
  A 0.33 0.33 0.0 0 1 208.03 197.50
  L 205.58 188.04
  A 0.33 0.33 0.0 0 1 205.90 187.63
  L 211.80 187.63
  A 0.33 0.33 0.0 0 1 212.12 187.88
  Z"
/>
<path fill="#000000" d="
  M 79.25 204.79
  L 79.25 190.61
  A 0.35 0.35 0.0 0 1 79.60 190.26
  L 83.02 190.24
  A 0.35 0.35 0.0 0 1 83.37 190.59
  L 83.37 204.77
  A 0.35 0.35 0.0 0 0 83.72 205.12
  L 93.81 205.12
  A 0.35 0.35 0.0 0 1 94.16 205.48
  L 94.12 208.91
  A 0.35 0.35 0.0 0 1 93.77 209.25
  L 69.48 209.25
  A 0.35 0.35 0.0 0 1 69.13 208.90
  L 69.15 205.47
  A 0.35 0.35 0.0 0 1 69.50 205.12
  L 78.90 205.14
  A 0.35 0.35 0.0 0 0 79.25 204.79
  Z"
/>
<path fill="#000000" d="
  M 147.00 205.58
  L 147.00 195.31
  A 0.31 0.31 0.0 0 1 147.31 195.00
  L 150.07 195.00
  A 0.31 0.31 0.0 0 1 150.38 195.31
  L 150.36 205.55
  A 0.31 0.31 0.0 0 0 150.67 205.86
  L 157.44 205.88
  A 0.31 0.31 0.0 0 1 157.75 206.19
  L 157.74 208.94
  A 0.31 0.31 0.0 0 1 157.43 209.25
  L 139.82 209.25
  A 0.31 0.31 0.0 0 1 139.51 208.94
  L 139.49 206.16
  A 0.31 0.31 0.0 0 1 139.80 205.85
  L 146.69 205.89
  A 0.31 0.31 0.0 0 0 147.00 205.58
  Z"
/>
<path fill="#000000" d="
  M 195.75 206.17
  L 195.75 200.71
  A 0.33 0.33 0.0 0 1 196.09 200.38
  L 198.05 200.41
  A 0.33 0.33 0.0 0 1 198.37 200.74
  L 198.37 206.17
  A 0.33 0.33 0.0 0 0 198.70 206.50
  L 202.17 206.50
  A 0.33 0.33 0.0 0 1 202.50 206.83
  L 202.50 208.92
  A 0.33 0.33 0.0 0 1 202.17 209.25
  L 191.94 209.25
  A 0.33 0.33 0.0 0 1 191.61 208.91
  L 191.64 206.81
  A 0.33 0.33 0.0 0 1 191.97 206.49
  L 195.42 206.50
  A 0.33 0.33 0.0 0 0 195.75 206.17
  Z"
/>
</svg>
