<?xml version="1.0" encoding="UTF-8" standalone="no"?>
<!DOCTYPE svg PUBLIC "-//W3C//DTD SVG 1.1//EN" "http://www.w3.org/Graphics/SVG/1.1/DTD/svg11.dtd">
<svg xmlns="http://www.w3.org/2000/svg" version="1.1" viewBox="0.00 0.00 256.00 360.00">
<g stroke-width="2.00" fill="none" stroke-linecap="butt">
<path stroke="#808080" vector-effect="non-scaling-stroke" d="
  M 116.66 79.26
  A 18.88 18.88 0.0 0 0 97.78 60.38
  A 18.88 18.88 0.0 0 0 78.90 79.26
  A 18.88 18.88 0.0 0 0 97.78 98.14
  A 18.88 18.88 0.0 0 0 116.66 79.26"
/>
<path stroke="#808080" vector-effect="non-scaling-stroke" d="
  M 205.02 102.84
  C 204.82 93.15 206.40 84.15 198.33 76.92
  C 187.23 66.96 170.20 71.60 165.34 85.30
  C 163.48 90.55 164.16 97.18 164.13 102.89
  Q 164.13 103.50 163.51 103.50
  L 158.25 103.50
  Q 157.75 103.50 157.75 104.00
  L 157.75 152.06
  A 0.31 0.31 0.0 0 0 158.06 152.37
  L 210.31 152.38
  A 0.31 0.31 0.0 0 0 210.62 152.07
  L 210.62 104.12
  Q 210.62 103.50 210.00 103.50
  L 205.69 103.50
  Q 205.03 103.50 205.02 102.84"
/>
<path stroke="#808080" vector-effect="non-scaling-stroke" d="
  M 68.62 131.94
  L 68.63 195.50
  A 0.37 0.37 0.0 0 0 69.00 195.87
  L 125.15 195.87
  A 0.35 0.35 0.0 0 0 125.50 195.52
  L 125.50 132.00
  Q 125.50 131.75 125.75 131.75
  L 130.99 131.75
  Q 131.18 131.75 131.18 131.94
  Q 131.46 150.52 131.32 167.96
  C 131.27 174.33 134.50 177.85 140.96 177.81
  Q 162.03 177.68 182.37 177.77
  Q 184.34 177.78 186.38 177.15
  C 193.72 174.85 193.76 163.40 186.67 160.91
  Q 184.47 160.13 181.24 160.16
  Q 164.32 160.30 149.32 160.25
  Q 148.80 160.24 148.79 159.72
  Q 148.62 147.48 148.84 133.95
  Q 148.96 126.30 147.59 121.95
  C 143.86 110.12 132.66 102.63 120.38 102.66
  Q 101.63 102.70 81.71 102.55
  Q 71.58 102.47 67.23 103.81
  C 55.41 107.45 45.29 117.92 45.26 130.75
  Q 45.22 156.46 45.26 184.43
  Q 45.27 188.44 45.79 190.02
  C 48.76 199.04 62.71 197.10 62.73 187.56
  Q 62.77 160.00 62.75 132.00
  A 0.25 0.25 0.0 0 1 63.00 131.75
  L 68.44 131.75
  Q 68.62 131.75 68.62 131.94"
/>
<path stroke="#808080" vector-effect="non-scaling-stroke" d="
  M 172.86 103.50
  L 196.42 103.50
  A 0.49 0.49 0.0 0 0 196.91 103.01
  L 196.91 92.16
  A 12.40 12.12 90.0 0 0 184.79 79.76
  L 184.49 79.76
  A 12.40 12.12 -90.0 0 0 172.37 92.16
  L 172.37 103.01
  A 0.49 0.49 0.0 0 0 172.86 103.50"
/>
<path stroke="#808080" vector-effect="non-scaling-stroke" d="
  M 189.02 130.29
  C 195.60 125.52 191.64 114.97 183.57 115.69
  C 176.64 116.30 173.47 124.35 178.46 129.43
  C 179.10 130.09 179.73 130.36 179.53 131.47
  Q 178.81 135.50 178.18 139.47
  Q 178.08 140.12 178.73 140.12
  L 189.72 140.14
  Q 190.33 140.14 190.22 139.54
  L 188.74 130.97
  Q 188.66 130.54 189.02 130.29"
/>
</g>
<path fill="#ffffff" d="
  M 121.87 0.00
  L 134.24 0.00
  Q 139.11 0.59 143.98 1.21
  Q 176.46 5.34 202.54 23.94
  Q 210.54 29.65 217.79 36.85
  Q 252.53 71.35 256.00 121.88
  L 256.00 133.24
  Q 253.68 175.04 228.64 207.05
  C 196.41 248.25 141.79 265.49 92.34 250.87
  Q 58.83 240.96 35.73 216.77
  Q 3.02 182.50 0.00 133.86
  L 0.00 122.01
  Q 0.56 117.00 1.19 112.02
  Q 4.67 84.27 19.00 60.86
  Q 24.09 52.55 30.84 44.77
  Q 66.14 4.06 121.87 0.00
  Z
  M 116.66 79.26
  A 18.88 18.88 0.0 0 0 97.78 60.38
  A 18.88 18.88 0.0 0 0 78.90 79.26
  A 18.88 18.88 0.0 0 0 97.78 98.14
  A 18.88 18.88 0.0 0 0 116.66 79.26
  Z
  M 205.02 102.84
  C 204.82 93.15 206.40 84.15 198.33 76.92
  C 187.23 66.96 170.20 71.60 165.34 85.30
  C 163.48 90.55 164.16 97.18 164.13 102.89
  Q 164.13 103.50 163.51 103.50
  L 158.25 103.50
  Q 157.75 103.50 157.75 104.00
  L 157.75 152.06
  A 0.31 0.31 0.0 0 0 158.06 152.37
  L 210.31 152.38
  A 0.31 0.31 0.0 0 0 210.62 152.07
  L 210.62 104.12
  Q 210.62 103.50 210.00 103.50
  L 205.69 103.50
  Q 205.03 103.50 205.02 102.84
  Z
  M 68.62 131.94
  L 68.63 195.50
  A 0.37 0.37 0.0 0 0 69.00 195.87
  L 125.15 195.87
  A 0.35 0.35 0.0 0 0 125.50 195.52
  L 125.50 132.00
  Q 125.50 131.75 125.75 131.75
  L 130.99 131.75
  Q 131.18 131.75 131.18 131.94
  Q 131.46 150.52 131.32 167.96
  C 131.27 174.33 134.50 177.85 140.96 177.81
  Q 162.03 177.68 182.37 177.77
  Q 184.34 177.78 186.38 177.15
  C 193.72 174.85 193.76 163.40 186.67 160.91
  Q 184.47 160.13 181.24 160.16
  Q 164.32 160.30 149.32 160.25
  Q 148.80 160.24 148.79 159.72
  Q 148.62 147.48 148.84 133.95
  Q 148.96 126.30 147.59 121.95
  C 143.86 110.12 132.66 102.63 120.38 102.66
  Q 101.63 102.70 81.71 102.55
  Q 71.58 102.47 67.23 103.81
  C 55.41 107.45 45.29 117.92 45.26 130.75
  Q 45.22 156.46 45.26 184.43
  Q 45.27 188.44 45.79 190.02
  C 48.76 199.04 62.71 197.10 62.73 187.56
  Q 62.77 160.00 62.75 132.00
  A 0.25 0.25 0.0 0 1 63.00 131.75
  L 68.44 131.75
  Q 68.62 131.75 68.62 131.94
  Z"
/>
<circle fill="#000000" cx="97.78" cy="79.26" r="18.88"/>
<path fill="#000000" d="
  M 205.69 103.50
  L 210.00 103.50
  Q 210.62 103.50 210.62 104.12
  L 210.62 152.07
  A 0.31 0.31 0.0 0 1 210.31 152.38
  L 158.06 152.37
  A 0.31 0.31 0.0 0 1 157.75 152.06
  L 157.75 104.00
  Q 157.75 103.50 158.25 103.50
  L 163.51 103.50
  Q 164.13 103.50 164.13 102.89
  C 164.16 97.18 163.48 90.55 165.34 85.30
  C 170.20 71.60 187.23 66.96 198.33 76.92
  C 206.40 84.15 204.82 93.15 205.02 102.84
  Q 205.03 103.50 205.69 103.50
  Z
  M 172.86 103.50
  L 196.42 103.50
  A 0.49 0.49 0.0 0 0 196.91 103.01
  L 196.91 92.16
  A 12.40 12.12 90.0 0 0 184.79 79.76
  L 184.49 79.76
  A 12.40 12.12 -90.0 0 0 172.37 92.16
  L 172.37 103.01
  A 0.49 0.49 0.0 0 0 172.86 103.50
  Z
  M 189.02 130.29
  C 195.60 125.52 191.64 114.97 183.57 115.69
  C 176.64 116.30 173.47 124.35 178.46 129.43
  C 179.10 130.09 179.73 130.36 179.53 131.47
  Q 178.81 135.50 178.18 139.47
  Q 178.08 140.12 178.73 140.12
  L 189.72 140.14
  Q 190.33 140.14 190.22 139.54
  L 188.74 130.97
  Q 188.66 130.54 189.02 130.29
  Z"
/>
<path fill="#ffffff" d="
  M 172.86 103.50
  A 0.49 0.49 0.0 0 1 172.37 103.01
  L 172.37 92.16
  A 12.40 12.12 -90.0 0 1 184.49 79.76
  L 184.79 79.76
  A 12.40 12.12 90.0 0 1 196.91 92.16
  L 196.91 103.01
  A 0.49 0.49 0.0 0 1 196.42 103.50
  L 172.86 103.50
  Z"
/>
<path fill="#000000" d="
  M 68.62 131.94
  Q 68.62 131.75 68.44 131.75
  L 63.00 131.75
  A 0.25 0.25 0.0 0 0 62.75 132.00
  Q 62.77 160.00 62.73 187.56
  C 62.71 197.10 48.76 199.04 45.79 190.02
  Q 45.27 188.44 45.26 184.43
  Q 45.22 156.46 45.26 130.75
  C 45.29 117.92 55.41 107.45 67.23 103.81
  Q 71.58 102.47 81.71 102.55
  Q 101.63 102.70 120.38 102.66
  C 132.66 102.63 143.86 110.12 147.59 121.95
  Q 148.96 126.30 148.84 133.95
  Q 148.62 147.48 148.79 159.72
  Q 148.80 160.24 149.32 160.25
  Q 164.32 160.30 181.24 160.16
  Q 184.47 160.13 186.67 160.91
  C 193.76 163.40 193.72 174.85 186.38 177.15
  Q 184.34 177.78 182.37 177.77
  Q 162.03 177.68 140.96 177.81
  C 134.50 177.85 131.27 174.33 131.32 167.96
  Q 131.46 150.52 131.18 131.94
  Q 131.18 131.75 130.99 131.75
  L 125.75 131.75
  Q 125.50 131.75 125.50 132.00
  L 125.50 195.52
  A 0.35 0.35 0.0 0 1 125.15 195.87
  L 69.00 195.87
  A 0.37 0.37 0.0 0 1 68.63 195.50
  L 68.62 131.94
  Z"
/>
<path fill="#ffffff" d="
  M 188.74 130.97
  L 190.22 139.54
  Q 190.33 140.14 189.72 140.14
  L 178.73 140.12
  Q 178.08 140.12 178.18 139.47
  Q 178.81 135.50 179.53 131.47
  C 179.73 130.36 179.10 130.09 178.46 129.43
  C 173.47 124.35 176.64 116.30 183.57 115.69
  C 191.64 114.97 195.60 125.52 189.02 130.29
  Q 188.66 130.54 188.74 130.97
  Z"
/>
</svg>
