<?xml version="1.0" encoding="UTF-8" standalone="no"?>
<!DOCTYPE svg PUBLIC "-//W3C//DTD SVG 1.1//EN" "http://www.w3.org/Graphics/SVG/1.1/DTD/svg11.dtd">
<svg xmlns="http://www.w3.org/2000/svg" version="1.1" viewBox="0.00 0.00 256.00 360.00">
<g stroke-width="2.00" fill="none" stroke-linecap="butt">
<path stroke="#808080" vector-effect="non-scaling-stroke" d="
  M 89.04 64.25
  L 162.96 64.25
  A 0.34 0.34 0.0 0 0 163.30 63.91
  L 163.30 49.05
  A 9.27 9.10 0.0 0 0 154.03 39.95
  L 97.97 39.95
  A 9.27 9.10 0.0 0 0 88.70 49.05
  L 88.70 63.91
  A 0.34 0.34 0.0 0 0 89.04 64.25"
/>
<path stroke="#808080" vector-effect="non-scaling-stroke" d="
  M 108.38 184.62
  L 143.69 184.63
  Q 144.25 184.63 144.25 185.19
  L 144.25 188.19
  Q 144.25 188.87 144.93 188.87
  L 163.51 188.88
  A 0.78 0.76 -78.5 0 0 164.22 188.40
  Q 170.65 172.46 176.52 158.81
  Q 181.95 146.13 182.98 139.94
  Q 185.80 122.84 179.69 108.37
  Q 171.64 89.30 164.16 70.97
  A 0.75 0.74 78.8 0 0 163.47 70.50
  L 144.75 70.50
  A 0.50 0.50 0.0 0 0 144.25 71.00
  L 144.25 74.31
  Q 144.25 74.88 143.69 74.88
  L 108.44 74.87
  Q 107.75 74.87 107.75 74.19
  L 107.75 71.00
  Q 107.75 70.50 107.25 70.50
  L 88.49 70.50
  A 0.77 0.76 10.7 0 0 87.78 70.98
  Q 81.29 87.52 74.74 102.51
  Q 70.05 113.24 68.95 119.91
  C 66.97 131.96 68.61 142.63 73.67 154.38
  Q 81.46 172.46 87.69 188.15
  Q 87.98 188.89 88.77 188.89
  L 107.20 188.86
  Q 107.75 188.86 107.75 188.30
  L 107.75 185.25
  Q 107.75 184.62 108.38 184.62"
/>
<path stroke="#808080" vector-effect="non-scaling-stroke" d="
  M 162.96 195.75
  L 89.04 195.75
  A 0.34 0.34 0.0 0 0 88.70 196.09
  L 88.70 211.06
  A 9.20 8.99 -0.0 0 0 97.90 220.05
  L 154.10 220.05
  A 9.20 8.99 0.0 0 0 163.30 211.06
  L 163.30 196.09
  A 0.34 0.34 0.0 0 0 162.96 195.75"
/>
<path stroke="#808080" vector-effect="non-scaling-stroke" d="
  M 169.11 129.73
  A 43.09 43.09 0.0 0 0 126.02 86.64
  A 43.09 43.09 0.0 0 0 82.93 129.73
  A 43.09 43.09 0.0 0 0 126.02 172.82
  A 43.09 43.09 0.0 0 0 169.11 129.73"
/>
<path stroke="#808080" vector-effect="non-scaling-stroke" d="
  M 128.64 93.10
  A 2.64 2.64 0.0 0 0 126.00 90.46
  A 2.64 2.64 0.0 0 0 123.36 93.10
  A 2.64 2.64 0.0 0 0 126.00 95.74
  A 2.64 2.64 0.0 0 0 128.64 93.10"
/>
<path stroke="#808080" vector-effect="non-scaling-stroke" d="
  M 102.55 103.89
  A 2.64 2.64 0.0 0 0 99.91 101.25
  A 2.64 2.64 0.0 0 0 97.27 103.89
  A 2.64 2.64 0.0 0 0 99.91 106.53
  A 2.64 2.64 0.0 0 0 102.55 103.89"
/>
<path stroke="#808080" vector-effect="non-scaling-stroke" d="
  M 154.76 103.89
  A 2.64 2.64 0.0 0 0 152.12 101.25
  A 2.64 2.64 0.0 0 0 149.48 103.89
  A 2.64 2.64 0.0 0 0 152.12 106.53
  A 2.64 2.64 0.0 0 0 154.76 103.89"
/>
<path stroke="#808080" vector-effect="non-scaling-stroke" d="
  M 129.08 126.06
  L 128.47 105.53
  Q 128.41 103.67 126.64 103.11
  Q 126.22 102.97 125.79 103.06
  Q 123.63 103.50 123.56 105.70
  L 122.88 129.30
  Q 122.77 133.22 126.68 133.13
  L 144.61 132.75
  Q 146.82 132.70 147.51 130.60
  Q 147.62 130.25 147.57 129.89
  Q 147.17 127.29 144.54 127.22
  L 129.89 126.87
  Q 129.10 126.85 129.08 126.06"
/>
<path stroke="#808080" vector-effect="non-scaling-stroke" d="
  M 91.76 130.02
  A 2.64 2.64 0.0 0 0 89.12 127.38
  A 2.64 2.64 0.0 0 0 86.48 130.02
  A 2.64 2.64 0.0 0 0 89.12 132.66
  A 2.64 2.64 0.0 0 0 91.76 130.02"
/>
<path stroke="#808080" vector-effect="non-scaling-stroke" d="
  M 165.55 129.99
  A 2.64 2.64 0.0 0 0 162.91 127.35
  A 2.64 2.64 0.0 0 0 160.27 129.99
  A 2.64 2.64 0.0 0 0 162.91 132.63
  A 2.64 2.64 0.0 0 0 165.55 129.99"
/>
<path stroke="#808080" vector-effect="non-scaling-stroke" d="
  M 102.56 156.12
  A 2.64 2.64 0.0 0 0 99.92 153.48
  A 2.64 2.64 0.0 0 0 97.28 156.12
  A 2.64 2.64 0.0 0 0 99.92 158.76
  A 2.64 2.64 0.0 0 0 102.56 156.12"
/>
<path stroke="#808080" vector-effect="non-scaling-stroke" d="
  M 154.77 156.09
  A 2.64 2.64 0.0 0 0 152.13 153.45
  A 2.64 2.64 0.0 0 0 149.49 156.09
  A 2.64 2.64 0.0 0 0 152.13 158.73
  A 2.64 2.64 0.0 0 0 154.77 156.09"
/>
<path stroke="#808080" vector-effect="non-scaling-stroke" d="
  M 128.66 166.88
  A 2.64 2.64 0.0 0 0 126.02 164.24
  A 2.64 2.64 0.0 0 0 123.38 166.88
  A 2.64 2.64 0.0 0 0 126.02 169.52
  A 2.64 2.64 0.0 0 0 128.66 166.88"
/>
</g>
<path fill="#ffffff" d="
  M 121.87 0.00
  L 134.24 0.00
  Q 139.11 0.59 143.98 1.21
  Q 176.36 5.33 202.38 23.83
  Q 210.39 29.53 217.65 36.72
  Q 252.51 71.24 256.00 121.88
  L 256.00 133.23
  Q 253.60 177.88 226.18 210.17
  C 198.80 242.41 158.39 259.29 116.09 255.40
  C 89.72 252.98 64.43 242.36 44.37 224.83
  Q 3.91 189.46 0.00 133.88
  L 0.00 122.01
  Q 0.56 117.00 1.19 112.02
  Q 4.67 84.27 19.00 60.86
  Q 24.09 52.55 30.84 44.77
  Q 66.14 4.06 121.87 0.00
  Z
  M 89.04 64.25
  L 162.96 64.25
  A 0.34 0.34 0.0 0 0 163.30 63.91
  L 163.30 49.05
  A 9.27 9.10 0.0 0 0 154.03 39.95
  L 97.97 39.95
  A 9.27 9.10 0.0 0 0 88.70 49.05
  L 88.70 63.91
  A 0.34 0.34 0.0 0 0 89.04 64.25
  Z
  M 108.38 184.62
  L 143.69 184.63
  Q 144.25 184.63 144.25 185.19
  L 144.25 188.19
  Q 144.25 188.87 144.93 188.87
  L 163.51 188.88
  A 0.78 0.76 -78.5 0 0 164.22 188.40
  Q 170.65 172.46 176.52 158.81
  Q 181.95 146.13 182.98 139.94
  Q 185.80 122.84 179.69 108.37
  Q 171.64 89.30 164.16 70.97
  A 0.75 0.74 78.8 0 0 163.47 70.50
  L 144.75 70.50
  A 0.50 0.50 0.0 0 0 144.25 71.00
  L 144.25 74.31
  Q 144.25 74.88 143.69 74.88
  L 108.44 74.87
  Q 107.75 74.87 107.75 74.19
  L 107.75 71.00
  Q 107.75 70.50 107.25 70.50
  L 88.49 70.50
  A 0.77 0.76 10.7 0 0 87.78 70.98
  Q 81.29 87.52 74.74 102.51
  Q 70.05 113.24 68.95 119.91
  C 66.97 131.96 68.61 142.63 73.67 154.38
  Q 81.46 172.46 87.69 188.15
  Q 87.98 188.89 88.77 188.89
  L 107.20 188.86
  Q 107.75 188.86 107.75 188.30
  L 107.75 185.25
  Q 107.75 184.62 108.38 184.62
  Z
  M 162.96 195.75
  L 89.04 195.75
  A 0.34 0.34 0.0 0 0 88.70 196.09
  L 88.70 211.06
  A 9.20 8.99 -0.0 0 0 97.90 220.05
  L 154.10 220.05
  A 9.20 8.99 0.0 0 0 163.30 211.06
  L 163.30 196.09
  A 0.34 0.34 0.0 0 0 162.96 195.75
  Z"
/>
<path fill="#000000" d="
  M 89.04 64.25
  A 0.34 0.34 0.0 0 1 88.70 63.91
  L 88.70 49.05
  A 9.27 9.10 0.0 0 1 97.97 39.95
  L 154.03 39.95
  A 9.27 9.10 -0.0 0 1 163.30 49.05
  L 163.30 63.91
  A 0.34 0.34 0.0 0 1 162.96 64.25
  L 89.04 64.25
  Z"
/>
<path fill="#000000" d="
  M 107.75 185.25
  L 107.75 188.30
  Q 107.75 188.86 107.20 188.86
  L 88.77 188.89
  Q 87.98 188.89 87.69 188.15
  Q 81.46 172.46 73.67 154.38
  C 68.61 142.63 66.97 131.96 68.95 119.91
  Q 70.05 113.24 74.74 102.51
  Q 81.29 87.52 87.78 70.98
  A 0.77 0.76 10.7 0 1 88.49 70.50
  L 107.25 70.50
  Q 107.75 70.50 107.75 71.00
  L 107.75 74.19
  Q 107.75 74.87 108.44 74.87
  L 143.69 74.88
  Q 144.25 74.88 144.25 74.31
  L 144.25 71.00
  A 0.50 0.50 0.0 0 1 144.75 70.50
  L 163.47 70.50
  A 0.75 0.74 78.8 0 1 164.16 70.97
  Q 171.64 89.30 179.69 108.37
  Q 185.80 122.84 182.98 139.94
  Q 181.95 146.13 176.52 158.81
  Q 170.65 172.46 164.22 188.40
  A 0.78 0.76 -78.5 0 1 163.51 188.88
  L 144.93 188.87
  Q 144.25 188.87 144.25 188.19
  L 144.25 185.19
  Q 144.25 184.63 143.69 184.63
  L 108.38 184.62
  Q 107.75 184.62 107.75 185.25
  Z
  M 169.11 129.73
  A 43.09 43.09 0.0 0 0 126.02 86.64
  A 43.09 43.09 0.0 0 0 82.93 129.73
  A 43.09 43.09 0.0 0 0 126.02 172.82
  A 43.09 43.09 0.0 0 0 169.11 129.73
  Z"
/>
<path fill="#ffffff" d="
  M 169.11 129.73
  A 43.09 43.09 0.0 0 1 126.02 172.82
  A 43.09 43.09 0.0 0 1 82.93 129.73
  A 43.09 43.09 0.0 0 1 126.02 86.64
  A 43.09 43.09 0.0 0 1 169.11 129.73
  Z
  M 128.64 93.10
  A 2.64 2.64 0.0 0 0 126.00 90.46
  A 2.64 2.64 0.0 0 0 123.36 93.10
  A 2.64 2.64 0.0 0 0 126.00 95.74
  A 2.64 2.64 0.0 0 0 128.64 93.10
  Z
  M 102.55 103.89
  A 2.64 2.64 0.0 0 0 99.91 101.25
  A 2.64 2.64 0.0 0 0 97.27 103.89
  A 2.64 2.64 0.0 0 0 99.91 106.53
  A 2.64 2.64 0.0 0 0 102.55 103.89
  Z
  M 154.76 103.89
  A 2.64 2.64 0.0 0 0 152.12 101.25
  A 2.64 2.64 0.0 0 0 149.48 103.89
  A 2.64 2.64 0.0 0 0 152.12 106.53
  A 2.64 2.64 0.0 0 0 154.76 103.89
  Z
  M 129.08 126.06
  L 128.47 105.53
  Q 128.41 103.67 126.64 103.11
  Q 126.22 102.97 125.79 103.06
  Q 123.63 103.50 123.56 105.70
  L 122.88 129.30
  Q 122.77 133.22 126.68 133.13
  L 144.61 132.75
  Q 146.82 132.70 147.51 130.60
  Q 147.62 130.25 147.57 129.89
  Q 147.17 127.29 144.54 127.22
  L 129.89 126.87
  Q 129.10 126.85 129.08 126.06
  Z
  M 91.76 130.02
  A 2.64 2.64 0.0 0 0 89.12 127.38
  A 2.64 2.64 0.0 0 0 86.48 130.02
  A 2.64 2.64 0.0 0 0 89.12 132.66
  A 2.64 2.64 0.0 0 0 91.76 130.02
  Z
  M 165.55 129.99
  A 2.64 2.64 0.0 0 0 162.91 127.35
  A 2.64 2.64 0.0 0 0 160.27 129.99
  A 2.64 2.64 0.0 0 0 162.91 132.63
  A 2.64 2.64 0.0 0 0 165.55 129.99
  Z
  M 102.56 156.12
  A 2.64 2.64 0.0 0 0 99.92 153.48
  A 2.64 2.64 0.0 0 0 97.28 156.12
  A 2.64 2.64 0.0 0 0 99.92 158.76
  A 2.64 2.64 0.0 0 0 102.56 156.12
  Z
  M 154.77 156.09
  A 2.64 2.64 0.0 0 0 152.13 153.45
  A 2.64 2.64 0.0 0 0 149.49 156.09
  A 2.64 2.64 0.0 0 0 152.13 158.73
  A 2.64 2.64 0.0 0 0 154.77 156.09
  Z
  M 128.66 166.88
  A 2.64 2.64 0.0 0 0 126.02 164.24
  A 2.64 2.64 0.0 0 0 123.38 166.88
  A 2.64 2.64 0.0 0 0 126.02 169.52
  A 2.64 2.64 0.0 0 0 128.66 166.88
  Z"
/>
<circle fill="#000000" cx="126.00" cy="93.10" r="2.64"/>
<circle fill="#000000" cx="99.91" cy="103.89" r="2.64"/>
<circle fill="#000000" cx="152.12" cy="103.89" r="2.64"/>
<path fill="#000000" d="
  M 129.89 126.87
  L 144.54 127.22
  Q 147.17 127.29 147.57 129.89
  Q 147.62 130.25 147.51 130.60
  Q 146.82 132.70 144.61 132.75
  L 126.68 133.13
  Q 122.77 133.22 122.88 129.30
  L 123.56 105.70
  Q 123.63 103.50 125.79 103.06
  Q 126.22 102.97 126.64 103.11
  Q 128.41 103.67 128.47 105.53
  L 129.08 126.06
  Q 129.10 126.85 129.89 126.87
  Z"
/>
<circle fill="#000000" cx="89.12" cy="130.02" r="2.64"/>
<circle fill="#000000" cx="162.91" cy="129.99" r="2.64"/>
<circle fill="#000000" cx="99.92" cy="156.12" r="2.64"/>
<circle fill="#000000" cx="152.13" cy="156.09" r="2.64"/>
<circle fill="#000000" cx="126.02" cy="166.88" r="2.64"/>
<path fill="#000000" d="
  M 162.96 195.75
  A 0.34 0.34 0.0 0 1 163.30 196.09
  L 163.30 211.06
  A 9.20 8.99 0.0 0 1 154.10 220.05
  L 97.90 220.05
  A 9.20 8.99 0.0 0 1 88.70 211.06
  L 88.70 196.09
  A 0.34 0.34 0.0 0 1 89.04 195.75
  L 162.96 195.75
  Z"
/>
</svg>
